<?xml version="1.0" encoding="UTF-8"?><svg id="Layer_2" xmlns="http://www.w3.org/2000/svg" viewBox="0 0 1147.51 1478.34"><defs><style>.cls-1{stroke:#fff;stroke-miterlimit:10;}</style></defs><g id="Layer_1-2"><path class="cls-1" d="M885.05,515.88c23.72,68.5,20.27,146.01-9.45,212.13-18.81,41.85-49.5,80.4-91.8,98.17-42.3,17.77-96.95,10-125.55-25.87-28.6-35.87-18.7-98.63,23.49-116.67,25.04-10.7,57.3-6.25,76.33-25.72,21.14-21.63,11.8-57.63-1.03-85.01-26.91-57.43-75.61-116.72-138.89-112.47-35.07,2.35-66.53,25.11-86.15,54.27-19.62,29.16-28.79,64.13-33.93,98.9-12.69,85.91-1.08,178.31,48.15,249.85,49.23,71.55,140.51,116.98,225.1,97.31,56.16-13.06,102.5-51.34,153.72-77.81,51.22-26.47,118.05-39.61,163.48-4.11,31.56,24.67,44.33,67.45,42.98,107.49-.84,24.96-6.8,50.48-21.7,70.52s-39.9,33.63-64.67,30.41c-24.77-3.22-46.83-26.01-45.01-50.92,1.82-24.91,31.66-44.68,53.91-33.35-22.31-30.23-73.7-21.96-97.37,7.22-23.66,29.18-26.34,69.83-24.57,107.36,1.78,37.52,6.8,76.2-5,111.86-11.8,35.66-47.29,67.18-84.02,59.3-40.81-8.76-58.21-57.45-61.26-99.08-1.53-20.91-1.07-42.89,8.64-61.47s31.03-32.53,51.42-27.65c20.39,4.88,32.67,33.46,18.27,48.7,26.89-30.44,12.6-84.23-23.19-103.43-35.79-19.2-83.18-6.52-110.85,23.21s-37.6,72.75-34.55,113.25c4.91,65.33,42.4,127.41,97.93,162.18,55.53,34.77,127.74,41.38,188.67,17.27,16.25-6.43,32.1-15.24,43.12-28.81,11.02-13.57,16.43-32.64,10.36-49.03-6.06-16.39-25.44-27.8-41.89-21.9-16.45,5.9-23.19,30.85-9.96,42.28-13.49-16.84-14.4-41.9-4.37-61.01,10.03-19.1,29.68-32.18,50.75-36.8,59.17-12.96,118.5,43.49,120.76,104.02,2.26,60.53-41.24,116.11-95.74,142.55-54.5,26.44-117.79,28.26-177.98,21.48-55.44-6.24-111.17-19.79-158.39-49.5-47.22-29.71-85.18-77.37-93.7-132.5-9.87-63.89,19.78-128.33,13.67-192.69-6.63-69.78-53.59-128.16-98.55-181.93-29.54-35.33-66.68-74.03-112.56-70.05-36.31,3.15-64.63,32.94-83.36,64.21-45.95,76.73-51.12,184.49,10.12,249.67,16.53,17.6,38.74,31.87,62.88,31.54s48.7-19.71,48.11-43.85c-1.02-41.25-62.4-53.38-77.52-91.78-10.41-26.42,7.26-58.59,33.79-68.73,26.53-10.14,57.84-.88,78.85,18.22,21.01,19.1,32.87,46.52,38.75,74.31,8.57,40.51,3.9,87-25.15,116.51-35.5,36.06-95.67,34.78-141.87,14.11-98.26-43.96-151.34-169.05-114.69-270.26,13.01-35.92,35.24-67.63,57.35-98.79s44.56-62.67,58.12-98.38c13.56-35.71,17.41-76.74,2-111.69-15.41-34.95-53.16-61.28-90.95-55.71-37.79,5.57-67.5,49.08-52.59,84.25,8.83,20.82,35.72,34.83,55.18,23.3,19.46-11.53,12.9-49.6-9.7-48.79,20.59-.83,39.33,15.44,45.64,35.05,6.32,19.61,2.02,41.39-7.11,59.87-27.17,54.96-99.81,82.18-156.41,58.59-56.59-23.59-88.41-94.34-68.5-152.33,4.81-14,12.78-27.73,25.64-35.08,12.86-7.35,31.29-6.2,40.31,5.54,9.02,11.74,2.14,32.94-7.86,34.04-10,1.09-15.58,1.09-20-.46,18.45,17.55,51.4,9.73,66.91-10.46,15.51-20.2,17.12-47.89,13.63-73.12-4.71-34.09-18.63-68.43-45.55-89.88-26.91-21.45-68.46-26.38-95.58-5.18-30.38,23.76-32.88,68.01-32.76,106.57,.28,95.49,.56,190.98,.84,286.48C-15.83,707.63-11.45,539.94,60.23,401.84c15.9-30.63,35.44-60.21,62.72-81.34,27.29-21.13,63.39-32.91,96.97-24.92,33.58,7.99,62.29,38.73,61.78,73.24-.2,13.24-4.95,27-15.27,35.3-10.32,8.31-26.71,9.48-36.47,.53-9.76-8.95-8.5-27.86,3.49-33.47-22.3,19.79-28.47,56.65-11.07,80.86,17.39,24.21,57.45,28.98,78,7.38,27.62-29.02,16.33-88.91,53.84-103.01,15.09-5.67,32.96,.19,44.08,11.85,11.13,11.66,16.17,28.11,16.81,44.22,.64,16.02-3.41,33.29-15.47,43.86-12.06,10.57-33.37,10.97-42.58-2.15-9.21-13.13,3.79-35.9,19.18-31.39-27.47-6.12-51.86,28.61-41.76,54.88,10.1,26.26,43.66,37.95,70.7,30.16,27.04-7.79,47.5-30.55,60.48-55.52,16.57-31.88,22.95-70.85,8.91-103.92-14.04-33.07-51.94-56.77-86.64-47.46-24.32-22.07-38.16-55.24-36.73-88.06,.9-20.7,8.75-42.54,26.17-53.77,17.41-11.23,45.13-6.51,52.95,12.67,7.82,19.19-16.82,43.56-33.91,31.85,12.23,15.42,34.88,21.58,53.24,14.47,18.36-7.11,30.96-26.91,29.61-46.55-3.59-52.6-88.75-74.19-84.96-126.78,2.19-30.38,38.33-49.97,67.93-42.8,29.6,7.17,51.17,33.61,62.37,61.93,11.19,28.33,14.12,59.11,20.13,88.97,6.01,29.86,15.99,60.41,37.85,81.62,19.84,19.26,48.62,24.81,73.2,37.46,29.65,15.26,86.28,61.75,105.43,81.7,19.15,19.95,100.1,93.71,123.83,162.21Z"/></g></svg>