<?xml version="1.0" encoding="UTF-8"?><svg id="Layer_2" xmlns="http://www.w3.org/2000/svg" viewBox="0 0 688.13 1071.41"><defs><style>.cls-1,.cls-2{fill:#21bcff;}.cls-1,.cls-2,.cls-3,.cls-4,.cls-5,.cls-6{stroke:#000;stroke-miterlimit:10;}.cls-2,.cls-3,.cls-4,.cls-5,.cls-6{stroke-width:1.3px;}.cls-3{fill:#96e0ff;}.cls-4{fill:#59cdff;}.cls-5{fill:#c2ecff;}.cls-6{fill:#ff9980;}</style></defs><g id="Layer_1-2"><g><g><path class="cls-2" d="M376.24,423.88c-15.11-18.69-26.12-42.09-27.1-68.85-.98-26.75,9.16-57.06,29.78-77.85,20.62-20.79,51.99-29.51,72.21-16.94-19.18,8.29-38.21,22.04-49.04,41.35-10.83,19.31-10.98,44.51,3.24,55.48,10.11,7.8,25.41,7.22,39.08,1.5,13.67-5.72,25.98-15.95,37.29-26.84,41.56-40.04,74.01-93.55,81.75-147.87,7.73-54.32-12.35-108.02-54.65-128.58,60.96,.92,107.94,50.39,114.56,113.52,6.63,63.14-24.52,135.68-74.54,185.24-50.02,49.56-116.58,76.51-172.59,69.84Z"/><path class="cls-4" d="M360.28,459.29c1.66-20.45,8.62-41.39,23.76-58.51,15.14-17.12,39.24-29.88,64.22-30.6,24.98-.72,49.51,12.35,54.61,32.02-16.74-6.16-36.59-8.86-54.64-3.29-18.06,5.56-32.98,21.05-30.65,36.21,1.66,10.77,11.46,19.42,23.27,23.93,11.81,4.51,25.45,5.43,38.85,5.35,49.26-.29,100.8-14.28,137.55-43.31,36.74-29.03,55.93-74.04,41.88-111.64,37.15,36.44,37.08,94.66,4.02,137.59-33.05,42.93-95,69.45-155.08,70.65-60.09,1.21-117.09-21.3-147.79-58.38Z"/><path class="cls-3" d="M368.46,468.84c12.95-13.64,29.97-24.58,50.62-28.09,20.65-3.51,45.2,1.25,63.45,15.11,18.25,13.86,28.23,37.29,20.56,54.27-8.4-14.03-21.02-27.37-37.11-33.79-16.09-6.42-35.65-3.95-42.7,8.21-5.01,8.64-2.99,20.45,2.85,30.47,5.84,10.02,15.04,18.52,24.65,26.16,35.33,28.13,80.17,47.8,123.09,48.22,42.93,.42,82.52-20.67,94.12-55.59,5.55,47.38-28,88.9-76.29,100.52-48.29,11.63-107.76-5.08-151.34-38.79-43.58-33.71-71.32-82.56-71.9-126.69Z"/><path class="cls-5" d="M386.68,531.09c15.49-5.72,33.14-7.74,50.77-2.49,17.63,5.25,35.12,18.52,44.11,36.51,8.99,18,7.77,40.33-4.87,50.72-1.17-14.31-5.93-29.71-16.12-41.01-10.18-11.3-26.55-16.94-36.82-10.1-7.3,4.86-10.29,14.95-9.58,25.1,.71,10.15,4.66,20.42,9.26,30.17,16.91,35.86,44.59,68.75,78.24,85.74,33.65,16.98,73.01,15.74,95.7-7.27-14.01,39.47-56.54,59.15-99.09,49.57-42.55-9.58-82.9-45.81-104.15-89.27-21.25-43.46-24.14-92.7-7.47-127.68Z"/></g><path class="cls-6" d="M272.75,937.28c-55.13-14.09-109.13-42.92-148.85-92.31-39.72-49.39-63.35-121.25-53.64-189.89,9.71-68.64,56.9-129.57,113.07-134.33-24.67,42.88-41.32,95.88-34.56,147.85,6.77,51.97,42.13,100,84.65,100.71,30.22,.5,58.44-22.25,76.3-52.44,17.85-30.19,26.74-67.04,32.78-103.7,22.22-134.8,8.08-282.27-54.1-396.29C226.21,102.86,112.12,29.36,2.75,50.2,119.73-34.32,278.88-6.91,380.8,103.53c101.91,110.44,145.45,292.18,120.66,457.01-24.79,164.83-112.97,310.15-228.71,376.74Z"/><path class="cls-1" d="M302.53,986.35c0,46.7-14.56,84.56-32.52,84.56-17.96,0-32.52-37.86-32.52-84.56,0-46.7,14.56-84.56,32.52-84.56s32.52,37.86,32.52,84.56Z"/></g></g></svg>