<?xml version="1.0" encoding="UTF-8"?><svg id="Layer_2" xmlns="http://www.w3.org/2000/svg" xmlns:xlink="http://www.w3.org/1999/xlink" viewBox="0 0 757.33 701.22"><defs><style>.cls-1{fill:none;}.cls-2{fill:#0037ff;}.cls-2,.cls-3,.cls-4,.cls-5,.cls-6,.cls-7,.cls-8,.cls-9,.cls-10,.cls-11,.cls-12,.cls-13,.cls-14,.cls-15,.cls-16,.cls-17,.cls-18,.cls-19,.cls-20,.cls-21,.cls-22,.cls-23,.cls-24,.cls-25,.cls-26,.cls-27,.cls-28,.cls-29,.cls-30{stroke:#000;stroke-miterlimit:10;}.cls-2,.cls-3,.cls-4,.cls-5,.cls-6,.cls-9,.cls-12,.cls-15,.cls-19,.cls-20,.cls-21,.cls-22,.cls-25,.cls-29,.cls-30{stroke-width:1.33px;}.cls-3{fill:#00a2ff;}.cls-4{fill:#006fff;}.cls-31,.cls-13,.cls-16,.cls-17,.cls-18,.cls-26{fill:#8f0a8a;}.cls-5{fill:#0cf;}.cls-6{fill:#7300ff;}.cls-7{stroke-width:.14px;}.cls-7,.cls-8,.cls-9{fill:#00bfff;}.cls-8,.cls-17,.cls-24,.cls-27{stroke-width:1.13px;}.cls-10{stroke-width:1.58px;}.cls-10,.cls-11,.cls-19,.cls-23{fill:#ff039a;}.cls-11{stroke-width:1.3px;}.cls-12{fill:#0059ff;}.cls-13{stroke-width:.91px;}.cls-14{fill:#384fff;stroke-width:.77px;}.cls-15{fill:#ff00bf;}.cls-16{stroke-width:1.09px;}.cls-18{stroke-width:1.01px;}.cls-20{fill:#ff0090;}.cls-32{fill:#fff;}.cls-21{fill:#0095ff;}.cls-22{fill:#f0f;}.cls-23{stroke-width:1.89px;}.cls-24{fill:#787878;}.cls-25{fill:#000dff;}.cls-26{stroke-width:.13px;}.cls-27,.cls-28{fill:#a5b800;}.cls-28{stroke-width:1.07px;}.cls-29{fill:#c300ff;}.cls-30{fill:#2600ff;}.cls-33{clip-path:url(#clippath);}</style><clipPath id="clippath"><polygon class="cls-1" points="457.14 701.22 0 661.68 0 0 757.33 0 757.33 701.22 457.14 701.22"/></clipPath></defs><g id="Layer_1-2"><g class="cls-33"><path class="cls-27" d="M427.92,8.18c-3.63,1.09-4.48,6.09-3.28,9.69,17.8,53.07,14.96,112.83-7.99,163.9-1.42,3.15-2.93,6.4-2.91,9.85.02,3.45,2.1,7.17,5.49,7.82,2.95.57,6.8-.84,9.56-.71,2.6.13,5.01-1.45,6.11-3.81,26.28-55.96,23.47-122.14,7.13-182.2-.95-3.49-4.5-7.04-8.02-6.17-1.76.43-4.57,1.17-6.09,1.63Z"/><path class="cls-17" d="M426.08,201.04c7.45-21.59,14.96-43.38,17.69-66.05,1.39-11.55,1.53-23.21,1.66-34.84.32-27.81-1.01-54.69-11.44-82.35-1.3-3.46-4.07-7.01-1.79-9.92,2.11-2.7,5.73-1.62,8.13.83s3.21,6,3.92,9.35c3.74,17.66,7.48,35.35,9.41,53.3,1.69,15.75,1.97,31.65.67,47.43-2.32,28.05-9.69,55.67-21.66,81.15-.83,1.77-1.76,3.62-3.4,4.7s-4.73.86-3.2-3.6Z"/><path class="cls-16" d="M449.17,188.41c15.05-8.83,30.49-17.98,41.3-31.66,3.04-3.84,5.72-8.15,6.56-12.93.84-4.78-.5-10.12-4.33-13.04-3.61,6.69-13.63,8.1-19.77,3.84-6.14-4.27-8.46-12.56-7.29-20.02.46-2.95,1.42-5.87,3.11-8.35,6.13-8.98,20.58-9.04,28.59-2.01,8.02,7.03,10.41,18.72,9.36,29.43-1.34,13.64-7.64,26.85-17.48,36.63,4.34-1.93,9.6-.64,13.19,2.32,3.59,2.97,5.73,7.36,7,11.85,1.49,5.25,1.92,10.96.18,16.2-1.74,5.24-5.9,9.91-11.25,11.34-5.35,1.44-11.68-.98-13.81-6-2.13-5.01,1.18-11.9,6.64-12.76-6.7-3.28-15.13-2.91-21.67.95-6.54,3.86-10.97,11.08-11.4,18.56-6.53-2.34-12.68-5.7-18.14-9.92,1.3-6.15,5.17-12.08,9.21-14.45Z"/><ellipse class="cls-14" cx="507.72" cy="295.56" rx="6.32" ry="8.38" transform="translate(-69.36 405.59) rotate(-41)"/><ellipse class="cls-14" cx="517.14" cy="283.31" rx="6.32" ry="8.38" transform="translate(33.24 620.27) rotate(-63.57)"/><ellipse class="cls-14" cx="518.13" cy="267.69" rx="6.32" ry="8.38" transform="translate(214.95 765.88) rotate(-86)"/><ellipse class="cls-14" cx="511.32" cy="251.58" rx="8.38" ry="6.32" transform="translate(-58.37 237.73) rotate(-24.81)"/><ellipse class="cls-14" cx="494.84" cy="302.69" rx="6.32" ry="8.38" transform="translate(-85.05 288.06) rotate(-30.01)"/><ellipse class="cls-14" cx="478.68" cy="305.25" rx="6.32" ry="8.38" transform="translate(-24.68 42.69) rotate(-4.98)"/><path class="cls-13" d="M445.85,283.98c6.36,9.33,16.93,15.67,28.16,16.87,10.08,1.08,20.53-1.95,28.53-8.18,4.81-3.75,8.86-8.82,10.15-14.78,1.45-6.71-.72-13.72-3.98-19.76-2.62-4.83-6.31-9.55-11.57-11.15-5.91-1.8-12.92,1.28-15.58,6.86-2.19,4.59-1.03,10.93,3.4,13.42,4.43,2.5,11.27-1.01,10.83-6.08-1.44,9.38-9.35,17.39-18.71,18.96-9.35,1.57-19.45-3.43-23.87-11.82-2.83-5.37-3.39-11.61-3.64-17.67-.07-1.67-.12-3.4-.79-4.93-1.03-2.37-3.33-3.89-5.51-5.28-2-1.28-4.49-2.59-6.62-1.55-2.68,1.31-2.57,5.2-1.51,7.98s3.15,26,10.71,37.1Z"/><ellipse class="cls-9" cx="329.99" cy="520.28" rx="35.29" ry="34.62" transform="translate(-260.39 344.12) rotate(-41)"/><path class="cls-28" d="M433.86,444.09c2.11,8.54-2.41,17.81-10.01,21.83s-17.59,2.94-24.93-2.07c-10.41-7.11-14.8-22.12-9.17-32.92,4.53-8.69,14.33-13.67,24.24-14.51,13.11-1.12,26.88,4.5,35.75,14.59,25.7,29.23,7.71,61.2-3.37,68.63-13.58,9.1-26.12,11.43-41.37,10.43-6.7-.44-15.58-3.43-21.98-5.64-6.4-2.22-12.47-6.46-15.4-12.57-.89-1.87-1.35-4.38.19-5.66,1.35-1.12,3.41-.62,5.14-.06,15.93,5.16,33.66,10.39,48.47,3.54,8.29-3.83,14.66-11.37,17.06-20.2,2.41-8.83.81-18.8-4.62-25.38Z"/><path class="cls-18" d="M417.5,454.09c.87-2.68,5.41-2.21,6.34.39.92,2.61-.93,5.58-3.33,7.07-5.81,3.6-14.83,2.2-18.87-2.66-6.13-7.37-8.06-23.14,4.74-29.6,6.74-3.4,26.73-6.61,39.33,13.56,5.51,8.81,12.11,46.11-23.33,58.2-10.94,3.73-24.21,1.05-35.18-1.9-4.71-1.26-11.75-2.68-13.76-7.12-.5-1.1-6.2-4.76-5.62-5.86,1.09-2.09,11.79,2.18,14.04,2.7,10.69,2.49,25.78,5.15,33.38,2.92,7.45-2.19,18.33-4.82,23.7-24.23,2.38-8.58-.3-22.96-7.8-27.37-9.63-5.66-23.9-7.82-27.05,5.07-2.44,9.98,11.9,13.53,13.43,8.82Z"/><circle class="cls-19" cx="535.61" cy="581.2" r="11.06"/><circle class="cls-11" cx="525.9" cy="601.28" r="10.79"/><circle class="cls-10" cx="513.01" cy="622.85" r="13.09"/><circle class="cls-23" cx="496.05" cy="647.26" r="15.73"/><circle class="cls-20" cx="213.88" cy="558.86" r="8.86"/><circle class="cls-15" cx="217.62" cy="576.67" r="8.86"/><circle class="cls-22" cx="223.43" cy="593.22" r="8.86"/><circle class="cls-29" cx="231.45" cy="609.73" r="8.86"/><circle class="cls-6" cx="242.44" cy="623.68" r="8.86"/><circle class="cls-30" cx="254.07" cy="637.06" r="8.86"/><circle class="cls-25" cx="268.15" cy="648.31" r="8.86"/><circle class="cls-2" cx="282.71" cy="659.14" r="8.86"/><circle class="cls-12" cx="299.05" cy="668.43" r="8.86"/><circle class="cls-4" cx="315.58" cy="675.85" r="8.86"/><circle class="cls-21" cx="332.31" cy="681.58" r="8.86"/><circle class="cls-3" cx="349.76" cy="685.11" r="8.86"/><circle class="cls-5" cx="367.4" cy="685.97" r="8.86"/><path class="cls-27" d="M405.52,230.25c-16.06,8.15-21.04,32.45-23.57,52.23-2.53,19.77-.98,40.2,5.75,58.96,8.31,23.17,24.59,43.4,45.46,56.46,13.99,8.76,31.39,14.37,47.04,9.09,13.48-4.55,17.99-10.93,21.37-14.75.49-.56,1.4-.42,1.7.27,6.43,14.61,10.93,31.52,14.53,47.06.9,3.88,3.44,21.22,3.44,28.01,0,12.03,0,24.12-1.93,36-1.19,7.39-3.12,14.64-5.04,21.87l-5.82,21.89c-.31,1.15-.99,2.21-2.02,2.8-2.81,1.6-5.44-1.49-6.54-4.25-1.03-2.59-3.67-8.73-4.94-6.25-3.22,6.33-1.8,9.76-.93,14.64-.23,13.14-6.37,26.06-16.41,34.55,2.94-12.7.01-26.49-7.19-37.36-7.2-10.87-18.45-18.83-30.88-22.78-3.93-1.25-8.27-2.1-12.11-.59-3.39,1.33-5.89,4.36-7.39,7.68-3.37,7.44-.89,18.11,6.92,20.48,6.63,2.01,13.22-2.5,19.55-5.3,2.06-.91,4.34-1.67,6.54-1.17,4.24.97,6.11,5.93,6.76,10.23,2.3,15.04-1.63,30.7-9.52,43.71-7.89,13.01-19.56,23.48-32.63,31.28-7.32,4.37-15.27,8-23.74,8.96-1.69.19-3.47.26-5.04-.38-1.83-.74-3.16-2.35-4.23-4.01-3.33-5.18-4.75-11.33-7.27-16.95-2.52-5.62-6.74-11.12-12.77-12.39-3.58.87-3.65,6.22-2.99,9.51.37,1.83.2,3.75-.6,5.43-1.58,3.32-4.1,2.37-6.36,2.78-9.24,1.68-4.76,20.71-14.99,21.52-1.15.09-2.3-.1-3.41-.44-13.7-4.2-27.44-8.83-39.68-16.3-33.1-20.22-51.5-61.99-44.07-100.06,5.26-26.97,24.74-52.58,51.66-58.13,13.95-2.88,30.1,2.39,39.71,14.11,8.08,6.78,12.33,17.85,10.86,28.3-1.48,10.44-8.63,19.91-18.27,24.18-3.89,1.72-8.11,2.63-12.35,2.97-9.65.77-20.51-2.15-25.51-10.44,2.92,10.26,11.23,18.49,21.01,22.74,9.78,4.24,20.88,4.79,31.41,3.1,2.72-.44,5.44-1.03,7.97-2.11,3.85-1.66,7.15-4.41,10-7.49,13.4-14.42,17.38-36.87,9.75-55.02-3.69-8.78-9.72-16.34-15.67-23.77-2.44-3.04-4.9-6.11-7.94-8.54-3.55-2.83-7.76-4.69-12.03-6.22-22.64-8.11-48.43-7.3-70.34,2.6s-39.65,28.88-47.65,51.56c-2.96,8.39-4.63,17.31-3.58,24.12-4.92,32.23,7.72,65.63,29.3,90.06,21.58,24.44,51.31,40.59,82.35,50.54,11.81,3.78,23.97,6.75,36.36,7.45,34.9,1.98,68.36-14.04,97.43-33.46,10.28-6.87,20.32-14.27,28.69-23.36,11.6-12.59,19.65-28.01,26.87-43.53,18.89-40.57,33.36-84.89,28.93-129.42-3.21-32.26-16.13-62.63-28.89-92.43-6.6-15.4-14.73-32.32-30.43-38.16,2.16,14.15,3.72,30.46-5.95,41.01-3.47,3.79-8.11,6.38-13,7.94-17.55,5.61-37.61-2.43-49.34-16.64-11.73-14.21-16.01-33.44-15.32-51.85.69-18.42,5.92-36.33,11.41-53.92,1.87-6,3.8-12.3,1.59-18.5-1.3-3.64-4.24-6.59-8.05-7.26-3.52-.62-.77,5.56-7.96,7.12Z"/><path class="cls-26" d="M434.18,539.36c.74-.57,1.42-1.23,2-1.96.5-.63.95-1.45.66-2.2-.22-.56-.79-.9-1.34-1.15-1.54-.68-3.25-.95-4.92-.78-.35.04-.72.1-.99.32-.3.25-.43.66-.45,1.06-.06,1.21.75,2.27,1.6,3.13.62.62,1.28,1.2,1.98,1.72.29.21.67.47,1.47-.14Z"/><ellipse class="cls-7" cx="433.03" cy="542.17" rx="3.82" ry="3.75" transform="translate(-249.48 417.09) rotate(-41)"/><path class="cls-26" d="M367.8,634.03c.74-.57,1.42-1.23,2-1.96.5-.63.95-1.45.66-2.2-.22-.56-.79-.9-1.34-1.15-1.54-.68-3.25-.95-4.92-.78-.35.04-.72.1-.99.32-.3.25-.43.66-.45,1.06-.06,1.21.75,2.27,1.6,3.13.62.62,1.28,1.2,1.98,1.72.29.21.67.47,1.47-.14Z"/><ellipse class="cls-7" cx="366.64" cy="636.85" rx="3.82" ry="3.75" transform="translate(-327.88 396.76) rotate(-41)"/><path class="cls-17" d="M412.09,233.53c-22.82,34.43-25.33,81.31-6.34,117.99,9.81,18.95,26.63,36,47.78,38.8,21.06,2.79,43.15-10.79,50.16-30.84,11.06,26.06,19.49,53.24,25.12,80.98,1.92,9.45,3.52,18.98,4.18,28.6,2.29,33.37-6.96,67.02-23.55,96.06-16.6,29.04-40.31,53.63-67.06,73.71-6.73,5.05-13.68,9.84-21.1,13.81-28.82,15.42-63.99,17.49-95.17,7.69-31.18-9.8-58.28-30.94-77.33-57.51-5.51-7.68-10.4-15.85-13.87-24.63-11.05-27.96-4.57-60.67,13.13-84.97,22.41-30.77,56.46-34.09,85.66-26.92,10.24,2.51,42.33,20.47,27.32,2.03-10.52-12.92-25.35-15.97-42.53-17.17-12.79-.89-25.05-.42-37.25,3.5-35.74,11.48-59.81,48.83-60.75,86.35-.95,37.52,13.13,70.36,49.49,101.75,30.72,26.52,75.68,43.62,119.12,39.27,9.29-.93,18.61-5.45,27.55-8.14,40.93-12.31,76.67-36.8,98.31-77.57,5.01-9.44,9.87-18.95,14.18-28.73,8.93-20.21,17.06-40.96,20.94-62.72,11.84-66.37-24.32-149.96-39.92-167.91-5.59-6.43-10.83-14.99-19.35-14.93,1.68,15.15,2.35,33-9.33,42.8-4,3.35-9.04,5.28-14.15,6.31-19.05,3.87-35.28-8.13-45.83-24.46-9.14-14.15-15.1-28.86-13.57-45.64,1.36-14.88,4.64-29.58,9.75-43.62,1.87-5.14,4.02-10.51,3.18-15.91-.84-5.41-6.7-11.06-8.75-7.98Z"/><path class="cls-24" d="M432.42,199.39c3.47,6.05,11,14.95,8.31,21.38-1.14,2.71-3.27,4.89-5.55,6.75-3.32,2.72-11.17,6.64-12.5,10.71-1.7,5.21,9.85,7.21,15.17,8.54,5.32,1.33,12.08,3.41,15.88-.22,2.02-2.79,3.05-6.16,4.05-9.45,1.43-4.73,2.87-9.46,4.3-14.19.42-1.39.85-2.82.8-4.27-.09-2.52-1.6-4.8-3.45-6.51-2.35-2.19-5.26-3.66-8.13-5.12-4.46-2.26-12.89-6.22-18.88-7.62Z"/><circle class="cls-8" cx="421.21" cy="219.89" r="22.85"/><rect class="cls-31" x="425.88" y="17.97" width="8.82" height="5.37" rx="2.37" ry="2.37" transform="translate(549.79 434.54) rotate(-108.85)"/><circle class="cls-32" cx="430.29" cy="20.66" r="2.03"/><rect class="cls-31" x="429.12" y="28.46" width="8.82" height="5.37" rx="2.37" ry="2.37" transform="translate(544.15 451.48) rotate(-108.85)"/><circle class="cls-32" cx="433.53" cy="31.15" r="2.03"/><rect class="cls-31" x="432.25" y="40.08" width="8.82" height="5.37" rx="2.37" ry="2.37" transform="translate(508.32 475.63) rotate(-104.99)"/><circle class="cls-32" cx="436.66" cy="42.77" r="2.03"/><rect class="cls-31" x="434.24" y="53.41" width="8.82" height="5.37" rx="2.37" ry="2.37" transform="translate(456.5 497.95) rotate(-99.6)"/><circle class="cls-32" cx="438.65" cy="56.09" r="2.03"/><rect class="cls-31" x="435.39" y="66.44" width="8.82" height="5.37" rx="2.37" ry="2.37" transform="translate(417.68 513.78) rotate(-96.08)"/><circle class="cls-32" cx="439.8" cy="69.13" r="2.03"/><rect class="cls-31" x="436.24" y="80.05" width="8.82" height="5.37" rx="2.37" ry="2.37" transform="translate(380.63 527.05) rotate(-92.94)"/><circle class="cls-32" cx="440.65" cy="82.74" r="2.03"/><rect class="cls-31" x="436.24" y="95.07" width="8.82" height="5.37" rx="2.37" ry="2.37" transform="translate(321.82 533.2) rotate(-87.25)"/><circle class="cls-32" cx="440.65" cy="97.76" r="2.03"/><rect class="cls-31" x="435.39" y="110.67" width="8.82" height="5.37" rx="2.37" ry="2.37" transform="translate(305.44 547.19) rotate(-87.25)"/><circle class="cls-32" cx="439.8" cy="113.35" r="2.03"/><rect class="cls-31" x="433.46" y="126.82" width="8.82" height="5.37" rx="2.37" ry="2.37" transform="translate(224.48 533.2) rotate(-78.62)"/><circle class="cls-32" cx="437.87" cy="129.51" r="2.03"/><rect class="cls-31" x="430.43" y="142.98" width="8.82" height="5.37" rx="2.37" ry="2.37" transform="translate(206.21 543.2) rotate(-78.62)"/><circle class="cls-32" cx="434.85" cy="145.67" r="2.03"/><rect class="cls-31" x="425.88" y="160.27" width="8.82" height="5.37" rx="2.37" ry="2.37" transform="translate(162.97 537.45) rotate(-75.22)"/><circle class="cls-32" cx="430.29" cy="162.96" r="2.03"/><rect class="cls-31" x="419.6" y="178.98" width="8.82" height="5.37" rx="2.37" ry="2.37" transform="translate(97.97 507.98) rotate(-68.22)"/><circle class="cls-32" cx="424.02" cy="181.67" r="2.03"/><rect class="cls-31" x="393.93" y="243.5" width="8.82" height="5.37" rx="2.37" ry="2.37" transform="translate(-24.81 446.75) rotate(-57.08)"/><circle class="cls-32" cx="398.35" cy="246.18" r="2.03"/><rect class="cls-31" x="388.3" y="256.17" width="8.82" height="5.37" rx="2.37" ry="2.37" transform="translate(-13.89 495.28) rotate(-63.57)"/><circle class="cls-32" cx="392.71" cy="258.85" r="2.03"/><rect class="cls-31" x="382.58" y="283.95" width="8.82" height="5.37" rx="2.37" ry="2.37" transform="translate(80.02 657.69) rotate(-86.93)"/><circle class="cls-32" cx="386.99" cy="286.63" r="2.03"/><rect class="cls-31" x="382.58" y="299.54" width="8.82" height="5.37" rx="2.37" ry="2.37" transform="translate(119.49 713.98) rotate(-94.98)"/><circle class="cls-32" cx="386.99" cy="302.22" r="2.03"/><rect class="cls-31" x="383.71" y="314.84" width="8.82" height="5.37" rx="2.37" ry="2.37" transform="translate(166.72 767.47) rotate(-103.09)"/><circle class="cls-32" cx="388.12" cy="317.53" r="2.03"/><rect class="cls-31" x="386.79" y="328.73" width="8.82" height="5.37" rx="2.37" ry="2.37" transform="translate(156.96 787.5) rotate(-103.09)"/><circle class="cls-32" cx="391.2" cy="331.42" r="2.03"/><rect class="cls-31" x="391.76" y="342.62" width="8.82" height="5.37" rx="2.37" ry="2.37" transform="translate(231.02 844.22) rotate(-112.76)"/><circle class="cls-32" cx="396.17" cy="345.31" r="2.03"/><rect class="cls-31" x="397.56" y="355.38" width="8.82" height="5.37" rx="2.37" ry="2.37" transform="translate(321.6 890.35) rotate(-123.11)"/><circle class="cls-32" cx="401.97" cy="358.06" r="2.03"/><rect class="cls-31" x="406.24" y="368.23" width="8.82" height="5.37" rx="2.37" ry="2.37" transform="translate(380.15 923.43) rotate(-128.93)"/><circle class="cls-32" cx="410.65" cy="370.91" r="2.03"/><rect class="cls-31" x="417.68" y="380.02" width="8.82" height="5.37" rx="2.37" ry="2.37" transform="translate(453.19 951.61) rotate(-135.33)"/><circle class="cls-32" cx="422.09" cy="382.7" r="2.03"/><rect class="cls-31" x="431.85" y="389.09" width="8.82" height="5.37" rx="2.37" ry="2.37" transform="translate(571.68 962.28) rotate(-145.28)"/><circle class="cls-32" cx="436.26" cy="391.78" r="2.03"/><rect class="cls-31" x="449.42" y="394.73" width="8.82" height="5.37" rx="2.37" ry="2.37" transform="translate(787.5 899.98) rotate(-164.79)"/><circle class="cls-32" cx="453.84" cy="397.41" r="2.03"/><rect class="cls-31" x="468.13" y="394.73" width="8.82" height="5.37" rx="2.37" ry="2.37" transform="translate(1022.8 677.51) rotate(166.91)"/><circle class="cls-32" cx="472.55" cy="397.41" r="2.03"/><rect class="cls-31" x="481.74" y="389.68" width="8.82" height="5.37" rx="2.37" ry="2.37" transform="translate(1107.69 455.49) rotate(146.89)"/><circle class="cls-32" cx="486.15" cy="392.37" r="2.03"/><rect class="cls-31" x="495.63" y="377.78" width="8.82" height="5.37" rx="2.37" ry="2.37" transform="translate(1122.16 292.35) rotate(134.67)"/><circle class="cls-32" cx="500.04" cy="380.46" r="2.03"/><rect class="cls-31" x="504.7" y="387.55" width="8.82" height="5.37" rx="2.37" ry="2.37" transform="translate(713.47 -217.81) rotate(71.11)"/><circle class="cls-32" cx="509.11" cy="390.23" r="2.03"/><rect class="cls-31" x="509.24" y="402.19" width="8.82" height="5.37" rx="2.37" ry="2.37" transform="translate(730.39 -212.2) rotate(71.11)"/><circle class="cls-32" cx="513.65" cy="404.87" r="2.03"/><rect class="cls-31" x="513.77" y="415.79" width="8.82" height="5.37" rx="2.37" ry="2.37" transform="translate(746.33 -207.29) rotate(71.11)"/><circle class="cls-32" cx="518.18" cy="418.48" r="2.03"/><rect class="cls-31" x="518.02" y="432.23" width="8.82" height="5.37" rx="2.37" ry="2.37" transform="translate(764.76 -200.2) rotate(71.11)"/><circle class="cls-32" cx="522.44" cy="434.92" r="2.03"/><rect class="cls-31" x="521.27" y="450.94" width="8.82" height="5.37" rx="2.37" ry="2.37" transform="translate(892.88 -135.68) rotate(81.13)"/><circle class="cls-32" cx="525.68" cy="453.63" r="2.03"/><rect class="cls-31" x="522.4" y="468.8" width="8.82" height="5.37" rx="2.37" ry="2.37" transform="translate(998.3 -55.33) rotate(90)"/><circle class="cls-32" cx="526.81" cy="471.49" r="2.03"/><rect class="cls-31" x="522.4" y="488.08" width="8.82" height="5.37" rx="2.37" ry="2.37" transform="translate(1100.22 55.35) rotate(99.82)"/><circle class="cls-32" cx="526.81" cy="490.76" r="2.03"/><rect class="cls-31" x="519.72" y="505.93" width="8.82" height="5.37" rx="2.37" ry="2.37" transform="translate(1186.51 200.96) rotate(110.95)"/><circle class="cls-32" cx="524.13" cy="508.62" r="2.03"/><rect class="cls-31" x="514.78" y="523.51" width="8.82" height="5.37" rx="2.37" ry="2.37" transform="translate(1196.22 229.43) rotate(110.95)"/><circle class="cls-32" cx="519.19" cy="526.2" r="2.03"/><rect class="cls-31" x="510.53" y="538.25" width="8.82" height="5.37" rx="2.37" ry="2.37" transform="translate(1204.21 253.41) rotate(110.95)"/><circle class="cls-32" cx="514.94" cy="540.94" r="2.03"/><rect class="cls-31" x="501.45" y="556.39" width="8.82" height="5.37" rx="2.37" ry="2.37" transform="translate(1253.53 461.75) rotate(124.72)"/><circle class="cls-32" cx="505.87" cy="559.08" r="2.03"/><rect class="cls-31" x="491.25" y="571.7" width="8.82" height="5.37" rx="2.37" ry="2.37" transform="translate(1250.09 494.16) rotate(124.72)"/><circle class="cls-32" cx="495.66" cy="574.38" r="2.03"/><rect class="cls-31" x="481.28" y="585.95" width="8.82" height="5.37" rx="2.37" ry="2.37" transform="translate(1246.15 524.72) rotate(124.72)"/><circle class="cls-32" cx="485.69" cy="588.63" r="2.03"/><rect class="cls-31" x="468.13" y="598.71" width="8.82" height="5.37" rx="2.37" ry="2.37" transform="translate(1232.98 683.34) rotate(134.31)"/><circle class="cls-32" cx="472.55" cy="601.39" r="2.03"/><rect class="cls-31" x="455.66" y="610.89" width="8.82" height="5.37" rx="2.37" ry="2.37" transform="translate(1220.51 712.97) rotate(134.31)"/><circle class="cls-32" cx="460.07" cy="613.58" r="2.03"/><rect class="cls-31" x="440.92" y="623.93" width="8.82" height="5.37" rx="2.37" ry="2.37" transform="translate(1204.81 745.67) rotate(134.31)"/><circle class="cls-32" cx="445.33" cy="626.62" r="2.03"/><rect class="cls-31" x="426.18" y="635.27" width="8.82" height="5.37" rx="2.37" ry="2.37" transform="translate(1165.41 866.96) rotate(141.33)"/><circle class="cls-32" cx="430.59" cy="637.96" r="2.03"/><rect class="cls-31" x="409.74" y="644.34" width="8.82" height="5.37" rx="2.37" ry="2.37" transform="translate(1081.52 1027.53) rotate(152.31)"/><circle class="cls-32" cx="414.15" cy="647.03" r="2.03"/><rect class="cls-31" x="391.03" y="651.32" width="8.82" height="5.37" rx="2.37" ry="2.37" transform="translate(981.35 1144.73) rotate(161.11)"/><circle class="cls-32" cx="395.44" cy="654.01" r="2.03"/><rect class="cls-31" x="372.32" y="654.57" width="8.82" height="5.37" rx="2.37" ry="2.37" transform="translate(850.26 1248.59) rotate(171.13)"/><circle class="cls-32" cx="376.73" cy="657.25" r="2.03"/><rect class="cls-31" x="352.48" y="655.7" width="8.82" height="5.37" rx="2.37" ry="2.37" transform="translate(713.78 1316.77) rotate(-180)"/><circle class="cls-32" cx="356.89" cy="658.39" r="2.03"/><rect class="cls-31" x="334.61" y="654.57" width="8.82" height="5.37" rx="2.37" ry="2.37" transform="translate(617.84 1342.21) rotate(-174.86)"/><circle class="cls-32" cx="339.02" cy="657.25" r="2.03"/><rect class="cls-31" x="315.9" y="648.07" width="8.82" height="5.37" rx="2.37" ry="2.37" transform="translate(424.28 1368.59) rotate(-162.03)"/><circle class="cls-32" cx="320.31" cy="650.76" r="2.03"/><rect class="cls-31" x="298.89" y="640.85" width="8.82" height="5.37" rx="2.37" ry="2.37" transform="translate(393.32 1349.25) rotate(-162.03)"/><circle class="cls-32" cx="303.3" cy="643.54" r="2.03"/><rect class="cls-31" x="283.95" y="632.53" width="8.82" height="5.37" rx="2.37" ry="2.37" transform="translate(163.55 1321.56) rotate(-145.28)"/><circle class="cls-32" cx="288.36" cy="635.21" r="2.03"/><rect class="cls-31" x="269.26" y="620.26" width="8.82" height="5.37" rx="2.37" ry="2.37" transform="translate(143.77 1290.85) rotate(-145.28)"/><circle class="cls-32" cx="273.67" cy="622.95" r="2.03"/><rect class="cls-31" x="257.52" y="606.42" width="8.82" height="5.37" rx="2.37" ry="2.37" transform="translate(23.88 1227.93) rotate(-135.69)"/><circle class="cls-32" cx="261.93" cy="609.11" r="2.03"/><rect class="cls-31" x="248.45" y="591.68" width="8.82" height="5.37" rx="2.37" ry="2.37" transform="translate(-98.41 1136.42) rotate(-124.01)"/><circle class="cls-32" cx="252.86" cy="594.37" r="2.03"/><rect class="cls-31" x="241.14" y="574.67" width="8.82" height="5.37" rx="2.37" ry="2.37" transform="translate(-188.22 1030.66) rotate(-113.22)"/><circle class="cls-32" cx="245.55" cy="577.36" r="2.03"/><rect class="cls-31" x="235.47" y="557.1" width="8.82" height="5.37" rx="2.37" ry="2.37" transform="translate(-276.24 883.07) rotate(-98.87)"/><circle class="cls-32" cx="239.89" cy="559.78" r="2.03"/><rect class="cls-31" x="235.47" y="536.12" width="8.82" height="5.37" rx="2.37" ry="2.37" transform="translate(-298.92 778.69) rotate(-90)"/><circle class="cls-32" cx="239.89" cy="538.81" r="2.03"/><rect class="cls-31" x="239.84" y="517.41" width="8.82" height="5.37" rx="2.37" ry="2.37" transform="translate(-319.48 631.3) rotate(-76)"/><circle class="cls-32" cx="244.26" cy="520.1" r="2.03"/><rect class="cls-31" x="248.45" y="499.27" width="8.82" height="5.37" rx="2.37" ry="2.37" transform="translate(-309.07 513.37) rotate(-64.43)"/><circle class="cls-32" cx="252.86" cy="501.96" r="2.03"/><rect class="cls-31" x="258.93" y="486.52" width="8.82" height="5.37" rx="2.37" ry="2.37" transform="translate(-279.03 368.81) rotate(-49.19)"/><circle class="cls-32" cx="263.35" cy="489.2" r="2.03"/><rect class="cls-31" x="273.36" y="474.63" width="8.82" height="5.37" rx="2.37" ry="2.37" transform="translate(-231.35 263.35) rotate(-37.01)"/><circle class="cls-32" cx="277.77" cy="477.32" r="2.03"/><rect class="cls-31" x="290.5" y="467.54" width="8.82" height="5.37" rx="2.37" ry="2.37" transform="translate(-136.37 120.82) rotate(-18.89)"/><circle class="cls-32" cx="294.91" cy="470.23" r="2.03"/><rect class="cls-31" x="308.64" y="465.84" width="8.82" height="5.37" rx="2.37" ry="2.37" transform="translate(43.2 -26.14) rotate(5.14)"/><circle class="cls-32" cx="313.05" cy="468.53" r="2.03"/><rect class="cls-31" x="330.2" y="469.06" width="8.82" height="5.37" rx="2.37" ry="2.37" transform="translate(161.82 -80.21) rotate(17.97)"/><circle class="cls-32" cx="334.61" cy="471.75" r="2.03"/><rect class="cls-31" x="348.07" y="479.3" width="8.82" height="5.37" rx="2.37" ry="2.37" transform="translate(359.79 -115.09) rotate(36.88)"/><circle class="cls-32" cx="352.48" cy="481.99" r="2.03"/><rect class="cls-31" x="359.15" y="492.88" width="8.82" height="5.37" rx="2.37" ry="2.37" transform="translate(696.27 -21.22) rotate(69.04)"/><circle class="cls-32" cx="363.56" cy="495.57" r="2.03"/><rect class="cls-31" x="362.45" y="511.35" width="8.82" height="5.37" rx="2.37" ry="2.37" transform="translate(837.72 93.18) rotate(83.72)"/><circle class="cls-32" cx="366.86" cy="514.04" r="2.03"/><rect class="cls-31" x="358.72" y="530.16" width="8.82" height="5.37" rx="2.37" ry="2.37" transform="translate(982 351.77) rotate(107.97)"/><circle class="cls-32" cx="363.13" cy="532.84" r="2.03"/><rect class="cls-31" x="344.85" y="544.86" width="8.82" height="5.37" rx="2.37" ry="2.37" transform="translate(912.95 870.11) rotate(152.31)"/><circle class="cls-32" cx="349.26" cy="547.55" r="2.03"/><rect class="cls-31" x="325.87" y="547.13" width="8.82" height="5.37" rx="2.37" ry="2.37" transform="translate(660.57 1099.63) rotate(-180)"/><circle class="cls-32" cx="330.28" cy="549.82" r="2.03"/><rect class="cls-1" x="33.78" y="176.3" width="689.77" height="348.62" transform="translate(-135.82 310.34) rotate(-38.32)"/></g></g></svg>