<svg xmlns="http://www.w3.org/2000/svg" viewBox="3134.3916267113104 4156.677162660813 674.6200520496 416.73753141900033">
<g transform="matrix(4.166667,0,0,4.166667,0,0)">
<g transform="matrix(1,0,0,1,-11.56697,1.462939)">
<g xmlns="http://www.w3.org/2000/svg">
                        <g transform="matrix(1,0,0,1,766.7009,1033.0612)">
                            <path d="M0,30.351C12.032,15.831 27.584,0 46.395,2.277C57.803,3.658 67.145,11.553 77.499,16.498C87.854,21.443 102.458,22.39 108.836,12.909" style="fill:none;fill-rule:nonzero;stroke:rgb(0,138,96);stroke-width:1.1px;"/>
                        </g>
                        <g transform="matrix(1,0,0,1,879.9165,1018.9483)">
                            <path d="M0,61.497C-2.23,60.08 -4.638,58.41 -4.957,56.026C-5.487,52.056 0.08,48.533 -0.928,44.643C-1.417,42.753 -3.336,41.462 -5.024,40.192C-6.711,38.924 -8.39,37.266 -8.144,35.32C-7.751,32.209 -2.802,30.567 -2.288,27.466C-1.896,25.099 -4.259,23.203 -6.4,21.735C-8.541,20.268 -10.886,18.343 -10.442,15.98C-10.105,14.19 -8.264,12.893 -6.6,11.731C-4.936,10.568 -3.179,9.122 -3.136,7.317C-3.097,5.653 -4.542,4.299 -5.987,3.222C-7.578,2.035 -9.282,0.957 -11.079,0" style="fill:none;fill-rule:nonzero;stroke:white;stroke-width:0.09px;"/>
                        </g>
                        <g transform="matrix(1,0,0,1,874.791,1018.5615)">
                            <path d="M0,62.043C2.05,59.549 4.208,56.605 3.302,53.734C2.544,51.332 -0.232,49.652 -0.649,47.181C-1.26,43.555 3.457,40.273 2.84,36.648C2.267,33.281 -2.674,31.357 -2.791,27.943C-2.906,24.576 1.803,21.99 1.64,18.626C1.507,15.865 -1.783,14.151 -3.197,11.701C-4.373,9.662 -4.156,7.128 -2.97,5.026C-1.784,2.925 0.284,1.231 2.615,0" style="fill:none;fill-rule:nonzero;stroke:white;stroke-width:0.09px;"/>
                        </g>
                        <g transform="matrix(1,0,0,1,883.5854,1018.6854)">
                            <path d="M0,59.799C-2.081,58.288 -4.821,57.603 -7.147,56.372C-9.472,55.141 -11.507,52.937 -10.852,50.616C-10.29,48.626 -8.025,47.362 -6.043,46.177C-4.061,44.992 -1.983,43.322 -2.155,41.302C-2.292,39.688 -3.876,38.458 -5.577,37.778C-7.277,37.097 -9.175,36.795 -10.857,36.082C-12.539,35.369 -14.066,34.065 -14.078,32.443C-14.09,30.886 -12.708,29.52 -11.169,28.635C-9.63,27.749 -7.868,27.173 -6.39,26.214C-4.912,25.256 -3.703,23.724 -4.034,22.201C-4.428,20.385 -6.723,19.445 -8.8,18.937C-10.876,18.429 -13.223,17.959 -14.353,16.402C-15.834,14.361 -14.323,11.52 -12.086,9.938C-9.849,8.356 -7.017,7.544 -4.617,6.15C-2.218,4.755 -0.15,2.339 -0.864,0" style="fill:none;fill-rule:nonzero;stroke:white;stroke-width:0.09px;"/>
                        </g>
                        <g transform="matrix(1,0,0,1,871.6172,1019.8827)">
                            <path d="M0,60.59C0.003,58.452 1.203,56.304 3.167,54.917C4.354,54.08 5.772,53.526 7.022,52.76C8.271,51.994 9.406,50.91 9.551,49.621C9.765,47.716 7.802,46.224 5.859,45.331C3.916,44.439 1.675,43.705 0.582,42.071C-0.419,40.577 -0.174,38.61 0.829,37.059C1.832,35.509 3.494,34.327 5.267,33.403C6.797,32.606 8.692,31.617 8.602,30.116C8.544,29.141 7.607,28.399 6.641,27.897C3.76,26.402 -0.214,25.852 -1.631,23.236C-2.363,21.887 -2.177,20.242 -1.426,18.859C-0.674,17.475 0.592,16.325 1.982,15.357C3.688,14.17 5.805,12.94 5.962,11.095C6.085,9.638 4.847,8.362 3.399,7.627C1.951,6.893 0.271,6.544 -1.255,5.929C-4.16,4.758 -6.46,2.588 -7.538,0" style="fill:none;fill-rule:nonzero;stroke:white;stroke-width:0.09px;"/>
                        </g>
                        <g transform="matrix(1,0,0,1,902.9395,1031.2321)">
                            <path d="M0,36.2C-2.578,36.775 -5.462,37.297 -7.373,35.837C-10.556,33.405 -9.109,26.977 -12.572,24.939C-14.256,23.949 -16.525,24.392 -18.617,24.688C-20.707,24.985 -23.066,24.999 -24.268,23.449C-26.189,20.971 -23.852,16.311 -25.681,13.754C-27.077,11.803 -30.09,12.135 -32.641,12.61C-35.191,13.086 -38.212,13.383 -39.568,11.399C-40.596,9.895 -40.211,7.676 -39.855,5.678C-39.502,3.679 -39.282,1.413 -40.527,0.107C-41.677,-1.097 -43.656,-1.033 -45.439,-0.773C-47.404,-0.487 -49.371,-0.044 -51.318,0.549" style="fill:none;fill-rule:nonzero;stroke:white;stroke-width:0.09px;"/>
                        </g>
                        <g transform="matrix(1,0,0,1,899.4277,1025.4494)">
                            <path d="M0,45.72C-0.314,42.507 -0.869,38.899 -3.539,37.51C-5.774,36.347 -8.926,37.123 -10.968,35.67C-13.964,33.538 -12.949,27.882 -15.947,25.755C-18.734,23.779 -23.588,25.912 -26.086,23.581C-28.548,21.282 -27.047,16.123 -29.541,13.86C-31.587,12.002 -35.125,13.116 -37.857,12.383C-40.131,11.773 -41.77,9.827 -42.416,7.503C-43.064,5.179 -42.799,2.518 -42.021,0" style="fill:none;fill-rule:nonzero;stroke:white;stroke-width:0.09px;"/>
                        </g>
                        <g transform="matrix(1,0,0,1,904.1484,1025.1827)">
                            <path d="M0,38.269C-2.541,38.672 -4.963,40.125 -7.478,40.899C-9.992,41.673 -12.99,41.554 -14.168,39.45C-15.178,37.645 -14.469,35.15 -13.906,32.91C-13.342,30.67 -13.055,28.021 -14.604,26.713C-15.842,25.668 -17.832,25.919 -19.516,26.641C-21.199,27.362 -22.755,28.49 -24.448,29.176C-26.141,29.861 -28.145,30.018 -29.3,28.88C-30.408,27.788 -30.397,25.844 -29.936,24.13C-29.474,22.416 -28.635,20.763 -28.268,19.039C-27.9,17.317 -28.129,15.378 -29.439,14.536C-31.002,13.53 -33.289,14.488 -35.117,15.598C-36.945,16.707 -38.936,18.034 -40.836,17.731C-43.326,17.335 -44.268,14.258 -43.805,11.558C-43.341,8.857 -41.912,6.281 -41.201,3.598C-40.491,0.915 -40.736,-2.255 -42.896,-3.404" style="fill:none;fill-rule:nonzero;stroke:white;stroke-width:0.09px;"/>
                        </g>
                        <g transform="matrix(1,0,0,1,897.0908,1032.9623)">
                            <path d="M0,40.358C-1.51,38.844 -2.181,36.477 -1.771,34.107C-1.524,32.676 -0.914,31.281 -0.571,29.856C-0.229,28.431 -0.193,26.862 -1.003,25.848C-2.198,24.35 -4.642,24.683 -6.647,25.426C-8.652,26.169 -10.755,27.234 -12.684,26.852C-14.448,26.503 -15.666,24.939 -16.054,23.133C-16.439,21.328 -16.101,19.316 -15.499,17.41C-14.981,15.764 -14.341,13.725 -15.466,12.727C-16.196,12.079 -17.384,12.216 -18.422,12.545C-21.517,13.525 -24.716,15.945 -27.567,15.099C-29.038,14.662 -30.069,13.367 -30.517,11.858C-30.964,10.348 -30.882,8.64 -30.583,6.971C-30.216,4.927 -29.589,2.559 -30.782,1.144C-31.726,0.026 -33.503,0 -35.048,0.504C-36.591,1.009 -38.024,1.95 -39.539,2.594C-42.421,3.82 -45.582,3.913 -48.174,2.844" style="fill:none;fill-rule:nonzero;stroke:white;stroke-width:0.09px;"/>
                        </g>
                        <g transform="matrix(1,0,0,1,910.019,1052.9507)">
                            <path d="M0,-10.999C-1.417,-8.769 -3.087,-6.361 -5.471,-6.042C-9.441,-5.512 -12.964,-11.079 -16.854,-10.071C-18.744,-9.582 -20.035,-7.663 -21.305,-5.975C-22.573,-4.288 -24.231,-2.609 -26.177,-2.855C-29.288,-3.248 -30.93,-8.197 -34.031,-8.711C-36.398,-9.103 -38.294,-6.74 -39.762,-4.599C-41.229,-2.458 -43.154,-0.113 -45.517,-0.557C-47.307,-0.894 -48.604,-2.735 -49.766,-4.399C-50.929,-6.063 -52.375,-7.82 -54.18,-7.863C-55.844,-7.902 -57.198,-6.457 -58.275,-5.012C-59.462,-3.421 -60.54,-1.717 -61.497,0.08" style="fill:none;fill-rule:nonzero;stroke:white;stroke-width:0.09px;"/>
                        </g>
                        <g transform="matrix(1,0,0,1,910.1782,1047.2421)">
                            <path d="M0,-0.165C-2.494,-2.215 -5.438,-4.373 -8.309,-3.467C-10.711,-2.709 -12.391,0.067 -14.862,0.484C-18.488,1.095 -21.77,-3.622 -25.395,-3.005C-28.762,-2.432 -30.686,2.509 -34.1,2.626C-37.467,2.741 -40.053,-1.968 -43.417,-1.805C-46.178,-1.672 -47.892,1.618 -50.342,3.032C-52.381,4.208 -54.915,3.991 -57.017,2.805C-59.118,1.619 -60.812,-0.449 -62.043,-2.78" style="fill:none;fill-rule:nonzero;stroke:white;stroke-width:0.09px;"/>
                        </g>
                        <g transform="matrix(1,0,0,1,908.0581,1054.1167)">
                            <path d="M0,-15.834C-1.511,-13.753 -2.196,-11.013 -3.427,-8.687C-4.658,-6.362 -6.862,-4.327 -9.183,-4.982C-11.173,-5.544 -12.437,-7.809 -13.622,-9.791C-14.807,-11.773 -16.477,-13.851 -18.497,-13.679C-20.111,-13.542 -21.341,-11.958 -22.021,-10.257C-22.702,-8.557 -23.004,-6.659 -23.717,-4.977C-24.43,-3.295 -25.734,-1.768 -27.356,-1.756C-28.913,-1.744 -30.279,-3.126 -31.164,-4.665C-32.05,-6.204 -32.626,-7.966 -33.585,-9.444C-34.543,-10.922 -36.075,-12.131 -37.598,-11.8C-39.414,-11.406 -40.354,-9.111 -40.862,-7.034C-41.37,-4.958 -41.84,-2.611 -43.397,-1.481C-45.438,0 -48.279,-1.511 -49.861,-3.748C-51.443,-5.985 -52.255,-8.817 -53.649,-11.217C-55.044,-13.616 -57.46,-15.684 -59.799,-14.97" style="fill:none;fill-rule:nonzero;stroke:white;stroke-width:0.09px;"/>
                        </g>
                        <g transform="matrix(1,0,0,1,910.0464,1048.024)">
                            <path d="M0,2.227C-2.138,2.224 -4.286,1.024 -5.673,-0.94C-6.51,-2.127 -7.064,-3.545 -7.83,-4.795C-8.596,-6.044 -9.68,-7.179 -10.969,-7.324C-12.874,-7.538 -14.366,-5.575 -15.259,-3.632C-16.151,-1.689 -16.885,0.552 -18.519,1.645C-20.013,2.646 -21.98,2.401 -23.531,1.398C-25.081,0.395 -26.263,-1.267 -27.187,-3.04C-27.984,-4.57 -28.973,-6.465 -30.474,-6.375C-31.449,-6.317 -32.191,-5.38 -32.693,-4.414C-34.188,-1.533 -34.738,2.441 -37.354,3.858C-38.703,4.59 -40.348,4.404 -41.731,3.653C-43.115,2.901 -44.265,1.635 -45.233,0.245C-46.42,-1.461 -47.65,-3.578 -49.495,-3.735C-50.952,-3.858 -52.228,-2.62 -52.963,-1.172C-53.697,0.276 -54.046,1.956 -54.661,3.482C-55.832,6.387 -58.002,8.687 -60.59,9.765" style="fill:none;fill-rule:nonzero;stroke:white;stroke-width:0.09px;"/>
                        </g>
                        <g transform="matrix(1,0,0,1,897.0054,1070.2477)">
                            <path d="M0,-51.318C0.575,-48.74 1.097,-45.856 -0.363,-43.945C-2.795,-40.762 -9.223,-42.209 -11.261,-38.746C-12.251,-37.062 -11.808,-34.793 -11.512,-32.701C-11.215,-30.611 -11.201,-28.252 -12.751,-27.05C-15.229,-25.129 -19.889,-27.466 -22.446,-25.637C-24.397,-24.241 -24.065,-21.228 -23.59,-18.677C-23.114,-16.127 -22.817,-13.106 -24.801,-11.75C-26.305,-10.722 -28.524,-11.107 -30.522,-11.463C-32.521,-11.816 -34.787,-12.036 -36.093,-10.791C-37.297,-9.641 -37.233,-7.662 -36.973,-5.879C-36.687,-3.914 -36.244,-1.947 -35.651,0" style="fill:none;fill-rule:nonzero;stroke:white;stroke-width:0.09px;"/>
                        </g>
                        <g transform="matrix(1,0,0,1,900.7427,1065.5054)">
                            <path d="M0,-43.064C-3.213,-42.75 -6.821,-42.195 -8.21,-39.525C-9.373,-37.29 -8.597,-34.138 -10.05,-32.096C-12.182,-29.1 -17.838,-30.115 -19.965,-27.117C-21.941,-24.33 -19.808,-19.476 -22.139,-16.978C-24.438,-14.516 -29.597,-16.017 -31.86,-13.523C-33.718,-11.477 -32.604,-7.939 -33.337,-5.207C-33.947,-2.933 -35.893,-1.294 -38.217,-0.648C-40.541,0 -43.202,-0.265 -45.72,-1.043" style="fill:none;fill-rule:nonzero;stroke:white;stroke-width:0.09px;"/>
                        </g>
                        <g transform="matrix(1,0,0,1,893.0249,1061.9887)">
                            <path d="M0,-44.268C0.403,-41.727 1.856,-39.305 2.63,-36.79C3.404,-34.276 3.285,-31.278 1.181,-30.1C-0.624,-29.09 -3.119,-29.799 -5.359,-30.362C-7.599,-30.926 -10.248,-31.213 -11.556,-29.664C-12.601,-28.426 -12.35,-26.436 -11.628,-24.752C-10.907,-23.069 -9.779,-21.513 -9.093,-19.82C-8.408,-18.127 -8.251,-16.123 -9.389,-14.968C-10.481,-13.86 -12.425,-13.871 -14.139,-14.332C-15.853,-14.794 -17.506,-15.633 -19.23,-16C-20.952,-16.368 -22.891,-16.139 -23.733,-14.829C-24.739,-13.266 -23.781,-10.979 -22.671,-9.151C-21.562,-7.323 -20.235,-5.332 -20.538,-3.432C-20.934,-0.942 -24.011,0 -26.711,-0.463C-29.412,-0.927 -31.988,-2.356 -34.671,-3.067C-37.354,-3.777 -40.524,-3.532 -41.673,-1.372" style="fill:none;fill-rule:nonzero;stroke:white;stroke-width:0.09px;"/>
                        </g>
                        <g transform="matrix(1,0,0,1,902.8936,1072.9523)">
                            <path d="M0,-48.174C-1.514,-46.664 -3.881,-45.993 -6.251,-46.403C-7.682,-46.65 -9.077,-47.26 -10.502,-47.603C-11.927,-47.945 -13.496,-47.981 -14.51,-47.171C-16.008,-45.976 -15.675,-43.532 -14.932,-41.527C-14.189,-39.522 -13.124,-37.419 -13.506,-35.49C-13.855,-33.726 -15.419,-32.508 -17.225,-32.12C-19.03,-31.735 -21.042,-32.073 -22.948,-32.675C-24.594,-33.193 -26.633,-33.833 -27.631,-32.708C-28.279,-31.978 -28.142,-30.79 -27.813,-29.752C-26.833,-26.657 -24.413,-23.458 -25.259,-20.607C-25.696,-19.136 -26.991,-18.105 -28.5,-17.657C-30.01,-17.21 -31.718,-17.292 -33.387,-17.591C-35.431,-17.958 -37.799,-18.585 -39.214,-17.392C-40.332,-16.448 -40.358,-14.671 -39.854,-13.126C-39.349,-11.583 -38.408,-10.15 -37.764,-8.635C-36.538,-5.753 -36.445,-2.592 -37.514,0" style="fill:none;fill-rule:nonzero;stroke:white;stroke-width:0.09px;"/>
                        </g>
                        <g transform="matrix(1,0,0,1,871.5249,1073.3466)">
                            <path d="M0,-61.497C2.23,-60.08 4.638,-58.41 4.957,-56.026C5.487,-52.056 -0.08,-48.533 0.928,-44.643C1.417,-42.753 3.336,-41.462 5.024,-40.192C6.711,-38.924 8.39,-37.266 8.144,-35.32C7.751,-32.209 2.802,-30.567 2.288,-27.466C1.896,-25.099 4.259,-23.203 6.4,-21.735C8.541,-20.268 10.886,-18.343 10.442,-15.98C10.105,-14.19 8.264,-12.893 6.6,-11.731C4.936,-10.568 3.179,-9.122 3.136,-7.317C3.097,-5.653 4.542,-4.299 5.987,-3.222C7.578,-2.035 9.282,-0.957 11.079,0" style="fill:none;fill-rule:nonzero;stroke:white;stroke-width:0.09px;"/>
                        </g>
                        <g transform="matrix(1,0,0,1,876.6504,1073.7334)">
                            <path d="M0,-62.043C-2.05,-59.549 -4.208,-56.605 -3.302,-53.734C-2.544,-51.332 0.232,-49.652 0.649,-47.181C1.26,-43.555 -3.457,-40.273 -2.84,-36.648C-2.267,-33.281 2.674,-31.357 2.791,-27.943C2.906,-24.576 -1.803,-21.99 -1.64,-18.626C-1.507,-15.865 1.783,-14.151 3.197,-11.701C4.373,-9.662 4.156,-7.128 2.97,-5.026C1.784,-2.925 -0.284,-1.231 -2.615,0" style="fill:none;fill-rule:nonzero;stroke:white;stroke-width:0.09px;"/>
                        </g>
                        <g transform="matrix(1,0,0,1,867.856,1073.6095)">
                            <path d="M0,-59.799C2.081,-58.288 4.821,-57.603 7.147,-56.372C9.472,-55.141 11.507,-52.937 10.852,-50.616C10.29,-48.626 8.025,-47.362 6.043,-46.177C4.061,-44.992 1.983,-43.322 2.155,-41.302C2.292,-39.688 3.876,-38.458 5.577,-37.778C7.277,-37.097 9.175,-36.795 10.857,-36.082C12.539,-35.369 14.066,-34.065 14.078,-32.443C14.09,-30.886 12.708,-29.52 11.169,-28.635C9.63,-27.749 7.868,-27.173 6.39,-26.214C4.912,-25.256 3.703,-23.724 4.034,-22.201C4.428,-20.385 6.723,-19.445 8.8,-18.937C10.876,-18.429 13.223,-17.959 14.353,-16.402C15.834,-14.361 14.323,-11.52 12.086,-9.938C9.849,-8.356 7.017,-7.544 4.617,-6.15C2.218,-4.755 0.15,-2.339 0.864,0" style="fill:none;fill-rule:nonzero;stroke:white;stroke-width:0.09px;"/>
                        </g>
                        <g transform="matrix(1,0,0,1,879.8242,1072.4123)">
                            <path d="M0,-60.59C-0.003,-58.452 -1.203,-56.304 -3.167,-54.917C-4.354,-54.08 -5.772,-53.526 -7.022,-52.76C-8.271,-51.994 -9.406,-50.91 -9.551,-49.621C-9.765,-47.716 -7.802,-46.224 -5.859,-45.331C-3.916,-44.439 -1.675,-43.705 -0.582,-42.071C0.419,-40.577 0.174,-38.61 -0.829,-37.059C-1.832,-35.509 -3.494,-34.327 -5.267,-33.403C-6.797,-32.606 -8.692,-31.617 -8.602,-30.116C-8.544,-29.141 -7.607,-28.399 -6.641,-27.897C-3.76,-26.402 0.214,-25.852 1.631,-23.236C2.363,-21.887 2.177,-20.242 1.426,-18.859C0.674,-17.475 -0.592,-16.325 -1.982,-15.357C-3.688,-14.17 -5.805,-12.94 -5.962,-11.095C-6.085,-9.638 -4.847,-8.362 -3.399,-7.627C-1.951,-6.893 -0.271,-6.544 1.255,-5.929C4.16,-4.758 6.46,-2.588 7.538,0" style="fill:none;fill-rule:nonzero;stroke:white;stroke-width:0.09px;"/>
                        </g>
                        <g transform="matrix(1,0,0,1,848.502,1061.0628)">
                            <path d="M0,-36.2C2.578,-36.775 5.462,-37.297 7.373,-35.837C10.556,-33.405 9.109,-26.977 12.572,-24.939C14.256,-23.949 16.525,-24.392 18.617,-24.688C20.707,-24.985 23.066,-24.999 24.268,-23.449C26.189,-20.971 23.852,-16.311 25.681,-13.754C27.077,-11.803 30.09,-12.135 32.641,-12.61C35.191,-13.086 38.212,-13.383 39.568,-11.399C40.596,-9.895 40.211,-7.676 39.855,-5.678C39.502,-3.679 39.282,-1.413 40.527,-0.107C41.677,1.097 43.656,1.033 45.439,0.773C47.404,0.487 49.371,0.044 51.318,-0.549" style="fill:none;fill-rule:nonzero;stroke:white;stroke-width:0.09px;"/>
                        </g>
                        <g transform="matrix(1,0,0,1,852.0137,1066.8455)">
                            <path d="M0,-45.72C0.314,-42.507 0.869,-38.899 3.539,-37.51C5.774,-36.347 8.926,-37.123 10.968,-35.67C13.964,-33.538 12.949,-27.882 15.947,-25.755C18.734,-23.779 23.588,-25.912 26.086,-23.581C28.548,-21.282 27.047,-16.123 29.541,-13.86C31.587,-12.002 35.125,-13.116 37.857,-12.383C40.131,-11.773 41.77,-9.827 42.416,-7.503C43.064,-5.179 42.799,-2.518 42.021,0" style="fill:none;fill-rule:nonzero;stroke:white;stroke-width:0.09px;"/>
                        </g>
                        <g transform="matrix(1,0,0,1,847.293,1067.1123)">
                            <path d="M0,-38.269C2.541,-38.672 4.963,-40.125 7.478,-40.899C9.992,-41.673 12.99,-41.554 14.168,-39.45C15.178,-37.645 14.469,-35.15 13.906,-32.91C13.342,-30.67 13.055,-28.021 14.604,-26.713C15.842,-25.668 17.832,-25.919 19.516,-26.641C21.199,-27.362 22.755,-28.49 24.448,-29.176C26.141,-29.861 28.145,-30.018 29.3,-28.88C30.408,-27.788 30.397,-25.844 29.936,-24.13C29.474,-22.416 28.635,-20.763 28.268,-19.039C27.9,-17.317 28.129,-15.378 29.439,-14.536C31.002,-13.53 33.289,-14.488 35.117,-15.598C36.945,-16.707 38.936,-18.034 40.836,-17.731C43.326,-17.335 44.268,-14.258 43.805,-11.558C43.341,-8.857 41.912,-6.281 41.201,-3.598C40.491,-0.915 40.736,2.255 42.896,3.404" style="fill:none;fill-rule:nonzero;stroke:white;stroke-width:0.09px;"/>
                        </g>
                        <g transform="matrix(1,0,0,1,854.3506,1059.3326)">
                            <path d="M0,-40.358C1.51,-38.844 2.181,-36.477 1.771,-34.107C1.524,-32.676 0.914,-31.281 0.571,-29.856C0.229,-28.431 0.193,-26.862 1.003,-25.848C2.198,-24.35 4.642,-24.683 6.647,-25.426C8.652,-26.169 10.755,-27.234 12.684,-26.852C14.448,-26.503 15.666,-24.939 16.054,-23.133C16.439,-21.328 16.101,-19.316 15.499,-17.41C14.981,-15.764 14.341,-13.725 15.466,-12.727C16.196,-12.079 17.384,-12.216 18.422,-12.545C21.517,-13.525 24.716,-15.945 27.567,-15.099C29.038,-14.662 30.069,-13.367 30.517,-11.858C30.964,-10.348 30.882,-8.64 30.583,-6.971C30.216,-4.927 29.589,-2.559 30.782,-1.144C31.726,-0.026 33.503,0 35.048,-0.504C36.591,-1.009 38.024,-1.95 39.539,-2.594C42.421,-3.82 45.582,-3.913 48.174,-2.844" style="fill:none;fill-rule:nonzero;stroke:white;stroke-width:0.09px;"/>
                        </g>
                        <g transform="matrix(1,0,0,1,841.4229,1039.3443)">
                            <path d="M0,10.999C1.417,8.769 3.087,6.361 5.471,6.042C9.441,5.512 12.964,11.079 16.854,10.071C18.744,9.582 20.035,7.663 21.305,5.975C22.573,4.288 24.231,2.609 26.177,2.855C29.288,3.248 30.93,8.197 34.031,8.711C36.398,9.103 38.294,6.74 39.762,4.599C41.229,2.458 43.154,0.113 45.517,0.557C47.307,0.894 48.604,2.735 49.766,4.399C50.929,6.063 52.375,7.82 54.18,7.863C55.844,7.902 57.198,6.457 58.275,5.012C59.462,3.421 60.54,1.717 61.497,-0.08" style="fill:none;fill-rule:nonzero;stroke:white;stroke-width:0.09px;"/>
                        </g>
                        <g transform="matrix(1,0,0,1,841.2637,1045.0528)">
                            <path d="M0,0.165C2.494,2.215 5.438,4.373 8.309,3.467C10.711,2.709 12.391,-0.067 14.862,-0.484C18.488,-1.095 21.77,3.622 25.395,3.005C28.762,2.432 30.686,-2.509 34.1,-2.626C37.467,-2.741 40.053,1.968 43.417,1.805C46.178,1.672 47.892,-1.618 50.342,-3.032C52.381,-4.208 54.915,-3.991 57.017,-2.805C59.118,-1.619 60.812,0.449 62.043,2.78" style="fill:none;fill-rule:nonzero;stroke:white;stroke-width:0.09px;"/>
                        </g>
                        <g transform="matrix(1,0,0,1,843.3838,1038.1782)">
                            <path d="M0,15.834C1.511,13.753 2.196,11.013 3.427,8.687C4.658,6.362 6.862,4.327 9.183,4.982C11.173,5.544 12.437,7.809 13.622,9.791C14.807,11.773 16.477,13.851 18.497,13.679C20.111,13.542 21.341,11.958 22.021,10.257C22.702,8.557 23.004,6.659 23.717,4.977C24.43,3.295 25.734,1.768 27.356,1.756C28.913,1.744 30.279,3.126 31.164,4.665C32.05,6.204 32.626,7.966 33.585,9.444C34.543,10.922 36.075,12.131 37.598,11.8C39.414,11.406 40.354,9.111 40.862,7.034C41.37,4.958 41.84,2.611 43.397,1.481C45.438,0 48.279,1.511 49.861,3.748C51.443,5.985 52.255,8.817 53.649,11.217C55.044,13.616 57.46,15.684 59.799,14.97" style="fill:none;fill-rule:nonzero;stroke:white;stroke-width:0.09px;"/>
                        </g>
                        <g transform="matrix(1,0,0,1,841.3955,1044.2709)">
                            <path d="M0,-2.227C2.138,-2.224 4.286,-1.024 5.673,0.94C6.51,2.127 7.064,3.545 7.83,4.795C8.596,6.044 9.68,7.179 10.969,7.324C12.874,7.538 14.366,5.575 15.259,3.632C16.151,1.689 16.885,-0.552 18.519,-1.645C20.013,-2.646 21.98,-2.401 23.531,-1.398C25.081,-0.395 26.263,1.267 27.187,3.04C27.984,4.57 28.973,6.465 30.474,6.375C31.449,6.317 32.191,5.38 32.693,4.414C34.188,1.533 34.738,-2.441 37.354,-3.858C38.703,-4.59 40.348,-4.404 41.731,-3.653C43.115,-2.901 44.265,-1.635 45.233,-0.245C46.42,1.461 47.65,3.578 49.495,3.735C50.952,3.858 52.228,2.62 52.963,1.172C53.697,-0.276 54.046,-1.956 54.661,-3.482C55.832,-6.387 58.002,-8.687 60.59,-9.765" style="fill:none;fill-rule:nonzero;stroke:white;stroke-width:0.09px;"/>
                        </g>
                        <g transform="matrix(1,0,0,1,854.436,1022.0492)">
                            <path d="M0,51.318C-0.575,48.74 -1.097,45.856 0.363,43.945C2.795,40.762 9.223,42.209 11.261,38.746C12.251,37.062 11.808,34.793 11.512,32.701C11.215,30.611 11.201,28.252 12.751,27.05C15.229,25.129 19.889,27.466 22.446,25.637C24.397,24.241 24.065,21.228 23.59,18.677C23.114,16.127 22.817,13.106 24.801,11.75C26.305,10.722 28.524,11.107 30.522,11.463C32.521,11.816 34.787,12.036 36.093,10.791C37.297,9.641 37.233,7.662 36.973,5.879C36.687,3.914 36.244,1.947 35.651,0" style="fill:none;fill-rule:nonzero;stroke:white;stroke-width:0.09px;"/>
                        </g>
                        <g transform="matrix(1,0,0,1,850.6987,1026.7915)">
                            <path d="M0,43.064C3.213,42.75 6.821,42.195 8.21,39.525C9.373,37.29 8.597,34.138 10.05,32.096C12.182,29.1 17.838,30.115 19.965,27.117C21.941,24.33 19.808,19.476 22.139,16.978C24.438,14.516 29.597,16.017 31.86,13.523C33.718,11.477 32.604,7.939 33.337,5.207C33.947,2.933 35.893,1.294 38.217,0.648C40.541,0 43.202,0.265 45.72,1.043" style="fill:none;fill-rule:nonzero;stroke:white;stroke-width:0.09px;"/>
                        </g>
                        <g transform="matrix(1,0,0,1,858.4165,1030.3082)">
                            <path d="M0,44.268C-0.403,41.727 -1.856,39.305 -2.63,36.79C-3.404,34.276 -3.285,31.278 -1.181,30.1C0.624,29.09 3.119,29.799 5.359,30.362C7.599,30.926 10.248,31.213 11.556,29.664C12.601,28.426 12.35,26.436 11.628,24.752C10.907,23.069 9.779,21.513 9.093,19.82C8.408,18.127 8.251,16.123 9.389,14.968C10.481,13.86 12.425,13.871 14.139,14.332C15.853,14.794 17.506,15.633 19.23,16C20.952,16.368 22.891,16.139 23.733,14.829C24.739,13.266 23.781,10.979 22.671,9.151C21.562,7.323 20.235,5.332 20.538,3.432C20.934,0.942 24.011,0 26.711,0.463C29.412,0.927 31.988,2.356 34.671,3.067C37.354,3.777 40.524,3.532 41.673,1.372" style="fill:none;fill-rule:nonzero;stroke:white;stroke-width:0.09px;"/>
                        </g>
                        <g transform="matrix(1,0,0,1,848.5479,1019.3446)">
                            <path d="M0,48.174C1.514,46.664 3.881,45.993 6.251,46.403C7.682,46.65 9.077,47.26 10.502,47.603C11.927,47.945 13.496,47.981 14.51,47.171C16.008,45.976 15.675,43.532 14.932,41.527C14.189,39.522 13.124,37.419 13.506,35.49C13.855,33.726 15.419,32.508 17.225,32.12C19.03,31.735 21.042,32.073 22.948,32.675C24.594,33.193 26.633,33.833 27.631,32.708C28.279,31.978 28.142,30.79 27.813,29.752C26.833,26.657 24.413,23.458 25.259,20.607C25.696,19.136 26.991,18.105 28.5,17.657C30.01,17.21 31.718,17.292 33.387,17.591C35.431,17.958 37.799,18.585 39.214,17.392C40.332,16.448 40.358,14.671 39.854,13.126C39.349,11.583 38.408,10.15 37.764,8.635C36.538,5.753 36.445,2.592 37.514,0" style="fill:none;fill-rule:nonzero;stroke:white;stroke-width:0.09px;"/>
                        </g>
                        <g transform="matrix(1,0,0,1,914.6953,1027.6544)">
                            <path d="M0,44.997C-3.46,46.03 -7.342,47.02 -10.075,45.206C-14.628,42.184 -13.231,33.256 -18.13,30.8C-20.511,29.606 -23.564,30.431 -26.385,31.036C-29.207,31.642 -32.419,31.888 -34.194,29.884C-37.033,26.679 -34.263,20.079 -36.983,16.758C-39.059,14.223 -43.132,14.965 -46.565,15.86C-49.998,16.756 -54.085,17.452 -56.109,14.868C-57.643,12.909 -57.316,9.838 -57.012,7.069C-56.707,4.302 -56.61,1.183 -58.423,-0.485C-60.095,-2.023 -62.787,-1.744 -65.192,-1.219C-67.843,-0.639 -70.483,0.156 -73.082,1.155" style="fill:none;fill-rule:nonzero;stroke:rgb(168,255,230);stroke-width:0.12px;"/>
                        </g>
                        <g transform="matrix(1,0,0,1,910.2451,1019.5936)">
                            <path d="M0,58.506C-0.713,54.141 -1.793,49.259 -5.554,47.615C-8.702,46.239 -12.924,47.602 -15.836,45.811C-20.107,43.183 -19.229,35.349 -23.504,32.727C-27.476,30.292 -33.897,33.676 -37.506,30.726C-41.066,27.817 -39.48,20.617 -43.08,17.76C-46.033,15.415 -50.753,17.278 -54.54,16.538C-57.69,15.922 -60.096,13.418 -61.185,10.301C-62.275,7.183 -62.15,3.519 -61.316,0" style="fill:none;fill-rule:nonzero;stroke:rgb(168,255,230);stroke-width:0.12px;"/>
                        </g>
                        <g transform="matrix(1,0,0,1,915.9858,1019.9408)">
                            <path d="M0,47.149C-3.423,47.945 -6.593,50.165 -9.95,51.464C-13.307,52.764 -17.4,52.887 -19.192,50.123C-20.728,47.752 -19.987,44.27 -19.418,41.153C-18.851,38.036 -18.694,34.384 -20.921,32.744C-22.701,31.434 -25.389,31.967 -27.619,33.116C-29.849,34.263 -31.867,35.957 -34.112,37.056C-36.357,38.156 -39.071,38.563 -40.746,37.117C-42.354,35.729 -42.511,33.07 -42.035,30.681C-41.559,28.293 -40.564,25.95 -40.217,23.558C-39.871,21.166 -40.355,18.537 -42.214,17.51C-44.433,16.285 -47.464,17.815 -49.855,19.506C-52.246,21.199 -54.84,23.206 -57.455,22.974C-60.883,22.671 -62.438,18.553 -62.048,14.815C-61.658,11.076 -59.942,7.416 -59.212,3.677C-58.483,-0.06 -59.103,-4.373 -62.146,-5.738" style="fill:none;fill-rule:nonzero;stroke:rgb(168,255,230);stroke-width:0.12px;"/>
                        </g>
                        <g transform="matrix(1,0,0,1,907.2529,1029.1416)">
                            <path d="M0,52.124C-2.191,50.198 -3.316,47.024 -2.969,43.744C-2.76,41.764 -2.053,39.797 -1.714,37.814C-1.375,35.833 -1.466,33.683 -2.659,32.374C-4.421,30.438 -7.719,31.129 -10.385,32.337C-13.05,33.546 -15.82,35.204 -18.48,34.867C-20.915,34.559 -22.713,32.536 -23.401,30.103C-24.09,27.671 -23.806,24.888 -23.158,22.222C-22.6,19.92 -21.909,17.07 -23.53,15.813C-24.583,14.996 -26.188,15.299 -27.572,15.848C-31.701,17.484 -35.841,21.103 -39.802,20.218C-41.845,19.761 -43.366,18.09 -44.109,16.067C-44.853,14.045 -44.894,11.701 -44.635,9.391C-44.318,6.559 -43.674,3.26 -45.427,1.438C-46.811,0 -49.234,0.135 -51.292,0.973C-53.349,1.811 -55.22,3.236 -57.225,4.263C-61.041,6.217 -65.339,6.645 -68.964,5.433" style="fill:none;fill-rule:nonzero;stroke:rgb(168,255,230);stroke-width:0.12px;"/>
                        </g>
                        <g transform="matrix(1,0,0,1,922.0205,1058.0056)">
                            <path d="M0,-20.676C-1.716,-17.498 -3.761,-14.053 -6.977,-13.404C-12.332,-12.321 -17.658,-19.622 -22.858,-17.895C-25.386,-17.055 -26.962,-14.313 -28.528,-11.89C-30.096,-9.467 -32.193,-7.022 -34.866,-7.183C-39.139,-7.443 -41.848,-14.068 -46.118,-14.493C-49.38,-14.818 -51.735,-11.412 -53.529,-8.352C-55.323,-5.291 -57.722,-1.909 -60.979,-2.305C-63.449,-2.606 -65.39,-5.008 -67.132,-7.181C-68.874,-9.354 -71.011,-11.628 -73.472,-11.525C-75.741,-11.429 -77.448,-9.329 -78.777,-7.257C-80.241,-4.972 -81.546,-2.544 -82.677,0" style="fill:none;fill-rule:nonzero;stroke:rgb(168,255,230);stroke-width:0.12px;"/>
                        </g>
                        <g transform="matrix(1,0,0,1,922.7266,1049.7401)">
                            <path d="M0,-5.411C-3.592,-7.993 -7.807,-10.682 -11.629,-9.184C-14.827,-7.932 -16.85,-3.983 -20.175,-3.19C-25.053,-2.028 -29.972,-8.189 -34.849,-7.02C-39.379,-5.933 -41.526,1.001 -46.164,1.466C-50.739,1.926 -54.708,-4.286 -59.273,-3.761C-63.02,-3.331 -65.041,1.324 -68.241,3.479C-70.905,5.271 -74.377,5.201 -77.351,3.767C-80.326,2.333 -82.829,-0.346 -84.728,-3.423" style="fill:none;fill-rule:nonzero;stroke:rgb(168,255,230);stroke-width:0.12px;"/>
                        </g>
                        <g transform="matrix(1,0,0,1,919.001,1058.2279)">
                            <path d="M0,-25.743C-1.858,-22.76 -2.53,-18.948 -3.984,-15.656C-5.439,-12.363 -8.247,-9.382 -11.468,-10.07C-14.231,-10.66 -16.169,-13.646 -17.972,-16.252C-19.774,-18.858 -22.245,-21.551 -24.98,-21.136C-27.165,-20.803 -28.688,-18.525 -29.453,-16.137C-30.218,-13.748 -30.448,-11.124 -31.258,-8.759C-32.068,-6.393 -33.698,-4.187 -35.906,-4.025C-38.024,-3.869 -40.016,-5.639 -41.368,-7.664C-42.721,-9.69 -43.673,-12.05 -45.12,-13.987C-46.565,-15.923 -48.769,-17.44 -50.808,-16.851C-53.243,-16.149 -54.305,-12.924 -54.8,-10.036C-55.294,-7.149 -55.708,-3.896 -57.722,-2.21C-60.36,0 -64.37,-1.813 -66.738,-4.732C-69.106,-7.652 -70.481,-11.453 -72.608,-14.613C-74.735,-17.771 -78.224,-20.383 -81.341,-19.196" style="fill:none;fill-rule:nonzero;stroke:rgb(168,255,230);stroke-width:0.12px;"/>
                        </g>
                        <g transform="matrix(1,0,0,1,922.8496,1052.2246)">
                            <path d="M0,-3.541C-2.912,-3.354 -5.951,-4.802 -8.025,-7.367C-9.277,-8.915 -10.168,-10.806 -11.33,-12.447C-12.492,-14.088 -14.078,-15.544 -15.846,-15.626C-18.461,-15.749 -20.305,-12.928 -21.336,-10.189C-22.365,-7.45 -23.15,-4.318 -25.271,-2.675C-27.21,-1.172 -29.912,-1.331 -32.119,-2.564C-34.326,-3.798 -36.092,-5.967 -37.52,-8.31C-38.752,-10.332 -40.279,-12.836 -42.314,-12.578C-43.637,-12.412 -44.558,-11.062 -45.148,-9.696C-46.91,-5.619 -47.279,-0.132 -50.705,2.042C-52.474,3.164 -54.73,3.057 -56.686,2.153C-58.642,1.249 -60.328,-0.379 -61.779,-2.196C-63.559,-4.423 -65.436,-7.211 -67.963,-7.259C-69.958,-7.297 -71.576,-5.489 -72.439,-3.441C-73.301,-1.394 -73.615,0.937 -74.307,3.08C-75.624,7.16 -78.36,10.502 -81.781,12.208" style="fill:none;fill-rule:nonzero;stroke:rgb(168,255,230);stroke-width:0.12px;"/>
                        </g>
                        <g transform="matrix(1,0,0,1,902.2241,1080.2563)">
                            <path d="M0,-73.082C1.033,-69.622 2.023,-65.74 0.209,-63.007C-2.813,-58.454 -11.741,-59.851 -14.197,-54.952C-15.391,-52.571 -14.566,-49.518 -13.961,-46.697C-13.355,-43.875 -13.109,-40.663 -15.113,-38.888C-18.318,-36.049 -24.918,-38.819 -28.239,-36.099C-30.774,-34.023 -30.032,-29.95 -29.137,-26.517C-28.241,-23.084 -27.545,-18.997 -30.129,-16.973C-32.088,-15.439 -35.159,-15.766 -37.928,-16.07C-40.695,-16.375 -43.814,-16.472 -45.482,-14.659C-47.02,-12.987 -46.741,-10.295 -46.216,-7.89C-45.636,-5.239 -44.841,-2.599 -43.842,0" style="fill:none;fill-rule:nonzero;stroke:rgb(168,255,230);stroke-width:0.12px;"/>
                        </g>
                        <g transform="matrix(1,0,0,1,907.6724,1073.8995)">
                            <path d="M0,-62.275C-4.365,-61.562 -9.247,-60.482 -10.891,-56.721C-12.267,-53.573 -10.904,-49.351 -12.695,-46.439C-15.323,-42.168 -23.157,-43.046 -25.779,-38.771C-28.214,-34.799 -24.83,-28.378 -27.78,-24.769C-30.689,-21.209 -37.889,-22.795 -40.746,-19.195C-43.091,-16.242 -41.228,-11.522 -41.968,-7.735C-42.584,-4.585 -45.088,-2.179 -48.205,-1.09C-51.323,0 -54.987,-0.125 -58.506,-0.959" style="fill:none;fill-rule:nonzero;stroke:rgb(168,255,230);stroke-width:0.12px;"/>
                        </g>
                        <g transform="matrix(1,0,0,1,896.6626,1068.3218)">
                            <path d="M0,-62.438C0.796,-59.015 3.016,-55.845 4.315,-52.488C5.615,-49.131 5.738,-45.038 2.974,-43.246C0.603,-41.71 -2.879,-42.451 -5.996,-43.02C-9.113,-43.587 -12.765,-43.744 -14.405,-41.517C-15.715,-39.737 -15.182,-37.049 -14.033,-34.819C-12.886,-32.589 -11.192,-30.571 -10.093,-28.326C-8.993,-26.081 -8.586,-23.367 -10.032,-21.692C-11.42,-20.084 -14.079,-19.927 -16.468,-20.403C-18.856,-20.879 -21.199,-21.874 -23.591,-22.221C-25.983,-22.567 -28.612,-22.083 -29.639,-20.224C-30.864,-18.005 -29.334,-14.974 -27.643,-12.583C-25.95,-10.192 -23.943,-7.598 -24.175,-4.983C-24.478,-1.555 -28.596,0 -32.334,-0.39C-36.073,-0.78 -39.733,-2.496 -43.472,-3.226C-47.209,-3.955 -51.522,-3.335 -52.887,-0.292" style="fill:none;fill-rule:nonzero;stroke:rgb(168,255,230);stroke-width:0.12px;"/>
                        </g>
                        <g transform="matrix(1,0,0,1,910.8384,1083.5807)">
                            <path d="M0,-68.964C-1.926,-66.773 -5.1,-65.648 -8.38,-65.995C-10.36,-66.204 -12.327,-66.911 -14.31,-67.25C-16.291,-67.589 -18.441,-67.498 -19.75,-66.305C-21.686,-64.543 -20.995,-61.245 -19.787,-58.579C-18.578,-55.914 -16.92,-53.144 -17.257,-50.484C-17.565,-48.049 -19.588,-46.251 -22.021,-45.563C-24.453,-44.874 -27.236,-45.158 -29.902,-45.806C-32.204,-46.364 -35.054,-47.055 -36.311,-45.434C-37.128,-44.381 -36.825,-42.776 -36.276,-41.392C-34.64,-37.263 -31.021,-33.123 -31.906,-29.162C-32.363,-27.119 -34.034,-25.598 -36.057,-24.855C-38.079,-24.111 -40.423,-24.07 -42.733,-24.329C-45.565,-24.646 -48.864,-25.29 -50.686,-23.537C-52.124,-22.153 -51.989,-19.73 -51.151,-17.672C-50.313,-15.615 -48.888,-13.744 -47.861,-11.739C-45.907,-7.923 -45.479,-3.625 -46.691,0" style="fill:none;fill-rule:nonzero;stroke:rgb(168,255,230);stroke-width:0.12px;"/>
                        </g>
                        <g transform="matrix(1,0,0,1,866.9028,1082.5256)">
                            <path d="M0,-82.677C3.178,-80.961 6.623,-78.916 7.272,-75.7C8.355,-70.345 1.054,-65.019 2.781,-59.819C3.621,-57.291 6.363,-55.715 8.786,-54.149C11.209,-52.581 13.654,-50.484 13.493,-47.811C13.233,-43.538 6.608,-40.829 6.183,-36.559C5.858,-33.297 9.264,-30.942 12.324,-29.148C15.385,-27.354 18.767,-24.955 18.371,-21.698C18.07,-19.228 15.668,-17.287 13.495,-15.545C11.322,-13.803 9.048,-11.666 9.151,-9.205C9.247,-6.936 11.347,-5.229 13.419,-3.9C15.704,-2.436 18.132,-1.131 20.676,0" style="fill:none;fill-rule:nonzero;stroke:rgb(168,255,230);stroke-width:0.12px;"/>
                        </g>
                        <g transform="matrix(1,0,0,1,873.9023,1083.8706)">
                            <path d="M0,-84.728C-2.582,-81.136 -5.271,-76.921 -3.773,-73.099C-2.521,-69.901 1.428,-67.878 2.221,-64.553C3.383,-59.675 -2.778,-54.756 -1.609,-49.879C-0.522,-45.349 6.412,-43.202 6.877,-38.564C7.337,-33.989 1.125,-30.02 1.65,-25.455C2.08,-21.708 6.735,-19.687 8.89,-16.487C10.682,-13.823 10.612,-10.351 9.178,-7.377C7.744,-4.402 5.065,-1.899 1.988,0" style="fill:none;fill-rule:nonzero;stroke:rgb(168,255,230);stroke-width:0.12px;"/>
                        </g>
                        <g transform="matrix(1,0,0,1,862.0581,1084.2092)">
                            <path d="M0,-81.341C2.983,-79.483 6.795,-78.811 10.087,-77.357C13.38,-75.902 16.361,-73.094 15.673,-69.873C15.083,-67.11 12.097,-65.172 9.491,-63.369C6.885,-61.567 4.192,-59.096 4.607,-56.361C4.94,-54.176 7.218,-52.653 9.606,-51.888C11.995,-51.123 14.619,-50.893 16.984,-50.083C19.35,-49.273 21.556,-47.643 21.718,-45.435C21.874,-43.317 20.104,-41.325 18.079,-39.973C16.053,-38.62 13.693,-37.668 11.756,-36.221C9.82,-34.776 8.303,-32.572 8.892,-30.533C9.594,-28.098 12.819,-27.036 15.707,-26.541C18.594,-26.047 21.847,-25.633 23.533,-23.619C25.743,-20.981 23.93,-16.971 21.011,-14.603C18.091,-12.235 14.29,-10.86 11.13,-8.733C7.972,-6.606 5.36,-3.117 6.547,0" style="fill:none;fill-rule:nonzero;stroke:rgb(168,255,230);stroke-width:0.12px;"/>
                        </g>
                        <g transform="matrix(1,0,0,1,878.2568,1080.8005)">
                            <path d="M0,-81.781C0.187,-78.869 -1.261,-75.83 -3.826,-73.756C-5.374,-72.504 -7.265,-71.613 -8.906,-70.451C-10.547,-69.289 -12.003,-67.703 -12.085,-65.935C-12.208,-63.32 -9.387,-61.476 -6.648,-60.445C-3.909,-59.416 -0.777,-58.631 0.866,-56.51C2.369,-54.571 2.21,-51.869 0.977,-49.662C-0.257,-47.455 -2.426,-45.689 -4.769,-44.261C-6.791,-43.029 -9.295,-41.502 -9.037,-39.467C-8.871,-38.144 -7.521,-37.223 -6.155,-36.633C-2.078,-34.871 3.409,-34.502 5.583,-31.076C6.705,-29.307 6.598,-27.051 5.694,-25.095C4.79,-23.139 3.162,-21.453 1.345,-20.002C-0.882,-18.222 -3.67,-16.345 -3.718,-13.818C-3.756,-11.823 -1.948,-10.205 0.1,-9.342C2.147,-8.48 4.478,-8.166 6.621,-7.474C10.701,-6.157 14.043,-3.421 15.749,0" style="fill:none;fill-rule:nonzero;stroke:rgb(168,255,230);stroke-width:0.12px;"/>
                        </g>
                        <g transform="matrix(1,0,0,1,836.7471,1064.6406)">
                            <path d="M0,-44.997C3.46,-46.03 7.342,-47.02 10.075,-45.206C14.628,-42.184 13.231,-33.256 18.13,-30.8C20.511,-29.606 23.564,-30.431 26.385,-31.036C29.207,-31.642 32.419,-31.888 34.194,-29.884C37.033,-26.679 34.263,-20.079 36.983,-16.758C39.059,-14.223 43.132,-14.965 46.565,-15.86C49.998,-16.756 54.085,-17.452 56.109,-14.868C57.643,-12.909 57.316,-9.838 57.012,-7.069C56.707,-4.302 56.61,-1.183 58.423,0.485C60.095,2.023 62.787,1.744 65.192,1.219C67.843,0.639 70.483,-0.156 73.082,-1.155" style="fill:none;fill-rule:nonzero;stroke:rgb(168,255,230);stroke-width:0.12px;"/>
                        </g>
                        <g transform="matrix(1,0,0,1,841.1973,1072.7013)">
                            <path d="M0,-58.506C0.713,-54.141 1.793,-49.259 5.554,-47.615C8.702,-46.239 12.924,-47.602 15.836,-45.811C20.107,-43.183 19.229,-35.349 23.504,-32.727C27.476,-30.292 33.897,-33.676 37.506,-30.726C41.066,-27.817 39.48,-20.617 43.08,-17.76C46.033,-15.415 50.753,-17.278 54.54,-16.538C57.69,-15.922 60.096,-13.418 61.185,-10.301C62.275,-7.183 62.15,-3.519 61.316,0" style="fill:none;fill-rule:nonzero;stroke:rgb(168,255,230);stroke-width:0.12px;"/>
                        </g>
                        <g transform="matrix(1,0,0,1,835.4565,1072.3541)">
                            <path d="M0,-47.149C3.423,-47.945 6.593,-50.165 9.95,-51.464C13.307,-52.764 17.4,-52.887 19.192,-50.123C20.728,-47.752 19.987,-44.27 19.418,-41.153C18.851,-38.036 18.694,-34.384 20.921,-32.744C22.701,-31.434 25.389,-31.967 27.619,-33.116C29.849,-34.263 31.867,-35.957 34.112,-37.056C36.357,-38.156 39.071,-38.563 40.746,-37.117C42.354,-35.729 42.511,-33.07 42.035,-30.681C41.559,-28.293 40.564,-25.95 40.217,-23.558C39.871,-21.166 40.355,-18.537 42.214,-17.51C44.433,-16.285 47.464,-17.815 49.855,-19.506C52.246,-21.199 54.84,-23.206 57.455,-22.974C60.883,-22.671 62.438,-18.553 62.048,-14.815C61.658,-11.076 59.942,-7.416 59.212,-3.677C58.483,0.06 59.103,4.373 62.146,5.738" style="fill:none;fill-rule:nonzero;stroke:rgb(168,255,230);stroke-width:0.12px;"/>
                        </g>
                        <g transform="matrix(1,0,0,1,844.1895,1063.1533)">
                            <path d="M0,-52.124C2.191,-50.198 3.316,-47.024 2.969,-43.744C2.76,-41.764 2.053,-39.797 1.714,-37.814C1.375,-35.833 1.466,-33.683 2.659,-32.374C4.421,-30.438 7.719,-31.129 10.385,-32.337C13.05,-33.546 15.82,-35.204 18.48,-34.867C20.915,-34.559 22.713,-32.536 23.401,-30.103C24.09,-27.671 23.806,-24.888 23.158,-22.222C22.6,-19.92 21.909,-17.07 23.53,-15.813C24.583,-14.996 26.188,-15.299 27.572,-15.848C31.701,-17.484 35.841,-21.103 39.802,-20.218C41.845,-19.761 43.366,-18.09 44.109,-16.067C44.853,-14.045 44.894,-11.701 44.635,-9.391C44.318,-6.559 43.674,-3.26 45.427,-1.438C46.811,0 49.234,-0.135 51.292,-0.973C53.349,-1.811 55.22,-3.236 57.225,-4.263C61.041,-6.217 65.339,-6.645 68.964,-5.433" style="fill:none;fill-rule:nonzero;stroke:rgb(168,255,230);stroke-width:0.12px;"/>
                        </g>
                        <g transform="matrix(1,0,0,1,829.4209,1034.2898)">
                            <path d="M0,20.676C1.716,17.498 3.761,14.053 6.977,13.404C12.332,12.321 17.658,19.622 22.858,17.895C25.386,17.055 26.962,14.313 28.528,11.89C30.096,9.467 32.193,7.022 34.866,7.183C39.139,7.443 41.848,14.068 46.118,14.493C49.38,14.818 51.735,11.412 53.529,8.352C55.323,5.291 57.722,1.909 60.979,2.305C63.449,2.606 65.39,5.008 67.132,7.181C68.874,9.354 71.011,11.628 73.472,11.525C75.741,11.429 77.448,9.329 78.777,7.257C80.241,4.972 81.546,2.544 82.677,0" style="fill:none;fill-rule:nonzero;stroke:rgb(168,255,230);stroke-width:0.12px;"/>
                        </g>
                        <g transform="matrix(1,0,0,1,828.7148,1042.5553)">
                            <path d="M0,5.411C3.592,7.993 7.807,10.682 11.629,9.184C14.827,7.932 16.85,3.983 20.175,3.19C25.053,2.028 29.972,8.189 34.849,7.02C39.379,5.933 41.526,-1.001 46.164,-1.466C50.739,-1.926 54.708,4.286 59.273,3.761C63.02,3.331 65.041,-1.324 68.241,-3.479C70.905,-5.271 74.377,-5.201 77.351,-3.767C80.326,-2.333 82.829,0.346 84.728,3.423" style="fill:none;fill-rule:nonzero;stroke:rgb(168,255,230);stroke-width:0.12px;"/>
                        </g>
                        <g transform="matrix(1,0,0,1,832.4404,1034.0675)">
                            <path d="M0,25.743C1.858,22.76 2.53,18.948 3.984,15.656C5.439,12.363 8.247,9.382 11.468,10.07C14.231,10.66 16.169,13.646 17.972,16.252C19.774,18.858 22.245,21.551 24.98,21.136C27.165,20.803 28.688,18.525 29.453,16.137C30.218,13.748 30.448,11.124 31.258,8.759C32.068,6.393 33.698,4.187 35.906,4.025C38.024,3.869 40.016,5.639 41.368,7.664C42.721,9.69 43.673,12.05 45.12,13.987C46.565,15.923 48.769,17.44 50.808,16.851C53.243,16.149 54.305,12.924 54.8,10.036C55.294,7.149 55.708,3.896 57.722,2.21C60.36,0 64.37,1.813 66.738,4.732C69.106,7.652 70.481,11.453 72.608,14.613C74.735,17.771 78.224,20.383 81.341,19.196" style="fill:none;fill-rule:nonzero;stroke:rgb(168,255,230);stroke-width:0.12px;"/>
                        </g>
                        <g transform="matrix(1,0,0,1,828.5918,1040.0708)">
                            <path d="M0,3.541C2.912,3.354 5.951,4.802 8.025,7.367C9.277,8.915 10.168,10.806 11.33,12.447C12.492,14.088 14.078,15.544 15.846,15.626C18.461,15.749 20.305,12.928 21.336,10.189C22.365,7.45 23.15,4.318 25.271,2.675C27.21,1.172 29.912,1.331 32.119,2.564C34.326,3.798 36.092,5.967 37.52,8.31C38.752,10.332 40.279,12.836 42.314,12.578C43.637,12.412 44.558,11.062 45.148,9.696C46.91,5.619 47.279,0.132 50.705,-2.042C52.474,-3.164 54.73,-3.057 56.686,-2.153C58.642,-1.249 60.328,0.379 61.779,2.196C63.559,4.423 65.436,7.211 67.963,7.259C69.958,7.297 71.576,5.489 72.439,3.441C73.301,1.394 73.615,-0.937 74.307,-3.08C75.624,-7.16 78.36,-10.502 81.781,-12.208" style="fill:none;fill-rule:nonzero;stroke:rgb(168,255,230);stroke-width:0.12px;"/>
                        </g>
                        <g transform="matrix(1,0,0,1,849.2178,1012.0396)">
                            <path d="M0,73.082C-1.033,69.622 -2.023,65.74 -0.209,63.007C2.813,58.454 11.741,59.851 14.197,54.952C15.391,52.571 14.566,49.518 13.961,46.697C13.355,43.875 13.109,40.663 15.113,38.888C18.318,36.049 24.918,38.819 28.239,36.099C30.774,34.023 30.032,29.95 29.137,26.517C28.241,23.084 27.545,18.997 30.129,16.973C32.088,15.439 35.159,15.766 37.928,16.07C40.695,16.375 43.814,16.472 45.482,14.659C47.02,12.987 46.741,10.295 46.216,7.89C45.636,5.239 44.841,2.599 43.842,0" style="fill:none;fill-rule:nonzero;stroke:rgb(168,255,230);stroke-width:0.12px;"/>
                        </g>
                        <g transform="matrix(1,0,0,1,843.7695,1018.3964)">
                            <path d="M0,62.275C4.365,61.562 9.247,60.482 10.891,56.721C12.267,53.573 10.904,49.351 12.695,46.439C15.323,42.168 23.157,43.046 25.779,38.771C28.214,34.799 24.83,28.378 27.78,24.769C30.689,21.209 37.889,22.795 40.746,19.195C43.091,16.242 41.228,11.522 41.968,7.735C42.584,4.585 45.088,2.179 48.205,1.09C51.323,0 54.987,0.125 58.506,0.959" style="fill:none;fill-rule:nonzero;stroke:rgb(168,255,230);stroke-width:0.12px;"/>
                        </g>
                        <g transform="matrix(1,0,0,1,854.7793,1023.9741)">
                            <path d="M0,62.438C-0.796,59.015 -3.016,55.845 -4.315,52.488C-5.615,49.131 -5.738,45.038 -2.974,43.246C-0.603,41.71 2.879,42.451 5.996,43.02C9.113,43.587 12.765,43.744 14.405,41.517C15.715,39.737 15.182,37.049 14.033,34.819C12.886,32.589 11.192,30.571 10.093,28.326C8.993,26.081 8.586,23.367 10.032,21.692C11.42,20.084 14.079,19.927 16.468,20.403C18.856,20.879 21.199,21.874 23.591,22.221C25.983,22.567 28.612,22.083 29.639,20.224C30.864,18.005 29.334,14.974 27.643,12.583C25.95,10.192 23.943,7.598 24.175,4.983C24.478,1.555 28.596,0 32.334,0.39C36.073,0.78 39.733,2.496 43.472,3.226C47.209,3.955 51.522,3.335 52.887,0.292" style="fill:none;fill-rule:nonzero;stroke:rgb(168,255,230);stroke-width:0.12px;"/>
                        </g>
                        <g transform="matrix(1,0,0,1,840.6035,1008.7152)">
                            <path d="M0,68.964C1.926,66.773 5.1,65.648 8.38,65.995C10.36,66.204 12.327,66.911 14.31,67.25C16.291,67.589 18.441,67.498 19.75,66.305C21.686,64.543 20.995,61.245 19.787,58.579C18.578,55.914 16.92,53.144 17.257,50.484C17.565,48.049 19.588,46.251 22.021,45.563C24.453,44.874 27.236,45.158 29.902,45.806C32.204,46.364 35.054,47.055 36.311,45.434C37.128,44.381 36.825,42.776 36.276,41.392C34.64,37.263 31.021,33.123 31.906,29.162C32.363,27.119 34.034,25.598 36.057,24.855C38.079,24.111 40.423,24.07 42.733,24.329C45.565,24.646 48.864,25.29 50.686,23.537C52.124,22.153 51.989,19.73 51.151,17.672C50.313,15.615 48.888,13.744 47.861,11.739C45.907,7.923 45.479,3.625 46.691,0" style="fill:none;fill-rule:nonzero;stroke:rgb(168,255,230);stroke-width:0.12px;"/>
                        </g>
                        <g transform="matrix(1,0,0,1,884.5391,1009.7703)">
                            <path d="M0,82.677C-3.178,80.961 -6.623,78.916 -7.272,75.7C-8.355,70.345 -1.054,65.019 -2.781,59.819C-3.621,57.291 -6.363,55.715 -8.786,54.149C-11.209,52.581 -13.654,50.484 -13.493,47.811C-13.233,43.538 -6.608,40.829 -6.183,36.559C-5.858,33.297 -9.264,30.942 -12.324,29.148C-15.385,27.354 -18.767,24.955 -18.371,21.698C-18.07,19.228 -15.668,17.287 -13.495,15.545C-11.322,13.803 -9.048,11.666 -9.151,9.205C-9.247,6.936 -11.347,5.229 -13.419,3.9C-15.704,2.436 -18.132,1.131 -20.676,0" style="fill:none;fill-rule:nonzero;stroke:rgb(168,255,230);stroke-width:0.12px;"/>
                        </g>
                        <g transform="matrix(1,0,0,1,877.5396,1008.4253)">
                            <path d="M0,84.728C2.582,81.136 5.271,76.921 3.773,73.099C2.521,69.901 -1.428,67.878 -2.221,64.553C-3.383,59.675 2.778,54.756 1.609,49.879C0.522,45.349 -6.412,43.202 -6.877,38.564C-7.337,33.989 -1.125,30.02 -1.65,25.455C-2.08,21.708 -6.735,19.687 -8.89,16.487C-10.682,13.823 -10.612,10.351 -9.178,7.377C-7.744,4.402 -5.065,1.899 -1.988,0" style="fill:none;fill-rule:nonzero;stroke:rgb(168,255,230);stroke-width:0.12px;"/>
                        </g>
                        <g transform="matrix(1,0,0,1,889.3838,1008.0867)">
                            <path d="M0,81.341C-2.983,79.483 -6.795,78.811 -10.087,77.357C-13.38,75.902 -16.361,73.094 -15.673,69.873C-15.083,67.11 -12.097,65.172 -9.491,63.369C-6.885,61.567 -4.192,59.096 -4.607,56.361C-4.94,54.176 -7.218,52.653 -9.606,51.888C-11.995,51.123 -14.619,50.893 -16.984,50.083C-19.35,49.273 -21.556,47.643 -21.718,45.435C-21.874,43.317 -20.104,41.325 -18.079,39.973C-16.053,38.62 -13.693,37.668 -11.756,36.221C-9.82,34.776 -8.303,32.572 -8.892,30.533C-9.594,28.098 -12.819,27.036 -15.707,26.541C-18.594,26.047 -21.847,25.633 -23.533,23.619C-25.743,20.981 -23.93,16.971 -21.011,14.603C-18.091,12.235 -14.29,10.86 -11.13,8.733C-7.972,6.606 -5.36,3.117 -6.547,0" style="fill:none;fill-rule:nonzero;stroke:rgb(168,255,230);stroke-width:0.12px;"/>
                        </g>
                        <g transform="matrix(1,0,0,1,873.1851,1011.4954)">
                            <path d="M0,81.781C-0.187,78.869 1.261,75.83 3.826,73.756C5.374,72.504 7.265,71.613 8.906,70.451C10.547,69.289 12.003,67.703 12.085,65.935C12.208,63.32 9.387,61.476 6.648,60.445C3.909,59.416 0.777,58.631 -0.866,56.51C-2.369,54.571 -2.21,51.869 -0.977,49.662C0.257,47.455 2.426,45.689 4.769,44.261C6.791,43.029 9.295,41.502 9.037,39.467C8.871,38.144 7.521,37.223 6.155,36.633C2.078,34.871 -3.409,34.502 -5.583,31.076C-6.705,29.307 -6.598,27.051 -5.694,25.095C-4.79,23.139 -3.162,21.453 -1.345,20.002C0.882,18.222 3.67,16.345 3.718,13.818C3.756,11.823 1.948,10.205 -0.1,9.342C-2.147,8.48 -4.478,8.166 -6.621,7.474C-10.701,6.157 -14.043,3.421 -15.749,0" style="fill:none;fill-rule:nonzero;stroke:rgb(168,255,230);stroke-width:0.12px;"/>
                        </g>
                    </g>
</g>
</g>
</svg>
