<svg xmlns="http://www.w3.org/2000/svg" viewBox="3347.9863401493026 1695.6378327822658 565.4238397214035 732.0679775200169">
<defs>
<linearGradient xmlns="http://www.w3.org/2000/svg" id="_Linear38" x1="0" y1="0" x2="1" y2="0" gradientUnits="userSpaceOnUse" gradientTransform="matrix(1,-0,-0,-1,0,-1.165635)"><stop offset="0" style="stop-color:rgb(51,184,255);stop-opacity:1"/><stop offset="1" style="stop-color:rgb(122,51,255);stop-opacity:1"/></linearGradient>
<linearGradient xmlns="http://www.w3.org/2000/svg" id="_Linear39" x1="0" y1="0" x2="1" y2="0" gradientUnits="userSpaceOnUse" gradientTransform="matrix(1,0,0,-1,0,-1.165625)"><stop offset="0" style="stop-color:rgb(51,184,255);stop-opacity:1"/><stop offset="1" style="stop-color:rgb(122,51,255);stop-opacity:1"/></linearGradient>
<linearGradient xmlns="http://www.w3.org/2000/svg" id="_Linear40" x1="0" y1="0" x2="1" y2="0" gradientUnits="userSpaceOnUse" gradientTransform="matrix(1,-0,-0,-1,0,-1.165705)"><stop offset="0" style="stop-color:rgb(51,184,255);stop-opacity:1"/><stop offset="1" style="stop-color:rgb(122,51,255);stop-opacity:1"/></linearGradient>
<linearGradient xmlns="http://www.w3.org/2000/svg" id="_Linear41" x1="0" y1="0" x2="1" y2="0" gradientUnits="userSpaceOnUse" gradientTransform="matrix(1,0,0,-1,0,-1.133146)"><stop offset="0" style="stop-color:rgb(51,184,255);stop-opacity:1"/><stop offset="1" style="stop-color:rgb(122,51,255);stop-opacity:1"/></linearGradient>
<linearGradient xmlns="http://www.w3.org/2000/svg" id="_Linear42" x1="0" y1="0" x2="1" y2="0" gradientUnits="userSpaceOnUse" gradientTransform="matrix(1,-0,-0,-1,0,-1.164864)"><stop offset="0" style="stop-color:rgb(51,184,255);stop-opacity:1"/><stop offset="1" style="stop-color:rgb(122,51,255);stop-opacity:1"/></linearGradient>
<linearGradient xmlns="http://www.w3.org/2000/svg" id="_Linear43" x1="0" y1="0" x2="1" y2="0" gradientUnits="userSpaceOnUse" gradientTransform="matrix(1,0,0,-1,0,-1.165615)"><stop offset="0" style="stop-color:rgb(51,184,255);stop-opacity:1"/><stop offset="1" style="stop-color:rgb(122,51,255);stop-opacity:1"/></linearGradient>
<linearGradient xmlns="http://www.w3.org/2000/svg" id="_Linear44" x1="0" y1="0" x2="1" y2="0" gradientUnits="userSpaceOnUse" gradientTransform="matrix(1,-0,-0,-1,0,-1.165688)"><stop offset="0" style="stop-color:rgb(51,184,255);stop-opacity:1"/><stop offset="1" style="stop-color:rgb(122,51,255);stop-opacity:1"/></linearGradient>
<linearGradient xmlns="http://www.w3.org/2000/svg" id="_Linear45" x1="0" y1="0" x2="1" y2="0" gradientUnits="userSpaceOnUse" gradientTransform="matrix(1,0,0,-1,0,-1.184289)"><stop offset="0" style="stop-color:rgb(51,184,255);stop-opacity:1"/><stop offset="1" style="stop-color:rgb(122,51,255);stop-opacity:1"/></linearGradient>
</defs>
<g transform="matrix(4.166667,0,0,4.166667,0,0)">
<g transform="matrix(1,0,0,1,-11.56697,1.462939)">
<g xmlns="http://www.w3.org/2000/svg">
                            <g transform="matrix(0.804539,-0.593899,-0.593899,-0.804539,936.087239,550.697351)">
                                <path d="M-43.307,3.274C-46.35,12.522 -49.414,21.88 -50.168,31.586C-50.923,41.291 -49.147,51.533 -43.307,59.322C-32.754,73.399 -12.415,75.907 0.782,87.542C12.405,97.791 17.106,115.206 12.22,129.911" style="fill:none;fill-rule:nonzero;stroke:rgb(51,181,129);stroke-width:2.91px;"/>
                            </g>
                            <g transform="matrix(-9.692239,-8.250153,-8.250153,9.692239,868.168978,456.131596)">
                                <path d="M0.631,-0.011C0.495,0.138 0.233,0.146 0.088,0.004C-0.055,-0.135 -0.055,-0.393 0.086,-0.534C-0.033,-0.419 -0.216,-0.373 -0.375,-0.418C-0.417,-0.754 -0.148,-1.066 0.167,-1.189C0.482,-1.311 0.833,-1.289 1.17,-1.266L0.631,-0.011Z" style="fill:url(#_Linear38);fill-rule:nonzero;"/>
                            </g>
                            <g transform="matrix(1,0,0,1,867.2671,455.6255)">
                                <path d="M0,-21.416C3.468,-18.862 7.047,-16.184 9.091,-12.393C11.135,-8.602 11.167,-3.359 7.988,-0.454C6.039,-1.341 4.64,-3.332 4.466,-5.466C4.728,-2.908 2.577,-0.354 0.011,-0.177C-2.556,0 -5.037,-2.234 -5.128,-4.805L0,-21.416Z" style="fill:none;fill-rule:nonzero;stroke:rgb(51,181,129);stroke-width:1.1px;"/>
                            </g>
                            <g transform="matrix(-1.019708,-12.687187,-12.687187,1.019708,852.425295,451.22851)">
                                <path d="M0.631,-0.011C0.495,0.138 0.233,0.146 0.088,0.005C-0.055,-0.135 -0.055,-0.393 0.086,-0.534C-0.033,-0.419 -0.215,-0.373 -0.375,-0.418C-0.417,-0.754 -0.148,-1.066 0.167,-1.189C0.482,-1.311 0.833,-1.289 1.17,-1.266L0.631,-0.011ZM0.091,-0.539L0.091,-0.539L0.091,-0.539L0.091,-0.539L0.091,-0.539Z" style="fill:url(#_Linear39);fill-rule:nonzero;"/>
                            </g>
                            <g transform="matrix(1,0,0,1,867.2886,455.7538)">
                                <path d="M0,-20.664C0.646,-16.406 1.283,-11.982 0.048,-7.855C-1.187,-3.73 -4.872,0 -9.174,-0.193C-9.925,-2.199 -9.506,-4.596 -8.12,-6.228C-9.744,-4.234 -13.071,-3.949 -15.01,-5.639C-16.951,-7.328 -17.125,-10.662 -15.372,-12.545L0,-20.664Z" style="fill:none;fill-rule:nonzero;stroke:rgb(51,181,129);stroke-width:1.1px;"/>
                            </g>
                            <g transform="matrix(8.250153,-9.692239,-9.692239,-8.250153,844.760304,436.626408)">
                                <path d="M0.088,0.004C-0.055,-0.135 -0.055,-0.393 0.086,-0.534C-0.034,-0.419 -0.216,-0.373 -0.375,-0.418C-0.417,-0.754 -0.148,-1.066 0.167,-1.189C0.482,-1.311 0.833,-1.29 1.17,-1.266L0.631,-0.011C0.495,0.138 0.233,0.146 0.088,0.004ZM0.091,-0.539L0.091,-0.539L0.091,-0.539L0.091,-0.539L0.091,-0.539Z" style="fill:url(#_Linear40);fill-rule:nonzero;"/>
                            </g>
                            <g transform="matrix(1,0,0,1,866.6831,441.7641)">
                                <path d="M0,-6.039C-2.554,-2.571 -5.232,1.008 -9.023,3.052C-12.814,5.096 -18.057,5.128 -20.962,1.949C-20.075,-0 -18.084,-1.399 -15.95,-1.573C-18.508,-1.311 -21.062,-3.462 -21.239,-6.028C-21.416,-8.595 -19.182,-11.076 -16.611,-11.167L0,-6.039Z" style="fill:none;fill-rule:nonzero;stroke:rgb(51,181,129);stroke-width:1.1px;"/>
                            </g>
                            <g transform="matrix(12.687187,-1.019708,-1.019708,-12.687187,849.698165,421.29587)">
                                <path d="M0.088,0.037C-0.055,-0.103 -0.055,-0.361 0.086,-0.502C-0.033,-0.386 -0.215,-0.34 -0.375,-0.386C-0.417,-0.721 -0.148,-1.034 0.167,-1.156C0.482,-1.279 0.833,-1.257 1.17,-1.233L0.631,0.022C0.568,0.091 0.478,0.13 0.385,0.137C0.277,0.146 0.166,0.113 0.088,0.037Z" style="fill:url(#_Linear41);fill-rule:nonzero;"/>
                            </g>
                            <g transform="matrix(1,0,0,1,865.8037,419.9051)">
                                <path d="M0,15.842C-4.258,16.488 -8.682,17.125 -12.809,15.89C-16.934,14.655 -20.664,10.97 -20.471,6.668C-18.465,5.917 -16.068,6.336 -14.436,7.722C-16.43,6.098 -16.715,2.771 -15.025,0.832C-13.336,-1.109 -10.002,-1.283 -8.119,0.47L0,15.842Z" style="fill:none;fill-rule:nonzero;stroke:rgb(51,181,129);stroke-width:1.1px;"/>
                            </g>
                            <g transform="matrix(9.692239,8.250153,8.250153,-9.692239,864.259236,413.226458)">
                                <path d="M0.088,0.005C-0.055,-0.134 -0.055,-0.392 0.086,-0.533C-0.033,-0.418 -0.216,-0.372 -0.375,-0.417C-0.417,-0.753 -0.148,-1.065 0.167,-1.188C0.482,-1.311 0.833,-1.289 1.17,-1.265L0.631,-0.01C0.5,0.134 0.252,0.146 0.105,0.021C0.099,0.016 0.093,0.011 0.088,0.005Z" style="fill:url(#_Linear42);fill-rule:nonzero;"/>
                            </g>
                            <g transform="matrix(1,0,0,1,865.1675,413.7251)">
                                <path d="M0,21.416C-3.468,18.862 -7.047,16.184 -9.091,12.393C-11.135,8.602 -11.167,3.359 -7.988,0.454C-6.039,1.341 -4.64,3.332 -4.466,5.466C-4.728,2.908 -2.577,0.354 -0.011,0.177C2.556,0 5.037,2.234 5.128,4.805L0,21.416Z" style="fill:none;fill-rule:nonzero;stroke:rgb(51,181,129);stroke-width:1.1px;"/>
                            </g>
                            <g transform="matrix(1.019708,12.687187,12.687187,-1.019708,880.009146,418.123063)">
                                <path d="M0.167,-1.189C0.482,-1.311 0.833,-1.289 1.17,-1.266L0.631,-0.011C0.495,0.139 0.233,0.146 0.088,0.004C-0.055,-0.135 -0.055,-0.393 0.086,-0.534C-0.033,-0.419 -0.215,-0.373 -0.375,-0.418C-0.376,-0.427 -0.377,-0.435 -0.378,-0.443C-0.404,-0.769 -0.14,-1.069 0.167,-1.189Z" style="fill:url(#_Linear43);fill-rule:nonzero;"/>
                            </g>
                            <g transform="matrix(1,0,0,1,865.146,413.5977)">
                                <path d="M0,20.664C-0.646,16.406 -1.283,11.982 -0.048,7.855C1.187,3.73 4.872,0 9.174,0.193C9.925,2.199 9.506,4.596 8.12,6.228C9.744,4.234 13.071,3.949 15.01,5.639C16.951,7.328 17.125,10.662 15.372,12.545L0,20.664Z" style="fill:none;fill-rule:nonzero;stroke:rgb(51,181,129);stroke-width:1.1px;"/>
                            </g>
                            <g transform="matrix(-8.250153,9.692239,9.692239,8.250153,887.6741,432.724036)">
                                <path d="M0.167,-1.189C0.482,-1.311 0.833,-1.289 1.17,-1.266L0.631,-0.011C0.495,0.138 0.233,0.146 0.088,0.004C-0.055,-0.135 -0.055,-0.393 0.086,-0.534C-0.034,-0.419 -0.216,-0.373 -0.375,-0.418C-0.398,-0.604 -0.327,-0.782 -0.205,-0.925C-0.106,-1.041 0.026,-1.134 0.167,-1.189Z" style="fill:url(#_Linear44);fill-rule:nonzero;"/>
                            </g>
                            <g transform="matrix(1,0,0,1,865.7515,427.5865)">
                                <path d="M0,6.039C2.554,2.571 5.232,-1.008 9.023,-3.052C12.814,-5.096 18.057,-5.128 20.962,-1.949C20.075,-0 18.084,1.399 15.95,1.573C18.508,1.311 21.062,3.462 21.239,6.028C21.416,8.595 19.182,11.076 16.611,11.167L0,6.039Z" style="fill:none;fill-rule:nonzero;stroke:rgb(51,181,129);stroke-width:1.1px;"/>
                            </g>
                            <g transform="matrix(-12.687187,1.019708,1.019708,12.687187,882.788557,448.704072)">
                                <path d="M1.17,-1.284L0.631,-0.029C0.495,0.12 0.233,0.127 0.088,-0.014C-0.055,-0.154 -0.055,-0.412 0.086,-0.553C-0.033,-0.437 -0.215,-0.391 -0.375,-0.437C-0.417,-0.773 -0.148,-1.085 0.167,-1.207C0.298,-1.258 0.435,-1.284 0.575,-1.296C0.772,-1.311 0.973,-1.298 1.17,-1.284Z" style="fill:url(#_Linear45);fill-rule:nonzero;"/>
                            </g>
                            <g transform="matrix(1,0,0,1,866.6309,449.446)">
                                <path d="M0,-15.842C4.258,-16.488 8.682,-17.125 12.809,-15.89C16.934,-14.655 20.664,-10.97 20.471,-6.668C18.465,-5.917 16.068,-6.336 14.436,-7.722C16.43,-6.098 16.715,-2.771 15.025,-0.832C13.336,1.109 10.002,1.283 8.119,-0.47L0,-15.842Z" style="fill:none;fill-rule:nonzero;stroke:rgb(51,181,129);stroke-width:1.1px;"/>
                            </g>
                            <g transform="matrix(1,0,0,1,866.0527,452.9907)">
                                <path d="M0,-17.812C1.647,-11.873 0.854,-5.691 -2.413,-0.484L-2.59,0C-3.646,-5.993 -2.725,-12.065 -0.334,-17.611C-0.362,-17.641 -0.391,-17.671 -0.419,-17.701C-0.435,-17.602 -0.45,-17.502 -0.466,-17.403C-0.623,-17.25 -0.779,-17.097 0,-17.812" style="fill:rgb(255,75,51);fill-rule:nonzero;"/>
                            </g>
                            <g transform="matrix(1,0,0,1,865.7446,445.462)">
                                <path d="M0,-10.546C-3.035,-5.182 -7.967,-1.372 -13.958,0.001C-14.115,0.073 -14.271,0.145 -14.427,0.218C-10.936,-4.767 -5.99,-8.409 -0.378,-10.64C-0.377,-10.681 -0.376,-10.723 -0.375,-10.764C-0.456,-10.704 -0.537,-10.646 -0.618,-10.587C-0.837,-10.589 -1.057,-10.591 0,-10.546" style="fill:rgb(255,75,51);fill-rule:nonzero;"/>
                            </g>
                            <g transform="matrix(1,0,0,1,865.7139,432.5117)">
                                <path d="M0,1.999C-5.939,3.646 -12.121,2.853 -17.328,-0.414L-17.812,-0.591C-11.819,-1.647 -5.747,-0.726 -0.201,1.665C-0.171,1.637 -0.141,1.608 -0.111,1.58C-0.21,1.564 -0.31,1.549 -0.409,1.533C-0.562,1.376 -0.715,1.22 0,1.999" style="fill:rgb(255,75,51);fill-rule:nonzero;"/>
                            </g>
                            <g transform="matrix(1,0,0,1,865.9775,419.7761)">
                                <path d="M0,14.427C-5.364,11.392 -9.174,6.46 -10.547,0.469C-10.619,0.312 -10.691,0.156 -10.764,0C-5.779,3.491 -2.137,8.437 0.094,14.049C0.135,14.05 0.177,14.051 0.218,14.052C0.158,13.971 0.1,13.89 0.041,13.809C0.043,13.59 0.045,13.37 0,14.427" style="fill:rgb(255,75,51);fill-rule:nonzero;"/>
                            </g>
                            <g transform="matrix(1,0,0,1,866.3818,416.3599)">
                                <path d="M0,17.812C-1.647,11.873 -0.854,5.691 2.413,0.484L2.59,0C3.646,5.993 2.725,12.065 0.334,17.611C0.362,17.641 0.391,17.671 0.419,17.701C0.435,17.602 0.45,17.502 0.466,17.403C0.623,17.25 0.779,17.097 0,17.812" style="fill:rgb(255,75,51);fill-rule:nonzero;"/>
                            </g>
                            <g transform="matrix(1,0,0,1,866.6899,423.8895)">
                                <path d="M0,10.546C3.035,5.182 7.967,1.372 13.958,-0.001C14.115,-0.073 14.271,-0.145 14.427,-0.218C10.936,4.767 5.99,8.409 0.378,10.64C0.377,10.681 0.376,10.723 0.375,10.764C0.456,10.704 0.537,10.646 0.618,10.587C0.837,10.589 1.057,10.591 0,10.546" style="fill:rgb(255,75,51);fill-rule:nonzero;"/>
                            </g>
                            <g transform="matrix(1,0,0,1,866.7207,436.8388)">
                                <path d="M0,-1.999C5.939,-3.646 12.121,-2.853 17.328,0.414L17.812,0.591C11.819,1.647 5.747,0.726 0.201,-1.665C0.171,-1.637 0.141,-1.608 0.111,-1.58C0.21,-1.564 0.31,-1.549 0.409,-1.533C0.562,-1.376 0.715,-1.22 0,-1.999" style="fill:rgb(255,75,51);fill-rule:nonzero;"/>
                            </g>
                            <g transform="matrix(1,0,0,1,866.457,449.5749)">
                                <path d="M0,-14.427C5.364,-11.392 9.174,-6.46 10.547,-0.469C10.619,-0.312 10.691,-0.156 10.764,0C5.779,-3.491 2.137,-8.437 -0.094,-14.049C-0.135,-14.05 -0.177,-14.051 -0.218,-14.052C-0.158,-13.971 -0.1,-13.89 -0.041,-13.809C-0.043,-13.59 -0.045,-13.37 0,-14.427" style="fill:rgb(255,75,51);fill-rule:nonzero;"/>
                            </g>
                            <g transform="matrix(-0.088248,0.996099,0.996099,0.088248,866.456464,433.336674)">
                                <path d="M1.354,-1.48C0.604,-1.48 -0.006,-0.87 -0.005,-0.119C-0.005,0.631 0.604,1.24 1.354,1.24C2.105,1.24 2.715,0.63 2.715,-0.12C2.714,-0.871 2.105,-1.48 1.354,-1.48" style="fill:rgb(170,23,255);fill-rule:nonzero;"/>
                            </g>
                            <g transform="matrix(-0.088248,0.996099,0.996099,0.088248,866.456464,433.336674)">
                                <ellipse cx="1.355" cy="-0.12" rx="1.36" ry="1.36" style="fill:none;stroke:rgb(56,39,54);stroke-width:0.94px;"/>
                            </g>
                            <g transform="matrix(1,0,0,1,880.736,487.962)">
                                <path d="M0,2.901C0.273,4.564 1.751,5.828 3.36,6.33C4.969,6.833 6.699,6.712 8.375,6.54C10.982,6.274 13.758,5.814 15.666,4.018C17.574,2.222 17.976,-1.356 15.808,-2.827C14.179,-3.932 11.905,-3.382 10.282,-2.268C8.658,-1.155 7.418,0.436 5.849,1.625C4.28,2.814 2.119,3.575 0.35,2.711C0.444,2.443 0.538,2.175 0,2.901" style="fill:rgb(51,181,129);fill-rule:nonzero;"/>
                            </g>
                            <g transform="matrix(1,0,0,1,869.3948,501.4698)">
                                <path d="M0,10.186C-1.979,7.411 -3.623,7.959 -7.023,7.714C-7.88,7.652 -8.818,7.66 -9.487,7.121C-10.697,6.146 -10.18,4.186 -9.323,2.89C-8.115,1.063 -6.311,-0.506 -4.146,-0.838C-1.981,-1.171 0.486,0.072 1.011,2.198C1.332,3.498 0.92,4.853 0.51,6.127C0.1,7.401 -0.316,8.754 -0.004,10.056C0.307,11.357 0.045,10.134 0,10.186" style="fill:rgb(51,181,129);fill-rule:nonzero;"/>
                            </g>
                        </g>
</g>
</g>
</svg>
