<svg xmlns="http://www.w3.org/2000/svg" viewBox="1608.4797474883694 538.2221810594377 513.7472641901945 1036.2505008167004">
<defs>
<linearGradient xmlns="http://www.w3.org/2000/svg" id="_Linear72" x1="0" y1="0" x2="1" y2="0" gradientUnits="userSpaceOnUse" gradientTransform="matrix(1,0,0,-1,0,-0.013742)"><stop offset="0" style="stop-color:rgb(219,48,0);stop-opacity:1"/><stop offset="1" style="stop-color:rgb(73,219,0);stop-opacity:1"/></linearGradient>
<linearGradient xmlns="http://www.w3.org/2000/svg" id="_Linear73" x1="0" y1="0" x2="1" y2="0" gradientUnits="userSpaceOnUse" gradientTransform="matrix(1,-0,-0,-1,0,-0.013718)"><stop offset="0" style="stop-color:rgb(219,48,0);stop-opacity:1"/><stop offset="1" style="stop-color:rgb(73,219,0);stop-opacity:1"/></linearGradient>
<linearGradient xmlns="http://www.w3.org/2000/svg" id="_Linear74" x1="0" y1="0" x2="1" y2="0" gradientUnits="userSpaceOnUse" gradientTransform="matrix(1,0,0,-1,0,-0.013739)"><stop offset="0" style="stop-color:rgb(219,48,0);stop-opacity:1"/><stop offset="1" style="stop-color:rgb(73,219,0);stop-opacity:1"/></linearGradient>
<linearGradient xmlns="http://www.w3.org/2000/svg" id="_Linear75" x1="0" y1="0" x2="1" y2="0" gradientUnits="userSpaceOnUse" gradientTransform="matrix(1,-0,-0,-1,0,-0.015266)"><stop offset="0" style="stop-color:rgb(219,48,0);stop-opacity:1"/><stop offset="1" style="stop-color:rgb(73,219,0);stop-opacity:1"/></linearGradient>
<linearGradient xmlns="http://www.w3.org/2000/svg" id="_Linear76" x1="0" y1="0" x2="1" y2="0" gradientUnits="userSpaceOnUse" gradientTransform="matrix(1,0,0,-1,0,-0.013753)"><stop offset="0" style="stop-color:rgb(219,48,0);stop-opacity:1"/><stop offset="1" style="stop-color:rgb(73,219,0);stop-opacity:1"/></linearGradient>
<linearGradient xmlns="http://www.w3.org/2000/svg" id="_Linear77" x1="0" y1="0" x2="1" y2="0" gradientUnits="userSpaceOnUse" gradientTransform="matrix(1,-0,-0,-1,0,-0.013762)"><stop offset="0" style="stop-color:rgb(219,48,0);stop-opacity:1"/><stop offset="1" style="stop-color:rgb(73,219,0);stop-opacity:1"/></linearGradient>
<linearGradient xmlns="http://www.w3.org/2000/svg" id="_Linear78" x1="0" y1="0" x2="1" y2="0" gradientUnits="userSpaceOnUse" gradientTransform="matrix(1,0,0,-1,0,-0.013722)"><stop offset="0" style="stop-color:rgb(219,48,0);stop-opacity:1"/><stop offset="1" style="stop-color:rgb(73,219,0);stop-opacity:1"/></linearGradient>
<linearGradient xmlns="http://www.w3.org/2000/svg" id="_Linear79" x1="0" y1="0" x2="1" y2="0" gradientUnits="userSpaceOnUse" gradientTransform="matrix(1,-0,-0,-1,0,-0.013743)"><stop offset="0" style="stop-color:rgb(219,48,0);stop-opacity:1"/><stop offset="1" style="stop-color:rgb(73,219,0);stop-opacity:1"/></linearGradient>
<radialGradient xmlns="http://www.w3.org/2000/svg" id="_Radial80" cx="0" cy="0" r="1" gradientUnits="userSpaceOnUse" gradientTransform="matrix(1,0,0,-1,0,-0.505225)"><stop offset="0" style="stop-color:rgb(204,255,94);stop-opacity:1"/><stop offset="1" style="stop-color:rgb(115,220,255);stop-opacity:1"/></radialGradient>
<radialGradient xmlns="http://www.w3.org/2000/svg" id="_Radial81" cx="0" cy="0" r="1" gradientUnits="userSpaceOnUse" gradientTransform="matrix(1,0,0,-1,0,-0.531467)"><stop offset="0" style="stop-color:rgb(204,255,94);stop-opacity:1"/><stop offset="1" style="stop-color:rgb(115,220,255);stop-opacity:1"/></radialGradient>
<radialGradient xmlns="http://www.w3.org/2000/svg" id="_Radial82" cx="0" cy="0" r="1" gradientUnits="userSpaceOnUse" gradientTransform="matrix(1,0,0,-1,0,-0.519802)"><stop offset="0" style="stop-color:rgb(204,255,94);stop-opacity:1"/><stop offset="1" style="stop-color:rgb(115,220,255);stop-opacity:1"/></radialGradient>
<radialGradient xmlns="http://www.w3.org/2000/svg" id="_Radial83" cx="0" cy="0" r="1" gradientUnits="userSpaceOnUse" gradientTransform="matrix(1,0,0,-1,0,-0.519749)"><stop offset="0" style="stop-color:rgb(204,255,94);stop-opacity:1"/><stop offset="1" style="stop-color:rgb(115,220,255);stop-opacity:1"/></radialGradient>
<radialGradient xmlns="http://www.w3.org/2000/svg" id="_Radial84" cx="0" cy="0" r="1" gradientUnits="userSpaceOnUse" gradientTransform="matrix(1,0,0,-1,0,-0.519744)"><stop offset="0" style="stop-color:rgb(204,255,94);stop-opacity:1"/><stop offset="1" style="stop-color:rgb(115,220,255);stop-opacity:1"/></radialGradient>
</defs>
<g transform="matrix(4.166667,0,0,4.166667,0,0)">
<g transform="matrix(1,0,0,1,-11.56697,1.462939)">
<g xmlns="http://www.w3.org/2000/svg">
                        <g transform="matrix(-0.35671,0.934215,0.934215,0.35671,524.284961,304.396945)">
                            <path d="M-139.456,-59.953C-102.697,-76.932 -26.782,-122.017 27.509,-59.953" style="fill:none;fill-rule:nonzero;stroke:rgb(51,181,129);stroke-width:5.7px;"/>
                        </g>
                        <g transform="matrix(30.452541,28.814503,28.814503,-30.452541,426.499007,281.702604)">
                            <path d="M-0.28,0.06C-0.261,0.073 -0.24,0.084 -0.219,0.094C-0.239,0.09 -0.258,0.081 -0.274,0.066C-0.276,0.064 -0.278,0.062 -0.28,0.06ZM-0.102,0.071C-0.046,0.039 -0.007,-0.015 0.038,-0.062C0.083,-0.109 0.14,-0.151 0.204,-0.15C0.28,-0.148 0.341,-0.087 0.414,-0.066C0.487,-0.045 0.565,-0.066 0.636,-0.092C0.708,-0.118 0.78,-0.149 0.856,-0.148C0.927,-0.148 1.005,-0.109 1.028,-0.043C1.002,-0.045 0.952,-0.04 0.907,-0.027C0.828,-0.003 0.759,0.044 0.685,0.079C0.611,0.113 0.524,0.135 0.447,0.106C0.373,0.077 0.312,0.003 0.233,0.01C0.186,0.015 0.148,0.048 0.107,0.073C0.01,0.131 -0.115,0.138 -0.219,0.094C-0.18,0.101 -0.136,0.092 -0.102,0.071ZM1.028,-0.043C1.047,-0.042 1.052,-0.037 1.031,-0.031C1.03,-0.035 1.029,-0.039 1.028,-0.043Z" style="fill:url(#_Linear72);fill-rule:nonzero;"/>
                        </g>
                        <g transform="matrix(1.158268,41.908128,41.908128,-1.158268,459.60755,268.172403)">
                            <path d="M-0.219,0.094C-0.242,0.089 -0.264,0.078 -0.28,0.06C-0.261,0.073 -0.24,0.084 -0.219,0.094ZM-0.102,0.072C-0.046,0.039 -0.007,-0.015 0.038,-0.062C0.083,-0.109 0.14,-0.151 0.204,-0.15C0.28,-0.148 0.341,-0.087 0.414,-0.066C0.487,-0.045 0.565,-0.066 0.636,-0.092C0.708,-0.118 0.78,-0.149 0.856,-0.148C0.927,-0.148 1.005,-0.109 1.028,-0.043C1.002,-0.044 0.952,-0.04 0.907,-0.027C0.828,-0.003 0.759,0.044 0.685,0.079C0.611,0.113 0.524,0.135 0.447,0.106C0.373,0.077 0.312,0.003 0.233,0.01C0.186,0.015 0.148,0.048 0.107,0.073C0.01,0.131 -0.115,0.138 -0.219,0.094C-0.18,0.101 -0.136,0.092 -0.102,0.072ZM1.031,-0.031C1.03,-0.035 1.029,-0.039 1.028,-0.043C1.047,-0.042 1.052,-0.037 1.031,-0.031Z" style="fill:url(#_Linear73);fill-rule:nonzero;"/>
                        </g>
                        <g transform="matrix(-28.814503,30.452541,30.452541,28.814503,492.58879,282.01648)">
                            <path d="M-0.219,0.094C-0.242,0.089 -0.264,0.078 -0.28,0.06C-0.261,0.073 -0.24,0.084 -0.219,0.094ZM-0.102,0.071C-0.06,0.047 -0.027,0.01 0.005,-0.026C0.016,-0.038 0.027,-0.05 0.038,-0.062C0.083,-0.109 0.14,-0.151 0.204,-0.15C0.28,-0.148 0.341,-0.087 0.414,-0.066C0.487,-0.045 0.565,-0.066 0.636,-0.092C0.708,-0.118 0.78,-0.149 0.856,-0.148C0.927,-0.148 1.005,-0.109 1.028,-0.043C1.002,-0.045 0.952,-0.04 0.907,-0.027C0.828,-0.003 0.759,0.044 0.685,0.079C0.611,0.113 0.524,0.135 0.447,0.106C0.373,0.077 0.312,0.003 0.233,0.01C0.186,0.015 0.148,0.048 0.107,0.073C0.01,0.131 -0.115,0.138 -0.219,0.094C-0.18,0.101 -0.136,0.092 -0.102,0.071ZM1.031,-0.031C1.03,-0.035 1.029,-0.039 1.028,-0.043C1.047,-0.042 1.052,-0.037 1.031,-0.031Z" style="fill:url(#_Linear74);fill-rule:nonzero;"/>
                        </g>
                        <g transform="matrix(-41.908128,1.158268,1.158268,41.908128,506.121382,315.190008)">
                            <path d="M0.204,-0.151C0.28,-0.149 0.341,-0.088 0.414,-0.067C0.487,-0.046 0.565,-0.067 0.636,-0.093C0.708,-0.119 0.78,-0.15 0.856,-0.15C0.927,-0.149 1.005,-0.111 1.028,-0.044C1.002,-0.046 0.952,-0.042 0.907,-0.028C0.828,-0.005 0.759,0.042 0.685,0.077C0.611,0.112 0.524,0.134 0.447,0.104C0.373,0.076 0.312,0.001 0.233,0.009C0.186,0.013 0.148,0.047 0.107,0.071C0.01,0.13 -0.115,0.136 -0.219,0.092C-0.18,0.099 -0.136,0.09 -0.102,0.07C-0.046,0.037 -0.007,-0.017 0.038,-0.063C0.081,-0.108 0.135,-0.15 0.197,-0.151C0.2,-0.151 0.202,-0.151 0.204,-0.151ZM1.031,-0.033C1.03,-0.037 1.029,-0.041 1.028,-0.044C1.047,-0.043 1.052,-0.039 1.031,-0.033ZM-0.219,0.092C-0.242,0.088 -0.264,0.077 -0.28,0.058C-0.261,0.072 -0.24,0.083 -0.219,0.092Z" style="fill:url(#_Linear75);fill-rule:nonzero;"/>
                        </g>
                        <g transform="matrix(-30.452541,-28.814503,-28.814503,30.452541,492.27511,348.106304)">
                            <path d="M1.028,-0.043C1.002,-0.045 0.952,-0.04 0.907,-0.027C0.828,-0.003 0.759,0.044 0.685,0.079C0.611,0.113 0.524,0.135 0.447,0.106C0.373,0.077 0.312,0.003 0.233,0.01C0.186,0.015 0.148,0.048 0.107,0.073C0.01,0.131 -0.115,0.138 -0.219,0.094C-0.18,0.101 -0.136,0.092 -0.102,0.071C-0.046,0.039 -0.007,-0.015 0.038,-0.062C0.083,-0.109 0.14,-0.151 0.204,-0.15C0.28,-0.148 0.341,-0.087 0.414,-0.066C0.487,-0.045 0.565,-0.066 0.636,-0.092C0.708,-0.118 0.78,-0.149 0.856,-0.148C0.905,-0.148 0.957,-0.13 0.992,-0.096C1.008,-0.081 1.02,-0.064 1.028,-0.043ZM1.031,-0.031C1.03,-0.035 1.029,-0.039 1.028,-0.043C1.036,-0.042 1.042,-0.041 1.044,-0.039C1.046,-0.037 1.042,-0.034 1.031,-0.031ZM-0.28,0.06C-0.261,0.073 -0.24,0.084 -0.219,0.094C-0.242,0.089 -0.264,0.078 -0.28,0.06Z" style="fill:url(#_Linear76);fill-rule:nonzero;"/>
                        </g>
                        <g transform="matrix(-1.158268,-41.908128,-41.908128,1.158268,459.164987,361.636242)">
                            <path d="M1.031,-0.031C1.03,-0.035 1.029,-0.039 1.028,-0.043C1.038,-0.042 1.044,-0.041 1.044,-0.038C1.044,-0.036 1.04,-0.034 1.031,-0.031ZM0.907,-0.027C0.828,-0.003 0.759,0.044 0.685,0.079C0.611,0.113 0.524,0.135 0.447,0.106C0.373,0.077 0.312,0.003 0.233,0.01C0.186,0.015 0.148,0.048 0.107,0.073C0.01,0.131 -0.115,0.138 -0.219,0.094C-0.18,0.101 -0.136,0.092 -0.102,0.071C-0.046,0.039 -0.007,-0.015 0.038,-0.062C0.083,-0.109 0.14,-0.151 0.204,-0.15C0.28,-0.148 0.341,-0.087 0.414,-0.066C0.487,-0.045 0.565,-0.066 0.636,-0.092C0.708,-0.118 0.78,-0.149 0.856,-0.148C0.927,-0.148 1.005,-0.109 1.028,-0.043C1.002,-0.045 0.952,-0.04 0.907,-0.027ZM-0.28,0.06C-0.261,0.073 -0.24,0.084 -0.219,0.094C-0.242,0.089 -0.264,0.078 -0.28,0.06Z" style="fill:url(#_Linear77);fill-rule:nonzero;"/>
                        </g>
                        <g transform="matrix(28.814503,-30.452541,-30.452541,-28.814503,426.186616,347.793567)">
                            <path d="M1.031,-0.031C1.03,-0.035 1.029,-0.039 1.028,-0.043C1.04,-0.042 1.047,-0.04 1.044,-0.037C1.042,-0.035 1.038,-0.033 1.031,-0.031ZM0.907,-0.027C0.828,-0.003 0.759,0.044 0.685,0.079C0.611,0.113 0.524,0.135 0.447,0.106C0.373,0.077 0.312,0.003 0.233,0.01C0.186,0.015 0.148,0.048 0.107,0.073C0.01,0.131 -0.115,0.138 -0.219,0.094C-0.18,0.101 -0.136,0.092 -0.102,0.071C-0.06,0.047 -0.027,0.01 0.005,-0.026C0.016,-0.038 0.027,-0.05 0.038,-0.062C0.083,-0.109 0.14,-0.151 0.204,-0.15C0.28,-0.148 0.341,-0.087 0.414,-0.066C0.487,-0.045 0.565,-0.066 0.636,-0.092C0.708,-0.118 0.78,-0.149 0.856,-0.148C0.927,-0.148 1.005,-0.109 1.028,-0.043C1.002,-0.044 0.952,-0.04 0.907,-0.027ZM-0.28,0.06C-0.261,0.073 -0.24,0.084 -0.219,0.094C-0.242,0.089 -0.264,0.078 -0.28,0.06Z" style="fill:url(#_Linear78);fill-rule:nonzero;"/>
                        </g>
                        <g transform="matrix(41.908128,-1.158268,-1.158268,-41.908128,412.654796,314.682896)">
                            <path d="M0.447,0.106C0.373,0.077 0.312,0.003 0.233,0.01C0.186,0.015 0.148,0.048 0.107,0.073C0.01,0.131 -0.115,0.138 -0.219,0.094C-0.18,0.101 -0.136,0.092 -0.102,0.071C-0.046,0.039 -0.007,-0.015 0.038,-0.062C0.083,-0.109 0.14,-0.151 0.204,-0.15C0.28,-0.148 0.341,-0.087 0.414,-0.066C0.487,-0.045 0.565,-0.066 0.636,-0.092C0.708,-0.118 0.78,-0.149 0.856,-0.148C0.927,-0.148 1.005,-0.109 1.028,-0.043C1.002,-0.045 0.952,-0.04 0.907,-0.027C0.828,-0.003 0.759,0.044 0.685,0.079C0.637,0.101 0.584,0.118 0.532,0.119C0.503,0.12 0.474,0.116 0.447,0.106ZM-0.28,0.06C-0.261,0.073 -0.24,0.084 -0.219,0.094C-0.242,0.089 -0.264,0.078 -0.28,0.06ZM1.028,-0.043C1.047,-0.042 1.052,-0.037 1.031,-0.031C1.03,-0.035 1.029,-0.039 1.028,-0.043Z" style="fill:url(#_Linear79);fill-rule:nonzero;"/>
                        </g>
                        <g transform="matrix(0.460445,-0.887688,-0.887688,-0.460445,466.761296,309.709238)">
                            <path d="M-8.007,-4.867C-12.989,-4.866 -17.028,-0.828 -17.028,4.154C-17.028,9.136 -12.988,13.174 -8.007,13.175C-3.026,13.174 1.014,9.136 1.013,4.154C1.014,-0.829 -3.026,-4.867 -8.007,-4.867" style="fill:rgb(255,15,171);fill-rule:nonzero;"/>
                        </g>
                        <g transform="matrix(7.900609,8.99559,8.99559,-7.900609,475.812952,299.345981)">
                            <path d="M-0.162,0.972C-0.176,0.711 -0.062,0.446 0.137,0.276C0.204,0.218 0.282,0.169 0.358,0.12C0.375,0.122 0.392,0.126 0.409,0.13C0.57,0.175 0.682,0.332 0.716,0.497C0.749,0.661 0.716,0.832 0.669,0.993C0.609,1.201 0.489,1.433 0.274,1.457C0.158,1.471 0.057,1.416 -0.019,1.33C-0.103,1.235 -0.156,1.1 -0.162,0.972ZM-0.657,-0.256C-0.824,-0.587 -0.706,-1.005 -0.469,-1.29C-0.341,-1.443 -0.185,-1.566 -0.017,-1.674C-0.029,-1.598 -0.018,-1.515 0.012,-1.443C0.105,-1.216 0.31,-1.058 0.475,-0.876C0.64,-0.695 0.775,-0.439 0.686,-0.211C0.628,-0.062 0.495,0.03 0.358,0.12C0.241,0.104 0.119,0.136 -0,0.139C-0.211,0.143 -0.421,0.046 -0.56,-0.112C-0.598,-0.156 -0.631,-0.204 -0.657,-0.256ZM0.432,-1.93C0.281,-1.849 0.127,-1.767 -0.017,-1.674C0.009,-1.838 0.142,-1.976 0.432,-1.93Z" style="fill:url(#_Radial80);fill-rule:nonzero;"/>
                        </g>
                        <g transform="matrix(1,0,0,1,461.8677,287.8945)">
                            <path d="M0,30.586C-1.021,26.265 -2.048,21.811 -1.361,17.424C-0.674,13.036 2.154,8.678 6.454,7.565C9.576,6.756 13.117,7.887 15.192,10.356C16.248,11.611 16.975,13.198 18.346,14.098C20.026,15.2 22.327,14.964 24.067,13.963C25.809,12.962 27.082,11.318 28.165,9.627C29.559,7.448 30.695,4.525 29.219,2.4C27.553,0 23.701,0.498 21.408,2.311C18.95,4.254 17.465,7.373 17.509,10.506C17.551,13.478 18.838,16.648 17.468,19.284C16.113,21.893 12.752,22.695 9.814,22.648C6.876,22.6 3.841,22.006 1.061,22.956C-1.72,23.907 -3.966,27.296 0,30.586Z" style="fill:none;fill-rule:nonzero;stroke:rgb(189,148,143);stroke-width:1.9px;"/>
                        </g>
                        <g transform="matrix(-6.113891,10.293716,10.293716,6.113891,479.529914,325.879114)">
                            <path d="M-0.469,-1.316C-0.341,-1.469 -0.185,-1.592 -0.017,-1.7C-0.029,-1.624 -0.018,-1.541 0.012,-1.469C0.105,-1.242 0.31,-1.084 0.475,-0.903C0.64,-0.721 0.775,-0.466 0.686,-0.237C0.628,-0.088 0.495,0.004 0.358,0.094C0.241,0.078 0.119,0.11 -0,0.112C-0.269,0.118 -0.536,-0.042 -0.657,-0.282C-0.796,-0.557 -0.738,-0.892 -0.578,-1.161C-0.546,-1.216 -0.509,-1.268 -0.469,-1.316ZM0.432,-1.956C0.281,-1.876 0.128,-1.794 -0.017,-1.7C-0.01,-1.742 0.003,-1.782 0.024,-1.817C0.087,-1.922 0.216,-1.99 0.432,-1.956ZM0.137,0.25C0.204,0.192 0.282,0.143 0.358,0.094C0.375,0.096 0.392,0.099 0.409,0.104C0.57,0.149 0.682,0.306 0.716,0.471C0.749,0.635 0.716,0.805 0.669,0.967C0.609,1.174 0.489,1.407 0.274,1.431C0.031,1.459 -0.15,1.19 -0.162,0.946C-0.171,0.777 -0.127,0.606 -0.04,0.461C0.007,0.382 0.067,0.31 0.137,0.25Z" style="fill:url(#_Radial81);fill-rule:nonzero;"/>
                        </g>
                        <g transform="matrix(1,0,0,1,456.752,333.4437)">
                            <path d="M0,-15.075C3.795,-17.381 7.713,-19.735 12.099,-20.437C16.483,-21.139 21.502,-19.796 23.89,-16.052C25.623,-13.331 25.643,-9.615 23.936,-6.878C23.066,-5.486 21.783,-4.304 21.351,-2.721C20.822,-0.783 21.757,1.332 23.247,2.678C24.737,4.025 26.693,4.728 28.638,5.234C31.141,5.888 34.271,6.064 35.836,4.005C37.604,1.678 35.939,-1.832 33.508,-3.452C30.9,-5.19 27.475,-5.637 24.508,-4.627C21.695,-3.67 19.077,-1.466 16.146,-1.954C13.248,-2.437 11.445,-5.385 10.583,-8.195C9.721,-11.003 9.348,-14.074 7.584,-16.424C5.82,-18.775 1.904,-19.864 0,-15.075Z" style="fill:none;fill-rule:nonzero;stroke:rgb(189,148,143);stroke-width:1.9px;"/>
                        </g>
                        <g transform="matrix(-11.679202,-2.633723,-2.633723,11.679202,455.204717,337.315985)">
                            <path d="M-0.017,-1.689C0.009,-1.853 0.143,-1.99 0.432,-1.944C0.281,-1.864 0.127,-1.782 -0.017,-1.689ZM0.012,-1.457C0.105,-1.23 0.31,-1.073 0.475,-0.891C0.64,-0.709 0.775,-0.454 0.686,-0.225C0.628,-0.076 0.495,0.016 0.358,0.105C0.241,0.089 0.12,0.121 -0,0.124C-0.269,0.13 -0.536,-0.03 -0.657,-0.27C-0.824,-0.602 -0.706,-1.019 -0.469,-1.304C-0.341,-1.457 -0.185,-1.581 -0.017,-1.689C-0.029,-1.612 -0.018,-1.53 0.012,-1.457ZM0.409,0.116C0.57,0.16 0.682,0.318 0.716,0.482C0.749,0.647 0.716,0.817 0.669,0.978C0.609,1.186 0.489,1.418 0.274,1.443C0.031,1.471 -0.15,1.201 -0.162,0.958C-0.176,0.696 -0.062,0.431 0.137,0.261C0.204,0.204 0.282,0.155 0.358,0.105C0.369,0.107 0.38,0.109 0.391,0.111C0.397,0.113 0.403,0.114 0.409,0.116Z" style="fill:url(#_Radial82);fill-rule:nonzero;"/>
                        </g>
                        <g transform="matrix(1,0,0,1,455.2778,354.4083)">
                            <path d="M0,-40.94C3.366,-38.044 6.815,-35.044 8.838,-31.091C10.861,-27.138 11.134,-21.949 8.311,-18.522C6.26,-16.032 2.73,-14.866 -0.399,-15.644C-1.992,-16.039 -3.512,-16.895 -5.151,-16.817C-7.157,-16.721 -8.88,-15.178 -9.7,-13.345C-10.521,-11.511 -10.584,-9.433 -10.466,-7.428C-10.313,-4.846 -9.514,-1.814 -7.072,-0.962C-4.313,0 -1.489,-2.667 -0.699,-5.481C0.147,-8.498 -0.485,-11.894 -2.363,-14.403C-4.143,-16.782 -7.048,-18.591 -7.489,-21.529C-7.925,-24.435 -5.679,-27.06 -3.273,-28.749C-0.869,-30.437 1.936,-31.74 3.627,-34.144C5.317,-36.547 5.143,-40.609 0,-40.94Z" style="fill:none;fill-rule:nonzero;stroke:rgb(189,148,143);stroke-width:1.9px;"/>
                        </g>
                        <g transform="matrix(-1.104252,-11.921447,-11.921447,1.104252,436.780948,317.852159)">
                            <path d="M0.686,-0.225C0.628,-0.076 0.495,0.016 0.358,0.105C0.241,0.089 0.12,0.122 0,0.124C-0.269,0.13 -0.535,-0.03 -0.657,-0.27C-0.824,-0.602 -0.706,-1.019 -0.469,-1.304C-0.341,-1.457 -0.185,-1.581 -0.017,-1.689C-0.029,-1.612 -0.018,-1.53 0.012,-1.457C0.105,-1.23 0.31,-1.073 0.475,-0.891C0.593,-0.76 0.696,-0.592 0.712,-0.423C0.718,-0.356 0.711,-0.29 0.686,-0.225ZM0.669,0.978C0.609,1.186 0.489,1.418 0.274,1.443C0.031,1.471 -0.15,1.201 -0.162,0.958C-0.176,0.696 -0.062,0.431 0.137,0.261C0.204,0.204 0.282,0.155 0.358,0.105C0.375,0.108 0.392,0.111 0.409,0.116C0.57,0.16 0.682,0.318 0.716,0.482C0.72,0.506 0.724,0.529 0.726,0.553C0.739,0.695 0.709,0.84 0.669,0.978ZM-0.017,-1.689C0.009,-1.853 0.143,-1.99 0.432,-1.944C0.281,-1.864 0.127,-1.782 -0.017,-1.689Z" style="fill:url(#_Radial83);fill-rule:nonzero;"/>
                        </g>
                        <g transform="matrix(1,0,0,1,459.4834,324.5727)">
                            <path d="M0,-14.02C-1.715,-9.924 -3.501,-5.716 -6.636,-2.571C-9.771,0.575 -14.621,2.438 -18.753,0.812C-21.754,-0.37 -23.955,-3.367 -24.182,-6.583C-24.298,-8.22 -23.953,-9.93 -24.534,-11.464C-25.245,-13.343 -27.246,-14.505 -29.242,-14.718C-31.239,-14.932 -33.235,-14.35 -35.105,-13.619C-37.515,-12.675 -40.151,-10.978 -40.207,-8.392C-40.27,-5.471 -36.86,-3.609 -33.94,-3.728C-30.809,-3.855 -27.775,-5.506 -25.968,-8.067C-24.256,-10.495 -23.433,-13.817 -20.775,-15.144C-18.146,-16.458 -14.955,-15.132 -12.606,-13.367C-10.257,-11.601 -8.151,-9.335 -5.343,-8.47C-2.534,-7.606 1.274,-9.027 0,-14.02Z" style="fill:none;fill-rule:nonzero;stroke:rgb(189,148,143);stroke-width:1.9px;"/>
                        </g>
                        <g transform="matrix(10.996737,-4.734136,-4.734136,-10.996737,449.597621,294.315077)">
                            <path d="M0.274,1.443C0.031,1.471 -0.15,1.201 -0.162,0.958C-0.176,0.696 -0.062,0.431 0.137,0.261C0.204,0.204 0.282,0.155 0.358,0.105C0.375,0.108 0.392,0.111 0.409,0.116C0.57,0.16 0.682,0.318 0.716,0.482C0.749,0.647 0.716,0.817 0.669,0.978C0.618,1.155 0.523,1.35 0.363,1.419C0.335,1.431 0.306,1.439 0.274,1.443ZM0,0.124C-0.269,0.13 -0.536,-0.03 -0.657,-0.27C-0.824,-0.602 -0.706,-1.019 -0.469,-1.304C-0.341,-1.457 -0.185,-1.581 -0.017,-1.689C-0.029,-1.612 -0.018,-1.53 0.012,-1.457C0.105,-1.23 0.31,-1.073 0.475,-0.891C0.64,-0.709 0.775,-0.454 0.686,-0.225C0.628,-0.076 0.495,0.016 0.358,0.105C0.241,0.089 0.119,0.122 0,0.124ZM0.432,-1.944C0.281,-1.864 0.127,-1.782 -0.017,-1.689C0.009,-1.853 0.143,-1.99 0.432,-1.944Z" style="fill:url(#_Radial84);fill-rule:nonzero;"/>
                        </g>
                        <g transform="matrix(1,0,0,1,463.5547,279.1589)">
                            <path d="M0,34.492C-4.425,34.127 -8.979,33.728 -12.939,31.719C-16.898,29.709 -20.17,25.673 -19.9,21.24C-19.704,18.021 -17.534,15.002 -14.545,13.792C-13.024,13.176 -11.291,12.975 -10.011,11.948C-8.444,10.692 -7.957,8.43 -8.371,6.465C-8.785,4.499 -9.955,2.781 -11.229,1.228C-12.871,-0.771 -15.3,-2.754 -17.776,-2.008C-20.574,-1.165 -21.291,2.653 -20.275,5.393C-19.187,8.332 -16.68,10.707 -13.686,11.634C-10.848,12.513 -7.434,12.268 -5.35,14.386C-3.289,16.48 -3.563,19.925 -4.517,22.704C-5.47,25.484 -6.973,28.187 -6.928,31.125C-6.883,34.064 -4.354,37.246 0,34.492Z" style="fill:none;fill-rule:nonzero;stroke:rgb(189,148,143);stroke-width:1.9px;"/>
                        </g>
                    </g>
</g>
</g>
</svg>
