<svg xmlns="http://www.w3.org/2000/svg" viewBox="4147.609207768711 3302.0050109537137 395.19961302930005 479.18086974779953">
<g transform="matrix(4.166667,0,0,4.166667,0,0)">
<g transform="matrix(1,0,0,1,-11.56697,1.462939)">
<g xmlns="http://www.w3.org/2000/svg">
                        <g transform="matrix(1,0,0,1,1098.9609,877.2612)">
                            <path d="M0,-83.363C-12.819,-76.148 -24.812,-67.469 -35.672,-57.547C-39.307,-54.226 -42.992,-50.454 -43.939,-45.622C-45.256,-38.906 -40.949,-32.47 -39.818,-25.722C-38.737,-19.27 -40.762,-12.369 -45.159,-7.526C-49.555,-2.682 -56.228,0 -62.754,-0.454" style="fill:none;fill-rule:nonzero;stroke:rgb(51,181,129);stroke-width:2.2px;"/>
                        </g>
                        <g transform="matrix(0,1,1,0,1036.2072,871.1126)">
                            <path d="M5.695,-5.695C2.55,-5.695 0,-3.145 0,-0C0,3.145 2.55,5.695 5.695,5.695C8.84,5.695 11.39,3.145 11.39,-0C11.39,-3.145 8.84,-5.695 5.695,-5.695" style="fill:rgb(0,123,255);fill-rule:nonzero;"/>
                        </g>
                        <g transform="matrix(0,1,1,0,1036.2072,871.1126)">
                            <circle cx="5.695" cy="0" r="5.695" style="fill:none;stroke:rgb(181,51,135);stroke-width:0.88px;"/>
                        </g>
                        <g transform="matrix(1,0,0,1,1059.8079,839.1818)">
                            <path d="M0,-15.6C1.415,-14.719 2.83,-13.768 3.842,-12.443C4.854,-11.117 5.411,-9.34 4.907,-7.751C4.403,-6.16 2.924,-4.937 2.746,-3.278C2.569,-1.629 3.917,-0.024 5.55,0.271C7.182,0.566 8.906,-0.337 9.773,-1.751C10.714,-3.286 10.701,-5.274 10.068,-6.96C9.436,-8.646 8.251,-10.069 6.951,-11.315C4.78,-13.397 2.219,-15.084 -0.586,-16.166C-0.536,-15.93 -0.421,-15.862 0,-15.6" style="fill:rgb(51,181,129);fill-rule:nonzero;"/>
                        </g>
                        <g transform="matrix(1,0,0,1,1062.8374,824.5803)">
                            <path d="M0,-4.988C-1.6,-5.457 -3.252,-5.878 -4.914,-5.75C-6.577,-5.621 -8.273,-4.853 -9.123,-3.418C-9.973,-1.983 -9.9,-0.065 -11.019,1.173C-12.131,2.404 -14.226,2.468 -15.533,1.447C-16.84,0.426 -17.316,-1.461 -16.839,-3.05C-16.321,-4.775 -14.83,-6.089 -13.151,-6.741C-11.472,-7.392 -9.621,-7.456 -7.826,-7.317C-4.828,-7.084 -1.864,-6.299 0.813,-4.928C0.604,-4.808 0.476,-4.849 0,-4.988" style="fill:rgb(51,181,129);fill-rule:nonzero;"/>
                        </g>
                        <g transform="matrix(1,0,0,1,1048.9121,887.1569)">
                            <path d="M0,-2.132C1.402,-1.317 2.253,0.36 2.081,1.974C1.91,3.587 0.725,5.048 -0.818,5.549C-2.683,6.155 -4.853,5.32 -6.024,3.748C-7.195,2.176 -7.413,0.008 -6.811,-1.858C-6.404,-3.115 -5.646,-4.336 -5.796,-5.649C-5.953,-7.026 -7.229,-8.169 -8.613,-8.228C-9.998,-8.287 -11.344,-7.297 -11.751,-5.972C-12.158,-4.647 -11.631,-3.104 -10.53,-2.261C-8.877,-0.994 -6.544,-1.392 -4.497,-1.777C-2.45,-2.161 -0.033,-2.363 0,-2.132Z" style="fill:rgb(224,255,48);fill-rule:nonzero;stroke:rgb(181,51,135);stroke-width:1.1px;"/>
                        </g>
                        <g transform="matrix(1,0,0,1,1039.3813,885.5186)">
                            <path d="M0,6.083C0.415,7.651 -0.17,9.438 -1.433,10.458C-2.694,11.479 -4.565,11.673 -6.011,10.937C-7.757,10.047 -8.701,7.921 -8.418,5.981C-8.134,4.042 -6.755,2.354 -5.01,1.462C-3.833,0.859 -2.434,0.533 -1.612,-0.501C-0.75,-1.587 -0.844,-3.296 -1.781,-4.317C-2.718,-5.339 -4.37,-5.59 -5.595,-4.94C-6.819,-4.292 -7.538,-2.828 -7.355,-1.454C-7.082,0.61 -5.151,1.979 -3.432,3.155C-1.712,4.33 0.139,5.896 0,6.083Z" style="fill:rgb(224,255,48);fill-rule:nonzero;stroke:rgb(181,51,135);stroke-width:1.1px;"/>
                        </g>
                        <g transform="matrix(1,0,0,1,1027.9897,879.6077)">
                            <path d="M0,9.905C-0.815,11.307 -2.492,12.158 -4.106,11.986C-5.719,11.815 -7.18,10.63 -7.681,9.087C-8.287,7.222 -7.452,5.052 -5.88,3.881C-4.308,2.71 -2.14,2.492 -0.274,3.094C0.983,3.501 2.204,4.259 3.517,4.109C4.894,3.952 6.037,2.676 6.096,1.292C6.155,-0.093 5.165,-1.439 3.84,-1.846C2.515,-2.253 0.972,-1.726 0.129,-0.625C-1.138,1.028 -0.74,3.361 -0.355,5.408C0.029,7.455 0.231,9.872 0,9.905Z" style="fill:rgb(224,255,48);fill-rule:nonzero;stroke:rgb(181,51,135);stroke-width:1.1px;"/>
                        </g>
                        <g transform="matrix(1,0,0,1,1021.4131,871.6959)">
                            <path d="M0,8.286C-1.568,8.701 -3.355,8.116 -4.375,6.853C-5.396,5.592 -5.59,3.721 -4.854,2.275C-3.964,0.529 -1.838,-0.415 0.102,-0.132C2.041,0.152 3.729,1.531 4.621,3.276C5.224,4.453 5.55,5.852 6.584,6.674C7.67,7.536 9.379,7.442 10.4,6.505C11.422,5.568 11.673,3.916 11.023,2.691C10.375,1.467 8.911,0.748 7.537,0.931C5.473,1.204 4.104,3.135 2.928,4.854C1.753,6.574 0.187,8.425 0,8.286Z" style="fill:rgb(224,255,48);fill-rule:nonzero;stroke:rgb(181,51,135);stroke-width:1.1px;"/>
                        </g>
                        <g transform="matrix(1,0,0,1,1023.502,866.4583)">
                            <path d="M0,2.132C-1.402,1.317 -2.253,-0.36 -2.081,-1.974C-1.91,-3.587 -0.725,-5.048 0.818,-5.549C2.683,-6.155 4.853,-5.32 6.024,-3.748C7.195,-2.176 7.413,-0.008 6.811,1.858C6.404,3.115 5.646,4.336 5.796,5.649C5.953,7.026 7.229,8.169 8.613,8.228C9.998,8.287 11.344,7.297 11.751,5.972C12.158,4.647 11.631,3.104 10.53,2.261C8.877,0.994 6.544,1.392 4.497,1.777C2.45,2.161 0.033,2.363 0,2.132Z" style="fill:rgb(224,255,48);fill-rule:nonzero;stroke:rgb(181,51,135);stroke-width:1.1px;"/>
                        </g>
                        <g transform="matrix(1,0,0,1,1033.0332,868.0967)">
                            <path d="M0,-6.083C-0.415,-7.651 0.17,-9.438 1.433,-10.458C2.694,-11.479 4.565,-11.673 6.011,-10.937C7.757,-10.047 8.701,-7.921 8.418,-5.981C8.134,-4.042 6.755,-2.354 5.01,-1.462C3.833,-0.859 2.434,-0.533 1.612,0.501C0.75,1.587 0.844,3.296 1.781,4.317C2.718,5.339 4.37,5.59 5.595,4.94C6.819,4.292 7.538,2.828 7.355,1.454C7.082,-0.61 5.151,-1.979 3.432,-3.155C1.712,-4.33 -0.139,-5.896 0,-6.083Z" style="fill:rgb(224,255,48);fill-rule:nonzero;stroke:rgb(181,51,135);stroke-width:1.1px;"/>
                        </g>
                        <g transform="matrix(1,0,0,1,1044.4243,874.0075)">
                            <path d="M0,-9.905C0.815,-11.307 2.492,-12.158 4.106,-11.986C5.719,-11.815 7.18,-10.63 7.681,-9.087C8.287,-7.222 7.452,-5.052 5.88,-3.881C4.308,-2.71 2.14,-2.492 0.274,-3.094C-0.983,-3.501 -2.204,-4.259 -3.517,-4.109C-4.894,-3.952 -6.037,-2.676 -6.096,-1.292C-6.155,0.093 -5.165,1.439 -3.84,1.846C-2.515,2.253 -0.972,1.726 -0.129,0.625C1.138,-1.028 0.74,-3.361 0.355,-5.408C-0.029,-7.455 -0.231,-9.872 0,-9.905Z" style="fill:rgb(224,255,48);fill-rule:nonzero;stroke:rgb(181,51,135);stroke-width:1.1px;"/>
                        </g>
                        <g transform="matrix(1,0,0,1,1051.002,881.9198)">
                            <path d="M0,-8.286C1.568,-8.701 3.355,-8.116 4.375,-6.853C5.396,-5.592 5.59,-3.721 4.854,-2.275C3.964,-0.529 1.838,0.415 -0.102,0.132C-2.041,-0.152 -3.729,-1.531 -4.621,-3.276C-5.224,-4.453 -5.55,-5.852 -6.584,-6.674C-7.67,-7.536 -9.379,-7.442 -10.4,-6.505C-11.422,-5.568 -11.673,-3.916 -11.023,-2.691C-10.375,-1.467 -8.911,-0.748 -7.537,-0.931C-5.473,-1.204 -4.104,-3.135 -2.928,-4.854C-1.753,-6.574 -0.187,-8.425 0,-8.286Z" style="fill:rgb(224,255,48);fill-rule:nonzero;stroke:rgb(181,51,135);stroke-width:1.1px;"/>
                        </g>
                        <g transform="matrix(1,0,0,1,1061.752,883.2997)">
                            <path d="M0,-0.685C0.789,1.378 0.255,3.881 -1.307,5.442C-3.193,7.329 -6.341,7.658 -8.732,6.475C-11.124,5.293 -12.728,2.797 -13.15,0.163C-13.455,-1.739 -13.243,-3.838 -14.491,-5.372C-14.709,-5.641 -14.987,-5.863 -15.283,-6.04C-19.127,-8.343 -22.215,-4.823 -21.684,-1.773C-21.359,0.085 -19.766,1.63 -17.91,1.973C-15.123,2.487 -12.178,0.951 -10.294,-1.168C-4.002,-8.248 -1.299,-4.082 0,-0.685" style="fill:rgb(51,181,129);fill-rule:nonzero;"/>
                        </g>
                        <g transform="matrix(1,0,0,1,1061.752,883.2997)">
                            <path d="M0,-0.685C0.789,1.378 0.255,3.881 -1.307,5.442C-3.193,7.329 -6.341,7.658 -8.732,6.475C-11.124,5.293 -12.728,2.797 -13.15,0.163C-13.455,-1.739 -13.243,-3.838 -14.491,-5.372C-14.709,-5.641 -14.987,-5.863 -15.283,-6.04C-19.127,-8.343 -22.215,-4.823 -21.684,-1.773C-21.359,0.085 -19.766,1.63 -17.91,1.973C-15.123,2.487 -12.178,0.951 -10.294,-1.168C-4.002,-8.248 -1.299,-4.082 0,-0.685Z" style="fill:none;fill-rule:nonzero;stroke:rgb(181,51,135);stroke-width:0.88px;"/>
                        </g>
                        <g transform="matrix(1,0,0,1,1050.1646,883.4476)">
                            <path d="M0,15.529C-0.901,17.547 -3.049,18.939 -5.257,18.938C-7.925,18.938 -10.383,16.945 -11.238,14.418C-12.093,11.89 -11.462,8.992 -9.898,6.83C-8.769,5.27 -7.135,3.935 -6.933,1.968C-6.897,1.625 -6.937,1.271 -7.021,0.935C-8.11,-3.41 -12.782,-3.106 -14.563,-0.573C-15.648,0.97 -15.614,3.19 -14.544,4.744C-12.937,7.079 -9.768,8.075 -6.938,7.909C2.518,7.351 1.484,12.209 0,15.529" style="fill:rgb(51,181,129);fill-rule:nonzero;"/>
                        </g>
                        <g transform="matrix(1,0,0,1,1050.1646,883.4476)">
                            <path d="M0,15.529C-0.901,17.547 -3.049,18.939 -5.257,18.938C-7.925,18.938 -10.383,16.945 -11.238,14.418C-12.093,11.89 -11.462,8.992 -9.898,6.83C-8.769,5.27 -7.135,3.935 -6.933,1.968C-6.897,1.625 -6.937,1.271 -7.021,0.935C-8.11,-3.41 -12.782,-3.106 -14.563,-0.573C-15.648,0.97 -15.614,3.19 -14.544,4.744C-12.937,7.079 -9.768,8.075 -6.938,7.909C2.518,7.351 1.484,12.209 0,15.529Z" style="fill:none;fill-rule:nonzero;stroke:rgb(181,51,135);stroke-width:0.88px;"/>
                        </g>
                        <g transform="matrix(1,0,0,1,1030.3999,880.9265)">
                            <path d="M0,21.426C-2.063,22.215 -4.566,21.681 -6.127,20.119C-8.014,18.233 -8.343,15.085 -7.16,12.694C-5.978,10.302 -3.482,8.698 -0.848,8.276C1.054,7.971 3.153,8.183 4.687,6.935C4.956,6.717 5.178,6.439 5.355,6.143C7.658,2.299 4.138,-0.789 1.088,-0.258C-0.77,0.067 -2.315,1.66 -2.658,3.516C-3.172,6.303 -1.636,9.248 0.483,11.132C7.563,17.424 3.397,20.127 0,21.426" style="fill:rgb(51,181,129);fill-rule:nonzero;"/>
                        </g>
                        <g transform="matrix(1,0,0,1,1030.3999,880.9265)">
                            <path d="M0,21.426C-2.063,22.215 -4.566,21.681 -6.127,20.119C-8.014,18.233 -8.343,15.085 -7.16,12.694C-5.978,10.302 -3.482,8.698 -0.848,8.276C1.054,7.971 3.153,8.183 4.687,6.935C4.956,6.717 5.178,6.439 5.355,6.143C7.658,2.299 4.138,-0.789 1.088,-0.258C-0.77,0.067 -2.315,1.66 -2.658,3.516C-3.172,6.303 -1.636,9.248 0.483,11.132C7.563,17.424 3.397,20.127 0,21.426Z" style="fill:none;fill-rule:nonzero;stroke:rgb(181,51,135);stroke-width:0.88px;"/>
                        </g>
                        <g transform="matrix(1,0,0,1,1014.0381,877.6351)">
                            <path d="M0,13.13C-2.018,12.229 -3.41,10.081 -3.409,7.873C-3.409,5.205 -1.416,2.747 1.111,1.892C3.639,1.037 6.537,1.668 8.699,3.232C10.259,4.361 11.594,5.995 13.561,6.197C13.904,6.233 14.258,6.193 14.594,6.109C18.939,5.02 18.635,0.348 16.102,-1.433C14.559,-2.518 12.339,-2.484 10.785,-1.414C8.45,0.193 7.454,3.362 7.62,6.192C8.178,15.648 3.32,14.614 0,13.13" style="fill:rgb(51,181,129);fill-rule:nonzero;"/>
                        </g>
                        <g transform="matrix(1,0,0,1,1014.0381,877.6351)">
                            <path d="M0,13.13C-2.018,12.229 -3.41,10.081 -3.409,7.873C-3.409,5.205 -1.416,2.747 1.111,1.892C3.639,1.037 6.537,1.668 8.699,3.232C10.259,4.361 11.594,5.995 13.561,6.197C13.904,6.233 14.258,6.193 14.594,6.109C18.939,5.02 18.635,0.348 16.102,-1.433C14.559,-2.518 12.339,-2.484 10.785,-1.414C8.45,0.193 7.454,3.362 7.62,6.192C8.178,15.648 3.32,14.614 0,13.13Z" style="fill:none;fill-rule:nonzero;stroke:rgb(181,51,135);stroke-width:0.88px;"/>
                        </g>
                        <g transform="matrix(1,0,0,1,1010.6621,870.3155)">
                            <path d="M0,0.685C-0.789,-1.378 -0.255,-3.881 1.307,-5.442C3.193,-7.329 6.341,-7.658 8.732,-6.475C11.124,-5.293 12.728,-2.797 13.15,-0.163C13.455,1.739 13.243,3.838 14.491,5.372C14.709,5.641 14.987,5.863 15.283,6.04C19.127,8.343 22.215,4.823 21.684,1.773C21.359,-0.085 19.766,-1.63 17.91,-1.973C15.123,-2.487 12.178,-0.951 10.294,1.168C4.002,8.248 1.299,4.082 0,0.685" style="fill:rgb(51,181,129);fill-rule:nonzero;"/>
                        </g>
                        <g transform="matrix(1,0,0,1,1010.6621,870.3155)">
                            <path d="M0,0.685C-0.789,-1.378 -0.255,-3.881 1.307,-5.442C3.193,-7.329 6.341,-7.658 8.732,-6.475C11.124,-5.293 12.728,-2.797 13.15,-0.163C13.455,1.739 13.243,3.838 14.491,5.372C14.709,5.641 14.987,5.863 15.283,6.04C19.127,8.343 22.215,4.823 21.684,1.773C21.359,-0.085 19.766,-1.63 17.91,-1.973C15.123,-2.487 12.178,-0.951 10.294,1.168C4.002,8.248 1.299,4.082 0,0.685Z" style="fill:none;fill-rule:nonzero;stroke:rgb(181,51,135);stroke-width:0.88px;"/>
                        </g>
                        <g transform="matrix(1,0,0,1,1022.25,870.1677)">
                            <path d="M0,-15.529C0.901,-17.547 3.049,-18.939 5.257,-18.938C7.925,-18.938 10.383,-16.945 11.238,-14.418C12.093,-11.89 11.462,-8.992 9.898,-6.83C8.769,-5.27 7.135,-3.935 6.933,-1.968C6.897,-1.625 6.937,-1.271 7.021,-0.935C8.11,3.41 12.782,3.106 14.563,0.573C15.648,-0.97 15.614,-3.19 14.544,-4.744C12.937,-7.079 9.768,-8.075 6.938,-7.909C-2.518,-7.351 -1.484,-12.209 0,-15.529" style="fill:rgb(51,181,129);fill-rule:nonzero;"/>
                        </g>
                        <g transform="matrix(1,0,0,1,1022.25,870.1677)">
                            <path d="M0,-15.529C0.901,-17.547 3.049,-18.939 5.257,-18.938C7.925,-18.938 10.383,-16.945 11.238,-14.418C12.093,-11.89 11.462,-8.992 9.898,-6.83C8.769,-5.27 7.135,-3.935 6.933,-1.968C6.897,-1.625 6.937,-1.271 7.021,-0.935C8.11,3.41 12.782,3.106 14.563,0.573C15.648,-0.97 15.614,-3.19 14.544,-4.744C12.937,-7.079 9.768,-8.075 6.938,-7.909C-2.518,-7.351 -1.484,-12.209 0,-15.529Z" style="fill:none;fill-rule:nonzero;stroke:rgb(181,51,135);stroke-width:0.88px;"/>
                        </g>
                        <g transform="matrix(1,0,0,1,1042.0142,872.6887)">
                            <path d="M0,-21.426C2.063,-22.215 4.566,-21.681 6.127,-20.119C8.014,-18.233 8.343,-15.085 7.16,-12.694C5.978,-10.302 3.482,-8.698 0.848,-8.276C-1.054,-7.971 -3.153,-8.183 -4.687,-6.935C-4.956,-6.717 -5.178,-6.439 -5.355,-6.143C-7.658,-2.299 -4.138,0.789 -1.088,0.258C0.77,-0.067 2.315,-1.66 2.658,-3.516C3.172,-6.303 1.636,-9.248 -0.483,-11.132C-7.563,-17.424 -3.397,-20.127 0,-21.426" style="fill:rgb(51,181,129);fill-rule:nonzero;"/>
                        </g>
                        <g transform="matrix(1,0,0,1,1042.0142,872.6887)">
                            <path d="M0,-21.426C2.063,-22.215 4.566,-21.681 6.127,-20.119C8.014,-18.233 8.343,-15.085 7.16,-12.694C5.978,-10.302 3.482,-8.698 0.848,-8.276C-1.054,-7.971 -3.153,-8.183 -4.687,-6.935C-4.956,-6.717 -5.178,-6.439 -5.355,-6.143C-7.658,-2.299 -4.138,0.789 -1.088,0.258C0.77,-0.067 2.315,-1.66 2.658,-3.516C3.172,-6.303 1.636,-9.248 -0.483,-11.132C-7.563,-17.424 -3.397,-20.127 0,-21.426Z" style="fill:none;fill-rule:nonzero;stroke:rgb(181,51,135);stroke-width:0.88px;"/>
                        </g>
                        <g transform="matrix(1,0,0,1,1058.377,875.9806)">
                            <path d="M0,-13.13C2.018,-12.229 3.41,-10.081 3.409,-7.873C3.409,-5.205 1.416,-2.747 -1.111,-1.892C-3.639,-1.037 -6.537,-1.668 -8.699,-3.232C-10.259,-4.361 -11.594,-5.995 -13.561,-6.197C-13.904,-6.233 -14.258,-6.193 -14.594,-6.109C-18.939,-5.02 -18.635,-0.348 -16.102,1.433C-14.559,2.518 -12.339,2.484 -10.785,1.414C-8.45,-0.193 -7.454,-3.362 -7.62,-6.192C-8.178,-15.648 -3.32,-14.614 0,-13.13" style="fill:rgb(51,181,129);fill-rule:nonzero;"/>
                        </g>
                        <g transform="matrix(1,0,0,1,1058.377,875.9806)">
                            <path d="M0,-13.13C2.018,-12.229 3.41,-10.081 3.409,-7.873C3.409,-5.205 1.416,-2.747 -1.111,-1.892C-3.639,-1.037 -6.537,-1.668 -8.699,-3.232C-10.259,-4.361 -11.594,-5.995 -13.561,-6.197C-13.904,-6.233 -14.258,-6.193 -14.594,-6.109C-18.939,-5.02 -18.635,-0.348 -16.102,1.433C-14.559,2.518 -12.339,2.484 -10.785,1.414C-8.45,-0.193 -7.454,-3.362 -7.62,-6.192C-8.178,-15.648 -3.32,-14.614 0,-13.13Z" style="fill:none;fill-rule:nonzero;stroke:rgb(181,51,135);stroke-width:0.88px;"/>
                        </g>
                    </g>
</g>
</g>
</svg>
