<svg xmlns="http://www.w3.org/2000/svg" viewBox="5806.37475713661 5269.8743350499135 473.01003592079996 401.5704468722997">
<g transform="matrix(4.166667,0,0,4.166667,0,0)">
<g transform="matrix(1,0,0,1,-11.56697,1.462939)">
<g xmlns="http://www.w3.org/2000/svg">
                        <g transform="matrix(1,0,0,1,1407.9768,1330.6378)">
                            <path d="M0,-64.451C6.949,-51.486 15.379,-39.316 25.074,-28.254C28.32,-24.551 32.015,-20.789 36.827,-19.742C43.513,-18.287 50.037,-22.46 56.807,-23.452C63.28,-24.4 70.138,-22.233 74.889,-17.737C79.641,-13.242 82.185,-6.514 81.597,0" style="fill:none;fill-rule:nonzero;stroke:rgb(51,181,129);stroke-width:2.2px;"/>
                        </g>
                        <g transform="matrix(0.999787,0.020633,0.020633,-0.999787,1489.33875,1336.328064)">
                            <path d="M0.118,-0.001C-3.028,-0.001 -5.577,2.549 -5.577,5.694C-5.577,8.839 -3.028,11.388 0.118,11.388C3.263,11.388 5.812,8.839 5.812,5.694C5.812,2.549 3.262,-0.001 0.118,-0.001" style="fill:rgb(0,123,255);fill-rule:nonzero;"/>
                        </g>
                        <g transform="matrix(0.999787,0.020633,0.020633,-0.999787,1489.33875,1336.328064)">
                            <circle cx="0.117" cy="5.693" r="5.695" style="fill:none;stroke:rgb(181,51,135);stroke-width:0.88px;"/>
                        </g>
                        <g transform="matrix(1,0,0,1,1436.8461,1296.034)">
                            <path d="M0,9.91C0.91,8.513 1.891,7.118 3.236,6.134C4.582,5.15 6.37,4.63 7.949,5.166C9.529,5.702 10.721,7.207 12.376,7.419C14.021,7.63 15.654,6.315 15.982,4.689C16.311,3.063 15.443,1.321 14.047,0.425C12.532,-0.548 10.544,-0.575 8.846,0.022C7.147,0.62 5.7,1.775 4.427,3.049C2.302,5.177 0.562,7.702 -0.578,10.485C-0.341,10.44 -0.271,10.325 0,9.91" style="fill:rgb(51,181,129);fill-rule:nonzero;"/>
                        </g>
                        <g transform="matrix(1,0,0,1,1432.92,1319.4068)">
                            <path d="M0,-16.574C-0.501,-14.984 -0.957,-13.341 -0.863,-11.676C-0.769,-10.012 -0.035,-8.3 1.381,-7.421C2.799,-6.541 4.718,-6.575 5.932,-5.431C7.14,-4.293 7.161,-2.197 6.113,-0.911C5.065,0.375 3.168,0.811 1.59,0.301C-0.124,-0.252 -1.407,-1.77 -2.024,-3.462C-2.64,-5.154 -2.666,-7.006 -2.49,-8.798C-2.196,-11.791 -1.349,-14.738 0.077,-17.385C0.193,-17.174 0.149,-17.047 0,-16.574" style="fill:rgb(51,181,129);fill-rule:nonzero;"/>
                        </g>
                        <g transform="matrix(1,0,0,1,1498.0508,1328.0075)">
                            <path d="M0,-9.903C0.844,-11.289 2.538,-12.104 4.147,-11.899C5.757,-11.694 7.193,-10.48 7.662,-8.926C8.229,-7.05 7.35,-4.898 5.754,-3.759C4.158,-2.62 1.986,-2.448 0.133,-3.089C-1.115,-3.52 -2.32,-4.303 -3.636,-4.181C-5.016,-4.052 -6.185,-2.8 -6.272,-1.418C-6.36,-0.035 -5.397,1.331 -4.082,1.766C-2.766,2.201 -1.212,1.705 -0.347,0.622C0.954,-1.005 0.604,-3.345 0.263,-5.4C-0.08,-7.455 -0.231,-9.875 0,-9.903Z" style="fill:rgb(168,2,110);fill-rule:nonzero;stroke:rgb(48,93,255);stroke-width:1.1px;"/>
                        </g>
                        <g transform="matrix(1,0,0,1,1504.4307,1336.1245)">
                            <path d="M0,-8.353C1.576,-8.736 3.351,-8.115 4.344,-6.832C5.337,-5.548 5.494,-3.674 4.727,-2.244C3.802,-0.517 1.658,0.383 -0.275,0.06C-2.21,-0.262 -3.868,-1.677 -4.725,-3.441C-5.302,-4.628 -5.601,-6.034 -6.617,-6.878C-7.684,-7.762 -9.396,-7.704 -10.436,-6.789C-11.476,-5.873 -11.761,-4.225 -11.138,-2.988C-10.515,-1.749 -9.065,-1.001 -7.688,-1.156C-5.618,-1.386 -4.21,-3.289 -2.999,-4.984C-1.788,-6.678 -0.184,-8.497 0,-8.353Z" style="fill:rgb(168,2,110);fill-rule:nonzero;stroke:rgb(48,93,255);stroke-width:1.1px;"/>
                        </g>
                        <g transform="matrix(1,0,0,1,1502.1064,1340.9842)">
                            <path d="M0,-1.869C1.386,-1.025 2.201,0.669 1.996,2.278C1.791,3.888 0.577,5.324 -0.977,5.793C-2.853,6.36 -5.005,5.481 -6.144,3.885C-7.283,2.289 -7.455,0.117 -6.814,-1.736C-6.383,-2.984 -5.6,-4.189 -5.722,-5.505C-5.851,-6.885 -7.103,-8.054 -8.485,-8.141C-9.868,-8.229 -11.234,-7.266 -11.669,-5.951C-12.104,-4.635 -11.608,-3.081 -10.525,-2.216C-8.898,-0.915 -6.558,-1.265 -4.503,-1.606C-2.448,-1.949 -0.028,-2.1 0,-1.869Z" style="fill:rgb(168,2,110);fill-rule:nonzero;stroke:rgb(48,93,255);stroke-width:1.1px;"/>
                        </g>
                        <g transform="matrix(1,0,0,1,1492.4414,1339.2281)">
                            <path d="M0,6.267C0.383,7.843 -0.238,9.618 -1.521,10.611C-2.805,11.604 -4.679,11.761 -6.109,10.994C-7.836,10.069 -8.736,7.925 -8.413,5.992C-8.091,4.057 -6.676,2.399 -4.912,1.542C-3.725,0.965 -2.319,0.666 -1.475,-0.35C-0.591,-1.417 -0.649,-3.129 -1.564,-4.169C-2.48,-5.209 -4.128,-5.494 -5.365,-4.871C-6.604,-4.248 -7.352,-2.798 -7.197,-1.421C-6.967,0.649 -5.064,2.057 -3.369,3.268C-1.675,4.479 0.144,6.083 0,6.267Z" style="fill:rgb(168,2,110);fill-rule:nonzero;stroke:rgb(48,93,255);stroke-width:1.1px;"/>
                        </g>
                        <g transform="matrix(1,0,0,1,1481.0957,1333.2679)">
                            <path d="M0,9.903C-0.844,11.289 -2.538,12.104 -4.147,11.899C-5.757,11.694 -7.193,10.48 -7.662,8.926C-8.229,7.05 -7.35,4.898 -5.754,3.759C-4.158,2.62 -1.986,2.448 -0.133,3.089C1.115,3.52 2.32,4.303 3.636,4.181C5.016,4.052 6.185,2.8 6.272,1.418C6.36,0.035 5.397,-1.331 4.082,-1.766C2.766,-2.201 1.212,-1.705 0.347,-0.622C-0.954,1.005 -0.604,3.345 -0.263,5.4C0.08,7.455 0.231,9.875 0,9.903Z" style="fill:rgb(168,2,110);fill-rule:nonzero;stroke:rgb(48,93,255);stroke-width:1.1px;"/>
                        </g>
                        <g transform="matrix(1,0,0,1,1474.7168,1325.1529)">
                            <path d="M0,8.353C-1.576,8.736 -3.351,8.115 -4.344,6.832C-5.337,5.548 -5.494,3.674 -4.727,2.244C-3.802,0.517 -1.658,-0.383 0.275,-0.06C2.21,0.262 3.868,1.677 4.725,3.441C5.302,4.628 5.601,6.034 6.617,6.878C7.684,7.762 9.396,7.704 10.436,6.789C11.476,5.873 11.761,4.225 11.138,2.988C10.515,1.749 9.065,1.001 7.688,1.156C5.618,1.386 4.21,3.289 2.999,4.984C1.788,6.678 0.184,8.497 0,8.353Z" style="fill:rgb(168,2,110);fill-rule:nonzero;stroke:rgb(48,93,255);stroke-width:1.1px;"/>
                        </g>
                        <g transform="matrix(1,0,0,1,1477.04,1320.2912)">
                            <path d="M0,1.869C-1.386,1.025 -2.201,-0.669 -1.996,-2.278C-1.791,-3.888 -0.577,-5.324 0.977,-5.793C2.853,-6.36 5.005,-5.481 6.144,-3.885C7.283,-2.289 7.455,-0.117 6.814,1.736C6.383,2.984 5.6,4.189 5.722,5.505C5.851,6.885 7.103,8.054 8.485,8.141C9.868,8.229 11.234,7.266 11.669,5.951C12.104,4.635 11.608,3.081 10.525,2.216C8.898,0.915 6.558,1.265 4.503,1.606C2.448,1.949 0.028,2.1 0,1.869Z" style="fill:rgb(168,2,110);fill-rule:nonzero;stroke:rgb(48,93,255);stroke-width:1.1px;"/>
                        </g>
                        <g transform="matrix(1,0,0,1,1486.707,1322.0483)">
                            <path d="M0,-6.267C-0.383,-7.843 0.238,-9.618 1.521,-10.611C2.805,-11.604 4.679,-11.761 6.109,-10.994C7.836,-10.069 8.736,-7.925 8.413,-5.992C8.091,-4.057 6.676,-2.399 4.912,-1.542C3.725,-0.965 2.319,-0.666 1.475,0.35C0.591,1.417 0.649,3.129 1.564,4.169C2.48,5.209 4.128,5.494 5.365,4.871C6.604,4.248 7.352,2.798 7.197,1.421C6.967,-0.649 5.064,-2.057 3.369,-3.268C1.675,-4.479 -0.144,-6.083 0,-6.267Z" style="fill:rgb(168,2,110);fill-rule:nonzero;stroke:rgb(48,93,255);stroke-width:1.1px;"/>
                        </g>
                        <g transform="matrix(1,0,0,1,1495.9063,1326.5978)">
                            <path d="M0,-21.381C2.078,-22.126 4.57,-21.541 6.099,-19.947C7.946,-18.023 8.21,-14.869 6.978,-12.502C5.746,-10.135 3.219,-8.583 0.576,-8.216C-1.332,-7.95 -3.427,-8.205 -4.986,-6.989C-5.259,-6.777 -5.486,-6.503 -5.67,-6.21C-8.051,-2.415 -4.597,0.745 -1.536,0.276C0.328,-0.01 1.906,-1.571 2.287,-3.419C2.859,-6.195 1.384,-9.171 -0.695,-11.098C-7.645,-17.535 -3.424,-20.152 0,-21.381" style="fill:rgb(51,181,129);fill-rule:nonzero;"/>
                        </g>
                        <g transform="matrix(1,0,0,1,1495.9063,1326.5978)">
                            <path d="M0,-21.381C2.078,-22.126 4.57,-21.541 6.099,-19.947C7.946,-18.023 8.21,-14.869 6.978,-12.502C5.746,-10.135 3.219,-8.583 0.576,-8.216C-1.332,-7.95 -3.427,-8.205 -4.986,-6.989C-5.259,-6.777 -5.486,-6.503 -5.67,-6.21C-8.051,-2.415 -4.597,0.745 -1.536,0.276C0.328,-0.01 1.906,-1.571 2.287,-3.419C2.859,-6.195 1.384,-9.171 -0.695,-11.098C-7.645,-17.535 -3.424,-20.152 0,-21.381Z" style="fill:none;fill-rule:nonzero;stroke:rgb(181,51,135);stroke-width:0.88px;"/>
                        </g>
                        <g transform="matrix(1,0,0,1,1512.0269,1329.8106)">
                            <path d="M0,-12.668C1.997,-11.726 3.345,-9.55 3.299,-7.342C3.244,-4.674 1.201,-2.258 -1.344,-1.456C-3.889,-0.652 -6.773,-1.343 -8.901,-2.951C-10.439,-4.113 -11.74,-5.774 -13.702,-6.018C-14.045,-6.06 -14.4,-6.027 -14.737,-5.95C-19.103,-4.95 -18.896,-0.273 -16.4,1.56C-14.879,2.676 -12.659,2.687 -11.084,1.65C-8.716,0.092 -7.655,-3.057 -7.763,-5.889C-8.125,-15.355 -3.291,-14.22 0,-12.668" style="fill:rgb(51,181,129);fill-rule:nonzero;"/>
                        </g>
                        <g transform="matrix(1,0,0,1,1512.0269,1329.8106)">
                            <path d="M0,-12.668C1.997,-11.726 3.345,-9.55 3.299,-7.342C3.244,-4.674 1.201,-2.258 -1.344,-1.456C-3.889,-0.652 -6.773,-1.343 -8.901,-2.951C-10.439,-4.113 -11.74,-5.774 -13.702,-6.018C-14.045,-6.06 -14.4,-6.027 -14.737,-5.95C-19.103,-4.95 -18.896,-0.273 -16.4,1.56C-14.879,2.676 -12.659,2.687 -11.084,1.65C-8.716,0.092 -7.655,-3.057 -7.763,-5.889C-8.125,-15.355 -3.291,-14.22 0,-12.668Z" style="fill:none;fill-rule:nonzero;stroke:rgb(181,51,135);stroke-width:0.88px;"/>
                        </g>
                        <g transform="matrix(1,0,0,1,1514.9941,1337.1297)">
                            <path d="M0,-0.159C0.745,1.919 0.16,4.411 -1.434,5.94C-3.358,7.787 -6.512,8.051 -8.879,6.819C-11.246,5.587 -12.798,3.06 -13.165,0.417C-13.431,-1.491 -13.176,-3.586 -14.392,-5.145C-14.604,-5.418 -14.878,-5.645 -15.171,-5.829C-18.966,-8.21 -22.126,-4.756 -21.657,-1.695C-21.371,0.169 -19.81,1.747 -17.962,2.128C-15.186,2.7 -12.21,1.225 -10.283,-0.854C-3.846,-7.804 -1.229,-3.583 0,-0.159" style="fill:rgb(51,181,129);fill-rule:nonzero;"/>
                        </g>
                        <g transform="matrix(1,0,0,1,1514.9941,1337.1297)">
                            <path d="M0,-0.159C0.745,1.919 0.16,4.411 -1.434,5.94C-3.358,7.787 -6.512,8.051 -8.879,6.819C-11.246,5.587 -12.798,3.06 -13.165,0.417C-13.431,-1.491 -13.176,-3.586 -14.392,-5.145C-14.604,-5.418 -14.878,-5.645 -15.171,-5.829C-18.966,-8.21 -22.126,-4.756 -21.657,-1.695C-21.371,0.169 -19.81,1.747 -17.962,2.128C-15.186,2.7 -12.21,1.225 -10.283,-0.854C-3.846,-7.804 -1.229,-3.583 0,-0.159Z" style="fill:none;fill-rule:nonzero;stroke:rgb(181,51,135);stroke-width:0.88px;"/>
                        </g>
                        <g transform="matrix(1,0,0,1,1503.0703,1337.3333)">
                            <path d="M0,15.758C-0.942,17.755 -3.118,19.103 -5.326,19.057C-7.994,19.002 -10.41,16.959 -11.212,14.414C-12.016,11.869 -11.325,8.985 -9.717,6.857C-8.555,5.319 -6.894,4.018 -6.65,2.056C-6.608,1.713 -6.641,1.358 -6.718,1.021C-7.718,-3.345 -12.395,-3.138 -14.228,-0.642C-15.344,0.879 -15.355,3.099 -14.318,4.674C-12.76,7.042 -9.611,8.103 -6.779,7.995C2.687,7.633 1.552,12.467 0,15.758" style="fill:rgb(51,181,129);fill-rule:nonzero;"/>
                        </g>
                        <g transform="matrix(1,0,0,1,1503.0703,1337.3333)">
                            <path d="M0,15.758C-0.942,17.755 -3.118,19.103 -5.326,19.057C-7.994,19.002 -10.41,16.959 -11.212,14.414C-12.016,11.869 -11.325,8.985 -9.717,6.857C-8.555,5.319 -6.894,4.018 -6.65,2.056C-6.608,1.713 -6.641,1.358 -6.718,1.021C-7.718,-3.345 -12.395,-3.138 -14.228,-0.642C-15.344,0.879 -15.355,3.099 -14.318,4.674C-12.76,7.042 -9.611,8.103 -6.779,7.995C2.687,7.633 1.552,12.467 0,15.758Z" style="fill:none;fill-rule:nonzero;stroke:rgb(181,51,135);stroke-width:0.88px;"/>
                        </g>
                        <g transform="matrix(1,0,0,1,1483.2402,1334.6776)">
                            <path d="M0,21.381C-2.078,22.126 -4.57,21.541 -6.099,19.947C-7.946,18.023 -8.21,14.869 -6.978,12.502C-5.746,10.135 -3.219,8.583 -0.576,8.216C1.332,7.95 3.427,8.205 4.986,6.989C5.259,6.777 5.486,6.503 5.67,6.21C8.051,2.415 4.597,-0.745 1.536,-0.276C-0.328,0.01 -1.906,1.571 -2.287,3.419C-2.859,6.195 -1.384,9.171 0.695,11.098C7.645,17.535 3.424,20.152 0,21.381" style="fill:rgb(51,181,129);fill-rule:nonzero;"/>
                        </g>
                        <g transform="matrix(1,0,0,1,1483.2402,1334.6776)">
                            <path d="M0,21.381C-2.078,22.126 -4.57,21.541 -6.099,19.947C-7.946,18.023 -8.21,14.869 -6.978,12.502C-5.746,10.135 -3.219,8.583 -0.576,8.216C1.332,7.95 3.427,8.205 4.986,6.989C5.259,6.777 5.486,6.503 5.67,6.21C8.051,2.415 4.597,-0.745 1.536,-0.276C-0.328,0.01 -1.906,1.571 -2.287,3.419C-2.859,6.195 -1.384,9.171 0.695,11.098C7.645,17.535 3.424,20.152 0,21.381Z" style="fill:none;fill-rule:nonzero;stroke:rgb(181,51,135);stroke-width:0.88px;"/>
                        </g>
                        <g transform="matrix(1,0,0,1,1467.1206,1331.4668)">
                            <path d="M0,12.668C-1.997,11.726 -3.345,9.55 -3.299,7.342C-3.244,4.674 -1.201,2.258 1.344,1.456C3.889,0.652 6.773,1.343 8.901,2.951C10.439,4.113 11.74,5.774 13.702,6.018C14.045,6.06 14.4,6.027 14.737,5.95C19.103,4.95 18.896,0.273 16.4,-1.56C14.879,-2.676 12.659,-2.687 11.084,-1.65C8.716,-0.092 7.655,3.057 7.763,5.889C8.125,15.355 3.291,14.22 0,12.668" style="fill:rgb(51,181,129);fill-rule:nonzero;"/>
                        </g>
                        <g transform="matrix(1,0,0,1,1467.1206,1331.4668)">
                            <path d="M0,12.668C-1.997,11.726 -3.345,9.55 -3.299,7.342C-3.244,4.674 -1.201,2.258 1.344,1.456C3.889,0.652 6.773,1.343 8.901,2.951C10.439,4.113 11.74,5.774 13.702,6.018C14.045,6.06 14.4,6.027 14.737,5.95C19.103,4.95 18.896,0.273 16.4,-1.56C14.879,-2.676 12.659,-2.687 11.084,-1.65C8.716,-0.092 7.655,3.057 7.763,5.889C8.125,15.355 3.291,14.22 0,12.668Z" style="fill:none;fill-rule:nonzero;stroke:rgb(181,51,135);stroke-width:0.88px;"/>
                        </g>
                        <g transform="matrix(1,0,0,1,1464.1523,1324.1457)">
                            <path d="M0,0.159C-0.745,-1.919 -0.16,-4.411 1.434,-5.94C3.358,-7.787 6.512,-8.051 8.879,-6.819C11.246,-5.587 12.798,-3.06 13.165,-0.417C13.431,1.491 13.176,3.586 14.392,5.145C14.604,5.418 14.878,5.645 15.171,5.829C18.966,8.21 22.126,4.756 21.657,1.695C21.371,-0.169 19.81,-1.747 17.962,-2.128C15.186,-2.7 12.21,-1.225 10.283,0.854C3.846,7.804 1.229,3.583 0,0.159" style="fill:rgb(51,181,129);fill-rule:nonzero;"/>
                        </g>
                        <g transform="matrix(1,0,0,1,1464.1523,1324.1457)">
                            <path d="M0,0.159C-0.745,-1.919 -0.16,-4.411 1.434,-5.94C3.358,-7.787 6.512,-8.051 8.879,-6.819C11.246,-5.587 12.798,-3.06 13.165,-0.417C13.431,1.491 13.176,3.586 14.392,5.145C14.604,5.418 14.878,5.645 15.171,5.829C18.966,8.21 22.126,4.756 21.657,1.695C21.371,-0.169 19.81,-1.747 17.962,-2.128C15.186,-2.7 12.21,-1.225 10.283,0.854C3.846,7.804 1.229,3.583 0,0.159Z" style="fill:none;fill-rule:nonzero;stroke:rgb(181,51,135);stroke-width:0.88px;"/>
                        </g>
                        <g transform="matrix(1,0,0,1,1476.0781,1323.9431)">
                            <path d="M0,-15.758C0.942,-17.755 3.118,-19.103 5.326,-19.057C7.994,-19.002 10.41,-16.959 11.212,-14.414C12.016,-11.869 11.325,-8.985 9.717,-6.857C8.555,-5.319 6.894,-4.018 6.65,-2.056C6.608,-1.713 6.641,-1.358 6.718,-1.021C7.718,3.345 12.395,3.138 14.228,0.642C15.344,-0.879 15.355,-3.099 14.318,-4.674C12.76,-7.042 9.611,-8.103 6.779,-7.995C-2.687,-7.633 -1.552,-12.467 0,-15.758" style="fill:rgb(51,181,129);fill-rule:nonzero;"/>
                        </g>
                        <g transform="matrix(1,0,0,1,1476.0781,1323.9431)">
                            <path d="M0,-15.758C0.942,-17.755 3.118,-19.103 5.326,-19.057C7.994,-19.002 10.41,-16.959 11.212,-14.414C12.016,-11.869 11.325,-8.985 9.717,-6.857C8.555,-5.319 6.894,-4.018 6.65,-2.056C6.608,-1.713 6.641,-1.358 6.718,-1.021C7.718,3.345 12.395,3.138 14.228,0.642C15.344,-0.879 15.355,-3.099 14.318,-4.674C12.76,-7.042 9.611,-8.103 6.779,-7.995C-2.687,-7.633 -1.552,-12.467 0,-15.758Z" style="fill:none;fill-rule:nonzero;stroke:rgb(181,51,135);stroke-width:0.88px;"/>
                        </g>
                    </g>
</g>
</g>
</svg>
