<svg xmlns="http://www.w3.org/2000/svg" viewBox="7221.644837012375 3464.7673187005303 704.0511700449224 634.3667582701701">
<defs>
<linearGradient xmlns="http://www.w3.org/2000/svg" id="_Linear8" x1="0" y1="0" x2="1" y2="0" gradientUnits="userSpaceOnUse" gradientTransform="matrix(1,-0,-0,-1,0,0.013535)"><stop offset="0" style="stop-color:rgb(230,248,252);stop-opacity:1"/><stop offset="1" style="stop-color:rgb(244,209,50);stop-opacity:1"/></linearGradient>
<linearGradient xmlns="http://www.w3.org/2000/svg" id="_Linear9" x1="0" y1="0" x2="1" y2="0" gradientUnits="userSpaceOnUse" gradientTransform="matrix(1,0,0,-1,0,0.000318)"><stop offset="0" style="stop-color:rgb(230,248,250);stop-opacity:1"/><stop offset="0.78" style="stop-color:rgb(234,237,191);stop-opacity:1"/><stop offset="0.97" style="stop-color:rgb(242,215,79);stop-opacity:1"/><stop offset="1" style="stop-color:rgb(244,209,50);stop-opacity:1"/></linearGradient>
<linearGradient xmlns="http://www.w3.org/2000/svg" id="_Linear10" x1="0" y1="0" x2="1" y2="0" gradientUnits="userSpaceOnUse" gradientTransform="matrix(1,0,0,-1,0,0.001643)"><stop offset="0" style="stop-color:rgb(230,248,250);stop-opacity:1"/><stop offset="0.78" style="stop-color:rgb(234,237,191);stop-opacity:1"/><stop offset="0.97" style="stop-color:rgb(242,215,79);stop-opacity:1"/><stop offset="1" style="stop-color:rgb(244,209,50);stop-opacity:1"/></linearGradient>
<linearGradient xmlns="http://www.w3.org/2000/svg" id="_Linear11" x1="0" y1="0" x2="1" y2="0" gradientUnits="userSpaceOnUse" gradientTransform="matrix(1,0,0,-1,0,-0.00327)"><stop offset="0" style="stop-color:rgb(230,248,250);stop-opacity:1"/><stop offset="0.78" style="stop-color:rgb(234,237,191);stop-opacity:1"/><stop offset="0.97" style="stop-color:rgb(242,215,79);stop-opacity:1"/><stop offset="1" style="stop-color:rgb(244,209,50);stop-opacity:1"/></linearGradient>
<linearGradient xmlns="http://www.w3.org/2000/svg" id="_Linear12" x1="0" y1="0" x2="1" y2="0" gradientUnits="userSpaceOnUse" gradientTransform="matrix(1,0,0,-1,0,0.010474)"><stop offset="0" style="stop-color:rgb(230,248,252);stop-opacity:1"/><stop offset="1" style="stop-color:rgb(244,209,50);stop-opacity:1"/></linearGradient>
<radialGradient xmlns="http://www.w3.org/2000/svg" id="_Radial13" cx="0" cy="0" r="1" gradientUnits="userSpaceOnUse" gradientTransform="matrix(1,0,0,-1,0,-1.328202)"><stop offset="0" style="stop-color:rgb(87,36,0);stop-opacity:1"/><stop offset="1" style="stop-color:rgb(211,94,8);stop-opacity:1"/></radialGradient>
</defs>
<g transform="matrix(4.166667,0,0,4.166667,0,0)">
<g xmlns="http://www.w3.org/2000/svg">
                    <g transform="matrix(1,0,0,1,0,-142.894)">
                        <path d="M1838.908,988.073C1832.069,990.131 1826.615,995.261 1821.879,1000.607C1816.317,1006.886 1811.298,1013.813 1808.41,1021.689C1804.614,1032.034 1804.711,1043.346 1804.964,1054.363C1805.095,1060.045 1805.271,1065.824 1807.08,1071.212C1807.609,1072.788 1808.444,1074.483 1810.709,1075.617C1814.093,1066.885 1817.507,1062.401 1823.65,1057.711C1829.793,1053.022 1835.912,1049.035 1843.608,1048.325C1844.761,1048.219 1845.946,1048.142 1846.999,1047.662C1848.285,1047.076 1849.236,1045.953 1850.08,1044.819C1858.178,1033.942 1860.032,1019.672 1860.084,1006.111C1860.1,1001.984 1859.92,997.654 1857.839,994.09C1855.162,989.508 1849.787,987.277 1844.397,987.277C1842.532,987.277 1840.666,987.543 1838.908,988.073Z" style="fill-rule:nonzero;"/>
                    </g>
                    <g transform="matrix(31.705708,28.977159,28.977159,-31.705708,1807.650027,869.919863)">
                        <path d="M0.068,0.895C0.018,0.827 -0.005,0.762 -0.025,0.681C-0.039,0.624 -0.048,0.567 -0.05,0.509C-0.053,0.414 -0.036,0.32 -0.013,0.227C0.119,-0.288 0.461,-0.747 0.917,-1.021C0.951,-1.042 1.004,-1.057 1.04,-1.026C0.901,-0.963 0.789,-0.854 0.686,-0.741C0.502,-0.54 0.334,-0.318 0.23,-0.066C0.126,0.186 0.075,0.409 0.087,0.681C0.094,0.824 0.151,0.917 0.304,1.071C0.24,1.043 0.174,1 0.123,0.954C0.102,0.934 0.083,0.914 0.068,0.895Z" style="fill:url(#_Linear8);fill-rule:nonzero;"/>
                    </g>
                    <g transform="matrix(1,0,0,1,0,-136.816)">
                        <path d="M1756.858,991.694C1755.487,992.635 1754.205,993.824 1753.605,995.374C1752.893,997.213 1753.234,999.274 1753.651,1001.201C1756.376,1013.801 1761.968,1025.772 1769.881,1035.948C1778.75,1047.352 1790.302,1056.323 1801.726,1065.166C1803.721,1066.711 1805.84,1068.309 1808.233,1068.114C1803.667,1056.118 1802.037,1043.016 1803.523,1030.267C1803.839,1027.544 1804.293,1024.755 1803.648,1022.091C1803.186,1020.186 1802.186,1018.46 1801.15,1016.796C1797.147,1010.363 1792.409,1004.389 1787.058,999.026C1781.959,993.917 1775.818,989.157 1768.624,988.566C1768.142,988.527 1767.658,988.507 1767.173,988.507C1763.52,988.507 1759.87,989.627 1756.858,991.694Z" style="fill-rule:nonzero;"/>
                    </g>
                    <g transform="matrix(1,0,0,1,0,-60.951)">
                        <path d="M1836.417,969.734C1833.768,970.557 1831.129,971.532 1828.847,973.108C1827.208,974.239 1825.789,975.656 1824.381,977.064C1822.286,979.157 1820.191,981.252 1818.095,983.345C1815.321,986.119 1812.373,989.255 1812.11,993.17C1815.175,989.875 1820.215,988.958 1824.593,989.993C1828.973,991.029 1832.775,993.745 1836.064,996.815C1840.981,1001.406 1845.177,1007.336 1845.112,1013.737C1854.473,1014.872 1864.14,1014.571 1873.086,1011.588C1882.031,1008.605 1890.219,1002.762 1894.907,994.581C1896.678,991.491 1897.945,987.749 1896.731,984.401C1896.054,982.534 1894.683,981.017 1893.344,979.551C1891.179,977.181 1888.997,974.797 1886.432,972.867C1880.169,968.159 1872.099,966.528 1864.272,966.165C1863.026,966.107 1861.778,966.079 1860.53,966.079C1852.37,966.079 1844.211,967.313 1836.417,969.734Z" style="fill-rule:nonzero;"/>
                    </g>
                    <g transform="matrix(-82.200661,4.191958,4.191958,82.200661,1895.359628,915.444903)">
                        <path d="M0.49,-0.171C0.601,-0.166 0.713,-0.144 0.811,-0.091C0.909,-0.039 0.992,0.046 1.03,0.15C1.019,0.152 1.019,0.154 1.018,0.156C0.88,0.011 0.774,-0.073 0.693,-0.093C0.504,-0.138 0.402,-0.135 0.344,-0.121C0.293,-0.108 0.244,-0.099 0.196,-0.078C0.152,-0.059 0.102,-0.034 0.071,0.001C0.046,0.028 0.024,0.055 0.006,0.087C-0.013,0.122 -0.005,0.142 -0.006,0.172C-0.024,0.131 -0.039,0.107 -0.008,0.054C0.023,0 0.066,-0.047 0.116,-0.082C0.201,-0.14 0.304,-0.165 0.407,-0.171C0.435,-0.172 0.462,-0.172 0.49,-0.171Z" style="fill:url(#_Linear9);fill-rule:nonzero;"/>
                    </g>
                    <g transform="matrix(1,0,0,1,0,-8.912)">
                        <path d="M1815.323,940.048C1813.556,940.624 1811.784,941.509 1810.758,943.06C1810.119,944.026 1809.821,945.172 1809.318,946.216C1807.697,949.581 1804.163,951.534 1800.771,953.095C1798.773,954.015 1796.748,954.874 1794.971,956.136C1792.162,964.027 1794.271,973.445 1800.178,979.383C1800.946,980.154 1801.768,980.868 1802.596,981.573C1804.784,983.43 1807.067,985.252 1809.724,986.334C1813.979,988.066 1817.319,989.758 1824.94,989.809C1827.299,989.824 1832.105,989.363 1834.605,987.795C1838.985,985.048 1840.997,982.318 1843.034,974.401C1844.66,968.089 1845.78,961.192 1843.17,955.22C1841.494,951.382 1838.442,948.339 1835.424,945.435C1834.25,944.306 1833.065,943.177 1831.734,942.238C1828.735,940.122 1825.069,939.088 1821.39,939.088C1819.334,939.088 1817.274,939.412 1815.323,940.048Z" style="fill-rule:nonzero;"/>
                    </g>
                    <g transform="matrix(-34.016525,1.734729,1.734729,34.016525,1845.530475,952.313315)">
                        <path d="M0.804,-0.719C0.875,-0.701 0.959,-0.662 1,-0.601C0.84,-0.676 0.694,-0.661 0.595,-0.632C0.511,-0.608 0.421,-0.545 0.359,-0.486C0.175,-0.311 0.107,-0.093 0.098,-0.04C0.075,0.086 0.098,0.244 0.123,0.343C0.154,0.467 0.233,0.574 0.302,0.681C0.312,0.698 0.323,0.716 0.32,0.735C0.216,0.662 0.15,0.547 0.092,0.433C0.069,0.388 0.042,0.343 0.031,0.293C-0.008,0.115 -0.015,-0.019 0.038,-0.166C0.051,-0.201 0.073,-0.247 0.089,-0.281C0.175,-0.456 0.323,-0.597 0.498,-0.682C0.547,-0.706 0.63,-0.727 0.685,-0.731C0.687,-0.731 0.689,-0.731 0.691,-0.731C0.735,-0.733 0.759,-0.73 0.804,-0.719Z" style="fill:url(#_Linear10);fill-rule:nonzero;"/>
                    </g>
                    <g transform="matrix(64.793472,-12.270622,-12.270622,-64.793472,1744.656652,950.143775)">
                        <path d="M0.983,0.085C0.967,0.083 0.905,0.025 0.89,0.018C0.753,-0.041 0.612,0.006 0.463,0.02C0.046,0.061 0.017,0.1 -0.041,0.121C-0.043,0.126 -0.047,0.117 -0.045,0.112C0.008,0.024 0.095,-0.04 0.19,-0.078C0.285,-0.116 0.389,-0.129 0.491,-0.129C0.601,-0.129 0.711,-0.115 0.817,-0.087C0.86,-0.075 0.903,-0.061 0.942,-0.038C0.98,-0.014 1.013,0.021 1.027,0.063C1.029,0.067 1.03,0.072 1.029,0.076C1.028,0.081 1.024,0.085 1.02,0.088C1.016,0.091 1.012,0.093 1.009,0.094C1,0.095 0.995,0.086 0.983,0.085Z" style="fill:url(#_Linear11);fill-rule:nonzero;"/>
                    </g>
                    <g transform="matrix(1,0,0,1,0,-56.45)">
                        <path d="M1751.102,975.78C1747.043,977.425 1743.119,979.644 1740.378,982.936C1737.636,986.226 1736.24,990.736 1737.575,994.739C1738.137,996.425 1739.144,997.948 1740.296,999.336C1741.039,1000.234 1741.863,1001.095 1742.887,1001.692C1743.922,1002.294 1745.114,1002.6 1746.298,1002.853C1754.212,1004.538 1762.441,1004.137 1770.515,1003.419C1779.484,1002.623 1788.517,1001.421 1796.901,998.289C1800.816,996.826 1804.721,994.816 1807.063,991.491C1808.021,990.131 1808.679,988.327 1807.867,986.884C1807.528,986.279 1806.97,985.817 1806.423,985.369C1804.577,983.854 1802.731,982.34 1800.884,980.825C1799.114,979.373 1797.331,977.912 1795.303,976.807C1793.448,975.796 1791.272,975.703 1789.25,974.981C1783.51,972.933 1777.381,971.913 1771.252,971.912C1764.352,971.912 1757.452,973.206 1751.102,975.78Z" style="fill-rule:nonzero;"/>
                    </g>
                    <g transform="matrix(61.33791,56.059257,56.059257,-61.33791,1748.300291,869.774772)">
                        <path d="M-0.045,0.127C-0.034,0.069 0.015,0.026 0.065,-0.007C0.18,-0.083 0.315,-0.131 0.453,-0.144C0.566,-0.155 0.679,-0.144 0.792,-0.131C0.83,-0.127 0.869,-0.122 0.906,-0.113C0.94,-0.104 1.028,-0.064 1.04,-0.056C0.985,-0.048 0.928,-0.072 0.876,-0.073C0.638,-0.079 0.441,-0.159 0.09,0.036C0.041,0.064 -0.007,0.112 -0.049,0.17C-0.054,0.162 -0.047,0.136 -0.045,0.127Z" style="fill:url(#_Linear12);fill-rule:nonzero;"/>
                    </g>
                    <g transform="matrix(0.945899,-1.63214,-1.63214,-0.945899,1808.475133,930.716006)">
                        <path d="M0.899,-0.19C0.646,-0.387 0.235,-0.574 0.082,-0.203C0.027,-0.072 0.049,0.074 0.113,0.2C0.281,0.534 0.21,0.958 -0.037,1.231C-0.399,1.064 -1.058,0.589 -1.042,0.19C-1.032,-0.055 -0.601,-0.168 -0.464,-0.372C-0.19,-0.78 -0.342,-0.948 -0.57,-1.385C-0.745,-1.72 -1.685,-2.006 -2.046,-2.17C-2.159,-2.222 -1.572,-2.355 -1.195,-2.349C-0.615,-2.338 -0.578,-2.559 -0.385,-2.466C-0.143,-2.347 0.071,-2.134 0.341,-2.129C0.6,-2.125 0.818,-2.315 1.006,-2.493C1.145,-2.531 1.279,-2.387 1.285,-2.243C1.292,-2.1 1.209,-1.968 1.123,-1.854C1.037,-1.739 0.941,-1.624 0.909,-1.484C0.858,-1.252 0.995,-1.027 1.072,-0.803C1.126,-0.648 1.13,-0.45 1.053,-0.318C1.019,-0.259 0.969,-0.213 0.899,-0.19Z" style="fill:url(#_Radial13);fill-rule:nonzero;"/>
                    </g>
                </g>
</g>
</svg>
