<svg xmlns="http://www.w3.org/2000/svg" viewBox="2850.5724373391104 617.9052128924131 1622.0580445113 476.3817028572">
<g transform="matrix(4.166667,0,0,4.166667,0,0)">
<g transform="matrix(1,0,0,1,-11.56697,1.462939)">
<g xmlns="http://www.w3.org/2000/svg">
                        <g transform="matrix(1,0,0,1,698.5843,194.5385)">
                            <path d="M0,3.056C13.657,3.375 27.13,6.75 40.791,6.725C54.451,6.699 69.25,2.414 76.924,-8.887C82.722,-17.426 86.184,-30.698 96.503,-30.907C104.822,-31.075 110.123,-21.163 109.164,-12.898C108.205,-4.632 103.278,2.547 100.064,10.222C96.85,17.898 95.682,27.678 101.34,33.779C104.952,37.673 110.564,39.094 115.875,39.127C132.85,39.235 148.833,25.497 151.275,8.698C151.647,6.14 151.724,3.448 150.753,1.051C149.838,-1.205 148.081,-2.999 146.763,-5.047C139.73,-15.984 148.776,-32.446 161.645,-34.312C174.514,-36.179 187.115,-25.464 189.634,-12.707C191.408,-3.726 189.135,5.965 192.498,14.479C196.963,25.788 212.054,31.391 222.818,25.737C228.192,22.914 232.111,18.015 236.659,13.993C254.154,-1.48 279.529,-3.123 302.87,-3.989C318.411,-4.566 333.953,-5.143 349.494,-5.72" style="fill:none;fill-rule:nonzero;stroke:rgb(114,143,133);stroke-width:2.19px;"/>
                        </g>
                        <g transform="matrix(1,0,0,1,801.1179,195.8414)">
                            <path d="M0,4.768C-0.594,5.675 -5.085,7.426 -6.219,7.585C-10.232,8.147 -12.211,7.3 -14.853,4.335C-16.88,2.059 -17.956,-0.882 -17.68,-2.232C-17.389,-3.656 -15.849,-8.122 -15.219,-9.307C-12.181,-15.02 -7.416,-23.744 -7.413,-23.752C-7.042,-24.9 -5.693,-25.385 -4.664,-24.755C-2.643,-23.518 -1.408,-23.832 0.714,-22.611C2.24,-21.733 3.42,-20.317 5.003,-19.544C7.126,-18.508 9.621,-18.778 11.971,-19.013C18.409,-19.656 25.402,-19.719 30.748,-16.091C30.809,-16.049 30.846,-15.978 30.844,-15.903C30.695,-9.773 26.72,-4.304 24.58,1.443C23.916,3.226 23.152,5.007 22.967,6.902C22.816,8.445 23.058,9.995 23.238,11.535C23.662,15.163 27.854,20.382 27.941,24.034C27.952,24.511 27.947,25.036 27.635,25.396C27.41,25.656 27.068,25.776 26.742,25.885C20.654,27.917 13.115,28.594 6.802,29.75C5.661,29.959 4.482,30.153 3.353,29.889C2.284,29.64 1.346,28.997 0.524,28.269C-3.72,24.508 -5.257,18.284 -4.227,12.708C-3.889,10.874 0.154,4.533 0,4.768" style="fill:rgb(103,129,77);fill-rule:nonzero;"/>
                        </g>
                        <g transform="matrix(1,0,0,1,801.1179,195.8414)">
                            <path d="M0,4.768C-0.594,5.675 -5.085,7.426 -6.219,7.585C-10.232,8.147 -12.211,7.3 -14.853,4.335C-16.88,2.059 -17.956,-0.882 -17.68,-2.232C-17.389,-3.656 -15.849,-8.122 -15.219,-9.307C-12.181,-15.02 -7.416,-23.744 -7.413,-23.752C-7.042,-24.9 -5.693,-25.385 -4.664,-24.755C-2.643,-23.518 -1.408,-23.832 0.714,-22.611C2.24,-21.733 3.42,-20.317 5.003,-19.544C7.126,-18.508 9.621,-18.778 11.971,-19.013C18.409,-19.656 25.402,-19.719 30.748,-16.091C30.809,-16.049 30.846,-15.978 30.844,-15.903C30.695,-9.773 26.72,-4.304 24.58,1.443C23.916,3.226 23.152,5.007 22.967,6.902C22.816,8.445 23.058,9.995 23.238,11.535C23.662,15.163 27.854,20.382 27.941,24.034C27.952,24.511 27.947,25.036 27.635,25.396C27.41,25.656 27.068,25.776 26.742,25.885C20.654,27.917 13.115,28.594 6.802,29.75C5.661,29.959 4.482,30.153 3.353,29.889C2.284,29.64 1.346,28.997 0.524,28.269C-3.72,24.508 -5.257,18.284 -4.227,12.708C-3.889,10.874 0.154,4.533 0,4.768Z" style="fill:none;fill-rule:nonzero;stroke:black;stroke-width:0.09px;"/>
                        </g>
                        <g transform="matrix(1,0,0,1,801.4537,171.6853)">
                            <path d="M0,28.49C-0.297,26.118 -0.594,23.745 -0.89,21.373C-0.958,20.829 -1.027,20.278 -0.963,19.733C-0.882,19.033 -0.587,18.377 -0.262,17.752C0.443,16.397 1.311,15.126 2.317,13.976C2.694,13.545 3.1,13.116 3.299,12.578C3.449,12.173 3.47,11.732 3.463,11.3C3.445,10.235 3.262,9.172 2.924,8.162C2.979,9.258 3.035,10.355 3.091,11.452C3.105,11.728 3.118,12.012 3.03,12.275C2.93,12.575 2.708,12.817 2.496,13.052C0.907,14.818 -0.448,16.794 -1.522,18.912C-2.433,16.408 -3.147,13.831 -3.654,11.214C-3.686,11.047 -3.718,10.875 -3.697,10.706C-3.677,10.536 -3.606,10.378 -3.529,10.225C-2.73,8.62 -1.345,7.398 0.005,6.219C-1.753,7.054 -3.248,8.433 -4.221,10.119C-6.478,6.423 -5.449,3.297 -6.613,-0.706C-6.822,-0.654 -6.834,-0.364 -6.798,-0.153C-6.277,2.947 -6.678,4.833 -5.804,7.852C-5.742,8.066 -5.702,8.346 -5.889,8.466C-6.012,8.546 -6.174,8.509 -6.315,8.469C-7.202,8.22 -8.089,7.97 -8.976,7.721C-7.866,8.163 -6.757,8.604 -5.647,9.046C-4.819,11.36 -4.056,13.698 -3.359,16.056C-4.875,16.121 -6.407,15.793 -7.765,15.113C-6.914,16.272 -5.262,16.359 -3.883,16.762C-3.724,16.808 -3.561,16.864 -3.443,16.979C-3.347,17.071 -3.289,17.194 -3.233,17.315C-2.061,19.877 -1.363,22.654 -1.184,25.465C-1.115,26.55 -1.12,27.654 -0.821,28.7C-0.757,28.925 -0.592,29.196 -0.366,29.134C-0.241,29.099 -0.169,28.972 -0.111,28.856C0.042,28.552 0.195,28.248 0,28.49Z" style="fill:rgb(161,172,103);fill-rule:nonzero;stroke:rgb(196,195,143);stroke-width:0.09px;"/>
                        </g>
                        <g transform="matrix(1,0,0,1,800.0237,189.5639)">
                            <path d="M0,10.387C-0.992,9.977 -1.984,9.566 -2.977,9.156C-3.384,8.988 -3.823,8.792 -4.03,8.402C-4.175,8.128 -4.18,7.804 -4.182,7.494C-4.187,6.381 -4.193,5.269 -4.198,4.156C-4.625,5.432 -4.816,6.788 -4.758,8.134C-4.896,8.129 -5.034,8.114 -5.17,8.091C-6.593,7.851 -7.818,6.69 -8.138,5.279C-8.381,4.212 -8.158,3.018 -8.711,2.074C-8.844,1.845 -9.027,1.613 -8.996,1.35C-8.974,1.164 -8.848,1.011 -8.727,0.869C-8.265,0.327 -7.803,-0.214 -7.341,-0.756C-8.18,-0.483 -8.878,0.195 -9.175,1.029C-9.132,0.529 -9.207,0.02 -9.39,-0.447C-9.669,0.024 -9.532,0.621 -9.401,1.154C-8.956,2.963 -8.681,4.814 -8.581,6.673C-9.145,6.21 -9.836,5.932 -10.521,5.684C-12.445,4.987 -14.431,4.464 -16.448,4.123C-16.392,4.304 -16.19,4.39 -16.012,4.452C-15.163,4.751 -14.314,5.049 -13.465,5.347C-11.483,6.044 -9.492,6.744 -7.629,7.72C-8.568,8.382 -9.215,9.444 -9.376,10.584C-9.191,10.726 -8.907,10.616 -8.771,10.427C-8.635,10.238 -8.601,9.997 -8.543,9.771C-8.417,9.287 -8.162,8.838 -7.81,8.485C-7.701,8.375 -7.577,8.271 -7.428,8.233C-7.226,8.182 -7.016,8.257 -6.822,8.331C-4.359,9.268 -1.895,10.206 0.568,11.143C0.546,10.787 0.428,10.564 0,10.387" style="fill:rgb(161,172,103);fill-rule:nonzero;"/>
                        </g>
                        <g transform="matrix(1,0,0,1,800.0237,189.5639)">
                            <path d="M0,10.387C-0.992,9.977 -1.984,9.566 -2.977,9.156C-3.384,8.988 -3.823,8.792 -4.03,8.402C-4.175,8.128 -4.18,7.804 -4.182,7.494C-4.187,6.381 -4.193,5.269 -4.198,4.156C-4.625,5.432 -4.816,6.788 -4.758,8.134C-4.896,8.129 -5.034,8.114 -5.17,8.091C-6.593,7.851 -7.818,6.69 -8.138,5.279C-8.381,4.212 -8.158,3.018 -8.711,2.074C-8.844,1.845 -9.027,1.613 -8.996,1.35C-8.974,1.164 -8.848,1.011 -8.727,0.869C-8.265,0.327 -7.803,-0.214 -7.341,-0.756C-8.18,-0.483 -8.878,0.195 -9.175,1.029C-9.132,0.529 -9.207,0.02 -9.39,-0.447C-9.669,0.024 -9.532,0.621 -9.401,1.154C-8.956,2.963 -8.681,4.814 -8.581,6.673C-9.145,6.21 -9.836,5.932 -10.521,5.684C-12.445,4.987 -14.431,4.464 -16.448,4.123C-16.392,4.304 -16.19,4.39 -16.012,4.452C-15.163,4.751 -14.314,5.049 -13.465,5.347C-11.483,6.044 -9.492,6.744 -7.629,7.72C-8.568,8.382 -9.215,9.444 -9.376,10.584C-9.191,10.726 -8.907,10.616 -8.771,10.427C-8.635,10.238 -8.601,9.997 -8.543,9.771C-8.417,9.287 -8.162,8.838 -7.81,8.485C-7.701,8.375 -7.577,8.271 -7.428,8.233C-7.226,8.182 -7.016,8.257 -6.822,8.331C-4.359,9.268 -1.895,10.206 0.568,11.143C0.546,10.787 0.428,10.564 0,10.387Z" style="fill:none;fill-rule:nonzero;stroke:rgb(196,195,143);stroke-width:0.08px;"/>
                        </g>
                        <g transform="matrix(1,0,0,1,801.0319,180.2326)">
                            <path d="M0,20.367C1.272,19.365 2.543,18.364 3.815,17.362C4.325,16.961 4.863,16.518 5.039,15.893C5.272,15.067 4.801,14.23 4.55,13.408C4.008,11.63 4.584,9.561 5.968,8.319C5.383,9.384 4.672,10.468 4.685,11.683C4.701,13.238 5.917,14.67 5.647,16.202C7,15.274 8.352,14.345 9.705,13.417C9.973,13.233 10.248,13.04 10.419,12.764C10.553,12.545 10.612,12.289 10.663,12.038C11.395,8.46 11.103,4.679 9.83,1.256C10.859,2.351 11.114,3.941 11.322,5.429C11.815,3.775 12.355,2.043 13.601,0.849C13.682,1.789 13.132,2.648 12.718,3.495C11.414,6.162 11.363,9.245 11.339,12.214C13.675,10.591 16.011,8.969 18.347,7.346C18.596,7.173 18.853,6.991 19.002,6.727C19.141,6.482 19.171,6.191 19.184,5.909C19.243,4.641 19.018,3.361 18.53,2.189C18.451,1.999 18.364,1.801 18.389,1.597C18.415,1.393 18.607,1.195 18.805,1.246C19.306,3.049 19.556,4.92 19.546,6.791C20.878,6.076 22.148,5.245 23.335,4.31C23.502,4.179 23.671,4.042 23.781,3.86C23.924,3.625 23.956,3.341 23.978,3.067C24.088,1.663 24.026,0.245 23.791,-1.144C24.303,-1.018 24.447,-0.37 24.492,0.155C24.585,1.243 24.679,2.331 24.772,3.419C25.535,2.43 26.395,1.516 27.336,0.695C28.159,-0.022 29.073,-0.683 30.13,-0.958C29.066,0.647 27.633,2.005 25.974,2.982C27.029,3.571 27.94,4.416 28.608,5.424C28.066,4.784 27.382,4.267 26.619,3.92C26.292,3.772 25.942,3.652 25.584,3.661C24.93,3.678 24.369,4.106 23.859,4.515C23.24,5.011 22.622,5.506 22.004,6.002C23.66,6.852 25.019,8.266 25.804,9.953C24.832,8.926 23.861,7.899 22.889,6.872C22.674,6.644 22.433,6.404 22.122,6.367C21.824,6.331 21.542,6.494 21.286,6.651C19.571,7.699 17.856,8.748 16.141,9.797C14.449,10.831 12.724,11.894 11.458,13.421C13.066,14.273 14.744,14.992 16.47,15.57C18.215,16.154 20.149,16.586 21.868,15.925C21.909,16.082 21.95,16.24 21.992,16.397C21.479,16.558 20.979,16.756 20.495,16.989C20.359,17.054 20.22,17.126 20.133,17.249C19.929,17.537 20.104,17.929 20.257,18.247C20.741,19.257 20.961,20.393 20.888,21.511C19.963,20.38 19.277,19.055 18.888,17.647C18.843,17.484 18.799,17.313 18.689,17.184C18.546,17.016 18.321,16.948 18.109,16.888C15.862,16.243 13.665,15.426 11.542,14.448C11.261,14.318 10.96,14.182 10.654,14.228C10.437,14.26 10.245,14.379 10.06,14.497C8.816,15.284 7.571,16.072 6.807,16.618C6.042,17.164 6.38,17.592 6.677,17.894C7.434,18.664 8.082,19.542 8.596,20.493C7.783,20.105 7.08,19.492 6.584,18.741C6.29,18.296 6.059,17.794 5.654,17.447C3.582,18.424 2.105,20.385 0.043,21.384C-0.072,21.117 -0.187,20.849 0,20.367Z" style="fill:rgb(161,172,103);fill-rule:nonzero;stroke:rgb(196,195,143);stroke-width:0.09px;"/>
                        </g>
                        <g transform="matrix(1,0,0,1,802.2866,219.8506)">
                            <path d="M0,-18.057L4.487,-14.829C5.222,-14.3 5.993,-13.756 6.887,-13.607C7.623,-13.484 8.377,-13.644 9.095,-13.848C10.294,-14.188 11.457,-14.657 12.558,-15.243C11.073,-14.131 9.321,-13.376 7.492,-13.062C8.727,-12.067 9.963,-11.072 11.198,-10.077C11.891,-9.519 12.623,-8.942 13.497,-8.777C14.186,-8.647 14.897,-8.787 15.569,-8.989C16.314,-9.213 17.037,-9.512 17.722,-9.881C18.088,-10.078 18.458,-10.3 18.872,-10.339C19.115,-10.361 19.359,-10.319 19.597,-10.265C20.294,-10.105 20.965,-9.837 21.581,-9.473C20.463,-9.876 19.262,-10.043 18.077,-9.961C18.106,-9.853 18.135,-9.745 18.164,-9.637C16.871,-9.056 15.51,-8.624 14.119,-8.354C14.749,-7.581 15.925,-7.566 16.766,-7.029C17.19,-6.759 17.515,-6.363 17.85,-5.989C18.859,-4.861 20.016,-3.868 21.284,-3.043C22.912,-1.983 24.813,-1.108 25.748,0.594C24.767,0.562 24.26,-0.65 23.347,-1.011C23.114,-1.103 22.858,-1.137 22.642,-1.262C22.361,-1.425 22.185,-1.716 21.998,-1.98C21.733,-2.354 21.422,-2.697 21.075,-2.997C20.824,-3.215 20.52,-3.42 20.189,-3.389C19.6,-3.333 19.353,-2.621 19.241,-2.039C19.066,-1.125 18.89,-0.21 18.714,0.705C18.497,-0.071 18.513,-0.91 18.759,-1.677C18.898,-2.111 19.112,-2.535 19.11,-2.99C19.109,-3.718 18.569,-4.321 18.041,-4.822C15.927,-6.825 13.441,-8.435 10.748,-9.545C10.668,-9.577 10.565,-9.606 10.505,-9.543C10.457,-9.494 10.467,-9.415 10.479,-9.347C10.707,-8.109 10.935,-6.87 11.163,-5.632C11.211,-5.372 11.264,-5.1 11.432,-4.895C11.587,-4.705 11.82,-4.6 12.044,-4.5C12.816,-4.158 13.589,-3.816 14.361,-3.474C13.732,-3.65 13.103,-3.825 12.474,-4.001C12.146,-4.093 11.778,-4.181 11.478,-4.019C11.213,-3.876 11.078,-3.579 10.916,-3.325C10.606,-2.839 10.133,-2.459 9.592,-2.259C10.016,-2.863 10.44,-3.467 10.863,-4.071C10.946,-4.189 11.031,-4.312 11.064,-4.453C11.105,-4.631 11.059,-4.816 11.014,-4.992C10.73,-6.083 10.447,-7.174 10.163,-8.265C10.001,-8.889 9.836,-9.522 9.511,-10.08C9.245,-10.538 8.879,-10.931 8.494,-11.296C5.601,-14.035 1.508,-15.359 -1.062,-18.404C-0.85,-18.762 -0.284,-18.617 0.022,-18.335C0.328,-18.052 0.588,-17.658 0,-18.057Z" style="fill:rgb(161,172,103);fill-rule:nonzero;stroke:rgb(196,195,143);stroke-width:0.09px;"/>
                        </g>
                        <g transform="matrix(1,0,0,1,801.8261,223.9647)">
                            <path d="M0,-21.118C1.151,-18.853 1.179,-16.194 1.937,-13.769C1.989,-13.602 2.048,-13.43 2.17,-13.304C2.323,-13.146 2.549,-13.087 2.763,-13.035C3.633,-12.823 4.502,-12.611 5.372,-12.399C5.59,-12.346 5.832,-12.274 5.938,-12.076C5.992,-11.975 6,-11.856 6.007,-11.741C6.06,-10.829 6.113,-9.917 6.167,-9.006C5.893,-9.598 5.765,-10.257 5.796,-10.909C5.81,-11.216 5.856,-11.542 5.724,-11.82C5.526,-12.233 5.02,-12.38 4.569,-12.464C3.797,-12.607 3.016,-12.697 2.232,-12.732C2.346,-11.216 2.641,-9.714 3.109,-8.267C3.248,-7.838 3.441,-7.369 3.855,-7.188C4.058,-7.099 4.288,-7.094 4.503,-7.038C4.966,-6.917 5.329,-6.57 5.693,-6.26C6.534,-5.546 7.492,-4.97 8.518,-4.562C8.682,-4.497 8.857,-4.435 9.032,-4.457C9.219,-4.481 9.38,-4.598 9.532,-4.711C10.147,-5.167 10.761,-5.624 11.376,-6.081C11.425,-5.934 11.474,-5.787 11.523,-5.639C10.862,-5.258 10.201,-4.876 9.54,-4.494C9.393,-4.409 9.237,-4.314 9.171,-4.158C9.113,-4.021 9.138,-3.864 9.163,-3.717C9.307,-2.884 9.451,-2.05 9.595,-1.216C9.498,-1.099 9.471,-1.189 9.368,-1.301C9.265,-1.412 9.294,-1.685 9.267,-1.835C9.145,-2.517 9.025,-3.343 8.903,-4.025C8.871,-4.209 8.599,-4.085 8.481,-4.228C8.374,-4.357 8.217,-4.428 8.064,-4.496C6.546,-5.171 4.757,-6.24 3.239,-6.915C3.114,-4.222 3.688,-1.167 4.82,1.212C3.965,-0.347 3.336,-2.349 2.792,-4.042C2.214,-4.212 1.668,-3.137 1.666,-2.534C1.664,-1.932 1.896,-1.318 1.728,-0.74C1.491,-1.018 1.468,-1.413 1.462,-1.778C1.456,-2.143 1.447,-2.535 1.229,-2.828C1.01,-3.12 0.496,-3.209 0.301,-2.901C0.199,-3.207 0.945,-3.279 1.249,-3.388C1.552,-3.497 1.517,-3.755 1.812,-3.884C2.599,-4.227 2.829,-5.225 2.768,-6.081C2.625,-8.106 1.963,-10.124 1.505,-12.102C1.145,-13.661 0.784,-15.22 0.423,-16.778C-0.458,-15.796 -0.995,-14.511 -1.077,-13.194C-1.248,-14.197 -1.049,-15.259 -0.526,-16.133C-0.345,-16.436 -0.123,-16.724 -0.027,-17.064C0.142,-17.663 -0.109,-18.29 -0.315,-18.877C-0.706,-19.99 -0.951,-21.154 -1.04,-22.33C-0.709,-22.252 -0.508,-22.118 0,-21.118" style="fill:rgb(161,172,103);fill-rule:nonzero;"/>
                        </g>
                        <g transform="matrix(1,0,0,1,801.8261,223.9647)">
                            <path d="M0,-21.118C1.151,-18.853 1.179,-16.194 1.937,-13.769C1.989,-13.602 2.048,-13.43 2.17,-13.304C2.323,-13.146 2.549,-13.087 2.763,-13.035C3.633,-12.823 4.502,-12.611 5.372,-12.399C5.59,-12.346 5.832,-12.274 5.938,-12.076C5.992,-11.975 6,-11.856 6.007,-11.741C6.06,-10.829 6.113,-9.917 6.167,-9.006C5.893,-9.598 5.765,-10.257 5.796,-10.909C5.81,-11.216 5.856,-11.542 5.724,-11.82C5.526,-12.233 5.02,-12.38 4.569,-12.464C3.797,-12.607 3.016,-12.697 2.232,-12.732C2.346,-11.216 2.641,-9.714 3.109,-8.267C3.248,-7.838 3.441,-7.369 3.855,-7.188C4.058,-7.099 4.288,-7.094 4.503,-7.038C4.966,-6.917 5.329,-6.57 5.693,-6.26C6.534,-5.546 7.492,-4.97 8.518,-4.562C8.682,-4.497 8.857,-4.435 9.032,-4.457C9.219,-4.481 9.38,-4.598 9.532,-4.711C10.147,-5.167 10.761,-5.624 11.376,-6.081C11.425,-5.934 11.474,-5.787 11.523,-5.639C10.862,-5.258 10.201,-4.876 9.54,-4.494C9.393,-4.409 9.237,-4.314 9.171,-4.158C9.113,-4.021 9.138,-3.864 9.163,-3.717C9.307,-2.884 9.451,-2.05 9.595,-1.216C9.498,-1.099 9.471,-1.189 9.368,-1.301C9.265,-1.412 9.294,-1.685 9.267,-1.835C9.145,-2.517 9.025,-3.343 8.903,-4.025C8.871,-4.209 8.599,-4.085 8.481,-4.228C8.374,-4.357 8.217,-4.428 8.064,-4.496C6.546,-5.171 4.757,-6.24 3.239,-6.915C3.114,-4.222 3.688,-1.167 4.82,1.212C3.965,-0.347 3.336,-2.349 2.792,-4.042C2.214,-4.212 1.668,-3.137 1.666,-2.534C1.664,-1.932 1.896,-1.318 1.728,-0.74C1.491,-1.018 1.468,-1.413 1.462,-1.778C1.456,-2.143 1.447,-2.535 1.229,-2.828C1.01,-3.12 0.496,-3.209 0.301,-2.901C0.199,-3.207 0.945,-3.279 1.249,-3.388C1.552,-3.497 1.517,-3.755 1.812,-3.884C2.599,-4.227 2.829,-5.225 2.768,-6.081C2.625,-8.106 1.963,-10.124 1.505,-12.102C1.145,-13.661 0.784,-15.22 0.423,-16.778C-0.458,-15.796 -0.995,-14.511 -1.077,-13.194C-1.248,-14.197 -1.049,-15.259 -0.526,-16.133C-0.345,-16.436 -0.123,-16.724 -0.027,-17.064C0.142,-17.663 -0.109,-18.29 -0.315,-18.877C-0.706,-19.99 -0.951,-21.154 -1.04,-22.33C-0.709,-22.252 -0.508,-22.118 0,-21.118Z" style="fill:none;fill-rule:nonzero;stroke:rgb(196,195,143);stroke-width:0.09px;"/>
                        </g>
                        <g transform="matrix(1,0,0,1,1045.6591,187.062)">
                            <path d="M0,1.275C-0.878,1.929 -5.746,2.036 -6.878,1.794C-10.881,0.937 -12.465,-0.553 -13.945,-4.282C-15.08,-7.144 -15.082,-10.307 -14.353,-11.493C-13.583,-12.744 -10.575,-16.448 -9.565,-17.355C-4.704,-21.723 2.84,-28.351 2.846,-28.358C3.596,-29.318 5.044,-29.311 5.802,-28.358C7.291,-26.483 8.572,-26.354 10.163,-24.459C11.307,-23.097 11.937,-21.345 13.171,-20.063C14.826,-18.345 17.287,-17.736 19.599,-17.145C25.93,-15.525 32.589,-13.162 36.405,-7.867C36.449,-7.806 36.459,-7.726 36.431,-7.656C34.166,-1.889 28.499,1.923 24.477,6.635C23.229,8.098 21.887,9.523 21.056,11.256C20.378,12.668 20.07,14.223 19.707,15.747C18.853,19.337 21.023,25.742 19.84,29.238C19.686,29.694 19.499,30.19 19.078,30.424C18.774,30.593 18.408,30.589 18.061,30.579C11.58,30.398 4.191,28.429 -2.201,27.338C-3.355,27.142 -4.541,26.916 -5.521,26.276C-6.45,25.669 -7.117,24.734 -7.645,23.758C-10.369,18.718 -9.671,12.28 -6.762,7.345C-5.806,5.722 0.227,1.106 0,1.275" style="fill:rgb(103,129,77);fill-rule:nonzero;"/>
                        </g>
                        <g transform="matrix(1,0,0,1,1045.6591,187.062)">
                            <path d="M0,1.275C-0.878,1.929 -5.746,2.036 -6.878,1.794C-10.881,0.937 -12.465,-0.553 -13.945,-4.282C-15.08,-7.144 -15.082,-10.307 -14.353,-11.493C-13.583,-12.744 -10.575,-16.448 -9.565,-17.355C-4.704,-21.723 2.84,-28.351 2.846,-28.358C3.596,-29.318 5.044,-29.311 5.802,-28.358C7.291,-26.483 8.572,-26.354 10.163,-24.459C11.307,-23.097 11.937,-21.345 13.171,-20.063C14.826,-18.345 17.287,-17.736 19.599,-17.145C25.93,-15.525 32.589,-13.162 36.405,-7.867C36.449,-7.806 36.459,-7.726 36.431,-7.656C34.166,-1.889 28.499,1.923 24.477,6.635C23.229,8.098 21.887,9.523 21.056,11.256C20.378,12.668 20.07,14.223 19.707,15.747C18.853,19.337 21.023,25.742 19.84,29.238C19.686,29.694 19.499,30.19 19.078,30.424C18.774,30.593 18.408,30.589 18.061,30.579C11.58,30.398 4.191,28.429 -2.201,27.338C-3.355,27.142 -4.541,26.916 -5.521,26.276C-6.45,25.669 -7.117,24.734 -7.645,23.758C-10.369,18.718 -9.671,12.28 -6.762,7.345C-5.806,5.722 0.227,1.106 0,1.275Z" style="fill:none;fill-rule:nonzero;stroke:black;stroke-width:0.09px;"/>
                        </g>
                        <g transform="matrix(1,0,0,1,1046.1282,158.5164)">
                            <path d="M0,29.525C0.54,27.171 1.08,24.817 1.621,22.463C1.745,21.923 1.871,21.376 2.12,20.881C2.44,20.246 2.946,19.725 3.471,19.245C4.61,18.203 5.874,17.298 7.227,16.555C7.734,16.276 8.268,16.01 8.643,15.568C8.926,15.236 9.098,14.825 9.241,14.412C9.593,13.395 9.788,12.323 9.817,11.247L8.836,14.427C8.753,14.694 8.667,14.968 8.493,15.187C8.294,15.437 8,15.59 7.717,15.74C5.597,16.865 3.627,18.271 1.874,19.909C1.877,17.216 2.092,14.524 2.518,11.865C2.545,11.695 2.574,11.521 2.653,11.368C2.731,11.214 2.853,11.088 2.979,10.969C4.293,9.724 6.03,9.044 7.72,8.393C5.763,8.575 3.866,9.366 2.359,10.629C1.497,6.34 3.557,3.73 3.839,-0.472C3.623,-0.495 3.511,-0.224 3.472,-0.011C2.892,3.111 1.858,4.762 1.642,7.93C1.627,8.154 1.568,8.434 1.349,8.483C1.204,8.516 1.064,8.425 0.943,8.338C0.188,7.794 -0.567,7.25 -1.322,6.707C-0.422,7.51 0.477,8.313 1.377,9.117C1.361,11.6 1.276,14.083 1.12,16.562C-0.341,16.098 -1.682,15.256 -2.734,14.141C-2.328,15.535 -0.791,16.19 0.379,17.051C0.513,17.149 0.648,17.258 0.721,17.408C0.78,17.529 0.792,17.667 0.803,17.801C1.028,20.637 0.728,23.515 -0.076,26.244C-0.386,27.298 -0.773,28.344 -0.852,29.44C-0.869,29.675 -0.806,29.99 -0.571,30.009C-0.44,30.02 -0.327,29.923 -0.232,29.834C0.019,29.598 0.269,29.363 0,29.525Z" style="fill:rgb(161,172,103);fill-rule:nonzero;stroke:rgb(196,195,143);stroke-width:0.09px;"/>
                        </g>
                        <g transform="matrix(1,0,0,1,1044.849,174.7141)">
                            <path d="M0,12.619C-0.799,11.886 -1.599,11.153 -2.398,10.42C-2.727,10.119 -3.075,9.781 -3.136,9.339C-3.18,9.029 -3.072,8.719 -2.966,8.425C-2.586,7.367 -2.206,6.309 -1.825,5.252C-2.673,6.314 -3.324,7.535 -3.734,8.833C-3.864,8.78 -3.99,8.718 -4.111,8.649C-5.377,7.928 -6.138,6.402 -5.953,4.952C-5.814,3.856 -5.189,2.8 -5.386,1.712C-5.434,1.449 -5.527,1.165 -5.406,0.927C-5.321,0.758 -5.148,0.656 -4.984,0.563C-4.358,0.209 -3.732,-0.145 -3.106,-0.498C-3.997,-0.531 -4.894,-0.128 -5.465,0.56C-5.251,0.1 -5.145,-0.409 -5.158,-0.915C-5.586,-0.565 -5.662,0.05 -5.722,0.601C-5.927,2.471 -6.307,4.323 -6.856,6.122C-7.231,5.487 -7.79,4.984 -8.355,4.511C-9.939,3.183 -11.643,1.999 -13.438,0.976C-13.448,1.168 -13.286,1.319 -13.139,1.44C-12.436,2.017 -11.734,2.594 -11.032,3.171C-9.392,4.52 -7.745,5.874 -6.316,7.445C-7.436,7.748 -8.418,8.531 -8.966,9.558C-8.84,9.757 -8.532,9.751 -8.338,9.618C-8.143,9.486 -8.027,9.269 -7.893,9.075C-7.607,8.659 -7.209,8.322 -6.752,8.108C-6.611,8.042 -6.458,7.986 -6.302,8.002C-6.094,8.023 -5.92,8.167 -5.761,8.304C-3.749,10.047 -1.736,11.791 0.277,13.534C0.38,13.187 0.345,12.935 0,12.619" style="fill:rgb(161,172,103);fill-rule:nonzero;"/>
                        </g>
                        <g transform="matrix(1,0,0,1,1044.849,174.7141)">
                            <path d="M0,12.619C-0.799,11.886 -1.599,11.153 -2.398,10.42C-2.727,10.119 -3.075,9.781 -3.136,9.339C-3.18,9.029 -3.072,8.719 -2.966,8.425C-2.586,7.367 -2.206,6.309 -1.825,5.252C-2.673,6.314 -3.324,7.535 -3.734,8.833C-3.864,8.78 -3.99,8.718 -4.111,8.649C-5.377,7.928 -6.138,6.402 -5.953,4.952C-5.814,3.856 -5.189,2.8 -5.386,1.712C-5.434,1.449 -5.527,1.165 -5.406,0.927C-5.321,0.758 -5.148,0.656 -4.984,0.563C-4.358,0.209 -3.732,-0.145 -3.106,-0.498C-3.997,-0.531 -4.894,-0.128 -5.465,0.56C-5.251,0.1 -5.145,-0.409 -5.158,-0.915C-5.586,-0.565 -5.662,0.05 -5.722,0.601C-5.927,2.471 -6.307,4.323 -6.856,6.122C-7.231,5.487 -7.79,4.984 -8.355,4.511C-9.939,3.183 -11.643,1.999 -13.438,0.976C-13.448,1.168 -13.286,1.319 -13.139,1.44C-12.436,2.017 -11.734,2.594 -11.032,3.171C-9.392,4.52 -7.745,5.874 -6.316,7.445C-7.436,7.748 -8.418,8.531 -8.966,9.558C-8.84,9.757 -8.532,9.751 -8.338,9.618C-8.143,9.486 -8.027,9.269 -7.893,9.075C-7.607,8.659 -7.209,8.322 -6.752,8.108C-6.611,8.042 -6.458,7.986 -6.302,8.002C-6.094,8.023 -5.92,8.167 -5.761,8.304C-3.749,10.047 -1.736,11.791 0.277,13.534C0.38,13.187 0.345,12.935 0,12.619Z" style="fill:none;fill-rule:nonzero;stroke:rgb(196,195,143);stroke-width:0.08px;"/>
                        </g>
                        <g transform="matrix(1,0,0,1,1045.5808,181.89)">
                            <path d="M0,6.408L4.661,4.878C5.284,4.674 5.948,4.44 6.332,3.908C6.839,3.205 6.682,2.247 6.729,1.381C6.831,-0.495 8.094,-2.258 9.837,-2.958C8.913,-2.15 7.863,-1.367 7.454,-0.21C6.931,1.272 7.589,3.052 6.802,4.412C8.407,4 10.012,3.587 11.617,3.174C11.935,3.093 12.264,3.006 12.521,2.802C12.724,2.641 12.869,2.419 13.004,2.198C14.938,-0.943 15.971,-4.633 15.949,-8.322C16.547,-6.926 16.238,-5.329 15.919,-3.845C16.96,-5.244 18.073,-6.701 19.669,-7.401C19.42,-6.482 18.6,-5.857 17.914,-5.197C15.752,-3.118 14.636,-0.209 13.584,2.599C16.364,1.869 19.143,1.138 21.922,0.408C22.218,0.33 22.525,0.246 22.758,0.048C22.974,-0.137 23.103,-0.403 23.213,-0.666C23.708,-1.848 23.939,-3.141 23.882,-4.423C23.873,-4.63 23.859,-4.849 23.954,-5.033C24.048,-5.218 24.299,-5.339 24.47,-5.222C24.32,-3.338 23.909,-1.476 23.252,0.296C24.764,0.08 26.256,-0.269 27.707,-0.745C27.911,-0.812 28.118,-0.884 28.286,-1.017C28.503,-1.191 28.632,-1.45 28.747,-1.702C29.339,-2.996 29.771,-4.363 30.03,-5.763C30.471,-5.465 30.383,-4.801 30.244,-4.287C29.956,-3.222 29.668,-2.158 29.38,-1.093C30.446,-1.768 31.578,-2.337 32.756,-2.789C33.786,-3.185 34.882,-3.495 35.98,-3.39C34.415,-2.236 32.584,-1.443 30.671,-1.091C31.468,-0.166 32.04,0.951 32.325,2.138C32.032,1.344 31.562,0.616 30.958,0.023C30.7,-0.232 30.409,-0.466 30.065,-0.582C29.44,-0.793 28.759,-0.581 28.133,-0.369C27.374,-0.113 26.616,0.143 25.858,0.399C27.134,1.779 27.935,3.592 28.095,5.465L26.396,1.531C26.271,1.241 26.125,0.929 25.844,0.786C25.573,0.649 25.249,0.706 24.951,0.766C22.96,1.167 20.97,1.568 18.979,1.969C17.015,2.365 15.01,2.775 13.279,3.786C14.51,5.151 15.853,6.416 17.291,7.561C18.745,8.72 20.431,9.801 22.29,9.769C22.275,9.932 22.26,10.096 22.245,10.259C21.703,10.235 21.159,10.25 20.619,10.303C20.468,10.317 20.31,10.338 20.185,10.424C19.892,10.627 19.923,11.059 19.957,11.414C20.067,12.541 19.882,13.694 19.425,14.73C18.939,13.337 18.748,11.842 18.866,10.371C18.88,10.2 18.897,10.023 18.838,9.862C18.761,9.653 18.57,9.511 18.39,9.38C16.481,7.99 14.679,6.454 13.004,4.79C12.782,4.569 12.544,4.336 12.237,4.273C12.021,4.228 11.797,4.275 11.581,4.322C10.127,4.639 8.673,4.955 7.758,5.208C6.843,5.462 7.016,5.985 7.193,6.374C7.645,7.368 7.956,8.425 8.113,9.506C7.477,8.856 7.022,8.031 6.811,7.146C6.686,6.622 6.641,6.066 6.377,5.596C4.072,5.805 1.991,7.154 -0.312,7.388C-0.328,7.094 -0.344,6.8 0,6.408Z" style="fill:rgb(161,172,103);fill-rule:nonzero;stroke:rgb(196,195,143);stroke-width:0.09px;"/>
                        </g>
                        <g transform="matrix(1,0,0,1,1046.3579,215.5216)">
                            <path d="M0,-25.656C1.047,-24.117 2.093,-22.578 3.139,-21.039C3.654,-20.281 4.197,-19.498 4.994,-19.047C5.65,-18.676 6.42,-18.566 7.172,-18.511C8.428,-18.418 9.694,-18.46 10.942,-18.635C9.147,-18.094 7.223,-17.985 5.379,-18.321C6.207,-16.948 7.034,-15.576 7.862,-14.204C8.326,-13.434 8.82,-12.633 9.593,-12.174C10.202,-11.812 10.926,-11.698 11.633,-11.657C12.417,-11.611 13.207,-11.645 13.985,-11.758C14.4,-11.818 14.828,-11.9 15.234,-11.794C15.473,-11.731 15.69,-11.606 15.897,-11.472C16.503,-11.079 17.047,-10.592 17.505,-10.034C16.584,-10.803 15.502,-11.378 14.349,-11.711C14.339,-11.598 14.33,-11.485 14.32,-11.373C12.891,-11.269 11.451,-11.331 10.036,-11.557C10.367,-10.605 11.478,-10.183 12.09,-9.382C12.398,-8.979 12.57,-8.491 12.758,-8.019C13.324,-6.6 14.079,-5.257 14.996,-4.035C16.174,-2.465 17.674,-0.976 17.972,0.964C17.052,0.593 16.991,-0.732 16.25,-1.391C16.061,-1.559 15.83,-1.681 15.668,-1.875C15.458,-2.126 15.392,-2.463 15.306,-2.778C15.183,-3.226 15.007,-3.658 14.782,-4.063C14.619,-4.357 14.402,-4.657 14.077,-4.742C13.498,-4.893 13.018,-4.303 12.71,-3.79C12.226,-2.983 11.743,-2.175 11.259,-1.368C11.322,-2.18 11.627,-2.971 12.127,-3.613C12.409,-3.977 12.759,-4.305 12.915,-4.738C13.166,-5.429 12.863,-6.188 12.535,-6.846C11.223,-9.479 9.421,-11.868 7.25,-13.854C7.186,-13.913 7.098,-13.976 7.019,-13.937C6.957,-13.907 6.938,-13.829 6.927,-13.76C6.714,-12.506 6.501,-11.252 6.288,-9.998C6.244,-9.734 6.2,-9.458 6.288,-9.205C6.37,-8.971 6.554,-8.791 6.733,-8.619C7.347,-8.026 7.962,-7.434 8.576,-6.842C8.04,-7.226 7.504,-7.611 6.968,-7.996C6.688,-8.196 6.37,-8.407 6.029,-8.358C5.727,-8.314 5.497,-8.079 5.255,-7.894C4.792,-7.541 4.212,-7.343 3.63,-7.341C4.241,-7.767 4.852,-8.194 5.463,-8.62C5.583,-8.704 5.706,-8.791 5.786,-8.913C5.887,-9.068 5.907,-9.259 5.925,-9.442C6.034,-10.576 6.143,-11.709 6.252,-12.843C6.315,-13.491 6.377,-14.149 6.262,-14.791C6.168,-15.318 5.957,-15.818 5.718,-16.297C3.922,-19.899 0.496,-22.574 -0.887,-26.353C-0.562,-26.62 -0.075,-26.286 0.118,-25.912C0.31,-25.538 0.42,-25.073 0,-25.656Z" style="fill:rgb(161,172,103);fill-rule:nonzero;stroke:rgb(196,195,143);stroke-width:0.09px;"/>
                        </g>
                        <g transform="matrix(1,0,0,1,1045.556,212.0544)">
                            <path d="M0,-21.349C0.307,-18.801 -0.587,-16.267 -0.708,-13.704C-0.716,-13.527 -0.72,-13.343 -0.648,-13.182C-0.557,-12.979 -0.363,-12.845 -0.178,-12.721C0.573,-12.219 1.325,-11.716 2.077,-11.214C2.265,-11.088 2.471,-10.936 2.503,-10.712C2.519,-10.596 2.485,-10.481 2.452,-10.369C2.186,-9.486 1.921,-8.602 1.656,-7.718C1.602,-8.375 1.708,-9.045 1.963,-9.653C2.083,-9.94 2.24,-10.232 2.21,-10.542C2.166,-11.003 1.736,-11.318 1.338,-11.553C0.655,-11.957 -0.055,-12.313 -0.787,-12.618C-1.204,-11.14 -1.445,-9.612 -1.502,-8.077C-1.519,-7.622 -1.497,-7.11 -1.168,-6.795C-1.005,-6.64 -0.789,-6.556 -0.605,-6.428C-0.208,-6.153 0.017,-5.698 0.255,-5.277C0.806,-4.308 1.516,-3.429 2.347,-2.687C2.481,-2.568 2.625,-2.449 2.799,-2.41C2.985,-2.367 3.178,-2.422 3.361,-2.477L5.586,-3.138C5.581,-2.982 5.577,-2.825 5.573,-2.668C4.813,-2.535 4.053,-2.402 3.294,-2.269C3.125,-2.239 2.944,-2.203 2.827,-2.077C2.725,-1.967 2.694,-1.81 2.667,-1.662C2.515,-0.821 2.362,0.02 2.21,0.861C2.078,0.939 2.084,0.844 2.025,0.702C1.966,0.561 2.087,0.312 2.113,0.161C2.234,-0.529 2.406,-1.355 2.527,-2.044C2.56,-2.229 2.259,-2.206 2.196,-2.383C2.14,-2.542 2.015,-2.665 1.894,-2.782C0.688,-3.948 -0.64,-5.582 -1.847,-6.749C-2.898,-4.236 -3.413,-1.139 -3.162,1.511C-3.433,-0.265 -3.337,-2.383 -3.266,-4.178C-3.756,-4.539 -4.646,-3.708 -4.857,-3.137C-5.068,-2.566 -5.06,-1.903 -5.42,-1.413C-5.548,-1.758 -5.434,-2.141 -5.313,-2.49C-5.192,-2.838 -5.065,-3.214 -5.171,-3.567C-5.276,-3.92 -5.733,-4.182 -6.025,-3.957C-6.016,-4.283 -5.283,-4.093 -4.958,-4.091C-4.632,-4.089 -4.576,-4.347 -4.251,-4.367C-3.385,-4.419 -2.822,-5.287 -2.583,-6.12C-2.017,-8.091 -1.946,-10.236 -1.695,-12.272C-1.497,-13.876 -1.3,-15.48 -1.102,-17.084C-2.278,-16.457 -3.234,-15.424 -3.767,-14.202C-3.582,-15.214 -3.025,-16.153 -2.227,-16.801C-1.949,-17.026 -1.639,-17.222 -1.43,-17.511C-1.062,-18.021 -1.083,-18.703 -1.075,-19.331C-1.061,-20.523 -0.89,-21.713 -0.567,-22.86C-0.28,-22.671 -0.136,-22.474 0,-21.349" style="fill:rgb(161,172,103);fill-rule:nonzero;"/>
                        </g>
                        <g transform="matrix(1,0,0,1,1045.556,212.0544)">
                            <path d="M0,-21.349C0.307,-18.801 -0.587,-16.267 -0.708,-13.704C-0.716,-13.527 -0.72,-13.343 -0.648,-13.182C-0.557,-12.979 -0.363,-12.845 -0.178,-12.721C0.573,-12.219 1.325,-11.716 2.077,-11.214C2.265,-11.088 2.471,-10.936 2.503,-10.712C2.519,-10.596 2.485,-10.481 2.452,-10.369C2.186,-9.486 1.921,-8.602 1.656,-7.718C1.602,-8.375 1.708,-9.045 1.963,-9.653C2.083,-9.94 2.24,-10.232 2.21,-10.542C2.166,-11.003 1.736,-11.318 1.338,-11.553C0.655,-11.957 -0.055,-12.313 -0.787,-12.618C-1.204,-11.14 -1.445,-9.612 -1.502,-8.077C-1.519,-7.622 -1.497,-7.11 -1.168,-6.795C-1.005,-6.64 -0.789,-6.556 -0.605,-6.428C-0.208,-6.153 0.017,-5.698 0.255,-5.277C0.806,-4.308 1.516,-3.429 2.347,-2.687C2.481,-2.568 2.625,-2.449 2.799,-2.41C2.985,-2.367 3.178,-2.422 3.361,-2.477L5.586,-3.138C5.581,-2.982 5.577,-2.825 5.573,-2.668C4.813,-2.535 4.053,-2.402 3.294,-2.269C3.125,-2.239 2.944,-2.203 2.827,-2.077C2.725,-1.967 2.694,-1.81 2.667,-1.662C2.515,-0.821 2.362,0.02 2.21,0.861C2.078,0.939 2.084,0.844 2.025,0.702C1.966,0.561 2.087,0.312 2.113,0.161C2.234,-0.529 2.406,-1.355 2.527,-2.044C2.56,-2.229 2.259,-2.206 2.196,-2.383C2.14,-2.542 2.015,-2.665 1.894,-2.782C0.688,-3.948 -0.64,-5.582 -1.847,-6.749C-2.898,-4.236 -3.413,-1.139 -3.162,1.511C-3.433,-0.265 -3.337,-2.383 -3.266,-4.178C-3.756,-4.539 -4.646,-3.708 -4.857,-3.137C-5.068,-2.566 -5.06,-1.903 -5.42,-1.413C-5.548,-1.758 -5.434,-2.141 -5.313,-2.49C-5.192,-2.838 -5.065,-3.214 -5.171,-3.567C-5.276,-3.92 -5.733,-4.182 -6.025,-3.957C-6.016,-4.283 -5.283,-4.093 -4.958,-4.091C-4.632,-4.089 -4.576,-4.347 -4.251,-4.367C-3.385,-4.419 -2.822,-5.287 -2.583,-6.12C-2.017,-8.091 -1.946,-10.236 -1.695,-12.272C-1.497,-13.876 -1.3,-15.48 -1.102,-17.084C-2.278,-16.457 -3.234,-15.424 -3.767,-14.202C-3.582,-15.214 -3.025,-16.153 -2.227,-16.801C-1.949,-17.026 -1.639,-17.222 -1.43,-17.511C-1.062,-18.021 -1.083,-18.703 -1.075,-19.331C-1.061,-20.523 -0.89,-21.713 -0.567,-22.86C-0.28,-22.671 -0.136,-22.474 0,-21.349Z" style="fill:none;fill-rule:nonzero;stroke:rgb(196,195,143);stroke-width:0.09px;"/>
                        </g>
                        <g transform="matrix(1,0,0,1,889.5797,172.4173)">
                            <path d="M0,10.783C-0.199,11.883 -3.759,15.355 -4.773,15.963C-8.358,18.113 -10.578,18.105 -14.282,16.352C-17.123,15.007 -19.329,12.647 -19.611,11.254C-19.908,9.784 -20.243,4.923 -20.122,3.543C-19.537,-3.106 -18.524,-13.311 -18.525,-13.32C-18.635,-14.559 -17.549,-15.564 -16.318,-15.38C-13.9,-15.018 -12.854,-15.814 -10.347,-15.509C-8.544,-15.289 -6.852,-14.42 -5.038,-14.323C-2.605,-14.194 -0.343,-15.455 1.794,-16.624C7.649,-19.827 14.266,-22.703 20.804,-21.41C20.88,-21.395 20.943,-21.342 20.971,-21.27C23.299,-15.388 21.725,-8.593 22.006,-2.273C22.094,-0.311 22.085,1.688 22.673,3.561C23.151,5.087 24.004,6.463 24.795,7.853C26.66,11.128 32.743,14.397 34.295,17.831C34.498,18.279 34.704,18.779 34.553,19.247C34.444,19.585 34.168,19.837 33.902,20.071C28.938,24.453 22.051,28.132 16.52,31.772C15.521,32.429 14.478,33.088 13.3,33.293C12.184,33.486 11.035,33.254 9.961,32.893C4.416,31.029 0.45,25.737 -0.818,20.026C-1.235,18.148 0.052,10.498 0,10.783" style="fill:rgb(103,129,77);fill-rule:nonzero;"/>
                        </g>
                        <g transform="matrix(1,0,0,1,889.5797,172.4173)">
                            <path d="M0,10.783C-0.199,11.883 -3.759,15.355 -4.773,15.963C-8.358,18.113 -10.578,18.105 -14.282,16.352C-17.123,15.007 -19.329,12.647 -19.611,11.254C-19.908,9.784 -20.243,4.923 -20.122,3.543C-19.537,-3.106 -18.524,-13.311 -18.525,-13.32C-18.635,-14.559 -17.549,-15.564 -16.318,-15.38C-13.9,-15.018 -12.854,-15.814 -10.347,-15.509C-8.544,-15.289 -6.852,-14.42 -5.038,-14.323C-2.605,-14.194 -0.343,-15.455 1.794,-16.624C7.649,-19.827 14.266,-22.703 20.804,-21.41C20.88,-21.395 20.943,-21.342 20.971,-21.27C23.299,-15.388 21.725,-8.593 22.006,-2.273C22.094,-0.311 22.085,1.688 22.673,3.561C23.151,5.087 24.004,6.463 24.795,7.853C26.66,11.128 32.743,14.397 34.295,17.831C34.498,18.279 34.704,18.779 34.553,19.247C34.444,19.585 34.168,19.837 33.902,20.071C28.938,24.453 22.051,28.132 16.52,31.772C15.521,32.429 14.478,33.088 13.3,33.293C12.184,33.486 11.035,33.254 9.961,32.893C4.416,31.029 0.45,25.737 -0.818,20.026C-1.235,18.148 0.052,10.498 0,10.783Z" style="fill:none;fill-rule:nonzero;stroke:black;stroke-width:0.09px;"/>
                        </g>
                        <g transform="matrix(1,0,0,1,889.7238,158.4947)">
                            <path d="M0,24.158C-1.237,22.024 -2.474,19.891 -3.711,17.757C-3.995,17.267 -4.282,16.772 -4.441,16.229C-4.645,15.531 -4.63,14.79 -4.572,14.065C-4.448,12.494 -4.136,10.938 -3.643,9.44C-3.459,8.879 -3.246,8.308 -3.274,7.717C-3.295,7.272 -3.452,6.845 -3.633,6.437C-4.079,5.433 -4.68,4.497 -5.409,3.673C-4.914,4.693 -4.42,5.712 -3.925,6.731C-3.8,6.988 -3.674,7.252 -3.651,7.537C-3.626,7.863 -3.739,8.182 -3.846,8.491C-4.644,10.807 -5.135,13.23 -5.302,15.674C-7.176,13.662 -8.892,11.502 -10.426,9.221C-10.525,9.075 -10.624,8.925 -10.673,8.756C-10.722,8.587 -10.718,8.407 -10.707,8.231C-10.594,6.385 -9.771,4.667 -8.963,3.004C-10.297,4.504 -11.161,6.416 -11.407,8.409C-15.039,5.808 -15.32,2.424 -18.037,-0.909C-18.214,-0.775 -18.109,-0.496 -17.99,-0.309C-16.247,2.425 -15.869,4.379 -13.823,6.893C-13.678,7.071 -13.527,7.321 -13.656,7.511C-13.741,7.636 -13.91,7.666 -14.06,7.686C-15.002,7.806 -15.945,7.926 -16.888,8.046C-15.656,8.019 -14.425,7.992 -13.193,7.965C-11.474,9.829 -9.808,11.742 -8.197,13.701C-9.611,14.373 -11.198,14.679 -12.761,14.58C-11.487,15.338 -9.883,14.755 -8.41,14.583C-8.241,14.563 -8.064,14.549 -7.905,14.611C-7.777,14.66 -7.672,14.754 -7.571,14.847C-5.426,16.808 -3.644,19.164 -2.342,21.762C-1.84,22.765 -1.4,23.815 -0.696,24.688C-0.544,24.876 -0.277,25.067 -0.089,24.917C0.016,24.834 0.033,24.684 0.042,24.55C0.065,24.2 0.088,23.85 0,24.158Z" style="fill:rgb(161,172,103);fill-rule:nonzero;stroke:rgb(196,195,143);stroke-width:0.09px;"/>
                        </g>
                        <g transform="matrix(1,0,0,1,888.2753,179.4115)">
                            <path d="M0,3.604C-1.108,3.614 -2.215,3.624 -3.323,3.634C-3.778,3.638 -4.273,3.628 -4.627,3.341C-4.875,3.14 -5.01,2.834 -5.137,2.54C-5.59,1.486 -6.043,0.431 -6.497,-0.624C-6.388,0.76 -6.024,2.125 -5.426,3.38C-5.559,3.431 -5.696,3.472 -5.835,3.505C-7.283,3.85 -8.914,3.241 -9.786,2.03C-10.446,1.114 -10.716,-0.11 -11.621,-0.784C-11.84,-0.947 -12.107,-1.094 -12.183,-1.356C-12.237,-1.542 -12.179,-1.739 -12.121,-1.922C-11.9,-2.623 -11.68,-3.323 -11.459,-4.023C-12.147,-3.426 -12.536,-2.501 -12.483,-1.59C-12.643,-2.082 -12.919,-2.535 -13.281,-2.905C-13.357,-2.345 -12.985,-1.833 -12.646,-1.38C-11.495,0.159 -10.489,1.806 -9.645,3.532C-10.368,3.319 -11.135,3.333 -11.887,3.374C-13.995,3.487 -16.092,3.79 -18.144,4.277C-18.018,4.427 -17.792,4.427 -17.597,4.415C-16.671,4.356 -15.745,4.298 -14.819,4.239C-12.655,4.103 -10.482,3.966 -8.32,4.143C-8.945,5.149 -9.132,6.419 -8.826,7.567C-8.593,7.627 -8.367,7.408 -8.315,7.174C-8.262,6.94 -8.326,6.697 -8.362,6.459C-8.438,5.949 -8.375,5.419 -8.184,4.942C-8.125,4.794 -8.049,4.646 -7.922,4.549C-7.751,4.419 -7.522,4.406 -7.307,4.398C-4.59,4.297 -1.873,4.195 0.844,4.094C0.68,3.764 0.478,3.6 0,3.604" style="fill:rgb(161,172,103);fill-rule:nonzero;"/>
                        </g>
                        <g transform="matrix(1,0,0,1,888.2753,179.4115)">
                            <path d="M0,3.604C-1.108,3.614 -2.215,3.624 -3.323,3.634C-3.778,3.638 -4.273,3.628 -4.627,3.341C-4.875,3.14 -5.01,2.834 -5.137,2.54C-5.59,1.486 -6.043,0.431 -6.497,-0.624C-6.388,0.76 -6.024,2.125 -5.426,3.38C-5.559,3.431 -5.696,3.472 -5.835,3.505C-7.283,3.85 -8.914,3.241 -9.786,2.03C-10.446,1.114 -10.716,-0.11 -11.621,-0.784C-11.84,-0.947 -12.107,-1.094 -12.183,-1.356C-12.237,-1.542 -12.179,-1.739 -12.121,-1.922C-11.9,-2.623 -11.68,-3.323 -11.459,-4.023C-12.147,-3.426 -12.536,-2.501 -12.483,-1.59C-12.643,-2.082 -12.919,-2.535 -13.281,-2.905C-13.357,-2.345 -12.985,-1.833 -12.646,-1.38C-11.495,0.159 -10.489,1.806 -9.645,3.532C-10.368,3.319 -11.135,3.333 -11.887,3.374C-13.995,3.487 -16.092,3.79 -18.144,4.277C-18.018,4.427 -17.792,4.427 -17.597,4.415C-16.671,4.356 -15.745,4.298 -14.819,4.239C-12.655,4.103 -10.482,3.966 -8.32,4.143C-8.945,5.149 -9.132,6.419 -8.826,7.567C-8.593,7.627 -8.367,7.408 -8.315,7.174C-8.262,6.94 -8.326,6.697 -8.362,6.459C-8.438,5.949 -8.375,5.419 -8.184,4.942C-8.125,4.794 -8.049,4.646 -7.922,4.549C-7.751,4.419 -7.522,4.406 -7.307,4.398C-4.59,4.297 -1.873,4.195 0.844,4.094C0.68,3.764 0.478,3.6 0,3.604Z" style="fill:none;fill-rule:nonzero;stroke:rgb(196,195,143);stroke-width:0.09px;"/>
                        </g>
                        <g transform="matrix(1,0,0,1,889.494,151.7876)">
                            <path d="M0,31.438C0.805,29.975 1.609,28.511 2.413,27.048C2.736,26.461 3.069,25.824 2.984,25.16C2.873,24.281 2.088,23.676 1.52,22.996C0.289,21.526 0.003,19.329 0.817,17.592C0.69,18.839 0.451,20.155 0.953,21.304C1.594,22.775 3.326,23.645 3.687,25.208C4.597,23.782 5.508,22.355 6.419,20.929C6.599,20.646 6.784,20.353 6.834,20.021C6.873,19.759 6.826,19.493 6.774,19.234C6.028,15.541 4.228,12.067 1.641,9.329C3.059,9.954 3.942,11.362 4.738,12.691C4.541,10.922 4.356,9.059 5.059,7.424C5.514,8.283 5.337,9.321 5.285,10.292C5.121,13.35 6.314,16.299 7.486,19.129C9.052,16.647 10.617,14.165 12.183,11.683C12.349,11.418 12.52,11.142 12.556,10.832C12.588,10.543 12.5,10.255 12.399,9.982C11.944,8.754 11.215,7.628 10.28,6.711C10.129,6.563 9.966,6.41 9.908,6.206C9.85,6.002 9.952,5.737 10.162,5.705C11.363,7.216 12.354,8.892 13.098,10.673C14.075,9.458 14.946,8.158 15.698,6.791C15.803,6.599 15.908,6.401 15.94,6.184C15.982,5.904 15.897,5.621 15.807,5.352C15.347,3.973 14.716,2.652 13.935,1.427C14.472,1.341 14.869,1.898 15.123,2.379C15.65,3.375 16.177,4.37 16.704,5.366C17.029,4.12 17.478,2.905 18.042,1.747C18.535,0.734 19.137,-0.262 20.03,-0.949C19.666,1.004 18.852,2.871 17.669,4.467C18.909,4.602 20.114,5.038 21.154,5.726C20.382,5.337 19.523,5.121 18.659,5.098C18.289,5.089 17.909,5.117 17.572,5.27C16.958,5.548 16.597,6.181 16.277,6.775C15.89,7.495 15.502,8.214 15.114,8.934C17.029,9.075 18.89,9.87 20.315,11.157C18.978,10.572 17.642,9.988 16.305,9.404C16.01,9.275 15.684,9.143 15.374,9.233C15.076,9.319 14.874,9.587 14.694,9.839C13.487,11.526 12.28,13.213 11.074,14.899C9.883,16.563 8.673,18.267 8.085,20.227C9.956,20.389 11.839,20.397 13.711,20.25C15.604,20.102 17.615,19.734 18.981,18.414C19.083,18.547 19.186,18.679 19.289,18.812C18.867,19.172 18.471,19.561 18.105,19.977C18.003,20.093 17.899,20.218 17.866,20.37C17.788,20.725 18.113,21.027 18.386,21.268C19.253,22.032 19.919,23.022 20.299,24.113C18.966,23.412 17.781,22.43 16.844,21.249C16.736,21.112 16.625,20.968 16.469,20.889C16.266,20.787 16.024,20.814 15.798,20.841C13.405,21.134 10.989,21.243 8.579,21.168C8.26,21.158 7.919,21.15 7.647,21.317C7.454,21.435 7.32,21.626 7.191,21.811C6.326,23.061 5.461,24.31 4.955,25.136C4.449,25.963 4.943,26.233 5.346,26.4C6.375,26.827 7.344,27.4 8.215,28.097C7.287,28.055 6.372,27.756 5.599,27.243C5.14,26.938 4.719,26.555 4.194,26.388C2.62,28.151 2.006,30.608 0.45,32.387C0.234,32.179 0.017,31.971 0,31.438Z" style="fill:rgb(161,172,103);fill-rule:nonzero;stroke:rgb(196,195,143);stroke-width:0.09px;"/>
                        </g>
                        <g transform="matrix(1,0,0,1,891.1666,192.6124)">
                            <path d="M0,-8.758C1.854,-8.338 3.707,-7.919 5.561,-7.499C6.473,-7.293 7.424,-7.086 8.333,-7.305C9.082,-7.485 9.733,-7.939 10.333,-8.422C11.335,-9.229 12.251,-10.142 13.06,-11.142C12.097,-9.487 10.737,-8.066 9.127,-7.031C10.701,-6.583 12.275,-6.135 13.849,-5.688C14.732,-5.437 15.659,-5.184 16.556,-5.379C17.263,-5.533 17.882,-5.953 18.438,-6.414C19.056,-6.927 19.622,-7.502 20.124,-8.129C20.392,-8.463 20.655,-8.823 21.032,-9.026C21.253,-9.146 21.503,-9.204 21.751,-9.248C22.477,-9.377 23.222,-9.393 23.953,-9.295C22.73,-9.228 21.521,-8.903 20.429,-8.347C20.5,-8.257 20.571,-8.166 20.642,-8.075C19.648,-7.002 18.53,-6.045 17.317,-5.228C18.227,-4.747 19.349,-5.206 20.365,-5.035C20.876,-4.949 21.344,-4.704 21.813,-4.484C23.225,-3.819 24.724,-3.342 26.26,-3.068C28.234,-2.717 30.391,-2.652 31.965,-1.411C31.02,-1.047 30.051,-1.994 29.039,-1.969C28.781,-1.963 28.523,-1.892 28.267,-1.924C27.935,-1.965 27.651,-2.171 27.367,-2.346C26.964,-2.595 26.531,-2.795 26.081,-2.941C25.755,-3.046 25.383,-3.119 25.081,-2.956C24.544,-2.665 24.597,-1.89 24.725,-1.293C24.926,-0.353 25.128,0.587 25.329,1.526C24.81,0.877 24.488,0.073 24.413,-0.754C24.37,-1.222 24.402,-1.711 24.217,-2.143C23.923,-2.834 23.168,-3.189 22.465,-3.452C19.65,-4.503 16.64,-5.031 13.636,-5.001C13.547,-5 13.437,-4.985 13.406,-4.902C13.38,-4.836 13.421,-4.764 13.46,-4.705C14.175,-3.621 14.89,-2.536 15.605,-1.452C15.756,-1.224 15.916,-0.987 16.157,-0.86C16.381,-0.742 16.645,-0.736 16.898,-0.732C17.769,-0.718 18.641,-0.704 19.512,-0.69C18.844,-0.604 18.176,-0.517 17.508,-0.431C17.159,-0.386 16.774,-0.321 16.554,-0.047C16.36,0.196 16.352,0.532 16.3,0.839C16.201,1.425 15.905,1.977 15.472,2.384L15.949,0.152C15.981,0.005 16.012,-0.145 15.986,-0.293C15.954,-0.478 15.836,-0.635 15.721,-0.784C15.013,-1.706 14.304,-2.628 13.596,-3.55C13.191,-4.078 12.778,-4.612 12.246,-5.011C11.808,-5.339 11.303,-5.565 10.79,-5.757C6.939,-7.194 2.518,-6.803 -1.148,-8.66C-1.091,-9.086 -0.495,-9.176 -0.091,-9.031C0.314,-8.886 0.719,-8.616 0,-8.758Z" style="fill:rgb(161,172,103);fill-rule:nonzero;stroke:rgb(196,195,143);stroke-width:0.09px;"/>
                        </g>
                        <g transform="matrix(1,0,0,1,891.1532,203.516)">
                            <path d="M0,-18.476C2.005,-16.788 3.103,-14.274 4.799,-12.276C4.916,-12.138 5.041,-11.999 5.207,-11.928C5.417,-11.84 5.655,-11.875 5.879,-11.912C6.79,-12.06 7.702,-12.209 8.613,-12.358C8.841,-12.395 9.101,-12.425 9.281,-12.28C9.373,-12.205 9.429,-12.095 9.481,-11.988C9.899,-11.144 10.317,-10.299 10.734,-9.455C10.236,-9.908 9.849,-10.482 9.616,-11.113C9.505,-11.411 9.418,-11.739 9.18,-11.949C8.826,-12.263 8.286,-12.198 7.824,-12.096C7.034,-11.922 6.256,-11.692 5.497,-11.41C6.215,-10.016 7.1,-8.708 8.127,-7.523C8.432,-7.171 8.805,-6.804 9.27,-6.798C9.5,-6.795 9.719,-6.883 9.946,-6.916C10.435,-6.988 10.919,-6.804 11.39,-6.657C12.476,-6.317 13.619,-6.156 14.757,-6.182C14.939,-6.186 15.13,-6.197 15.287,-6.289C15.456,-6.387 15.561,-6.563 15.66,-6.731C16.06,-7.412 16.46,-8.094 16.859,-8.775C16.965,-8.655 17.071,-8.535 17.177,-8.415C16.703,-7.786 16.229,-7.157 15.755,-6.529C15.649,-6.389 15.539,-6.235 15.54,-6.06C15.54,-5.907 15.626,-5.768 15.709,-5.639C16.182,-4.905 16.654,-4.171 17.127,-3.437C17.082,-3.287 17.02,-3.362 16.878,-3.426C16.735,-3.491 16.652,-3.762 16.566,-3.893C16.176,-4.491 15.729,-5.228 15.339,-5.827C15.234,-5.988 15.026,-5.761 14.856,-5.849C14.703,-5.929 14.524,-5.933 14.353,-5.936C12.639,-5.966 10.509,-6.261 8.796,-6.291C9.762,-3.682 11.536,-1.012 13.57,0.792C12.13,-0.345 10.726,-1.993 9.527,-3.382C8.91,-3.31 8.825,-2.07 9.065,-1.497C9.306,-0.924 9.774,-0.434 9.847,0.183C9.51,0.014 9.329,-0.352 9.176,-0.696C9.023,-1.04 8.857,-1.409 8.532,-1.599C8.207,-1.789 7.683,-1.666 7.622,-1.295C7.401,-1.544 8.081,-1.914 8.325,-2.139C8.57,-2.365 8.432,-2.596 8.661,-2.837C9.27,-3.48 9.086,-4.52 8.684,-5.308C7.732,-7.174 6.291,-8.825 5.06,-10.519C4.09,-11.854 3.12,-13.189 2.149,-14.525C1.708,-13.236 1.715,-11.8 2.168,-10.516C1.602,-11.4 1.363,-12.489 1.507,-13.529C1.558,-13.891 1.653,-14.253 1.607,-14.615C1.526,-15.252 1.036,-15.746 0.603,-16.221C-0.217,-17.12 -0.918,-18.127 -1.476,-19.209C-1.13,-19.268 -0.885,-19.221 0,-18.476" style="fill:rgb(161,172,103);fill-rule:nonzero;"/>
                        </g>
                        <g transform="matrix(1,0,0,1,891.1532,203.516)">
                            <path d="M0,-18.476C2.005,-16.788 3.103,-14.274 4.799,-12.276C4.916,-12.138 5.041,-11.999 5.207,-11.928C5.417,-11.84 5.655,-11.875 5.879,-11.912C6.79,-12.06 7.702,-12.209 8.613,-12.358C8.841,-12.395 9.101,-12.425 9.281,-12.28C9.373,-12.205 9.429,-12.095 9.481,-11.988C9.899,-11.144 10.317,-10.299 10.734,-9.455C10.236,-9.908 9.849,-10.482 9.616,-11.113C9.505,-11.411 9.418,-11.739 9.18,-11.949C8.826,-12.263 8.286,-12.198 7.824,-12.096C7.034,-11.922 6.256,-11.692 5.497,-11.41C6.215,-10.016 7.1,-8.708 8.127,-7.523C8.432,-7.171 8.805,-6.804 9.27,-6.798C9.5,-6.795 9.719,-6.883 9.946,-6.916C10.435,-6.988 10.919,-6.804 11.39,-6.657C12.476,-6.317 13.619,-6.156 14.757,-6.182C14.939,-6.186 15.13,-6.197 15.287,-6.289C15.456,-6.387 15.561,-6.563 15.66,-6.731C16.06,-7.412 16.46,-8.094 16.859,-8.775C16.965,-8.655 17.071,-8.535 17.177,-8.415C16.703,-7.786 16.229,-7.157 15.755,-6.529C15.649,-6.389 15.539,-6.235 15.54,-6.06C15.54,-5.907 15.626,-5.768 15.709,-5.639C16.182,-4.905 16.654,-4.171 17.127,-3.437C17.082,-3.287 17.02,-3.362 16.878,-3.426C16.735,-3.491 16.652,-3.762 16.566,-3.893C16.176,-4.491 15.729,-5.228 15.339,-5.827C15.234,-5.988 15.026,-5.761 14.856,-5.849C14.703,-5.929 14.524,-5.933 14.353,-5.936C12.639,-5.966 10.509,-6.261 8.796,-6.291C9.762,-3.682 11.536,-1.012 13.57,0.792C12.13,-0.345 10.726,-1.993 9.527,-3.382C8.91,-3.31 8.825,-2.07 9.065,-1.497C9.306,-0.924 9.774,-0.434 9.847,0.183C9.51,0.014 9.329,-0.352 9.176,-0.696C9.023,-1.04 8.857,-1.409 8.532,-1.599C8.207,-1.789 7.683,-1.666 7.622,-1.295C7.401,-1.544 8.081,-1.914 8.325,-2.139C8.57,-2.365 8.432,-2.596 8.661,-2.837C9.27,-3.48 9.086,-4.52 8.684,-5.308C7.732,-7.174 6.291,-8.825 5.06,-10.519C4.09,-11.854 3.12,-13.189 2.149,-14.525C1.708,-13.236 1.715,-11.8 2.168,-10.516C1.602,-11.4 1.363,-12.489 1.507,-13.529C1.558,-13.891 1.653,-14.253 1.607,-14.615C1.526,-15.252 1.036,-15.746 0.603,-16.221C-0.217,-17.12 -0.918,-18.127 -1.476,-19.209C-1.13,-19.268 -0.885,-19.221 0,-18.476Z" style="fill:none;fill-rule:nonzero;stroke:rgb(196,195,143);stroke-width:0.09px;"/>
                        </g>
                        <g transform="matrix(1,0,0,1,845.2653,226.5848)">
                            <path d="M0,-5.498C-0.987,-6.295 -5.11,-8.817 -6.441,-8.654C-12.708,-7.883 -17.261,-2.064 -19.176,3.952C-19.935,6.333 -20.263,9.283 -18.465,11.017C-17.66,11.794 -16.563,12.173 -15.582,12.711C-14.203,13.466 -13.035,14.548 -11.907,15.643C-7.374,20.045 -3.232,24.85 0.454,29.982C1.028,30.782 1.767,31.677 2.723,31.699C2.823,31.701 2.915,31.642 2.958,31.552C4.446,28.468 8.299,27.303 10.616,24.751C12.001,23.224 12.809,21.224 14.295,19.795C16.288,17.88 19.165,17.285 21.868,16.703C29.271,15.111 37.086,12.672 41.74,6.712C41.794,6.644 41.808,6.552 41.78,6.47C39.415,-0.308 35.915,-6.687 31.469,-12.322C30.089,-14.072 28.599,-15.782 27.714,-17.826C26.992,-19.491 26.705,-21.305 26.353,-23.085C25.525,-27.28 24.309,-31.387 23.095,-35.487C22.937,-36.022 22.743,-36.605 22.266,-36.894C21.922,-37.103 21.498,-37.115 21.096,-37.119C13.584,-37.199 6.066,-36.749 -1.383,-35.772C-2.728,-35.595 -4.112,-35.388 -5.275,-34.69C-6.377,-34.028 -7.192,-32.976 -7.846,-31.87C-11.225,-26.157 -10.705,-18.671 -7.558,-12.828C-6.523,-10.906 0.256,-5.292 0,-5.498" style="fill:rgb(102,97,83);fill-rule:nonzero;"/>
                        </g>
                        <g transform="matrix(1,0,0,1,845.2653,226.5848)">
                            <path d="M0,-5.498C-0.987,-6.295 -5.11,-8.817 -6.441,-8.654C-12.708,-7.883 -17.261,-2.064 -19.176,3.952C-19.935,6.333 -20.263,9.283 -18.465,11.017C-17.66,11.794 -16.563,12.173 -15.582,12.711C-14.203,13.466 -13.035,14.548 -11.907,15.643C-7.374,20.045 -3.232,24.85 0.454,29.982C1.028,30.782 1.767,31.677 2.723,31.699C2.823,31.701 2.915,31.642 2.958,31.552C4.446,28.468 8.299,27.303 10.616,24.751C12.001,23.224 12.809,21.224 14.295,19.795C16.288,17.88 19.165,17.285 21.868,16.703C29.271,15.111 37.086,12.672 41.74,6.712C41.794,6.644 41.808,6.552 41.78,6.47C39.415,-0.308 35.915,-6.687 31.469,-12.322C30.089,-14.072 28.599,-15.782 27.714,-17.826C26.992,-19.491 26.705,-21.305 26.353,-23.085C25.525,-27.28 24.309,-31.387 23.095,-35.487C22.937,-36.022 22.743,-36.605 22.266,-36.894C21.922,-37.103 21.498,-37.115 21.096,-37.119C13.584,-37.199 6.066,-36.749 -1.383,-35.772C-2.728,-35.595 -4.112,-35.388 -5.275,-34.69C-6.377,-34.028 -7.192,-32.976 -7.846,-31.87C-11.225,-26.157 -10.705,-18.671 -7.558,-12.828C-6.523,-10.906 0.256,-5.292 0,-5.498Z" style="fill:none;fill-rule:nonzero;stroke:black;stroke-width:0.11px;"/>
                        </g>
                        <g transform="matrix(1,0,0,1,845.7951,257.4881)">
                            <path d="M0,-36.038C0.52,-33.288 1.041,-30.539 1.561,-27.789C1.68,-27.158 1.802,-26.52 2.068,-25.936C2.41,-25.186 2.973,-24.56 3.56,-23.981C4.832,-22.724 6.254,-21.619 7.788,-20.699C8.363,-20.354 8.969,-20.021 9.383,-19.493C9.695,-19.096 9.877,-18.612 10.024,-18.128C10.386,-16.935 10.564,-15.685 10.549,-14.438C10.218,-15.68 9.886,-16.922 9.555,-18.164C9.472,-18.477 9.384,-18.798 9.193,-19.059C8.973,-19.357 8.639,-19.547 8.318,-19.733C5.915,-21.131 3.697,-22.846 1.74,-24.821C1.623,-21.704 1.752,-18.577 2.126,-15.48C2.15,-15.281 2.176,-15.079 2.26,-14.897C2.343,-14.716 2.48,-14.565 2.619,-14.422C4.086,-12.921 6.067,-12.056 7.994,-11.227C5.736,-11.526 3.575,-12.526 1.887,-14.055C2.025,-9.179 2.163,-4.302 2.301,0.575C2.05,0.592 1.933,0.274 1.897,0.025C1.366,-3.615 1.045,-7.285 0.936,-10.962C0.929,-11.223 0.873,-11.549 0.622,-11.616C0.456,-11.661 0.289,-11.561 0.145,-11.466C-0.753,-10.871 -1.652,-10.275 -2.55,-9.679C-1.473,-10.569 -0.395,-11.459 0.683,-12.349C0.775,-15.225 0.787,-18.103 0.718,-20.98C-0.995,-20.508 -2.584,-19.593 -3.853,-18.349C-3.321,-19.945 -1.512,-20.635 -0.119,-21.579C0.041,-21.687 0.203,-21.807 0.294,-21.978C0.367,-22.115 0.388,-22.273 0.406,-22.428C0.793,-25.702 0.575,-29.047 -0.234,-32.243C-0.546,-33.477 -0.948,-34.705 -0.99,-35.977C-0.999,-36.251 -0.912,-36.613 -0.639,-36.624C-0.487,-36.63 -0.361,-36.514 -0.254,-36.406C0.025,-36.122 0.304,-35.838 0,-36.038" style="fill:rgb(203,195,155);fill-rule:nonzero;"/>
                        </g>
                        <g transform="matrix(1,0,0,1,844.2369,238.258)">
                            <path d="M0,-15.933C-1.065,-15.033 -2.131,-14.133 -3.196,-13.233C-3.633,-12.863 -4.099,-12.447 -4.2,-11.884C-4.271,-11.489 -4.148,-11.087 -4.026,-10.704C-3.589,-9.33 -3.152,-7.955 -2.715,-6.581C-3.753,-7.985 -4.53,-9.581 -4.995,-11.265C-5.164,-11.204 -5.329,-11.131 -5.489,-11.048C-7.154,-10.187 -8.209,-8.269 -8.043,-6.401C-7.918,-4.989 -7.166,-3.604 -7.474,-2.221C-7.548,-1.886 -7.682,-1.526 -7.539,-1.215C-7.438,-0.994 -7.22,-0.855 -7.013,-0.728C-6.225,-0.243 -5.437,0.241 -4.649,0.726C-5.798,0.723 -6.932,0.163 -7.633,-0.747C-7.38,-0.148 -7.269,0.51 -7.311,1.159C-7.844,0.688 -7.912,-0.103 -7.962,-0.812C-8.132,-3.22 -8.53,-5.612 -9.147,-7.945C-9.661,-7.149 -10.406,-6.533 -11.156,-5.954C-13.261,-4.331 -15.513,-2.897 -17.874,-1.675C-17.877,-1.921 -17.661,-2.107 -17.465,-2.255C-16.533,-2.96 -15.601,-3.665 -14.668,-4.37C-12.49,-6.017 -10.304,-7.671 -8.386,-9.614C-9.812,-10.058 -11.038,-11.11 -11.692,-12.453C-11.519,-12.702 -11.123,-12.679 -10.88,-12.5C-10.636,-12.32 -10.498,-12.036 -10.335,-11.781C-9.987,-11.234 -9.491,-10.782 -8.915,-10.485C-8.736,-10.393 -8.541,-10.314 -8.341,-10.327C-8.071,-10.343 -7.841,-10.519 -7.63,-10.688C-4.952,-12.822 -2.275,-14.957 0.402,-17.092C0.517,-16.643 0.46,-16.321 0,-15.933" style="fill:rgb(203,195,155);fill-rule:nonzero;"/>
                        </g>
                        <g transform="matrix(1,0,0,1,845.173,230.1275)">
                            <path d="M0,-8.999C1.776,-8.339 3.552,-7.679 5.328,-7.019C6.04,-6.755 6.799,-6.454 7.219,-5.822C7.775,-4.985 7.55,-3.883 7.566,-2.878C7.6,-0.702 8.984,1.396 10.971,2.284C9.937,1.307 8.756,0.354 8.334,-1.004C7.795,-2.743 8.636,-4.774 7.786,-6.384C9.626,-5.835 11.466,-5.285 13.306,-4.736C13.67,-4.627 14.046,-4.512 14.335,-4.265C14.564,-4.069 14.72,-3.806 14.868,-3.544C16.967,0.18 17.997,4.497 17.807,8.767C18.561,7.178 18.275,5.315 17.973,3.583C19.115,5.249 20.338,6.986 22.155,7.868C21.908,6.792 20.987,6.032 20.221,5.237C17.812,2.733 16.65,-0.684 15.557,-3.982C18.742,-3.012 21.927,-2.042 25.112,-1.072C25.452,-0.969 25.803,-0.859 26.064,-0.618C26.306,-0.394 26.444,-0.081 26.559,0.228C27.08,1.619 27.289,3.127 27.166,4.607C27.146,4.847 27.12,5.1 27.221,5.318C27.323,5.535 27.607,5.687 27.811,5.559C27.721,3.371 27.329,1.197 26.647,-0.884C28.388,-0.566 30.1,-0.096 31.758,0.521C31.991,0.607 32.228,0.699 32.417,0.862C32.661,1.072 32.798,1.378 32.92,1.675C33.547,3.2 33.986,4.802 34.223,6.434C34.748,6.109 34.676,5.336 34.537,4.735C34.251,3.489 33.966,2.244 33.68,0.998C34.883,1.827 36.169,2.536 37.512,3.113C38.687,3.617 39.943,4.025 41.219,3.953C39.458,2.546 37.374,1.547 35.175,1.054C36.139,0.019 36.851,-1.249 37.234,-2.611C36.859,-1.705 36.282,-0.883 35.557,-0.223C35.246,0.06 34.899,0.318 34.496,0.437C33.762,0.653 32.983,0.377 32.268,0.105L29.668,-0.887C31.208,-2.428 32.216,-4.49 32.485,-6.652C31.771,-5.159 31.057,-3.666 30.342,-2.173C30.185,-1.843 30.002,-1.488 29.67,-1.336C29.35,-1.189 28.977,-1.269 28.636,-1.352C26.349,-1.905 24.062,-2.458 21.775,-3.012C19.518,-3.557 17.215,-4.123 15.257,-5.37C16.743,-6.896 18.355,-8.3 20.07,-9.562C21.806,-10.838 23.806,-12.014 25.957,-11.894C25.947,-12.084 25.937,-12.274 25.926,-12.464C25.297,-12.46 24.669,-12.501 24.046,-12.587C23.872,-12.611 23.69,-12.641 23.549,-12.746C23.219,-12.994 23.274,-13.494 23.33,-13.903C23.507,-15.202 23.344,-16.546 22.862,-17.766C22.237,-16.174 21.948,-14.452 22.02,-12.744C22.028,-12.546 22.04,-12.34 21.964,-12.156C21.865,-11.918 21.638,-11.762 21.424,-11.618C19.152,-10.094 16.997,-8.396 14.983,-6.544C14.716,-6.299 14.43,-6.039 14.072,-5.98C13.819,-5.938 13.563,-6.003 13.314,-6.067C11.645,-6.498 9.976,-6.929 8.928,-7.264C7.88,-7.598 8.104,-8.196 8.326,-8.638C8.894,-9.769 9.301,-10.979 9.531,-12.223C8.766,-11.499 8.202,-10.564 7.919,-9.549C7.751,-8.948 7.674,-8.306 7.347,-7.774C4.687,-8.119 2.339,-9.774 -0.317,-10.148C-0.349,-9.808 -0.381,-9.469 0,-8.999" style="fill:rgb(203,195,155);fill-rule:nonzero;"/>
                        </g>
                        <g transform="matrix(1,0,0,1,846.1114,191.6334)">
                            <path d="M0,27.751C1.242,26.086 2.485,24.422 3.727,22.757C4.339,21.938 4.982,21.091 5.897,20.624C6.651,20.24 7.52,20.151 8.368,20.122C9.783,20.073 11.204,20.174 12.598,20.422C10.605,19.744 8.448,19.54 6.361,19.834C7.351,18.345 8.34,16.856 9.329,15.367C9.884,14.532 10.474,13.664 11.362,13.187C12.062,12.811 12.88,12.716 13.676,12.7C14.56,12.683 15.445,12.754 16.315,12.913C16.779,12.997 17.256,13.107 17.717,13.006C17.988,12.947 18.237,12.818 18.476,12.678C19.173,12.267 19.806,11.75 20.345,11.149C19.277,11.964 18.036,12.556 16.726,12.876C16.72,12.751 16.714,12.625 16.708,12.5C15.107,12.323 13.486,12.331 11.887,12.521C12.3,11.477 13.566,11.057 14.288,10.194C14.652,9.759 14.867,9.224 15.099,8.708C15.796,7.156 16.702,5.696 17.785,4.378C19.177,2.685 20.927,1.095 21.346,-1.047C20.297,-0.674 20.17,0.795 19.309,1.496C19.089,1.674 18.824,1.799 18.634,2.007C18.387,2.277 18.298,2.649 18.188,2.996C18.031,3.487 17.815,3.96 17.544,4.401C17.348,4.72 17.091,5.044 16.722,5.124C16.065,5.267 15.551,4.591 15.228,4.008C14.719,3.091 14.211,2.173 13.702,1.256C13.738,2.16 14.047,3.052 14.58,3.787C14.882,4.202 15.26,4.582 15.417,5.07C15.669,5.848 15.296,6.678 14.899,7.395C13.31,10.264 11.183,12.84 8.657,14.953C8.583,15.016 8.481,15.081 8.394,15.036C8.326,14.999 8.308,14.911 8.298,14.835C8.113,13.433 7.929,12.03 7.744,10.628C7.705,10.334 7.668,10.024 7.778,9.748C7.88,9.492 8.095,9.299 8.303,9.115L10.451,7.221C9.832,7.625 9.213,8.029 8.594,8.433C8.271,8.644 7.904,8.865 7.523,8.795C7.187,8.734 6.938,8.463 6.674,8.247C6.169,7.835 5.526,7.591 4.872,7.563C5.54,8.063 6.208,8.563 6.877,9.062C7.008,9.161 7.143,9.262 7.227,9.402C7.333,9.578 7.348,9.791 7.36,9.995C7.433,11.259 7.507,12.523 7.58,13.787C7.622,14.51 7.663,15.243 7.507,15.951C7.378,16.532 7.12,17.079 6.83,17.601C4.656,21.524 0.691,24.349 -1.027,28.487C-0.673,28.798 -0.111,28.448 0.121,28.04C0.353,27.633 0.497,27.122 0,27.751" style="fill:rgb(203,195,155);fill-rule:nonzero;"/>
                        </g>
                        <g transform="matrix(1,0,0,1,845.2518,193.4561)">
                            <path d="M0,24.884C0.469,21.948 -0.452,18.974 -0.478,16.001C-0.48,15.796 -0.476,15.583 -0.385,15.4C-0.271,15.169 -0.04,15.022 0.179,14.887C1.072,14.339 1.965,13.791 2.858,13.243C3.081,13.106 3.326,12.939 3.373,12.68C3.397,12.548 3.363,12.412 3.329,12.281C3.061,11.247 2.794,10.212 2.526,9.177C2.434,9.935 2.527,10.715 2.795,11.43C2.922,11.768 3.09,12.114 3.042,12.471C2.97,13.003 2.458,13.348 1.986,13.603C1.178,14.039 0.34,14.42 -0.521,14.74C-0.938,13.01 -1.148,11.231 -1.146,9.451C-1.145,8.923 -1.097,8.332 -0.702,7.982C-0.507,7.809 -0.253,7.722 -0.033,7.582C0.439,7.281 0.719,6.764 1.014,6.288C1.694,5.191 2.555,4.205 3.552,3.383C3.711,3.251 3.883,3.12 4.087,3.082C4.304,3.041 4.525,3.113 4.735,3.185C5.583,3.473 6.432,3.762 7.281,4.05C7.283,3.868 7.285,3.687 7.286,3.505C6.413,3.317 5.54,3.129 4.666,2.941C4.472,2.899 4.264,2.849 4.134,2.698C4.021,2.566 3.992,2.383 3.967,2.21C3.828,1.23 3.69,0.249 3.551,-0.731C3.401,-0.827 3.404,-0.717 3.329,-0.556C3.255,-0.395 3.384,-0.1 3.408,0.075C3.517,0.879 3.68,1.843 3.789,2.647C3.818,2.863 3.471,2.822 3.39,3.024C3.318,3.205 3.168,3.342 3.023,3.472C1.574,4.769 -0.036,6.601 -1.485,7.898C-2.591,4.942 -3.048,1.333 -2.639,-1.724C-3.032,0.32 -3.016,2.776 -3.014,4.858C-3.598,5.254 -4.591,4.252 -4.81,3.582C-5.028,2.911 -4.99,2.144 -5.385,1.56C-5.548,1.954 -5.432,2.404 -5.308,2.812C-5.184,3.221 -5.054,3.661 -5.192,4.065C-5.33,4.469 -5.871,4.753 -6.199,4.479C-6.203,4.857 -5.346,4.67 -4.969,4.682C-4.591,4.694 -4.538,4.995 -4.162,5.033C-3.163,5.132 -2.549,6.162 -2.31,7.137C-1.743,9.445 -1.756,11.931 -1.557,14.299C-1.4,16.165 -1.242,18.031 -1.085,19.897C-2.419,19.118 -3.479,17.88 -4.042,16.441C-3.873,17.621 -3.27,18.733 -2.375,19.519C-2.063,19.792 -1.713,20.032 -1.484,20.377C-1.081,20.984 -1.135,21.772 -1.155,22.5C-1.192,23.88 -1.046,25.265 -0.724,26.608C-0.383,26.402 -0.207,26.181 0,24.884" style="fill:rgb(203,195,155);fill-rule:nonzero;"/>
                        </g>
                        <g transform="matrix(1,0,0,1,927.7665,207.8636)">
                            <path d="M0,9.901C-0.958,10.003 -4.526,10.863 -5.152,11.665C-8.103,15.443 -7.423,21.011 -5.222,25.27C-4.351,26.955 -2.943,28.715 -1.047,28.681C-0.197,28.666 0.595,28.28 1.411,28.042C2.556,27.707 3.764,27.661 4.957,27.643C9.754,27.573 14.558,27.929 19.292,28.706C20.029,28.827 20.907,28.91 21.432,28.409C21.487,28.356 21.504,28.276 21.479,28.204C20.622,25.749 22.065,23.055 21.939,20.441C21.863,18.878 21.223,17.37 21.254,15.806C21.295,13.707 22.521,11.843 23.659,10.08C26.779,5.25 29.665,-0.254 28.964,-5.953C28.956,-6.018 28.915,-6.076 28.855,-6.104C23.947,-8.473 18.643,-10.019 13.231,-10.658C11.551,-10.856 9.833,-10.974 8.26,-11.596C6.979,-12.103 5.851,-12.922 4.706,-13.689C2.009,-15.497 -0.848,-17.049 -3.701,-18.598C-4.073,-18.801 -4.49,-19.009 -4.902,-18.909C-5.198,-18.836 -5.432,-18.615 -5.651,-18.401C-9.727,-14.411 -13.521,-10.133 -16.996,-5.61C-17.623,-4.793 -18.255,-3.938 -18.504,-2.939C-18.741,-1.992 -18.613,-0.99 -18.37,-0.045C-17.118,4.836 -12.819,8.576 -7.992,10.023C-6.405,10.499 0.248,9.875 0,9.901" style="fill:rgb(102,97,83);fill-rule:nonzero;"/>
                        </g>
                        <g transform="matrix(1,0,0,1,927.7665,207.8636)">
                            <path d="M0,9.901C-0.958,10.003 -4.526,10.863 -5.152,11.665C-8.103,15.443 -7.423,21.011 -5.222,25.27C-4.351,26.955 -2.943,28.715 -1.047,28.681C-0.197,28.666 0.595,28.28 1.411,28.042C2.556,27.707 3.764,27.661 4.957,27.643C9.754,27.573 14.558,27.929 19.292,28.706C20.029,28.827 20.907,28.91 21.432,28.409C21.487,28.356 21.504,28.276 21.479,28.204C20.622,25.749 22.065,23.055 21.939,20.441C21.863,18.878 21.223,17.37 21.254,15.806C21.295,13.707 22.521,11.843 23.659,10.08C26.779,5.25 29.665,-0.254 28.964,-5.953C28.956,-6.018 28.915,-6.076 28.855,-6.104C23.947,-8.473 18.643,-10.019 13.231,-10.658C11.551,-10.856 9.833,-10.974 8.26,-11.596C6.979,-12.103 5.851,-12.922 4.706,-13.689C2.009,-15.497 -0.848,-17.049 -3.701,-18.598C-4.073,-18.801 -4.49,-19.009 -4.902,-18.909C-5.198,-18.836 -5.432,-18.615 -5.651,-18.401C-9.727,-14.411 -13.521,-10.133 -16.996,-5.61C-17.623,-4.793 -18.255,-3.938 -18.504,-2.939C-18.741,-1.992 -18.613,-0.99 -18.37,-0.045C-17.118,4.836 -12.819,8.576 -7.992,10.023C-6.405,10.499 0.248,9.875 0,9.901Z" style="fill:none;fill-rule:nonzero;stroke:black;stroke-width:0.08px;"/>
                        </g>
                        <g transform="matrix(1,0,0,1,928.2459,236.1782)">
                            <path d="M0,-18.503C1.756,-17.306 3.511,-16.109 5.267,-14.912C5.669,-14.638 6.077,-14.361 6.534,-14.19C7.12,-13.971 7.758,-13.937 8.384,-13.941C9.742,-13.949 11.099,-14.12 12.416,-14.449C12.91,-14.572 13.414,-14.719 13.92,-14.658C14.301,-14.612 14.658,-14.45 14.997,-14.269C15.832,-13.823 16.598,-13.248 17.26,-12.57C16.415,-13.059 15.571,-13.548 14.726,-14.037C14.513,-14.16 14.294,-14.285 14.051,-14.322C13.772,-14.365 13.492,-14.287 13.219,-14.215C11.179,-13.675 9.067,-13.405 6.956,-13.415C8.567,-11.679 10.315,-10.069 12.179,-8.607C12.298,-8.514 12.42,-8.419 12.563,-8.367C12.705,-8.314 12.86,-8.306 13.011,-8.304C14.604,-8.286 16.132,-8.885 17.612,-9.475C16.239,-8.423 14.542,-7.8 12.815,-7.714C15.507,-5.17 18.2,-2.626 20.892,-0.082C20.767,0.062 20.533,-0.046 20.38,-0.16C18.14,-1.829 15.997,-3.628 13.965,-5.543C13.821,-5.679 13.616,-5.825 13.445,-5.726C13.332,-5.66 13.296,-5.517 13.27,-5.389C13.107,-4.587 12.945,-3.785 12.782,-2.982C12.883,-4.039 12.984,-5.095 13.085,-6.151C11.59,-7.745 10.051,-9.297 8.47,-10.804C7.803,-9.631 7.441,-8.287 7.428,-6.938C6.857,-8.08 7.458,-9.422 7.699,-10.676C7.727,-10.82 7.749,-10.972 7.706,-11.112C7.672,-11.225 7.598,-11.321 7.525,-11.414C5.975,-13.38 4.062,-15.058 1.912,-16.34C1.082,-16.835 0.207,-17.279 -0.499,-17.939C-0.651,-18.081 -0.798,-18.322 -0.658,-18.475C-0.579,-18.56 -0.449,-18.565 -0.334,-18.564C-0.032,-18.562 0.271,-18.559 0,-18.503" style="fill:rgb(203,195,155);fill-rule:nonzero;"/>
                        </g>
                        <g transform="matrix(1,0,0,1,927.8791,235.3933)">
                            <path d="M0,-16.412L-0.266,-13.246C-0.303,-12.813 -0.329,-12.34 -0.081,-11.983C0.093,-11.733 0.375,-11.584 0.646,-11.443L3.563,-9.933C2.252,-10.13 0.978,-10.57 -0.175,-11.224C-0.234,-11.101 -0.283,-10.973 -0.324,-10.843C-0.756,-9.486 -0.292,-7.89 0.799,-6.976C1.625,-6.286 2.772,-5.946 3.349,-5.038C3.489,-4.818 3.61,-4.553 3.854,-4.463C4.027,-4.399 4.219,-4.441 4.398,-4.484C5.081,-4.646 5.764,-4.809 6.448,-4.972C5.83,-4.357 4.92,-4.049 4.055,-4.161C4.512,-3.975 4.925,-3.682 5.251,-3.311C4.712,-3.277 4.251,-3.666 3.843,-4.02C2.459,-5.221 0.962,-6.291 -0.623,-7.213C-0.471,-6.509 -0.54,-5.779 -0.632,-5.065C-0.891,-3.064 -1.33,-1.085 -1.941,0.838C-2.075,0.708 -2.059,0.493 -2.033,0.308C-1.911,-0.571 -1.789,-1.45 -1.667,-2.329C-1.382,-4.382 -1.096,-6.445 -1.11,-8.518C-2.114,-7.99 -3.337,-7.897 -4.409,-8.267C-4.45,-8.493 -4.225,-8.693 -3.998,-8.728C-3.771,-8.762 -3.544,-8.684 -3.32,-8.634C-2.839,-8.527 -2.33,-8.551 -1.861,-8.701C-1.716,-8.748 -1.569,-8.81 -1.468,-8.924C-1.332,-9.078 -1.303,-9.296 -1.28,-9.5C-0.989,-12.083 -0.698,-14.666 -0.406,-17.25C-0.103,-17.071 0.038,-16.867 0,-16.412" style="fill:rgb(203,195,155);fill-rule:nonzero;"/>
                        </g>
                        <g transform="matrix(1,0,0,1,927.7393,201.6145)">
                            <path d="M0,16.222C1.308,15.623 2.616,15.023 3.923,14.424C4.447,14.184 5.016,13.938 5.581,14.052C6.329,14.203 6.8,14.915 7.348,15.446C8.534,16.596 10.404,16.98 11.947,16.39C10.868,16.42 9.722,16.543 8.767,16.04C7.543,15.396 6.905,13.854 5.584,13.446C6.867,12.753 8.149,12.06 9.432,11.367C9.686,11.23 9.95,11.09 10.238,11.067C10.465,11.05 10.691,11.107 10.911,11.169C14.037,12.041 16.908,13.805 19.098,16.2C18.65,14.942 17.496,14.096 16.404,13.328C17.911,13.609 19.5,13.885 20.95,13.383C20.24,12.938 19.337,13.025 18.499,13.009C15.861,12.958 13.403,11.748 11.045,10.563C13.276,9.374 15.507,8.185 17.737,6.996C17.975,6.869 18.223,6.739 18.492,6.728C18.743,6.718 18.985,6.813 19.212,6.917C20.239,7.384 21.16,8.081 21.889,8.942C22.007,9.081 22.129,9.231 22.3,9.294C22.472,9.356 22.706,9.285 22.746,9.107C21.524,7.981 20.146,7.024 18.663,6.273C19.768,5.509 20.94,4.842 22.161,4.283C22.332,4.204 22.509,4.126 22.697,4.112C22.941,4.094 23.179,4.185 23.405,4.279C24.56,4.761 25.655,5.385 26.659,6.134C26.766,5.678 26.312,5.302 25.915,5.053C25.093,4.538 24.271,4.023 23.449,3.508C24.54,3.306 25.611,2.997 26.642,2.585C27.543,2.225 28.436,1.77 29.083,1.046C27.382,1.237 25.727,1.819 24.281,2.735C24.243,1.661 23.945,0.598 23.419,-0.338C23.705,0.349 23.836,1.101 23.801,1.844C23.786,2.163 23.738,2.488 23.586,2.768C23.308,3.278 22.741,3.548 22.211,3.786C21.569,4.073 20.926,4.361 20.283,4.649C20.283,2.995 19.716,1.347 18.7,0.042C19.118,1.227 19.536,2.412 19.954,3.597C20.047,3.859 20.14,4.147 20.043,4.407C19.95,4.658 19.707,4.815 19.479,4.954L14.905,7.746C13.4,8.665 11.86,9.598 10.14,9.979C10.118,8.362 10.23,6.743 10.473,5.145C10.719,3.527 11.162,1.823 12.381,0.732C12.274,0.636 12.166,0.539 12.059,0.443C11.723,0.782 11.364,1.098 10.983,1.387C10.877,1.467 10.763,1.548 10.631,1.567C10.32,1.612 10.082,1.314 9.892,1.064C9.29,0.271 8.481,-0.363 7.567,-0.758C8.086,0.431 8.856,1.511 9.811,2.39C9.922,2.492 10.039,2.596 10.097,2.735C10.172,2.916 10.134,3.122 10.096,3.314C9.694,5.352 9.449,7.421 9.362,9.496C9.35,9.771 9.336,10.064 9.176,10.288C9.062,10.446 8.89,10.549 8.722,10.648C7.595,11.313 6.467,11.977 5.725,12.36C4.983,12.743 4.782,12.302 4.664,11.946C4.362,11.034 3.93,10.166 3.386,9.374C3.364,10.174 3.563,10.978 3.956,11.675C4.188,12.088 4.492,12.474 4.602,12.935C2.989,14.178 0.839,14.55 -0.787,15.775C-0.622,15.975 -0.457,16.174 0,16.222" style="fill:rgb(203,195,155);fill-rule:nonzero;"/>
                        </g>
                        <g transform="matrix(1,0,0,1,927.3068,190.4224)">
                            <path d="M0,25.974C-0.227,24.413 -0.453,22.852 -0.68,21.292C-0.792,20.524 -0.901,19.724 -0.66,18.982C-0.462,18.371 -0.043,17.856 0.396,17.386C1.13,16.6 1.947,15.891 2.828,15.276C1.394,15.982 0.127,17.03 -0.835,18.308C-1.104,16.978 -1.372,15.647 -1.64,14.317C-1.79,13.571 -1.939,12.788 -1.719,12.055C-1.545,11.477 -1.157,10.987 -0.738,10.552C-0.273,10.068 0.241,9.631 0.793,9.249C1.087,9.045 1.402,8.848 1.596,8.546C1.709,8.369 1.774,8.166 1.827,7.963C1.981,7.368 2.043,6.75 2.009,6.138C1.873,7.149 1.525,8.134 0.994,9.009C0.923,8.944 0.852,8.88 0.782,8.816C-0.172,9.581 -1.038,10.455 -1.795,11.415C-2.134,10.634 -1.68,9.728 -1.755,8.877C-1.793,8.448 -1.965,8.046 -2.118,7.645C-2.576,6.437 -2.874,5.166 -3,3.877C-3.162,2.221 -3.076,0.428 -4,-0.947C-4.364,-0.183 -3.643,0.674 -3.73,1.512C-3.752,1.726 -3.827,1.935 -3.817,2.149C-3.805,2.427 -3.653,2.673 -3.526,2.919C-3.346,3.267 -3.209,3.637 -3.117,4.019C-3.051,4.295 -3.015,4.608 -3.17,4.849C-3.446,5.278 -4.085,5.191 -4.571,5.052C-5.337,4.832 -6.103,4.613 -6.868,4.393C-6.364,4.859 -5.719,5.172 -5.038,5.281C-4.653,5.342 -4.246,5.343 -3.9,5.52C-3.347,5.803 -3.102,6.449 -2.93,7.047C-2.242,9.44 -2.002,11.965 -2.223,14.455C-2.229,14.529 -2.249,14.619 -2.32,14.641C-2.376,14.658 -2.433,14.62 -2.479,14.585C-3.331,13.931 -4.183,13.277 -5.035,12.624C-5.214,12.486 -5.4,12.34 -5.489,12.133C-5.572,11.941 -5.561,11.722 -5.547,11.511C-5.502,10.788 -5.457,10.065 -5.411,9.341C-5.526,9.89 -5.642,10.44 -5.757,10.989C-5.817,11.276 -5.896,11.591 -6.138,11.758C-6.351,11.906 -6.63,11.894 -6.888,11.92C-7.38,11.969 -7.857,12.184 -8.223,12.52C-7.596,12.43 -6.969,12.339 -6.342,12.249C-6.218,12.231 -6.091,12.214 -5.971,12.243C-5.82,12.28 -5.697,12.387 -5.581,12.49C-4.863,13.129 -4.146,13.768 -3.428,14.408C-3.017,14.773 -2.601,15.145 -2.305,15.609C-2.062,15.99 -1.907,16.422 -1.782,16.858C-0.843,20.132 -1.456,23.776 -0.156,26.921C0.2,26.897 0.314,26.408 0.22,26.064C0.126,25.721 -0.071,25.37 0,25.974" style="fill:rgb(203,195,155);fill-rule:nonzero;"/>
                        </g>
                        <g transform="matrix(1,0,0,1,926.2846,201.9521)">
                            <path d="M0,14.345C-1.324,12.517 -3.416,11.415 -5.026,9.833C-5.137,9.724 -5.249,9.607 -5.299,9.46C-5.361,9.275 -5.316,9.072 -5.271,8.882C-5.086,8.108 -4.901,7.335 -4.716,6.561C-4.669,6.367 -4.627,6.146 -4.741,5.983C-4.799,5.898 -4.89,5.844 -4.979,5.792C-5.678,5.38 -6.377,4.968 -7.076,4.556C-6.719,5.013 -6.25,5.381 -5.722,5.621C-5.473,5.735 -5.197,5.83 -5.031,6.048C-4.784,6.372 -4.874,6.832 -4.99,7.222C-5.19,7.89 -5.436,8.545 -5.726,9.179C-6.878,8.474 -7.947,7.632 -8.9,6.675C-9.183,6.391 -9.476,6.048 -9.451,5.647C-9.439,5.45 -9.35,5.267 -9.307,5.074C-9.215,4.659 -9.342,4.231 -9.439,3.817C-9.663,2.863 -9.73,1.871 -9.636,0.895C-9.621,0.739 -9.6,0.576 -9.511,0.446C-9.416,0.307 -9.258,0.228 -9.108,0.153C-8.497,-0.147 -7.887,-0.448 -7.276,-0.749C-7.373,-0.847 -7.469,-0.946 -7.566,-1.044C-8.136,-0.677 -8.706,-0.309 -9.276,0.059C-9.402,0.141 -9.541,0.226 -9.691,0.215C-9.823,0.205 -9.937,0.122 -10.043,0.042C-10.644,-0.41 -11.245,-0.862 -11.846,-1.314C-11.977,-1.285 -11.917,-1.227 -11.87,-1.1C-11.824,-0.974 -11.597,-0.885 -11.489,-0.803C-10.999,-0.431 -10.395,-0 -9.905,0.373C-9.773,0.473 -9.981,0.637 -9.916,0.789C-9.857,0.925 -9.864,1.079 -9.873,1.227C-9.954,2.701 -9.835,4.549 -9.917,6.023C-12.097,5.03 -14.28,3.337 -15.702,1.477C-14.816,2.785 -13.488,4.095 -12.37,5.212C-12.47,5.738 -13.542,5.733 -14.019,5.491C-14.496,5.248 -14.887,4.815 -15.413,4.714C-15.289,5.014 -14.986,5.193 -14.7,5.345C-14.414,5.498 -14.107,5.664 -13.964,5.955C-13.822,6.246 -13.96,6.689 -14.283,6.718C-14.082,6.923 -13.722,6.363 -13.513,6.167C-13.304,5.971 -13.114,6.104 -12.892,5.922C-12.302,5.439 -11.42,5.662 -10.768,6.057C-9.225,6.992 -7.897,8.334 -6.519,9.498C-5.432,10.416 -4.346,11.333 -3.26,12.251C-4.394,12.548 -5.628,12.452 -6.703,11.982C-5.979,12.525 -5.058,12.798 -4.155,12.739C-3.842,12.719 -3.524,12.66 -3.216,12.722C-2.674,12.832 -2.281,13.284 -1.9,13.685C-1.179,14.446 -0.357,15.112 0.537,15.659C0.609,15.366 0.585,15.153 0,14.345" style="fill:rgb(203,195,155);fill-rule:nonzero;"/>
                        </g>
                        <g transform="matrix(1,0,0,1,980.8888,197.0422)">
                            <path d="M0,-2.65C-1.077,-3.321 -5.476,-5.324 -6.777,-5C-12.903,-3.473 -16.716,2.856 -17.886,9.061C-18.349,11.516 -18.316,14.484 -16.321,15.987C-15.427,16.661 -14.293,16.903 -13.253,17.318C-11.793,17.9 -10.502,18.832 -9.25,19.781C-4.215,23.599 0.48,27.865 4.762,32.512C5.429,33.236 6.272,34.035 7.224,33.94C7.323,33.931 7.407,33.861 7.439,33.766C8.541,30.524 12.224,28.899 14.213,26.084C15.403,24.401 15.961,22.317 17.263,20.718C19.008,18.575 21.792,17.635 24.404,16.729C31.558,14.249 39.019,10.878 42.914,4.397C42.959,4.322 42.963,4.229 42.924,4.151C39.753,-2.288 35.504,-8.195 30.406,-13.248C28.824,-14.817 27.137,-16.333 26.01,-18.255C25.092,-19.82 24.586,-21.585 24.021,-23.31C22.689,-27.373 20.983,-31.301 19.28,-35.223C19.057,-35.735 18.794,-36.29 18.285,-36.52C17.919,-36.685 17.496,-36.645 17.097,-36.601C9.63,-35.767 2.223,-34.406 -5.052,-32.531C-6.366,-32.193 -7.714,-31.818 -8.784,-30.984C-9.797,-30.194 -10.478,-29.05 -10.993,-27.873C-13.653,-21.791 -12.227,-14.425 -8.392,-9.007C-7.132,-7.225 0.279,-2.476 0,-2.65" style="fill:rgb(102,97,83);fill-rule:nonzero;"/>
                        </g>
                        <g transform="matrix(1,0,0,1,980.8888,197.0422)">
                            <path d="M0,-2.65C-1.077,-3.321 -5.476,-5.324 -6.777,-5C-12.903,-3.473 -16.716,2.856 -17.886,9.061C-18.349,11.516 -18.316,14.484 -16.321,15.987C-15.427,16.661 -14.293,16.903 -13.253,17.318C-11.793,17.9 -10.502,18.832 -9.25,19.781C-4.215,23.599 0.48,27.865 4.762,32.512C5.429,33.236 6.272,34.035 7.224,33.94C7.323,33.931 7.407,33.861 7.439,33.766C8.541,30.524 12.224,28.899 14.213,26.084C15.403,24.401 15.961,22.317 17.263,20.718C19.008,18.575 21.792,17.635 24.404,16.729C31.558,14.249 39.019,10.878 42.914,4.397C42.959,4.322 42.963,4.229 42.924,4.151C39.753,-2.288 35.504,-8.195 30.406,-13.248C28.824,-14.817 27.137,-16.333 26.01,-18.255C25.092,-19.82 24.586,-21.585 24.021,-23.31C22.689,-27.373 20.983,-31.301 19.28,-35.223C19.057,-35.735 18.794,-36.29 18.285,-36.52C17.919,-36.685 17.496,-36.645 17.097,-36.601C9.63,-35.767 2.223,-34.406 -5.052,-32.531C-6.366,-32.193 -7.714,-31.818 -8.784,-30.984C-9.797,-30.194 -10.478,-29.05 -10.993,-27.873C-13.653,-21.791 -12.227,-14.425 -8.392,-9.007C-7.132,-7.225 0.279,-2.476 0,-2.65Z" style="fill:none;fill-rule:nonzero;stroke:black;stroke-width:0.11px;"/>
                        </g>
                        <g transform="matrix(1,0,0,1,981.4588,230.2694)">
                            <path d="M0,-35.581C0.851,-32.915 1.701,-30.249 2.552,-27.583C2.747,-26.971 2.945,-26.353 3.28,-25.805C3.711,-25.102 4.346,-24.55 4.999,-24.046C6.414,-22.953 7.96,-22.029 9.594,-21.302C10.207,-21.029 10.849,-20.773 11.324,-20.299C11.682,-19.942 11.922,-19.485 12.126,-19.022C12.631,-17.881 12.959,-16.663 13.096,-15.423C12.616,-16.615 12.136,-17.808 11.657,-19C11.536,-19.301 11.41,-19.609 11.188,-19.845C10.933,-20.115 10.579,-20.262 10.238,-20.408C7.683,-21.503 5.272,-22.936 3.09,-24.659C3.353,-21.55 3.861,-18.462 4.609,-15.433C4.657,-15.239 4.707,-15.042 4.812,-14.872C4.917,-14.702 5.071,-14.568 5.227,-14.443C6.865,-13.132 8.936,-12.514 10.95,-11.925C8.672,-11.947 6.406,-12.678 4.544,-13.991C5.274,-9.167 6.004,-4.343 6.734,0.481C6.487,0.529 6.332,0.227 6.266,-0.015C5.296,-3.564 4.531,-7.168 3.977,-10.805C3.938,-11.062 3.843,-11.38 3.585,-11.416C3.415,-11.44 3.261,-11.321 3.131,-11.209C2.311,-10.509 1.492,-9.808 0.672,-9.107C1.633,-10.122 2.595,-11.136 3.556,-12.15C3.299,-15.016 2.961,-17.875 2.543,-20.722C0.9,-20.045 -0.567,-18.944 -1.675,-17.555C-1.34,-19.204 0.371,-20.108 1.639,-21.214C1.785,-21.341 1.931,-21.48 2,-21.66C2.056,-21.806 2.058,-21.965 2.057,-22.121C2.043,-25.418 1.42,-28.712 0.229,-31.786C-0.231,-32.973 -0.779,-34.143 -0.976,-35.4C-1.018,-35.671 -0.975,-36.041 -0.705,-36.085C-0.555,-36.11 -0.416,-36.01 -0.297,-35.915C0.015,-35.667 0.326,-35.42 0,-35.581" style="fill:rgb(203,195,155);fill-rule:nonzero;"/>
                        </g>
                        <g transform="matrix(1,0,0,1,980.0186,212.4001)">
                            <path d="M0,-16.654C-0.948,-15.631 -1.896,-14.608 -2.844,-13.585C-3.233,-13.165 -3.645,-12.696 -3.677,-12.124C-3.699,-11.723 -3.528,-11.34 -3.361,-10.975L-1.559,-7.041C-2.76,-8.309 -3.725,-9.799 -4.39,-11.413C-4.551,-11.333 -4.706,-11.24 -4.854,-11.138C-6.403,-10.081 -7.217,-8.049 -6.825,-6.215C-6.529,-4.829 -5.614,-3.546 -5.752,-2.135C-5.785,-1.794 -5.874,-1.42 -5.694,-1.129C-5.567,-0.922 -5.334,-0.81 -5.113,-0.709C-4.272,-0.324 -3.431,0.061 -2.59,0.446C-3.73,0.583 -4.924,0.165 -5.73,-0.653C-5.407,-0.089 -5.217,0.551 -5.179,1.199C-5.766,0.798 -5.929,0.02 -6.065,-0.678C-6.527,-3.047 -7.212,-5.373 -8.109,-7.614C-8.522,-6.761 -9.186,-6.059 -9.861,-5.394C-11.753,-3.526 -13.813,-1.829 -16.009,-0.33C-16.041,-0.573 -15.85,-0.784 -15.674,-0.955C-14.834,-1.768 -13.994,-2.581 -13.154,-3.394C-11.193,-5.293 -9.224,-7.201 -7.556,-9.363C-9.025,-9.63 -10.37,-10.525 -11.182,-11.779C-11.041,-12.047 -10.646,-12.072 -10.382,-11.924C-10.118,-11.775 -9.946,-11.51 -9.754,-11.277C-9.342,-10.776 -8.795,-10.388 -8.187,-10.163C-7.998,-10.094 -7.795,-10.039 -7.598,-10.076C-7.332,-10.125 -7.125,-10.327 -6.936,-10.52L0.258,-17.853C0.427,-17.421 0.409,-17.095 0,-16.654" style="fill:rgb(203,195,155);fill-rule:nonzero;"/>
                        </g>
                        <g transform="matrix(1,0,0,1,980.8022,198.4348)">
                            <path d="M0,-3.99C1.843,-3.551 3.686,-3.112 5.53,-2.673C6.268,-2.497 7.058,-2.291 7.551,-1.714C8.205,-0.95 8.116,0.171 8.254,1.166C8.552,3.322 10.181,5.236 12.261,5.876C11.116,5.032 9.828,4.23 9.244,2.933C8.497,1.272 9.086,-0.846 8.046,-2.341C9.939,-2.019 11.832,-1.698 13.725,-1.376C14.1,-1.312 14.488,-1.244 14.805,-1.033C15.055,-0.867 15.242,-0.624 15.421,-0.382C17.956,3.059 19.504,7.219 19.834,11.48C20.39,9.812 19.879,7.997 19.369,6.315C20.705,7.829 22.13,9.404 24.04,10.06C23.665,9.022 22.658,8.38 21.801,7.683C19.106,5.491 17.537,2.24 16.052,-0.901C19.331,-0.325 22.61,0.25 25.889,0.826C26.239,0.887 26.601,0.954 26.889,1.161C27.157,1.354 27.332,1.648 27.484,1.941C28.17,3.259 28.56,4.729 28.618,6.214C28.628,6.454 28.632,6.708 28.759,6.912C28.887,7.116 29.188,7.232 29.374,7.08C29.019,4.92 28.365,2.809 27.436,0.827C29.202,0.931 30.959,1.189 32.68,1.599C32.922,1.657 33.168,1.72 33.375,1.858C33.642,2.037 33.816,2.324 33.974,2.604C34.781,4.042 35.411,5.579 35.845,7.169C36.327,6.783 36.161,6.025 35.951,5.445C35.515,4.243 35.08,3.041 34.645,1.84C35.941,2.516 37.303,3.064 38.706,3.473C39.934,3.831 41.229,4.083 42.488,3.857C40.569,2.674 38.379,1.935 36.136,1.713C36.967,0.569 37.52,-0.776 37.734,-2.175C37.473,-1.229 37,-0.343 36.36,0.4C36.086,0.718 35.773,1.017 35.387,1.184C34.685,1.488 33.878,1.308 33.135,1.125C32.235,0.902 31.335,0.679 30.434,0.456C31.776,-1.26 32.525,-3.43 32.529,-5.608C32.002,-4.04 31.475,-2.471 30.947,-0.902C30.83,-0.555 30.693,-0.181 30.381,0.011C30.082,0.195 29.702,0.161 29.353,0.12C27.015,-0.151 24.678,-0.422 22.341,-0.693C20.035,-0.961 17.68,-1.242 15.585,-2.242C16.875,-3.937 18.304,-5.526 19.853,-6.988C21.421,-8.466 23.263,-9.876 25.413,-10.018C25.38,-10.205 25.346,-10.393 25.313,-10.58C24.689,-10.5 24.06,-10.464 23.431,-10.473C23.256,-10.476 23.072,-10.484 22.919,-10.572C22.561,-10.777 22.555,-11.28 22.561,-11.693C22.579,-13.004 22.254,-14.319 21.627,-15.47C21.2,-13.815 21.123,-12.07 21.401,-10.383C21.434,-10.188 21.47,-9.985 21.418,-9.793C21.349,-9.544 21.142,-9.362 20.947,-9.193C18.877,-7.404 16.944,-5.457 15.171,-3.374C14.936,-3.098 14.683,-2.806 14.335,-2.704C14.089,-2.631 13.826,-2.664 13.572,-2.698C11.863,-2.923 10.154,-3.148 9.073,-3.352C7.992,-3.557 8.142,-4.178 8.308,-4.644C8.734,-5.835 8.991,-7.086 9.069,-8.348C8.397,-7.537 7.951,-6.54 7.793,-5.498C7.699,-4.881 7.701,-4.235 7.441,-3.667C4.76,-3.686 2.227,-5.043 -0.454,-5.092C-0.445,-4.751 -0.435,-4.41 0,-3.99" style="fill:rgb(203,195,155);fill-rule:nonzero;"/>
                        </g>
                        <g transform="matrix(1,0,0,1,981.5217,162.5426)">
                            <path d="M0,30.057C1.031,28.254 2.062,26.45 3.093,24.647C3.6,23.76 4.136,22.841 4.987,22.266C5.688,21.793 6.541,21.599 7.379,21.467C8.778,21.247 10.2,21.174 11.614,21.251C9.553,20.82 7.388,20.88 5.352,21.425C6.153,19.827 6.954,18.229 7.755,16.631C8.204,15.735 8.685,14.802 9.508,14.22C10.157,13.761 10.957,13.568 11.746,13.456C12.621,13.331 13.508,13.294 14.39,13.346C14.861,13.374 15.348,13.424 15.794,13.268C16.055,13.177 16.287,13.018 16.507,12.85C17.149,12.358 17.715,11.767 18.176,11.105C17.215,12.044 16.055,12.783 14.794,13.26C14.773,13.136 14.752,13.012 14.73,12.888C13.12,12.908 11.512,13.112 9.948,13.495C10.231,12.409 11.437,11.838 12.049,10.893C12.357,10.417 12.505,9.86 12.672,9.32C13.176,7.695 13.898,6.136 14.813,4.696C15.988,2.846 17.533,1.056 17.688,-1.121C16.692,-0.624 16.745,0.85 15.975,1.649C15.779,1.853 15.531,2.009 15.367,2.239C15.155,2.538 15.112,2.917 15.044,3.275C14.949,3.782 14.791,4.277 14.576,4.747C14.421,5.088 14.205,5.441 13.848,5.566C13.214,5.787 12.621,5.179 12.23,4.639C11.613,3.791 10.997,2.942 10.381,2.093C10.526,2.986 10.941,3.833 11.56,4.498C11.91,4.874 12.331,5.205 12.547,5.67C12.891,6.412 12.621,7.282 12.315,8.041C11.086,11.082 9.288,13.898 7.038,16.302C6.971,16.373 6.878,16.451 6.787,16.416C6.714,16.388 6.686,16.303 6.667,16.228C6.313,14.859 5.959,13.489 5.606,12.12C5.531,11.832 5.457,11.53 5.533,11.242C5.603,10.975 5.792,10.758 5.977,10.55C6.611,9.836 7.245,9.123 7.879,8.409C7.313,8.885 6.748,9.362 6.183,9.838C5.888,10.087 5.55,10.35 5.164,10.328C4.822,10.307 4.543,10.069 4.254,9.887C3.703,9.539 3.035,9.374 2.382,9.427C3.106,9.841 3.83,10.256 4.554,10.671C4.697,10.753 4.843,10.837 4.944,10.966C5.07,11.127 5.111,11.337 5.147,11.539C5.374,12.784 5.6,14.029 5.827,15.275C5.956,15.987 6.086,16.711 6.017,17.432C5.96,18.025 5.77,18.598 5.546,19.152C3.865,23.311 0.273,26.596 -0.93,30.913C-0.541,31.178 -0.026,30.762 0.155,30.329C0.336,29.897 0.417,29.372 0,30.057" style="fill:rgb(203,195,155);fill-rule:nonzero;"/>
                        </g>
                        <g transform="matrix(1,0,0,1,980.5416,167.3765)">
                            <path d="M0,24.291C0.109,21.319 -1.167,18.48 -1.554,15.532C-1.581,15.329 -1.602,15.117 -1.535,14.924C-1.45,14.681 -1.239,14.507 -1.037,14.347C-0.218,13.694 0.602,13.041 1.422,12.389C1.627,12.225 1.85,12.03 1.865,11.768C1.872,11.633 1.822,11.503 1.773,11.377C1.381,10.383 0.99,9.388 0.598,8.393C0.599,9.157 0.786,9.92 1.139,10.597C1.306,10.917 1.515,11.24 1.511,11.601C1.504,12.137 1.038,12.542 0.601,12.852C-0.148,13.384 -0.934,13.863 -1.75,14.286C-2.374,12.619 -2.799,10.879 -3.013,9.112C-3.076,8.588 -3.101,7.995 -2.751,7.599C-2.578,7.404 -2.337,7.286 -2.136,7.121C-1.704,6.765 -1.489,6.218 -1.254,5.71C-0.712,4.538 0.023,3.455 0.912,2.518C1.055,2.368 1.21,2.216 1.407,2.154C1.618,2.087 1.846,2.132 2.062,2.177C2.94,2.36 3.817,2.543 4.695,2.727C4.675,2.546 4.654,2.366 4.634,2.185C3.745,2.104 2.855,2.024 1.965,1.943C1.767,1.925 1.554,1.901 1.407,1.767C1.279,1.65 1.228,1.472 1.182,1.303C0.925,0.347 0.669,-0.61 0.412,-1.566C0.252,-1.643 0.267,-1.534 0.213,-1.365C0.158,-1.196 0.323,-0.92 0.368,-0.748C0.574,0.036 0.852,0.974 1.058,1.758C1.113,1.969 0.764,1.971 0.709,2.181C0.659,2.37 0.527,2.524 0.398,2.67C-0.883,4.134 -2.258,6.148 -3.539,7.611C-4.995,4.812 -5.888,1.285 -5.853,-1.799C-5.995,0.277 -5.68,2.714 -5.426,4.78C-5.957,5.244 -7.065,4.37 -7.363,3.731C-7.661,3.092 -7.716,2.326 -8.179,1.794C-8.294,2.206 -8.124,2.637 -7.952,3.028C-7.779,3.418 -7.596,3.84 -7.683,4.258C-7.771,4.675 -8.274,5.022 -8.633,4.791C-8.591,5.166 -7.763,4.876 -7.387,4.843C-7.011,4.809 -6.921,5.101 -6.544,5.093C-5.54,5.07 -4.806,6.017 -4.449,6.956C-3.607,9.178 -3.317,11.647 -2.832,13.973C-2.449,15.807 -2.066,17.64 -1.683,19.473C-3.102,18.862 -4.304,17.761 -5.038,16.402C-4.727,17.552 -3.994,18.583 -3.009,19.254C-2.667,19.487 -2.29,19.684 -2.021,19.998C-1.547,20.551 -1.505,21.34 -1.436,22.065C-1.305,23.44 -0.992,24.797 -0.509,26.09C-0.196,25.845 -0.048,25.603 0,24.291" style="fill:rgb(203,195,155);fill-rule:nonzero;"/>
                        </g>
                    </g>
</g>
</g>
</svg>
