<svg xmlns="http://www.w3.org/2000/svg" viewBox="1565.3654430046422 4992.5019103809545 1261.3061477878168 891.2828217130373">
<defs>
<linearGradient xmlns="http://www.w3.org/2000/svg" id="_Linear14" x1="0" y1="0" x2="1" y2="0" gradientUnits="userSpaceOnUse" gradientTransform="matrix(1,0,0,-1,0,-0.241174)"><stop offset="0" style="stop-color:rgb(218,90,232);stop-opacity:1"/><stop offset="1" style="stop-color:rgb(111,252,177);stop-opacity:1"/></linearGradient>
<linearGradient xmlns="http://www.w3.org/2000/svg" id="_Linear15" x1="0" y1="0" x2="1" y2="0" gradientUnits="userSpaceOnUse" gradientTransform="matrix(1,0,0,-1,0,-0.241153)"><stop offset="0" style="stop-color:rgb(218,90,232);stop-opacity:1"/><stop offset="1" style="stop-color:rgb(111,252,177);stop-opacity:1"/></linearGradient>
<linearGradient xmlns="http://www.w3.org/2000/svg" id="_Linear16" x1="0" y1="0" x2="1" y2="0" gradientUnits="userSpaceOnUse" gradientTransform="matrix(1,0,0,-1,0,-0.239942)"><stop offset="0" style="stop-color:rgb(218,90,232);stop-opacity:1"/><stop offset="1" style="stop-color:rgb(111,252,177);stop-opacity:1"/></linearGradient>
<linearGradient xmlns="http://www.w3.org/2000/svg" id="_Linear17" x1="0" y1="0" x2="1" y2="0" gradientUnits="userSpaceOnUse" gradientTransform="matrix(1,0,0,-1,0,-0.241158)"><stop offset="0" style="stop-color:rgb(218,90,232);stop-opacity:1"/><stop offset="1" style="stop-color:rgb(111,252,177);stop-opacity:1"/></linearGradient>
<linearGradient xmlns="http://www.w3.org/2000/svg" id="_Linear18" x1="0" y1="0" x2="1" y2="0" gradientUnits="userSpaceOnUse" gradientTransform="matrix(1,0,0,-1,0,-0.241164)"><stop offset="0" style="stop-color:rgb(218,90,232);stop-opacity:1"/><stop offset="1" style="stop-color:rgb(111,252,177);stop-opacity:1"/></linearGradient>
<linearGradient xmlns="http://www.w3.org/2000/svg" id="_Linear19" x1="0" y1="0" x2="1" y2="0" gradientUnits="userSpaceOnUse" gradientTransform="matrix(1,0,0,-1,0,-0.245744)"><stop offset="0" style="stop-color:rgb(218,90,232);stop-opacity:1"/><stop offset="1" style="stop-color:rgb(111,252,177);stop-opacity:1"/></linearGradient>
<linearGradient xmlns="http://www.w3.org/2000/svg" id="_Linear20" x1="0" y1="0" x2="1" y2="0" gradientUnits="userSpaceOnUse" gradientTransform="matrix(1,0,0,-1,0,-0.253864)"><stop offset="0" style="stop-color:rgb(218,90,232);stop-opacity:1"/><stop offset="1" style="stop-color:rgb(111,252,177);stop-opacity:1"/></linearGradient>
<linearGradient xmlns="http://www.w3.org/2000/svg" id="_Linear21" x1="0" y1="0" x2="1" y2="0" gradientUnits="userSpaceOnUse" gradientTransform="matrix(1,0,0,-1,0,-0.241162)"><stop offset="0" style="stop-color:rgb(218,90,232);stop-opacity:1"/><stop offset="1" style="stop-color:rgb(111,252,177);stop-opacity:1"/></linearGradient>
</defs>
<g transform="matrix(4.166667,0,0,4.166667,0,0)">
<g transform="matrix(1,0,0,1,-11.56697,1.462939)">
<g xmlns="http://www.w3.org/2000/svg">
                        <g transform="matrix(-0.818655,0.574285,0.574285,0.818655,509.800866,1394.753541)">
                            <path d="M-234.314,-73.991C-157.821,-25.31 -53.129,-25.31 23.364,-73.991" style="fill:none;fill-rule:nonzero;stroke:rgb(66,143,113);stroke-width:3.29px;"/>
                        </g>
                        <g transform="matrix(1,0,0,1,429.1104,1304.0263)">
                            <path d="M0,21.043C-0.825,17.215 -3.778,13.919 -7.493,12.679C-8.737,12.264 -10.054,12.064 -11.26,11.548C-12.466,11.031 -13.601,10.1 -13.892,8.82C-14.144,7.712 -13.663,6.474 -12.729,5.826C-11.795,5.179 -10.466,5.163 -9.518,5.788C-8.858,6.222 -8.123,6.963 -7.434,6.579C-6.832,6.243 -6.933,5.314 -7.337,4.756C-7.743,4.198 -8.356,3.793 -8.653,3.171C-9.197,2.029 -8.305,0.546 -7.071,0.272C-5.836,0 -4.526,0.764 -3.915,1.87C-3.304,2.978 -3.301,4.339 -3.632,5.56C-3.952,6.736 -4.567,7.874 -4.493,9.092C-4.373,11.072 -2.547,12.431 -1.311,13.981C0.791,16.618 1.289,20.438 0,21.043" style="fill:rgb(255,0,0);fill-rule:nonzero;"/>
                        </g>
                        <g transform="matrix(1,0,0,1,452.1177,1298.9168)">
                            <path d="M0,19.884C2.124,16.593 2.366,12.175 0.616,8.671C0.03,7.497 -0.761,6.426 -1.248,5.208C-1.735,3.989 -1.879,2.529 -1.18,1.419C-0.575,0.456 0.641,-0.08 1.759,0.123C2.877,0.325 3.828,1.254 4.057,2.366C4.216,3.14 4.212,4.185 4.971,4.4C5.634,4.588 6.22,3.859 6.328,3.179C6.436,2.497 6.289,1.777 6.519,1.128C6.941,-0.064 8.621,-0.482 9.687,0.197C10.753,0.877 11.14,2.344 10.789,3.559C10.438,4.773 9.477,5.738 8.38,6.367C7.322,6.974 6.083,7.343 5.273,8.256C3.958,9.741 4.289,11.993 4.066,13.964C3.688,17.314 1.339,20.366 0,19.884" style="fill:rgb(255,0,0);fill-rule:nonzero;"/>
                        </g>
                        <g transform="matrix(1,0,0,1,472.8193,1317.7807)">
                            <path d="M0,12.855C3.828,12.03 7.124,9.077 8.364,5.362C8.779,4.118 8.979,2.801 9.495,1.595C10.012,0.389 10.943,-0.746 12.223,-1.037C13.331,-1.289 14.569,-0.808 15.217,0.126C15.864,1.06 15.88,2.389 15.255,3.337C14.821,3.997 14.08,4.732 14.464,5.421C14.8,6.023 15.729,5.922 16.287,5.518C16.845,5.112 17.25,4.499 17.872,4.202C19.014,3.658 20.497,4.55 20.771,5.784C21.043,7.019 20.279,8.329 19.173,8.94C18.065,9.551 16.704,9.554 15.483,9.223C14.307,8.903 13.169,8.288 11.951,8.362C9.971,8.482 8.612,10.308 7.062,11.544C4.425,13.646 0.605,14.144 0,12.855" style="fill:rgb(255,0,0);fill-rule:nonzero;"/>
                        </g>
                        <g transform="matrix(1,0,0,1,479.0889,1362.9036)">
                            <path d="M0,-9.261C3.291,-7.137 7.709,-6.895 11.213,-8.645C12.387,-9.231 13.458,-10.022 14.676,-10.509C15.895,-10.996 17.355,-11.14 18.465,-10.441C19.428,-9.836 19.964,-8.62 19.761,-7.502C19.559,-6.384 18.63,-5.433 17.518,-5.204C16.744,-5.045 15.699,-5.049 15.484,-4.29C15.296,-3.627 16.025,-3.041 16.705,-2.933C17.387,-2.825 18.107,-2.972 18.756,-2.742C19.948,-2.32 20.366,-0.64 19.687,0.426C19.007,1.492 17.54,1.879 16.325,1.528C15.111,1.177 14.146,0.216 13.517,-0.881C12.91,-1.939 12.541,-3.178 11.628,-3.988C10.143,-5.303 7.891,-4.972 5.92,-5.195C2.57,-5.573 -0.482,-7.922 0,-9.261" style="fill:rgb(255,0,0);fill-rule:nonzero;"/>
                        </g>
                        <g transform="matrix(1,0,0,1,467.2539,1395.3877)">
                            <path d="M0,-21.043C0.825,-17.215 3.778,-13.919 7.493,-12.679C8.737,-12.264 10.054,-12.064 11.26,-11.548C12.466,-11.031 13.601,-10.1 13.892,-8.82C14.144,-7.712 13.663,-6.474 12.729,-5.826C11.795,-5.179 10.466,-5.163 9.518,-5.788C8.858,-6.222 8.123,-6.963 7.434,-6.579C6.832,-6.243 6.933,-5.314 7.337,-4.756C7.743,-4.198 8.356,-3.793 8.653,-3.171C9.197,-2.029 8.305,-0.546 7.071,-0.272C5.836,0 4.526,-0.764 3.915,-1.87C3.304,-2.978 3.301,-4.339 3.632,-5.56C3.952,-6.736 4.567,-7.874 4.493,-9.092C4.373,-11.072 2.547,-12.431 1.311,-13.981C-0.791,-16.618 -1.289,-20.438 0,-21.043" style="fill:rgb(255,0,0);fill-rule:nonzero;"/>
                        </g>
                        <g transform="matrix(1,0,0,1,444.2461,1400.4983)">
                            <path d="M0,-19.884C-2.124,-16.593 -2.366,-12.175 -0.616,-8.671C-0.03,-7.497 0.761,-6.426 1.248,-5.208C1.735,-3.989 1.879,-2.529 1.18,-1.419C0.575,-0.456 -0.641,0.08 -1.759,-0.123C-2.877,-0.325 -3.828,-1.254 -4.057,-2.366C-4.216,-3.14 -4.212,-4.185 -4.971,-4.4C-5.634,-4.588 -6.22,-3.859 -6.328,-3.179C-6.436,-2.497 -6.289,-1.777 -6.519,-1.128C-6.941,0.064 -8.621,0.482 -9.687,-0.197C-10.753,-0.877 -11.14,-2.344 -10.789,-3.559C-10.438,-4.773 -9.477,-5.738 -8.38,-6.367C-7.322,-6.974 -6.083,-7.343 -5.273,-8.256C-3.958,-9.741 -4.289,-11.993 -4.066,-13.964C-3.688,-17.314 -1.339,-20.366 0,-19.884" style="fill:rgb(255,0,0);fill-rule:nonzero;"/>
                        </g>
                        <g transform="matrix(1,0,0,1,423.5449,1381.6343)">
                            <path d="M0,-12.855C-3.828,-12.03 -7.124,-9.077 -8.364,-5.362C-8.779,-4.118 -8.979,-2.801 -9.495,-1.595C-10.012,-0.389 -10.943,0.746 -12.223,1.037C-13.331,1.289 -14.569,0.808 -15.217,-0.126C-15.864,-1.06 -15.88,-2.389 -15.255,-3.337C-14.821,-3.997 -14.08,-4.732 -14.464,-5.421C-14.8,-6.023 -15.729,-5.922 -16.287,-5.518C-16.845,-5.112 -17.25,-4.499 -17.872,-4.202C-19.014,-3.658 -20.497,-4.55 -20.771,-5.784C-21.043,-7.019 -20.279,-8.329 -19.173,-8.94C-18.065,-9.551 -16.704,-9.554 -15.483,-9.223C-14.307,-8.903 -13.169,-8.288 -11.951,-8.362C-9.971,-8.482 -8.612,-10.308 -7.062,-11.544C-4.425,-13.646 -0.605,-14.144 0,-12.855" style="fill:rgb(255,0,0);fill-rule:nonzero;"/>
                        </g>
                        <g transform="matrix(1,0,0,1,417.2754,1336.5105)">
                            <path d="M0,9.261C-3.291,7.137 -7.709,6.895 -11.213,8.645C-12.387,9.231 -13.458,10.022 -14.676,10.509C-15.895,10.996 -17.355,11.14 -18.465,10.441C-19.428,9.836 -19.964,8.62 -19.761,7.502C-19.559,6.384 -18.63,5.433 -17.518,5.204C-16.744,5.045 -15.699,5.049 -15.484,4.29C-15.296,3.627 -16.025,3.041 -16.705,2.933C-17.387,2.825 -18.107,2.972 -18.756,2.742C-19.948,2.32 -20.366,0.64 -19.687,-0.426C-19.007,-1.492 -17.54,-1.879 -16.325,-1.528C-15.111,-1.177 -14.146,-0.216 -13.517,0.881C-12.91,1.939 -12.541,3.178 -11.628,3.988C-10.143,5.303 -7.891,4.972 -5.92,5.195C-2.57,5.573 0.482,7.922 0,9.261" style="fill:rgb(255,0,0);fill-rule:nonzero;"/>
                        </g>
                        <g transform="matrix(-9.141493,-46.968361,-46.968361,9.141493,445.364831,1402.137308)">
                            <path d="M0.809,-0.199C0.807,-0.146 0.754,-0.098 0.703,-0.111C0.676,-0.119 0.655,-0.14 0.629,-0.152C0.603,-0.164 0.564,-0.161 0.555,-0.134C0.545,-0.103 0.581,-0.079 0.604,-0.056C0.637,-0.022 0.647,0.032 0.628,0.075C0.609,0.118 0.562,0.148 0.515,0.146C0.461,0.144 0.414,0.106 0.384,0.061C0.353,0.016 0.335,-0.036 0.308,-0.083C0.228,-0.225 0.071,-0.318 -0.091,-0.322C-0.077,-0.379 0.082,-0.389 0.206,-0.324C0.279,-0.286 0.349,-0.223 0.43,-0.234C0.48,-0.24 0.521,-0.274 0.567,-0.297C0.614,-0.32 0.669,-0.33 0.719,-0.314C0.762,-0.3 0.798,-0.263 0.807,-0.22C0.808,-0.213 0.809,-0.206 0.809,-0.199Z" style="fill:url(#_Linear14);fill-rule:nonzero;"/>
                        </g>
                        <g transform="matrix(26.747634,-39.675657,-39.675657,-26.747634,409.116763,1384.790082)">
                            <path d="M0.703,-0.111C0.676,-0.119 0.654,-0.14 0.629,-0.152C0.603,-0.164 0.564,-0.161 0.555,-0.134C0.545,-0.103 0.581,-0.079 0.604,-0.056C0.637,-0.022 0.647,0.032 0.628,0.075C0.609,0.118 0.562,0.148 0.515,0.146C0.461,0.144 0.414,0.106 0.384,0.061C0.353,0.016 0.335,-0.036 0.308,-0.083C0.228,-0.225 0.071,-0.318 -0.091,-0.322C-0.077,-0.379 0.082,-0.389 0.206,-0.324C0.279,-0.286 0.349,-0.223 0.43,-0.234C0.48,-0.24 0.521,-0.274 0.567,-0.297C0.614,-0.32 0.669,-0.33 0.719,-0.314C0.769,-0.298 0.81,-0.251 0.809,-0.199C0.808,-0.182 0.802,-0.165 0.793,-0.151C0.773,-0.122 0.738,-0.103 0.703,-0.111Z" style="fill:url(#_Linear15);fill-rule:nonzero;"/>
                        </g>
                        <g transform="matrix(46.968361,-9.141493,-9.141493,-46.968361,395.762622,1346.948068)">
                            <path d="M0.515,0.147C0.461,0.146 0.414,0.107 0.384,0.062C0.353,0.017 0.335,-0.035 0.308,-0.082C0.228,-0.223 0.071,-0.317 -0.091,-0.32C-0.077,-0.378 0.082,-0.388 0.206,-0.323C0.279,-0.285 0.349,-0.222 0.43,-0.232C0.48,-0.239 0.521,-0.273 0.567,-0.295C0.614,-0.318 0.669,-0.329 0.719,-0.313C0.769,-0.297 0.81,-0.25 0.809,-0.197C0.807,-0.145 0.754,-0.097 0.703,-0.11C0.676,-0.117 0.655,-0.139 0.629,-0.151C0.603,-0.163 0.564,-0.16 0.555,-0.133C0.545,-0.102 0.581,-0.078 0.604,-0.054C0.637,-0.021 0.647,0.033 0.628,0.076C0.612,0.112 0.578,0.138 0.54,0.145C0.532,0.147 0.524,0.148 0.515,0.147Z" style="fill:url(#_Linear16);fill-rule:nonzero;"/>
                        </g>
                        <g transform="matrix(39.675657,26.747634,26.747634,-39.675657,413.099696,1310.641474)">
                            <path d="M0.384,0.061C0.353,0.016 0.335,-0.036 0.308,-0.083C0.228,-0.225 0.071,-0.318 -0.091,-0.322C-0.077,-0.379 0.082,-0.389 0.206,-0.324C0.279,-0.286 0.349,-0.223 0.43,-0.234C0.48,-0.24 0.521,-0.274 0.567,-0.297C0.614,-0.32 0.669,-0.33 0.719,-0.314C0.769,-0.298 0.81,-0.251 0.809,-0.199C0.807,-0.146 0.754,-0.098 0.703,-0.111C0.676,-0.119 0.655,-0.14 0.629,-0.152C0.603,-0.164 0.564,-0.161 0.555,-0.134C0.545,-0.103 0.581,-0.079 0.604,-0.056C0.637,-0.022 0.647,0.032 0.628,0.075C0.609,0.118 0.562,0.148 0.515,0.146C0.489,0.145 0.465,0.136 0.443,0.121C0.42,0.105 0.399,0.084 0.384,0.061Z" style="fill:url(#_Linear17);fill-rule:nonzero;"/>
                        </g>
                        <g transform="matrix(9.141493,46.968361,46.968361,-9.141493,450.998954,1297.276846)">
                            <path d="M0.206,-0.324C0.279,-0.286 0.349,-0.223 0.43,-0.234C0.48,-0.24 0.521,-0.274 0.567,-0.297C0.614,-0.32 0.669,-0.33 0.719,-0.314C0.769,-0.298 0.81,-0.251 0.809,-0.199C0.807,-0.146 0.754,-0.098 0.703,-0.111C0.676,-0.119 0.655,-0.14 0.629,-0.152C0.603,-0.164 0.564,-0.161 0.555,-0.134C0.545,-0.103 0.581,-0.079 0.604,-0.056C0.637,-0.022 0.647,0.032 0.628,0.075C0.609,0.118 0.562,0.148 0.515,0.146C0.461,0.144 0.414,0.106 0.384,0.061C0.353,0.016 0.335,-0.036 0.308,-0.083C0.228,-0.225 0.071,-0.318 -0.091,-0.322C-0.077,-0.379 0.082,-0.389 0.206,-0.324Z" style="fill:url(#_Linear18);fill-rule:nonzero;"/>
                        </g>
                        <g transform="matrix(-26.747634,39.675657,39.675657,26.747634,487.429157,1314.747756)">
                            <path d="M0.206,-0.329C0.279,-0.291 0.349,-0.227 0.43,-0.238C0.48,-0.245 0.521,-0.279 0.567,-0.301C0.614,-0.324 0.669,-0.335 0.719,-0.319C0.769,-0.303 0.81,-0.256 0.809,-0.203C0.807,-0.151 0.754,-0.103 0.703,-0.116C0.676,-0.123 0.655,-0.145 0.629,-0.157C0.603,-0.169 0.564,-0.166 0.555,-0.139C0.545,-0.108 0.581,-0.083 0.604,-0.06C0.637,-0.027 0.647,0.028 0.628,0.071C0.609,0.114 0.562,0.143 0.515,0.142C0.461,0.14 0.414,0.101 0.384,0.056C0.353,0.011 0.335,-0.041 0.308,-0.088C0.228,-0.229 0.071,-0.323 -0.091,-0.326C-0.09,-0.33 -0.088,-0.334 -0.086,-0.338C-0.055,-0.384 0.091,-0.389 0.206,-0.329Z" style="fill:url(#_Linear19);fill-rule:nonzero;"/>
                        </g>
                        <g transform="matrix(-46.968361,9.141493,9.141493,46.968361,500.728899,1353.120842)">
                            <path d="M0.206,-0.337C0.279,-0.299 0.349,-0.236 0.43,-0.246C0.48,-0.253 0.521,-0.287 0.567,-0.309C0.614,-0.332 0.669,-0.343 0.719,-0.327C0.769,-0.311 0.81,-0.264 0.809,-0.211C0.807,-0.159 0.754,-0.111 0.703,-0.124C0.676,-0.131 0.655,-0.153 0.629,-0.165C0.603,-0.177 0.564,-0.174 0.555,-0.147C0.545,-0.116 0.581,-0.092 0.604,-0.068C0.637,-0.035 0.647,0.019 0.628,0.063C0.609,0.106 0.562,0.135 0.515,0.133C0.461,0.132 0.414,0.093 0.384,0.048C0.353,0.003 0.335,-0.049 0.308,-0.096C0.228,-0.237 0.071,-0.331 -0.091,-0.334C-0.086,-0.355 -0.061,-0.37 -0.026,-0.377C0.035,-0.389 0.128,-0.378 0.206,-0.337Z" style="fill:url(#_Linear20);fill-rule:nonzero;"/>
                        </g>
                        <g transform="matrix(-39.675657,-26.747634,-26.747634,39.675657,483.264459,1388.772742)">
                            <path d="M0.809,-0.199C0.807,-0.146 0.754,-0.098 0.703,-0.111C0.676,-0.119 0.655,-0.14 0.629,-0.152C0.603,-0.164 0.564,-0.161 0.555,-0.134C0.545,-0.103 0.581,-0.079 0.604,-0.056C0.637,-0.022 0.647,0.032 0.628,0.075C0.609,0.118 0.562,0.148 0.515,0.146C0.461,0.144 0.414,0.106 0.384,0.061C0.353,0.016 0.335,-0.036 0.308,-0.083C0.228,-0.224 0.071,-0.318 -0.091,-0.322C-0.077,-0.379 0.082,-0.389 0.206,-0.324C0.279,-0.286 0.349,-0.223 0.43,-0.234C0.48,-0.24 0.521,-0.274 0.567,-0.297C0.614,-0.32 0.669,-0.33 0.719,-0.314C0.731,-0.31 0.742,-0.305 0.753,-0.298C0.786,-0.275 0.81,-0.238 0.809,-0.199Z" style="fill:url(#_Linear21);fill-rule:nonzero;"/>
                        </g>
                        <g transform="matrix(0,1,1,0,448.1825,1333.9392)">
                            <path d="M15.768,-15.769C7.059,-15.769 0,-8.709 0,-0C0,8.708 7.059,15.768 15.768,15.768C24.477,15.768 31.537,8.708 31.537,-0C31.537,-8.709 24.477,-15.769 15.768,-15.769" style="fill:rgb(255,0,0);fill-rule:nonzero;"/>
                        </g>
                        <g transform="matrix(0,-1,-1,0,448.1826,1357.2636)">
                            <path d="M-2.251,-2.251C-3.494,-2.251 -4.502,-1.243 -4.502,0C-4.502,1.244 -3.494,2.251 -2.251,2.251C-1.008,2.251 0,1.244 0,0C0,-1.243 -1.008,-2.251 -2.251,-2.251" style="fill:rgb(117,42,84);fill-rule:nonzero;"/>
                        </g>
                        <g transform="matrix(0.707107,-0.707107,-0.707107,-0.707107,443.497621,1356.642693)">
                            <path d="M-1.591,-0.66C-2.834,-0.66 -3.843,0.347 -3.843,1.592C-3.843,2.835 -2.834,3.842 -1.591,3.843C-0.349,3.842 0.659,2.834 0.66,1.592C0.659,0.348 -0.348,-0.66 -1.591,-0.66" style="fill:rgb(117,42,84);fill-rule:nonzero;"/>
                        </g>
                        <g transform="matrix(1,0,0,1,438.374,1347.457)">
                            <path d="M0,4.502C-1.243,4.502 -2.251,3.494 -2.251,2.251C-2.251,1.007 -1.243,0 0,0C1.243,0 2.251,1.007 2.251,2.251C2.251,3.494 1.243,4.502 0,4.502" style="fill:rgb(117,42,84);fill-rule:nonzero;"/>
                        </g>
                        <g transform="matrix(0.707107,0.707107,0.707107,-0.707107,438.995579,1342.772507)">
                            <path d="M1.592,-0.659C0.349,-0.659 -0.66,0.348 -0.66,1.593C-0.66,2.836 0.349,3.843 1.592,3.844C2.834,3.843 3.842,2.835 3.843,1.593C3.842,0.349 2.835,-0.659 1.592,-0.659" style="fill:rgb(117,42,84);fill-rule:nonzero;"/>
                        </g>
                        <g transform="matrix(0,1,1,0,448.1817,1337.6484)">
                            <path d="M2.251,-2.251C1.008,-2.251 0,-1.243 0,0C0,1.244 1.008,2.251 2.251,2.251C3.494,2.251 4.502,1.244 4.502,0C4.502,-1.243 3.494,-2.251 2.251,-2.251" style="fill:rgb(117,42,84);fill-rule:nonzero;"/>
                        </g>
                        <g transform="matrix(-0.707107,0.707107,0.707107,0.707107,457.367621,1342.770993)">
                            <path d="M1.593,-3.842C0.35,-3.842 -0.659,-2.835 -0.659,-1.59C-0.659,-0.347 0.35,0.66 1.593,0.661C2.835,0.66 3.843,-0.348 3.844,-1.59C3.843,-2.834 2.836,-3.842 1.593,-3.842" style="fill:rgb(117,42,84);fill-rule:nonzero;"/>
                        </g>
                        <g transform="matrix(-1,0,0,1,457.9902,1351.9581)">
                            <path d="M0,-4.502C-1.243,-4.502 -2.251,-3.494 -2.251,-2.251C-2.251,-1.007 -1.243,0 0,0C1.243,0 2.251,-1.007 2.251,-2.251C2.251,-3.494 1.243,-4.502 0,-4.502" style="fill:rgb(117,42,84);fill-rule:nonzero;"/>
                        </g>
                        <g transform="matrix(-0.707107,-0.707107,-0.707107,0.707107,452.867279,1356.643007)">
                            <path d="M-1.59,-3.843C-2.833,-3.843 -3.842,-2.836 -3.842,-1.591C-3.842,-0.348 -2.833,0.659 -1.59,0.66C-0.348,0.659 0.66,-0.349 0.661,-1.591C0.66,-2.835 -0.347,-3.843 -1.59,-3.843" style="fill:rgb(117,42,84);fill-rule:nonzero;"/>
                        </g>
                    </g>
</g>
</g>
</svg>
