<svg xmlns="http://www.w3.org/2000/svg" viewBox="5167.0472059904105 4861.835135740113 466.40170094629957 846.5155480220719">
<defs>
<radialGradient xmlns="http://www.w3.org/2000/svg" id="_Radial30" cx="0" cy="0" r="1" gradientUnits="userSpaceOnUse" gradientTransform="matrix(1,0,0,-1,0,0.338014)"><stop offset="0" style="stop-color:rgb(93,255,13);stop-opacity:1"/><stop offset="1" style="stop-color:rgb(207,13,255);stop-opacity:1"/></radialGradient>
<radialGradient xmlns="http://www.w3.org/2000/svg" id="_Radial31" cx="0" cy="0" r="1" gradientUnits="userSpaceOnUse" gradientTransform="matrix(1,-0,-0,-1,0,0.337964)"><stop offset="0" style="stop-color:rgb(93,255,13);stop-opacity:1"/><stop offset="1" style="stop-color:rgb(207,13,255);stop-opacity:1"/></radialGradient>
<radialGradient xmlns="http://www.w3.org/2000/svg" id="_Radial32" cx="0" cy="0" r="1" gradientUnits="userSpaceOnUse" gradientTransform="matrix(1,0,0,-1,0,0.320964)"><stop offset="0" style="stop-color:rgb(93,255,13);stop-opacity:1"/><stop offset="1" style="stop-color:rgb(207,13,255);stop-opacity:1"/></radialGradient>
<radialGradient xmlns="http://www.w3.org/2000/svg" id="_Radial33" cx="0" cy="0" r="1" gradientUnits="userSpaceOnUse" gradientTransform="matrix(1,-0,-0,-1,0,0.337983)"><stop offset="0" style="stop-color:rgb(93,255,13);stop-opacity:1"/><stop offset="1" style="stop-color:rgb(207,13,255);stop-opacity:1"/></radialGradient>
<radialGradient xmlns="http://www.w3.org/2000/svg" id="_Radial34" cx="0" cy="0" r="1" gradientUnits="userSpaceOnUse" gradientTransform="matrix(1,0,0,-1,0,0.337989)"><stop offset="0" style="stop-color:rgb(93,255,13);stop-opacity:1"/><stop offset="1" style="stop-color:rgb(207,13,255);stop-opacity:1"/></radialGradient>
<radialGradient xmlns="http://www.w3.org/2000/svg" id="_Radial35" cx="0" cy="0" r="1" gradientUnits="userSpaceOnUse" gradientTransform="matrix(1,-0,-0,-1,0,0.337982)"><stop offset="0" style="stop-color:rgb(93,255,13);stop-opacity:1"/><stop offset="1" style="stop-color:rgb(207,13,255);stop-opacity:1"/></radialGradient>
<radialGradient xmlns="http://www.w3.org/2000/svg" id="_Radial36" cx="0" cy="0" r="1" gradientUnits="userSpaceOnUse" gradientTransform="matrix(1,0,0,-1,0,0.337999)"><stop offset="0" style="stop-color:rgb(93,255,13);stop-opacity:1"/><stop offset="1" style="stop-color:rgb(207,13,255);stop-opacity:1"/></radialGradient>
<radialGradient xmlns="http://www.w3.org/2000/svg" id="_Radial37" cx="0" cy="0" r="1" gradientUnits="userSpaceOnUse" gradientTransform="matrix(1,-0,-0,-1,0,0.337965)"><stop offset="0" style="stop-color:rgb(93,255,13);stop-opacity:1"/><stop offset="1" style="stop-color:rgb(207,13,255);stop-opacity:1"/></radialGradient>
</defs>
<g transform="matrix(4.166667,0,0,4.166667,0,0)">
<g transform="matrix(1,0,0,1,-11.56697,1.462939)">
<g xmlns="http://www.w3.org/2000/svg">
                        <g transform="matrix(1,0,0,1,1281.6687,1331.4684)">
                            <path d="M0,-163.211C-20.912,-137.529 -23.498,-87.311 -10.024,-57.057C-4.686,-45.071 -5.115,-33.655 0.183,-21.653C5.48,-9.65 18.605,-8.195 43.308,0" style="fill:none;fill-rule:nonzero;stroke:rgb(51,181,129);stroke-width:4.25px;"/>
                        </g>
                        <g transform="matrix(1,0,0,1,1268.0457,1270.7807)">
                            <path d="M0,-14.572C9.673,-16.09 19.786,-8.231 20.703,1.518C15.444,-4.249 6.607,-6.436 0,-14.572Z" style="fill:rgb(51,181,129);fill-rule:nonzero;stroke:rgb(51,181,129);stroke-width:4.25px;"/>
                        </g>
                        <g transform="matrix(1,0,0,1,1268.1482,1297.2536)">
                            <path d="M0,-24.505C-9.054,-20.775 -13.61,-8.806 -9.328,0C-7.831,-7.66 -1.417,-14.12 0,-24.505Z" style="fill:rgb(51,181,129);fill-rule:nonzero;stroke:rgb(51,181,129);stroke-width:4.25px;"/>
                        </g>
                        <g transform="matrix(-0.269833,-0.962907,-0.962907,0.269833,1321.346796,1321.937979)">
                            <path d="M-12.29,-16.207C-19.339,-16.207 -25.054,-10.493 -25.053,-3.444C-25.053,3.605 -19.338,9.319 -12.29,9.319C-5.241,9.319 0.473,3.604 0.473,-3.444C0.473,-10.493 -5.242,-16.207 -12.29,-16.207" style="fill:rgb(255,211,13);fill-rule:nonzero;"/>
                        </g>
                        <g transform="matrix(-4.888984,38.789913,38.789913,4.888984,1315.135535,1331.223431)">
                            <path d="M-0.765,0.003C-0.633,-0.058 -0.474,-0.043 -0.355,0.035C-0.236,0.114 -0.16,0.253 -0.158,0.396C-0.262,0.356 -0.385,0.322 -0.499,0.275C-0.614,0.227 -0.729,0.159 -0.782,0.046C-0.787,0.037 -0.789,0.03 -0.788,0.023C-0.786,0.012 -0.776,0.005 -0.765,0.003Z" style="fill:url(#_Radial30);fill-rule:nonzero;"/>
                        </g>
                        <g transform="matrix(1,0,0,1,1331.2666,1300.4115)">
                            <path d="M0,26.609C-5.524,25.852 -10.571,22.208 -13.028,17.202C-15.485,12.196 -15.281,5.975 -12.268,1.14C-12.054,0.501 -11.47,0 -10.507,0.712C-6.416,3.308 -4.314,8.114 -3.037,12.789C-1.761,17.463 -1.04,22.375 0,26.609Z" style="fill:none;fill-rule:nonzero;stroke:rgb(51,181,129);stroke-width:1.1px;"/>
                        </g>
                        <g transform="matrix(-30.885644,23.971576,23.971576,30.885644,1320.044067,1322.61677)">
                            <path d="M-0.765,0.003C-0.633,-0.058 -0.474,-0.043 -0.355,0.035C-0.236,0.114 -0.16,0.253 -0.158,0.396C-0.262,0.356 -0.385,0.322 -0.499,0.275C-0.614,0.227 -0.729,0.159 -0.782,0.046C-0.792,0.028 -0.789,0.016 -0.78,0.009C-0.776,0.006 -0.771,0.004 -0.765,0.003Z" style="fill:url(#_Radial31);fill-rule:nonzero;"/>
                        </g>
                        <g transform="matrix(1,0,0,1,1334.4209,1304.0658)">
                            <path d="M0,26.984C-3.371,22.543 -4.363,16.397 -2.56,11.12C-0.758,5.842 3.785,1.588 9.335,0.3C9.938,0 10.706,0.057 10.883,1.243C11.94,5.971 10.027,10.855 7.625,15.064C5.222,19.272 2.259,23.255 0,26.984Z" style="fill:none;fill-rule:nonzero;stroke:rgb(51,181,129);stroke-width:1.1px;"/>
                        </g>
                        <g transform="matrix(-38.789913,-4.888984,-4.888984,38.789913,1329.515478,1320.660182)">
                            <path d="M-0.355,0.018C-0.236,0.097 -0.16,0.236 -0.158,0.379C-0.262,0.339 -0.385,0.305 -0.499,0.258C-0.614,0.21 -0.729,0.142 -0.782,0.029C-0.797,0.003 -0.782,-0.011 -0.765,-0.014C-0.693,-0.047 -0.614,-0.058 -0.537,-0.048C-0.472,-0.04 -0.41,-0.018 -0.355,0.018Z" style="fill:url(#_Radial32);fill-rule:nonzero;"/>
                        </g>
                        <g transform="matrix(1,0,0,1,1333.8018,1320.6449)">
                            <path d="M0,15.485C0.757,9.961 4.401,4.914 9.407,2.457C14.413,0 20.634,0.204 25.469,3.217C26.108,3.431 26.609,4.015 25.897,4.978C23.301,9.069 18.495,11.171 13.82,12.448C9.146,13.724 4.234,14.445 0,15.485Z" style="fill:none;fill-rule:nonzero;stroke:rgb(51,181,129);stroke-width:1.1px;"/>
                        </g>
                        <g transform="matrix(-23.971576,-30.885644,-30.885644,23.971576,1338.206061,1324.906909)">
                            <path d="M-0.158,0.396C-0.262,0.356 -0.385,0.322 -0.499,0.275C-0.614,0.227 -0.729,0.159 -0.782,0.046C-0.797,0.02 -0.782,0.007 -0.765,0.003C-0.633,-0.058 -0.474,-0.043 -0.355,0.035C-0.316,0.061 -0.281,0.094 -0.252,0.131C-0.194,0.206 -0.159,0.3 -0.158,0.396Z" style="fill:url(#_Radial33);fill-rule:nonzero;"/>
                        </g>
                        <g transform="matrix(1,0,0,1,1329.7725,1346.8612)">
                            <path d="M0,-7.577C4.441,-10.948 10.587,-11.94 15.864,-10.137C21.142,-8.335 25.396,-3.792 26.684,1.758C26.984,2.361 26.927,3.129 25.741,3.306C21.013,4.363 16.129,2.45 11.92,0.048C7.712,-2.355 3.729,-5.318 0,-7.577Z" style="fill:none;fill-rule:nonzero;stroke:rgb(51,181,129);stroke-width:1.1px;"/>
                        </g>
                        <g transform="matrix(4.888984,-38.789913,-38.789913,-4.888984,1340.822484,1334.461994)">
                            <path d="M-0.499,0.275C-0.614,0.227 -0.729,0.159 -0.782,0.046C-0.797,0.02 -0.782,0.006 -0.765,0.003C-0.633,-0.058 -0.474,-0.043 -0.355,0.035C-0.236,0.114 -0.16,0.253 -0.158,0.396C-0.262,0.356 -0.385,0.322 -0.499,0.275Z" style="fill:url(#_Radial34);fill-rule:nonzero;"/>
                        </g>
                        <g transform="matrix(1,0,0,1,1324.6924,1365.274)">
                            <path d="M0,-26.609C5.524,-25.852 10.571,-22.208 13.028,-17.202C15.485,-12.196 15.281,-5.975 12.268,-1.14C12.054,-0.501 11.47,0 10.507,-0.712C6.416,-3.308 4.314,-8.114 3.037,-12.789C1.761,-17.463 1.04,-22.375 0,-26.609Z" style="fill:none;fill-rule:nonzero;stroke:rgb(51,181,129);stroke-width:1.1px;"/>
                        </g>
                        <g transform="matrix(30.885644,-23.971576,-23.971576,-30.885644,1335.915346,1343.068352)">
                            <path d="M-0.499,0.275C-0.614,0.227 -0.729,0.159 -0.782,0.046C-0.797,0.02 -0.782,0.006 -0.765,0.003C-0.633,-0.058 -0.474,-0.043 -0.355,0.035C-0.236,0.114 -0.16,0.253 -0.158,0.396C-0.262,0.356 -0.385,0.322 -0.499,0.275Z" style="fill:url(#_Radial35);fill-rule:nonzero;"/>
                        </g>
                        <g transform="matrix(1,0,0,1,1321.5381,1361.6188)">
                            <path d="M0,-26.984C3.371,-22.543 4.363,-16.397 2.56,-11.12C0.758,-5.842 -3.785,-1.588 -9.335,-0.3C-9.938,0 -10.706,-0.057 -10.883,-1.243C-11.94,-5.971 -10.027,-10.855 -7.625,-15.064C-5.222,-19.272 -2.259,-23.255 0,-26.984Z" style="fill:none;fill-rule:nonzero;stroke:rgb(51,181,129);stroke-width:1.1px;"/>
                        </g>
                        <g transform="matrix(38.789913,4.888984,4.888984,-38.789913,1326.360225,1345.686138)">
                            <path d="M-0.499,0.275C-0.614,0.227 -0.729,0.159 -0.782,0.046C-0.797,0.02 -0.782,0.006 -0.765,0.003C-0.633,-0.058 -0.474,-0.043 -0.355,0.035C-0.236,0.114 -0.16,0.253 -0.158,0.396C-0.262,0.356 -0.385,0.322 -0.499,0.275Z" style="fill:url(#_Radial36);fill-rule:nonzero;"/>
                        </g>
                        <g transform="matrix(1,0,0,1,1322.1572,1345.0407)">
                            <path d="M0,-15.485C-0.757,-9.961 -4.401,-4.914 -9.407,-2.457C-14.413,0 -20.634,-0.204 -25.469,-3.217C-26.108,-3.431 -26.609,-4.015 -25.897,-4.978C-23.301,-9.069 -18.495,-11.171 -13.82,-12.448C-9.146,-13.724 -4.234,-14.445 0,-15.485Z" style="fill:none;fill-rule:nonzero;stroke:rgb(51,181,129);stroke-width:1.1px;"/>
                        </g>
                        <g transform="matrix(23.971576,30.885644,30.885644,-23.971576,1317.753473,1340.778211)">
                            <path d="M-0.782,0.046C-0.797,0.02 -0.782,0.006 -0.765,0.003C-0.633,-0.058 -0.474,-0.043 -0.355,0.035C-0.236,0.113 -0.16,0.253 -0.158,0.396C-0.262,0.356 -0.385,0.322 -0.499,0.275C-0.592,0.236 -0.684,0.184 -0.745,0.107C-0.759,0.088 -0.772,0.068 -0.782,0.046Z" style="fill:url(#_Radial37);fill-rule:nonzero;"/>
                        </g>
                        <g transform="matrix(1,0,0,1,1326.1865,1318.8244)">
                            <path d="M0,7.577C-4.441,10.948 -10.587,11.94 -15.864,10.137C-21.142,8.335 -25.396,3.792 -26.684,-1.758C-26.984,-2.361 -26.927,-3.129 -25.741,-3.306C-21.013,-4.363 -16.129,-2.45 -11.92,-0.048C-7.712,2.355 -3.729,5.318 0,7.577Z" style="fill:none;fill-rule:nonzero;stroke:rgb(51,181,129);stroke-width:1.1px;"/>
                        </g>
                    </g>
</g>
</g>
</svg>
