<svg xmlns="http://www.w3.org/2000/svg" viewBox="1874.9423592887103 6076.351899568113 863.4986464807196 848.0638159251012">
<defs>
<radialGradient xmlns="http://www.w3.org/2000/svg" id="_Radial118" cx="0" cy="0" r="1" gradientUnits="userSpaceOnUse" gradientTransform="matrix(1,0,0,-1,0,-0.126702)"><stop offset="0" style="stop-color:rgb(180,156,255);stop-opacity:1"/><stop offset="1" style="stop-color:rgb(230,28,21);stop-opacity:1"/></radialGradient>
<radialGradient xmlns="http://www.w3.org/2000/svg" id="_Radial119" cx="0" cy="0" r="1" gradientUnits="userSpaceOnUse" gradientTransform="matrix(1,0,0,-1,0,-0.126712)"><stop offset="0" style="stop-color:rgb(180,156,255);stop-opacity:1"/><stop offset="1" style="stop-color:rgb(230,28,21);stop-opacity:1"/></radialGradient>
<radialGradient xmlns="http://www.w3.org/2000/svg" id="_Radial120" cx="0" cy="0" r="1" gradientUnits="userSpaceOnUse" gradientTransform="matrix(1,0,0,-1,0,-0.117726)"><stop offset="0" style="stop-color:rgb(180,156,255);stop-opacity:1"/><stop offset="1" style="stop-color:rgb(230,28,21);stop-opacity:1"/></radialGradient>
<radialGradient xmlns="http://www.w3.org/2000/svg" id="_Radial121" cx="0" cy="0" r="1" gradientUnits="userSpaceOnUse" gradientTransform="matrix(1,0,0,-1,0,-0.126671)"><stop offset="0" style="stop-color:rgb(180,156,255);stop-opacity:1"/><stop offset="1" style="stop-color:rgb(230,28,21);stop-opacity:1"/></radialGradient>
<radialGradient xmlns="http://www.w3.org/2000/svg" id="_Radial122" cx="0" cy="0" r="1" gradientUnits="userSpaceOnUse" gradientTransform="matrix(1,0,0,-1,0,-0.126682)"><stop offset="0" style="stop-color:rgb(180,156,255);stop-opacity:1"/><stop offset="1" style="stop-color:rgb(230,28,21);stop-opacity:1"/></radialGradient>
<radialGradient xmlns="http://www.w3.org/2000/svg" id="_Radial123" cx="0" cy="0" r="1" gradientUnits="userSpaceOnUse" gradientTransform="matrix(1,0,0,-1,0,0.765347)"><stop offset="0" style="stop-color:rgb(217,130,0);stop-opacity:1"/><stop offset="1" style="stop-color:rgb(197,255,158);stop-opacity:1"/></radialGradient>
<radialGradient xmlns="http://www.w3.org/2000/svg" id="_Radial124" cx="0" cy="0" r="1" gradientUnits="userSpaceOnUse" gradientTransform="matrix(1,0,0,-1,0,0.765995)"><stop offset="0" style="stop-color:rgb(217,130,0);stop-opacity:1"/><stop offset="1" style="stop-color:rgb(197,255,158);stop-opacity:1"/></radialGradient>
<radialGradient xmlns="http://www.w3.org/2000/svg" id="_Radial125" cx="0" cy="0" r="1" gradientUnits="userSpaceOnUse" gradientTransform="matrix(1,0,0,-1,0,0.766819)"><stop offset="0" style="stop-color:rgb(217,130,0);stop-opacity:1"/><stop offset="1" style="stop-color:rgb(197,255,158);stop-opacity:1"/></radialGradient>
<radialGradient xmlns="http://www.w3.org/2000/svg" id="_Radial126" cx="0" cy="0" r="1" gradientUnits="userSpaceOnUse" gradientTransform="matrix(1,0,0,-1,0,0.765333)"><stop offset="0" style="stop-color:rgb(217,130,0);stop-opacity:1"/><stop offset="1" style="stop-color:rgb(197,255,158);stop-opacity:1"/></radialGradient>
<radialGradient xmlns="http://www.w3.org/2000/svg" id="_Radial127" cx="0" cy="0" r="1" gradientUnits="userSpaceOnUse" gradientTransform="matrix(1,-0,-0,-1,0,0.76533)"><stop offset="0" style="stop-color:rgb(217,130,0);stop-opacity:1"/><stop offset="1" style="stop-color:rgb(197,255,158);stop-opacity:1"/></radialGradient>
</defs>
<g transform="matrix(4.166667,0,0,4.166667,0,0)">
<g transform="matrix(1,0,0,1,-11.56697,1.462939)">
<g xmlns="http://www.w3.org/2000/svg">
                        <g transform="matrix(-0.036272,-0.999342,-0.999342,0.036272,628.064218,1449.737616)">
                            <path d="M-115.265,-28.427C-121.462,-28.267 -125.578,-21.012 -124.777,-14.652C-123.975,-8.291 -119.722,-2.94 -115.265,1.596C-104.27,12.79 -20.901,-0.96 -43.341,68.234C-48.167,83.118 -38.822,95.537 -43.402,111.803" style="fill:none;fill-rule:nonzero;stroke:rgb(19,191,160);stroke-width:2.89px;"/>
                        </g>
                        <g transform="matrix(1,0,0,1,511.9771,1464.654)">
                            <path d="M0,30.971C6.238,31.104 12.621,30.035 17.919,26.933C23.216,23.83 27.291,18.492 27.81,12.485C28.328,6.477 24.771,0.024 18.917,-2.156C11.978,2.162 5.871,7.709 0.978,14.135C-3.094,19.483 -6.338,26.827 -2.822,32.649C-2.296,31.524 -0.181,31.789 0.067,33.014C-0.749,33.071 -1.565,33.127 0,30.971Z" style="fill:rgb(218,255,117);fill-rule:nonzero;stroke:black;stroke-width:0.5px;"/>
                        </g>
                        <g transform="matrix(1,0,0,1,512.5615,1516.6582)">
                            <path d="M0,-14.791C1.801,-8.817 4.79,-3.077 9.378,1.003C13.966,5.082 20.301,7.309 26.175,5.944C32.05,4.581 37.088,-0.796 37.352,-7.036C31.101,-12.302 23.938,-16.396 16.314,-19.064C9.971,-21.284 1.981,-22.1 -2.468,-16.956C-1.234,-16.805 -0.835,-14.71 -1.921,-14.096C-2.229,-14.855 -2.535,-15.613 0,-14.791Z" style="fill:rgb(218,255,117);fill-rule:nonzero;stroke:black;stroke-width:0.5px;"/>
                        </g>
                        <g transform="matrix(1,0,0,1,506.8047,1540.9345)">
                            <path d="M0,-36.582C-5.125,-33.022 -9.66,-28.406 -12.123,-22.782C-14.584,-17.158 -14.744,-10.445 -11.632,-5.28C-8.52,-0.114 -1.849,3.016 4.167,1.338C7.243,-6.234 8.924,-14.311 9.106,-22.386C9.257,-29.105 7.564,-36.955 1.297,-39.598C1.534,-38.378 -0.334,-37.351 -1.254,-38.194C-0.627,-38.721 0,-39.246 0,-36.582Z" style="fill:rgb(218,255,117);fill-rule:nonzero;stroke:black;stroke-width:0.5px;"/>
                        </g>
                        <g transform="matrix(1,0,0,1,502.6631,1508.0435)">
                            <path d="M0,-8.397C-4.969,-12.171 -10.761,-15.059 -16.87,-15.663C-22.979,-16.266 -29.414,-14.343 -33.364,-9.788C-37.315,-5.231 -38.23,2.08 -34.775,7.284C-26.624,7.869 -18.423,6.972 -10.688,4.65C-4.25,2.716 2.693,-1.319 3.269,-8.096C2.182,-7.495 0.628,-8.953 1.146,-10.088C1.84,-9.655 2.534,-9.221 0,-8.397Z" style="fill:rgb(218,255,117);fill-rule:nonzero;stroke:black;stroke-width:0.5px;"/>
                        </g>
                        <g transform="matrix(1,0,0,1,505.8594,1464.4894)">
                            <path d="M0,29.763C2.055,23.871 3.01,17.471 1.697,11.473C0.383,5.476 -3.434,-0.049 -8.988,-2.398C-14.543,-4.748 -21.778,-3.359 -25.66,1.535C-23.697,9.469 -20.31,16.992 -15.711,23.63C-11.883,29.156 -5.899,34.511 0.724,32.965C-0.185,32.117 0.723,30.189 1.963,30.33C1.766,31.125 1.566,31.918 0,29.763Z" style="fill:rgb(218,255,117);fill-rule:nonzero;stroke:black;stroke-width:0.5px;"/>
                        </g>
                        <g transform="matrix(1,0,0,1,512.5361,1490.5462)">
                            <path d="M0,8.071C4.295,11.085 9.293,13.346 14.549,13.709C19.805,14.071 25.323,12.335 28.69,8.471C32.057,4.61 32.797,-1.466 29.793,-5.699C22.782,-6 15.738,-5.073 9.104,-2.976C3.582,-1.23 -2.36,2.27 -2.812,7.895C-1.881,7.372 -0.536,8.546 -0.975,9.498C-1.574,9.154 -2.173,8.81 0,8.071Z" style="fill:rgb(117,182,255);fill-rule:nonzero;stroke:black;stroke-width:0.5px;"/>
                        </g>
                        <g transform="matrix(1,0,0,1,509.8887,1528.7018)">
                            <path d="M0,-25.38C-1.539,-20.363 -2.145,-14.912 -0.865,-9.801C0.413,-4.69 3.771,0.021 8.485,2.03C13.198,4.038 19.206,2.865 22.303,-1.299C20.423,-8.061 17.363,-14.474 13.319,-20.135C9.952,-24.847 4.788,-29.418 -0.701,-28.109C0.084,-27.385 -0.616,-25.744 -1.658,-25.866C-1.517,-26.542 -1.374,-27.218 0,-25.38Z" style="fill:rgb(117,182,255);fill-rule:nonzero;stroke:black;stroke-width:0.5px;"/>
                        </g>
                        <g transform="matrix(1,0,0,1,504.5962,1529.0358)">
                            <path d="M0,-26.777C-5.247,-26.69 -10.619,-25.582 -15.084,-22.786C-19.549,-19.99 -22.993,-15.341 -23.446,-10.237C-23.9,-5.133 -20.927,0.217 -16.01,1.875C-10.16,-2.002 -5.006,-6.893 -0.872,-12.489C2.569,-17.147 5.32,-23.47 2.378,-28.287C1.933,-27.317 0.155,-27.475 -0.05,-28.504C0.637,-28.578 1.324,-28.652 0,-26.777Z" style="fill:rgb(117,182,255);fill-rule:nonzero;stroke:black;stroke-width:0.5px;"/>
                        </g>
                        <g transform="matrix(1,0,0,1,503.9717,1484.6435)">
                            <path d="M0,12.253C-1.703,7.29 -4.418,2.524 -8.457,-0.859C-12.495,-4.242 -17.981,-6.081 -22.976,-4.934C-27.97,-3.789 -32.14,0.691 -32.197,5.881C-26.702,10.246 -20.457,13.636 -13.858,15.839C-8.364,17.672 -1.5,18.334 2.172,14.048C1.111,13.925 0.712,12.185 1.627,11.672C1.91,12.302 2.192,12.933 0,12.253Z" style="fill:rgb(117,182,255);fill-rule:nonzero;stroke:black;stroke-width:0.5px;"/>
                        </g>
                        <g transform="matrix(1,0,0,1,508.8789,1463.127)">
                            <path d="M0,31.519C4.193,28.365 7.889,24.311 9.857,19.424C11.826,14.538 11.88,8.753 9.247,4.357C6.613,-0.039 1.064,-2.62 -3.889,-1.071C-6.343,5.504 -7.637,12.49 -7.693,19.448C-7.738,25.239 -6.247,31.971 -1.036,34.139C-1.246,33.092 0.285,32.175 1.056,32.887C0.543,33.351 0.031,33.814 0,31.519Z" style="fill:rgb(117,182,255);fill-rule:nonzero;stroke:black;stroke-width:0.5px;"/>
                        </g>
                        <g transform="matrix(-16.882583,-8.400907,-8.400907,16.882583,524.139628,1509.517456)">
                            <path d="M0.932,-0.123C0.904,-0.131 0.876,-0.107 0.868,-0.081C0.857,-0.084 0.841,-0.086 0.819,-0.088C0.678,0.077 0.5,0.217 0.289,0.283C0.078,0.348 -0.169,0.33 -0.352,0.205C-0.535,0.079 -0.636,-0.163 -0.562,-0.365C-0.278,-0.445 0.021,-0.475 0.317,-0.453C0.447,-0.443 0.588,-0.415 0.704,-0.357C0.808,-0.305 0.893,-0.23 0.932,-0.123ZM0.876,-0.039C0.866,-0.051 0.864,-0.066 0.868,-0.081C0.874,-0.079 0.879,-0.077 0.883,-0.075C0.903,-0.065 0.889,-0.052 0.876,-0.039Z" style="fill:url(#_Radial118);fill-rule:nonzero;"/>
                        </g>
                        <g transform="matrix(2.772732,-18.652314,-18.652314,-2.772732,503.107326,1517.725515)">
                            <path d="M0.868,-0.081C0.857,-0.084 0.841,-0.086 0.819,-0.088C0.678,0.077 0.5,0.217 0.289,0.283C0.078,0.348 -0.169,0.33 -0.352,0.205C-0.535,0.079 -0.636,-0.163 -0.562,-0.365C-0.278,-0.445 0.021,-0.475 0.317,-0.453C0.564,-0.435 0.848,-0.349 0.933,-0.123C0.904,-0.131 0.876,-0.107 0.868,-0.081ZM0.876,-0.039C0.866,-0.051 0.864,-0.066 0.868,-0.081C0.888,-0.075 0.894,-0.069 0.893,-0.062C0.892,-0.055 0.884,-0.047 0.876,-0.039Z" style="fill:url(#_Radial119);fill-rule:nonzero;"/>
                        </g>
                        <g transform="matrix(18.596226,-3.126857,-3.126857,-18.596226,488.83013,1500.427928)">
                            <path d="M-0.352,0.214C-0.535,0.088 -0.636,-0.154 -0.562,-0.356C-0.278,-0.436 0.021,-0.466 0.317,-0.444C0.564,-0.426 0.848,-0.34 0.932,-0.114C0.904,-0.122 0.876,-0.098 0.868,-0.072C0.857,-0.075 0.841,-0.077 0.819,-0.079C0.678,0.086 0.5,0.226 0.289,0.292C0.254,0.303 0.218,0.311 0.181,0.317C-0.003,0.348 -0.199,0.318 -0.352,0.214ZM0.868,-0.072C0.908,-0.061 0.892,-0.046 0.876,-0.03C0.866,-0.042 0.864,-0.057 0.868,-0.072Z" style="fill:url(#_Radial120);fill-rule:nonzero;"/>
                        </g>
                        <g transform="matrix(8.720367,16.71981,16.71981,-8.720367,500.990942,1481.25826)">
                            <path d="M-0.562,-0.365C-0.278,-0.445 0.021,-0.475 0.317,-0.453C0.564,-0.435 0.848,-0.349 0.933,-0.123C0.904,-0.131 0.876,-0.107 0.868,-0.081C0.857,-0.083 0.841,-0.086 0.819,-0.088C0.678,0.077 0.5,0.217 0.289,0.283C0.078,0.348 -0.169,0.33 -0.352,0.205C-0.426,0.154 -0.487,0.083 -0.528,0.005C-0.588,-0.111 -0.606,-0.245 -0.562,-0.365ZM0.868,-0.081C0.908,-0.07 0.892,-0.055 0.876,-0.039C0.874,-0.042 0.872,-0.044 0.871,-0.047C0.865,-0.057 0.865,-0.069 0.868,-0.081Z" style="fill:url(#_Radial121);fill-rule:nonzero;"/>
                        </g>
                        <g transform="matrix(-13.206743,13.460267,13.460267,13.206743,522.830892,1486.978698)">
                            <path d="M0.317,-0.453C0.564,-0.435 0.848,-0.349 0.932,-0.123C0.904,-0.131 0.876,-0.107 0.868,-0.081C0.857,-0.084 0.841,-0.086 0.819,-0.088C0.678,0.077 0.5,0.217 0.289,0.283C0.078,0.348 -0.169,0.33 -0.352,0.205C-0.535,0.079 -0.636,-0.163 -0.562,-0.365C-0.278,-0.445 0.021,-0.475 0.317,-0.453ZM0.876,-0.039C0.866,-0.051 0.864,-0.066 0.868,-0.081C0.908,-0.07 0.892,-0.055 0.876,-0.039Z" style="fill:url(#_Radial122);fill-rule:nonzero;"/>
                        </g>
                        <g transform="matrix(-0.331118,-0.943589,-0.943589,0.331118,591.375596,1504.797426)">
                            <path d="M-5.492,-17.681C-9.563,-15.484 -11.221,-10.23 -10.666,-5.502C-10.11,-0.772 -7.778,3.584 -5.492,7.8C-9.637,3.342 -13.883,-1.272 -16.102,-6.938C-18.323,-12.606 -18.043,-19.654 -5.492,-17.681Z" style="fill:rgb(19,191,160);fill-rule:nonzero;stroke:rgb(19,191,160);stroke-width:2.89px;"/>
                        </g>
                        <g transform="matrix(0.996361,0.085239,0.085239,-0.996361,585.188463,1490.496612)">
                            <path d="M0.964,-0.537C5.136,1.696 6.837,6.858 6.267,11.46C5.698,16.063 3.308,20.259 0.964,24.322C5.214,20.065 9.565,15.658 11.84,10.179C14.115,4.699 13.828,-2.184 0.964,-0.537Z" style="fill:rgb(19,191,160);fill-rule:nonzero;stroke:rgb(19,191,160);stroke-width:2.89px;"/>
                        </g>
                        <g transform="matrix(1,0,0,1,655.1667,1562.3871)">
                            <path d="M0,24.873C-8.71,15.547 -18.905,6.941 -31.227,3.107C-43.549,-0.727 -58.35,1.167 -66.895,10.361C-70.406,14.139 -72.83,19.018 -77.288,21.707C-83.741,25.6 -92.198,23.684 -99.513,21.363C-106.828,19.043 -114.868,16.439 -121.908,19.251" style="fill:none;fill-rule:nonzero;stroke:rgb(19,191,160);stroke-width:2.89px;"/>
                        </g>
                        <g transform="matrix(1,0,0,1,519.0479,1554.5087)">
                            <path d="M0,25.836C5.204,25.946 10.528,25.056 14.947,22.468C19.367,19.878 22.766,15.427 23.198,10.415C23.63,5.401 20.664,0.019 15.78,-1.798C9.993,1.804 4.896,6.431 0.815,11.791C-2.581,16.251 -5.288,22.379 -2.354,27.235C-1.915,26.296 -0.151,26.519 0.056,27.539C-0.625,27.587 -1.306,27.634 0,25.836Z" style="fill:rgb(239,255,176);fill-rule:nonzero;stroke:black;stroke-width:0.42px;"/>
                        </g>
                        <g transform="matrix(1,0,0,1,519.5352,1597.8887)">
                            <path d="M0,-12.336C1.502,-7.354 3.994,-2.565 7.822,0.838C11.65,4.241 16.935,6.098 21.835,4.961C26.736,3.823 30.937,-0.662 31.158,-5.868C25.943,-10.259 19.969,-13.676 13.609,-15.901C8.317,-17.753 1.653,-18.434 -2.059,-14.143C-1.029,-14.016 -0.697,-12.27 -1.604,-11.757C-1.858,-12.39 -2.113,-13.023 0,-12.336Z" style="fill:rgb(239,255,176);fill-rule:nonzero;stroke:black;stroke-width:0.42px;"/>
                        </g>
                        <g transform="matrix(1,0,0,1,514.7334,1618.14)">
                            <path d="M0,-30.515C-4.275,-27.546 -8.059,-23.696 -10.112,-19.004C-12.166,-14.312 -12.299,-8.713 -9.703,-4.404C-7.106,-0.094 -1.542,2.516 3.477,1.117C6.042,-5.2 7.445,-11.938 7.596,-18.673C7.722,-24.279 6.31,-30.827 1.082,-33.031C1.279,-32.013 -0.279,-31.157 -1.046,-31.861C-0.523,-32.299 0,-32.738 0,-30.515Z" style="fill:rgb(239,255,176);fill-rule:nonzero;stroke:black;stroke-width:0.42px;"/>
                        </g>
                        <g transform="matrix(1,0,0,1,511.2783,1590.7042)">
                            <path d="M0,-7.006C-4.145,-10.153 -8.976,-12.563 -14.072,-13.066C-19.17,-13.569 -24.536,-11.966 -27.833,-8.165C-31.129,-4.364 -31.892,1.734 -29.01,6.075C-22.209,6.563 -15.367,5.815 -8.916,3.878C-3.546,2.265 2.246,-1.101 2.727,-6.755C1.82,-6.252 0.524,-7.47 0.956,-8.417C1.534,-8.055 2.113,-7.693 0,-7.006Z" style="fill:rgb(239,255,176);fill-rule:nonzero;stroke:black;stroke-width:0.42px;"/>
                        </g>
                        <g transform="matrix(1,0,0,1,513.9443,1554.3722)">
                            <path d="M0,24.827C1.714,19.912 2.511,14.574 1.415,9.571C0.319,4.567 -2.864,-0.04 -7.498,-2.001C-12.132,-3.961 -18.167,-2.802 -21.405,1.28C-19.769,7.898 -16.942,14.174 -13.105,19.712C-9.912,24.321 -4.921,28.788 0.604,27.498C-0.154,26.791 0.603,25.182 1.638,25.301C1.473,25.963 1.307,26.625 0,24.827Z" style="fill:rgb(239,255,176);fill-rule:nonzero;stroke:black;stroke-width:0.42px;"/>
                        </g>
                        <g transform="matrix(-26.244508,-17.614251,-17.614251,26.244508,529.337802,1561.688716)">
                            <path d="M-0.152,0.353C-0.057,0.472 0.022,0.636 -0.051,0.766C-0.059,0.75 -0.082,0.747 -0.098,0.754C-0.101,0.748 -0.107,0.74 -0.115,0.729C-0.253,0.732 -0.396,0.708 -0.517,0.638C-0.637,0.569 -0.732,0.45 -0.749,0.316C-0.766,0.182 -0.693,0.037 -0.565,-0.011C-0.546,0.001 -0.527,0.013 -0.508,0.026C-0.373,0.116 -0.252,0.227 -0.152,0.353ZM-0.114,0.774C-0.113,0.765 -0.106,0.758 -0.098,0.754C-0.086,0.776 -0.1,0.775 -0.114,0.774Z" style="fill:url(#_Radial123);fill-rule:nonzero;"/>
                        </g>
                        <g transform="matrix(1,0,0,1,519.5137,1576.1088)">
                            <path d="M0,6.731C3.583,9.245 7.751,11.131 12.137,11.434C16.521,11.737 21.124,10.288 23.933,7.065C26.742,3.843 27.359,-1.225 24.853,-4.755C19.005,-5.006 13.127,-4.233 7.594,-2.484C2.988,-1.027 -1.969,1.892 -2.346,6.585C-1.569,6.148 -0.447,7.127 -0.812,7.92C-1.312,7.635 -1.812,7.348 0,6.731Z" style="fill:none;fill-rule:nonzero;stroke:black;stroke-width:0.42px;"/>
                        </g>
                        <g transform="matrix(8.642149,-30.403113,-30.403113,-8.642149,540.478439,1589.578346)">
                            <path d="M-0.051,0.767C-0.059,0.751 -0.082,0.747 -0.098,0.755C-0.101,0.748 -0.107,0.74 -0.115,0.73C-0.253,0.732 -0.396,0.708 -0.517,0.639C-0.637,0.57 -0.732,0.45 -0.749,0.316C-0.766,0.182 -0.693,0.038 -0.565,-0.01C-0.407,0.086 -0.266,0.21 -0.152,0.354C-0.068,0.459 0.003,0.599 -0.031,0.72C-0.036,0.736 -0.042,0.752 -0.051,0.767ZM-0.114,0.775C-0.113,0.766 -0.106,0.759 -0.098,0.755C-0.094,0.762 -0.093,0.767 -0.094,0.77C-0.096,0.776 -0.105,0.776 -0.114,0.775Z" style="fill:url(#_Radial124);fill-rule:nonzero;"/>
                        </g>
                        <g transform="matrix(1,0,0,1,517.3066,1607.9386)">
                            <path d="M0,-21.173C-1.283,-16.987 -1.789,-12.441 -0.722,-8.177C0.345,-3.913 3.146,0.016 7.078,1.692C11.011,3.368 16.021,2.388 18.604,-1.085C17.036,-6.726 14.483,-12.075 11.109,-16.798C8.302,-20.729 3.995,-24.541 -0.586,-23.449C0.069,-22.846 -0.514,-21.477 -1.383,-21.578C-1.265,-22.142 -1.146,-22.706 0,-21.173Z" style="fill:none;fill-rule:nonzero;stroke:black;stroke-width:0.42px;"/>
                        </g>
                        <g transform="matrix(31.585649,-1.175906,-1.175906,-31.585649,517.377781,1608.81129)">
                            <path d="M-0.114,0.776C-0.113,0.766 -0.106,0.76 -0.098,0.756C-0.089,0.772 -0.095,0.776 -0.104,0.776C-0.107,0.776 -0.111,0.776 -0.114,0.776ZM-0.098,0.756C-0.101,0.749 -0.107,0.741 -0.115,0.73C-0.253,0.733 -0.396,0.709 -0.517,0.64C-0.637,0.571 -0.732,0.451 -0.749,0.317C-0.766,0.183 -0.693,0.039 -0.565,-0.01C-0.407,0.087 -0.266,0.211 -0.152,0.354C-0.057,0.474 0.022,0.638 -0.051,0.768C-0.059,0.751 -0.082,0.748 -0.098,0.756Z" style="fill:url(#_Radial125);fill-rule:nonzero;"/>
                        </g>
                        <g transform="matrix(1,0,0,1,512.8911,1608.2159)">
                            <path d="M0,-22.338C-4.376,-22.265 -8.857,-21.341 -12.583,-19.008C-16.308,-16.676 -19.18,-12.798 -19.558,-8.54C-19.937,-4.282 -17.457,0.181 -13.355,1.563C-8.476,-1.671 -4.176,-5.751 -0.727,-10.419C2.143,-14.305 4.437,-19.579 1.984,-23.598C1.613,-22.788 0.13,-22.92 -0.042,-23.777C0.531,-23.84 1.104,-23.901 0,-22.338Z" style="fill:none;fill-rule:nonzero;stroke:black;stroke-width:0.42px;"/>
                        </g>
                        <g transform="matrix(10.878856,29.676364,29.676364,-10.878856,491.990788,1592.743103)">
                            <path d="M-0.749,0.316C-0.766,0.181 -0.693,0.037 -0.565,-0.011C-0.407,0.085 -0.266,0.209 -0.152,0.353C-0.057,0.472 0.022,0.636 -0.051,0.766C-0.059,0.75 -0.082,0.747 -0.098,0.754C-0.101,0.748 -0.107,0.74 -0.115,0.729C-0.253,0.732 -0.396,0.708 -0.517,0.638C-0.613,0.583 -0.693,0.496 -0.73,0.395C-0.739,0.369 -0.746,0.343 -0.749,0.316ZM-0.098,0.754C-0.086,0.776 -0.1,0.775 -0.114,0.774C-0.113,0.765 -0.106,0.758 -0.098,0.754Z" style="fill:url(#_Radial126);fill-rule:nonzero;"/>
                        </g>
                        <g transform="matrix(1,0,0,1,512.3711,1571.1853)">
                            <path d="M0,10.22C-1.422,6.08 -3.686,2.105 -7.056,-0.718C-10.424,-3.54 -15,-5.073 -19.166,-4.117C-23.333,-3.161 -26.811,0.576 -26.858,4.905C-22.274,8.546 -17.065,11.374 -11.56,13.212C-6.978,14.741 -1.253,15.293 1.812,11.718C0.927,11.615 0.594,10.163 1.356,9.736C1.593,10.261 1.828,10.786 0,10.22Z" style="fill:none;fill-rule:nonzero;stroke:black;stroke-width:0.42px;"/>
                        </g>
                        <g transform="matrix(-24.862147,19.516906,19.516906,24.862147,499.383038,1563.648615)">
                            <path d="M-0.565,-0.011C-0.407,0.085 -0.266,0.209 -0.152,0.353C-0.057,0.472 0.022,0.636 -0.051,0.766C-0.059,0.75 -0.082,0.747 -0.098,0.754C-0.101,0.748 -0.107,0.74 -0.115,0.729C-0.253,0.732 -0.396,0.708 -0.517,0.638C-0.637,0.569 -0.732,0.45 -0.749,0.316C-0.763,0.208 -0.719,0.094 -0.635,0.028C-0.614,0.012 -0.591,-0.001 -0.565,-0.011ZM-0.098,0.754C-0.086,0.776 -0.1,0.775 -0.114,0.774C-0.113,0.768 -0.11,0.762 -0.105,0.758C-0.103,0.757 -0.1,0.755 -0.098,0.754Z" style="fill:url(#_Radial127);fill-rule:nonzero;"/>
                        </g>
                        <g transform="matrix(1,0,0,1,516.4639,1553.2348)">
                            <path d="M0,26.293C3.497,23.661 6.579,20.28 8.222,16.203C9.864,12.127 9.909,7.301 7.712,3.634C5.517,-0.033 0.887,-2.186 -3.245,-0.894C-5.291,4.591 -6.372,10.419 -6.418,16.223C-6.456,21.054 -5.212,26.669 -0.865,28.479C-1.04,27.605 0.237,26.84 0.88,27.433C0.453,27.82 0.026,28.207 0,26.293Z" style="fill:none;fill-rule:nonzero;stroke:black;stroke-width:0.42px;"/>
                        </g>
                        <g transform="matrix(0.907439,-0.420184,-0.420184,-0.907439,602.143855,1564.072159)">
                            <path d="M-4.719,1.43C-0.599,3.593 1.078,8.78 0.517,13.456C-0.045,18.132 -2.405,22.441 -4.719,26.612C-0.524,22.197 3.772,17.628 6.018,12.023C8.264,6.417 7.981,-0.549 -4.719,1.43Z" style="fill:rgb(19,191,160);fill-rule:nonzero;stroke:rgb(19,191,160);stroke-width:2.89px;"/>
                        </g>
                        <g transform="matrix(-0.331935,-0.943302,-0.943302,0.331935,584.662956,1573.750256)">
                            <path d="M-26.017,-65.996C-20.72,-61.031 -17.564,-53.786 -17.564,-46.589C-17.564,-39.392 -20.72,-32.359 -26.017,-27.751C-34.065,-20.75 -46.62,-19.096 -52.105,-9.869C-57.227,-1.254 -53.858,10.01 -50.381,19.707" style="fill:none;fill-rule:nonzero;stroke:rgb(19,191,160);stroke-width:2.89px;"/>
                        </g>
                        <g transform="matrix(1,0,0,1,579.4067,1608.2876)">
                            <path d="M0,19.228C3.873,19.31 7.835,18.648 11.124,16.721C14.413,14.794 16.942,11.482 17.265,7.751C17.586,4.021 15.378,0.015 11.744,-1.338C7.436,1.343 3.644,4.787 0.607,8.775C-1.92,12.095 -3.935,16.655 -1.752,20.269C-1.425,19.57 -0.113,19.736 0.042,20.496C-0.465,20.531 -0.972,20.566 0,19.228Z" style="fill:rgb(255,10,177);fill-rule:nonzero;stroke:black;stroke-width:0.31px;"/>
                        </g>
                        <g transform="matrix(1,0,0,1,579.7686,1640.5716)">
                            <path d="M0,-9.181C1.12,-5.473 2.974,-1.909 5.822,0.624C8.671,3.156 12.604,4.538 16.251,3.692C19.898,2.845 23.025,-0.493 23.189,-4.368C19.308,-7.636 14.862,-10.178 10.13,-11.834C6.191,-13.212 1.231,-13.719 -1.531,-10.526C-0.766,-10.431 -0.518,-9.131 -1.191,-8.749C-1.383,-9.221 -1.573,-9.692 0,-9.181Z" style="fill:rgb(255,10,177);fill-rule:nonzero;stroke:black;stroke-width:0.31px;"/>
                        </g>
                        <g transform="matrix(1,0,0,1,576.1958,1655.6446)">
                            <path d="M0,-22.711C-3.181,-20.501 -5.998,-17.636 -7.526,-14.145C-9.054,-10.652 -9.153,-6.485 -7.221,-3.278C-5.289,-0.071 -1.148,1.872 2.587,0.83C4.497,-3.871 5.541,-8.886 5.653,-13.898C5.747,-18.069 4.696,-22.942 0.805,-24.583C0.952,-23.826 -0.208,-23.189 -0.779,-23.712C-0.39,-24.039 0,-24.365 0,-22.711Z" style="fill:rgb(255,10,177);fill-rule:nonzero;stroke:black;stroke-width:0.31px;"/>
                        </g>
                        <g transform="matrix(1,0,0,1,573.6245,1635.2257)">
                            <path d="M0,-5.215C-3.085,-7.558 -6.68,-9.351 -10.473,-9.725C-14.267,-10.099 -18.26,-8.905 -20.714,-6.077C-23.167,-3.249 -23.735,1.29 -21.59,4.52C-16.528,4.884 -11.437,4.327 -6.636,2.886C-2.639,1.684 1.671,-0.819 2.029,-5.028C1.355,-4.653 0.39,-5.56 0.71,-6.265C1.142,-5.995 1.573,-5.726 0,-5.215Z" style="fill:rgb(255,10,177);fill-rule:nonzero;stroke:black;stroke-width:0.31px;"/>
                        </g>
                        <g transform="matrix(1,0,0,1,575.6094,1608.1851)">
                            <path d="M0,18.478C1.275,14.82 1.869,10.847 1.055,7.124C0.238,3.4 -2.131,-0.029 -5.58,-1.488C-9.027,-2.947 -13.521,-2.085 -15.93,0.953C-14.711,5.879 -12.608,10.549 -9.754,14.67C-7.377,18.1 -3.662,21.425 0.449,20.465C-0.114,19.939 0.449,18.742 1.219,18.83C1.097,19.323 0.973,19.816 0,18.478Z" style="fill:rgb(255,10,177);fill-rule:nonzero;stroke:black;stroke-width:0.31px;"/>
                        </g>
                        <g transform="matrix(1,0,0,1,579.7539,1624.362)">
                            <path d="M0,5.011C2.667,6.882 5.77,8.284 9.032,8.511C12.296,8.736 15.722,7.657 17.812,5.259C19.902,2.863 20.361,-0.911 18.497,-3.538C14.144,-3.725 9.771,-3.149 5.652,-1.846C2.224,-0.762 -1.465,1.409 -1.745,4.902C-1.168,4.576 -0.333,5.306 -0.604,5.897C-0.977,5.683 -1.349,5.47 0,5.011Z" style="fill:rgb(3,171,118);fill-rule:nonzero;stroke:black;stroke-width:0.31px;"/>
                        </g>
                        <g transform="matrix(1,0,0,1,578.1104,1648.0499)">
                            <path d="M0,-15.756C-0.955,-12.642 -1.332,-9.257 -0.538,-6.084C0.257,-2.911 2.342,0.014 5.268,1.26C8.193,2.507 11.924,1.779 13.846,-0.807C12.68,-5.004 10.78,-8.985 8.269,-12.5C6.179,-15.425 2.973,-18.263 -0.435,-17.45C0.052,-17.001 -0.383,-15.982 -1.029,-16.058C-0.94,-16.478 -0.854,-16.898 0,-15.756Z" style="fill:rgb(3,171,118);fill-rule:nonzero;stroke:black;stroke-width:0.31px;"/>
                        </g>
                        <g transform="matrix(1,0,0,1,574.8247,1648.2578)">
                            <path d="M0,-16.624C-3.257,-16.57 -6.592,-15.882 -9.364,-14.146C-12.137,-12.41 -14.274,-9.524 -14.556,-6.355C-14.837,-3.187 -12.992,0.135 -9.939,1.164C-6.308,-1.243 -3.108,-4.279 -0.542,-7.754C1.595,-10.645 3.303,-14.571 1.477,-17.561C1.2,-16.959 0.096,-17.058 -0.031,-17.696C0.396,-17.742 0.822,-17.788 0,-16.624Z" style="fill:rgb(3,171,118);fill-rule:nonzero;stroke:black;stroke-width:0.31px;"/>
                        </g>
                        <g transform="matrix(1,0,0,1,574.4375,1620.6987)">
                            <path d="M0,7.607C-1.058,4.526 -2.742,1.567 -5.25,-0.534C-7.758,-2.634 -11.163,-3.775 -14.264,-3.063C-17.363,-2.352 -19.954,0.429 -19.988,3.651C-16.577,6.361 -12.701,8.465 -8.603,9.833C-5.193,10.971 -0.932,11.382 1.348,8.721C0.69,8.645 0.442,7.564 1.011,7.246C1.186,7.637 1.361,8.028 0,7.607Z" style="fill:rgb(3,171,118);fill-rule:nonzero;stroke:black;stroke-width:0.31px;"/>
                        </g>
                        <g transform="matrix(1,0,0,1,577.4834,1607.3392)">
                            <path d="M0,19.568C2.604,17.61 4.897,15.093 6.119,12.06C7.342,9.025 7.375,5.434 5.74,2.705C4.106,-0.023 0.66,-1.626 -2.415,-0.664C-3.938,3.417 -4.742,7.755 -4.776,12.074C-4.804,15.669 -3.878,19.849 -0.644,21.194C-0.774,20.545 0.177,19.976 0.655,20.418C0.337,20.705 0.019,20.993 0,19.568Z" style="fill:rgb(3,171,118);fill-rule:nonzero;stroke:black;stroke-width:0.31px;"/>
                        </g>
                        <g transform="matrix(1,0,0,1,578.8301,1637.6004)">
                            <path d="M0,-6.658C0.618,-4.196 1.754,-1.79 3.625,-0.003C5.498,1.785 8.173,2.882 10.748,2.518C13.322,2.154 15.643,0.148 15.925,-2.358C13.366,-4.675 10.383,-6.55 7.163,-7.864C4.482,-8.959 1.054,-9.54 -1.006,-7.608C-0.479,-7.509 -0.362,-6.652 -0.848,-6.439C-0.96,-6.755 -1.072,-7.069 0,-6.658" style="fill:rgb(99,247,225);fill-rule:nonzero;"/>
                        </g>
                        <g transform="matrix(1,0,0,1,576.332,1647.6284)">
                            <path d="M0,-15.728C-2.15,-14.379 -4.088,-12.556 -5.209,-10.224C-6.331,-7.891 -6.548,-5.007 -5.405,-2.671C-4.264,-0.336 -1.638,1.251 0.831,0.746C2.245,-2.403 3.106,-5.82 3.361,-9.289C3.573,-12.177 3.066,-15.617 0.593,-16.979C0.661,-16.446 -0.117,-16.071 -0.47,-16.467C-0.204,-16.671 0.06,-16.875 0,-15.728" style="fill:rgb(99,247,225);fill-rule:nonzero;"/>
                        </g>
                        <g transform="matrix(1,0,0,1,574.6494,1632.4733)">
                            <path d="M0,-2.652C-1.947,-4.281 -4.28,-5.56 -6.845,-5.906C-9.41,-6.252 -12.219,-5.566 -14.088,-3.758C-15.957,-1.951 -16.655,1.036 -15.411,3.229C-11.979,3.6 -8.463,3.364 -5.085,2.534C-2.273,1.843 0.841,0.298 1.373,-2.475C0.887,-2.246 0.29,-2.87 0.558,-3.328C0.833,-3.138 1.109,-2.95 0,-2.652" style="fill:rgb(99,247,225);fill-rule:nonzero;"/>
                        </g>
                        <g transform="matrix(1,0,0,1,576.1074,1614.3331)">
                            <path d="M0,13.245C0.947,10.891 1.443,8.276 0.979,5.73C0.515,3.183 -1.004,0.724 -3.301,-0.495C-5.598,-1.713 -8.655,-1.454 -10.355,0.406C-9.647,3.785 -8.337,7.056 -6.504,10.012C-4.978,12.473 -2.546,14.958 0.256,14.606C-0.112,14.215 0.297,13.454 0.815,13.567C0.72,13.888 0.626,14.209 0,13.245" style="fill:rgb(99,247,225);fill-rule:nonzero;"/>
                        </g>
                        <g transform="matrix(1,0,0,1,578.6904,1615.3485)">
                            <path d="M0,12.922C2.532,13.096 5.172,12.759 7.45,11.531C9.729,10.303 11.599,8.097 12.048,5.536C12.497,2.976 11.306,0.149 9.011,-0.894C6.017,0.823 3.312,3.081 1.065,5.737C-0.804,7.949 -2.415,11.03 -1.214,13.586C-0.957,13.115 -0.106,13.269 -0.054,13.797C-0.389,13.806 -0.723,13.816 0,12.922" style="fill:rgb(99,247,225);fill-rule:nonzero;"/>
                        </g>
                        <g transform="matrix(-0.44628,0.894893,0.894893,0.44628,634.06022,1594.339689)">
                            <path d="M16.757,-10.106C12.723,-7.684 11.079,-2.3 11.63,2.445C12.18,7.19 14.491,11.467 16.757,15.606C12.649,11.316 8.441,6.875 6.241,1.268C4.041,-4.339 4.319,-11.465 16.757,-10.106Z" style="fill:rgb(19,191,160);fill-rule:nonzero;stroke:rgb(19,191,160);stroke-width:2.89px;"/>
                        </g>
                    </g>
</g>
</g>
</svg>
