<svg xmlns="http://www.w3.org/2000/svg" viewBox="558.92892067431 1820.529059102313 821.6742304806002 1078.6025843682">
<g transform="matrix(4.166667,0,0,4.166667,0,0)">
<g transform="matrix(1,0,0,1,-11.56697,1.462939)">
<g xmlns="http://www.w3.org/2000/svg">
                        <g transform="matrix(1,0,0,1,148.5899,444.2735)">
                            <path d="M0,247.175C57.659,229.87 105.587,183.032 124.214,125.787C131.714,102.736 134.692,78.385 142.504,55.439C150.317,32.492 164.267,9.998 186.349,0" style="fill:none;fill-rule:nonzero;stroke:rgb(83,184,143);stroke-width:3.29px;"/>
                        </g>
                        <g transform="matrix(1,0,0,1,242.6382,591.0394)">
                            <path d="M0,32.956C-9.48,31.435 -18.413,26.696 -24.989,19.7C-27.06,17.496 -28.939,15.007 -29.816,12.112C-30.692,9.216 -30.425,5.846 -28.538,3.482C-26.522,0.956 -22.97,0 -19.779,0.511C-16.588,1.022 -13.727,2.803 -11.294,4.929C-3.279,11.931 0.726,23.239 0,32.956Z" style="fill:rgb(83,184,143);fill-rule:nonzero;stroke:rgb(54,105,84);stroke-width:1.1px;"/>
                        </g>
                        <g transform="matrix(1,0,0,1,244.2289,643.105)">
                            <path d="M0,-17.833C4.485,-9.344 11.842,-2.405 20.579,1.575C23.331,2.829 26.292,3.809 29.315,3.709C32.339,3.609 35.445,2.274 37.078,-0.273C38.822,-2.993 38.587,-6.664 37.079,-9.521C35.57,-12.379 32.964,-14.517 30.169,-16.139C20.964,-21.479 8.969,-21.642 0,-17.833Z" style="fill:rgb(83,184,143);fill-rule:nonzero;stroke:rgb(54,105,84);stroke-width:1.1px;"/>
                        </g>
                        <g transform="matrix(1,0,0,1,261.9223,567.9509)">
                            <path d="M0,25.809C-8.429,25.659 -16.78,22.644 -23.361,17.375C-25.435,15.715 -27.376,13.783 -28.495,11.375C-29.615,8.966 -29.799,6.003 -28.451,3.715C-27.011,1.27 -24.042,0 -21.205,0.049C-18.368,0.099 -15.66,1.294 -13.282,2.841C-5.45,7.938 -0.57,17.272 0,25.809Z" style="fill:rgb(83,184,143);fill-rule:nonzero;stroke:rgb(54,105,84);stroke-width:1.1px;"/>
                        </g>
                        <g transform="matrix(1,0,0,1,263.463,604.4751)">
                            <path d="M0,-9.802C4.948,-2.977 12.201,2.145 20.288,4.525C22.836,5.275 25.531,5.761 28.147,5.301C30.763,4.84 33.298,3.295 34.402,0.88C35.583,-1.7 34.924,-4.862 33.26,-7.16C31.595,-9.458 29.066,-10.994 26.435,-12.058C17.773,-15.563 7.326,-14.222 0,-9.802Z" style="fill:rgb(83,184,143);fill-rule:nonzero;stroke:rgb(54,105,84);stroke-width:1.1px;"/>
                        </g>
                        <g transform="matrix(1,0,0,1,274.1886,545.9047)">
                            <path d="M0,19.019C-7.341,19.972 -14.983,18.426 -21.377,14.696C-23.392,13.52 -25.326,12.092 -26.608,10.144C-27.89,8.195 -28.432,5.645 -27.555,3.484C-26.618,1.175 -24.202,-0.31 -21.731,-0.631C-19.26,-0.953 -16.755,-0.263 -14.49,0.775C-7.031,4.196 -1.592,11.676 0,19.019Z" style="fill:rgb(83,184,143);fill-rule:nonzero;stroke:rgb(54,105,84);stroke-width:1.1px;"/>
                        </g>
                        <g transform="matrix(1,0,0,1,275.6443,568.4668)">
                            <path d="M0,-2.948C5.175,2.345 12.134,5.862 19.465,6.89C21.775,7.213 24.178,7.289 26.391,6.553C28.605,5.816 30.608,4.149 31.257,1.908C31.951,-0.485 30.973,-3.147 29.231,-4.929C27.49,-6.711 25.095,-7.72 22.673,-8.306C14.698,-10.237 5.796,-7.729 0,-2.948Z" style="fill:rgb(83,184,143);fill-rule:nonzero;stroke:rgb(54,105,84);stroke-width:1.1px;"/>
                        </g>
                        <g transform="matrix(1,0,0,1,280.5654,521.2895)">
                            <path d="M0,15.17C-5.855,15.93 -11.951,14.697 -17.051,11.722C-18.658,10.784 -20.201,9.645 -21.224,8.091C-22.246,6.537 -22.678,4.503 -21.979,2.779C-21.231,0.937 -19.304,-0.247 -17.333,-0.504C-15.363,-0.76 -13.364,-0.21 -11.558,0.618C-5.608,3.346 -1.27,9.313 0,15.17Z" style="fill:rgb(83,184,143);fill-rule:nonzero;stroke:rgb(54,105,84);stroke-width:1.1px;"/>
                        </g>
                        <g transform="matrix(1,0,0,1,281.7264,539.2862)">
                            <path d="M0,-2.352C4.128,1.87 9.679,4.675 15.526,5.495C17.368,5.753 19.285,5.814 21.051,5.226C22.816,4.638 24.414,3.309 24.932,1.522C25.485,-0.387 24.705,-2.511 23.316,-3.932C21.927,-5.353 20.016,-6.158 18.085,-6.626C11.724,-8.166 4.623,-6.165 0,-2.352Z" style="fill:rgb(83,184,143);fill-rule:nonzero;stroke:rgb(54,105,84);stroke-width:1.1px;"/>
                        </g>
                        <g transform="matrix(1,0,0,1,286.5433,498.2992)">
                            <path d="M0,13.031C-5.03,13.684 -10.266,12.625 -14.647,10.069C-16.027,9.263 -17.353,8.285 -18.231,6.95C-19.11,5.615 -19.481,3.868 -18.88,2.387C-18.238,0.805 -16.583,-0.213 -14.89,-0.433C-13.197,-0.653 -11.48,-0.181 -9.928,0.531C-4.818,2.874 -1.091,8 0,13.031Z" style="fill:rgb(83,184,143);fill-rule:nonzero;stroke:rgb(54,105,84);stroke-width:1.1px;"/>
                        </g>
                        <g transform="matrix(1,0,0,1,287.5407,513.757)">
                            <path d="M0,-2.019C3.546,1.607 8.314,4.017 13.337,4.721C14.92,4.943 16.566,4.995 18.083,4.491C19.599,3.986 20.972,2.844 21.417,1.309C21.892,-0.331 21.222,-2.155 20.028,-3.376C18.835,-4.597 17.194,-5.289 15.535,-5.69C10.071,-7.014 3.971,-5.295 0,-2.019Z" style="fill:rgb(83,184,143);fill-rule:nonzero;stroke:rgb(54,105,84);stroke-width:1.1px;"/>
                        </g>
                        <g transform="matrix(1,0,0,1,292.7838,479.5083)">
                            <path d="M0,13.01C-4.388,13.072 -8.784,11.642 -12.295,9.01C-13.402,8.181 -14.444,7.208 -15.067,5.974C-15.689,4.739 -15.835,3.2 -15.171,1.987C-14.462,0.691 -12.938,-0.019 -11.462,-0.041C-9.985,-0.062 -8.556,0.515 -7.293,1.28C-3.133,3.802 -0.438,8.578 0,13.01Z" style="fill:rgb(83,184,143);fill-rule:nonzero;stroke:rgb(54,105,84);stroke-width:1.1px;"/>
                        </g>
                        <g transform="matrix(1,0,0,1,293.6006,497.3479)">
                            <path d="M0,-4.38C2.688,-0.911 6.547,1.634 10.794,2.737C12.133,3.085 13.543,3.293 14.896,3.01C16.25,2.727 17.543,1.881 18.078,0.606C18.649,-0.756 18.254,-2.391 17.35,-3.558C16.445,-4.726 15.104,-5.484 13.717,-5.994C9.152,-7.673 3.738,-6.801 0,-4.38Z" style="fill:rgb(83,184,143);fill-rule:nonzero;stroke:rgb(54,105,84);stroke-width:1.1px;"/>
                        </g>
                        <g transform="matrix(1,0,0,1,301.1379,463.6531)">
                            <path d="M0,12.368C-3.835,12.085 -7.563,10.499 -10.426,7.931C-11.328,7.122 -12.163,6.193 -12.612,5.067C-13.06,3.942 -13.069,2.588 -12.396,1.58C-11.678,0.503 -10.293,0 -9.002,0.095C-7.711,0.19 -6.509,0.803 -5.465,1.568C-2.027,4.089 -0.042,8.465 0,12.368Z" style="fill:rgb(83,184,143);fill-rule:nonzero;stroke:rgb(54,105,84);stroke-width:1.1px;"/>
                        </g>
                        <g transform="matrix(1,0,0,1,301.8164,482.0443)">
                            <path d="M0,-5.568C2.08,-2.333 5.253,0.185 8.876,1.475C10.018,1.881 11.233,2.171 12.436,2.028C13.639,1.885 14.833,1.246 15.398,0.174C16.001,-0.971 15.782,-2.428 15.082,-3.517C14.383,-4.606 13.27,-5.37 12.099,-5.922C8.242,-7.739 3.45,-7.394 0,-5.568Z" style="fill:rgb(83,184,143);fill-rule:nonzero;stroke:rgb(54,105,84);stroke-width:1.1px;"/>
                        </g>
                        <g transform="matrix(1,0,0,1,310.9456,451.2179)">
                            <path d="M0,10.432C-2.817,9.76 -5.397,8.133 -7.217,5.88C-7.791,5.171 -8.3,4.38 -8.498,3.489C-8.696,2.598 -8.54,1.59 -7.919,0.922C-7.255,0.208 -6.165,0 -5.217,0.226C-4.269,0.452 -3.448,1.052 -2.764,1.746C-0.512,4.034 0.438,7.525 0,10.432Z" style="fill:rgb(83,184,143);fill-rule:nonzero;stroke:rgb(54,105,84);stroke-width:1.1px;"/>
                        </g>
                        <g transform="matrix(1,0,0,1,311.3953,468.3068)">
                            <path d="M0,-6.237C1.157,-3.582 3.214,-1.329 5.752,0.065C6.552,0.505 7.42,0.867 8.332,0.905C9.243,0.943 10.208,0.611 10.757,-0.118C11.343,-0.897 11.355,-2.006 10.966,-2.9C10.576,-3.793 9.841,-4.495 9.037,-5.046C6.388,-6.861 2.784,-7.18 0,-6.237Z" style="fill:rgb(83,184,143);fill-rule:nonzero;stroke:rgb(54,105,84);stroke-width:1.1px;"/>
                        </g>
                        <g transform="matrix(1,0,0,1,320.2618,444.1474)">
                            <path d="M0,9.19C-2.074,8.185 -3.801,6.478 -4.829,4.416C-5.153,3.766 -5.413,3.064 -5.414,2.337C-5.415,1.611 -5.121,0.855 -4.524,0.442C-3.886,0 -3.003,0.026 -2.305,0.364C-1.607,0.702 -1.072,1.309 -0.659,1.966C0.699,4.13 0.839,7.006 0,9.19Z" style="fill:rgb(83,184,143);fill-rule:nonzero;stroke:rgb(54,105,84);stroke-width:1.1px;"/>
                        </g>
                        <g transform="matrix(1,0,0,1,320.5393,460.6488)">
                            <path d="M0,-6.908C0.444,-4.646 1.656,-2.543 3.39,-1.024C3.936,-0.545 4.549,-0.116 5.251,0.07C5.953,0.256 6.759,0.164 7.31,-0.309C7.899,-0.813 8.099,-1.673 7.95,-2.435C7.8,-3.196 7.349,-3.867 6.819,-4.433C5.072,-6.297 2.325,-7.164 0,-6.908Z" style="fill:rgb(83,184,143);fill-rule:nonzero;stroke:rgb(54,105,84);stroke-width:1.1px;"/>
                        </g>
                        <g transform="matrix(1,0,0,1,327.6064,439.4151)">
                            <path d="M0,8.678C-1.778,7.571 -3.175,5.863 -3.907,3.9C-4.137,3.282 -4.305,2.622 -4.237,1.966C-4.168,1.309 -3.83,0.654 -3.25,0.338C-2.632,0 -1.836,0.108 -1.238,0.48C-0.639,0.853 -0.214,1.453 0.096,2.086C1.117,4.172 0.967,6.785 0,8.678Z" style="fill:rgb(83,184,143);fill-rule:nonzero;stroke:rgb(54,105,84);stroke-width:1.1px;"/>
                        </g>
                        <g transform="matrix(1,0,0,1,327.8185,455.5214)">
                            <path d="M0,-7.037C0.185,-4.95 1.079,-2.933 2.5,-1.394C2.948,-0.91 3.46,-0.462 4.077,-0.227C4.694,0.008 5.431,0.002 5.975,-0.372C6.556,-0.772 6.819,-1.53 6.757,-2.232C6.694,-2.935 6.351,-3.585 5.926,-4.147C4.525,-5.999 2.126,-7.045 0,-7.037Z" style="fill:rgb(83,184,143);fill-rule:nonzero;stroke:rgb(54,105,84);stroke-width:1.1px;"/>
                        </g>
                        <g transform="matrix(1,0,0,1,335.372,438.344)">
                            <path d="M0,5.751C-1.179,5.018 -2.104,3.886 -2.589,2.585C-2.742,2.175 -2.853,1.738 -2.808,1.303C-2.762,0.868 -2.538,0.434 -2.154,0.224C-1.744,0 -1.217,0.072 -0.82,0.318C-0.423,0.565 -0.142,0.963 0.064,1.382C0.74,2.765 0.641,4.496 0,5.751Z" style="fill:rgb(83,184,143);fill-rule:nonzero;stroke:rgb(54,105,84);stroke-width:1.1px;"/>
                        </g>
                        <g transform="matrix(1,0,0,1,335.5126,449.0182)">
                            <path d="M0,-4.664C0.123,-3.281 0.715,-1.944 1.657,-0.924C1.953,-0.603 2.293,-0.307 2.702,-0.151C3.111,0.005 3.599,0.001 3.96,-0.247C4.345,-0.512 4.519,-1.015 4.478,-1.48C4.436,-1.945 4.209,-2.376 3.927,-2.749C2.999,-3.976 1.409,-4.669 0,-4.664Z" style="fill:rgb(83,184,143);fill-rule:nonzero;stroke:rgb(54,105,84);stroke-width:1.1px;"/>
                        </g>
                        <g transform="matrix(1,0,0,1,221.6086,609.5202)">
                            <path d="M0,39.086C-11.243,37.283 -21.838,31.662 -29.636,23.365C-32.093,20.751 -34.322,17.799 -35.361,14.365C-36.4,10.931 -36.084,6.934 -33.846,4.13C-31.455,1.134 -27.242,0 -23.458,0.606C-19.674,1.212 -16.28,3.325 -13.394,5.846C-3.889,14.151 0.861,27.561 0,39.086Z" style="fill:rgb(83,184,143);fill-rule:nonzero;stroke:rgb(54,105,84);stroke-width:1.1px;"/>
                        </g>
                        <g transform="matrix(1,0,0,1,223.4952,671.2704)">
                            <path d="M0,-21.15C5.319,-11.082 14.044,-2.853 24.406,1.867C27.671,3.355 31.182,4.517 34.768,4.399C38.354,4.28 42.037,2.697 43.974,-0.324C46.043,-3.55 45.764,-7.903 43.975,-11.293C42.186,-14.682 39.095,-17.217 35.78,-19.14C24.863,-25.475 10.637,-25.667 0,-21.15Z" style="fill:rgb(83,184,143);fill-rule:nonzero;stroke:rgb(54,105,84);stroke-width:1.1px;"/>
                        </g>
                    </g>
</g>
</g>
</svg>
