<svg xmlns="http://www.w3.org/2000/svg" viewBox="2512.97866033161 2249.548676757213 300.6629387997 541.0721246991006">
<g transform="matrix(4.166667,0,0,4.166667,0,0)">
<g transform="matrix(1,0,0,1,-11.56697,1.462939)">
<g xmlns="http://www.w3.org/2000/svg">
                        <g transform="matrix(1,0,0,1,683.9608,637.7877)">
                            <path d="M0,-96.479C-10.474,-86.151 -19.768,-74.627 -27.641,-62.202C-30.277,-58.043 -32.841,-53.435 -32.487,-48.524C-31.994,-41.699 -26.148,-36.619 -23.284,-30.405C-20.547,-24.464 -20.689,-17.273 -23.659,-11.445C-26.63,-5.617 -32.365,-1.276 -38.78,0" style="fill:none;fill-rule:nonzero;stroke:rgb(51,181,129);stroke-width:2.2px;"/>
                        </g>
                        <g transform="matrix(0.262605,0.964903,0.964903,-0.262605,642.294574,632.877781)">
                            <path d="M5.495,-4.199C2.35,-4.199 -0.2,-1.649 -0.199,1.496C-0.2,4.64 2.35,7.19 5.495,7.19C8.64,7.19 11.19,4.64 11.19,1.495C11.19,-1.649 8.64,-4.199 5.495,-4.199" style="fill:rgb(0,123,255);fill-rule:nonzero;"/>
                        </g>
                        <g transform="matrix(0.262605,0.964903,0.964903,-0.262605,642.294574,632.877781)">
                            <ellipse cx="5.495" cy="1.495" rx="5.695" ry="5.695" style="fill:none;stroke:rgb(181,51,135);stroke-width:0.88px;"/>
                        </g>
                        <g transform="matrix(1,0,0,1,653.9764,593.8408)">
                            <path d="M0,-13.609C1.597,-13.13 3.212,-12.584 4.536,-11.571C5.861,-10.558 6.865,-8.989 6.796,-7.324C6.728,-5.657 5.621,-4.088 5.885,-2.441C6.148,-0.803 7.87,0.392 9.522,0.248C11.175,0.104 12.601,-1.221 13.067,-2.813C13.572,-4.541 13.037,-6.455 11.984,-7.916C10.931,-9.377 9.413,-10.439 7.832,-11.3C5.191,-12.738 2.277,-13.693 -0.714,-14.001C-0.604,-13.786 -0.475,-13.751 0,-13.609" style="fill:rgb(51,181,129);fill-rule:nonzero;"/>
                        </g>
                        <g transform="matrix(1,0,0,1,655.8521,585.7409)">
                            <path d="M0,-10.154C-1.667,-10.186 -3.372,-10.159 -4.942,-9.598C-6.512,-9.038 -7.947,-7.851 -8.39,-6.244C-8.834,-4.635 -8.26,-2.804 -9.014,-1.316C-9.764,0.164 -11.769,0.776 -13.298,0.134C-14.828,-0.508 -15.782,-2.204 -15.739,-3.862C-15.692,-5.662 -14.598,-7.322 -13.15,-8.392C-11.701,-9.461 -9.932,-10.009 -8.163,-10.346C-5.209,-10.909 -2.143,-10.93 0.8,-10.309C0.63,-10.138 0.496,-10.144 0,-10.154" style="fill:rgb(51,181,129);fill-rule:nonzero;"/>
                        </g>
                        <g transform="matrix(1,0,0,1,659.5972,647.1529)">
                            <path d="M0,-4.773C1.568,-4.356 2.829,-2.96 3.087,-1.358C3.345,0.244 2.585,1.964 1.228,2.853C-0.412,3.927 -2.725,3.691 -4.268,2.482C-5.811,1.273 -6.59,-0.762 -6.499,-2.721C-6.437,-4.041 -6.026,-5.417 -6.515,-6.645C-7.028,-7.932 -8.56,-8.7 -9.911,-8.394C-11.263,-8.087 -12.301,-6.778 -12.346,-5.393C-12.392,-4.007 -11.477,-2.657 -10.194,-2.132C-8.267,-1.344 -6.12,-2.341 -4.245,-3.25C-2.371,-4.158 -0.092,-4.987 0,-4.773Z" style="fill:rgb(224,255,48);fill-rule:nonzero;stroke:rgb(181,51,135);stroke-width:1.1px;"/>
                        </g>
                        <g transform="matrix(1,0,0,1,652.127,647.5125)">
                            <path d="M0,3.716C0.813,5.12 0.718,6.999 -0.232,8.314C-1.182,9.628 -2.936,10.308 -4.524,9.977C-6.444,9.577 -7.912,7.775 -8.148,5.828C-8.385,3.882 -7.496,1.892 -6.047,0.571C-5.07,-0.317 -3.806,-1.001 -3.284,-2.214C-2.737,-3.487 -3.276,-5.114 -4.448,-5.852C-5.621,-6.592 -7.281,-6.399 -8.292,-5.452C-9.304,-4.505 -9.612,-2.903 -9.076,-1.626C-8.271,0.295 -6.047,1.109 -4.079,1.791C-2.112,2.474 0.086,3.499 0,3.716Z" style="fill:rgb(224,255,48);fill-rule:nonzero;stroke:rgb(181,51,135);stroke-width:1.1px;"/>
                        </g>
                        <g transform="matrix(1,0,0,1,640.5874,643.1566)">
                            <path d="M0,9.047C-0.417,10.615 -1.813,11.876 -3.415,12.134C-5.017,12.392 -6.737,11.632 -7.626,10.275C-8.7,8.635 -8.464,6.322 -7.255,4.779C-6.046,3.236 -4.011,2.457 -2.052,2.548C-0.732,2.61 0.644,3.021 1.872,2.532C3.159,2.019 3.927,0.487 3.621,-0.864C3.314,-2.216 2.005,-3.254 0.62,-3.299C-0.766,-3.345 -2.116,-2.43 -2.641,-1.147C-3.429,0.78 -2.432,2.927 -1.523,4.802C-0.615,6.676 0.214,8.955 0,9.047Z" style="fill:rgb(224,255,48);fill-rule:nonzero;stroke:rgb(181,51,135);stroke-width:1.1px;"/>
                        </g>
                        <g transform="matrix(1,0,0,1,631.7383,635.9349)">
                            <path d="M0,8.799C-1.404,9.612 -3.283,9.517 -4.598,8.567C-5.912,7.617 -6.592,5.863 -6.261,4.275C-5.861,2.355 -4.059,0.887 -2.112,0.651C-0.166,0.414 1.824,1.303 3.145,2.752C4.033,3.729 4.717,4.993 5.93,5.515C7.203,6.062 8.83,5.523 9.568,4.351C10.308,3.178 10.115,1.518 9.168,0.507C8.221,-0.505 6.619,-0.813 5.342,-0.277C3.421,0.528 2.607,2.752 1.925,4.72C1.242,6.687 0.217,8.885 0,8.799Z" style="fill:rgb(224,255,48);fill-rule:nonzero;stroke:rgb(181,51,135);stroke-width:1.1px;"/>
                        </g>
                        <g transform="matrix(1,0,0,1,630.7642,628.4213)">
                            <path d="M0,4.773C-1.568,4.356 -2.829,2.96 -3.087,1.358C-3.345,-0.244 -2.585,-1.964 -1.228,-2.853C0.412,-3.927 2.725,-3.691 4.268,-2.482C5.811,-1.273 6.59,0.762 6.499,2.721C6.437,4.041 6.026,5.417 6.515,6.645C7.028,7.932 8.56,8.7 9.911,8.394C11.263,8.087 12.301,6.778 12.346,5.393C12.392,4.007 11.477,2.657 10.194,2.132C8.267,1.344 6.12,2.341 4.245,3.25C2.371,4.158 0.092,4.987 0,4.773Z" style="fill:rgb(224,255,48);fill-rule:nonzero;stroke:rgb(181,51,135);stroke-width:1.1px;"/>
                        </g>
                        <g transform="matrix(1,0,0,1,638.2339,628.0617)">
                            <path d="M0,-3.716C-0.813,-5.12 -0.718,-6.999 0.232,-8.314C1.182,-9.628 2.936,-10.308 4.524,-9.977C6.444,-9.577 7.912,-7.775 8.148,-5.828C8.385,-3.882 7.496,-1.892 6.047,-0.571C5.07,0.317 3.806,1.001 3.284,2.214C2.737,3.487 3.276,5.114 4.448,5.852C5.621,6.592 7.281,6.399 8.292,5.452C9.304,4.505 9.612,2.903 9.076,1.626C8.271,-0.295 6.047,-1.109 4.079,-1.791C2.112,-2.474 -0.086,-3.499 0,-3.716Z" style="fill:rgb(224,255,48);fill-rule:nonzero;stroke:rgb(181,51,135);stroke-width:1.1px;"/>
                        </g>
                        <g transform="matrix(1,0,0,1,649.7734,632.4176)">
                            <path d="M0,-9.047C0.417,-10.615 1.813,-11.876 3.415,-12.134C5.017,-12.392 6.737,-11.632 7.626,-10.275C8.7,-8.635 8.464,-6.322 7.255,-4.779C6.046,-3.236 4.011,-2.457 2.052,-2.548C0.732,-2.61 -0.644,-3.021 -1.872,-2.532C-3.159,-2.019 -3.927,-0.487 -3.621,0.864C-3.314,2.216 -2.005,3.254 -0.62,3.299C0.766,3.345 2.116,2.43 2.641,1.147C3.429,-0.78 2.432,-2.927 1.523,-4.802C0.615,-6.676 -0.214,-8.955 0,-9.047Z" style="fill:rgb(224,255,48);fill-rule:nonzero;stroke:rgb(181,51,135);stroke-width:1.1px;"/>
                        </g>
                        <g transform="matrix(1,0,0,1,658.623,639.6398)">
                            <path d="M0,-8.799C1.404,-9.612 3.283,-9.517 4.598,-8.567C5.912,-7.617 6.592,-5.863 6.261,-4.275C5.861,-2.355 4.059,-0.887 2.112,-0.651C0.166,-0.414 -1.824,-1.303 -3.145,-2.752C-4.033,-3.729 -4.717,-4.993 -5.93,-5.515C-7.203,-6.062 -8.83,-5.523 -9.568,-4.351C-10.308,-3.178 -10.115,-1.518 -9.168,-0.507C-8.221,0.505 -6.619,0.813 -5.342,0.277C-3.421,-0.528 -2.607,-2.752 -1.925,-4.72C-1.242,-6.687 -0.217,-8.885 0,-8.799Z" style="fill:rgb(224,255,48);fill-rule:nonzero;stroke:rgb(181,51,135);stroke-width:1.1px;"/>
                        </g>
                        <g transform="matrix(1,0,0,1,671.3545,640.1496)">
                            <path d="M0,-3.467C1.303,-1.684 1.445,0.872 0.348,2.788C-0.977,5.104 -3.928,6.247 -6.546,5.735C-9.165,5.222 -11.367,3.235 -12.466,0.804C-13.26,-0.951 -13.607,-3.032 -15.213,-4.185C-15.495,-4.386 -15.821,-4.528 -16.154,-4.621C-20.467,-5.833 -22.522,-1.627 -21.208,1.177C-20.408,2.884 -18.464,3.957 -16.584,3.801C-13.759,3.565 -11.321,1.309 -10.06,-1.23C-5.848,-9.714 -2.146,-6.405 0,-3.467" style="fill:rgb(181,51,135);fill-rule:nonzero;"/>
                        </g>
                        <g transform="matrix(1,0,0,1,671.3545,640.1496)">
                            <path d="M0,-3.467C1.303,-1.684 1.445,0.872 0.348,2.788C-0.977,5.104 -3.928,6.247 -6.546,5.735C-9.165,5.222 -11.367,3.235 -12.466,0.804C-13.26,-0.951 -13.607,-3.032 -15.213,-4.185C-15.495,-4.386 -15.821,-4.528 -16.154,-4.621C-20.467,-5.833 -22.522,-1.627 -21.208,1.177C-20.408,2.884 -18.464,3.957 -16.584,3.801C-13.759,3.565 -11.321,1.309 -10.06,-1.23C-5.848,-9.714 -2.146,-6.405 0,-3.467Z" style="fill:none;fill-rule:nonzero;stroke:rgb(214,247,0);stroke-width:0.88px;"/>
                        </g>
                        <g transform="matrix(1,0,0,1,664.4687,644.7367)">
                            <path d="M0,10.777C-0.339,12.959 -2.046,14.867 -4.177,15.447C-6.751,16.146 -9.646,14.869 -11.135,12.655C-12.625,10.441 -12.777,7.478 -11.835,4.982C-11.155,3.18 -9.929,1.463 -10.25,-0.489C-10.306,-0.83 -10.437,-1.161 -10.606,-1.461C-12.799,-5.369 -17.227,-3.848 -18.28,-0.936C-18.921,0.838 -18.306,2.97 -16.866,4.189C-14.702,6.02 -11.382,6.149 -8.695,5.245C0.283,2.224 0.56,7.183 0,10.777" style="fill:rgb(181,51,135);fill-rule:nonzero;"/>
                        </g>
                        <g transform="matrix(1,0,0,1,664.4687,644.7367)">
                            <path d="M0,10.777C-0.339,12.959 -2.046,14.867 -4.177,15.447C-6.751,16.146 -9.646,14.869 -11.135,12.655C-12.625,10.441 -12.777,7.478 -11.835,4.982C-11.155,3.18 -9.929,1.463 -10.25,-0.489C-10.306,-0.83 -10.437,-1.161 -10.606,-1.461C-12.799,-5.369 -17.227,-3.848 -18.28,-0.936C-18.921,0.838 -18.306,2.97 -16.866,4.189C-14.702,6.02 -11.382,6.149 -8.695,5.245C0.283,2.224 0.56,7.183 0,10.777Z" style="fill:none;fill-rule:nonzero;stroke:rgb(214,247,0);stroke-width:0.88px;"/>
                        </g>
                        <g transform="matrix(1,0,0,1,646.2847,642.8839)">
                            <path d="M0,21.077C-1.783,22.38 -4.339,22.522 -6.255,21.425C-8.571,20.1 -9.714,17.149 -9.202,14.531C-8.689,11.912 -6.702,9.71 -4.271,8.611C-2.516,7.817 -0.435,7.47 0.718,5.864C0.919,5.582 1.061,5.256 1.154,4.923C2.366,0.61 -1.84,-1.445 -4.644,-0.131C-6.351,0.669 -7.424,2.613 -7.268,4.493C-7.032,7.318 -4.776,9.756 -2.237,11.017C6.247,15.229 2.938,18.931 0,21.077" style="fill:rgb(181,51,135);fill-rule:nonzero;"/>
                        </g>
                        <g transform="matrix(1,0,0,1,646.2847,642.8839)">
                            <path d="M0,21.077C-1.783,22.38 -4.339,22.522 -6.255,21.425C-8.571,20.1 -9.714,17.149 -9.202,14.531C-8.689,11.912 -6.702,9.71 -4.271,8.611C-2.516,7.817 -0.435,7.47 0.718,5.864C0.919,5.582 1.061,5.256 1.154,4.923C2.366,0.61 -1.84,-1.445 -4.644,-0.131C-6.351,0.669 -7.424,2.613 -7.268,4.493C-7.032,7.318 -4.776,9.756 -2.237,11.017C6.247,15.229 2.938,18.931 0,21.077Z" style="fill:none;fill-rule:nonzero;stroke:rgb(214,247,0);stroke-width:0.88px;"/>
                        </g>
                        <g transform="matrix(1,0,0,1,627.4531,638.7147)">
                            <path d="M0,18.361C-2.182,18.022 -4.09,16.315 -4.67,14.184C-5.369,11.61 -4.092,8.715 -1.878,7.226C0.336,5.736 3.299,5.584 5.795,6.526C7.597,7.206 9.314,8.432 11.266,8.111C11.607,8.055 11.938,7.924 12.238,7.755C16.146,5.562 14.625,1.134 11.713,0.081C9.939,-0.56 7.807,0.055 6.588,1.495C4.757,3.659 4.628,6.979 5.532,9.666C8.553,18.644 3.594,18.921 0,18.361" style="fill:rgb(181,51,135);fill-rule:nonzero;"/>
                        </g>
                        <g transform="matrix(1,0,0,1,627.4531,638.7147)">
                            <path d="M0,18.361C-2.182,18.022 -4.09,16.315 -4.67,14.184C-5.369,11.61 -4.092,8.715 -1.878,7.226C0.336,5.736 3.299,5.584 5.795,6.526C7.597,7.206 9.314,8.432 11.266,8.111C11.607,8.055 11.938,7.924 12.238,7.755C16.146,5.562 14.625,1.134 11.713,0.081C9.939,-0.56 7.807,0.055 6.588,1.495C4.757,3.659 4.628,6.979 5.532,9.666C8.553,18.644 3.594,18.921 0,18.361Z" style="fill:none;fill-rule:nonzero;stroke:rgb(214,247,0);stroke-width:0.88px;"/>
                        </g>
                        <g transform="matrix(1,0,0,1,619.0068,635.4246)">
                            <path d="M0,3.467C-1.303,1.684 -1.445,-0.872 -0.348,-2.788C0.977,-5.104 3.928,-6.247 6.546,-5.735C9.165,-5.222 11.367,-3.235 12.466,-0.804C13.26,0.951 13.607,3.032 15.213,4.185C15.495,4.386 15.821,4.528 16.154,4.621C20.467,5.833 22.522,1.627 21.208,-1.177C20.408,-2.884 18.464,-3.957 16.584,-3.801C13.759,-3.565 11.321,-1.309 10.06,1.23C5.848,9.714 2.146,6.405 0,3.467" style="fill:rgb(181,51,135);fill-rule:nonzero;"/>
                        </g>
                        <g transform="matrix(1,0,0,1,619.0068,635.4246)">
                            <path d="M0,3.467C-1.303,1.684 -1.445,-0.872 -0.348,-2.788C0.977,-5.104 3.928,-6.247 6.546,-5.735C9.165,-5.222 11.367,-3.235 12.466,-0.804C13.26,0.951 13.607,3.032 15.213,4.185C15.495,4.386 15.821,4.528 16.154,4.621C20.467,5.833 22.522,1.627 21.208,-1.177C20.408,-2.884 18.464,-3.957 16.584,-3.801C13.759,-3.565 11.321,-1.309 10.06,1.23C5.848,9.714 2.146,6.405 0,3.467Z" style="fill:none;fill-rule:nonzero;stroke:rgb(214,247,0);stroke-width:0.88px;"/>
                        </g>
                        <g transform="matrix(1,0,0,1,625.8921,630.8375)">
                            <path d="M0,-10.777C0.339,-12.959 2.046,-14.867 4.177,-15.447C6.751,-16.146 9.646,-14.869 11.135,-12.655C12.625,-10.441 12.777,-7.478 11.835,-4.982C11.155,-3.18 9.929,-1.463 10.25,0.489C10.306,0.83 10.437,1.161 10.606,1.461C12.799,5.369 17.227,3.848 18.28,0.936C18.921,-0.838 18.306,-2.97 16.866,-4.189C14.702,-6.02 11.382,-6.149 8.695,-5.245C-0.283,-2.224 -0.56,-7.183 0,-10.777" style="fill:rgb(181,51,135);fill-rule:nonzero;"/>
                        </g>
                        <g transform="matrix(1,0,0,1,625.8921,630.8375)">
                            <path d="M0,-10.777C0.339,-12.959 2.046,-14.867 4.177,-15.447C6.751,-16.146 9.646,-14.869 11.135,-12.655C12.625,-10.441 12.777,-7.478 11.835,-4.982C11.155,-3.18 9.929,-1.463 10.25,0.489C10.306,0.83 10.437,1.161 10.606,1.461C12.799,5.369 17.227,3.848 18.28,0.936C18.921,-0.838 18.306,-2.97 16.866,-4.189C14.702,-6.02 11.382,-6.149 8.695,-5.245C-0.283,-2.224 -0.56,-7.183 0,-10.777Z" style="fill:none;fill-rule:nonzero;stroke:rgb(214,247,0);stroke-width:0.88px;"/>
                        </g>
                        <g transform="matrix(1,0,0,1,644.0762,632.6903)">
                            <path d="M0,-21.077C1.783,-22.38 4.339,-22.522 6.255,-21.425C8.571,-20.1 9.714,-17.149 9.202,-14.531C8.689,-11.912 6.702,-9.71 4.271,-8.611C2.516,-7.817 0.435,-7.47 -0.718,-5.864C-0.919,-5.582 -1.061,-5.256 -1.154,-4.923C-2.366,-0.61 1.84,1.445 4.644,0.131C6.351,-0.669 7.424,-2.613 7.268,-4.493C7.032,-7.318 4.776,-9.756 2.237,-11.017C-6.247,-15.229 -2.938,-18.931 0,-21.077" style="fill:rgb(181,51,135);fill-rule:nonzero;"/>
                        </g>
                        <g transform="matrix(1,0,0,1,644.0762,632.6903)">
                            <path d="M0,-21.077C1.783,-22.38 4.339,-22.522 6.255,-21.425C8.571,-20.1 9.714,-17.149 9.202,-14.531C8.689,-11.912 6.702,-9.71 4.271,-8.611C2.516,-7.817 0.435,-7.47 -0.718,-5.864C-0.919,-5.582 -1.061,-5.256 -1.154,-4.923C-2.366,-0.61 1.84,1.445 4.644,0.131C6.351,-0.669 7.424,-2.613 7.268,-4.493C7.032,-7.318 4.776,-9.756 2.237,-11.017C-6.247,-15.229 -2.938,-18.931 0,-21.077Z" style="fill:none;fill-rule:nonzero;stroke:rgb(214,247,0);stroke-width:0.88px;"/>
                        </g>
                        <g transform="matrix(1,0,0,1,662.9082,636.86)">
                            <path d="M0,-18.361C2.182,-18.022 4.09,-16.315 4.67,-14.184C5.369,-11.61 4.092,-8.715 1.878,-7.226C-0.336,-5.736 -3.299,-5.584 -5.795,-6.526C-7.597,-7.206 -9.314,-8.432 -11.266,-8.111C-11.607,-8.055 -11.938,-7.924 -12.238,-7.755C-16.146,-5.562 -14.625,-1.134 -11.713,-0.081C-9.939,0.56 -7.807,-0.055 -6.588,-1.495C-4.757,-3.659 -4.628,-6.979 -5.532,-9.666C-8.553,-18.644 -3.594,-18.921 0,-18.361" style="fill:rgb(181,51,135);fill-rule:nonzero;"/>
                        </g>
                        <g transform="matrix(1,0,0,1,662.9082,636.86)">
                            <path d="M0,-18.361C2.182,-18.022 4.09,-16.315 4.67,-14.184C5.369,-11.61 4.092,-8.715 1.878,-7.226C-0.336,-5.736 -3.299,-5.584 -5.795,-6.526C-7.597,-7.206 -9.314,-8.432 -11.266,-8.111C-11.607,-8.055 -11.938,-7.924 -12.238,-7.755C-16.146,-5.562 -14.625,-1.134 -11.713,-0.081C-9.939,0.56 -7.807,-0.055 -6.588,-1.495C-4.757,-3.659 -4.628,-6.979 -5.532,-9.666C-8.553,-18.644 -3.594,-18.921 0,-18.361Z" style="fill:none;fill-rule:nonzero;stroke:rgb(214,247,0);stroke-width:0.88px;"/>
                        </g>
                    </g>
</g>
</g>
</svg>
