<svg xmlns="http://www.w3.org/2000/svg" viewBox="704.7263534401872 4347.259486044898 126.65876219061681 125.54877885765109">
<defs>
<clipPath xmlns="http://www.w3.org/2000/svg" id="_clip230">
                                <path d="M0.798,-0.61C1.013,-0.62 1.186,-0.393 1.172,-0.169C1.158,0.055 0.994,0.252 0.798,0.35C0.602,0.448 0.35,0.483 0.136,0.468C0.139,0.038 0.381,-0.591 0.798,-0.61Z" clip-rule="nonzero"/>
                            </clipPath>
<clipPath xmlns="http://www.w3.org/2000/svg" id="_clip232">
                                <path d="M1.156,-0.259C1.088,0.02 0.87,0.217 0.611,0.231C0.352,0.246 0.046,0.14 -0.089,-0.156C0.338,-0.027 0.756,-0.112 1.156,-0.259Z" clip-rule="nonzero"/>
                            </clipPath>
</defs>
<g transform="matrix(4.166667,0,0,4.166667,0,0)">
<g transform="matrix(1,0,0,1,-11.56697,1.462939)">
<g xmlns="http://www.w3.org/2000/svg" opacity="0.86">
                        <g transform="matrix(14.883472,-1.841563,-4.186324,-17.231617,187.970575,1055.268126)">
                            <clipPath id="_clip230">
                                <path d="M0.798,-0.61C1.013,-0.62 1.186,-0.393 1.172,-0.169C1.158,0.055 0.994,0.252 0.798,0.35C0.602,0.448 0.35,0.483 0.136,0.468C0.139,0.038 0.381,-0.591 0.798,-0.61Z" clip-rule="nonzero"/>
                            </clipPath>
                            <g clip-path="url(#_clip230)">
                                <g transform="matrix(0.015655,-0.001673,-0.003803,-0.013521,5.239313,60.765194)">
                                    <use xmlns:ns1="http://www.w3.org/1999/xlink" ns1:href="#_Image231" x="735.313" y="4366.828" width="77px" height="74px"/>
                                </g>
                            </g>
                        </g>
                        <g transform="matrix(-13.730023,-12.319419,-8.822732,13.522721,201.625835,1064.706589)">
                            <clipPath id="_clip232">
                                <path d="M1.156,-0.259C1.088,0.02 0.87,0.217 0.611,0.231C0.352,0.246 0.046,0.14 -0.089,-0.156C0.338,-0.027 0.756,-0.112 1.156,-0.259Z" clip-rule="nonzero"/>
                            </clipPath>
                            <g clip-path="url(#_clip232)">
                                <g transform="matrix(-0.011026,-0.010044,-0.007193,0.011195,40.687301,-41.776031)">
                                    <use xmlns:ns2="http://www.w3.org/1999/xlink" ns2:href="#_Image233" x="732.622" y="4368.416" width="71px" height="74px"/>
                                </g>
                            </g>
                        </g>
                    </g>
</g>
</g>
</svg>
