<svg xmlns="http://www.w3.org/2000/svg" viewBox="4204.154628959011 5674.7331174386145 246.79126782329968 729.3688064294993">
<g transform="matrix(4.166667,0,0,4.166667,0,0)">
<g transform="matrix(1,0,0,1,-11.56697,1.462939)">
<g xmlns="http://www.w3.org/2000/svg">
                        <g transform="matrix(1,0,0,1,1074.6055,1530.0669)">
                            <path d="M0,-166.714C-22.803,-143.234 -33.168,-108.303 -26.863,-76.186C-24.324,-63.253 -19.292,-50.9 -16.929,-37.934C-14.566,-24.969 -15.237,-10.593 -23.078,0" style="fill:none;fill-rule:nonzero;stroke:rgb(83,184,143);stroke-width:1.79px;"/>
                        </g>
                        <g transform="matrix(1,0,0,1,1047.7935,1429.1565)">
                            <path d="M0,-8.875C4.905,-10.662 10.402,-10.776 15.376,-9.194C16.944,-8.695 18.495,-8.01 19.677,-6.867C20.86,-5.724 21.625,-4.053 21.355,-2.43C21.066,-0.697 19.632,0.697 17.981,1.299C16.331,1.901 14.5,1.812 12.782,1.446C7.122,0.242 2.227,-4.068 0,-8.875Z" style="fill:rgb(83,184,143);fill-rule:nonzero;stroke:rgb(54,105,84);stroke-width:0.6px;"/>
                        </g>
                        <g transform="matrix(1,0,0,1,1046.7001,1423.1842)">
                            <path d="M0,-3.088C-4.377,-5.933 -9.707,-7.281 -14.91,-6.858C-16.55,-6.725 -18.215,-6.407 -19.625,-5.559C-21.034,-4.712 -22.156,-3.255 -22.257,-1.614C-22.366,0.14 -21.282,1.821 -19.81,2.779C-18.337,3.737 -16.533,4.062 -14.777,4.093C-8.991,4.193 -3.252,1.095 0,-3.088Z" style="fill:rgb(83,184,143);fill-rule:nonzero;stroke:rgb(54,105,84);stroke-width:0.6px;"/>
                        </g>
                        <g transform="matrix(1,0,0,1,1046.6378,1444.3054)">
                            <path d="M0,-4.56C4.043,-6.72 8.807,-7.498 13.327,-6.738C14.751,-6.498 16.184,-6.095 17.354,-5.247C18.523,-4.399 19.395,-3.041 19.36,-1.598C19.323,-0.055 18.249,1.334 16.889,2.061C15.528,2.789 13.926,2.938 12.387,2.832C7.318,2.485 2.53,-0.656 0,-4.56Z" style="fill:rgb(83,184,143);fill-rule:nonzero;stroke:rgb(54,105,84);stroke-width:0.6px;"/>
                        </g>
                        <g transform="matrix(1,0,0,1,1045.6644,1445.5335)">
                            <path d="M0,-5.814C-4.156,-7.746 -8.957,-8.259 -13.427,-7.249C-14.836,-6.93 -16.245,-6.448 -17.365,-5.537C-18.485,-4.625 -19.281,-3.221 -19.166,-1.781C-19.043,-0.243 -17.894,1.084 -16.495,1.735C-15.096,2.385 -13.489,2.445 -11.958,2.255C-6.916,1.626 -2.31,-1.776 0,-5.814Z" style="fill:rgb(83,184,143);fill-rule:nonzero;stroke:rgb(54,105,84);stroke-width:0.6px;"/>
                        </g>
                        <g transform="matrix(1,0,0,1,1048.4448,1458.1811)">
                            <path d="M0,-1.494C3.234,-3.89 7.273,-5.179 11.297,-5.099C12.565,-5.074 13.861,-4.908 14.986,-4.322C16.111,-3.736 17.043,-2.668 17.198,-1.409C17.365,-0.065 16.61,1.28 15.522,2.087C14.433,2.893 13.061,3.229 11.711,3.335C7.263,3.685 2.7,1.572 0,-1.494Z" style="fill:rgb(83,184,143);fill-rule:nonzero;stroke:rgb(54,105,84);stroke-width:0.6px;"/>
                        </g>
                        <g transform="matrix(1,0,0,1,1047.5959,1464.7088)">
                            <path d="M0,-7.919C-3.859,-9.063 -8.095,-8.891 -11.848,-7.439C-13.031,-6.981 -14.193,-6.381 -15.049,-5.446C-15.905,-4.51 -16.415,-3.188 -16.13,-1.952C-15.826,-0.632 -14.657,0.373 -13.358,0.759C-12.06,1.144 -10.655,0.99 -9.35,0.627C-5.051,-0.567 -1.487,-4.114 0,-7.919Z" style="fill:rgb(83,184,143);fill-rule:nonzero;stroke:rgb(54,105,84);stroke-width:0.6px;"/>
                        </g>
                        <g transform="matrix(1,0,0,1,1052.9504,1473.0854)">
                            <path d="M0,-1.192C2.58,-3.103 5.801,-4.131 9.011,-4.067C10.022,-4.047 11.056,-3.915 11.953,-3.447C12.85,-2.98 13.594,-2.128 13.718,-1.125C13.85,-0.052 13.249,1.021 12.381,1.664C11.513,2.307 10.418,2.575 9.341,2.66C5.793,2.939 2.153,1.253 0,-1.192Z" style="fill:rgb(83,184,143);fill-rule:nonzero;stroke:rgb(54,105,84);stroke-width:0.6px;"/>
                        </g>
                        <g transform="matrix(1,0,0,1,1052.2733,1478.2923)">
                            <path d="M0,-6.317C-3.078,-7.229 -6.457,-7.092 -9.451,-5.934C-10.394,-5.569 -11.32,-5.09 -12.003,-4.344C-12.686,-3.598 -13.093,-2.543 -12.866,-1.558C-12.623,-0.505 -11.691,0.297 -10.655,0.605C-9.619,0.912 -8.499,0.789 -7.458,0.5C-4.029,-0.453 -1.186,-3.282 0,-6.317Z" style="fill:rgb(83,184,143);fill-rule:nonzero;stroke:rgb(54,105,84);stroke-width:0.6px;"/>
                        </g>
                        <g transform="matrix(1,0,0,1,1056.7627,1486.4332)">
                            <path d="M0,-1.023C2.216,-2.664 4.983,-3.548 7.74,-3.493C8.609,-3.476 9.498,-3.362 10.268,-2.96C11.039,-2.559 11.677,-1.827 11.784,-0.965C11.898,-0.044 11.381,0.878 10.635,1.43C9.89,1.983 8.949,2.213 8.024,2.286C4.976,2.525 1.85,1.078 0,-1.023Z" style="fill:rgb(83,184,143);fill-rule:nonzero;stroke:rgb(54,105,84);stroke-width:0.6px;"/>
                        </g>
                        <g transform="matrix(1,0,0,1,1056.181,1490.9065)">
                            <path d="M0,-5.426C-2.644,-6.21 -5.546,-6.092 -8.118,-5.097C-8.929,-4.784 -9.724,-4.372 -10.311,-3.731C-10.898,-3.09 -11.247,-2.184 -11.052,-1.338C-10.844,-0.433 -10.043,0.256 -9.153,0.52C-8.263,0.784 -7.301,0.678 -6.406,0.43C-3.461,-0.388 -1.019,-2.819 0,-5.426Z" style="fill:rgb(83,184,143);fill-rule:nonzero;stroke:rgb(54,105,84);stroke-width:0.6px;"/>
                        </g>
                        <g transform="matrix(1,0,0,1,1058.7782,1497.9912)">
                            <path d="M0,-1.995C2.068,-3.186 4.534,-3.67 6.898,-3.35C7.643,-3.249 8.396,-3.063 9.018,-2.641C9.641,-2.219 10.117,-1.527 10.123,-0.776C10.129,0.028 9.594,0.768 8.898,1.169C8.202,1.57 7.371,1.675 6.568,1.645C3.925,1.549 1.381,-0.006 0,-1.995Z" style="fill:rgb(83,184,143);fill-rule:nonzero;stroke:rgb(54,105,84);stroke-width:0.6px;"/>
                        </g>
                        <g transform="matrix(1,0,0,1,1058.2712,1499.3979)">
                            <path d="M0,-3.399C-2.195,-4.335 -4.701,-4.522 -7.01,-3.922C-7.738,-3.733 -8.463,-3.459 -9.031,-2.966C-9.599,-2.473 -9.989,-1.729 -9.905,-0.982C-9.816,-0.184 -9.196,0.488 -8.457,0.803C-7.719,1.118 -6.881,1.123 -6.088,0.998C-3.475,0.587 -1.135,-1.26 0,-3.399Z" style="fill:rgb(83,184,143);fill-rule:nonzero;stroke:rgb(54,105,84);stroke-width:0.6px;"/>
                        </g>
                        <g transform="matrix(1,0,0,1,1059.1771,1508.6984)">
                            <path d="M0,-2.656C1.896,-3.537 4.087,-3.77 6.126,-3.308C6.769,-3.163 7.411,-2.943 7.922,-2.527C8.433,-2.111 8.796,-1.47 8.743,-0.813C8.687,-0.112 8.162,0.494 7.524,0.79C6.886,1.087 6.152,1.114 5.454,1.027C3.154,0.739 1.053,-0.813 0,-2.656Z" style="fill:rgb(83,184,143);fill-rule:nonzero;stroke:rgb(54,105,84);stroke-width:0.6px;"/>
                        </g>
                        <g transform="matrix(1,0,0,1,1058.7345,1508.0828)">
                            <path d="M0,-2.077C-1.844,-3.063 -4.018,-3.419 -6.08,-3.072C-6.729,-2.963 -7.383,-2.78 -7.917,-2.393C-8.45,-2.006 -8.848,-1.387 -8.833,-0.728C-8.816,-0.025 -8.326,0.609 -7.706,0.941C-7.085,1.273 -6.354,1.342 -5.652,1.294C-3.34,1.136 -1.155,-0.297 0,-2.077Z" style="fill:rgb(83,184,143);fill-rule:nonzero;stroke:rgb(54,105,84);stroke-width:0.6px;"/>
                        </g>
                        <g transform="matrix(1,0,0,1,1058.3231,1518.6467)">
                            <path d="M0,-3.183C1.516,-3.61 3.172,-3.52 4.632,-2.932C5.093,-2.746 5.544,-2.505 5.874,-2.135C6.203,-1.764 6.396,-1.244 6.278,-0.762C6.152,-0.248 5.689,0.139 5.179,0.283C4.669,0.427 4.12,0.359 3.612,0.21C1.937,-0.28 0.561,-1.687 0,-3.183Z" style="fill:rgb(83,184,143);fill-rule:nonzero;stroke:rgb(54,105,84);stroke-width:0.6px;"/>
                        </g>
                        <g transform="matrix(1,0,0,1,1057.9984,1515.8902)">
                            <path d="M0,-0.507C-1.252,-1.461 -2.825,-1.987 -4.4,-1.978C-4.896,-1.975 -5.404,-1.917 -5.847,-1.693C-6.29,-1.47 -6.661,-1.058 -6.728,-0.566C-6.801,-0.041 -6.513,0.489 -6.091,0.811C-5.67,1.132 -5.135,1.271 -4.607,1.319C-2.869,1.48 -1.073,0.678 0,-0.507Z" style="fill:rgb(83,184,143);fill-rule:nonzero;stroke:rgb(54,105,84);stroke-width:0.6px;"/>
                        </g>
                        <g transform="matrix(1,0,0,1,1056.0988,1525.4113)">
                            <path d="M0,-3.534C1.251,-3.606 2.523,-3.252 3.557,-2.545C3.883,-2.322 4.192,-2.057 4.385,-1.713C4.578,-1.368 4.638,-0.931 4.464,-0.577C4.278,-0.198 3.852,0.023 3.431,0.048C3.01,0.072 2.595,-0.075 2.225,-0.278C1.007,-0.946 0.18,-2.275 0,-3.534Z" style="fill:rgb(83,184,143);fill-rule:nonzero;stroke:rgb(54,105,84);stroke-width:0.6px;"/>
                        </g>
                        <g transform="matrix(1,0,0,1,1055.8602,1520.7892)">
                            <path d="M0,0.97C-0.81,0.014 -1.942,-0.665 -3.167,-0.927C-3.553,-1.01 -3.958,-1.052 -4.341,-0.954C-4.723,-0.857 -5.082,-0.6 -5.219,-0.229C-5.365,0.166 -5.232,0.628 -4.96,0.95C-4.687,1.272 -4.295,1.471 -3.893,1.6C-2.57,2.022 -1.037,1.707 0,0.97Z" style="fill:rgb(83,184,143);fill-rule:nonzero;stroke:rgb(54,105,84);stroke-width:0.6px;"/>
                        </g>
                        <g transform="matrix(1,0,0,1,1053.9988,1529.896)">
                            <path d="M0,-3.584C1.138,-3.529 2.253,-3.088 3.12,-2.349C3.393,-2.116 3.647,-1.848 3.789,-1.518C3.93,-1.188 3.943,-0.787 3.751,-0.483C3.547,-0.159 3.141,0 2.758,-0.018C2.375,-0.037 2.014,-0.209 1.699,-0.428C0.662,-1.148 0.042,-2.429 0,-3.584Z" style="fill:rgb(83,184,143);fill-rule:nonzero;stroke:rgb(54,105,84);stroke-width:0.6px;"/>
                        </g>
                        <g transform="matrix(1,0,0,1,1053.7944,1524.6803)">
                            <path d="M0,1.502C-0.64,0.56 -1.599,-0.162 -2.681,-0.516C-3.022,-0.628 -3.384,-0.705 -3.739,-0.653C-4.094,-0.602 -4.443,-0.404 -4.602,-0.082C-4.772,0.262 -4.696,0.691 -4.48,1.009C-4.265,1.326 -3.93,1.544 -3.579,1.698C-2.424,2.207 -1.007,2.069 0,1.502Z" style="fill:rgb(83,184,143);fill-rule:nonzero;stroke:rgb(54,105,84);stroke-width:0.6px;"/>
                        </g>
                        <g transform="matrix(1,0,0,1,1051.3689,1532.6413)">
                            <path d="M0,-2.375C0.754,-2.339 1.493,-2.046 2.068,-1.557C2.249,-1.402 2.417,-1.224 2.511,-1.006C2.604,-0.787 2.613,-0.521 2.486,-0.32C2.35,-0.105 2.081,0 1.828,-0.012C1.574,-0.024 1.335,-0.138 1.126,-0.283C0.439,-0.761 0.028,-1.609 0,-2.375Z" style="fill:rgb(83,184,143);fill-rule:nonzero;stroke:rgb(54,105,84);stroke-width:0.6px;"/>
                        </g>
                        <g transform="matrix(1,0,0,1,1051.2335,1529.1853)">
                            <path d="M0,0.995C-0.424,0.371 -1.059,-0.107 -1.777,-0.342C-2.003,-0.416 -2.242,-0.467 -2.478,-0.433C-2.713,-0.399 -2.944,-0.268 -3.05,-0.055C-3.162,0.173 -3.112,0.458 -2.969,0.668C-2.827,0.878 -2.604,1.023 -2.372,1.125C-1.606,1.462 -0.668,1.371 0,0.995Z" style="fill:rgb(83,184,143);fill-rule:nonzero;stroke:rgb(54,105,84);stroke-width:0.6px;"/>
                        </g>
                        <g transform="matrix(1,0,0,1,1051.2668,1413.5529)">
                            <path d="M0,-10.526C5.817,-12.645 12.336,-12.78 18.236,-10.904C20.095,-10.313 21.935,-9.501 23.337,-8.145C24.74,-6.789 25.647,-4.807 25.327,-2.883C24.984,-0.827 23.283,0.826 21.326,1.54C19.368,2.254 17.197,2.149 15.159,1.715C8.447,0.287 2.641,-4.825 0,-10.526Z" style="fill:rgb(83,184,143);fill-rule:nonzero;stroke:rgb(54,105,84);stroke-width:0.6px;"/>
                        </g>
                        <g transform="matrix(1,0,0,1,1049.97,1406.4701)">
                            <path d="M0,-3.663C-5.191,-7.037 -11.513,-8.635 -17.683,-8.135C-19.628,-7.977 -21.603,-7.6 -23.275,-6.594C-24.946,-5.589 -26.276,-3.862 -26.397,-1.915C-26.526,0.165 -25.241,2.159 -23.494,3.295C-21.747,4.431 -19.608,4.817 -17.525,4.853C-10.663,4.972 -3.856,1.298 0,-3.663Z" style="fill:rgb(83,184,143);fill-rule:nonzero;stroke:rgb(54,105,84);stroke-width:0.6px;"/>
                        </g>
                    </g>
</g>
</g>
</svg>
