<svg xmlns="http://www.w3.org/2000/svg" viewBox="741.3857221666864 4264.858738740339 134.80412954307963 163.4072568363299">
<defs>
<clipPath xmlns="http://www.w3.org/2000/svg" id="_clip228">
                                <path d="M1.096,-0.374C1.096,-0.104 0.983,0.395 0.721,0.417C0.459,0.439 0.06,0.172 -0.037,-0.09C0.131,-0.242 0.691,-0.421 1.096,-0.374Z" clip-rule="nonzero"/>
                            </clipPath>
</defs>
<g transform="matrix(4.166667,0,0,4.166667,0,0)">
<g transform="matrix(1,0,0,1,-11.56697,1.462939)">
<g xmlns="http://www.w3.org/2000/svg" opacity="0.86">
                        <g transform="matrix(18.392076,13.955401,6.688673,-20.51491,195.875967,1034.507523)">
                            <clipPath id="_clip228">
                                <path d="M1.096,-0.374C1.096,-0.104 0.983,0.395 0.721,0.417C0.459,0.439 0.06,0.172 -0.037,-0.09C0.131,-0.242 0.691,-0.421 1.096,-0.374Z" clip-rule="nonzero"/>
                            </clipPath>
                            <g clip-path="url(#_clip228)">
                                <g transform="matrix(0.010461,0.007116,0.003411,-0.009379,-22.75627,35.018315)">
                                    <use xmlns:ns1="http://www.w3.org/1999/xlink" ns1:href="#_Image229" x="762.579" y="4309.742" width="86px" height="103px"/>
                                </g>
                            </g>
                        </g>
                        <g transform="matrix(1,0,0,1,203.7313,1037.8128)">
                            <path d="M0,17.132C-0.797,16.948 -1.583,16.34 -2.193,15.469C-5.317,11.006 -7.508,3.948 -8.954,-0.521C-9.065,-0.864 -9.584,-2.537 -8.844,-1.827C-7.894,-0.915 0.999,1.821 4.63,5.306C8.342,8.87 10.448,14.723 9.797,19.669C7.347,18.463 2.2,17.639 0,17.132" style="fill:rgb(251,235,249);fill-rule:nonzero;"/>
                        </g>
                    </g>
</g>
</g>
</svg>
