<svg xmlns="http://www.w3.org/2000/svg" viewBox="5788.018498468943 6954.073404434578 961.3487125133079 711.7056268260294">
<defs>
<linearGradient xmlns="http://www.w3.org/2000/svg" id="_Linear59" x1="0" y1="0" x2="1" y2="0" gradientUnits="userSpaceOnUse" gradientTransform="matrix(1,-0,-0,-1,0,-0.01374)"><stop offset="0" style="stop-color:rgb(62,0,219);stop-opacity:1"/><stop offset="1" style="stop-color:rgb(73,219,0);stop-opacity:1"/></linearGradient>
<linearGradient xmlns="http://www.w3.org/2000/svg" id="_Linear60" x1="0" y1="0" x2="1" y2="0" gradientUnits="userSpaceOnUse" gradientTransform="matrix(1,-0,-0,-1,0,-0.013718)"><stop offset="0" style="stop-color:rgb(62,0,219);stop-opacity:1"/><stop offset="1" style="stop-color:rgb(73,219,0);stop-opacity:1"/></linearGradient>
<linearGradient xmlns="http://www.w3.org/2000/svg" id="_Linear61" x1="0" y1="0" x2="1" y2="0" gradientUnits="userSpaceOnUse" gradientTransform="matrix(1,0,0,-1,0,-0.015062)"><stop offset="0" style="stop-color:rgb(62,0,219);stop-opacity:1"/><stop offset="1" style="stop-color:rgb(73,219,0);stop-opacity:1"/></linearGradient>
<linearGradient xmlns="http://www.w3.org/2000/svg" id="_Linear62" x1="0" y1="0" x2="1" y2="0" gradientUnits="userSpaceOnUse" gradientTransform="matrix(1,-0,-0,-1,0,-0.013745)"><stop offset="0" style="stop-color:rgb(62,0,219);stop-opacity:1"/><stop offset="1" style="stop-color:rgb(73,219,0);stop-opacity:1"/></linearGradient>
<linearGradient xmlns="http://www.w3.org/2000/svg" id="_Linear63" x1="0" y1="0" x2="1" y2="0" gradientUnits="userSpaceOnUse" gradientTransform="matrix(1,-0,-0,-1,0,-0.013734)"><stop offset="0" style="stop-color:rgb(62,0,219);stop-opacity:1"/><stop offset="1" style="stop-color:rgb(73,219,0);stop-opacity:1"/></linearGradient>
<linearGradient xmlns="http://www.w3.org/2000/svg" id="_Linear64" x1="0" y1="0" x2="1" y2="0" gradientUnits="userSpaceOnUse" gradientTransform="matrix(1,-0,-0,-1,0,-0.013722)"><stop offset="0" style="stop-color:rgb(62,0,219);stop-opacity:1"/><stop offset="1" style="stop-color:rgb(73,219,0);stop-opacity:1"/></linearGradient>
<linearGradient xmlns="http://www.w3.org/2000/svg" id="_Linear65" x1="0" y1="0" x2="1" y2="0" gradientUnits="userSpaceOnUse" gradientTransform="matrix(1,0,0,-1,0,-0.013714)"><stop offset="0" style="stop-color:rgb(62,0,219);stop-opacity:1"/><stop offset="1" style="stop-color:rgb(73,219,0);stop-opacity:1"/></linearGradient>
<linearGradient xmlns="http://www.w3.org/2000/svg" id="_Linear66" x1="0" y1="0" x2="1" y2="0" gradientUnits="userSpaceOnUse" gradientTransform="matrix(1,-0,-0,-1,0,-0.013718)"><stop offset="0" style="stop-color:rgb(62,0,219);stop-opacity:1"/><stop offset="1" style="stop-color:rgb(73,219,0);stop-opacity:1"/></linearGradient>
<radialGradient xmlns="http://www.w3.org/2000/svg" id="_Radial67" cx="0" cy="0" r="1" gradientUnits="userSpaceOnUse" gradientTransform="matrix(1,0,0,-1,0,0.080463)"><stop offset="0" style="stop-color:rgb(122,66,227);stop-opacity:1"/><stop offset="1" style="stop-color:rgb(241,255,115);stop-opacity:1"/></radialGradient>
<radialGradient xmlns="http://www.w3.org/2000/svg" id="_Radial68" cx="0" cy="0" r="1" gradientUnits="userSpaceOnUse" gradientTransform="matrix(1,0,0,-1,0,0.1009)"><stop offset="0" style="stop-color:rgb(122,66,227);stop-opacity:1"/><stop offset="1" style="stop-color:rgb(241,255,115);stop-opacity:1"/></radialGradient>
<radialGradient xmlns="http://www.w3.org/2000/svg" id="_Radial69" cx="0" cy="0" r="1" gradientUnits="userSpaceOnUse" gradientTransform="matrix(1,0,0,-1,0,0.123106)"><stop offset="0" style="stop-color:rgb(122,66,227);stop-opacity:1"/><stop offset="1" style="stop-color:rgb(241,255,115);stop-opacity:1"/></radialGradient>
<radialGradient xmlns="http://www.w3.org/2000/svg" id="_Radial70" cx="0" cy="0" r="1" gradientUnits="userSpaceOnUse" gradientTransform="matrix(1,0,0,-1,0,0.10093)"><stop offset="0" style="stop-color:rgb(122,66,227);stop-opacity:1"/><stop offset="1" style="stop-color:rgb(241,255,115);stop-opacity:1"/></radialGradient>
<radialGradient xmlns="http://www.w3.org/2000/svg" id="_Radial71" cx="0" cy="0" r="1" gradientUnits="userSpaceOnUse" gradientTransform="matrix(1,-0,-0,-1,0,0.100907)"><stop offset="0" style="stop-color:rgb(122,66,227);stop-opacity:1"/><stop offset="1" style="stop-color:rgb(241,255,115);stop-opacity:1"/></radialGradient>
</defs>
<g transform="matrix(4.166667,0,0,4.166667,0,0)">
<g transform="matrix(1,0,0,1,-11.56697,1.462939)">
<g xmlns="http://www.w3.org/2000/svg">
                        <g transform="matrix(0.968138,-0.250418,-0.250418,-0.968138,1407.390758,1795.43875)">
                            <path d="M1.331,20.398C38.089,3.42 114.004,-41.666 168.295,20.398" style="fill:none;fill-rule:nonzero;stroke:rgb(51,181,129);stroke-width:5.7px;"/>
                        </g>
                        <g transform="matrix(7.502703,41.24733,41.24733,-7.502703,1562.858734,1682.97992)">
                            <path d="M-0.219,0.094C-0.242,0.089 -0.264,0.078 -0.28,0.06C-0.261,0.073 -0.24,0.084 -0.219,0.094ZM-0.102,0.071C-0.046,0.039 -0.007,-0.015 0.038,-0.062C0.083,-0.109 0.14,-0.151 0.204,-0.15C0.28,-0.148 0.341,-0.087 0.414,-0.066C0.487,-0.045 0.565,-0.066 0.636,-0.092C0.708,-0.118 0.78,-0.149 0.856,-0.148C0.927,-0.148 1.005,-0.109 1.028,-0.043C1.002,-0.045 0.952,-0.04 0.907,-0.027C0.828,-0.003 0.759,0.044 0.685,0.079C0.611,0.113 0.524,0.135 0.447,0.106C0.373,0.077 0.312,0.002 0.233,0.01C0.186,0.015 0.148,0.048 0.107,0.073C0.01,0.131 -0.115,0.138 -0.219,0.094C-0.18,0.101 -0.136,0.092 -0.102,0.071ZM1.031,-0.031C1.03,-0.035 1.029,-0.039 1.028,-0.043C1.047,-0.042 1.052,-0.037 1.031,-0.031Z" style="fill:url(#_Linear59);fill-rule:nonzero;"/>
                        </g>
                        <g transform="matrix(-23.861054,34.471478,34.471478,23.861054,1597.557151,1691.659974)">
                            <path d="M-0.219,0.094C-0.242,0.089 -0.264,0.078 -0.28,0.06C-0.261,0.073 -0.24,0.084 -0.219,0.094ZM-0.102,0.071C-0.046,0.039 -0.007,-0.015 0.038,-0.062C0.083,-0.109 0.14,-0.151 0.204,-0.15C0.28,-0.148 0.341,-0.087 0.414,-0.066C0.487,-0.045 0.565,-0.066 0.636,-0.092C0.708,-0.118 0.78,-0.149 0.856,-0.148C0.927,-0.148 1.005,-0.109 1.028,-0.043C1.002,-0.045 0.952,-0.04 0.907,-0.027C0.828,-0.003 0.759,0.044 0.685,0.079C0.611,0.113 0.524,0.135 0.447,0.106C0.373,0.077 0.312,0.003 0.233,0.01C0.186,0.015 0.148,0.048 0.107,0.073C0.01,0.131 -0.115,0.138 -0.219,0.094C-0.18,0.101 -0.136,0.092 -0.102,0.071ZM1.031,-0.031C1.03,-0.035 1.029,-0.039 1.028,-0.043C1.047,-0.042 1.052,-0.037 1.031,-0.031Z" style="fill:url(#_Linear60);fill-rule:nonzero;"/>
                        </g>
                        <g transform="matrix(-41.24733,7.502703,7.502703,41.24733,1615.964601,1722.389848)">
                            <path d="M0.204,-0.151C0.28,-0.149 0.341,-0.088 0.414,-0.067C0.487,-0.046 0.565,-0.067 0.636,-0.093C0.708,-0.119 0.78,-0.15 0.856,-0.15C0.927,-0.149 1.005,-0.111 1.028,-0.044C1.002,-0.046 0.952,-0.042 0.907,-0.028C0.828,-0.004 0.759,0.043 0.685,0.077C0.611,0.112 0.524,0.134 0.447,0.105C0.373,0.076 0.312,0.001 0.233,0.009C0.186,0.014 0.148,0.047 0.107,0.072C0.01,0.13 -0.115,0.136 -0.219,0.092C-0.18,0.1 -0.136,0.09 -0.102,0.07C-0.046,0.037 -0.007,-0.017 0.038,-0.063C0.076,-0.103 0.122,-0.139 0.175,-0.149C0.184,-0.151 0.194,-0.151 0.204,-0.151ZM-0.219,0.092C-0.242,0.088 -0.264,0.077 -0.28,0.058C-0.261,0.072 -0.24,0.083 -0.219,0.092ZM1.031,-0.032C1.03,-0.036 1.029,-0.04 1.028,-0.044C1.047,-0.043 1.052,-0.039 1.031,-0.032Z" style="fill:url(#_Linear61);fill-rule:nonzero;"/>
                        </g>
                        <g transform="matrix(-34.471478,-23.861054,-23.861054,34.471478,1607.272992,1757.033644)">
                            <path d="M1.028,-0.043C1.002,-0.045 0.952,-0.04 0.907,-0.027C0.828,-0.003 0.759,0.044 0.685,0.079C0.611,0.113 0.524,0.135 0.447,0.106C0.373,0.077 0.312,0.003 0.233,0.01C0.186,0.015 0.148,0.048 0.107,0.073C0.01,0.131 -0.115,0.138 -0.219,0.094C-0.18,0.101 -0.136,0.092 -0.102,0.071C-0.046,0.039 -0.007,-0.015 0.038,-0.062C0.083,-0.109 0.14,-0.151 0.204,-0.15C0.28,-0.148 0.341,-0.087 0.414,-0.066C0.487,-0.045 0.565,-0.066 0.636,-0.092C0.708,-0.118 0.78,-0.149 0.856,-0.148C0.896,-0.148 0.939,-0.135 0.973,-0.112C0.998,-0.095 1.018,-0.071 1.028,-0.043ZM1.031,-0.031C1.03,-0.035 1.029,-0.039 1.028,-0.043C1.036,-0.042 1.041,-0.041 1.043,-0.04C1.046,-0.038 1.043,-0.035 1.031,-0.031ZM-0.28,0.06C-0.261,0.073 -0.24,0.084 -0.219,0.094C-0.242,0.089 -0.264,0.078 -0.28,0.06Z" style="fill:url(#_Linear62);fill-rule:nonzero;"/>
                        </g>
                        <g transform="matrix(-7.502703,-41.24733,-41.24733,7.502703,1576.600512,1775.430189)">
                            <path d="M1.031,-0.031C1.03,-0.035 1.029,-0.039 1.028,-0.043C1.038,-0.042 1.044,-0.041 1.044,-0.038C1.045,-0.036 1.041,-0.034 1.031,-0.031ZM0.907,-0.027C0.828,-0.003 0.759,0.044 0.685,0.079C0.611,0.113 0.524,0.135 0.447,0.106C0.373,0.077 0.312,0.003 0.233,0.01C0.186,0.015 0.148,0.048 0.107,0.073C0.01,0.131 -0.115,0.138 -0.219,0.094C-0.18,0.101 -0.136,0.092 -0.102,0.071C-0.046,0.039 -0.007,-0.015 0.038,-0.062C0.083,-0.109 0.14,-0.151 0.204,-0.15C0.28,-0.148 0.341,-0.087 0.414,-0.066C0.487,-0.045 0.565,-0.066 0.636,-0.092C0.708,-0.118 0.78,-0.149 0.856,-0.148C0.927,-0.148 1.005,-0.109 1.028,-0.043C1.002,-0.045 0.952,-0.04 0.907,-0.027ZM-0.28,0.06C-0.261,0.073 -0.24,0.084 -0.219,0.094C-0.242,0.089 -0.264,0.078 -0.28,0.06Z" style="fill:url(#_Linear63);fill-rule:nonzero;"/>
                        </g>
                        <g transform="matrix(23.861054,-34.471478,-34.471478,-23.861054,1541.902695,1766.749126)">
                            <path d="M1.031,-0.031C1.03,-0.035 1.029,-0.039 1.028,-0.043C1.04,-0.042 1.046,-0.04 1.044,-0.037C1.043,-0.035 1.039,-0.033 1.031,-0.031ZM0.907,-0.027C0.828,-0.003 0.759,0.044 0.685,0.079C0.611,0.113 0.524,0.135 0.447,0.106C0.373,0.077 0.312,0.003 0.233,0.01C0.186,0.015 0.148,0.048 0.107,0.073C0.01,0.131 -0.115,0.138 -0.219,0.094C-0.18,0.101 -0.136,0.092 -0.102,0.071C-0.046,0.039 -0.007,-0.015 0.038,-0.062C0.083,-0.109 0.14,-0.151 0.205,-0.15C0.28,-0.148 0.341,-0.087 0.414,-0.066C0.487,-0.045 0.565,-0.066 0.636,-0.092C0.708,-0.118 0.78,-0.149 0.856,-0.148C0.927,-0.148 1.005,-0.109 1.028,-0.043C1.002,-0.045 0.952,-0.04 0.907,-0.027ZM-0.28,0.06C-0.261,0.073 -0.24,0.084 -0.219,0.094C-0.242,0.089 -0.264,0.078 -0.28,0.06Z" style="fill:url(#_Linear64);fill-rule:nonzero;"/>
                        </g>
                        <g transform="matrix(41.24733,-7.502703,-7.502703,-41.24733,1523.505473,1736.075907)">
                            <path d="M0.447,0.106C0.373,0.077 0.312,0.003 0.233,0.01C0.186,0.015 0.148,0.048 0.107,0.073C0.01,0.131 -0.115,0.138 -0.219,0.094C-0.18,0.101 -0.136,0.092 -0.102,0.071C-0.046,0.039 -0.007,-0.015 0.038,-0.062C0.083,-0.109 0.14,-0.151 0.204,-0.15C0.28,-0.148 0.341,-0.087 0.414,-0.066C0.487,-0.045 0.565,-0.066 0.636,-0.092C0.708,-0.118 0.78,-0.149 0.856,-0.148C0.927,-0.148 1.005,-0.109 1.028,-0.043C1.002,-0.045 0.952,-0.04 0.907,-0.027C0.828,-0.003 0.759,0.044 0.685,0.079C0.651,0.095 0.614,0.108 0.576,0.115C0.533,0.123 0.488,0.122 0.447,0.106ZM1.028,-0.043C1.047,-0.042 1.052,-0.037 1.031,-0.031C1.03,-0.035 1.029,-0.039 1.028,-0.043ZM-0.28,0.06C-0.261,0.073 -0.24,0.084 -0.219,0.094C-0.242,0.089 -0.264,0.078 -0.28,0.06Z" style="fill:url(#_Linear65);fill-rule:nonzero;"/>
                        </g>
                        <g transform="matrix(34.471478,23.861054,23.861054,-34.471478,1532.185357,1701.37743)">
                            <path d="M-0.28,0.06C-0.261,0.073 -0.24,0.084 -0.219,0.094C-0.234,0.091 -0.249,0.085 -0.262,0.076C-0.269,0.071 -0.275,0.066 -0.28,0.06ZM-0.102,0.071C-0.046,0.039 -0.007,-0.015 0.038,-0.062C0.083,-0.109 0.14,-0.151 0.204,-0.15C0.28,-0.148 0.341,-0.087 0.414,-0.066C0.487,-0.045 0.565,-0.066 0.636,-0.092C0.708,-0.118 0.78,-0.149 0.856,-0.148C0.927,-0.148 1.005,-0.109 1.028,-0.043C1.002,-0.045 0.952,-0.04 0.907,-0.027C0.828,-0.003 0.759,0.044 0.685,0.079C0.611,0.113 0.524,0.135 0.447,0.106C0.373,0.077 0.312,0.003 0.233,0.01C0.186,0.015 0.148,0.048 0.107,0.073C0.01,0.131 -0.115,0.138 -0.219,0.094C-0.18,0.101 -0.136,0.092 -0.102,0.071ZM1.028,-0.043C1.047,-0.042 1.052,-0.037 1.031,-0.031C1.03,-0.035 1.029,-0.039 1.028,-0.043Z" style="fill:url(#_Linear66);fill-rule:nonzero;"/>
                        </g>
                        <g transform="matrix(-0.990305,0.138907,0.138907,0.990305,1572.211606,1737.877449)">
                            <path d="M1.253,-17.953C-3.729,-17.953 -7.767,-13.914 -7.767,-8.933C-7.767,-3.951 -3.728,0.087 1.253,0.087C6.235,0.087 10.273,-3.952 10.273,-8.933C10.273,-13.915 6.234,-17.953 1.253,-17.953" style="fill:rgb(255,15,171);fill-rule:nonzero;"/>
                        </g>
                        <g transform="matrix(-27.325347,-12.410256,-12.410256,27.325347,1600.896994,1739.050032)">
                            <path d="M0.869,-0.111C0.924,-0.053 0.965,0.015 1,0.086C0.971,0.078 0.937,0.078 0.907,0.087C0.813,0.114 0.741,0.187 0.662,0.245C0.582,0.302 0.475,0.343 0.388,0.298C0.332,0.268 0.301,0.211 0.272,0.153C0.284,0.107 0.277,0.057 0.281,0.01C0.291,-0.097 0.367,-0.195 0.468,-0.232C0.551,-0.263 0.642,-0.252 0.723,-0.215C0.777,-0.19 0.828,-0.154 0.869,-0.111ZM1.081,0.276C1.056,0.212 1.031,0.148 1,0.086C1.007,0.088 1.014,0.091 1.021,0.093C1.074,0.118 1.109,0.176 1.081,0.276ZM0.221,0.058C0.24,0.087 0.256,0.12 0.272,0.153C0.271,0.159 0.268,0.166 0.266,0.172C0.241,0.234 0.173,0.271 0.106,0.277C0.04,0.283 -0.026,0.262 -0.088,0.236C-0.168,0.203 -0.254,0.144 -0.254,0.058C-0.254,-0.039 -0.139,-0.099 -0.042,-0.093C-0.001,-0.09 0.04,-0.08 0.077,-0.063C0.135,-0.036 0.185,0.005 0.221,0.058Z" style="fill:url(#_Radial67);fill-rule:nonzero;"/>
                        </g>
                        <g transform="matrix(1,0,0,1,1567.9316,1737.0879)">
                            <path d="M0,-3.918C3.185,-7.012 6.481,-10.18 10.6,-11.84C14.718,-13.502 19.91,-13.309 23.071,-10.189C25.368,-7.924 26.213,-4.305 25.158,-1.256C24.622,0.294 23.633,1.731 23.565,3.371C23.48,5.378 24.864,7.231 26.616,8.213C28.368,9.193 30.433,9.443 32.44,9.505C35.026,9.584 38.117,9.059 39.185,6.702C40.39,4.041 37.985,0.989 35.254,-0.049C32.325,-1.162 28.886,-0.836 26.219,0.81C23.689,2.369 21.628,5.102 18.663,5.278C15.729,5.452 13.315,2.98 11.849,0.434C10.383,-2.113 9.336,-5.023 7.093,-6.922C4.85,-8.82 0.79,-9.01 0,-3.918Z" style="fill:none;fill-rule:nonzero;stroke:rgb(189,148,143);stroke-width:1.9px;"/>
                        </g>
                        <g transform="matrix(3.358859,-29.822928,-29.822928,-3.358859,1570.608121,1761.958097)">
                            <path d="M1.081,0.296C1.056,0.233 1.031,0.168 1,0.107C1.056,0.122 1.099,0.168 1.09,0.254C1.088,0.267 1.085,0.281 1.081,0.296ZM0.907,0.107C0.813,0.134 0.741,0.208 0.662,0.265C0.582,0.322 0.475,0.364 0.388,0.318C0.332,0.288 0.301,0.232 0.272,0.173C0.284,0.127 0.277,0.078 0.281,0.03C0.291,-0.077 0.367,-0.175 0.468,-0.212C0.606,-0.263 0.767,-0.197 0.869,-0.09C0.924,-0.033 0.965,0.035 1,0.107C0.971,0.098 0.937,0.099 0.907,0.107ZM0.266,0.193C0.241,0.255 0.173,0.292 0.107,0.298C0.04,0.303 -0.026,0.282 -0.088,0.256C-0.168,0.223 -0.254,0.165 -0.254,0.079C-0.254,-0.019 -0.139,-0.078 -0.042,-0.072C0.062,-0.066 0.162,-0.008 0.221,0.078C0.24,0.108 0.256,0.141 0.272,0.173C0.271,0.18 0.268,0.186 0.266,0.193Z" style="fill:url(#_Radial68);fill-rule:nonzero;"/>
                        </g>
                        <g transform="matrix(1,0,0,1,1565.4043,1768.7697)">
                            <path d="M0,-40.049C3.926,-37.975 7.957,-35.82 10.81,-32.416C13.663,-29.013 15.083,-24.016 13.094,-20.045C11.649,-17.161 8.468,-15.238 5.243,-15.3C3.603,-15.331 1.93,-15.826 0.35,-15.386C-1.585,-14.845 -2.921,-12.957 -3.313,-10.987C-3.703,-9.018 -3.303,-6.977 -2.741,-5.048C-2.018,-2.565 -0.563,0.212 2.009,0.499C4.912,0.823 7.071,-2.406 7.214,-5.324C7.367,-8.454 5.995,-11.624 3.605,-13.653C1.341,-15.575 -1.895,-16.693 -2.979,-19.458C-4.052,-22.194 -2.446,-25.254 -0.478,-27.436C1.491,-29.617 3.937,-31.511 5.049,-34.232C6.161,-36.952 5.087,-40.872 0,-40.049Z" style="fill:none;fill-rule:nonzero;stroke:rgb(189,148,143);stroke-width:1.9px;"/>
                        </g>
                        <g transform="matrix(29.401236,-6.021327,-6.021327,-29.401236,1538.984913,1740.814779)">
                            <path d="M1,0.129C1.064,0.147 1.113,0.206 1.081,0.318C1.056,0.255 1.031,0.19 1,0.129ZM0.388,0.34C0.332,0.311 0.301,0.254 0.272,0.195C0.284,0.15 0.277,0.1 0.281,0.053C0.291,-0.054 0.367,-0.153 0.468,-0.19C0.606,-0.241 0.767,-0.175 0.869,-0.068C0.924,-0.01 0.965,0.057 1,0.129C0.971,0.12 0.937,0.121 0.907,0.13C0.813,0.156 0.741,0.23 0.662,0.287C0.619,0.318 0.568,0.344 0.516,0.355C0.472,0.364 0.428,0.361 0.388,0.34ZM0.107,0.32C0.04,0.325 -0.026,0.304 -0.088,0.279C-0.168,0.245 -0.254,0.187 -0.254,0.101C-0.254,0.003 -0.139,-0.056 -0.042,-0.05C0.062,-0.043 0.162,0.014 0.221,0.101C0.24,0.13 0.256,0.163 0.272,0.195C0.271,0.202 0.268,0.208 0.266,0.215C0.244,0.269 0.19,0.304 0.132,0.316C0.123,0.318 0.115,0.319 0.107,0.32Z" style="fill:url(#_Radial69);fill-rule:nonzero;"/>
                        </g>
                        <g transform="matrix(1,0,0,1,1568.854,1744.2414)">
                            <path d="M0,-19.3C-0.759,-14.925 -1.563,-10.425 -3.919,-6.66C-6.274,-2.896 -10.588,0 -14.979,-0.665C-18.168,-1.148 -20.979,-3.579 -21.918,-6.665C-22.396,-8.235 -22.44,-9.979 -23.349,-11.346C-24.46,-13.019 -26.669,-13.705 -28.663,-13.469C-30.657,-13.233 -32.475,-12.221 -34.135,-11.091C-36.272,-9.635 -38.465,-7.394 -37.943,-4.86C-37.354,-1.998 -33.615,-0.943 -30.796,-1.708C-27.771,-2.529 -25.181,-4.815 -23.99,-7.714C-22.861,-10.462 -22.799,-13.884 -20.504,-15.77C-18.233,-17.635 -14.827,-17.054 -12.144,-15.856C-9.461,-14.657 -6.903,-12.918 -3.973,-12.7C-1.042,-12.483 2.354,-14.716 0,-19.3Z" style="fill:none;fill-rule:nonzero;stroke:rgb(189,148,143);stroke-width:1.9px;"/>
                        </g>
                        <g transform="matrix(14.812103,26.101543,26.101543,-14.812103,1549.766976,1703.223448)">
                            <path d="M-0.254,0.079C-0.254,-0.019 -0.139,-0.078 -0.042,-0.072C0.062,-0.065 0.162,-0.008 0.221,0.078C0.238,0.105 0.253,0.134 0.267,0.163C0.269,0.166 0.271,0.17 0.272,0.173C0.271,0.18 0.268,0.186 0.266,0.193C0.241,0.255 0.173,0.292 0.107,0.298C0.04,0.303 -0.026,0.282 -0.088,0.257C-0.146,0.232 -0.207,0.195 -0.236,0.143C-0.248,0.124 -0.254,0.102 -0.254,0.079ZM0.272,0.173C0.284,0.127 0.277,0.078 0.281,0.03C0.291,-0.077 0.367,-0.175 0.468,-0.212C0.607,-0.263 0.767,-0.197 0.869,-0.09C0.924,-0.033 0.965,0.035 1,0.107C0.971,0.098 0.937,0.099 0.907,0.107C0.813,0.134 0.741,0.208 0.662,0.265C0.582,0.322 0.475,0.364 0.388,0.318C0.347,0.296 0.32,0.26 0.297,0.219C0.288,0.204 0.28,0.189 0.272,0.173ZM1,0.107C1.064,0.124 1.113,0.184 1.081,0.296C1.056,0.233 1.031,0.168 1,0.107Z" style="fill:url(#_Radial70);fill-rule:nonzero;"/>
                        </g>
                        <g transform="matrix(1,0,0,1,1573.5146,1697.8057)">
                            <path d="M0,29.248C-4.395,29.878 -8.924,30.504 -13.232,29.427C-17.541,28.351 -21.627,25.143 -22.352,20.761C-22.878,17.579 -21.435,14.153 -18.789,12.308C-17.444,11.368 -15.799,10.786 -14.78,9.501C-13.532,7.927 -13.562,5.613 -14.402,3.79C-15.244,1.967 -16.768,0.551 -18.355,-0.679C-20.4,-2.263 -23.21,-3.655 -25.459,-2.376C-27.999,-0.931 -27.847,2.951 -26.247,5.395C-24.531,8.019 -21.558,9.776 -18.432,10.013C-15.47,10.237 -12.196,9.239 -9.694,10.839C-7.218,12.422 -6.718,15.841 -7.028,18.764C-7.339,21.686 -8.203,24.654 -7.504,27.51C-6.806,30.364 -3.632,32.903 0,29.248Z" style="fill:none;fill-rule:nonzero;stroke:rgb(189,148,143);stroke-width:1.9px;"/>
                        </g>
                        <g transform="matrix(-20.246852,22.152969,22.152969,20.246852,1588.269832,1702.190398)">
                            <path d="M-0.042,-0.072C0.062,-0.066 0.162,-0.008 0.221,0.078C0.24,0.108 0.256,0.141 0.272,0.173C0.271,0.18 0.268,0.186 0.266,0.193C0.241,0.255 0.173,0.292 0.107,0.298C0.04,0.303 -0.026,0.282 -0.088,0.257C-0.168,0.223 -0.254,0.165 -0.254,0.079C-0.254,0.046 -0.241,0.017 -0.22,-0.006C-0.178,-0.052 -0.106,-0.076 -0.042,-0.072ZM0.468,-0.212C0.606,-0.263 0.767,-0.197 0.869,-0.09C0.924,-0.033 0.965,0.035 1,0.107C0.971,0.098 0.937,0.099 0.907,0.107C0.813,0.134 0.741,0.208 0.662,0.265C0.582,0.322 0.475,0.364 0.388,0.318C0.332,0.288 0.301,0.232 0.272,0.173C0.284,0.127 0.277,0.078 0.281,0.03C0.287,-0.032 0.315,-0.091 0.357,-0.136C0.387,-0.17 0.425,-0.196 0.468,-0.212ZM1.081,0.296C1.056,0.233 1.031,0.168 1,0.107C1.064,0.124 1.113,0.184 1.081,0.296Z" style="fill:url(#_Radial71);fill-rule:nonzero;"/>
                        </g>
                        <g transform="matrix(1,0,0,1,1572.9434,1696.1856)">
                            <path d="M0,35.954C-1.957,31.968 -3.951,27.855 -4.259,23.425C-4.566,18.995 -2.777,14.117 1.164,12.074C4.029,10.589 7.732,10.904 10.306,12.849C11.614,13.838 12.676,15.223 14.215,15.795C16.097,16.495 18.287,15.752 19.762,14.389C21.236,13.025 22.111,11.139 22.791,9.249C23.664,6.814 24.121,3.712 22.209,1.969C20.051,0 16.405,1.344 14.574,3.621C12.61,6.062 11.857,9.434 12.599,12.479C13.301,15.367 15.262,18.171 14.514,21.046C13.772,23.89 10.676,25.421 7.8,26.029C4.926,26.637 1.834,26.733 -0.665,28.279C-3.164,29.826 -4.6,33.629 0,35.954Z" style="fill:none;fill-rule:nonzero;stroke:rgb(189,148,143);stroke-width:1.9px;"/>
                        </g>
                    </g>
</g>
</g>
</svg>
