<svg xmlns="http://www.w3.org/2000/svg" viewBox="1962.0261162554102 1887.1761905653334 601.6383521039811 834.5571053799795">
<defs>
<radialGradient xmlns="http://www.w3.org/2000/svg" id="_Radial147" cx="0" cy="0" r="1" gradientUnits="userSpaceOnUse" gradientTransform="matrix(1,0,0,-1,0,0.213209)"><stop offset="0" style="stop-color:rgb(185,42,241);stop-opacity:1"/><stop offset="1" style="stop-color:rgb(217,252,121);stop-opacity:1"/></radialGradient>
<radialGradient xmlns="http://www.w3.org/2000/svg" id="_Radial148" cx="0" cy="0" r="1" gradientUnits="userSpaceOnUse" gradientTransform="matrix(1,0,-0,-1,0,0.126226)"><stop offset="0" style="stop-color:rgb(188,35,240);stop-opacity:1"/><stop offset="1" style="stop-color:rgb(217,252,121);stop-opacity:1"/></radialGradient>
<linearGradient xmlns="http://www.w3.org/2000/svg" id="_Linear149" x1="0" y1="0" x2="1" y2="0" gradientUnits="userSpaceOnUse" gradientTransform="matrix(1,0,0,-1,0,0.001374)"><stop offset="0" style="stop-color:rgb(190,29,240);stop-opacity:1"/><stop offset="1" style="stop-color:rgb(217,252,121);stop-opacity:1"/></linearGradient>
<radialGradient xmlns="http://www.w3.org/2000/svg" id="_Radial150" cx="0" cy="0" r="1" gradientUnits="userSpaceOnUse" gradientTransform="matrix(1,0,0,-1,0,0.010029)"><stop offset="0" style="stop-color:rgb(235,194,255);stop-opacity:1"/><stop offset="1" style="stop-color:rgb(212,111,17);stop-opacity:1"/></radialGradient>
<radialGradient xmlns="http://www.w3.org/2000/svg" id="_Radial151" cx="0" cy="0" r="1" gradientUnits="userSpaceOnUse" gradientTransform="matrix(1,0,0,-1,0,0.010046)"><stop offset="0" style="stop-color:rgb(234,191,247);stop-opacity:1"/><stop offset="1" style="stop-color:rgb(212,111,17);stop-opacity:1"/></radialGradient>
</defs>
<g transform="matrix(4.166667,0,0,4.166667,0,0)">
<g transform="matrix(1,0,0,1,-11.56697,1.462939)">
<g xmlns="http://www.w3.org/2000/svg">
                        <g transform="matrix(1,0,0,1,555.9025,648.8729)">
                            <path d="M0,-115.05C-22.535,-107.524 -40.247,-87.097 -44.504,-63.723C-48.762,-40.349 -39.391,-14.989 -20.957,0" style="fill:none;fill-rule:nonzero;stroke:rgb(30,143,107);stroke-width:4.04px;"/>
                        </g>
                        <g transform="matrix(1,0,0,1,510.3752,573.0026)">
                            <path d="M0,19.877C-6.461,19.854 -11.532,14.406 -13.674,8.31C-13.674,8.31 -11.467,6.894 -10.637,4.967C-9.807,3.039 -9.849,0.67 -11.063,-1.042C-12.157,-2.587 -13.999,-3.404 -15.79,-4.016C-17.614,-4.64 -19.483,-5.128 -21.379,-5.476C-21.913,-5.574 -22.285,-4.93 -22.435,-4.625C-25.042,0.671 -23.089,10.989 -20.437,11.424C-19.524,11.574 -18.72,11.094 -18.039,10.469C-16.294,8.871 -1.694,25.451 -0.889,21.782" style="fill:rgb(30,143,107);fill-rule:nonzero;"/>
                        </g>
                        <g transform="matrix(1,0,0,1,510.7362,595.6687)">
                            <path d="M0,8.946C3.944,3.829 11.352,3.111 17.495,5.113C17.495,5.113 17.279,7.727 18.305,9.557C19.332,11.387 21.24,12.792 23.337,12.869C25.229,12.939 26.996,11.972 28.571,10.921C30.174,9.852 31.698,8.663 33.126,7.369C33.528,7.005 33.243,6.318 33.092,6.014C30.47,0.725 21.087,-3.993 19.131,-2.15C18.457,-1.517 18.35,-0.587 18.432,0.335C18.641,2.691 -3.398,4.214 -0.973,7.082" style="fill:rgb(30,143,107);fill-rule:nonzero;"/>
                        </g>
                        <g transform="matrix(-18.998812,-19.375404,21.003645,-15.400389,528.805713,531.180349)">
                            <path d="M0.801,-0.669C0.782,-0.78 0.742,-0.905 0.642,-0.946C0.552,-0.983 0.451,-0.938 0.366,-0.889C-0.204,-0.563 -0.659,-0.02 -0.891,0.613C-0.478,0.894 -0.038,1.196 0.459,1.172C0.74,0.658 0.902,-0.101 0.801,-0.669Z" style="fill:url(#_Radial147);fill-rule:nonzero;"/>
                        </g>
                        <g transform="matrix(1,0,0,1,558.6013,509.4869)">
                            <path d="M0,29.524C-17.697,34.759 -37.738,34.316 -55.428,28.3C-58.073,27.4 -60.94,26.136 -61.863,23.828C-62.9,21.237 -61.023,18.558 -59.062,16.464C-49.047,5.77 -30.02,-2.781 -13.901,-5.235C-3.94,4.006 -1.933,17.193 0,29.524Z" style="fill:none;fill-rule:nonzero;stroke:black;stroke-width:0.13px;"/>
                        </g>
                        <g transform="matrix(-18.024517,-18.517778,15.256556,-20.857346,551.322401,546.946573)">
                            <path d="M0.933,0.44C0.646,-0.207 0.142,-0.73 -0.461,-1.007C-0.551,-1.049 -0.657,-1.084 -0.744,-1.033C-0.843,-0.976 -0.872,-0.837 -0.882,-0.716C-0.937,-0.095 -0.71,0.697 -0.383,1.21C0.065,1.178 0.446,0.874 0.801,0.558C0.845,0.519 0.889,0.479 0.933,0.44Z" style="fill:url(#_Radial148);fill-rule:nonzero;"/>
                        </g>
                        <g transform="matrix(1,0,0,1,541.2275,582.6459)">
                            <path d="M0,-62.157C-4.698,-43.339 -3.6,-23.089 3.037,-6.15C4.029,-3.617 5.396,-0.92 7.751,-0.368C10.395,0.252 13.034,-2.098 15.079,-4.434C25.527,-16.371 33.522,-37.091 35.47,-53.846C25.836,-62.409 12.486,-62.249 0,-62.157Z" style="fill:none;fill-rule:nonzero;stroke:black;stroke-width:0.13px;"/>
                        </g>
                        <g transform="matrix(40.24884,-37.054485,-37.054485,-40.24884,557.851698,519.254281)">
                            <path d="M0.915,0.131C0.674,0.28 0.288,0.355 -0.009,0.334C-0.128,0.132 -0.083,-0.107 -0.042,-0.331C0.301,-0.353 0.65,-0.266 0.924,-0.091C0.965,-0.064 1.007,-0.031 1.009,0.013C1.011,0.043 0.993,0.07 0.969,0.092C0.953,0.107 0.934,0.12 0.915,0.131Z" style="fill:url(#_Linear149);fill-rule:nonzero;"/>
                        </g>
                        <g transform="matrix(1,0,0,1,568.4465,479.2312)">
                            <path d="M0,54.898C14.6,43.091 25.428,26.656 29.947,9.444C30.622,6.871 31.095,3.942 29.545,2.085C27.805,0 24.354,0.231 21.381,0.812C6.192,3.776 -12.123,15.066 -23.349,26.934C-20.651,39.439 -9.962,47.405 0,54.898Z" style="fill:none;fill-rule:nonzero;stroke:black;stroke-width:0.13px;"/>
                        </g>
                        <g transform="matrix(1,0,0,1,549.748,519.5443)">
                            <path d="M0,11.384C2.157,9.632 4.313,7.88 6.47,6.128C7.434,5.345 8.443,4.5 8.85,3.326C9.257,2.152 8.765,0.575 7.559,0.279C6.425,0 5.377,0.913 4.564,1.752C1.268,5.155 -4.091,9.301 0,11.384" style="fill:rgb(207,255,15);fill-rule:nonzero;"/>
                        </g>
                        <g transform="matrix(1,0,0,1,552.6849,533.7119)">
                            <path d="M0,10.968C-3.256,16.208 -13.751,16.426 -21.542,17.293C-22.228,17.369 -23.023,17.262 -23.452,16.722C-23.875,16.189 -23.753,15.423 -23.61,14.759C-22.419,9.234 -23.958,0.854 -22.767,-4.671C-22.394,-6.401 -18.819,-5.683 -17.049,-5.683C-15.333,-5.684 -12.471,-5.424 -10.858,-4.838C-8.822,-4.096 -8.346,-4.125 -6.379,-3.213C-4.901,-2.528 -3.085,-0.166 -2.893,1.451C-2.423,5.413 2.021,7.717 0,10.968" style="fill:rgb(155,100,237);fill-rule:nonzero;"/>
                        </g>
                        <g transform="matrix(1,0,0,1,563.0208,544.0408)">
                            <path d="M0,-14.334C0.113,-11.386 -0.817,-9.269 -2.459,-6.96C-4.294,-4.381 -5.176,-3.05 -8.042,-1.705C-10.909,-0.361 -14.897,3.029 -15.87,0.016C-17.155,-3.964 -13.882,-3.63 -16.721,-11.072C-17.012,-11.834 -15.629,-13.714 -14.085,-12.995C-12.542,-12.275 -12.254,-6.171 -7.452,-7.872C-3.28,-9.349 -5.777,-14.184 -6.14,-15.837C-6.154,-17.363 -3.678,-16.729 -2.17,-16.97C-0.663,-17.211 0.945,-16.22 0,-14.334" style="fill:rgb(15,31,255);fill-rule:nonzero;"/>
                        </g>
                        <g transform="matrix(1,0,0,1,550.0143,532.125)">
                            <path d="M0,-16.022C-2.94,-16.267 -5.096,-15.433 -7.477,-13.896C-10.136,-12.178 -11.505,-11.358 -12.977,-8.554C-14.448,-5.751 -18.013,-1.919 -15.047,-0.812C-11.129,0.65 -11.316,-2.634 -4.009,0.536C-3.26,0.86 -1.32,-0.437 -1.97,-2.011C-2.62,-3.585 -8.705,-4.147 -6.79,-8.867C-5.127,-12.969 -0.409,-10.257 1.226,-9.821C2.75,-9.738 2.228,-12.241 2.536,-13.736C2.845,-15.23 1.926,-16.882 0,-16.022" style="fill:rgb(15,31,255);fill-rule:nonzero;"/>
                        </g>
                        <g transform="matrix(-20.573202,-21.517963,21.517963,-20.573202,580.546521,538.648227)">
                            <path d="M0.786,0.589C0.761,0.489 0.636,0.312 0.611,0.212C0.563,0.025 0.768,-0.085 0.973,-0.215C0.951,-0.253 0.857,-0.363 0.778,-0.35C0.699,-0.337 0.635,-0.268 0.556,-0.28C0.416,-0.301 0.392,-0.413 0.369,-0.553C0.347,-0.693 0.27,-0.852 0.163,-0.944C0.048,-1.044 -0.125,-1.021 -0.274,-0.992C-0.412,-0.966 -0.565,-0.928 -0.637,-0.808C-0.717,-0.675 -0.703,-0.456 -0.747,-0.307C-0.793,-0.149 -0.902,-0.086 -0.954,0.07C-1.008,0.233 -0.939,0.416 -0.823,0.541C-0.707,0.667 -0.551,0.747 -0.398,0.823C-0.24,0.902 -0.08,0.981 0.092,1.017C0.264,1.054 0.454,1.043 0.603,0.95C0.651,0.92 0.691,0.89 0.723,0.857C0.79,0.788 0.816,0.705 0.786,0.589Z" style="fill:url(#_Radial150);fill-rule:nonzero;"/>
                        </g>
                        <g transform="matrix(-20.573202,-21.517963,21.517963,-20.573202,541.412498,497.717781)">
                            <path d="M0.823,0.541C0.939,0.416 1.008,0.233 0.954,0.07C0.902,-0.086 0.793,-0.149 0.747,-0.307C0.703,-0.456 0.717,-0.675 0.637,-0.808C0.565,-0.928 0.412,-0.965 0.274,-0.992C0.125,-1.021 -0.048,-1.044 -0.163,-0.944C-0.27,-0.852 -0.347,-0.693 -0.369,-0.553C-0.392,-0.413 -0.416,-0.301 -0.556,-0.28C-0.635,-0.268 -0.699,-0.337 -0.778,-0.35C-0.857,-0.363 -0.951,-0.253 -0.973,-0.215C-0.768,-0.085 -0.563,0.025 -0.611,0.212C-0.636,0.312 -0.761,0.489 -0.786,0.589C-0.829,0.76 -0.753,0.857 -0.603,0.95C-0.454,1.043 -0.264,1.054 -0.092,1.018C0.08,0.981 0.24,0.902 0.398,0.823C0.547,0.748 0.699,0.671 0.814,0.551C0.817,0.547 0.82,0.544 0.823,0.541Z" style="fill:url(#_Radial151);fill-rule:nonzero;"/>
                        </g>
                        <g transform="matrix(1,0,0,1,552.8768,532.9471)">
                            <path d="M0,-2.245C0.616,-3.147 -2.015,-2.48 -3.041,-2.853C-4.068,-3.227 -4.04,-2.597 -4.103,-3.688C-4.14,-4.336 -4.409,-5.619 -4.272,-6.047C-4.136,-6.474 -4.234,-7.047 -4.655,-7.2C-5.129,-7.373 -5.577,-6.907 -5.86,-6.489C-8.278,-2.922 -12.371,2.493 -11.005,3.917C-9.843,5.128 -1.732,0.293 0,-2.245" style="fill:rgb(166,255,0);fill-rule:nonzero;"/>
                        </g>
                        <g transform="matrix(1,0,0,1,553.5801,519.7261)">
                            <path d="M0,5.995C1.121,6.432 2.415,6.096 3.445,5.472C4.401,4.893 5.236,4.022 5.508,2.938C5.779,1.854 5.357,0.561 4.362,0.052C3.408,-0.437 2.196,-0.097 1.377,0.595C0.557,1.287 0.046,2.267 -0.436,3.225C-0.731,3.812 -1.031,4.449 -0.93,5.098C-0.83,5.747 -0.131,6.337 0,5.995" style="fill:rgb(215,122,48);fill-rule:nonzero;"/>
                        </g>
                    </g>
</g>
</g>
</svg>
