<svg xmlns="http://www.w3.org/2000/svg" viewBox="6808.808170664611 1028.728162424913 641.5225494018005 1150.1071734219">
<g transform="matrix(4.166667,0,0,4.166667,0,0)">
<g transform="matrix(1,0,0,1,-11.56697,1.462939)">
<g xmlns="http://www.w3.org/2000/svg">
                            <g transform="matrix(1,0,0,1,1796.7661,304.0454)">
                                <path d="M0,214.532C-43.681,200.412 -83.385,170.045 -101.926,128.048C-120.466,86.052 -114.492,32.472 -82.042,0" style="fill:none;fill-rule:nonzero;stroke:rgb(19,191,160);stroke-width:4px;"/>
                            </g>
                            <g transform="matrix(0,1,1,0,1714.7235,288.6768)">
                                <path d="M15.369,-15.369C6.881,-15.369 -0,-8.488 -0,0C-0,8.488 6.881,15.369 15.369,15.369C23.857,15.369 30.738,8.488 30.738,0C30.738,-8.488 23.857,-15.369 15.369,-15.369" style="fill:rgb(19,191,160);fill-rule:nonzero;"/>
                            </g>
                            <g transform="matrix(1,0,0,1,1702.7295,343.6668)">
                                <path d="M0,-31.577C6.1,-31.047 8.069,-27.816 11.793,-22.956C15.517,-18.096 17.085,-11.643 16.009,-5.616C15.252,-1.377 12.67,3.065 8.44,3.871C4.596,4.604 0.729,1.936 -1.1,-1.524C-2.928,-4.985 -3.138,-9.055 -3.095,-12.969C-3.047,-17.321 -2.736,-21.67 -2.164,-25.985C-1.888,-28.068 -1.505,-30.251 -0.173,-31.876C1.188,-33.537 3.328,-34.345 5.421,-34.825C11.344,-36.181 17.792,-35.388 23.055,-32.35C26.417,-30.409 29.445,-27.194 29.59,-23.313C29.683,-20.857 28.613,-18.52 27.51,-16.323C26.359,-14.034 25.046,-11.67 22.856,-10.34C20.667,-9.01 17.356,-9.185 16.014,-11.367" style="fill:rgb(255,166,33);fill-rule:nonzero;stroke:rgb(19,191,160);stroke-width:1.54px;"/>
                            </g>
                            <g transform="matrix(1,0,0,1,1696.5435,337.7178)">
                                <path d="M0,-31.003C2.591,-25.456 0.778,-22.135 -1.569,-16.48C-3.917,-10.825 -8.72,-6.241 -14.479,-4.158C-18.527,-2.695 -23.666,-2.71 -26.479,-5.97C-29.036,-8.933 -28.659,-13.616 -26.576,-16.929C-24.493,-20.243 -21.073,-22.46 -17.663,-24.38C-13.87,-26.514 -9.947,-28.42 -5.924,-30.081C-3.982,-30.884 -1.9,-31.644 0.173,-31.303C2.292,-30.954 4.062,-29.505 5.523,-27.933C9.66,-23.482 12.197,-17.501 12.197,-11.425C12.197,-7.542 10.927,-3.312 7.639,-1.246C5.558,0.062 2.999,0.305 0.545,0.448C-2.013,0.597 -4.717,0.641 -6.963,-0.591C-9.21,-1.821 -10.713,-4.776 -9.496,-7.03" style="fill:rgb(255,166,33);fill-rule:nonzero;stroke:rgb(19,191,160);stroke-width:1.54px;"/>
                            </g>
                            <g transform="matrix(1,0,0,1,1698.1064,305.8524)">
                                <path d="M0,-7.183C-3.509,-2.165 -7.292,-2.075 -13.362,-1.281C-19.434,-0.486 -25.806,-2.354 -30.487,-6.299C-33.779,-9.074 -36.335,-13.531 -34.919,-17.598C-33.632,-21.294 -29.388,-23.309 -25.477,-23.162C-21.565,-23.015 -17.936,-21.161 -14.567,-19.167C-10.823,-16.95 -7.211,-14.506 -3.761,-11.853C-2.095,-10.572 -0.396,-9.149 0.346,-7.183C1.104,-5.174 0.733,-2.917 0.103,-0.864C-1.685,4.943 -5.595,10.131 -10.857,13.17C-14.22,15.111 -18.519,16.126 -21.951,14.311C-24.125,13.163 -25.614,11.068 -26.965,9.014C-28.372,6.874 -29.763,4.554 -29.819,1.993C-29.878,-0.568 -28.069,-3.348 -25.509,-3.42" style="fill:rgb(255,166,33);fill-rule:nonzero;stroke:rgb(19,191,160);stroke-width:1.54px;"/>
                            </g>
                            <g transform="matrix(1,0,0,1,1705.8545,264.424)">
                                <path d="M0,31.577C-6.1,31.047 -8.069,27.816 -11.793,22.956C-15.517,18.096 -17.085,11.643 -16.009,5.616C-15.252,1.377 -12.67,-3.065 -8.44,-3.871C-4.596,-4.604 -0.729,-1.936 1.1,1.524C2.928,4.985 3.138,9.055 3.095,12.969C3.047,17.321 2.736,21.67 2.164,25.985C1.888,28.068 1.505,30.251 0.173,31.876C-1.188,33.537 -3.328,34.345 -5.421,34.825C-11.344,36.181 -17.792,35.388 -23.055,32.35C-26.417,30.409 -29.445,27.194 -29.59,23.313C-29.683,20.857 -28.613,18.52 -27.51,16.323C-26.359,14.034 -25.046,11.67 -22.856,10.34C-20.667,9.01 -17.356,9.185 -16.014,11.367" style="fill:rgb(255,166,33);fill-rule:nonzero;stroke:rgb(19,191,160);stroke-width:1.54px;"/>
                            </g>
                            <g transform="matrix(1,0,0,1,1712.04,270.373)">
                                <path d="M0,31.003C-2.591,25.456 -0.778,22.135 1.569,16.48C3.917,10.825 8.72,6.241 14.479,4.158C18.527,2.695 23.666,2.71 26.479,5.97C29.036,8.933 28.659,13.616 26.576,16.929C24.493,20.243 21.073,22.46 17.663,24.38C13.87,26.514 9.947,28.42 5.924,30.081C3.982,30.884 1.9,31.644 -0.173,31.303C-2.292,30.954 -4.062,29.505 -5.523,27.933C-9.66,23.482 -12.197,17.501 -12.197,11.425C-12.197,7.542 -10.927,3.312 -7.639,1.246C-5.558,-0.062 -2.999,-0.305 -0.545,-0.448C2.013,-0.597 4.717,-0.641 6.963,0.591C9.21,1.821 10.713,4.776 9.496,7.03" style="fill:rgb(255,166,33);fill-rule:nonzero;stroke:rgb(19,191,160);stroke-width:1.54px;"/>
                            </g>
                            <g transform="matrix(1,0,0,1,1710.4775,302.2374)">
                                <path d="M0,7.183C3.509,2.165 7.292,2.075 13.362,1.281C19.434,0.486 25.806,2.354 30.487,6.299C33.779,9.074 36.335,13.531 34.919,17.598C33.632,21.294 29.388,23.309 25.477,23.162C21.565,23.015 17.936,21.161 14.567,19.167C10.823,16.95 7.211,14.506 3.761,11.853C2.095,10.572 0.396,9.149 -0.346,7.183C-1.104,5.174 -0.733,2.917 -0.103,0.864C1.685,-4.943 5.595,-10.131 10.857,-13.17C14.22,-15.111 18.519,-16.126 21.951,-14.311C24.125,-13.163 25.614,-11.068 26.965,-9.014C28.372,-6.874 29.763,-4.554 29.819,-1.993C29.878,0.568 28.069,3.348 25.509,3.42" style="fill:rgb(255,166,33);fill-rule:nonzero;stroke:rgb(19,191,160);stroke-width:1.54px;"/>
                            </g>
                            <g transform="matrix(1,0,0,1,1701.4834,337.1535)">
                                <path d="M0,-27.342C4.505,-25.705 5.34,-22.863 7.171,-18.434C9.001,-14.005 8.88,-8.808 6.845,-4.469C5.414,-1.418 2.562,1.418 -0.8,1.171C-3.854,0.946 -6.238,-1.855 -6.92,-4.842C-7.601,-7.829 -6.935,-10.948 -6.109,-13.899C-5.191,-17.18 -4.075,-20.406 -2.769,-23.552C-2.138,-25.071 -1.405,-26.644 -0.069,-27.603C1.296,-28.583 3.077,-28.76 4.757,-28.699C9.511,-28.525 14.225,-26.619 17.589,-23.256C19.738,-21.107 21.376,-18.062 20.699,-15.099C20.271,-13.223 18.99,-11.672 17.71,-10.235C16.377,-8.738 14.904,-7.216 12.979,-6.654C11.055,-6.092 8.587,-6.895 8.014,-8.817" style="fill:rgb(255,212,23);fill-rule:nonzero;stroke:rgb(19,191,160);stroke-width:1.21px;"/>
                            </g>
                            <g transform="matrix(1,0,0,1,1697.8955,328.2411)">
                                <path d="M0,-23.747C0.835,-19.026 -1.208,-16.883 -4.129,-13.083C-7.05,-9.283 -11.611,-6.79 -16.386,-6.382C-19.744,-6.096 -23.626,-7.148 -25.093,-10.183C-26.425,-12.94 -25.192,-16.405 -22.945,-18.489C-20.699,-20.572 -17.665,-21.556 -14.697,-22.316C-11.396,-23.162 -8.044,-23.808 -4.666,-24.25C-3.035,-24.463 -1.307,-24.615 0.191,-23.937C1.723,-23.245 2.767,-21.791 3.554,-20.306C5.78,-16.101 6.486,-11.066 5.256,-6.472C4.469,-3.535 2.651,-0.595 -0.253,0.301C-2.092,0.868 -4.075,0.534 -5.96,0.144C-7.923,-0.262 -9.978,-0.776 -11.427,-2.162C-12.876,-3.548 -13.414,-6.087 -12.037,-7.544" style="fill:rgb(255,212,23);fill-rule:nonzero;stroke:rgb(19,191,160);stroke-width:1.21px;"/>
                            </g>
                            <g transform="matrix(1,0,0,1,1700.708,294.558)">
                                <path d="M0,4.17C-3.67,7.253 -6.549,6.555 -11.301,5.926C-16.051,5.296 -20.491,2.593 -23.231,-1.339C-25.158,-4.104 -26.188,-7.992 -24.293,-10.779C-22.571,-13.312 -18.954,-13.976 -16.025,-13.073C-13.1,-12.169 -10.73,-10.033 -8.588,-7.842C-6.205,-5.407 -3.97,-2.827 -1.898,-0.123C-0.898,1.183 0.098,2.604 0.26,4.241C0.426,5.913 -0.311,7.544 -1.203,8.968C-3.731,12.998 -7.739,16.127 -12.334,17.359C-15.27,18.146 -18.725,18.042 -20.953,15.974C-22.363,14.666 -23.066,12.781 -23.67,10.953C-24.301,9.05 -24.883,7.014 -24.406,5.066C-23.932,3.118 -22.002,1.383 -20.051,1.847" style="fill:rgb(255,212,23);fill-rule:nonzero;stroke:rgb(19,191,160);stroke-width:1.21px;"/>
                            </g>
                            <g transform="matrix(1,0,0,1,1707.1064,270.9383)">
                                <path d="M0,27.342C-4.505,25.705 -5.34,22.863 -7.171,18.434C-9.001,14.005 -8.88,8.808 -6.845,4.469C-5.414,1.418 -2.562,-1.418 0.8,-1.171C3.854,-0.946 6.238,1.855 6.92,4.842C7.601,7.829 6.935,10.948 6.109,13.899C5.191,17.18 4.075,20.406 2.769,23.552C2.138,25.071 1.405,26.644 0.069,27.603C-1.296,28.583 -3.077,28.76 -4.757,28.699C-9.511,28.525 -14.225,26.619 -17.589,23.256C-19.738,21.107 -21.376,18.062 -20.699,15.099C-20.271,13.223 -18.99,11.672 -17.71,10.235C-16.377,8.738 -14.904,7.216 -12.979,6.654C-11.055,6.092 -8.587,6.895 -8.014,8.817" style="fill:rgb(255,212,23);fill-rule:nonzero;stroke:rgb(19,191,160);stroke-width:1.21px;"/>
                            </g>
                            <g transform="matrix(1,0,0,1,1710.6938,279.8516)">
                                <path d="M0,23.747C-0.835,19.026 1.208,16.883 4.129,13.083C7.05,9.283 11.611,6.79 16.386,6.382C19.744,6.096 23.626,7.148 25.093,10.183C26.425,12.94 25.192,16.405 22.945,18.489C20.699,20.572 17.665,21.556 14.697,22.316C11.396,23.162 8.044,23.808 4.666,24.25C3.035,24.463 1.307,24.615 -0.191,23.937C-1.723,23.245 -2.767,21.791 -3.554,20.306C-5.78,16.101 -6.486,11.066 -5.256,6.472C-4.469,3.535 -2.651,0.595 0.253,-0.301C2.092,-0.868 4.075,-0.534 5.96,-0.144C7.923,0.262 9.978,0.776 11.427,2.162C12.876,3.548 13.414,6.087 12.037,7.544" style="fill:rgb(255,212,23);fill-rule:nonzero;stroke:rgb(19,191,160);stroke-width:1.21px;"/>
                            </g>
                            <g transform="matrix(1,0,0,1,1707.8809,313.5338)">
                                <path d="M0,-4.17C3.67,-7.253 6.549,-6.555 11.301,-5.926C16.051,-5.296 20.491,-2.593 23.231,1.339C25.158,4.104 26.188,7.992 24.293,10.779C22.571,13.312 18.954,13.976 16.025,13.073C13.1,12.169 10.73,10.033 8.588,7.842C6.205,5.407 3.97,2.827 1.898,0.123C0.898,-1.183 -0.098,-2.604 -0.26,-4.241C-0.426,-5.913 0.311,-7.544 1.203,-8.968C3.731,-12.998 7.739,-16.127 12.334,-17.359C15.27,-18.146 18.725,-18.042 20.953,-15.974C22.363,-14.666 23.066,-12.781 23.67,-10.953C24.301,-9.05 24.883,-7.014 24.406,-5.066C23.932,-3.118 22.002,-1.383 20.051,-1.847" style="fill:rgb(255,212,23);fill-rule:nonzero;stroke:rgb(19,191,160);stroke-width:1.21px;"/>
                            </g>
                            <g transform="matrix(1,0,0,1,1687.5684,345.891)">
                                <path d="M0,-44.91C3.759,-36.646 3.345,-26.607 -1.08,-18.68C-5.506,-10.753 -20.41,-13.528 -22.939,-4.773C-23.406,-3.159 -20.409,-2.345 -18.783,-1.918C-11.467,0 -4.025,-6.264 0.956,-11.955C5.938,-17.646 8.625,-25.292 0,-44.91" style="fill:rgb(23,147,255);fill-rule:nonzero;"/>
                            </g>
                            <g transform="matrix(1,0,0,1,1694.6338,314.5308)">
                                <path d="M0,-24.479C-3.185,-15.978 -10.577,-9.171 -19.311,-6.695C-28.046,-4.219 -36.622,-16.721 -44.602,-12.319C-46.073,-11.507 -44.529,-8.812 -43.681,-7.361C-39.864,-0.832 -30.172,0 -22.626,-0.5C-15.079,-1.001 -7.772,-4.508 0,-24.479" style="fill:rgb(23,147,255);fill-rule:nonzero;"/>
                            </g>
                            <g transform="matrix(1,0,0,1,1707.3599,272.5374)">
                                <path d="M0,14.781C-8.264,18.54 -18.303,18.126 -26.23,13.701C-34.157,9.275 -31.382,-5.629 -40.137,-8.158C-41.751,-8.625 -42.565,-5.628 -42.992,-4.002C-44.91,3.314 -38.646,10.756 -32.955,15.737C-27.264,20.719 -19.618,23.406 0,14.781" style="fill:rgb(23,147,255);fill-rule:nonzero;"/>
                            </g>
                            <g transform="matrix(1,0,0,1,1718.2891,248.3118)">
                                <path d="M0,46.073C-8.501,42.888 -15.308,35.496 -17.784,26.762C-20.26,18.027 -7.758,9.451 -12.16,1.471C-12.972,0 -15.667,1.544 -17.118,2.392C-23.647,6.209 -24.479,15.901 -23.979,23.447C-23.478,30.994 -19.971,38.301 0,46.073" style="fill:rgb(23,147,255);fill-rule:nonzero;"/>
                            </g>
                            <g transform="matrix(1,0,0,1,1721.0215,262.2008)">
                                <path d="M0,44.91C-3.759,36.646 -3.345,26.607 1.08,18.68C5.506,10.753 20.41,13.528 22.939,4.773C23.406,3.159 20.409,2.345 18.783,1.918C11.467,0 4.025,6.264 -0.956,11.955C-5.938,17.646 -8.625,25.292 0,44.91" style="fill:rgb(23,147,255);fill-rule:nonzero;"/>
                            </g>
                            <g transform="matrix(1,0,0,1,1713.9551,293.561)">
                                <path d="M0,24.479C3.185,15.978 10.577,9.171 19.311,6.695C28.046,4.219 36.622,16.721 44.602,12.319C46.073,11.507 44.529,8.812 43.681,7.361C39.864,0.832 30.172,0 22.626,0.5C15.079,1.001 7.772,4.508 0,24.479" style="fill:rgb(23,147,255);fill-rule:nonzero;"/>
                            </g>
                            <g transform="matrix(1,0,0,1,1701.229,335.5535)">
                                <path d="M0,-14.781C8.264,-18.54 18.303,-18.126 26.23,-13.701C34.157,-9.275 31.382,5.629 40.137,8.158C41.751,8.625 42.565,5.628 42.992,4.002C44.91,-3.314 38.646,-10.756 32.955,-15.737C27.264,-20.719 19.618,-23.406 0,-14.781" style="fill:rgb(23,147,255);fill-rule:nonzero;"/>
                            </g>
                            <g transform="matrix(1,0,0,1,1690.2998,359.7795)">
                                <path d="M0,-46.073C8.501,-42.888 15.308,-35.496 17.784,-26.762C20.26,-18.027 7.758,-9.451 12.16,-1.471C12.972,0 15.667,-1.544 17.118,-2.392C23.647,-6.209 24.479,-15.901 23.979,-23.447C23.478,-30.994 19.971,-38.301 0,-46.073" style="fill:rgb(23,147,255);fill-rule:nonzero;"/>
                            </g>
                            <g transform="matrix(1,0,0,1,1700.3408,324.1056)">
                                <path d="M0,-17.776C2.007,-15.017 1.368,-13.008 0.686,-9.665C0.003,-6.322 -2.137,-3.304 -5.065,-1.553C-7.125,-0.322 -9.937,0.217 -11.822,-1.267C-13.535,-2.616 -13.827,-5.218 -13.04,-7.252C-12.253,-9.286 -10.618,-10.862 -8.957,-12.275C-7.109,-13.846 -5.166,-15.305 -3.143,-16.642C-2.166,-17.287 -1.107,-17.924 0.063,-17.958C1.259,-17.993 2.381,-17.388 3.348,-16.684C6.083,-14.689 8.107,-11.687 8.754,-8.363C9.166,-6.239 8.921,-3.791 7.343,-2.311C6.343,-1.374 4.97,-0.969 3.642,-0.63C2.259,-0.277 0.784,0.034 -0.575,-0.4C-1.935,-0.835 -3.071,-2.291 -2.646,-3.653" style="fill:rgb(212,255,23);fill-rule:nonzero;stroke:rgb(19,191,160);stroke-width:0.86px;"/>
                            </g>
                            <g transform="matrix(1,0,0,1,1700.3398,310.1167)">
                                <path d="M0,-8.353C-1.386,-5.235 -3.445,-4.784 -6.682,-3.704C-9.918,-2.624 -13.602,-2.967 -16.583,-4.628C-18.678,-5.796 -20.551,-7.961 -20.208,-10.336C-19.896,-12.495 -17.79,-14.048 -15.634,-14.384C-13.479,-14.719 -11.297,-14.091 -9.243,-13.359C-6.958,-12.544 -4.723,-11.591 -2.553,-10.507C-1.506,-9.984 -0.426,-9.386 0.189,-8.388C0.817,-7.371 0.854,-6.097 0.728,-4.908C0.368,-1.541 -1.22,1.713 -3.775,3.934C-5.408,5.354 -7.651,6.366 -9.722,5.739C-11.033,5.341 -12.07,4.355 -13.028,3.374C-14.025,2.352 -15.032,1.231 -15.336,-0.163C-15.639,-1.557 -14.946,-3.27 -13.553,-3.582" style="fill:rgb(212,255,23);fill-rule:nonzero;stroke:rgb(19,191,160);stroke-width:0.86px;"/>
                            </g>
                            <g transform="matrix(1,0,0,1,1704.2939,284.1542)">
                                <path d="M0,15.325C-3.393,15.684 -4.812,14.126 -7.367,11.863C-9.92,9.601 -11.465,6.238 -11.517,2.827C-11.553,0.428 -10.613,-2.276 -8.386,-3.168C-6.361,-3.977 -3.962,-2.929 -2.594,-1.23C-1.226,0.469 -0.678,2.673 -0.285,4.817C0.151,7.203 0.443,9.616 0.59,12.036C0.66,13.205 0.682,14.44 0.127,15.471C-0.441,16.524 -1.525,17.193 -2.619,17.678C-5.715,19.049 -9.326,19.302 -12.528,18.2C-14.574,17.495 -16.572,16.058 -17.064,13.951C-17.375,12.617 -17.039,11.226 -16.669,9.906C-16.283,8.532 -15.816,7.099 -14.76,6.139C-13.704,5.179 -11.875,4.923 -10.907,5.973" style="fill:rgb(212,255,23);fill-rule:nonzero;stroke:rgb(19,191,160);stroke-width:0.86px;"/>
                            </g>
                            <g transform="matrix(1,0,0,1,1708.249,283.9862)">
                                <path d="M0,17.776C-2.007,15.017 -1.368,13.008 -0.686,9.665C-0.003,6.322 2.137,3.304 5.065,1.553C7.125,0.322 9.937,-0.217 11.822,1.267C13.535,2.616 13.827,5.218 13.04,7.252C12.253,9.286 10.618,10.862 8.957,12.275C7.109,13.846 5.166,15.305 3.143,16.642C2.166,17.287 1.107,17.924 -0.063,17.958C-1.259,17.993 -2.381,17.388 -3.348,16.684C-6.083,14.689 -8.107,11.687 -8.754,8.363C-9.166,6.239 -8.921,3.791 -7.343,2.311C-6.343,1.374 -4.97,0.969 -3.642,0.63C-2.259,0.277 -0.784,-0.034 0.575,0.4C1.935,0.835 3.071,2.291 2.646,3.653" style="fill:rgb(212,255,23);fill-rule:nonzero;stroke:rgb(19,191,160);stroke-width:0.86px;"/>
                            </g>
                            <g transform="matrix(1,0,0,1,1708.2495,297.9761)">
                                <path d="M0,8.353C1.386,5.235 3.445,4.784 6.682,3.704C9.918,2.624 13.602,2.967 16.583,4.628C18.678,5.796 20.551,7.961 20.208,10.336C19.896,12.495 17.79,14.048 15.634,14.384C13.479,14.719 11.297,14.091 9.243,13.359C6.958,12.544 4.723,11.591 2.553,10.507C1.506,9.984 0.426,9.386 -0.189,8.388C-0.817,7.371 -0.854,6.097 -0.728,4.908C-0.368,1.541 1.22,-1.713 3.775,-3.934C5.408,-5.354 7.651,-6.366 9.722,-5.739C11.033,-5.341 12.07,-4.355 13.028,-3.374C14.025,-2.352 15.032,-1.231 15.336,0.163C15.639,1.557 14.946,3.27 13.553,3.582" style="fill:rgb(212,255,23);fill-rule:nonzero;stroke:rgb(19,191,160);stroke-width:0.86px;"/>
                            </g>
                            <g transform="matrix(1,0,0,1,1704.2949,323.9375)">
                                <path d="M0,-15.325C3.393,-15.684 4.812,-14.126 7.367,-11.863C9.92,-9.601 11.465,-6.238 11.517,-2.827C11.553,-0.428 10.613,2.276 8.386,3.168C6.361,3.977 3.962,2.929 2.594,1.23C1.226,-0.469 0.678,-2.673 0.285,-4.817C-0.151,-7.203 -0.443,-9.616 -0.59,-12.036C-0.66,-13.205 -0.682,-14.44 -0.127,-15.471C0.441,-16.524 1.525,-17.193 2.619,-17.678C5.715,-19.049 9.326,-19.302 12.528,-18.2C14.574,-17.495 16.572,-16.058 17.064,-13.951C17.375,-12.617 17.039,-11.226 16.669,-9.906C16.283,-8.532 15.816,-7.099 14.76,-6.139C13.704,-5.179 11.875,-4.923 10.907,-5.973" style="fill:rgb(212,255,23);fill-rule:nonzero;stroke:rgb(19,191,160);stroke-width:0.86px;"/>
                            </g>
                        </g>
</g>
</g>
</svg>
