<svg xmlns="http://www.w3.org/2000/svg" viewBox="4871.0626029712275 6234.629646868249 1360.0007183283824 503.4184815776425">
<defs>
<linearGradient xmlns="http://www.w3.org/2000/svg" id="_Linear85" x1="0" y1="0" x2="1" y2="0" gradientUnits="userSpaceOnUse" gradientTransform="matrix(1,0,0,-1,0,-0.241185)"><stop offset="0" style="stop-color:rgb(145,232,90);stop-opacity:1"/><stop offset="1" style="stop-color:rgb(252,111,205);stop-opacity:1"/></linearGradient>
<linearGradient xmlns="http://www.w3.org/2000/svg" id="_Linear86" x1="0" y1="0" x2="1" y2="0" gradientUnits="userSpaceOnUse" gradientTransform="matrix(1,0,0,-1,0,-0.250032)"><stop offset="0" style="stop-color:rgb(145,232,90);stop-opacity:1"/><stop offset="1" style="stop-color:rgb(252,111,205);stop-opacity:1"/></linearGradient>
<linearGradient xmlns="http://www.w3.org/2000/svg" id="_Linear87" x1="0" y1="0" x2="1" y2="0" gradientUnits="userSpaceOnUse" gradientTransform="matrix(1,0,0,-1,0,-0.241184)"><stop offset="0" style="stop-color:rgb(145,232,90);stop-opacity:1"/><stop offset="1" style="stop-color:rgb(252,111,205);stop-opacity:1"/></linearGradient>
<linearGradient xmlns="http://www.w3.org/2000/svg" id="_Linear88" x1="0" y1="0" x2="1" y2="0" gradientUnits="userSpaceOnUse" gradientTransform="matrix(1,0,0,-1,0,-0.241148)"><stop offset="0" style="stop-color:rgb(145,232,90);stop-opacity:1"/><stop offset="1" style="stop-color:rgb(252,111,205);stop-opacity:1"/></linearGradient>
<linearGradient xmlns="http://www.w3.org/2000/svg" id="_Linear89" x1="0" y1="0" x2="1" y2="0" gradientUnits="userSpaceOnUse" gradientTransform="matrix(1,0,0,-1,0,-0.241182)"><stop offset="0" style="stop-color:rgb(145,232,90);stop-opacity:1"/><stop offset="1" style="stop-color:rgb(252,111,205);stop-opacity:1"/></linearGradient>
<linearGradient xmlns="http://www.w3.org/2000/svg" id="_Linear90" x1="0" y1="0" x2="1" y2="0" gradientUnits="userSpaceOnUse" gradientTransform="matrix(1,0,0,-1,0,-0.240388)"><stop offset="0" style="stop-color:rgb(145,232,90);stop-opacity:1"/><stop offset="1" style="stop-color:rgb(252,111,205);stop-opacity:1"/></linearGradient>
<linearGradient xmlns="http://www.w3.org/2000/svg" id="_Linear91" x1="0" y1="0" x2="1" y2="0" gradientUnits="userSpaceOnUse" gradientTransform="matrix(1,0,0,-1,0,-0.241183)"><stop offset="0" style="stop-color:rgb(145,232,90);stop-opacity:1"/><stop offset="1" style="stop-color:rgb(252,111,205);stop-opacity:1"/></linearGradient>
<linearGradient xmlns="http://www.w3.org/2000/svg" id="_Linear92" x1="0" y1="0" x2="1" y2="0" gradientUnits="userSpaceOnUse" gradientTransform="matrix(1,0,0,-1,0,-0.24115)"><stop offset="0" style="stop-color:rgb(145,232,90);stop-opacity:1"/><stop offset="1" style="stop-color:rgb(252,111,205);stop-opacity:1"/></linearGradient>
</defs>
<g transform="matrix(4.166667,0,0,4.166667,0,0)">
<g transform="matrix(1,0,0,1,-11.56697,1.462939)">
<g xmlns="http://www.w3.org/2000/svg">
                        <g transform="matrix(0.983379,-0.181567,-0.181567,-0.983379,1201.779503,1626.293836)">
                            <path d="M-5.227,23.675C71.267,72.356 175.959,72.355 252.452,23.675" style="fill:none;fill-rule:nonzero;stroke:rgb(66,143,113);stroke-width:3.29px;"/>
                        </g>
                        <g transform="matrix(1,0,0,1,1453.7051,1607.6917)">
                            <path d="M0,-22.095C-0.843,-18.271 0.471,-14.044 3.333,-11.371C4.292,-10.476 5.405,-9.747 6.287,-8.776C7.169,-7.804 7.813,-6.485 7.546,-5.2C7.314,-4.087 6.361,-3.161 5.243,-2.961C4.124,-2.761 2.909,-3.3 2.307,-4.263C1.888,-4.931 1.527,-5.911 0.741,-5.849C0.055,-5.794 -0.241,-4.907 -0.105,-4.232C0.031,-3.556 0.421,-2.932 0.432,-2.243C0.451,-0.979 -0.977,0 -2.213,-0.266C-3.449,-0.532 -4.323,-1.771 -4.418,-3.032C-4.514,-4.292 -3.949,-5.532 -3.141,-6.504C-2.36,-7.441 -1.327,-8.22 -0.888,-9.358C-0.173,-11.208 -1.268,-13.203 -1.746,-15.128C-2.561,-18.401 -1.424,-22.08 0,-22.095" style="fill:rgb(54,97,255);fill-rule:nonzero;"/>
                        </g>
                        <g transform="matrix(1,0,0,1,1430.1758,1598.6346)">
                            <path d="M0,-16.91C-3.3,-14.802 -5.36,-10.885 -5.226,-6.971C-5.181,-5.659 -4.909,-4.357 -4.973,-3.046C-5.036,-1.735 -5.513,-0.348 -6.61,0.372C-7.561,0.996 -8.89,0.977 -9.822,0.327C-10.755,-0.322 -11.233,-1.562 -10.979,-2.67C-10.802,-3.438 -10.363,-4.387 -10.964,-4.898C-11.488,-5.346 -12.325,-4.926 -12.706,-4.353C-13.087,-3.779 -13.252,-3.062 -13.732,-2.568C-14.613,-1.66 -16.314,-1.976 -17,-3.039C-17.687,-4.101 -17.429,-5.596 -16.604,-6.555C-15.78,-7.514 -14.505,-7.99 -13.245,-8.106C-12.031,-8.217 -10.75,-8.037 -9.634,-8.531C-7.82,-9.334 -7.184,-11.519 -6.161,-13.219C-4.423,-16.108 -1.017,-17.906 0,-16.91" style="fill:rgb(54,97,255);fill-rule:nonzero;"/>
                        </g>
                        <g transform="matrix(1,0,0,1,1416.2754,1565.6486)">
                            <path d="M0,-3.299C-3.824,-4.142 -8.051,-2.828 -10.724,0.034C-11.619,0.993 -12.348,2.106 -13.319,2.988C-14.291,3.87 -15.61,4.514 -16.895,4.247C-18.008,4.015 -18.934,3.062 -19.134,1.944C-19.334,0.825 -18.795,-0.39 -17.832,-0.992C-17.164,-1.411 -16.184,-1.772 -16.246,-2.558C-16.301,-3.244 -17.188,-3.54 -17.863,-3.404C-18.539,-3.268 -19.163,-2.878 -19.852,-2.867C-21.116,-2.848 -22.095,-4.276 -21.829,-5.512C-21.563,-6.748 -20.324,-7.622 -19.063,-7.717C-17.803,-7.813 -16.563,-7.248 -15.591,-6.44C-14.654,-5.659 -13.875,-4.626 -12.737,-4.187C-10.887,-3.472 -8.892,-4.567 -6.967,-5.045C-3.694,-5.86 -0.015,-4.723 0,-3.299" style="fill:rgb(54,97,255);fill-rule:nonzero;"/>
                        </g>
                        <g transform="matrix(1,0,0,1,1420.1475,1521.1323)">
                            <path d="M0,17.687C-2.108,14.387 -6.025,12.327 -9.939,12.461C-11.251,12.506 -12.553,12.778 -13.864,12.714C-15.175,12.651 -16.562,12.174 -17.282,11.077C-17.906,10.126 -17.887,8.797 -17.237,7.865C-16.588,6.932 -15.348,6.454 -14.24,6.708C-13.472,6.885 -12.523,7.324 -12.012,6.723C-11.564,6.199 -11.984,5.362 -12.557,4.981C-13.131,4.6 -13.848,4.435 -14.342,3.955C-15.25,3.074 -14.934,1.373 -13.871,0.687C-12.809,0 -11.314,0.258 -10.355,1.083C-9.396,1.907 -8.92,3.182 -8.804,4.442C-8.693,5.656 -8.873,6.937 -8.379,8.053C-7.576,9.867 -5.391,10.503 -3.691,11.526C-0.802,13.264 0.996,16.67 0,17.687" style="fill:rgb(54,97,255);fill-rule:nonzero;"/>
                        </g>
                        <g transform="matrix(1,0,0,1,1439.5234,1502.8239)">
                            <path d="M0,22.095C0.843,18.271 -0.471,14.044 -3.333,11.371C-4.292,10.476 -5.405,9.747 -6.287,8.776C-7.169,7.804 -7.813,6.485 -7.546,5.2C-7.314,4.087 -6.361,3.161 -5.243,2.961C-4.124,2.761 -2.909,3.3 -2.307,4.263C-1.888,4.931 -1.527,5.911 -0.741,5.849C-0.055,5.794 0.241,4.907 0.105,4.232C-0.031,3.556 -0.421,2.932 -0.432,2.243C-0.451,0.979 0.977,0 2.213,0.266C3.449,0.532 4.323,1.771 4.418,3.032C4.514,4.292 3.949,5.532 3.141,6.504C2.36,7.441 1.327,8.22 0.888,9.358C0.173,11.208 1.268,13.203 1.746,15.128C2.561,18.401 1.424,22.08 0,22.095" style="fill:rgb(54,97,255);fill-rule:nonzero;"/>
                        </g>
                        <g transform="matrix(1,0,0,1,1463.0527,1511.881)">
                            <path d="M0,16.91C3.3,14.802 5.36,10.885 5.226,6.971C5.181,5.659 4.909,4.357 4.973,3.046C5.036,1.735 5.513,0.348 6.61,-0.372C7.561,-0.996 8.89,-0.977 9.822,-0.327C10.755,0.322 11.233,1.562 10.979,2.67C10.802,3.438 10.363,4.387 10.964,4.898C11.488,5.346 12.325,4.926 12.706,4.353C13.087,3.779 13.252,3.062 13.732,2.568C14.613,1.66 16.314,1.976 17,3.039C17.687,4.101 17.429,5.596 16.604,6.555C15.78,7.514 14.505,7.99 13.245,8.106C12.031,8.217 10.75,8.037 9.634,8.531C7.82,9.334 7.184,11.519 6.161,13.219C4.423,16.108 1.017,17.906 0,16.91" style="fill:rgb(54,97,255);fill-rule:nonzero;"/>
                        </g>
                        <g transform="matrix(1,0,0,1,1476.9541,1544.868)">
                            <path d="M0,3.299C3.824,4.142 8.051,2.828 10.724,-0.034C11.619,-0.993 12.348,-2.106 13.319,-2.988C14.291,-3.87 15.61,-4.514 16.895,-4.247C18.008,-4.015 18.934,-3.062 19.134,-1.944C19.334,-0.825 18.795,0.39 17.832,0.992C17.164,1.411 16.184,1.772 16.246,2.558C16.301,3.244 17.188,3.54 17.863,3.404C18.539,3.268 19.163,2.878 19.852,2.867C21.116,2.848 22.095,4.276 21.829,5.512C21.563,6.748 20.324,7.622 19.063,7.717C17.803,7.813 16.563,7.248 15.591,6.44C14.654,5.659 13.875,4.626 12.737,4.187C10.887,3.472 8.892,4.567 6.967,5.045C3.694,5.86 0.015,4.723 0,3.299" style="fill:rgb(54,97,255);fill-rule:nonzero;"/>
                        </g>
                        <g transform="matrix(1,0,0,1,1473.082,1589.3843)">
                            <path d="M0,-17.687C2.108,-14.387 6.025,-12.327 9.939,-12.461C11.251,-12.506 12.553,-12.778 13.864,-12.714C15.175,-12.651 16.562,-12.174 17.282,-11.077C17.906,-10.126 17.887,-8.797 17.237,-7.865C16.588,-6.932 15.348,-6.454 14.24,-6.708C13.472,-6.885 12.523,-7.324 12.012,-6.723C11.564,-6.199 11.984,-5.362 12.557,-4.981C13.131,-4.6 13.848,-4.435 14.342,-3.955C15.25,-3.074 14.934,-1.373 13.871,-0.687C12.809,0 11.314,-0.258 10.355,-1.083C9.396,-1.907 8.92,-3.182 8.804,-4.442C8.693,-5.656 8.873,-6.937 8.379,-8.053C7.576,-9.867 5.391,-10.503 3.691,-11.526C0.802,-13.264 -0.996,-16.67 0,-17.687" style="fill:rgb(54,97,255);fill-rule:nonzero;"/>
                        </g>
                        <g transform="matrix(-11.23103,46.512985,46.512985,11.23103,1470.992635,1508.754651)">
                            <path d="M0.206,-0.324C0.279,-0.286 0.349,-0.223 0.43,-0.234C0.48,-0.24 0.521,-0.274 0.567,-0.297C0.614,-0.32 0.669,-0.33 0.719,-0.314C0.769,-0.298 0.81,-0.251 0.809,-0.199C0.807,-0.146 0.754,-0.098 0.703,-0.111C0.676,-0.119 0.655,-0.14 0.629,-0.152C0.603,-0.164 0.564,-0.161 0.555,-0.134C0.545,-0.103 0.581,-0.079 0.604,-0.056C0.637,-0.022 0.647,0.032 0.628,0.075C0.609,0.118 0.562,0.148 0.515,0.146C0.461,0.144 0.414,0.106 0.384,0.061C0.353,0.016 0.335,-0.036 0.308,-0.083C0.228,-0.225 0.071,-0.318 -0.091,-0.322C-0.077,-0.379 0.082,-0.389 0.206,-0.324Z" style="fill:url(#_Linear85);fill-rule:nonzero;"/>
                        </g>
                        <g transform="matrix(-40.831184,24.948109,24.948109,40.831184,1496.956128,1539.97459)">
                            <path d="M0.206,-0.333C0.279,-0.295 0.349,-0.232 0.43,-0.243C0.48,-0.249 0.521,-0.283 0.567,-0.305C0.614,-0.329 0.669,-0.339 0.719,-0.323C0.769,-0.307 0.81,-0.26 0.809,-0.207C0.807,-0.155 0.754,-0.107 0.703,-0.12C0.676,-0.127 0.654,-0.149 0.629,-0.161C0.603,-0.173 0.564,-0.17 0.555,-0.143C0.545,-0.112 0.581,-0.088 0.604,-0.064C0.637,-0.031 0.647,0.023 0.628,0.066C0.609,0.109 0.562,0.139 0.515,0.137C0.461,0.136 0.414,0.097 0.384,0.052C0.353,0.007 0.335,-0.045 0.308,-0.092C0.228,-0.233 0.071,-0.327 -0.091,-0.331C-0.089,-0.341 -0.081,-0.35 -0.069,-0.358C-0.018,-0.389 0.106,-0.385 0.206,-0.333Z" style="fill:url(#_Linear86);fill-rule:nonzero;"/>
                        </g>
                        <g transform="matrix(-46.512985,-11.23103,-11.23103,46.512985,1493.117426,1579.637139)">
                            <path d="M0.719,-0.314C0.769,-0.298 0.81,-0.251 0.809,-0.199C0.807,-0.146 0.754,-0.098 0.703,-0.111C0.676,-0.119 0.655,-0.14 0.629,-0.152C0.603,-0.164 0.564,-0.161 0.555,-0.134C0.545,-0.103 0.581,-0.079 0.604,-0.056C0.637,-0.022 0.647,0.032 0.628,0.075C0.609,0.118 0.562,0.148 0.515,0.146C0.461,0.144 0.414,0.106 0.384,0.061C0.353,0.016 0.335,-0.036 0.308,-0.083C0.228,-0.225 0.071,-0.318 -0.091,-0.322C-0.077,-0.379 0.082,-0.389 0.206,-0.324C0.279,-0.286 0.349,-0.223 0.43,-0.234C0.48,-0.24 0.521,-0.274 0.567,-0.297C0.61,-0.318 0.661,-0.329 0.708,-0.317C0.711,-0.316 0.715,-0.315 0.719,-0.314Z" style="fill:url(#_Linear87);fill-rule:nonzero;"/>
                        </g>
                        <g transform="matrix(-24.948109,-40.831184,-40.831184,24.948109,1462.260246,1605.37803)">
                            <path d="M0.809,-0.199C0.807,-0.146 0.754,-0.098 0.703,-0.111C0.676,-0.119 0.654,-0.14 0.629,-0.152C0.603,-0.164 0.564,-0.161 0.555,-0.134C0.545,-0.103 0.581,-0.079 0.604,-0.056C0.637,-0.022 0.647,0.032 0.628,0.075C0.609,0.118 0.562,0.148 0.515,0.146C0.461,0.144 0.414,0.106 0.384,0.061C0.353,0.016 0.335,-0.036 0.308,-0.083C0.228,-0.224 0.071,-0.318 -0.091,-0.322C-0.077,-0.379 0.082,-0.389 0.206,-0.324C0.279,-0.286 0.348,-0.223 0.43,-0.234C0.48,-0.24 0.521,-0.274 0.567,-0.297C0.614,-0.32 0.669,-0.33 0.719,-0.314C0.749,-0.304 0.776,-0.283 0.792,-0.257C0.803,-0.239 0.809,-0.219 0.809,-0.199Z" style="fill:url(#_Linear88);fill-rule:nonzero;"/>
                        </g>
                        <g transform="matrix(11.23103,-46.512985,-46.512985,-11.23103,1422.236023,1601.761008)">
                            <path d="M0.703,-0.111C0.676,-0.119 0.655,-0.14 0.629,-0.152C0.603,-0.164 0.564,-0.161 0.555,-0.134C0.545,-0.103 0.581,-0.079 0.604,-0.056C0.637,-0.022 0.647,0.032 0.628,0.075C0.609,0.118 0.562,0.148 0.515,0.146C0.461,0.144 0.414,0.106 0.384,0.061C0.353,0.016 0.335,-0.036 0.308,-0.083C0.228,-0.225 0.071,-0.318 -0.091,-0.322C-0.077,-0.379 0.082,-0.389 0.206,-0.324C0.279,-0.286 0.349,-0.223 0.43,-0.234C0.48,-0.24 0.521,-0.274 0.567,-0.297C0.614,-0.32 0.669,-0.33 0.719,-0.314C0.769,-0.298 0.81,-0.251 0.809,-0.199C0.809,-0.193 0.808,-0.187 0.806,-0.181C0.796,-0.136 0.748,-0.1 0.703,-0.111Z" style="fill:url(#_Linear89);fill-rule:nonzero;"/>
                        </g>
                        <g transform="matrix(40.831184,-24.948109,-24.948109,-40.831184,1396.512981,1570.9348)">
                            <path d="M0.515,0.147C0.461,0.145 0.414,0.106 0.384,0.062C0.353,0.017 0.335,-0.035 0.308,-0.083C0.228,-0.224 0.071,-0.318 -0.091,-0.321C-0.077,-0.378 0.082,-0.388 0.206,-0.323C0.279,-0.286 0.349,-0.222 0.43,-0.233C0.48,-0.239 0.521,-0.273 0.567,-0.296C0.614,-0.319 0.669,-0.33 0.719,-0.313C0.769,-0.297 0.81,-0.25 0.809,-0.198C0.807,-0.146 0.754,-0.098 0.703,-0.111C0.676,-0.118 0.654,-0.139 0.629,-0.152C0.603,-0.164 0.564,-0.16 0.555,-0.133C0.545,-0.102 0.581,-0.078 0.604,-0.055C0.637,-0.021 0.647,0.033 0.628,0.076C0.618,0.098 0.601,0.117 0.581,0.129C0.561,0.141 0.538,0.148 0.515,0.147Z" style="fill:url(#_Linear90);fill-rule:nonzero;"/>
                        </g>
                        <g transform="matrix(46.512985,11.23103,11.23103,-46.512985,1400.112059,1530.879495)">
                            <path d="M0.384,0.061C0.353,0.016 0.335,-0.036 0.308,-0.083C0.228,-0.225 0.071,-0.318 -0.091,-0.322C-0.077,-0.379 0.082,-0.389 0.206,-0.324C0.279,-0.286 0.349,-0.223 0.43,-0.234C0.48,-0.24 0.521,-0.274 0.567,-0.297C0.614,-0.32 0.669,-0.33 0.719,-0.314C0.769,-0.298 0.81,-0.251 0.809,-0.199C0.807,-0.146 0.754,-0.098 0.703,-0.111C0.676,-0.119 0.654,-0.14 0.629,-0.152C0.603,-0.164 0.564,-0.161 0.555,-0.134C0.545,-0.103 0.581,-0.079 0.604,-0.056C0.637,-0.022 0.647,0.032 0.628,0.075C0.609,0.118 0.562,0.148 0.515,0.146C0.507,0.146 0.499,0.145 0.491,0.143C0.447,0.132 0.409,0.099 0.384,0.061Z" style="fill:url(#_Linear91);fill-rule:nonzero;"/>
                        </g>
                        <g transform="matrix(24.948109,40.831184,40.831184,-24.948109,1430.969348,1505.138509)">
                            <path d="M0.206,-0.324C0.279,-0.286 0.348,-0.223 0.43,-0.234C0.48,-0.24 0.521,-0.274 0.567,-0.297C0.614,-0.32 0.669,-0.33 0.719,-0.314C0.769,-0.298 0.81,-0.251 0.809,-0.199C0.807,-0.146 0.754,-0.098 0.703,-0.111C0.676,-0.119 0.654,-0.14 0.629,-0.152C0.603,-0.164 0.564,-0.161 0.555,-0.134C0.545,-0.103 0.581,-0.079 0.604,-0.056C0.637,-0.022 0.647,0.032 0.628,0.075C0.609,0.118 0.562,0.148 0.515,0.146C0.461,0.144 0.414,0.106 0.384,0.061C0.353,0.016 0.335,-0.036 0.308,-0.083C0.228,-0.224 0.071,-0.318 -0.091,-0.322C-0.077,-0.379 0.082,-0.389 0.206,-0.324Z" style="fill:url(#_Linear92);fill-rule:nonzero;"/>
                        </g>
                        <g transform="matrix(0.416114,-0.909312,-0.909312,-0.416114,1458.547406,1544.949858)">
                            <path d="M-14.338,-9.207C-23.047,-9.207 -30.107,-2.147 -30.107,6.562C-30.108,15.27 -23.047,22.33 -14.338,22.33C-5.63,22.331 1.43,15.27 1.43,6.561C1.43,-2.147 -5.63,-9.207 -14.338,-9.207" style="fill:rgb(255,0,0);fill-rule:nonzero;"/>
                        </g>
                        <g transform="matrix(-0.416211,0.909268,0.909268,0.416211,1452.39866,1544.868473)">
                            <path d="M2.046,-3.188C0.803,-3.188 -0.205,-2.181 -0.205,-0.937C-0.205,0.306 0.803,1.314 2.046,1.315C3.289,1.314 4.298,0.307 4.298,-0.937C4.298,-2.18 3.29,-3.188 2.046,-3.188" style="fill:rgb(117,42,84);fill-rule:nonzero;"/>
                        </g>
                        <g transform="matrix(-0.937239,0.348688,0.348688,0.937239,1457.278585,1553.539242)">
                            <path d="M0.786,-4.36C-0.457,-4.361 -1.465,-3.352 -1.465,-2.108C-1.466,-0.866 -0.457,0.143 0.786,0.143C2.029,0.143 3.038,-0.865 3.038,-2.107C3.037,-3.352 2.03,-4.359 0.786,-4.36" style="fill:rgb(117,42,84);fill-rule:nonzero;"/>
                        </g>
                        <g transform="matrix(-0.909268,-0.416211,-0.416211,0.909268,1453.82894,1560.810327)">
                            <path d="M-0.937,-4.297C-2.181,-4.298 -3.189,-3.29 -3.188,-2.047C-3.189,-0.803 -2.181,0.205 -0.937,0.205C0.306,0.205 1.315,-0.803 1.314,-2.046C1.315,-3.29 0.307,-4.298 -0.937,-4.297" style="fill:rgb(117,42,84);fill-rule:nonzero;"/>
                        </g>
                        <g transform="matrix(-0.348688,-0.937239,-0.937239,0.348688,1448.563915,1562.747758)">
                            <path d="M-2.108,-3.036C-3.352,-3.038 -4.359,-2.029 -4.359,-0.785C-4.36,0.458 -3.351,1.466 -2.108,1.467C-0.865,1.466 0.144,0.458 0.143,-0.784C0.142,-2.029 -0.865,-3.035 -2.108,-3.036" style="fill:rgb(117,42,84);fill-rule:nonzero;"/>
                        </g>
                        <g transform="matrix(0.416211,-0.909268,-0.909268,-0.416211,1444.23736,1562.705473)">
                            <path d="M-2.047,-1.314C-3.29,-1.314 -4.298,-0.307 -4.298,0.937C-4.298,2.18 -3.29,3.188 -2.047,3.189C-0.804,3.188 0.205,2.181 0.205,0.937C0.205,-0.306 -0.803,-1.314 -2.047,-1.314" style="fill:rgb(117,42,84);fill-rule:nonzero;"/>
                        </g>
                        <g transform="matrix(0.937239,-0.348688,-0.348688,-0.937239,1438.893085,1560.381842)">
                            <path d="M-0.785,-0.142C-2.028,-0.143 -3.036,0.866 -3.036,2.11C-3.037,3.352 -2.028,4.361 -0.785,4.361C0.458,4.361 1.467,3.353 1.467,2.111C1.466,0.866 0.459,-0.141 -0.785,-0.142" style="fill:rgb(117,42,84);fill-rule:nonzero;"/>
                        </g>
                        <g transform="matrix(0.909268,0.416211,0.416211,-0.909268,1435.99304,1552.647927)">
                            <path d="M0.937,-0.204C-0.307,-0.205 -1.315,0.803 -1.314,2.046C-1.315,3.29 -0.307,4.298 0.937,4.298C2.18,4.298 3.189,3.29 3.188,2.047C3.189,0.803 2.181,-0.205 0.937,-0.204" style="fill:rgb(117,42,84);fill-rule:nonzero;"/>
                        </g>
                        <g transform="matrix(0.348688,0.937239,0.937239,-0.348688,1441.722415,1544.363358)">
                            <path d="M2.11,-1.465C0.866,-1.467 -0.141,-0.458 -0.141,0.786C-0.142,2.029 0.867,3.037 2.11,3.038C3.353,3.037 4.362,2.029 4.361,0.787C4.36,-0.458 3.353,-1.464 2.11,-1.465" style="fill:rgb(117,42,84);fill-rule:nonzero;"/>
                        </g>
                    </g>
</g>
</g>
</svg>
