<svg xmlns="http://www.w3.org/2000/svg" viewBox="6716.192389321182 5949.864806115813 767.647442863874 1074.9158093599253">
<defs>
<radialGradient xmlns="http://www.w3.org/2000/svg" id="_Radial142" cx="0" cy="0" r="1" gradientUnits="userSpaceOnUse" gradientTransform="matrix(1,-0,0,-1,0,0.20157)"><stop offset="0" style="stop-color:rgb(185,42,241);stop-opacity:1"/><stop offset="1" style="stop-color:rgb(121,217,252);stop-opacity:1"/></radialGradient>
<radialGradient xmlns="http://www.w3.org/2000/svg" id="_Radial143" cx="0" cy="0" r="1" gradientUnits="userSpaceOnUse" gradientTransform="matrix(1,0,0,-1,0,0.118376)"><stop offset="0" style="stop-color:rgb(188,35,240);stop-opacity:1"/><stop offset="1" style="stop-color:rgb(121,216,252);stop-opacity:1"/></radialGradient>
<radialGradient xmlns="http://www.w3.org/2000/svg" id="_Radial144" cx="0" cy="0" r="1" gradientUnits="userSpaceOnUse" gradientTransform="matrix(1,0,0,-1,0,0.086401)"><stop offset="0" style="stop-color:rgb(190,29,240);stop-opacity:1"/><stop offset="1" style="stop-color:rgb(121,217,252);stop-opacity:1"/></radialGradient>
<radialGradient xmlns="http://www.w3.org/2000/svg" id="_Radial145" cx="0" cy="0" r="1" gradientUnits="userSpaceOnUse" gradientTransform="matrix(1,-0,-0,-1,0,0.010009)"><stop offset="0" style="stop-color:rgb(206,107,255);stop-opacity:1"/><stop offset="1" style="stop-color:rgb(212,17,85);stop-opacity:1"/></radialGradient>
<radialGradient xmlns="http://www.w3.org/2000/svg" id="_Radial146" cx="0" cy="0" r="1" gradientUnits="userSpaceOnUse" gradientTransform="matrix(1,-0,-0,-1,0,0.000114)"><stop offset="0" style="stop-color:rgb(206,107,255);stop-opacity:1"/><stop offset="1" style="stop-color:rgb(212,17,85);stop-opacity:1"/></radialGradient>
</defs>
<g transform="matrix(4.166667,0,0,4.166667,0,0)">
<g transform="matrix(1,0,0,1,-11.56697,1.462939)">
<g xmlns="http://www.w3.org/2000/svg">
                        <g transform="matrix(1,0,0,1,1718.1173,1429.3845)">
                            <path d="M0,153.859C-23.479,131.679 -33.625,96.353 -25.495,65.094C-17.364,33.836 8.708,7.93 40.018,0" style="fill:none;fill-rule:nonzero;stroke:rgb(30,143,107);stroke-width:5.49px;"/>
                        </g>
                        <g transform="matrix(1,0,0,1,1695.7865,1497.2587)">
                            <path d="M0,-12.897C-7.979,-16.567 -17.352,-12.752 -23.482,-6.462C-23.482,-6.462 -21.571,-3.452 -21.651,-0.601C-21.731,2.251 -23.14,5.148 -25.616,6.565C-27.85,7.843 -30.588,7.796 -33.148,7.525C-35.753,7.25 -38.338,6.782 -40.874,6.127C-41.589,5.942 -41.679,4.934 -41.689,4.473C-41.873,-3.55 -33.557,-15.155 -30.038,-14.173C-28.827,-13.835 -28.111,-12.784 -27.628,-11.623C-26.392,-8.653 1.102,-20.74 -0.006,-15.755" style="fill:rgb(30,143,107);fill-rule:nonzero;"/>
                        </g>
                        <g transform="matrix(1,0,0,1,1702.9493,1498.1234)">
                            <path d="M0,-28.025C1.933,-19.457 10.658,-14.331 19.378,-13.284C19.378,-13.284 20.607,-16.63 22.921,-18.299C25.235,-19.968 28.391,-20.609 31.021,-19.504C33.394,-18.506 35.02,-16.302 36.361,-14.105C37.725,-11.869 38.924,-9.531 39.944,-7.118C40.231,-6.438 39.485,-5.755 39.126,-5.466C32.865,-0.446 18.595,0 17.237,-3.391C16.77,-4.558 17.17,-5.766 17.798,-6.855C19.405,-9.641 -6.899,-24.135 -2.267,-26.284" style="fill:rgb(30,143,107);fill-rule:nonzero;"/>
                        </g>
                        <g transform="matrix(-34.517841,13.015113,17.082714,31.012878,1683.391725,1571.351496)">
                            <path d="M0.642,-0.958C0.743,-0.916 0.782,-0.791 0.801,-0.68C0.902,-0.112 0.74,0.647 0.459,1.16C-0.038,1.185 -0.478,0.882 -0.891,0.601C-0.659,-0.031 -0.204,-0.574 0.366,-0.901C0.393,-0.916 0.421,-0.931 0.45,-0.943C0.513,-0.97 0.58,-0.983 0.642,-0.958Z" style="fill:url(#_Radial142);fill-rule:nonzero;"/>
                        </g>
                        <g transform="matrix(1,0,0,1,1724.4149,1582.5864)">
                            <path d="M0,-4.195C-18.824,-20.78 -43.789,-31.706 -69.046,-34.415C-72.823,-34.82 -77.081,-34.902 -79.541,-32.585C-82.302,-29.983 -81.522,-25.605 -80.303,-21.901C-74.075,-2.982 -55.509,18.454 -37.038,30.707C-19.466,25.015 -9.442,9.903 0,-4.195Z" style="fill:none;fill-rule:nonzero;stroke:black;stroke-width:0.18px;"/>
                        </g>
                        <g transform="matrix(-32.825546,12.515346,6.872457,34.451698,1720.036441,1564.709951)">
                            <path d="M-0.461,-1.015C0.142,-0.738 0.646,-0.215 0.933,0.433C0.539,0.786 0.12,1.166 -0.383,1.203C-0.71,0.689 -0.937,-0.103 -0.882,-0.724C-0.872,-0.845 -0.843,-0.984 -0.744,-1.041C-0.735,-1.047 -0.725,-1.051 -0.715,-1.055C-0.634,-1.084 -0.541,-1.052 -0.461,-1.015Z" style="fill:url(#_Radial143);fill-rule:nonzero;"/>
                        </g>
                        <g transform="matrix(1,0,0,1,1692.3893,1533.9665)">
                            <path d="M0,57.318C4.98,31.425 17.926,7.084 35.805,-10.003C38.479,-12.559 41.709,-15.101 44.928,-14.434C48.544,-13.685 50.452,-9.277 51.636,-5.225C57.686,15.474 55.684,45.6 48.494,67.375C31.713,72.419 15.342,64.579 0,57.318Z" style="fill:none;fill-rule:nonzero;stroke:black;stroke-width:0.18px;"/>
                        </g>
                        <g transform="matrix(-28.467947,10.847675,11.330361,28.279303,1723.952316,1631.807942)">
                            <path d="M0.814,-1.042C0.857,-0.314 0.663,0.623 0.295,1.201C0.223,1.314 0.125,1.432 0.004,1.423C-0.104,1.414 -0.185,1.308 -0.248,1.206C-0.669,0.526 -0.872,-0.332 -0.809,-1.166C-0.261,-1.252 0.325,-1.345 0.814,-1.042Z" style="fill:url(#_Radial144);fill-rule:nonzero;"/>
                        </g>
                        <g transform="matrix(1,0,0,1,1733.7601,1673.6557)">
                            <path d="M0,-83.609C11.243,-60.692 15.187,-34.229 10.906,-10.42C10.266,-6.859 9.172,-2.978 6.199,-1.575C2.859,0 -1.264,-2.261 -4.598,-4.679C-21.629,-17.029 -37.75,-41.434 -44.799,-62.494C-34.313,-76.369 -16.574,-80.072 0,-83.609Z" style="fill:none;fill-rule:nonzero;stroke:black;stroke-width:0.18px;"/>
                        </g>
                        <g transform="matrix(1,0,0,1,1708.8716,1601.6346)">
                            <path d="M0,-18.345C1.656,-14.95 3.313,-11.555 4.969,-8.161C5.709,-6.643 6.47,-5.023 6.3,-3.343C6.13,-1.662 4.621,0 2.963,-0.325C1.405,-0.63 0.636,-2.356 0.114,-3.855C-2.002,-9.938 -6.237,-18.119 0,-18.345" style="fill:rgb(207,255,15);fill-rule:nonzero;"/>
                        </g>
                        <g transform="matrix(1,0,0,1,1720.365,1560.9094)">
                            <path d="M0,7.105C-1.016,-1.22 -13.832,-7.497 -22.942,-13.025C-23.744,-13.512 -24.785,-13.835 -25.624,-13.414C-26.45,-13 -26.738,-11.986 -26.942,-11.084C-28.636,-3.591 -35.331,5.862 -37.025,13.356C-37.555,15.703 -32.736,16.864 -30.554,17.877C-28.438,18.86 -24.761,20.179 -22.437,20.378C-19.501,20.63 -18.93,20.938 -15.984,20.939C-13.769,20.94 -10.177,19.068 -9.015,17.184C-6.168,12.568 0.63,12.271 0,7.105" style="fill:rgb(155,100,237);fill-rule:nonzero;"/>
                        </g>
                        <g transform="matrix(1,0,0,1,1724.5383,1565.6258)">
                            <path d="M0,26.768C1.827,23.198 1.893,20.056 1.189,16.268C0.403,12.037 0.078,9.891 -2.687,6.593C-5.452,3.294 -8.43,-3.168 -11.354,-0.01C-15.217,4.161 -10.99,5.623 -18.751,13.174C-19.545,13.948 -18.917,17.057 -16.601,17.054C-14.286,17.05 -10.436,9.688 -5.49,14.534C-1.191,18.744 -7.037,23.276 -8.431,25.106C-9.323,26.98 -5.906,27.616 -4.185,28.776C-2.465,29.936 0.086,29.634 0,26.768" style="fill:rgb(15,31,255);fill-rule:nonzero;"/>
                        </g>
                        <g transform="matrix(1,0,0,1,1700.7134,1576.1844)">
                            <path d="M0,25.538C-3.766,24.157 -5.947,21.895 -8.002,18.637C-10.298,14.996 -11.516,13.201 -11.726,8.902C-11.936,4.603 -14.138,-2.163 -9.847,-1.83C-4.179,-1.39 -6.289,2.552 4.536,2.827C5.644,2.855 7.294,5.565 5.591,7.134C3.889,8.704 -3.936,5.913 -4.277,12.829C-4.574,18.838 2.795,18.196 5.061,18.593C6.988,19.364 4.912,22.151 4.436,24.17C3.961,26.19 1.883,27.701 0,25.538" style="fill:rgb(15,31,255);fill-rule:nonzero;"/>
                        </g>
                        <g transform="matrix(-37.685642,14.755751,14.755751,37.685642,1751.267222,1591.401845)">
                            <path d="M-0.274,-0.992C-0.125,-1.021 0.048,-1.044 0.163,-0.944C0.27,-0.852 0.347,-0.693 0.369,-0.553C0.392,-0.413 0.416,-0.301 0.556,-0.28C0.602,-0.273 0.643,-0.293 0.685,-0.315C0.715,-0.33 0.745,-0.345 0.778,-0.35C0.857,-0.363 0.951,-0.253 0.973,-0.215C0.768,-0.085 0.563,0.025 0.611,0.212C0.636,0.312 0.761,0.489 0.786,0.589C0.829,0.76 0.753,0.857 0.603,0.95C0.454,1.043 0.264,1.054 0.092,1.017C-0.08,0.981 -0.24,0.902 -0.398,0.823C-0.551,0.746 -0.707,0.667 -0.823,0.541C-0.939,0.416 -1.008,0.233 -0.954,0.07C-0.902,-0.086 -0.793,-0.149 -0.747,-0.307C-0.703,-0.456 -0.717,-0.675 -0.637,-0.808C-0.598,-0.873 -0.535,-0.914 -0.464,-0.942C-0.404,-0.965 -0.337,-0.98 -0.274,-0.992Z" style="fill:url(#_Radial145);fill-rule:nonzero;"/>
                        </g>
                        <g transform="matrix(-37.685642,14.755751,14.755751,37.685642,1679.728914,1619.842673)">
                            <path d="M0.274,-1.002C0.412,-0.975 0.565,-0.938 0.637,-0.818C0.717,-0.685 0.703,-0.466 0.747,-0.317C0.793,-0.159 0.902,-0.095 0.954,0.06C1.008,0.223 0.939,0.406 0.823,0.531C0.707,0.657 0.551,0.737 0.398,0.813C0.24,0.892 0.08,0.971 -0.092,1.008C-0.264,1.044 -0.454,1.033 -0.603,0.94C-0.753,0.847 -0.829,0.75 -0.786,0.579C-0.761,0.479 -0.636,0.302 -0.611,0.202C-0.563,0.015 -0.768,-0.094 -0.973,-0.225C-0.951,-0.263 -0.857,-0.373 -0.778,-0.36C-0.699,-0.347 -0.635,-0.278 -0.556,-0.29C-0.416,-0.311 -0.392,-0.423 -0.369,-0.563C-0.347,-0.703 -0.27,-0.862 -0.163,-0.954C-0.139,-0.975 -0.112,-0.99 -0.084,-1.002C0.023,-1.044 0.156,-1.025 0.274,-1.002Z" style="fill:url(#_Radial146);fill-rule:nonzero;"/>
                        </g>
                        <g transform="matrix(1,0,0,1,1712.6,1574.1317)">
                            <path d="M0,11.228C0.243,12.693 -2.619,10.364 -4.098,10.237C-5.578,10.11 -5.183,9.35 -5.884,10.658C-6.302,11.436 -7.368,12.865 -7.444,13.47C-7.52,14.075 -7.969,14.726 -8.577,14.673C-9.26,14.615 -9.546,13.784 -9.656,13.107C-10.595,7.323 -12.542,-1.697 -10.042,-2.67C-7.917,-3.498 -0.683,7.106 0,11.228" style="fill:rgb(166,255,0);fill-rule:nonzero;"/>
                        </g>
                        <g transform="matrix(1,0,0,1,1710.616,1601.2892)">
                            <path d="M0,-9.385C1.633,-9.282 3.036,-8.127 3.948,-6.769C4.796,-5.508 5.327,-3.956 5.041,-2.463C4.756,-0.971 3.495,0.382 1.977,0.44C0.52,0.496 -0.78,-0.616 -1.394,-1.938C-2.009,-3.261 -2.078,-4.762 -2.123,-6.22C-2.151,-7.112 -2.156,-8.069 -1.661,-8.812C-1.165,-9.555 0.034,-9.881 0,-9.385" style="fill:rgb(213,29,108);fill-rule:nonzero;"/>
                        </g>
                    </g>
</g>
</g>
</svg>
