<svg xmlns="http://www.w3.org/2000/svg" viewBox="1376.3832067314809 2138.250334520013 846.2477552473154 1012.9206372303115">
<g transform="matrix(4.166667,0,0,4.166667,0,0)">
<g transform="matrix(1,0,0,1,-11.56697,1.462939)">
<g xmlns="http://www.w3.org/2000/svg">
                        <g transform="matrix(0,1,1,0,409.7101,537.2131)">
                            <path d="M8.87,-8.87C3.971,-8.87 -0.001,-4.899 -0.001,0.001C-0.001,4.898 3.971,8.87 8.87,8.87C13.768,8.87 17.739,4.898 17.739,0.001C17.739,-4.899 13.768,-8.87 8.87,-8.87" style="fill:rgb(32,56,46);fill-rule:nonzero;"/>
                        </g>
                        <g transform="matrix(0.748908,-0.662674,-0.662674,-0.748908,531.957695,699.849218)">
                            <path d="M-71.596,3.658C-76.047,17.19 -80.531,30.882 -81.636,45.084C-82.738,59.286 -80.141,74.271 -71.596,85.669C-56.154,106.267 -26.393,109.936 -7.083,126.961C9.924,141.957 16.804,167.438 9.655,188.955" style="fill:none;fill-rule:nonzero;stroke:rgb(51,181,129);stroke-width:4.25px;"/>
                        </g>
                        <g transform="matrix(1,0,0,1,411.1807,576.8121)">
                            <path d="M0,-31.544C5.385,-28.271 10.947,-24.829 14.417,-19.568C17.886,-14.307 18.611,-6.67 14.353,-2.024C11.397,-3.065 9.101,-5.787 8.572,-8.875C9.284,-5.179 6.479,-1.179 2.762,-0.59C-0.956,0 -4.861,-2.936 -5.327,-6.671L0,-31.544Z" style="fill:rgb(255,51,221);fill-rule:nonzero;stroke:rgb(51,181,129);stroke-width:2.2px;"/>
                        </g>
                        <g transform="matrix(1,0,0,1,411.3257,577.5689)">
                            <path d="M0,-31.022C1.493,-24.899 2.992,-18.532 1.726,-12.36C0.458,-6.186 -4.429,-0.273 -10.725,0C-12.079,-2.825 -11.778,-6.374 -9.968,-8.93C-12.078,-5.814 -16.89,-4.969 -19.936,-7.18C-22.981,-9.392 -23.667,-14.23 -21.355,-17.201L0,-31.022Z" style="fill:rgb(255,51,221);fill-rule:nonzero;stroke:rgb(51,181,129);stroke-width:2.2px;"/>
                        </g>
                        <g transform="matrix(1,0,0,1,410.5244,560.8367)">
                            <path d="M0,-13.284C-3.273,-7.899 -6.715,-2.337 -11.976,1.133C-17.237,4.602 -24.874,5.327 -29.52,1.069C-28.479,-1.887 -25.757,-4.183 -22.669,-4.712C-26.365,-4 -30.365,-6.805 -30.954,-10.522C-31.544,-14.24 -28.608,-18.145 -24.873,-18.611L0,-13.284Z" style="fill:rgb(255,51,221);fill-rule:nonzero;stroke:rgb(51,181,129);stroke-width:2.2px;"/>
                        </g>
                        <g transform="matrix(1,0,0,1,409.2471,527.0232)">
                            <path d="M0,20.675C-6.123,22.168 -12.49,23.667 -18.662,22.401C-24.836,21.133 -30.749,16.246 -31.022,9.95C-28.197,8.596 -24.648,8.897 -22.092,10.707C-25.208,8.597 -26.053,3.785 -23.842,0.739C-21.63,-2.306 -16.792,-2.992 -13.821,-0.68L0,20.675Z" style="fill:rgb(255,51,221);fill-rule:nonzero;stroke:rgb(51,181,129);stroke-width:2.2px;"/>
                        </g>
                        <g transform="matrix(1,0,0,1,408.2402,515.353)">
                            <path d="M0,31.544C-5.385,28.271 -10.947,24.829 -14.417,19.568C-17.886,14.307 -18.611,6.67 -14.353,2.024C-11.397,3.065 -9.101,5.787 -8.572,8.875C-9.284,5.179 -6.479,1.179 -2.762,0.59C0.956,0 4.861,2.936 5.327,6.671L0,31.544Z" style="fill:rgb(255,51,221);fill-rule:nonzero;stroke:rgb(51,181,129);stroke-width:2.2px;"/>
                        </g>
                        <g transform="matrix(1,0,0,1,408.0947,514.5971)">
                            <path d="M0,31.022C-1.493,24.899 -2.992,18.532 -1.726,12.36C-0.458,6.186 4.429,0.273 10.725,0C12.079,2.825 11.778,6.374 9.968,8.93C12.078,5.814 16.89,4.969 19.936,7.18C22.981,9.392 23.667,14.23 21.355,17.201L0,31.022Z" style="fill:rgb(255,51,221);fill-rule:nonzero;stroke:rgb(51,181,129);stroke-width:2.2px;"/>
                        </g>
                        <g transform="matrix(1,0,0,1,408.896,531.3283)">
                            <path d="M0,13.284C3.273,7.899 6.715,2.337 11.976,-1.133C17.237,-4.602 24.874,-5.327 29.52,-1.069C28.479,1.887 25.757,4.183 22.669,4.712C26.365,4 30.365,6.805 30.954,10.522C31.544,14.24 28.608,18.145 24.873,18.611L0,13.284Z" style="fill:rgb(255,51,221);fill-rule:nonzero;stroke:rgb(51,181,129);stroke-width:2.2px;"/>
                        </g>
                        <g transform="matrix(1,0,0,1,410.1738,565.1423)">
                            <path d="M0,-20.675C6.123,-22.168 12.49,-23.667 18.662,-22.401C24.836,-21.133 30.749,-16.246 31.022,-9.95C28.197,-8.596 24.648,-8.897 22.092,-10.707C25.208,-8.597 26.053,-3.785 23.842,-0.739C21.63,2.306 16.792,2.992 13.821,0.68L0,-20.675Z" style="fill:rgb(255,51,221);fill-rule:nonzero;stroke:rgb(51,181,129);stroke-width:2.2px;"/>
                        </g>
                        <g transform="matrix(1,0,0,1,409.5361,573.1344)">
                            <path d="M0,-26.297C3.168,-17.854 2.811,-8.742 -1.276,-0.73C-1.341,-0.486 -1.406,-0.243 -1.471,0C-3.785,-8.599 -3.228,-17.568 -0.461,-25.961C-0.506,-26.001 -0.552,-26.041 -0.597,-26.081C-0.607,-25.934 -0.617,-25.787 -0.626,-25.641C-0.834,-25.397 -1.043,-25.153 0,-26.297" style="fill:rgb(153,255,51);fill-rule:nonzero;"/>
                        </g>
                        <g transform="matrix(1,0,0,1,409.0527,563.7791)">
                            <path d="M0,-17.285C-3.73,-9.074 -10.425,-2.885 -18.981,-0.109C-19.199,0.018 -19.417,0.144 -19.635,0.27C-15.191,-7.447 -8.455,-13.395 -0.563,-17.373C-0.567,-17.433 -0.571,-17.494 -0.575,-17.555C-0.686,-17.457 -0.796,-17.361 -0.907,-17.264C-1.226,-17.238 -1.546,-17.214 0,-17.285" style="fill:rgb(153,255,51);fill-rule:nonzero;"/>
                        </g>
                        <g transform="matrix(1,0,0,1,408.9551,545.2912)">
                            <path d="M0,0.617C-8.443,3.785 -17.555,3.428 -25.567,-0.659C-25.811,-0.724 -26.054,-0.789 -26.297,-0.854C-17.698,-3.168 -8.729,-2.611 -0.336,0.156C-0.296,0.111 -0.256,0.065 -0.216,0.02C-0.363,0.01 -0.51,0 -0.656,-0.009C-0.9,-0.217 -1.144,-0.426 0,0.617" style="fill:rgb(153,255,51);fill-rule:nonzero;"/>
                        </g>
                        <g transform="matrix(1,0,0,1,409.2998,525.7903)">
                            <path d="M0,19.635C-8.211,15.905 -14.4,9.21 -17.176,0.654C-17.303,0.436 -17.429,0.218 -17.555,0C-9.838,4.444 -3.89,11.18 0.088,19.072C0.148,19.068 0.209,19.064 0.27,19.06C0.172,18.949 0.076,18.839 -0.021,18.728C-0.047,18.409 -0.071,18.089 0,19.635" style="fill:rgb(153,255,51);fill-rule:nonzero;"/>
                        </g>
                        <g transform="matrix(1,0,0,1,409.8848,519.0306)">
                            <path d="M0,26.297C-3.168,17.854 -2.811,8.742 1.276,0.73C1.341,0.486 1.406,0.243 1.471,0C3.785,8.599 3.228,17.568 0.461,25.961C0.506,26.001 0.552,26.041 0.597,26.081C0.607,25.934 0.617,25.787 0.626,25.641C0.834,25.397 1.043,25.153 0,26.297" style="fill:rgb(153,255,51);fill-rule:nonzero;"/>
                        </g>
                        <g transform="matrix(1,0,0,1,410.3677,528.3869)">
                            <path d="M0,17.285C3.73,9.074 10.425,2.885 18.981,0.109C19.199,-0.018 19.417,-0.144 19.635,-0.27C15.191,7.447 8.455,13.395 0.563,17.373C0.567,17.433 0.571,17.494 0.575,17.555C0.686,17.457 0.796,17.361 0.907,17.264C1.226,17.238 1.546,17.214 0,17.285" style="fill:rgb(153,255,51);fill-rule:nonzero;"/>
                        </g>
                        <g transform="matrix(1,0,0,1,410.4653,546.8738)">
                            <path d="M0,-0.617C8.443,-3.785 17.555,-3.428 25.567,0.659C25.811,0.724 26.054,0.789 26.297,0.854C17.698,3.168 8.729,2.611 0.336,-0.156C0.296,-0.111 0.256,-0.065 0.216,-0.02C0.363,-0.01 0.51,0 0.656,0.009C0.9,0.217 1.144,0.426 0,-0.617" style="fill:rgb(153,255,51);fill-rule:nonzero;"/>
                        </g>
                        <g transform="matrix(1,0,0,1,410.1211,566.3752)">
                            <path d="M0,-19.635C8.211,-15.905 14.4,-9.21 17.176,-0.654C17.303,-0.436 17.429,-0.218 17.555,0C9.838,-4.444 3.89,-11.18 -0.088,-19.072C-0.148,-19.068 -0.209,-19.064 -0.27,-19.06C-0.172,-18.949 -0.076,-18.839 0.021,-18.728C0.047,-18.409 0.071,-18.089 0,-19.635" style="fill:rgb(153,255,51);fill-rule:nonzero;"/>
                        </g>
                        <g transform="matrix(0,1,1,0,409.7105,544.0926)">
                            <path d="M1.99,-1.99C0.891,-1.99 0,-1.099 0,0C0,1.099 0.891,1.99 1.99,1.99C3.089,1.99 3.98,1.099 3.98,0C3.98,-1.099 3.089,-1.99 1.99,-1.99" style="fill:rgb(56,39,54);fill-rule:nonzero;"/>
                        </g>
                        <g transform="matrix(0,1,1,0,409.7105,544.0926)">
                            <circle cx="1.99" cy="0" r="1.99" style="fill:none;stroke:rgb(170,23,255);stroke-width:1.38px;"/>
                        </g>
                        <g transform="matrix(1,0,0,1,438.1358,619.3936)">
                            <path d="M0,6.705C0.614,9.093 2.931,10.745 5.34,11.269C7.75,11.793 10.256,11.393 12.677,10.926C16.442,10.201 20.429,9.171 22.977,6.307C25.526,3.443 25.65,-1.824 22.299,-3.688C19.782,-5.088 16.539,-3.992 14.317,-2.159C12.095,-0.326 10.493,2.153 8.36,4.089C6.228,6.025 3.175,7.413 0.485,6.383C0.588,5.98 0.69,5.577 0,6.705" style="fill:rgb(51,181,129);fill-rule:nonzero;"/>
                        </g>
                        <g transform="matrix(1,0,0,1,432.4044,625.1884)">
                            <path d="M0,14.63C-3.243,10.841 -5.569,11.852 -10.555,11.935C-11.813,11.956 -13.179,12.088 -14.224,11.389C-16.113,10.125 -15.613,7.201 -14.532,5.202C-13.008,2.383 -10.581,-0.137 -7.468,-0.902C-4.356,-1.667 -0.599,-0.174 0.441,2.857C1.076,4.71 0.652,6.739 0.219,8.649C-0.214,10.558 -0.645,12.584 -0.023,14.441C0.6,16.297 0.058,14.548 0,14.63" style="fill:rgb(51,181,129);fill-rule:nonzero;"/>
                        </g>
                    </g>
</g>
</g>
</svg>
