<svg xmlns="http://www.w3.org/2000/svg" viewBox="5869.480178851711 1854.9819785252132 411.7429476861007 1103.7009197094">
<g transform="matrix(4.166667,0,0,4.166667,0,0)">
<g transform="matrix(1,0,0,1,-11.56697,1.462939)">
<g xmlns="http://www.w3.org/2000/svg">
                        <g transform="matrix(1,0,0,1,1423.1221,496.1878)">
                            <path d="M0,209.553C32.403,186.703 51.606,129.647 45.846,90.418C43.565,74.878 37.915,59.98 35.685,44.432C33.455,28.884 35.249,11.589 45.851,0" style="fill:none;fill-rule:nonzero;stroke:rgb(51,181,129);stroke-width:5.09px;"/>
                        </g>
                        <g transform="matrix(1,0,0,1,1467.2373,583.5179)">
                            <path d="M0,25.235C-11.642,23.86 -20.76,11.534 -18.668,0C-14.469,8.346 -4.989,13.721 0,25.235Z" style="fill:rgb(51,181,129);fill-rule:nonzero;stroke:rgb(51,181,129);stroke-width:7.31px;"/>
                        </g>
                        <g transform="matrix(1,0,0,1,1472.4619,564.418)">
                            <path d="M0,25.235C11.642,23.86 20.76,11.534 18.668,0C14.469,8.346 4.989,13.721 0,25.235Z" style="fill:rgb(51,181,129);fill-rule:nonzero;stroke:rgb(51,181,129);stroke-width:7.31px;"/>
                        </g>
                        <g transform="matrix(0,1,1,0,1476.1506,471.3622)">
                            <path d="M15.28,-15.28C6.841,-15.28 0,-8.439 0,0C0,8.439 6.841,15.28 15.28,15.28C23.719,15.28 30.56,8.439 30.56,0C30.56,-8.439 23.719,-15.28 15.28,-15.28" style="fill:rgb(255,211,13);fill-rule:nonzero;"/>
                        </g>
                        <g transform="matrix(1,0,0,1,1470.4805,526.6715)">
                            <path d="M0,-34.38C6.124,-31.722 10.765,-25.891 11.979,-19.327C13.195,-12.762 10.95,-5.656 5.914,-1.057C5.461,-0.388 4.626,0 3.746,-1.131C-0.132,-5.446 -1.001,-11.665 -0.963,-17.466C-0.926,-23.268 -0.169,-29.163 0,-34.38" style="fill:rgb(74,110,255);fill-rule:nonzero;"/>
                        </g>
                        <g transform="matrix(1,0,0,1,1468.147,514.6819)">
                            <path d="M0,-28.053C2.451,-21.844 1.609,-14.439 -2.173,-8.939C-5.956,-3.438 -12.568,0 -19.381,-0.309C-20.174,-0.157 -21.04,-0.472 -20.862,-1.894C-20.552,-7.688 -16.77,-12.699 -12.641,-16.776C-8.512,-20.851 -3.809,-24.485 0,-28.053" style="fill:rgb(74,110,255);fill-rule:nonzero;"/>
                        </g>
                        <g transform="matrix(1,0,0,1,1470.501,493.1667)">
                            <path d="M0,-12.194C-2.658,-6.07 -8.489,-1.429 -15.053,-0.215C-21.618,1.001 -28.724,-1.244 -33.323,-6.28C-33.992,-6.733 -34.38,-7.568 -33.249,-8.448C-28.934,-12.326 -22.715,-13.195 -16.914,-13.157C-11.112,-13.12 -5.217,-12.363 0,-12.194" style="fill:rgb(74,110,255);fill-rule:nonzero;"/>
                        </g>
                        <g transform="matrix(1,0,0,1,1476.1641,460.0492)">
                            <path d="M0,18.589C-6.209,21.04 -13.614,20.198 -19.114,16.416C-24.615,12.633 -28.053,6.021 -27.744,-0.792C-27.896,-1.585 -27.581,-2.451 -26.159,-2.273C-20.365,-1.963 -15.354,1.819 -11.277,5.948C-7.202,10.077 -3.568,14.78 0,18.589" style="fill:rgb(74,110,255);fill-rule:nonzero;"/>
                        </g>
                        <g transform="matrix(1,0,0,1,1481.8203,446.6127)">
                            <path d="M0,34.38C-6.124,31.722 -10.765,25.891 -11.979,19.327C-13.195,12.762 -10.95,5.656 -5.914,1.057C-5.461,0.388 -4.626,0 -3.746,1.131C0.132,5.446 1.001,11.665 0.963,17.466C0.926,23.268 0.169,29.163 0,34.38" style="fill:rgb(74,110,255);fill-rule:nonzero;"/>
                        </g>
                        <g transform="matrix(1,0,0,1,1484.1543,458.6023)">
                            <path d="M0,28.053C-2.451,21.844 -1.609,14.439 2.173,8.939C5.956,3.438 12.568,0 19.381,0.309C20.174,0.157 21.04,0.472 20.862,1.894C20.552,7.688 16.77,12.699 12.641,16.776C8.512,20.851 3.809,24.485 0,28.053" style="fill:rgb(74,110,255);fill-rule:nonzero;"/>
                        </g>
                        <g transform="matrix(1,0,0,1,1481.8003,480.1175)">
                            <path d="M0,12.194C2.658,6.07 8.489,1.429 15.053,0.215C21.618,-1.001 28.724,1.244 33.323,6.28C33.992,6.733 34.38,7.568 33.249,8.448C28.934,12.326 22.715,13.195 16.914,13.157C11.112,13.12 5.217,12.363 0,12.194" style="fill:rgb(74,110,255);fill-rule:nonzero;"/>
                        </g>
                        <g transform="matrix(1,0,0,1,1476.1367,513.235)">
                            <path d="M0,-18.589C6.209,-21.04 13.614,-20.198 19.114,-16.416C24.615,-12.633 28.053,-6.021 27.744,0.792C27.896,1.585 27.581,2.451 26.159,2.273C20.365,1.963 15.354,-1.819 11.277,-5.948C7.202,-10.077 3.568,-14.78 0,-18.589" style="fill:rgb(74,110,255);fill-rule:nonzero;"/>
                        </g>
                    </g>
</g>
</g>
</svg>
