<svg xmlns="http://www.w3.org/2000/svg" viewBox="3217.450855649798 3130.4564042839925 680.7633302473123 745.5542674230869">
<defs>
<linearGradient xmlns="http://www.w3.org/2000/svg" id="_Linear93" x1="0" y1="0" x2="1" y2="0" gradientUnits="userSpaceOnUse" gradientTransform="matrix(1,-0,-0,-1,0,0.010674)"><stop offset="0" style="stop-color:rgb(156,202,255);stop-opacity:1"/><stop offset="1" style="stop-color:rgb(175,131,214);stop-opacity:1"/></linearGradient>
<linearGradient xmlns="http://www.w3.org/2000/svg" id="_Linear94" x1="0" y1="0" x2="1" y2="0" gradientUnits="userSpaceOnUse" gradientTransform="matrix(1,0,0,-1,0,0.010695)"><stop offset="0" style="stop-color:rgb(156,202,255);stop-opacity:1"/><stop offset="1" style="stop-color:rgb(175,131,214);stop-opacity:1"/></linearGradient>
<linearGradient xmlns="http://www.w3.org/2000/svg" id="_Linear95" x1="0" y1="0" x2="1" y2="0" gradientUnits="userSpaceOnUse" gradientTransform="matrix(1,0,0,-1,0,0.025919)"><stop offset="0" style="stop-color:rgb(156,202,255);stop-opacity:1"/><stop offset="1" style="stop-color:rgb(175,131,214);stop-opacity:1"/></linearGradient>
<linearGradient xmlns="http://www.w3.org/2000/svg" id="_Linear96" x1="0" y1="0" x2="1" y2="0" gradientUnits="userSpaceOnUse" gradientTransform="matrix(1,-0,-0,-1,0,0.010634)"><stop offset="0" style="stop-color:rgb(156,202,255);stop-opacity:1"/><stop offset="1" style="stop-color:rgb(175,131,214);stop-opacity:1"/></linearGradient>
<linearGradient xmlns="http://www.w3.org/2000/svg" id="_Linear97" x1="0" y1="0" x2="1" y2="0" gradientUnits="userSpaceOnUse" gradientTransform="matrix(1,0,0,-1,0,0.010618)"><stop offset="0" style="stop-color:rgb(156,202,255);stop-opacity:1"/><stop offset="1" style="stop-color:rgb(175,131,214);stop-opacity:1"/></linearGradient>
<linearGradient xmlns="http://www.w3.org/2000/svg" id="_Linear98" x1="0" y1="0" x2="1" y2="0" gradientUnits="userSpaceOnUse" gradientTransform="matrix(1,0,0,-1,0,-0.004475)"><stop offset="0" style="stop-color:rgb(106,56,255);stop-opacity:1"/><stop offset="1" style="stop-color:rgb(191,168,19);stop-opacity:1"/></linearGradient>
<linearGradient xmlns="http://www.w3.org/2000/svg" id="_Linear99" x1="0" y1="0" x2="1" y2="0" gradientUnits="userSpaceOnUse" gradientTransform="matrix(1,0,0,-1,0,-0.004502)"><stop offset="0" style="stop-color:rgb(106,56,255);stop-opacity:1"/><stop offset="1" style="stop-color:rgb(191,168,19);stop-opacity:1"/></linearGradient>
<linearGradient xmlns="http://www.w3.org/2000/svg" id="_Linear100" x1="0" y1="0" x2="1" y2="0" gradientUnits="userSpaceOnUse" gradientTransform="matrix(1,0,0,-1,0,-0.002464)"><stop offset="0" style="stop-color:rgb(106,56,255);stop-opacity:1"/><stop offset="1" style="stop-color:rgb(191,168,19);stop-opacity:1"/></linearGradient>
<linearGradient xmlns="http://www.w3.org/2000/svg" id="_Linear101" x1="0" y1="0" x2="1" y2="0" gradientUnits="userSpaceOnUse" gradientTransform="matrix(1,0,0,-1,0,0.000006)"><stop offset="0" style="stop-color:rgb(106,56,255);stop-opacity:1"/><stop offset="1" style="stop-color:rgb(191,168,19);stop-opacity:1"/></linearGradient>
<linearGradient xmlns="http://www.w3.org/2000/svg" id="_Linear102" x1="0" y1="0" x2="1" y2="0" gradientUnits="userSpaceOnUse" gradientTransform="matrix(1,0,0,-1,0,-0.004593)"><stop offset="0" style="stop-color:rgb(106,56,255);stop-opacity:1"/><stop offset="1" style="stop-color:rgb(191,168,19);stop-opacity:1"/></linearGradient>
<linearGradient xmlns="http://www.w3.org/2000/svg" id="_Linear103" x1="0" y1="0" x2="1" y2="0" gradientUnits="userSpaceOnUse" gradientTransform="matrix(1,0,0,-1,0,0.050821)"><stop offset="0" style="stop-color:rgb(255,0,115);stop-opacity:1"/><stop offset="1" style="stop-color:rgb(182,255,133);stop-opacity:1"/></linearGradient>
<linearGradient xmlns="http://www.w3.org/2000/svg" id="_Linear104" x1="0" y1="0" x2="1" y2="0" gradientUnits="userSpaceOnUse" gradientTransform="matrix(1,0,0,-1,0,0.050824)"><stop offset="0" style="stop-color:rgb(255,0,115);stop-opacity:1"/><stop offset="1" style="stop-color:rgb(182,255,133);stop-opacity:1"/></linearGradient>
<linearGradient xmlns="http://www.w3.org/2000/svg" id="_Linear105" x1="0" y1="0" x2="1" y2="0" gradientUnits="userSpaceOnUse" gradientTransform="matrix(1,-0,-0,-1,0,0.050821)"><stop offset="0" style="stop-color:rgb(255,0,115);stop-opacity:1"/><stop offset="1" style="stop-color:rgb(182,255,133);stop-opacity:1"/></linearGradient>
<linearGradient xmlns="http://www.w3.org/2000/svg" id="_Linear106" x1="0" y1="0" x2="1" y2="0" gradientUnits="userSpaceOnUse" gradientTransform="matrix(1,0,0,-1,0,0.050812)"><stop offset="0" style="stop-color:rgb(255,0,115);stop-opacity:1"/><stop offset="1" style="stop-color:rgb(182,255,133);stop-opacity:1"/></linearGradient>
<linearGradient xmlns="http://www.w3.org/2000/svg" id="_Linear107" x1="0" y1="0" x2="1" y2="0" gradientUnits="userSpaceOnUse" gradientTransform="matrix(1,0,0,-1,0,0.050771)"><stop offset="0" style="stop-color:rgb(255,0,115);stop-opacity:1"/><stop offset="1" style="stop-color:rgb(182,255,133);stop-opacity:1"/></linearGradient>
<linearGradient xmlns="http://www.w3.org/2000/svg" id="_Linear108" x1="0" y1="0" x2="1" y2="0" gradientUnits="userSpaceOnUse" gradientTransform="matrix(1,0,0,-1,0,0.010593)"><stop offset="0" style="stop-color:rgb(73,115,102);stop-opacity:1"/><stop offset="1" style="stop-color:rgb(107,154,255);stop-opacity:1"/></linearGradient>
<linearGradient xmlns="http://www.w3.org/2000/svg" id="_Linear109" x1="0" y1="0" x2="1" y2="0" gradientUnits="userSpaceOnUse" gradientTransform="matrix(1,0,0,-1,0,0.010688)"><stop offset="0" style="stop-color:rgb(73,115,102);stop-opacity:1"/><stop offset="1" style="stop-color:rgb(107,154,255);stop-opacity:1"/></linearGradient>
<linearGradient xmlns="http://www.w3.org/2000/svg" id="_Linear110" x1="0" y1="0" x2="1" y2="0" gradientUnits="userSpaceOnUse" gradientTransform="matrix(1,0,0,-1,0,0.025965)"><stop offset="0" style="stop-color:rgb(73,115,102);stop-opacity:1"/><stop offset="1" style="stop-color:rgb(107,154,255);stop-opacity:1"/></linearGradient>
<linearGradient xmlns="http://www.w3.org/2000/svg" id="_Linear111" x1="0" y1="0" x2="1" y2="0" gradientUnits="userSpaceOnUse" gradientTransform="matrix(1,0,0,-1,0,0.010658)"><stop offset="0" style="stop-color:rgb(73,115,102);stop-opacity:1"/><stop offset="1" style="stop-color:rgb(107,154,255);stop-opacity:1"/></linearGradient>
<linearGradient xmlns="http://www.w3.org/2000/svg" id="_Linear112" x1="0" y1="0" x2="1" y2="0" gradientUnits="userSpaceOnUse" gradientTransform="matrix(1,-0,-0,-1,0,0.010764)"><stop offset="0" style="stop-color:rgb(73,115,102);stop-opacity:1"/><stop offset="1" style="stop-color:rgb(107,154,255);stop-opacity:1"/></linearGradient>
<linearGradient xmlns="http://www.w3.org/2000/svg" id="_Linear113" x1="0" y1="0" x2="1" y2="0" gradientUnits="userSpaceOnUse" gradientTransform="matrix(1,-0,-0,-1,0,-0.126494)"><stop offset="0" style="stop-color:rgb(99,247,225);stop-opacity:1"/><stop offset="1" style="stop-color:rgb(99,121,247);stop-opacity:1"/></linearGradient>
<linearGradient xmlns="http://www.w3.org/2000/svg" id="_Linear114" x1="0" y1="0" x2="1" y2="0" gradientUnits="userSpaceOnUse" gradientTransform="matrix(1,0,0,-1,0,-0.126435)"><stop offset="0" style="stop-color:rgb(99,247,225);stop-opacity:1"/><stop offset="1" style="stop-color:rgb(99,121,247);stop-opacity:1"/></linearGradient>
<linearGradient xmlns="http://www.w3.org/2000/svg" id="_Linear115" x1="0" y1="0" x2="1" y2="0" gradientUnits="userSpaceOnUse" gradientTransform="matrix(1,-0,-0,-1,0,-0.125722)"><stop offset="0" style="stop-color:rgb(99,247,225);stop-opacity:1"/><stop offset="1" style="stop-color:rgb(99,121,247);stop-opacity:1"/></linearGradient>
<linearGradient xmlns="http://www.w3.org/2000/svg" id="_Linear116" x1="0" y1="0" x2="1" y2="0" gradientUnits="userSpaceOnUse" gradientTransform="matrix(1,0,0,-1,0,-0.124779)"><stop offset="0" style="stop-color:rgb(99,247,225);stop-opacity:1"/><stop offset="1" style="stop-color:rgb(99,121,247);stop-opacity:1"/></linearGradient>
<linearGradient xmlns="http://www.w3.org/2000/svg" id="_Linear117" x1="0" y1="0" x2="1" y2="0" gradientUnits="userSpaceOnUse" gradientTransform="matrix(1,0,0,-1,0,-0.126432)"><stop offset="0" style="stop-color:rgb(99,247,225);stop-opacity:1"/><stop offset="1" style="stop-color:rgb(99,121,247);stop-opacity:1"/></linearGradient>
</defs>
<g transform="matrix(4.166667,0,0,4.166667,0,0)">
<g transform="matrix(1,0,0,1,-11.56697,1.462939)">
<g xmlns="http://www.w3.org/2000/svg">
                        <g transform="matrix(-0.875565,0.483101,0.483101,0.875565,839.699123,889.471255)">
                            <path d="M-66.731,-98.598C-71.521,-98.388 -74.703,-92.892 -74.083,-88.137C-73.464,-83.384 -70.176,-79.436 -66.731,-76.101C-58.235,-67.874 6.203,-79.389 -11.142,-27.215C-14.873,-15.993 -7.651,-6.824 -11.19,5.431" style="fill:none;fill-rule:nonzero;stroke:rgb(19,191,160);stroke-width:2.2px;"/>
                        </g>
                        <g transform="matrix(1,0,0,1,853.0474,885.1946)">
                            <path d="M0,8.112C-2.01,3.896 -4.905,-0.013 -8.851,-2.511C-12.797,-5.009 -17.886,-5.937 -22.246,-4.261C-26.605,-2.585 -29.9,1.966 -29.445,6.614C-24.1,9.799 -18.179,12.018 -12.056,13.126C-6.959,14.049 -0.75,13.746 2.119,9.434C1.158,9.462 0.631,7.958 1.399,7.38C1.714,7.907 2.029,8.433 0,8.112Z" style="fill:rgb(117,234,255);fill-rule:nonzero;stroke:black;stroke-width:0.38px;"/>
                        </g>
                        <g transform="matrix(1,0,0,1,857.0937,862.8077)">
                            <path d="M0,27.912C3.389,24.698 6.211,20.737 7.367,16.212C8.524,11.687 7.834,6.56 4.893,2.932C1.951,-0.696 -3.395,-2.424 -7.675,-0.555C-9.053,5.513 -9.332,11.83 -8.494,17.996C-7.797,23.128 -5.59,28.939 -0.603,30.336C-0.926,29.43 0.342,28.465 1.128,29.016C0.725,29.479 0.321,29.94 0,27.912Z" style="fill:rgb(117,234,255);fill-rule:nonzero;stroke:black;stroke-width:0.38px;"/>
                        </g>
                        <g transform="matrix(1,0,0,1,860.8027,881.363)">
                            <path d="M0,12.406C4.104,14.635 8.743,16.096 13.404,15.798C18.065,15.499 22.728,13.259 25.27,9.34C27.811,5.422 27.802,-0.197 24.702,-3.69C18.505,-3.125 12.411,-1.439 6.806,1.263C2.141,3.512 -2.705,7.407 -2.491,12.582C-1.73,11.994 -0.42,12.902 -0.702,13.821C-1.266,13.58 -1.83,13.339 0,12.406Z" style="fill:rgb(117,234,255);fill-rule:nonzero;stroke:black;stroke-width:0.38px;"/>
                        </g>
                        <g transform="matrix(1,0,0,1,859.0488,918.4133)">
                            <path d="M0,-20.175C-0.852,-15.582 -0.808,-10.719 0.917,-6.378C2.641,-2.037 6.213,1.705 10.725,2.911C15.237,4.117 20.577,2.373 22.941,-1.655C20.489,-7.374 17.003,-12.65 12.7,-17.146C9.12,-20.887 3.919,-24.292 -0.937,-22.489C-0.143,-21.946 -0.601,-20.421 -1.562,-20.405C-1.507,-21.016 -1.452,-21.626 0,-20.175Z" style="fill:rgb(117,234,255);fill-rule:nonzero;stroke:black;stroke-width:0.38px;"/>
                        </g>
                        <g transform="matrix(1,0,0,1,854.2559,923.6641)">
                            <path d="M0,-25.711C-4.631,-25.103 -9.242,-23.557 -12.838,-20.577C-16.434,-17.595 -18.889,-13.042 -18.642,-8.378C-18.395,-3.713 -15.085,0.826 -10.523,1.83C-5.842,-2.269 -1.902,-7.215 1.043,-12.696C3.496,-17.258 5.127,-23.257 1.912,-27.318C1.642,-26.395 0.049,-26.358 -0.264,-27.268C0.334,-27.405 0.933,-27.541 0,-25.711Z" style="fill:rgb(117,234,255);fill-rule:nonzero;stroke:black;stroke-width:0.38px;"/>
                        </g>
                        <g transform="matrix(-21.619049,-15.707158,-15.707158,21.619049,858.392678,890.251529)">
                            <path d="M0.998,0.096C0.828,0.193 0.639,0.26 0.445,0.292C0.284,0.318 0.088,0.305 -0,0.167C0.02,0.168 0.034,0.148 0.035,0.129C0.043,0.129 0.053,0.129 0.068,0.127C0.133,-0.005 0.227,-0.127 0.353,-0.204C0.479,-0.281 0.64,-0.307 0.777,-0.252C0.803,-0.241 0.829,-0.227 0.852,-0.21C0.949,-0.14 1.012,-0.022 0.998,0.096ZM0.035,0.129C0.008,0.128 0.016,0.115 0.024,0.103C0.032,0.109 0.035,0.119 0.035,0.129Z" style="fill:url(#_Linear93);fill-rule:nonzero;"/>
                        </g>
                        <g transform="matrix(1,0,0,1,854.9424,875.1858)">
                            <path d="M0,16.74C0.652,12.853 0.542,8.75 -0.977,5.113C-2.495,1.476 -5.564,-1.629 -9.389,-2.58C-13.213,-3.531 -17.693,-1.981 -19.629,1.452C-17.476,6.242 -14.457,10.64 -10.761,14.371C-7.684,17.474 -3.245,20.271 0.825,18.679C0.147,18.233 0.511,16.939 1.322,16.912C1.285,17.427 1.247,17.944 0,16.74Z" style="fill:none;fill-rule:nonzero;stroke:black;stroke-width:0.38px;"/>
                        </g>
                        <g transform="matrix(8.257741,-25.414717,-25.414717,-8.257741,861.649913,894.86008)">
                            <path d="M0.446,0.292C0.284,0.318 0.088,0.305 -0,0.167C0.02,0.168 0.034,0.148 0.035,0.129C0.043,0.129 0.053,0.129 0.068,0.127C0.133,-0.005 0.227,-0.127 0.353,-0.204C0.479,-0.281 0.64,-0.307 0.777,-0.252C0.914,-0.196 1.015,-0.051 0.998,0.096C0.828,0.193 0.639,0.26 0.446,0.292ZM0.024,0.103C0.032,0.109 0.035,0.119 0.035,0.129C0.008,0.128 0.016,0.115 0.024,0.103Z" style="fill:url(#_Linear94);fill-rule:nonzero;"/>
                        </g>
                        <g transform="matrix(1,0,0,1,858.9912,870.2612)">
                            <path d="M0,21.835C3.898,21.253 7.767,19.881 10.756,17.313C13.745,14.746 15.751,10.867 15.474,6.936C15.196,3.004 12.337,-0.778 8.474,-1.558C4.583,1.97 1.333,6.201 -1.072,10.869C-3.073,14.754 -4.361,19.839 -1.59,23.218C-1.375,22.436 -0.031,22.382 0.245,23.145C-0.257,23.269 -0.76,23.393 0,21.835Z" style="fill:none;fill-rule:nonzero;stroke:black;stroke-width:0.38px;"/>
                        </g>
                        <g transform="matrix(26.722614,0,0,-26.722614,858.271973,899.788809)">
                            <path d="M0,0.182C0.02,0.183 0.034,0.163 0.035,0.144C0.043,0.145 0.053,0.144 0.068,0.142C0.133,0.01 0.227,-0.112 0.353,-0.189C0.479,-0.265 0.64,-0.292 0.777,-0.237C0.914,-0.181 1.015,-0.036 0.998,0.111C0.828,0.208 0.639,0.275 0.446,0.307C0.403,0.314 0.359,0.318 0.315,0.318C0.189,0.318 0.065,0.284 0,0.182ZM0.024,0.118C0.032,0.124 0.035,0.134 0.035,0.144C0.008,0.144 0.016,0.131 0.024,0.118Z" style="fill:url(#_Linear95);fill-rule:nonzero;"/>
                        </g>
                        <g transform="matrix(1,0,0,1,860.0791,902.4775)">
                            <path d="M0,-6.478C1.758,-2.951 4.258,0.304 7.624,2.354C10.99,4.403 15.298,5.112 18.952,3.633C22.605,2.155 25.318,-1.733 24.866,-5.648C20.309,-8.258 15.281,-10.041 10.098,-10.887C5.785,-11.59 0.55,-11.243 -1.807,-7.562C-0.997,-7.6 -0.53,-6.339 -1.17,-5.84C-1.443,-6.28 -1.716,-6.72 0,-6.478Z" style="fill:none;fill-rule:nonzero;stroke:black;stroke-width:0.38px;"/>
                        </g>
                        <g transform="matrix(8.257742,25.414717,25.414717,-8.257742,852.929356,897.565942)">
                            <path d="M0.035,0.129C0.043,0.129 0.053,0.129 0.068,0.127C0.133,-0.006 0.227,-0.127 0.353,-0.204C0.479,-0.281 0.64,-0.307 0.777,-0.252C0.914,-0.197 1.015,-0.051 0.998,0.095C0.828,0.193 0.639,0.26 0.445,0.291C0.284,0.318 0.088,0.305 -0,0.167C0.02,0.168 0.034,0.148 0.035,0.129ZM0.024,0.103C0.032,0.109 0.035,0.119 0.035,0.129C0.023,0.129 0.018,0.126 0.017,0.122C0.015,0.117 0.019,0.11 0.024,0.103Z" style="fill:url(#_Linear96);fill-rule:nonzero;"/>
                        </g>
                        <g transform="matrix(1,0,0,1,856.7031,921.7302)">
                            <path d="M0,-23.49C-2.812,-20.728 -5.135,-17.345 -6.044,-13.51C-6.953,-9.676 -6.295,-5.359 -3.76,-2.342C-1.225,0.676 3.311,2.055 6.895,0.415C7.969,-4.725 8.111,-10.058 7.313,-15.249C6.649,-19.568 4.702,-24.439 0.473,-25.545C0.759,-24.785 -0.296,-23.952 -0.968,-24.406C-0.635,-24.802 -0.301,-25.197 0,-23.49Z" style="fill:none;fill-rule:nonzero;stroke:black;stroke-width:0.38px;"/>
                        </g>
                        <g transform="matrix(-21.619049,15.707158,15.707158,21.619049,853.003382,891.925233)">
                            <path d="M0.353,-0.204C0.479,-0.281 0.64,-0.307 0.777,-0.252C0.914,-0.197 1.015,-0.051 0.998,0.095C0.828,0.193 0.64,0.26 0.446,0.291C0.284,0.318 0.088,0.305 -0,0.167C0.02,0.168 0.034,0.148 0.035,0.129C0.043,0.129 0.053,0.129 0.068,0.127C0.126,0.009 0.206,-0.1 0.312,-0.177C0.325,-0.186 0.339,-0.195 0.353,-0.204ZM0.035,0.129C0.008,0.128 0.016,0.115 0.024,0.103C0.032,0.109 0.035,0.119 0.035,0.129Z" style="fill:url(#_Linear97);fill-rule:nonzero;"/>
                        </g>
                        <g transform="matrix(1,0,0,1,853.5283,906.6832)">
                            <path d="M0,-10.961C-3.495,-12.781 -7.431,-13.945 -11.359,-13.625C-15.287,-13.304 -19.188,-11.345 -21.275,-8.002C-23.362,-4.658 -23.272,0.082 -20.605,2.984C-15.384,2.416 -10.269,0.904 -5.578,-1.459C-1.675,-3.425 2.355,-6.783 2.1,-11.146C1.466,-10.639 0.347,-11.385 0.571,-12.164C1.052,-11.969 1.53,-11.774 0,-10.961Z" style="fill:none;fill-rule:nonzero;stroke:black;stroke-width:0.38px;"/>
                        </g>
                        <g transform="matrix(-12.668059,9.203884,9.203884,12.668059,863.063611,877.441397)">
                            <path d="M0.318,-0.614C0.531,-0.452 0.715,-0.252 0.858,-0.026C0.976,0.163 1.064,0.415 0.939,0.599C0.929,0.574 0.897,0.566 0.872,0.575C0.869,0.566 0.862,0.553 0.852,0.536C0.651,0.524 0.449,0.471 0.286,0.354C0.123,0.237 0.003,0.049 0,-0.152C-0.003,-0.307 0.074,-0.464 0.197,-0.554C0.233,-0.581 0.274,-0.601 0.318,-0.614ZM0.872,0.575C0.886,0.61 0.865,0.607 0.845,0.603C0.848,0.594 0.853,0.587 0.86,0.582C0.864,0.579 0.868,0.577 0.872,0.575Z" style="fill:url(#_Linear98);fill-rule:nonzero;"/>
                        </g>
                        <g transform="matrix(-12.668059,-9.203884,-9.203884,12.668059,875.275694,895.344018)">
                            <path d="M0.858,-0.026C0.976,0.163 1.064,0.415 0.939,0.599C0.929,0.574 0.897,0.566 0.872,0.575C0.869,0.566 0.862,0.553 0.852,0.536C0.651,0.524 0.449,0.471 0.286,0.354C0.123,0.237 0.004,0.049 0,-0.152C-0.003,-0.353 0.125,-0.557 0.318,-0.614C0.531,-0.452 0.715,-0.252 0.858,-0.026ZM0.845,0.603C0.849,0.59 0.859,0.58 0.872,0.575C0.886,0.61 0.865,0.607 0.845,0.603Z" style="fill:url(#_Linear99);fill-rule:nonzero;"/>
                        </g>
                        <g transform="matrix(4.838768,-14.892197,-14.892197,-4.838768,862.052658,912.500283)">
                            <path d="M0.939,0.601C0.929,0.576 0.897,0.568 0.872,0.577C0.869,0.568 0.862,0.555 0.852,0.538C0.651,0.526 0.449,0.473 0.286,0.356C0.122,0.239 0.003,0.051 0,-0.15C-0.003,-0.351 0.125,-0.555 0.318,-0.612C0.531,-0.45 0.715,-0.25 0.858,-0.024C0.959,0.136 1.037,0.343 0.982,0.514C0.972,0.544 0.958,0.573 0.939,0.601ZM0.845,0.605C0.849,0.592 0.859,0.582 0.872,0.577C0.877,0.588 0.878,0.595 0.876,0.6C0.873,0.61 0.859,0.608 0.845,0.605Z" style="fill:url(#_Linear100);fill-rule:nonzero;"/>
                        </g>
                        <g transform="matrix(15.658583,0,0,-15.658583,841.619874,905.25455)">
                            <path d="M0.845,0.608C0.849,0.594 0.859,0.585 0.872,0.58C0.882,0.604 0.874,0.61 0.862,0.61C0.857,0.61 0.851,0.609 0.845,0.608ZM0.872,0.58C0.868,0.57 0.862,0.557 0.852,0.54C0.651,0.528 0.449,0.476 0.286,0.359C0.123,0.241 0.004,0.053 0,-0.147C-0.003,-0.348 0.125,-0.553 0.318,-0.61C0.531,-0.448 0.715,-0.248 0.858,-0.021C0.976,0.167 1.064,0.42 0.939,0.603C0.929,0.578 0.897,0.571 0.872,0.58Z" style="fill:url(#_Linear101);fill-rule:nonzero;"/>
                        </g>
                        <g transform="matrix(4.838767,14.892197,14.892197,-4.838767,842.264491,883.522575)">
                            <path d="M-0,-0.152C-0.003,-0.353 0.125,-0.558 0.318,-0.614C0.531,-0.453 0.715,-0.252 0.858,-0.026C0.976,0.163 1.064,0.415 0.939,0.599C0.929,0.574 0.897,0.566 0.872,0.575C0.869,0.565 0.862,0.553 0.852,0.536C0.651,0.524 0.449,0.471 0.286,0.354C0.167,0.269 0.072,0.147 0.028,0.009C0.011,-0.043 0.001,-0.097 -0,-0.152ZM0.872,0.575C0.886,0.61 0.865,0.606 0.845,0.603C0.849,0.589 0.86,0.58 0.872,0.575Z" style="fill:url(#_Linear102);fill-rule:nonzero;"/>
                        </g>
                        <g transform="matrix(-0.687625,0.726066,0.726066,0.687625,839.748445,824.500491)">
                            <path d="M9.817,-9.67C6.696,-7.905 5.425,-3.895 5.851,-0.336C6.276,3.224 8.065,6.454 9.817,9.581C6.638,6.319 3.385,2.941 1.683,-1.283C-0.018,-5.509 0.196,-10.841 9.817,-9.67Z" style="fill:rgb(19,191,160);fill-rule:nonzero;stroke:rgb(19,191,160);stroke-width:2.2px;"/>
                        </g>
                        <g transform="matrix(-0.359512,-0.933141,-0.933141,0.359512,813.872628,835.191196)">
                            <path d="M-13.367,-6.697C-10.246,-4.933 -8.976,-0.923 -9.402,2.636C-9.826,6.196 -11.614,9.427 -13.367,12.554C-10.189,9.291 -6.935,5.913 -5.234,1.689C-3.532,-2.536 -3.746,-7.868 -13.367,-6.697Z" style="fill:rgb(19,191,160);fill-rule:nonzero;stroke:rgb(19,191,160);stroke-width:2.2px;"/>
                        </g>
                        <g transform="matrix(1,0,0,1,868.6143,850.1203)">
                            <path d="M0,-83.412C-3.56,-74.448 -6.118,-64.734 -4.636,-55.204C-3.154,-45.673 3.153,-36.413 12.435,-33.794C16.249,-32.718 20.463,-32.74 23.838,-30.664C28.724,-27.659 30.239,-21.359 31.088,-15.686C31.937,-10.014 32.833,-3.761 37.163,0" style="fill:none;fill-rule:nonzero;stroke:rgb(19,191,160);stroke-width:2.2px;"/>
                        </g>
                        <g transform="matrix(1,0,0,1,909.666,853.2896)">
                            <path d="M0,6.768C-1.677,3.251 -4.091,-0.01 -7.383,-2.093C-10.675,-4.176 -14.921,-4.952 -18.557,-3.553C-22.193,-2.155 -24.942,1.64 -24.563,5.519C-20.104,8.177 -15.165,10.026 -10.057,10.951C-5.806,11.72 -0.626,11.468 1.768,7.871C0.965,7.894 0.526,6.64 1.167,6.158C1.43,6.596 1.692,7.036 0,6.768Z" style="fill:rgb(239,255,176);fill-rule:nonzero;stroke:black;stroke-width:0.32px;"/>
                        </g>
                        <g transform="matrix(1,0,0,1,913.041,834.6174)">
                            <path d="M0,23.284C2.826,20.602 5.182,17.299 6.146,13.524C7.11,9.75 6.535,5.472 4.082,2.446C1.628,-0.58 -2.832,-2.022 -6.402,-0.463C-7.552,4.599 -7.784,9.869 -7.086,15.013C-6.504,19.294 -4.663,24.141 -0.503,25.306C-0.772,24.55 0.284,23.745 0.941,24.205C0.604,24.591 0.269,24.976 0,23.284Z" style="fill:rgb(239,255,176);fill-rule:nonzero;stroke:black;stroke-width:0.32px;"/>
                        </g>
                        <g transform="matrix(1,0,0,1,916.1348,850.0958)">
                            <path d="M0,10.349C3.424,12.208 7.293,13.427 11.182,13.178C15.069,12.929 18.959,11.06 21.08,7.791C23.2,4.523 23.192,-0.164 20.606,-3.078C15.437,-2.608 10.354,-1.2 5.677,1.054C1.786,2.93 -2.256,6.179 -2.078,10.495C-1.443,10.006 -0.35,10.762 -0.585,11.529C-1.056,11.328 -1.526,11.127 0,10.349Z" style="fill:rgb(239,255,176);fill-rule:nonzero;stroke:black;stroke-width:0.32px;"/>
                        </g>
                        <g transform="matrix(1,0,0,1,914.6719,881.0039)">
                            <path d="M0,-16.831C-0.71,-13 -0.674,-8.942 0.765,-5.322C2.203,-1.701 5.183,1.421 8.946,2.427C12.71,3.434 17.166,1.978 19.137,-1.382C17.093,-6.153 14.184,-10.553 10.595,-14.304C7.607,-17.425 3.27,-20.265 -0.782,-18.762C-0.12,-18.309 -0.501,-17.036 -1.303,-17.022C-1.257,-17.532 -1.211,-18.042 0,-16.831Z" style="fill:rgb(239,255,176);fill-rule:nonzero;stroke:black;stroke-width:0.32px;"/>
                        </g>
                        <g transform="matrix(1,0,0,1,910.6748,885.3826)">
                            <path d="M0,-21.448C-3.863,-20.94 -7.71,-19.652 -10.71,-17.165C-13.708,-14.678 -15.757,-10.879 -15.55,-6.989C-15.345,-3.098 -12.584,0.689 -8.778,1.526C-4.873,-1.893 -1.588,-6.019 0.87,-10.591C2.916,-14.397 4.276,-19.401 1.595,-22.788C1.368,-22.019 0.04,-21.989 -0.22,-22.747C0.278,-22.861 0.777,-22.974 0,-21.448Z" style="fill:rgb(239,255,176);fill-rule:nonzero;stroke:black;stroke-width:0.32px;"/>
                        </g>
                        <g transform="matrix(-11.39246,-18.755072,-18.755072,11.39246,912.320484,862.569951)">
                            <path d="M1.052,0.291C0.854,0.316 0.652,0.305 0.457,0.258C0.296,0.219 0.117,0.13 0.089,-0.033C0.107,-0.025 0.128,-0.038 0.137,-0.055C0.144,-0.052 0.154,-0.049 0.168,-0.045C0.282,-0.143 0.417,-0.22 0.565,-0.243C0.713,-0.265 0.875,-0.227 0.981,-0.121C1.002,-0.101 1.02,-0.077 1.035,-0.052C1.098,0.051 1.111,0.186 1.052,0.291ZM0.137,-0.055C0.111,-0.067 0.124,-0.075 0.136,-0.084C0.142,-0.075 0.141,-0.064 0.137,-0.055Z" style="fill:url(#_Linear103);fill-rule:nonzero;"/>
                        </g>
                        <g transform="matrix(1,0,0,1,911.2466,844.9432)">
                            <path d="M0,13.965C0.543,10.721 0.452,7.299 -0.815,4.266C-2.081,1.232 -4.642,-1.359 -7.832,-2.152C-11.023,-2.945 -14.76,-1.652 -16.375,1.211C-14.579,5.207 -12.06,8.876 -8.976,11.988C-6.41,14.578 -2.708,16.91 0.688,15.582C0.123,15.21 0.426,14.13 1.102,14.107C1.071,14.537 1.04,14.969 0,13.965Z" style="fill:none;fill-rule:nonzero;stroke:black;stroke-width:0.32px;"/>
                        </g>
                        <g transform="matrix(14.31667,-16.63051,-16.63051,-14.31667,911.472118,861.20251)">
                            <path d="M0.457,0.258C0.296,0.219 0.117,0.13 0.089,-0.033C0.107,-0.025 0.128,-0.038 0.137,-0.055C0.144,-0.052 0.154,-0.049 0.168,-0.045C0.282,-0.143 0.417,-0.22 0.565,-0.243C0.713,-0.265 0.875,-0.227 0.981,-0.121C1.087,-0.016 1.126,0.161 1.052,0.291C0.854,0.316 0.652,0.304 0.457,0.258ZM0.136,-0.084C0.142,-0.075 0.141,-0.065 0.137,-0.055C0.111,-0.067 0.124,-0.076 0.136,-0.084Z" style="fill:url(#_Linear104);fill-rule:nonzero;"/>
                        </g>
                        <g transform="matrix(1,0,0,1,914.624,840.8358)">
                            <path d="M0,18.213C3.252,17.728 6.479,16.584 8.972,14.442C11.466,12.299 13.139,9.065 12.906,5.785C12.676,2.505 10.291,-0.65 7.068,-1.3C3.823,1.642 1.111,5.172 -0.895,9.066C-2.565,12.307 -3.639,16.549 -1.326,19.367C-1.147,18.715 -0.027,18.67 0.204,19.306C-0.215,19.409 -0.635,19.513 0,18.213Z" style="fill:none;fill-rule:nonzero;stroke:black;stroke-width:0.32px;"/>
                        </g>
                        <g transform="matrix(20.240648,8.476852,8.476852,-20.240648,912.509627,859.972987)">
                            <path d="M0.089,-0.033C0.107,-0.025 0.128,-0.038 0.136,-0.055C0.144,-0.052 0.154,-0.049 0.168,-0.045C0.282,-0.143 0.417,-0.22 0.565,-0.243C0.713,-0.265 0.875,-0.227 0.981,-0.121C1.087,-0.016 1.126,0.161 1.052,0.291C0.854,0.316 0.652,0.304 0.457,0.258C0.415,0.248 0.372,0.234 0.33,0.217C0.213,0.168 0.11,0.088 0.089,-0.033ZM0.136,-0.084C0.142,-0.075 0.141,-0.065 0.136,-0.055C0.111,-0.067 0.124,-0.075 0.136,-0.084Z" style="fill:url(#_Linear105);fill-rule:nonzero;"/>
                        </g>
                        <g transform="matrix(1,0,0,1,915.5312,867.7087)">
                            <path d="M0,-5.404C1.467,-2.461 3.552,0.254 6.36,1.964C9.168,3.674 12.762,4.264 15.809,3.031C18.857,1.798 21.12,-1.446 20.743,-4.711C16.942,-6.888 12.747,-8.376 8.424,-9.081C4.825,-9.668 0.459,-9.378 -1.507,-6.308C-0.832,-6.34 -0.442,-5.288 -0.976,-4.871C-1.204,-5.238 -1.432,-5.605 0,-5.404Z" style="fill:none;fill-rule:nonzero;stroke:black;stroke-width:0.32px;"/>
                        </g>
                        <g transform="matrix(-1.807261,21.869492,21.869492,1.807261,913.999618,860.579881)">
                            <path d="M0.137,-0.055C0.144,-0.052 0.154,-0.049 0.168,-0.045C0.282,-0.143 0.417,-0.22 0.565,-0.243C0.713,-0.265 0.875,-0.227 0.981,-0.121C1.087,-0.016 1.125,0.161 1.052,0.291C0.854,0.316 0.652,0.304 0.457,0.258C0.296,0.219 0.117,0.13 0.089,-0.033C0.107,-0.025 0.128,-0.038 0.137,-0.055ZM0.136,-0.084C0.142,-0.075 0.141,-0.065 0.137,-0.055C0.125,-0.06 0.122,-0.065 0.122,-0.069C0.123,-0.074 0.129,-0.079 0.136,-0.084Z" style="fill:url(#_Linear106);fill-rule:nonzero;"/>
                        </g>
                        <g transform="matrix(1,0,0,1,912.7158,883.7698)">
                            <path d="M0,-19.595C-2.346,-17.291 -4.284,-14.469 -5.042,-11.271C-5.801,-8.072 -5.252,-4.471 -3.137,-1.953C-1.022,0.563 2.762,1.714 5.751,0.346C6.646,-3.942 6.766,-8.391 6.101,-12.72C5.546,-16.324 3.921,-20.387 0.395,-21.309C0.632,-20.675 -0.247,-19.98 -0.808,-20.359C-0.529,-20.689 -0.251,-21.02 0,-19.595Z" style="fill:none;fill-rule:nonzero;stroke:black;stroke-width:0.32px;"/>
                        </g>
                        <g transform="matrix(-21.357597,5.039237,5.039237,21.357597,913.882971,862.185323)">
                            <path d="M0.565,-0.243C0.713,-0.265 0.875,-0.227 0.981,-0.121C1.087,-0.016 1.126,0.161 1.052,0.291C0.854,0.316 0.652,0.304 0.457,0.258C0.296,0.219 0.117,0.13 0.089,-0.033C0.107,-0.025 0.128,-0.038 0.136,-0.055C0.144,-0.052 0.154,-0.049 0.168,-0.045C0.269,-0.132 0.387,-0.203 0.516,-0.233C0.532,-0.237 0.549,-0.24 0.565,-0.243ZM0.136,-0.055C0.111,-0.067 0.124,-0.076 0.136,-0.084C0.142,-0.075 0.141,-0.065 0.136,-0.055Z" style="fill:url(#_Linear107);fill-rule:nonzero;"/>
                        </g>
                        <g transform="matrix(1,0,0,1,910.0684,871.2157)">
                            <path d="M0,-9.142C-2.918,-10.661 -6.199,-11.632 -9.477,-11.364C-12.754,-11.097 -16.008,-9.462 -17.748,-6.674C-19.489,-3.884 -19.414,0.07 -17.189,2.49C-12.834,2.017 -8.566,0.755 -4.654,-1.215C-1.398,-2.856 1.964,-5.657 1.75,-9.296C1.222,-8.874 0.289,-9.496 0.476,-10.146C0.876,-9.983 1.275,-9.821 0,-9.142Z" style="fill:none;fill-rule:nonzero;stroke:black;stroke-width:0.32px;"/>
                        </g>
                        <g transform="matrix(-0.767139,-0.641481,-0.641481,0.767139,858.477831,815.629391)">
                            <path d="M-9.039,-10.979C-5.918,-9.216 -4.647,-5.204 -5.072,-1.645C-5.499,1.914 -7.286,5.145 -9.039,8.272C-5.861,5.009 -2.606,1.632 -0.905,-2.594C0.797,-6.818 0.582,-12.15 -9.039,-10.979Z" style="fill:rgb(19,191,160);fill-rule:nonzero;stroke:rgb(19,191,160);stroke-width:2.2px;"/>
                        </g>
                        <g transform="matrix(-0.686981,0.726675,0.726675,0.686981,923.053096,774.681437)">
                            <path d="M39.369,-48.297C43.429,-44.681 45.848,-39.287 45.848,-33.849C45.849,-28.411 43.429,-23.018 39.369,-19.401C33.2,-13.907 23.577,-12.337 19.372,-5.228C15.446,1.413 18.029,9.837 20.694,17.075" style="fill:none;fill-rule:nonzero;stroke:rgb(19,191,160);stroke-width:2.2px;"/>
                        </g>
                        <g transform="matrix(1,0,0,1,922.1782,798.7814)">
                            <path d="M0,5.037C-1.248,2.42 -3.044,-0.007 -5.495,-1.559C-7.945,-3.109 -11.104,-3.686 -13.811,-2.645C-16.517,-1.604 -18.562,1.221 -18.28,4.107C-14.961,6.086 -11.286,7.461 -7.484,8.149C-4.32,8.723 -0.466,8.534 1.315,5.857C0.718,5.875 0.392,4.941 0.869,4.582C1.064,4.909 1.26,5.236 0,5.037Z" style="fill:rgb(150,89,255);fill-rule:nonzero;stroke:black;stroke-width:0.24px;"/>
                        </g>
                        <g transform="matrix(1,0,0,1,924.6895,784.8834)">
                            <path d="M0,17.329C2.104,15.333 3.856,12.874 4.574,10.065C5.292,7.256 4.863,4.073 3.037,1.821C1.211,-0.431 -2.107,-1.504 -4.765,-0.344C-5.62,3.423 -5.794,7.345 -5.273,11.172C-4.84,14.359 -3.47,17.966 -0.374,18.833C-0.575,18.271 0.213,17.672 0.701,18.015C0.451,18.301 0.199,18.588 0,17.329Z" style="fill:rgb(150,89,255);fill-rule:nonzero;stroke:black;stroke-width:0.24px;"/>
                        </g>
                        <g transform="matrix(1,0,0,1,926.9922,796.403)">
                            <path d="M0,7.702C2.548,9.086 5.428,9.993 8.322,9.807C11.215,9.622 14.11,8.231 15.688,5.798C17.266,3.366 17.26,-0.122 15.336,-2.291C11.488,-1.941 7.706,-0.894 4.226,0.784C1.329,2.181 -1.679,4.598 -1.546,7.811C-1.074,7.446 -0.261,8.01 -0.436,8.58C-0.786,8.431 -1.136,8.281 0,7.702Z" style="fill:rgb(150,89,255);fill-rule:nonzero;stroke:black;stroke-width:0.24px;"/>
                        </g>
                        <g transform="matrix(1,0,0,1,925.9033,819.4039)">
                            <path d="M0,-12.524C-0.529,-9.673 -0.501,-6.654 0.569,-3.959C1.64,-1.264 3.857,1.059 6.659,1.807C9.46,2.556 12.775,1.473 14.243,-1.027C12.721,-4.578 10.556,-7.852 7.885,-10.644C5.662,-12.966 2.433,-15.08 -0.582,-13.961C-0.088,-13.625 -0.373,-12.677 -0.97,-12.668C-0.936,-13.046 -0.901,-13.426 0,-12.524Z" style="fill:rgb(150,89,255);fill-rule:nonzero;stroke:black;stroke-width:0.24px;"/>
                        </g>
                        <g transform="matrix(1,0,0,1,922.9277,822.6647)">
                            <path d="M0,-15.963C-2.874,-15.585 -5.737,-14.626 -7.97,-12.775C-10.201,-10.924 -11.727,-8.097 -11.572,-5.201C-11.418,-2.306 -9.365,0.513 -6.533,1.136C-3.626,-1.409 -1.182,-4.48 0.648,-7.882C2.17,-10.714 3.184,-14.439 1.187,-16.96C1.02,-16.387 0.03,-16.365 -0.163,-16.929C0.208,-17.014 0.58,-17.099 0,-15.963Z" style="fill:rgb(150,89,255);fill-rule:nonzero;stroke:black;stroke-width:0.24px;"/>
                        </g>
                        <g transform="matrix(-13.421507,-9.751296,-9.751296,13.421507,925.495267,801.922019)">
                            <path d="M0.998,0.095C0.828,0.193 0.639,0.26 0.446,0.291C0.284,0.318 0.088,0.305 0,0.167C0.02,0.168 0.034,0.148 0.035,0.129C0.043,0.129 0.053,0.128 0.068,0.126C0.133,-0.006 0.227,-0.127 0.353,-0.204C0.479,-0.281 0.64,-0.307 0.777,-0.252C0.803,-0.241 0.829,-0.227 0.852,-0.21C0.949,-0.14 1.012,-0.023 0.998,0.095ZM0.035,0.129C0.008,0.128 0.016,0.115 0.024,0.103C0.032,0.109 0.035,0.119 0.035,0.129Z" style="fill:url(#_Linear108);fill-rule:nonzero;"/>
                        </g>
                        <g transform="matrix(1,0,0,1,923.3545,792.567)">
                            <path d="M0,10.393C0.404,7.98 0.336,5.433 -0.606,3.175C-1.549,0.917 -3.455,-1.01 -5.829,-1.601C-8.204,-2.192 -10.985,-1.229 -12.186,0.902C-10.85,3.876 -8.976,6.607 -6.68,8.922C-4.771,10.85 -2.015,12.585 0.512,11.597C0.091,11.321 0.317,10.516 0.82,10.499C0.797,10.82 0.774,11.14 0,10.393Z" style="fill:none;fill-rule:nonzero;stroke:black;stroke-width:0.24px;"/>
                        </g>
                        <g transform="matrix(5.126559,-15.777928,-15.777928,-5.126559,927.517807,804.78197)">
                            <path d="M0.445,0.292C0.284,0.318 0.088,0.305 -0,0.167C0.02,0.168 0.034,0.148 0.035,0.129C0.043,0.129 0.053,0.129 0.068,0.127C0.133,-0.005 0.227,-0.127 0.353,-0.204C0.479,-0.281 0.64,-0.307 0.777,-0.252C0.914,-0.197 1.015,-0.051 0.998,0.095C0.828,0.193 0.639,0.26 0.445,0.292ZM0.024,0.103C0.032,0.109 0.035,0.119 0.035,0.129C0.008,0.128 0.016,0.116 0.024,0.103Z" style="fill:url(#_Linear109);fill-rule:nonzero;"/>
                        </g>
                        <g transform="matrix(1,0,0,1,925.8672,789.5109)">
                            <path d="M0,13.555C2.42,13.194 4.822,12.343 6.678,10.748C8.533,9.154 9.779,6.746 9.606,4.305C9.435,1.864 7.659,-0.484 5.261,-0.967C2.846,1.222 0.828,3.849 -0.665,6.748C-1.908,9.159 -2.707,12.316 -0.986,14.414C-0.854,13.929 -0.02,13.894 0.152,14.368C-0.16,14.445 -0.472,14.522 0,13.555Z" style="fill:none;fill-rule:nonzero;stroke:black;stroke-width:0.24px;"/>
                        </g>
                        <g transform="matrix(16.589895,0,0,-16.589895,925.421387,807.842379)">
                            <path d="M-0,0.182C0.02,0.183 0.034,0.163 0.035,0.144C0.043,0.145 0.053,0.144 0.068,0.142C0.133,0.01 0.227,-0.112 0.353,-0.189C0.479,-0.265 0.64,-0.292 0.777,-0.237C0.914,-0.181 1.015,-0.036 0.998,0.111C0.828,0.208 0.639,0.275 0.445,0.307C0.403,0.314 0.359,0.318 0.315,0.318C0.189,0.318 0.065,0.284 -0,0.182ZM0.024,0.118C0.032,0.124 0.035,0.134 0.035,0.144C0.008,0.144 0.016,0.131 0.024,0.118Z" style="fill:url(#_Linear110);fill-rule:nonzero;"/>
                        </g>
                        <g transform="matrix(1,0,0,1,926.5435,809.5103)">
                            <path d="M0,-4.021C1.091,-1.831 2.643,0.189 4.733,1.462C6.823,2.734 9.498,3.174 11.766,2.256C14.034,1.338 15.718,-1.075 15.437,-3.506C12.608,-5.126 9.486,-6.233 6.269,-6.758C3.591,-7.195 0.341,-6.979 -1.122,-4.694C-0.619,-4.718 -0.329,-3.935 -0.727,-3.625C-0.896,-3.898 -1.066,-4.171 0,-4.021Z" style="fill:none;fill-rule:nonzero;stroke:black;stroke-width:0.24px;"/>
                        </g>
                        <g transform="matrix(5.12656,15.777928,15.777928,-5.12656,922.10399,806.461999)">
                            <path d="M0.035,0.129C0.043,0.129 0.053,0.129 0.068,0.127C0.133,-0.005 0.227,-0.127 0.353,-0.204C0.479,-0.281 0.64,-0.307 0.777,-0.252C0.914,-0.197 1.015,-0.051 0.998,0.095C0.828,0.193 0.639,0.26 0.446,0.291C0.284,0.318 0.088,0.305 0,0.167C0.02,0.168 0.034,0.148 0.035,0.129ZM0.024,0.103C0.032,0.109 0.035,0.119 0.035,0.129C0.023,0.129 0.018,0.126 0.017,0.122C0.015,0.117 0.019,0.11 0.024,0.103Z" style="fill:url(#_Linear111);fill-rule:nonzero;"/>
                        </g>
                        <g transform="matrix(1,0,0,1,924.4473,821.4639)">
                            <path d="M0,-14.583C-1.745,-12.869 -3.188,-10.769 -3.752,-8.388C-4.316,-6.007 -3.908,-3.327 -2.335,-1.454C-0.761,0.419 2.055,1.275 4.28,0.257C4.946,-2.935 5.035,-6.245 4.54,-9.468C4.128,-12.149 2.919,-15.173 0.294,-15.858C0.471,-15.388 -0.184,-14.87 -0.601,-15.151C-0.394,-15.397 -0.187,-15.644 0,-14.583Z" style="fill:none;fill-rule:nonzero;stroke:black;stroke-width:0.24px;"/>
                        </g>
                        <g transform="matrix(-13.421507,9.751296,9.751296,13.421507,922.148591,802.95783)">
                            <path d="M0.353,-0.204C0.479,-0.281 0.64,-0.307 0.777,-0.252C0.914,-0.196 1.015,-0.051 0.998,0.096C0.828,0.193 0.639,0.26 0.445,0.292C0.284,0.318 0.088,0.305 0,0.167C0.02,0.168 0.034,0.148 0.035,0.129C0.043,0.129 0.053,0.129 0.068,0.127C0.126,0.009 0.206,-0.1 0.312,-0.176C0.325,-0.186 0.339,-0.195 0.353,-0.204ZM0.035,0.129C0.008,0.128 0.016,0.116 0.024,0.103C0.032,0.109 0.035,0.119 0.035,0.129Z" style="fill:url(#_Linear112);fill-rule:nonzero;"/>
                        </g>
                        <g transform="matrix(1,0,0,1,922.4756,812.1204)">
                            <path d="M0,-6.803C-2.17,-7.934 -4.612,-8.657 -7.052,-8.457C-9.49,-8.258 -11.913,-7.042 -13.208,-4.966C-14.503,-2.89 -14.448,0.052 -12.792,1.854C-9.55,1.501 -6.374,0.562 -3.462,-0.905C-1.04,-2.125 1.462,-4.209 1.304,-6.918C0.911,-6.604 0.216,-7.067 0.355,-7.551C0.652,-7.429 0.95,-7.308 0,-6.803Z" style="fill:none;fill-rule:nonzero;stroke:black;stroke-width:0.24px;"/>
                        </g>
                        <g transform="matrix(-10.619148,8.954617,8.954617,10.619148,925.788536,796.735723)">
                            <path d="M-0.081,-0.476C0.076,-0.374 0.214,-0.243 0.325,-0.093C0.418,0.033 0.492,0.205 0.414,0.339C0.406,0.322 0.383,0.319 0.366,0.326C0.363,0.32 0.358,0.311 0.35,0.3C0.209,0.301 0.065,0.275 -0.055,0.201C-0.174,0.128 -0.267,0.003 -0.28,-0.137C-0.289,-0.246 -0.244,-0.359 -0.162,-0.428C-0.138,-0.448 -0.111,-0.465 -0.081,-0.476ZM0.366,0.326C0.377,0.35 0.363,0.348 0.348,0.347C0.35,0.341 0.353,0.335 0.358,0.331C0.36,0.329 0.363,0.328 0.366,0.326Z" style="fill:url(#_Linear113);fill-rule:nonzero;"/>
                        </g>
                        <g transform="matrix(-11.797844,-7.332281,-7.332281,11.797844,932.539814,803.45705)">
                            <path d="M0.325,-0.092C0.418,0.033 0.492,0.205 0.414,0.339C0.406,0.322 0.383,0.319 0.366,0.326C0.363,0.32 0.358,0.311 0.35,0.3C0.209,0.301 0.065,0.275 -0.055,0.201C-0.174,0.128 -0.267,0.003 -0.28,-0.137C-0.292,-0.277 -0.213,-0.427 -0.081,-0.476C0.076,-0.374 0.214,-0.243 0.325,-0.092ZM0.348,0.347C0.35,0.337 0.357,0.33 0.366,0.326C0.377,0.35 0.363,0.348 0.348,0.347Z" style="fill:url(#_Linear114);fill-rule:nonzero;"/>
                        </g>
                        <g transform="matrix(3.32768,-13.486216,-13.486216,-3.32768,928.242967,811.958103)">
                            <path d="M0.414,0.34C0.406,0.323 0.383,0.319 0.366,0.327C0.363,0.32 0.358,0.312 0.35,0.3C0.209,0.302 0.065,0.276 -0.055,0.202C-0.174,0.129 -0.267,0.003 -0.279,-0.137C-0.292,-0.277 -0.213,-0.426 -0.081,-0.475C0.076,-0.373 0.214,-0.242 0.325,-0.092C0.404,0.015 0.469,0.155 0.439,0.277C0.434,0.299 0.425,0.32 0.414,0.34ZM0.348,0.348C0.35,0.338 0.357,0.331 0.366,0.327C0.37,0.334 0.371,0.339 0.37,0.343C0.368,0.35 0.358,0.349 0.348,0.348Z" style="fill:url(#_Linear115);fill-rule:nonzero;"/>
                        </g>
                        <g transform="matrix(13.854463,-1.002658,-1.002658,-13.854463,918.821049,810.508851)">
                            <path d="M0.348,0.349C0.35,0.339 0.357,0.332 0.366,0.328C0.374,0.344 0.369,0.349 0.36,0.349C0.357,0.35 0.353,0.349 0.348,0.349ZM0.366,0.328C0.363,0.321 0.358,0.313 0.35,0.301C0.209,0.303 0.065,0.277 -0.055,0.203C-0.174,0.13 -0.267,0.004 -0.28,-0.136C-0.292,-0.276 -0.213,-0.425 -0.081,-0.474C0.076,-0.372 0.214,-0.242 0.325,-0.091C0.418,0.035 0.492,0.206 0.414,0.341C0.406,0.324 0.383,0.32 0.366,0.328Z" style="fill:url(#_Linear116);fill-rule:nonzero;"/>
                        </g>
                        <g transform="matrix(5.234849,12.866539,12.866539,-5.234849,917.307641,801.078884)">
                            <path d="M-0.28,-0.137C-0.292,-0.277 -0.213,-0.427 -0.081,-0.476C0.076,-0.374 0.214,-0.243 0.325,-0.093C0.418,0.033 0.492,0.205 0.414,0.339C0.406,0.322 0.383,0.319 0.366,0.326C0.363,0.32 0.358,0.311 0.35,0.3C0.209,0.301 0.065,0.275 -0.055,0.201C-0.142,0.148 -0.214,0.068 -0.252,-0.026C-0.267,-0.061 -0.276,-0.099 -0.28,-0.137ZM0.366,0.326C0.377,0.35 0.363,0.348 0.348,0.347C0.35,0.337 0.357,0.33 0.366,0.326Z" style="fill:url(#_Linear117);fill-rule:nonzero;"/>
                        </g>
                        <g transform="matrix(0.999924,0.012363,0.012363,-0.999924,893.413447,786.015909)">
                            <path d="M0.112,0.06C-3.009,1.823 -4.28,5.834 -3.854,9.393C-3.429,12.953 -1.64,16.183 0.112,19.31C-3.066,16.048 -6.32,12.67 -8.022,8.446C-9.723,4.22 -9.509,-1.111 0.112,0.06Z" style="fill:rgb(19,191,160);fill-rule:nonzero;stroke:rgb(19,191,160);stroke-width:2.2px;"/>
                        </g>
                    </g>
</g>
</g>
</svg>
