<svg xmlns="http://www.w3.org/2000/svg" viewBox="381.49807314651 5462.854350488313 1061.0928549311718 771.7278192819713">
<defs>
<linearGradient xmlns="http://www.w3.org/2000/svg" id="_Linear128" x1="0" y1="0" x2="1" y2="0" gradientUnits="userSpaceOnUse" gradientTransform="matrix(1,-0,-0,-1,0,0.080503)"><stop offset="0" style="stop-color:rgb(23,147,255);stop-opacity:1"/><stop offset="0.97" style="stop-color:rgb(122,34,255);stop-opacity:1"/><stop offset="1" style="stop-color:rgb(131,23,255);stop-opacity:1"/></linearGradient>
<linearGradient xmlns="http://www.w3.org/2000/svg" id="_Linear129" x1="0" y1="0" x2="1" y2="0" gradientUnits="userSpaceOnUse" gradientTransform="matrix(1,0,0,-1,0,0.081744)"><stop offset="0" style="stop-color:rgb(23,147,255);stop-opacity:1"/><stop offset="0.97" style="stop-color:rgb(122,34,255);stop-opacity:1"/><stop offset="1" style="stop-color:rgb(131,23,255);stop-opacity:1"/></linearGradient>
<linearGradient xmlns="http://www.w3.org/2000/svg" id="_Linear130" x1="0" y1="0" x2="1" y2="0" gradientUnits="userSpaceOnUse" gradientTransform="matrix(1,-0,-0,-1,0,0.080521)"><stop offset="0" style="stop-color:rgb(23,147,255);stop-opacity:1"/><stop offset="0.97" style="stop-color:rgb(122,34,255);stop-opacity:1"/><stop offset="1" style="stop-color:rgb(131,23,255);stop-opacity:1"/></linearGradient>
<linearGradient xmlns="http://www.w3.org/2000/svg" id="_Linear131" x1="0" y1="0" x2="1" y2="0" gradientUnits="userSpaceOnUse" gradientTransform="matrix(1,0,0,-1,0,0.08051)"><stop offset="0" style="stop-color:rgb(23,147,255);stop-opacity:1"/><stop offset="0.97" style="stop-color:rgb(122,34,255);stop-opacity:1"/><stop offset="1" style="stop-color:rgb(131,23,255);stop-opacity:1"/></linearGradient>
<linearGradient xmlns="http://www.w3.org/2000/svg" id="_Linear132" x1="0" y1="0" x2="1" y2="0" gradientUnits="userSpaceOnUse" gradientTransform="matrix(1,-0,-0,-1,0,0.080515)"><stop offset="0" style="stop-color:rgb(23,147,255);stop-opacity:1"/><stop offset="0.97" style="stop-color:rgb(122,34,255);stop-opacity:1"/><stop offset="1" style="stop-color:rgb(131,23,255);stop-opacity:1"/></linearGradient>
<linearGradient xmlns="http://www.w3.org/2000/svg" id="_Linear133" x1="0" y1="0" x2="1" y2="0" gradientUnits="userSpaceOnUse" gradientTransform="matrix(1,0,0,-1,0,0.080511)"><stop offset="0" style="stop-color:rgb(23,147,255);stop-opacity:1"/><stop offset="0.97" style="stop-color:rgb(122,34,255);stop-opacity:1"/><stop offset="1" style="stop-color:rgb(131,23,255);stop-opacity:1"/></linearGradient>
<linearGradient xmlns="http://www.w3.org/2000/svg" id="_Linear134" x1="0" y1="0" x2="1" y2="0" gradientUnits="userSpaceOnUse" gradientTransform="matrix(1,-0,-0,-1,0,0.080509)"><stop offset="0" style="stop-color:rgb(23,147,255);stop-opacity:1"/><stop offset="0.97" style="stop-color:rgb(122,34,255);stop-opacity:1"/><stop offset="1" style="stop-color:rgb(131,23,255);stop-opacity:1"/></linearGradient>
<linearGradient xmlns="http://www.w3.org/2000/svg" id="_Linear135" x1="0" y1="0" x2="1" y2="0" gradientUnits="userSpaceOnUse" gradientTransform="matrix(1,0,0,-1,0,0.080514)"><stop offset="0" style="stop-color:rgb(23,147,255);stop-opacity:1"/><stop offset="0.97" style="stop-color:rgb(122,34,255);stop-opacity:1"/><stop offset="1" style="stop-color:rgb(131,23,255);stop-opacity:1"/></linearGradient>
<radialGradient xmlns="http://www.w3.org/2000/svg" id="_Radial136" cx="0" cy="0" r="1" gradientUnits="userSpaceOnUse" gradientTransform="matrix(1,0,0,-1,0,0.383562)"><stop offset="0" style="stop-color:rgb(212,255,23);stop-opacity:1"/><stop offset="1" style="stop-color:rgb(4,122,25);stop-opacity:1"/></radialGradient>
<radialGradient xmlns="http://www.w3.org/2000/svg" id="_Radial137" cx="0" cy="0" r="1" gradientUnits="userSpaceOnUse" gradientTransform="matrix(1,-0,-0,-1,0,0.383539)"><stop offset="0" style="stop-color:rgb(212,255,23);stop-opacity:1"/><stop offset="1" style="stop-color:rgb(4,122,25);stop-opacity:1"/></radialGradient>
<radialGradient xmlns="http://www.w3.org/2000/svg" id="_Radial138" cx="0" cy="0" r="1" gradientUnits="userSpaceOnUse" gradientTransform="matrix(1,0,0,-1,0,0.376291)"><stop offset="0" style="stop-color:rgb(212,255,23);stop-opacity:1"/><stop offset="1" style="stop-color:rgb(4,122,25);stop-opacity:1"/></radialGradient>
<radialGradient xmlns="http://www.w3.org/2000/svg" id="_Radial139" cx="0" cy="0" r="1" gradientUnits="userSpaceOnUse" gradientTransform="matrix(1,0,0,-1,0,0.38357)"><stop offset="0" style="stop-color:rgb(212,255,23);stop-opacity:1"/><stop offset="1" style="stop-color:rgb(4,122,25);stop-opacity:1"/></radialGradient>
<radialGradient xmlns="http://www.w3.org/2000/svg" id="_Radial140" cx="0" cy="0" r="1" gradientUnits="userSpaceOnUse" gradientTransform="matrix(1,-0,-0,-1,0,0.383564)"><stop offset="0" style="stop-color:rgb(212,255,23);stop-opacity:1"/><stop offset="1" style="stop-color:rgb(4,122,25);stop-opacity:1"/></radialGradient>
<radialGradient xmlns="http://www.w3.org/2000/svg" id="_Radial141" cx="0" cy="0" r="1" gradientUnits="userSpaceOnUse" gradientTransform="matrix(1,0,0,-1,0,0.383522)"><stop offset="0" style="stop-color:rgb(212,255,23);stop-opacity:1"/><stop offset="1" style="stop-color:rgb(4,122,25);stop-opacity:1"/></radialGradient>
</defs>
<g transform="matrix(4.166667,0,0,4.166667,0,0)">
<g transform="matrix(1,0,0,1,-11.56697,1.462939)">
<g xmlns="http://www.w3.org/2000/svg">
                        <g transform="matrix(1,0,0,1,106.0065,1429.331)">
                            <path d="M0,-102.41C41.589,-116.829 89.517,-116.513 127.961,-95.075C166.405,-73.637 192.775,-29.176 186.69,14.419" style="fill:none;fill-rule:nonzero;stroke:rgb(19,191,160);stroke-width:3.16px;"/>
                        </g>
                        <g transform="matrix(-0.602278,-0.798287,-0.798287,0.602278,278.525213,1439.704771)">
                            <path d="M-11.764,-23.613C-19.902,-23.613 -26.501,-17.015 -26.501,-8.876C-26.501,-0.738 -19.902,5.86 -11.764,5.86C-3.625,5.86 2.973,-0.737 2.973,-8.876C2.973,-17.014 -3.625,-23.613 -11.764,-23.613" style="fill:rgb(19,191,160);fill-rule:nonzero;"/>
                        </g>
                        <g transform="matrix(1,0,0,1,297.2319,1419.797)">
                            <path d="M0,10.868C-4.975,13.985 -8.349,12.65 -14.005,11.08C-19.663,9.511 -24.589,5.477 -27.246,0.242C-29.115,-3.44 -29.704,-8.33 -26.932,-11.39C-24.413,-14.171 -19.912,-14.362 -16.514,-12.77C-13.116,-11.176 -10.605,-8.182 -8.378,-5.162C-5.901,-1.803 -3.627,1.706 -1.573,5.339C-0.582,7.093 0.386,8.985 0.305,10.998C0.222,13.056 -0.949,14.909 -2.274,16.484C-6.024,20.944 -11.417,24.06 -17.2,24.774C-20.895,25.23 -25.069,24.518 -27.421,21.632C-28.911,19.805 -29.442,17.398 -29.866,15.08C-30.307,12.664 -30.667,10.095 -29.76,7.812C-28.853,5.53 -26.217,3.753 -23.929,4.646" style="fill:rgb(255,166,33);fill-rule:nonzero;stroke:rgb(19,191,160);stroke-width:1.48px;"/>
                        </g>
                        <g transform="matrix(1,0,0,1,305.0713,1397.173)">
                            <path d="M0,34.036C-5.187,31.286 -5.718,27.698 -7.186,22.014C-8.656,16.329 -7.626,10.046 -4.421,5.128C-2.167,1.669 1.774,-1.287 5.81,-0.416C9.478,0.375 11.894,4.177 12.214,7.917C12.532,11.656 11.195,15.327 9.693,18.766C8.023,22.591 6.121,26.314 4.002,29.91C2.979,31.645 1.823,33.429 0.04,34.366C-1.783,35.323 -3.974,35.235 -6.001,34.876C-11.739,33.858 -17.134,30.745 -20.644,26.094C-22.886,23.122 -24.356,19.151 -23.032,15.671C-22.195,13.468 -20.376,11.804 -18.581,10.278C-16.709,8.688 -14.664,7.092 -12.234,6.736C-9.804,6.381 -6.947,7.774 -6.576,10.203" style="fill:rgb(255,166,33);fill-rule:nonzero;stroke:rgb(19,191,160);stroke-width:1.48px;"/>
                        </g>
                        <g transform="matrix(1,0,0,1,308.5205,1410.204)">
                            <path d="M0,28.065C-0.212,22.198 2.631,19.944 6.819,15.83C11.007,11.715 16.963,9.465 22.825,9.782C26.948,10.005 31.478,11.94 32.741,15.87C33.891,19.442 31.806,23.436 28.728,25.583C25.647,27.729 21.8,28.405 18.071,28.825C13.923,29.29 9.748,29.505 5.575,29.468C3.56,29.449 1.437,29.34 -0.266,28.264C-2.006,27.164 -3.025,25.223 -3.728,23.288C-5.715,17.81 -5.717,11.581 -3.443,6.216C-1.991,2.788 0.713,-0.471 4.389,-1.064C6.716,-1.44 9.065,-0.698 11.285,0.094C13.599,0.92 16.003,1.894 17.525,3.82C19.049,5.747 19.27,8.918 17.353,10.453" style="fill:rgb(255,166,33);fill-rule:nonzero;stroke:rgb(19,191,160);stroke-width:1.48px;"/>
                        </g>
                        <g transform="matrix(1,0,0,1,304.1304,1455.6541)">
                            <path d="M0,-10.868C4.975,-13.985 8.349,-12.65 14.005,-11.08C19.663,-9.511 24.589,-5.477 27.246,-0.242C29.115,3.44 29.704,8.33 26.932,11.39C24.413,14.171 19.912,14.362 16.514,12.77C13.116,11.176 10.605,8.182 8.378,5.162C5.901,1.803 3.627,-1.706 1.573,-5.339C0.582,-7.093 -0.386,-8.985 -0.305,-10.998C-0.222,-13.056 0.949,-14.909 2.274,-16.484C6.024,-20.944 11.417,-24.06 17.2,-24.774C20.895,-25.23 25.069,-24.518 27.421,-21.632C28.911,-19.805 29.442,-17.398 29.866,-15.08C30.307,-12.664 30.667,-10.095 29.76,-7.812C28.853,-5.53 26.217,-3.753 23.929,-4.646" style="fill:rgb(255,166,33);fill-rule:nonzero;stroke:rgb(19,191,160);stroke-width:1.48px;"/>
                        </g>
                        <g transform="matrix(1,0,0,1,296.2917,1478.2792)">
                            <path d="M0,-34.036C5.187,-31.286 5.718,-27.698 7.186,-22.014C8.656,-16.329 7.626,-10.046 4.421,-5.128C2.167,-1.669 -1.774,1.287 -5.81,0.416C-9.478,-0.375 -11.894,-4.177 -12.214,-7.917C-12.532,-11.656 -11.195,-15.327 -9.693,-18.766C-8.023,-22.591 -6.121,-26.314 -4.002,-29.91C-2.979,-31.645 -1.823,-33.429 -0.04,-34.366C1.783,-35.323 3.974,-35.235 6.001,-34.876C11.739,-33.858 17.134,-30.745 20.644,-26.094C22.886,-23.122 24.356,-19.151 23.032,-15.671C22.195,-13.468 20.376,-11.804 18.581,-10.278C16.709,-8.688 14.664,-7.092 12.234,-6.736C9.804,-6.381 6.947,-7.774 6.576,-10.203" style="fill:rgb(255,166,33);fill-rule:nonzero;stroke:rgb(19,191,160);stroke-width:1.48px;"/>
                        </g>
                        <g transform="matrix(1,0,0,1,292.8428,1465.2471)">
                            <path d="M0,-28.065C0.212,-22.198 -2.631,-19.944 -6.819,-15.83C-11.007,-11.715 -16.963,-9.465 -22.825,-9.782C-26.948,-10.005 -31.478,-11.94 -32.741,-15.87C-33.891,-19.442 -31.806,-23.436 -28.728,-25.583C-25.647,-27.729 -21.8,-28.405 -18.071,-28.825C-13.923,-29.29 -9.748,-29.505 -5.575,-29.468C-3.56,-29.449 -1.437,-29.34 0.266,-28.264C2.006,-27.164 3.025,-25.223 3.728,-23.288C5.715,-17.81 5.717,-11.581 3.443,-6.216C1.991,-2.788 -0.713,0.471 -4.389,1.064C-6.716,1.44 -9.065,0.698 -11.285,-0.094C-13.599,-0.92 -16.003,-1.894 -17.525,-3.82C-19.049,-5.747 -19.27,-8.918 -17.353,-10.453" style="fill:rgb(255,166,33);fill-rule:nonzero;stroke:rgb(19,191,160);stroke-width:1.48px;"/>
                        </g>
                        <g transform="matrix(1,0,0,1,299.501,1415.4715)">
                            <path d="M0,16.218C-4.393,17.567 -6.673,15.874 -10.632,13.54C-14.591,11.207 -17.5,7.16 -18.448,2.663C-19.115,-0.499 -18.569,-4.316 -15.854,-6.068C-13.385,-7.661 -9.943,-6.893 -7.697,-5.001C-5.451,-3.107 -4.159,-0.335 -3.086,2.4C-1.894,5.442 -0.886,8.555 -0.069,11.718C0.326,13.245 0.673,14.872 0.204,16.378C-0.275,17.916 -1.536,19.08 -2.857,20.004C-6.596,22.615 -11.305,23.879 -15.822,23.247C-18.708,22.844 -21.72,21.459 -22.914,18.801C-23.67,17.117 -23.584,15.191 -23.435,13.351C-23.279,11.435 -23.031,9.42 -21.882,7.878C-20.733,6.336 -18.381,5.527 -16.832,6.665" style="fill:rgb(255,212,23);fill-rule:nonzero;stroke:rgb(19,191,160);stroke-width:1.16px;"/>
                        </g>
                        <g transform="matrix(1,0,0,1,305.3176,1407.9505)">
                            <path d="M0,25.737C-3.365,22.608 -3.039,19.787 -2.997,15.19C-2.956,10.596 -0.906,6.053 2.515,2.984C4.92,0.825 8.499,-0.611 11.373,0.864C13.987,2.206 15.043,5.571 14.528,8.463C14.011,11.354 12.256,13.859 10.424,16.155C8.385,18.71 6.194,21.139 3.863,23.428C2.738,24.534 1.502,25.647 -0.037,25.995C-1.608,26.348 -3.246,25.839 -4.707,25.157C-8.838,23.224 -12.287,19.778 -13.999,15.549C-15.093,12.848 -15.399,9.548 -13.694,7.184C-12.614,5.688 -10.903,4.8 -9.234,4.008C-7.497,3.186 -5.628,2.393 -3.719,2.617C-1.809,2.841 0.069,4.473 -0.143,6.384" style="fill:rgb(255,212,23);fill-rule:nonzero;stroke:rgb(19,191,160);stroke-width:1.16px;"/>
                        </g>
                        <g transform="matrix(1,0,0,1,306.4961,1423.2361)">
                            <path d="M0,16.489C1.028,12.01 3.634,10.882 7.635,8.62C11.635,6.358 16.594,5.863 20.962,7.29C24.034,8.294 27.067,10.675 27.227,13.902C27.372,16.837 24.986,19.433 22.224,20.433C19.461,21.431 16.414,21.163 13.51,20.725C10.279,20.237 7.079,19.553 3.932,18.679C2.411,18.258 0.828,17.745 -0.241,16.586C-1.334,15.402 -1.711,13.728 -1.851,12.122C-2.242,7.578 -0.982,2.868 1.823,-0.728C3.615,-3.026 6.32,-4.942 9.22,-4.647C11.056,-4.459 12.682,-3.422 14.2,-2.372C15.781,-1.28 17.402,-0.057 18.163,1.708C18.924,3.474 18.449,5.917 16.688,6.689" style="fill:rgb(255,212,23);fill-rule:nonzero;stroke:rgb(19,191,160);stroke-width:1.16px;"/>
                        </g>
                        <g transform="matrix(1,0,0,1,301.8564,1459.9817)">
                            <path d="M0,-16.218C4.393,-17.567 6.673,-15.874 10.632,-13.54C14.591,-11.207 17.5,-7.16 18.448,-2.663C19.115,0.499 18.569,4.316 15.854,6.068C13.385,7.661 9.943,6.893 7.697,5.001C5.451,3.107 4.159,0.335 3.086,-2.4C1.894,-5.442 0.886,-8.555 0.069,-11.718C-0.326,-13.245 -0.673,-14.872 -0.204,-16.378C0.275,-17.916 1.536,-19.08 2.857,-20.004C6.596,-22.615 11.305,-23.879 15.822,-23.247C18.708,-22.844 21.72,-21.459 22.914,-18.801C23.67,-17.117 23.584,-15.191 23.435,-13.351C23.279,-11.435 23.031,-9.42 21.882,-7.878C20.733,-6.336 18.381,-5.527 16.832,-6.665" style="fill:rgb(255,212,23);fill-rule:nonzero;stroke:rgb(19,191,160);stroke-width:1.16px;"/>
                        </g>
                        <g transform="matrix(1,0,0,1,296.0396,1467.5026)">
                            <path d="M0,-25.737C3.365,-22.608 3.039,-19.787 2.997,-15.19C2.956,-10.596 0.906,-6.053 -2.515,-2.984C-4.92,-0.825 -8.499,0.611 -11.373,-0.864C-13.987,-2.206 -15.043,-5.571 -14.528,-8.463C-14.011,-11.354 -12.256,-13.859 -10.424,-16.155C-8.385,-18.71 -6.194,-21.139 -3.863,-23.428C-2.738,-24.534 -1.502,-25.647 0.037,-25.995C1.608,-26.348 3.246,-25.839 4.707,-25.157C8.838,-23.224 12.287,-19.778 13.999,-15.549C15.093,-12.848 15.399,-9.548 13.694,-7.184C12.614,-5.688 10.903,-4.8 9.234,-4.008C7.497,-3.186 5.628,-2.393 3.719,-2.617C1.809,-2.841 -0.069,-4.473 0.143,-6.384" style="fill:rgb(255,212,23);fill-rule:nonzero;stroke:rgb(19,191,160);stroke-width:1.16px;"/>
                        </g>
                        <g transform="matrix(1,0,0,1,294.8613,1452.2175)">
                            <path d="M0,-16.489C-1.028,-12.01 -3.634,-10.882 -7.635,-8.62C-11.635,-6.358 -16.594,-5.863 -20.962,-7.29C-24.034,-8.294 -27.067,-10.675 -27.227,-13.902C-27.372,-16.837 -24.986,-19.433 -22.224,-20.433C-19.461,-21.431 -16.414,-21.163 -13.51,-20.725C-10.279,-20.237 -7.079,-19.553 -3.932,-18.679C-2.411,-18.258 -0.828,-17.745 0.241,-16.586C1.334,-15.402 1.711,-13.728 1.851,-12.122C2.242,-7.578 0.982,-2.868 -1.823,0.728C-3.615,3.026 -6.32,4.942 -9.22,4.647C-11.056,4.459 -12.682,3.422 -14.2,2.372C-15.781,1.28 -17.402,0.057 -18.163,-1.708C-18.924,-3.474 -18.449,-5.917 -16.688,-6.689" style="fill:rgb(255,212,23);fill-rule:nonzero;stroke:rgb(19,191,160);stroke-width:1.16px;"/>
                        </g>
                        <g transform="matrix(7.760539,-61.723354,-61.723354,-7.760539,305.294128,1437.228264)">
                            <path d="M0.806,0.109C0.748,0.211 0.599,0.226 0.483,0.22C0.368,0.214 0.256,0.162 0.134,-0.133C0.187,-0.008 0.299,0.09 0.43,0.125C0.565,0.161 0.695,-0.033 0.819,0.033C0.827,0.037 0.829,0.046 0.828,0.056C0.826,0.073 0.814,0.095 0.806,0.109ZM0.129,-0.145C0.13,-0.141 0.132,-0.137 0.134,-0.133C0.132,-0.137 0.13,-0.141 0.129,-0.145Z" style="fill:url(#_Linear128);fill-rule:nonzero;"/>
                        </g>
                        <g transform="matrix(49.132531,-38.157472,-38.157472,-49.132531,304.342074,1440.70051)">
                            <path d="M0.483,0.221C0.368,0.215 0.256,0.164 0.134,-0.131C0.187,-0.007 0.299,0.091 0.43,0.126C0.565,0.162 0.695,-0.032 0.819,0.034C0.842,0.046 0.818,0.088 0.806,0.111C0.794,0.131 0.779,0.148 0.761,0.162C0.69,0.217 0.576,0.226 0.483,0.221ZM0.129,-0.144C0.13,-0.14 0.132,-0.135 0.134,-0.131C0.132,-0.135 0.13,-0.14 0.129,-0.144Z" style="fill:url(#_Linear129);fill-rule:nonzero;"/>
                        </g>
                        <g transform="matrix(61.723354,7.760539,7.760539,-61.723354,301.176871,1442.343076)">
                            <path d="M0.134,-0.133C0.187,-0.008 0.299,0.09 0.43,0.125C0.493,0.142 0.555,0.108 0.616,0.074C0.685,0.036 0.753,-0.003 0.819,0.033C0.842,0.045 0.818,0.087 0.806,0.109C0.748,0.211 0.599,0.226 0.483,0.22C0.473,0.219 0.464,0.218 0.455,0.217C0.35,0.204 0.246,0.139 0.134,-0.133ZM0.129,-0.145C0.13,-0.141 0.132,-0.137 0.134,-0.133C0.132,-0.137 0.13,-0.141 0.129,-0.145Z" style="fill:url(#_Linear130);fill-rule:nonzero;"/>
                        </g>
                        <g transform="matrix(38.157472,49.132531,49.132531,-38.157472,297.766375,1441.342835)">
                            <path d="M0.134,-0.133C0.187,-0.008 0.299,0.09 0.43,0.125C0.565,0.161 0.695,-0.033 0.819,0.033C0.842,0.045 0.818,0.087 0.806,0.109C0.748,0.211 0.599,0.226 0.483,0.22C0.407,0.216 0.334,0.192 0.257,0.094C0.217,0.042 0.176,-0.031 0.134,-0.133ZM0.129,-0.145C0.13,-0.141 0.132,-0.137 0.134,-0.133C0.132,-0.137 0.13,-0.141 0.129,-0.145Z" style="fill:url(#_Linear131);fill-rule:nonzero;"/>
                        </g>
                        <g transform="matrix(-7.760539,61.723354,61.723354,7.760539,296.062556,1438.224768)">
                            <path d="M0.134,-0.133C0.132,-0.137 0.13,-0.141 0.129,-0.145C0.13,-0.141 0.132,-0.137 0.134,-0.133ZM0.43,0.125C0.565,0.161 0.695,-0.033 0.819,0.033C0.842,0.045 0.818,0.087 0.806,0.109C0.748,0.211 0.599,0.226 0.483,0.22C0.368,0.214 0.256,0.162 0.134,-0.133C0.187,-0.008 0.299,0.09 0.43,0.125Z" style="fill:url(#_Linear132);fill-rule:nonzero;"/>
                        </g>
                        <g transform="matrix(-49.132531,38.157472,38.157472,49.132531,297.062896,1434.815164)">
                            <path d="M0.134,-0.133C0.132,-0.137 0.13,-0.141 0.129,-0.145C0.13,-0.141 0.132,-0.137 0.134,-0.133ZM0.43,0.125C0.565,0.161 0.695,-0.033 0.819,0.033C0.842,0.045 0.818,0.087 0.806,0.109C0.748,0.211 0.599,0.226 0.483,0.22C0.368,0.214 0.256,0.162 0.134,-0.133C0.187,-0.008 0.299,0.09 0.43,0.125Z" style="fill:url(#_Linear133);fill-rule:nonzero;"/>
                        </g>
                        <g transform="matrix(-61.723354,-7.760539,-7.760539,61.723354,300.18046,1433.110768)">
                            <path d="M0.134,-0.133C0.132,-0.137 0.13,-0.141 0.129,-0.145C0.13,-0.141 0.132,-0.137 0.134,-0.133ZM0.43,0.125C0.493,0.142 0.555,0.108 0.616,0.074C0.685,0.036 0.753,-0.002 0.819,0.033C0.842,0.045 0.818,0.087 0.806,0.109C0.748,0.211 0.599,0.226 0.483,0.22C0.368,0.214 0.256,0.162 0.134,-0.133C0.187,-0.008 0.299,0.09 0.43,0.125Z" style="fill:url(#_Linear134);fill-rule:nonzero;"/>
                        </g>
                        <g transform="matrix(-38.157472,-49.132531,-49.132531,38.157472,303.591254,1434.110617)">
                            <path d="M0.806,0.109C0.748,0.211 0.599,0.226 0.483,0.22C0.368,0.214 0.256,0.162 0.134,-0.133C0.187,-0.008 0.299,0.09 0.43,0.125C0.565,0.161 0.695,-0.033 0.819,0.033C0.821,0.034 0.823,0.036 0.824,0.037C0.837,0.053 0.817,0.089 0.806,0.109ZM0.134,-0.133C0.132,-0.137 0.13,-0.141 0.129,-0.145C0.13,-0.141 0.132,-0.137 0.134,-0.133Z" style="fill:url(#_Linear135);fill-rule:nonzero;"/>
                        </g>
                        <g transform="matrix(-0.2379,19.205919,19.205919,0.2379,293.564494,1418.004454)">
                            <path d="M0.016,0.174C0.063,0.155 0.111,0.143 0.161,0.137C0.103,0.106 0.085,0.024 0.108,-0.039C0.132,-0.106 0.189,-0.155 0.246,-0.198C0.3,-0.24 0.358,-0.282 0.425,-0.293C0.532,-0.31 0.636,-0.245 0.707,-0.164C0.819,-0.037 0.875,0.135 0.87,0.304C0.869,0.364 0.858,0.426 0.82,0.472C0.783,0.518 0.726,0.54 0.67,0.559C0.556,0.598 0.439,0.63 0.32,0.655C0.214,0.677 0.102,0.694 -0.003,0.663C-0.107,0.631 -0.201,0.54 -0.202,0.432C-0.202,0.43 -0.202,0.429 -0.202,0.428C-0.2,0.31 -0.094,0.217 0.016,0.174Z" style="fill:url(#_Radial136);fill-rule:nonzero;"/>
                        </g>
                        <g transform="matrix(1,0,0,1,302.3867,1415.3343)">
                            <path d="M0,18.36C-3.129,17.408 -3.801,15.501 -5.209,12.548C-6.617,9.595 -6.722,6.048 -5.492,3.017C-4.626,0.885 -2.785,-1.15 -0.485,-1.103C1.606,-1.06 3.332,0.762 3.904,2.774C4.476,4.786 4.135,6.936 3.679,8.977C3.172,11.247 2.528,13.485 1.75,15.677C1.375,16.736 0.933,17.834 0.057,18.536C-0.838,19.254 -2.046,19.438 -3.193,19.458C-6.439,19.51 -9.722,18.381 -12.136,16.211C-13.679,14.824 -14.905,12.807 -14.551,10.763C-14.327,9.469 -13.509,8.366 -12.689,7.339C-11.834,6.271 -10.886,5.18 -9.594,4.728C-8.303,4.275 -6.592,4.734 -6.131,6.023" style="fill:none;fill-rule:nonzero;stroke:rgb(19,191,160);stroke-width:0.82px;"/>
                        </g>
                        <g transform="matrix(-16.751763,9.396933,9.396933,16.751763,314.201304,1421.704818)">
                            <path d="M0.425,-0.293C0.532,-0.31 0.636,-0.245 0.707,-0.164C0.818,-0.037 0.875,0.135 0.87,0.304C0.869,0.364 0.858,0.426 0.82,0.472C0.783,0.518 0.726,0.54 0.67,0.559C0.556,0.598 0.439,0.63 0.32,0.655C0.214,0.677 0.102,0.694 -0.003,0.663C-0.107,0.631 -0.201,0.54 -0.202,0.432C-0.203,0.312 -0.096,0.217 0.016,0.174C0.062,0.155 0.111,0.143 0.161,0.137C0.103,0.106 0.085,0.024 0.108,-0.039C0.132,-0.106 0.189,-0.154 0.246,-0.198C0.274,-0.22 0.303,-0.242 0.334,-0.26C0.363,-0.276 0.393,-0.288 0.425,-0.293Z" style="fill:url(#_Radial137);fill-rule:nonzero;"/>
                        </g>
                        <g transform="matrix(1,0,0,1,305.0242,1420.8805)">
                            <path d="M0,16.309C-0.74,13.123 0.576,11.587 2.43,8.892C4.282,6.197 7.301,4.332 10.542,3.881C12.821,3.565 15.504,4.143 16.613,6.158C17.621,7.991 16.906,10.395 15.45,11.897C13.994,13.399 11.961,14.178 9.965,14.803C7.747,15.499 5.486,16.061 3.198,16.484C2.094,16.688 0.923,16.854 -0.123,16.447C-1.193,16.03 -1.957,15.077 -2.547,14.092C-4.216,11.307 -4.879,7.901 -4.206,4.725C-3.777,2.696 -2.643,0.625 -0.697,-0.091C0.536,-0.545 1.901,-0.387 3.2,-0.19C4.552,0.016 5.971,0.291 7.009,1.184C8.047,2.077 8.505,3.788 7.619,4.831" style="fill:none;fill-rule:nonzero;stroke:rgb(19,191,160);stroke-width:0.82px;"/>
                        </g>
                        <g transform="matrix(-16.513864,-9.808987,-9.808987,16.513864,321.244228,1441.54662)">
                            <path d="M0.707,-0.171C0.819,-0.044 0.875,0.128 0.87,0.297C0.869,0.356 0.858,0.419 0.82,0.465C0.783,0.51 0.726,0.533 0.67,0.552C0.556,0.591 0.439,0.623 0.32,0.648C0.214,0.67 0.102,0.686 -0.003,0.655C-0.107,0.624 -0.201,0.533 -0.202,0.424C-0.203,0.305 -0.096,0.21 0.016,0.166C0.062,0.148 0.111,0.136 0.161,0.13C0.103,0.099 0.085,0.017 0.108,-0.046C0.132,-0.113 0.189,-0.162 0.246,-0.206C0.3,-0.248 0.358,-0.29 0.425,-0.3C0.486,-0.31 0.547,-0.293 0.601,-0.261C0.641,-0.237 0.677,-0.206 0.707,-0.171Z" style="fill:url(#_Radial138);fill-rule:nonzero;"/>
                        </g>
                        <g transform="matrix(1,0,0,1,303.3164,1442.7747)">
                            <path d="M0,-1.553C2.39,-3.787 4.377,-3.415 7.639,-3.157C10.899,-2.901 14.023,-1.218 16.033,1.363C17.447,3.178 18.288,5.79 17.098,7.759C16.016,9.548 13.574,10.131 11.546,9.621C9.518,9.111 7.826,7.74 6.287,6.324C4.574,4.751 2.958,3.074 1.448,1.304C0.719,0.45 -0.011,-0.482 -0.181,-1.591C-0.354,-2.726 0.09,-3.864 0.646,-4.867C2.224,-7.705 4.842,-9.983 7.93,-10.988C9.902,-11.631 12.262,-11.684 13.854,-10.356C14.863,-9.515 15.41,-8.255 15.889,-7.032C16.387,-5.757 16.857,-4.39 16.603,-3.046C16.35,-1.7 15.097,-0.449 13.75,-0.694" style="fill:none;fill-rule:nonzero;stroke:rgb(19,191,160);stroke-width:0.82px;"/>
                        </g>
                        <g transform="matrix(0.2379,-19.205919,-19.205919,-0.2379,307.793094,1457.448673)">
                            <path d="M0.87,0.304C0.869,0.364 0.858,0.426 0.82,0.473C0.783,0.518 0.726,0.54 0.67,0.559C0.556,0.598 0.439,0.63 0.32,0.655C0.214,0.677 0.102,0.694 -0.003,0.663C-0.107,0.632 -0.201,0.54 -0.202,0.432C-0.203,0.312 -0.096,0.217 0.016,0.174C0.063,0.155 0.111,0.143 0.161,0.137C0.103,0.106 0.085,0.024 0.108,-0.039C0.132,-0.106 0.189,-0.154 0.246,-0.198C0.3,-0.24 0.358,-0.282 0.425,-0.293C0.532,-0.31 0.636,-0.245 0.707,-0.164C0.816,-0.04 0.873,0.127 0.871,0.293C0.871,0.296 0.87,0.3 0.87,0.304Z" style="fill:url(#_Radial139);fill-rule:nonzero;"/>
                        </g>
                        <g transform="matrix(1,0,0,1,298.9707,1460.1188)">
                            <path d="M0,-18.36C3.129,-17.408 3.801,-15.501 5.209,-12.548C6.617,-9.595 6.722,-6.048 5.492,-3.017C4.626,-0.885 2.785,1.15 0.485,1.103C-1.606,1.06 -3.332,-0.762 -3.904,-2.774C-4.476,-4.786 -4.135,-6.936 -3.679,-8.977C-3.172,-11.247 -2.528,-13.485 -1.75,-15.677C-1.375,-16.736 -0.933,-17.834 -0.057,-18.536C0.838,-19.254 2.046,-19.438 3.193,-19.458C6.439,-19.51 9.722,-18.381 12.136,-16.211C13.679,-14.824 14.905,-12.807 14.551,-10.763C14.327,-9.469 13.509,-8.366 12.689,-7.339C11.834,-6.271 10.886,-5.18 9.594,-4.728C8.303,-4.275 6.592,-4.734 6.131,-6.023" style="fill:none;fill-rule:nonzero;stroke:rgb(19,191,160);stroke-width:0.82px;"/>
                        </g>
                        <g transform="matrix(16.751763,-9.396933,-9.396933,-16.751763,287.156109,1453.748726)">
                            <path d="M0.67,0.559C0.556,0.598 0.439,0.63 0.32,0.655C0.214,0.677 0.102,0.694 -0.003,0.663C-0.107,0.631 -0.201,0.541 -0.202,0.432C-0.203,0.312 -0.096,0.217 0.016,0.174C0.062,0.155 0.111,0.143 0.161,0.137C0.103,0.106 0.085,0.024 0.108,-0.039C0.132,-0.106 0.189,-0.155 0.246,-0.198C0.3,-0.24 0.357,-0.282 0.425,-0.293C0.532,-0.31 0.636,-0.245 0.707,-0.164C0.818,-0.037 0.875,0.135 0.87,0.304C0.869,0.364 0.858,0.426 0.82,0.473C0.804,0.493 0.783,0.508 0.76,0.521C0.732,0.537 0.701,0.548 0.67,0.559Z" style="fill:url(#_Radial140);fill-rule:nonzero;"/>
                        </g>
                        <g transform="matrix(1,0,0,1,296.333,1454.5727)">
                            <path d="M0,-16.309C0.74,-13.123 -0.576,-11.587 -2.43,-8.892C-4.282,-6.197 -7.301,-4.332 -10.542,-3.881C-12.821,-3.565 -15.504,-4.143 -16.613,-6.158C-17.621,-7.991 -16.906,-10.395 -15.45,-11.897C-13.994,-13.399 -11.961,-14.178 -9.965,-14.803C-7.747,-15.499 -5.486,-16.061 -3.198,-16.484C-2.094,-16.688 -0.923,-16.854 0.123,-16.447C1.193,-16.03 1.957,-15.077 2.547,-14.092C4.216,-11.307 4.879,-7.901 4.206,-4.725C3.777,-2.696 2.643,-0.625 0.697,0.091C-0.536,0.545 -1.901,0.387 -3.2,0.19C-4.552,-0.016 -5.971,-0.291 -7.009,-1.184C-8.047,-2.077 -8.505,-3.788 -7.619,-4.831" style="fill:none;fill-rule:nonzero;stroke:rgb(19,191,160);stroke-width:0.82px;"/>
                        </g>
                        <g transform="matrix(16.513864,9.808987,9.808987,-16.513864,280.042261,1434.026413)">
                            <path d="M-0.202,0.432C-0.203,0.312 -0.096,0.217 0.016,0.174C0.062,0.155 0.111,0.143 0.161,0.137C0.103,0.106 0.085,0.024 0.108,-0.039C0.132,-0.106 0.189,-0.155 0.246,-0.198C0.3,-0.24 0.358,-0.282 0.425,-0.293C0.532,-0.31 0.636,-0.245 0.707,-0.164C0.819,-0.037 0.875,0.135 0.87,0.304C0.869,0.364 0.858,0.426 0.82,0.472C0.783,0.518 0.726,0.54 0.67,0.559C0.556,0.598 0.439,0.63 0.32,0.655C0.214,0.677 0.102,0.694 -0.003,0.663C-0.027,0.655 -0.05,0.645 -0.072,0.632C-0.145,0.589 -0.201,0.515 -0.202,0.432Z" style="fill:url(#_Radial141);fill-rule:nonzero;"/>
                        </g>
                        <g transform="matrix(1,0,0,1,298.041,1432.6789)">
                            <path d="M0,1.553C-2.39,3.787 -4.377,3.415 -7.639,3.157C-10.899,2.901 -14.023,1.218 -16.033,-1.363C-17.447,-3.178 -18.288,-5.79 -17.098,-7.759C-16.016,-9.548 -13.574,-10.131 -11.546,-9.621C-9.518,-9.111 -7.826,-7.74 -6.287,-6.324C-4.574,-4.751 -2.958,-3.074 -1.448,-1.304C-0.719,-0.45 0.011,0.482 0.181,1.591C0.354,2.726 -0.09,3.864 -0.646,4.867C-2.224,7.705 -4.842,9.983 -7.93,10.988C-9.902,11.631 -12.262,11.684 -13.854,10.356C-14.863,9.515 -15.41,8.255 -15.889,7.032C-16.387,5.757 -16.857,4.39 -16.603,3.046C-16.35,1.7 -15.097,0.449 -13.75,0.694" style="fill:none;fill-rule:nonzero;stroke:rgb(19,191,160);stroke-width:0.82px;"/>
                        </g>
                    </g>
</g>
</g>
</svg>
