<svg xmlns="http://www.w3.org/2000/svg" viewBox="5305.265550381209 543.381873597213 516.6264505721983 953.3317730086193">
<defs>
<radialGradient xmlns="http://www.w3.org/2000/svg" id="_Radial22" cx="0" cy="0" r="1" gradientUnits="userSpaceOnUse" gradientTransform="matrix(1,0,0,-1,0,0.953667)"><stop offset="0" style="stop-color:rgb(93,255,13);stop-opacity:1"/><stop offset="1" style="stop-color:rgb(207,13,255);stop-opacity:1"/></radialGradient>
<radialGradient xmlns="http://www.w3.org/2000/svg" id="_Radial23" cx="0" cy="0" r="1" gradientUnits="userSpaceOnUse" gradientTransform="matrix(1,-0,-0,-1,0,0.952371)"><stop offset="0" style="stop-color:rgb(93,255,13);stop-opacity:1"/><stop offset="1" style="stop-color:rgb(207,13,255);stop-opacity:1"/></radialGradient>
<radialGradient xmlns="http://www.w3.org/2000/svg" id="_Radial24" cx="0" cy="0" r="1" gradientUnits="userSpaceOnUse" gradientTransform="matrix(1,0,0,-1,0,0.959525)"><stop offset="0" style="stop-color:rgb(93,255,13);stop-opacity:1"/><stop offset="1" style="stop-color:rgb(207,13,255);stop-opacity:1"/></radialGradient>
<radialGradient xmlns="http://www.w3.org/2000/svg" id="_Radial25" cx="0" cy="0" r="1" gradientUnits="userSpaceOnUse" gradientTransform="matrix(1,-0,-0,-1,0,0.959499)"><stop offset="0" style="stop-color:rgb(93,255,13);stop-opacity:1"/><stop offset="1" style="stop-color:rgb(207,13,255);stop-opacity:1"/></radialGradient>
<radialGradient xmlns="http://www.w3.org/2000/svg" id="_Radial26" cx="0" cy="0" r="1" gradientUnits="userSpaceOnUse" gradientTransform="matrix(1,0,0,-1,0,0.959523)"><stop offset="0" style="stop-color:rgb(93,255,13);stop-opacity:1"/><stop offset="1" style="stop-color:rgb(207,13,255);stop-opacity:1"/></radialGradient>
<radialGradient xmlns="http://www.w3.org/2000/svg" id="_Radial27" cx="0" cy="0" r="1" gradientUnits="userSpaceOnUse" gradientTransform="matrix(1,-0,-0,-1,0,0.959517)"><stop offset="0" style="stop-color:rgb(93,255,13);stop-opacity:1"/><stop offset="1" style="stop-color:rgb(207,13,255);stop-opacity:1"/></radialGradient>
<radialGradient xmlns="http://www.w3.org/2000/svg" id="_Radial28" cx="0" cy="0" r="1" gradientUnits="userSpaceOnUse" gradientTransform="matrix(1,0,0,-1,0,0.959492)"><stop offset="0" style="stop-color:rgb(93,255,13);stop-opacity:1"/><stop offset="1" style="stop-color:rgb(207,13,255);stop-opacity:1"/></radialGradient>
<radialGradient xmlns="http://www.w3.org/2000/svg" id="_Radial29" cx="0" cy="0" r="1" gradientUnits="userSpaceOnUse" gradientTransform="matrix(1,-0,-0,-1,0,0.959504)"><stop offset="0" style="stop-color:rgb(93,255,13);stop-opacity:1"/><stop offset="1" style="stop-color:rgb(207,13,255);stop-opacity:1"/></radialGradient>
</defs>
<g transform="matrix(4.166667,0,0,4.166667,0,0)">
<g transform="matrix(1,0,0,1,-11.56697,1.462939)">
<g xmlns="http://www.w3.org/2000/svg">
                        <g transform="matrix(1,0,0,1,1300.1526,307.9667)">
                            <path d="M0,-176.138C-12.442,-143.391 1.687,-92.113 25.29,-66.227C34.64,-55.972 46.139,-47.852 55.456,-37.566C64.772,-27.28 72.004,-13.727 69.966,0" style="fill:none;fill-rule:nonzero;stroke:rgb(51,181,129);stroke-width:4.5px;"/>
                        </g>
                        <g transform="matrix(1,0,0,1,1315.7667,229.1758)">
                            <path d="M0,-4.512C9.206,-9.258 21.975,-4.736 26.143,4.746C18.943,0.709 9.343,1.456 0,-4.512Z" style="fill:rgb(51,181,129);fill-rule:nonzero;stroke:rgb(51,181,129);stroke-width:4.5px;"/>
                        </g>
                        <g transform="matrix(1,0,0,1,1321.3782,268.9426)">
                            <path d="M0,-27.708C-7.847,-20.948 -8.435,-7.415 -1.203,0C-2.252,-8.188 2.036,-16.81 0,-27.708Z" style="fill:rgb(51,181,129);fill-rule:nonzero;stroke:rgb(51,181,129);stroke-width:4.5px;"/>
                        </g>
                        <g transform="matrix(-0.559281,-0.828978,-0.828978,0.559281,1357.059305,313.450348)">
                            <path d="M-11.192,-21.051C-18.648,-21.051 -24.692,-15.007 -24.692,-7.551C-24.692,-0.094 -18.647,5.949 -11.192,5.95C-3.735,5.95 2.309,-0.094 2.309,-7.551C2.309,-15.007 -3.735,-21.051 -11.192,-21.051" style="fill:rgb(255,211,13);fill-rule:nonzero;"/>
                        </g>
                        <g transform="matrix(-40.422859,8.727237,8.727237,40.422859,1361.535525,279.898801)">
                            <path d="M0.321,0.183C0.385,0.314 0.373,0.473 0.296,0.593C0.22,0.714 0.082,0.792 -0.061,0.796C-0.023,0.692 0.009,0.569 0.055,0.453C0.1,0.338 0.167,0.222 0.278,0.167C0.283,0.164 0.288,0.162 0.292,0.161C0.309,0.157 0.318,0.169 0.321,0.183Z" style="fill:url(#_Radial22);fill-rule:nonzero;"/>
                        </g>
                        <g transform="matrix(-34.754365,-22.412189,-22.412189,34.754365,1391.160431,285.564304)">
                            <path d="M0.321,0.181C0.385,0.312 0.373,0.471 0.296,0.592C0.22,0.712 0.082,0.791 -0.061,0.795C-0.023,0.69 0.009,0.567 0.055,0.452C0.1,0.337 0.167,0.22 0.278,0.165C0.292,0.157 0.302,0.157 0.31,0.162C0.316,0.166 0.32,0.173 0.321,0.181Z" style="fill:url(#_Radial23);fill-rule:nonzero;"/>
                        </g>
                        <g transform="matrix(-8.727237,-40.422859,-40.422859,8.727237,1408.421016,310.411156)">
                            <path d="M0.296,0.599C0.22,0.719 0.082,0.798 -0.061,0.802C-0.023,0.698 0.009,0.575 0.055,0.459C0.1,0.344 0.166,0.227 0.278,0.173C0.304,0.157 0.318,0.172 0.321,0.188C0.335,0.218 0.346,0.248 0.353,0.28C0.376,0.389 0.356,0.505 0.296,0.599Z" style="fill:url(#_Radial24);fill-rule:nonzero;"/>
                        </g>
                        <g transform="matrix(22.412189,-34.754365,-34.754365,-22.412189,1402.76644,340.246947)">
                            <path d="M-0.061,0.802C-0.023,0.697 0.009,0.575 0.055,0.459C0.1,0.344 0.167,0.227 0.278,0.173C0.304,0.157 0.318,0.172 0.321,0.188C0.385,0.32 0.373,0.478 0.296,0.599C0.296,0.6 0.295,0.601 0.295,0.602C0.218,0.721 0.081,0.798 -0.061,0.802Z" style="fill:url(#_Radial25);fill-rule:nonzero;"/>
                        </g>
                        <g transform="matrix(40.422859,-8.727237,-8.727237,-40.422859,1377.671834,357.34769)">
                            <path d="M-0.061,0.802C-0.023,0.698 0.009,0.575 0.055,0.459C0.1,0.344 0.167,0.227 0.278,0.173C0.304,0.157 0.318,0.172 0.321,0.188C0.385,0.32 0.373,0.478 0.296,0.599C0.234,0.698 0.13,0.768 0.016,0.793C-0.009,0.798 -0.035,0.802 -0.061,0.802Z" style="fill:url(#_Radial26);fill-rule:nonzero;"/>
                        </g>
                        <g transform="matrix(34.754365,22.412189,22.412189,-34.754365,1347.835179,351.693809)">
                            <path d="M0.055,0.459C0.1,0.344 0.167,0.227 0.278,0.173C0.304,0.157 0.318,0.172 0.321,0.188C0.385,0.32 0.373,0.478 0.296,0.599C0.22,0.719 0.082,0.798 -0.061,0.802C-0.023,0.698 0.009,0.575 0.055,0.459Z" style="fill:url(#_Radial27);fill-rule:nonzero;"/>
                        </g>
                        <g transform="matrix(8.727237,40.422859,40.422859,-8.727237,1330.736571,326.598321)">
                            <path d="M0.055,0.459C0.1,0.344 0.167,0.227 0.278,0.173C0.304,0.157 0.318,0.172 0.321,0.188C0.385,0.32 0.373,0.478 0.296,0.599C0.22,0.719 0.082,0.798 -0.061,0.802C-0.023,0.697 0.009,0.575 0.055,0.459Z" style="fill:url(#_Radial28);fill-rule:nonzero;"/>
                        </g>
                        <g transform="matrix(-22.412189,34.754365,34.754365,22.412189,1336.38866,296.762707)">
                            <path d="M0.278,0.173C0.304,0.157 0.318,0.171 0.321,0.188C0.385,0.32 0.373,0.478 0.296,0.599C0.22,0.719 0.082,0.798 -0.061,0.802C-0.023,0.698 0.009,0.575 0.055,0.459C0.074,0.41 0.097,0.361 0.126,0.316C0.165,0.256 0.214,0.204 0.278,0.173Z" style="fill:url(#_Radial29);fill-rule:nonzero;"/>
                        </g>
                    </g>
</g>
</g>
</svg>
