<svg xmlns="http://www.w3.org/2000/svg" viewBox="6906.00359510691 5552.181024301114 304.5825224466007 286.6658543465992">
<g transform="matrix(4.166667,0,0,4.166667,0,0)">
<g transform="matrix(1,0,0,1,-11.56697,1.462939)">
<g xmlns="http://www.w3.org/2000/svg">
                        <g transform="matrix(1,0,0,1,1739.2274,1358.5891)">
                            <path d="M0,38.391C-1.119,28.606 -3.401,17.251 -12.258,12.944C-17.63,10.332 -23.953,11.17 -29.879,10.423C-35.805,9.677 -42.448,5.972 -42.534,0" style="fill:none;fill-rule:nonzero;stroke:rgb(43,153,120);stroke-width:0.58px;"/>
                        </g>
                        <g transform="matrix(1,0,0,1,1714.2012,1361.041)">
                            <path d="M0,-6.165C-1.068,-7.027 -2.291,-7.935 -3.521,-7.688C-5.571,-7.278 -6.392,-3.928 -8.479,-3.767C-9.495,-3.688 -10.45,-4.419 -11.356,-5.038C-12.262,-5.657 -13.358,-6.206 -14.279,-5.755C-15.751,-5.033 -15.745,-2.308 -17.192,-1.527C-18.297,-0.933 -19.624,-1.78 -20.703,-2.59C-21.781,-3.399 -23.12,-4.233 -24.214,-3.613C-25.043,-3.143 -25.38,-2.013 -25.679,-0.993C-25.979,0.027 -26.403,1.142 -27.288,1.469C-28.104,1.77 -29.012,1.284 -29.782,0.753C-30.632,0.167 -31.446,-0.493 -32.215,-1.219" style="fill:none;fill-rule:nonzero;stroke:rgb(43,153,120);stroke-width:0.05px;"/>
                        </g>
                        <g transform="matrix(1,0,0,1,1713.4336,1364.1245)">
                            <path d="M0,-11.81C-0.894,-10.373 -1.992,-8.807 -3.56,-8.769C-4.872,-8.737 -6.161,-9.825 -7.451,-9.612C-9.343,-9.299 -10.186,-6.411 -12.078,-6.101C-13.837,-5.814 -15.604,-7.931 -17.31,-7.41C-18.992,-6.896 -19.492,-4.129 -21.182,-3.639C-22.567,-3.237 -23.958,-4.574 -25.402,-4.857C-26.604,-5.093 -27.819,-4.556 -28.662,-3.614C-29.505,-2.671 -30,-1.361 -30.223,0" style="fill:none;fill-rule:nonzero;stroke:rgb(43,153,120);stroke-width:0.05px;"/>
                        </g>
                        <g transform="matrix(1,0,0,1,1713.8389,1362.2065)">
                            <path d="M0,-5.184C-1.09,-5.956 -1.882,-7.196 -2.874,-8.137C-3.866,-9.079 -5.292,-9.71 -6.33,-8.994C-7.221,-8.378 -7.471,-7.044 -7.729,-5.863C-7.987,-4.682 -8.469,-3.372 -9.495,-3.114C-10.315,-2.908 -11.185,-3.483 -11.802,-4.208C-12.42,-4.934 -12.882,-5.822 -13.513,-6.533C-14.143,-7.243 -15.039,-7.777 -15.843,-7.508C-16.614,-7.25 -17.061,-6.334 -17.243,-5.424C-17.427,-4.513 -17.42,-3.544 -17.649,-2.651C-17.879,-1.757 -18.437,-0.9 -19.243,-0.805C-20.206,-0.692 -21.049,-1.667 -21.644,-2.609C-22.238,-3.549 -22.857,-4.63 -23.813,-4.925C-25.067,-5.311 -26.221,-4.082 -26.633,-2.708C-27.045,-1.333 -26.979,0.204 -27.271,1.628C-27.563,3.05 -28.415,4.482 -29.689,4.526" style="fill:none;fill-rule:nonzero;stroke:rgb(43,153,120);stroke-width:0.05px;"/>
                        </g>
                        <g transform="matrix(1,0,0,1,1712.8438,1362.4136)">
                            <path d="M0,-11.646C-1.056,-11.283 -1.919,-10.325 -2.279,-9.119C-2.497,-8.39 -2.536,-7.594 -2.708,-6.846C-2.88,-6.099 -3.229,-5.354 -3.842,-5.064C-4.747,-4.635 -5.809,-5.353 -6.571,-6.163C-7.333,-6.972 -8.065,-7.956 -9.054,-8.219C-9.957,-8.46 -10.889,-8.006 -11.489,-7.248C-12.09,-6.489 -12.398,-5.466 -12.563,-4.433C-12.704,-3.542 -12.879,-2.437 -13.636,-2.227C-14.127,-2.09 -14.648,-2.427 -15.056,-2.821C-16.271,-3.992 -17.199,-5.864 -18.726,-6.121C-19.514,-6.254 -20.295,-5.883 -20.854,-5.277C-21.414,-4.671 -21.773,-3.85 -22.021,-2.999C-22.326,-1.954 -22.584,-0.698 -23.47,-0.308C-24.17,0 -25.005,-0.396 -25.606,-0.988C-26.209,-1.58 -26.659,-2.351 -27.215,-3.001C-28.273,-4.24 -29.726,-5.009 -31.183,-5.103" style="fill:none;fill-rule:nonzero;stroke:rgb(43,153,120);stroke-width:0.05px;"/>
                        </g>
                        <g transform="matrix(1,0,0,1,1711.6797,1349.1623)">
                            <path d="M0,19.282C-0.146,17.917 -0.368,16.411 -1.412,15.715C-3.152,14.554 -6.102,16.344 -7.691,14.982C-8.465,14.319 -8.624,13.127 -8.827,12.049C-9.029,10.97 -9.417,9.806 -10.387,9.475C-11.938,8.945 -13.861,10.877 -15.436,10.404C-16.637,10.045 -16.976,8.506 -17.167,7.171C-17.357,5.836 -17.714,4.3 -18.926,3.965C-19.845,3.711 -20.882,4.271 -21.814,4.781C-22.748,5.291 -23.836,5.779 -24.693,5.385C-25.482,5.02 -25.781,4.035 -25.951,3.115C-26.137,2.099 -26.246,1.056 -26.277,0" style="fill:none;fill-rule:nonzero;stroke:rgb(43,153,120);stroke-width:0.05px;"/>
                        </g>
                        <g transform="matrix(1,0,0,1,1712.9487,1352.2638)">
                            <path d="M0,13.826C-1.647,14.211 -3.532,14.541 -4.667,13.46C-5.619,12.555 -5.761,10.873 -6.824,10.112C-8.382,8.996 -11.021,10.441 -12.578,9.323C-14.024,8.282 -13.776,5.535 -15.352,4.699C-16.904,3.871 -19.214,5.474 -20.756,4.627C-22.02,3.931 -22.058,2.002 -22.879,0.781C-23.561,-0.236 -24.801,-0.715 -26.063,-0.645C-27.325,-0.574 -28.602,0.002 -29.721,0.806" style="fill:none;fill-rule:nonzero;stroke:rgb(43,153,120);stroke-width:0.05px;"/>
                        </g>
                        <g transform="matrix(1,0,0,1,1709.9063,1351.8911)">
                            <path d="M0,17.815C-0.225,16.498 0.091,15.062 0.056,13.695C0.02,12.328 -0.542,10.873 -1.782,10.645C-2.847,10.451 -3.967,11.216 -4.985,11.871C-6.003,12.522 -7.27,13.109 -8.178,12.564C-8.904,12.13 -9.112,11.109 -9.035,10.16C-8.959,9.21 -8.658,8.255 -8.602,7.306C-8.545,6.359 -8.801,5.347 -9.559,4.968C-10.287,4.606 -11.25,4.937 -12.023,5.453C-12.797,5.966 -13.478,6.657 -14.271,7.127C-15.066,7.595 -16.066,7.808 -16.703,7.304C-17.464,6.703 -17.371,5.418 -17.125,4.332C-16.881,3.246 -16.554,2.044 -17.022,1.16C-17.636,0 -19.32,0.052 -20.583,0.733C-21.847,1.414 -22.886,2.548 -24.1,3.348C-25.313,4.147 -26.928,4.557 -27.86,3.687" style="fill:none;fill-rule:nonzero;stroke:rgb(43,153,120);stroke-width:0.05px;"/>
                        </g>
                        <g transform="matrix(1,0,0,1,1713.6255,1349.3221)">
                            <path d="M0,15.258C-1.003,14.768 -2.291,14.834 -3.399,15.433C-4.068,15.793 -4.659,16.329 -5.309,16.737C-5.959,17.143 -6.732,17.424 -7.371,17.195C-8.314,16.858 -8.557,15.6 -8.524,14.488C-8.49,13.377 -8.313,12.164 -8.825,11.278C-9.293,10.469 -10.273,10.131 -11.235,10.243C-12.195,10.356 -13.137,10.86 -13.983,11.475C-14.714,12.005 -15.619,12.662 -16.302,12.276C-16.747,12.025 -16.877,11.418 -16.886,10.852C-16.918,9.164 -16.251,7.184 -17.148,5.924C-17.611,5.272 -18.426,4.981 -19.25,5.015C-20.074,5.047 -20.909,5.373 -21.687,5.801C-22.641,6.324 -23.711,7.029 -24.613,6.679C-25.326,6.402 -25.636,5.531 -25.644,4.688C-25.651,3.843 -25.424,2.979 -25.357,2.126C-25.229,0.502 -25.712,-1.069 -26.676,-2.166" style="fill:none;fill-rule:nonzero;stroke:rgb(43,153,120);stroke-width:0.05px;"/>
                        </g>
                        <g transform="matrix(1,0,0,1,1700.3018,1344.0389)">
                            <path d="M0,32.215C0.862,31.147 1.77,29.924 1.523,28.694C1.113,26.644 -2.237,25.823 -2.398,23.736C-2.477,22.72 -1.746,21.765 -1.127,20.859C-0.508,19.953 0.041,18.857 -0.41,17.936C-1.132,16.464 -3.857,16.47 -4.638,15.023C-5.232,13.918 -4.385,12.591 -3.575,11.512C-2.766,10.434 -1.932,9.095 -2.552,8.001C-3.022,7.172 -4.152,6.835 -5.172,6.536C-6.192,6.236 -7.307,5.812 -7.634,4.927C-7.935,4.111 -7.449,3.203 -6.918,2.433C-6.332,1.583 -5.672,0.769 -4.946,0" style="fill:none;fill-rule:nonzero;stroke:rgb(43,153,120);stroke-width:0.05px;"/>
                        </g>
                        <g transform="matrix(1,0,0,1,1702.8633,1345.2633)">
                            <path d="M0,30.223C-1.437,29.329 -3.003,28.231 -3.041,26.663C-3.073,25.351 -1.985,24.062 -2.198,22.772C-2.511,20.88 -5.399,20.037 -5.709,18.145C-5.996,16.386 -3.879,14.619 -4.4,12.913C-4.914,11.231 -7.681,10.731 -8.171,9.041C-8.573,7.656 -7.236,6.265 -6.953,4.821C-6.717,3.619 -7.254,2.404 -8.196,1.561C-9.139,0.718 -10.449,0.223 -11.81,0" style="fill:none;fill-rule:nonzero;stroke:rgb(43,153,120);stroke-width:0.05px;"/>
                        </g>
                        <g transform="matrix(1,0,0,1,1698.1553,1346.2026)">
                            <path d="M0,29.689C0.772,28.599 2.012,27.807 2.953,26.815C3.895,25.823 4.526,24.397 3.81,23.359C3.194,22.468 1.86,22.218 0.679,21.96C-0.502,21.702 -1.812,21.22 -2.07,20.194C-2.276,19.374 -1.701,18.504 -0.976,17.887C-0.25,17.269 0.638,16.807 1.349,16.176C2.059,15.546 2.593,14.65 2.324,13.846C2.066,13.075 1.15,12.628 0.24,12.446C-0.671,12.262 -1.64,12.269 -2.533,12.04C-3.427,11.81 -4.284,11.252 -4.379,10.446C-4.492,9.483 -3.517,8.64 -2.575,8.045C-1.635,7.451 -0.554,6.832 -0.259,5.876C0.127,4.622 -1.102,3.468 -2.476,3.056C-3.851,2.644 -5.388,2.71 -6.812,2.418C-8.234,2.126 -9.666,1.274 -9.71,0" style="fill:none;fill-rule:nonzero;stroke:rgb(43,153,120);stroke-width:0.05px;"/>
                        </g>
                        <g transform="matrix(1,0,0,1,1704.4102,1343.7135)">
                            <path d="M0,31.183C-0.363,30.127 -1.321,29.264 -2.527,28.904C-3.256,28.686 -4.052,28.647 -4.8,28.475C-5.547,28.303 -6.292,27.954 -6.582,27.341C-7.011,26.436 -6.293,25.374 -5.483,24.612C-4.674,23.85 -3.69,23.118 -3.427,22.129C-3.186,21.226 -3.64,20.294 -4.398,19.694C-5.157,19.093 -6.18,18.785 -7.213,18.62C-8.104,18.479 -9.209,18.304 -9.419,17.547C-9.556,17.056 -9.219,16.535 -8.825,16.127C-7.654,14.912 -5.782,13.984 -5.525,12.457C-5.392,11.669 -5.763,10.888 -6.369,10.329C-6.975,9.769 -7.796,9.41 -8.647,9.162C-9.692,8.857 -10.948,8.599 -11.338,7.713C-11.646,7.013 -11.25,6.178 -10.658,5.577C-10.066,4.974 -9.295,4.524 -8.645,3.968C-7.406,2.91 -6.637,1.457 -6.543,0" style="fill:none;fill-rule:nonzero;stroke:rgb(43,153,120);stroke-width:0.05px;"/>
                        </g>
                        <g transform="matrix(1,0,0,1,1686.7334,1347.4544)">
                            <path d="M0,26.277C1.365,26.131 2.871,25.909 3.567,24.865C4.728,23.125 2.938,20.175 4.3,18.586C4.963,17.812 6.155,17.653 7.233,17.45C8.312,17.248 9.476,16.86 9.807,15.89C10.337,14.339 8.405,12.416 8.878,10.841C9.237,9.64 10.776,9.301 12.111,9.11C13.446,8.92 14.982,8.563 15.317,7.351C15.571,6.432 15.011,5.395 14.501,4.463C13.991,3.529 13.503,2.441 13.897,1.584C14.262,0.795 15.247,0.496 16.167,0.326C17.183,0.14 18.226,0.031 19.282,0" style="fill:none;fill-rule:nonzero;stroke:rgb(43,153,120);stroke-width:0.05px;"/>
                        </g>
                        <g transform="matrix(1,0,0,1,1689.0879,1345.2795)">
                            <path d="M0,29.721C-0.385,28.074 -0.715,26.189 0.366,25.054C1.271,24.102 2.953,23.96 3.714,22.897C4.83,21.339 3.385,18.7 4.503,17.143C5.544,15.697 8.291,15.945 9.127,14.369C9.955,12.817 8.352,10.507 9.199,8.965C9.895,7.701 11.824,7.663 13.045,6.842C14.062,6.16 14.541,4.92 14.471,3.658C14.4,2.396 13.824,1.119 13.02,0" style="fill:none;fill-rule:nonzero;stroke:rgb(43,153,120);stroke-width:0.05px;"/>
                        </g>
                        <g transform="matrix(1,0,0,1,1685.4717,1344.189)">
                            <path d="M0,27.769C1.317,27.544 2.753,27.86 4.12,27.825C5.487,27.789 6.942,27.227 7.17,25.987C7.364,24.922 6.599,23.802 5.944,22.784C5.293,21.766 4.706,20.499 5.251,19.591C5.685,18.865 6.706,18.657 7.655,18.734C8.605,18.81 9.56,19.111 10.509,19.167C11.456,19.224 12.468,18.968 12.847,18.21C13.209,17.482 12.878,16.519 12.362,15.746C11.849,14.972 11.158,14.291 10.688,13.498C10.22,12.703 10.007,11.703 10.511,11.066C11.112,10.305 12.397,10.398 13.483,10.644C14.569,10.888 15.771,11.215 16.655,10.747C17.815,10.133 17.763,8.449 17.082,7.186C16.401,5.922 15.267,4.883 14.467,3.669C13.668,2.456 13.258,0.841 14.128,-0.091" style="fill:none;fill-rule:nonzero;stroke:rgb(43,153,120);stroke-width:0.05px;"/>
                        </g>
                        <g transform="matrix(1,0,0,1,1690.5977,1349.0012)">
                            <path d="M0,26.676C0.49,25.673 0.424,24.385 -0.175,23.277C-0.535,22.608 -1.071,22.017 -1.479,21.367C-1.885,20.717 -2.166,19.944 -1.937,19.305C-1.6,18.362 -0.342,18.119 0.77,18.152C1.881,18.186 3.094,18.363 3.98,17.851C4.789,17.383 5.127,16.403 5.015,15.441C4.902,14.481 4.398,13.539 3.783,12.693C3.253,11.962 2.596,11.057 2.982,10.374C3.233,9.929 3.84,9.799 4.406,9.79C6.094,9.758 8.074,10.425 9.334,9.528C9.986,9.065 10.277,8.25 10.243,7.426C10.211,6.602 9.885,5.767 9.457,4.989C8.934,4.035 8.229,2.965 8.579,2.063C8.856,1.35 9.727,1.04 10.57,1.032C11.415,1.025 12.279,1.252 13.132,1.319C14.756,1.447 16.327,0.964 17.424,0" style="fill:none;fill-rule:nonzero;stroke:rgb(43,153,120);stroke-width:0.05px;"/>
                        </g>
                        <g transform="matrix(1,0,0,1,1678.9238,1356.1895)">
                            <path d="M0,6.165C1.068,7.027 2.291,7.935 3.521,7.688C5.571,7.278 6.392,3.928 8.479,3.767C9.495,3.688 10.45,4.419 11.356,5.038C12.262,5.657 13.358,6.206 14.279,5.755C15.751,5.033 15.745,2.308 17.192,1.527C18.297,0.933 19.624,1.78 20.703,2.59C21.781,3.399 23.12,4.233 24.214,3.613C25.043,3.143 25.38,2.013 25.679,0.993C25.979,-0.027 26.403,-1.142 27.288,-1.469C28.104,-1.77 29.012,-1.284 29.782,-0.753C30.632,-0.167 31.446,0.493 32.215,1.219" style="fill:none;fill-rule:nonzero;stroke:rgb(43,153,120);stroke-width:0.05px;"/>
                        </g>
                        <g transform="matrix(1,0,0,1,1679.6914,1353.106)">
                            <path d="M0,11.81C0.894,10.373 1.992,8.807 3.56,8.769C4.872,8.737 6.161,9.825 7.451,9.612C9.343,9.299 10.186,6.411 12.078,6.101C13.837,5.814 15.604,7.931 17.31,7.41C18.992,6.896 19.492,4.129 21.182,3.639C22.567,3.237 23.958,4.574 25.402,4.857C26.604,5.093 27.819,4.556 28.662,3.614C29.505,2.671 30,1.361 30.223,0" style="fill:none;fill-rule:nonzero;stroke:rgb(43,153,120);stroke-width:0.05px;"/>
                        </g>
                        <g transform="matrix(1,0,0,1,1679.2861,1355.024)">
                            <path d="M0,5.184C1.09,5.956 1.882,7.196 2.874,8.137C3.866,9.079 5.292,9.71 6.33,8.994C7.221,8.378 7.471,7.044 7.729,5.863C7.987,4.682 8.469,3.372 9.495,3.114C10.315,2.908 11.185,3.483 11.802,4.208C12.42,4.934 12.882,5.822 13.513,6.533C14.143,7.243 15.039,7.777 15.843,7.508C16.614,7.25 17.061,6.334 17.243,5.424C17.427,4.513 17.42,3.544 17.649,2.651C17.879,1.757 18.437,0.9 19.243,0.805C20.206,0.692 21.049,1.667 21.644,2.609C22.238,3.549 22.857,4.63 23.813,4.925C25.067,5.311 26.221,4.082 26.633,2.708C27.045,1.333 26.979,-0.204 27.271,-1.628C27.563,-3.05 28.415,-4.482 29.689,-4.526" style="fill:none;fill-rule:nonzero;stroke:rgb(43,153,120);stroke-width:0.05px;"/>
                        </g>
                        <g transform="matrix(1,0,0,1,1680.2813,1354.8169)">
                            <path d="M0,11.646C1.056,11.283 1.919,10.325 2.279,9.119C2.497,8.39 2.536,7.594 2.708,6.846C2.88,6.099 3.229,5.354 3.842,5.064C4.747,4.635 5.809,5.353 6.571,6.163C7.333,6.972 8.065,7.956 9.054,8.219C9.957,8.46 10.889,8.006 11.489,7.248C12.09,6.489 12.398,5.466 12.563,4.433C12.704,3.542 12.879,2.437 13.636,2.227C14.127,2.09 14.648,2.427 15.056,2.821C16.271,3.992 17.199,5.864 18.726,6.121C19.514,6.254 20.295,5.883 20.854,5.277C21.414,4.671 21.773,3.85 22.021,2.999C22.326,1.954 22.584,0.698 23.47,0.308C24.17,0 25.005,0.396 25.606,0.988C26.209,1.58 26.659,2.351 27.215,3.001C28.273,4.24 29.726,5.009 31.183,5.103" style="fill:none;fill-rule:nonzero;stroke:rgb(43,153,120);stroke-width:0.05px;"/>
                        </g>
                        <g transform="matrix(1,0,0,1,1681.4463,1368.0681)">
                            <path d="M0,-19.282C0.146,-17.917 0.368,-16.411 1.412,-15.715C3.152,-14.554 6.102,-16.344 7.691,-14.982C8.465,-14.319 8.624,-13.127 8.827,-12.049C9.029,-10.97 9.417,-9.806 10.387,-9.475C11.938,-8.945 13.861,-10.877 15.436,-10.404C16.637,-10.045 16.976,-8.506 17.167,-7.171C17.357,-5.836 17.714,-4.3 18.926,-3.965C19.845,-3.711 20.882,-4.271 21.814,-4.781C22.748,-5.291 23.836,-5.779 24.693,-5.385C25.482,-5.02 25.781,-4.035 25.951,-3.115C26.137,-2.099 26.246,-1.056 26.277,0" style="fill:none;fill-rule:nonzero;stroke:rgb(43,153,120);stroke-width:0.05px;"/>
                        </g>
                        <g transform="matrix(1,0,0,1,1680.1772,1364.9666)">
                            <path d="M0,-13.826C1.647,-14.211 3.532,-14.541 4.667,-13.46C5.619,-12.555 5.761,-10.873 6.824,-10.112C8.382,-8.996 11.021,-10.441 12.578,-9.323C14.024,-8.282 13.776,-5.535 15.352,-4.699C16.904,-3.871 19.214,-5.474 20.756,-4.627C22.02,-3.931 22.058,-2.002 22.879,-0.781C23.561,0.236 24.801,0.715 26.063,0.645C27.325,0.574 28.602,-0.002 29.721,-0.806" style="fill:none;fill-rule:nonzero;stroke:rgb(43,153,120);stroke-width:0.05px;"/>
                        </g>
                        <g transform="matrix(1,0,0,1,1683.2197,1365.3394)">
                            <path d="M0,-17.815C0.225,-16.498 -0.091,-15.062 -0.056,-13.695C-0.02,-12.328 0.542,-10.873 1.782,-10.645C2.847,-10.451 3.967,-11.216 4.985,-11.871C6.003,-12.522 7.27,-13.109 8.178,-12.564C8.904,-12.13 9.112,-11.109 9.035,-10.16C8.959,-9.21 8.658,-8.255 8.602,-7.306C8.545,-6.359 8.801,-5.347 9.559,-4.968C10.287,-4.606 11.25,-4.937 12.023,-5.453C12.797,-5.966 13.478,-6.657 14.271,-7.127C15.066,-7.595 16.066,-7.808 16.703,-7.304C17.464,-6.703 17.371,-5.418 17.125,-4.332C16.881,-3.246 16.554,-2.044 17.022,-1.16C17.636,0 19.32,-0.052 20.583,-0.733C21.847,-1.414 22.886,-2.548 24.1,-3.348C25.313,-4.147 26.928,-4.557 27.86,-3.687" style="fill:none;fill-rule:nonzero;stroke:rgb(43,153,120);stroke-width:0.05px;"/>
                        </g>
                        <g transform="matrix(1,0,0,1,1679.5005,1367.9084)">
                            <path d="M0,-15.258C1.003,-14.768 2.291,-14.834 3.399,-15.433C4.068,-15.793 4.659,-16.329 5.309,-16.737C5.959,-17.143 6.732,-17.424 7.371,-17.195C8.314,-16.858 8.557,-15.6 8.524,-14.488C8.49,-13.377 8.313,-12.164 8.825,-11.278C9.293,-10.469 10.273,-10.131 11.235,-10.243C12.195,-10.356 13.137,-10.86 13.983,-11.475C14.714,-12.005 15.619,-12.662 16.302,-12.276C16.747,-12.025 16.877,-11.418 16.886,-10.852C16.918,-9.164 16.251,-7.184 17.148,-5.924C17.611,-5.272 18.426,-4.981 19.25,-5.015C20.074,-5.047 20.909,-5.373 21.687,-5.801C22.641,-6.324 23.711,-7.029 24.613,-6.679C25.326,-6.402 25.636,-5.531 25.644,-4.688C25.651,-3.843 25.424,-2.979 25.357,-2.126C25.229,-0.502 25.712,1.069 26.676,2.166" style="fill:none;fill-rule:nonzero;stroke:rgb(43,153,120);stroke-width:0.05px;"/>
                        </g>
                        <g transform="matrix(1,0,0,1,1692.8232,1373.1916)">
                            <path d="M0,-32.215C-0.862,-31.147 -1.77,-29.924 -1.523,-28.694C-1.113,-26.644 2.237,-25.823 2.398,-23.736C2.477,-22.72 1.746,-21.765 1.127,-20.859C0.508,-19.953 -0.041,-18.857 0.41,-17.936C1.132,-16.464 3.857,-16.47 4.638,-15.023C5.232,-13.918 4.385,-12.591 3.575,-11.512C2.766,-10.434 1.932,-9.095 2.552,-8.001C3.022,-7.172 4.152,-6.835 5.172,-6.536C6.192,-6.236 7.307,-5.812 7.634,-4.927C7.935,-4.111 7.449,-3.203 6.918,-2.433C6.332,-1.583 5.672,-0.769 4.946,0" style="fill:none;fill-rule:nonzero;stroke:rgb(43,153,120);stroke-width:0.05px;"/>
                        </g>
                        <g transform="matrix(1,0,0,1,1690.2617,1371.9671)">
                            <path d="M0,-30.223C1.437,-29.329 3.003,-28.231 3.041,-26.663C3.073,-25.351 1.985,-24.062 2.198,-22.772C2.511,-20.88 5.399,-20.037 5.709,-18.145C5.996,-16.386 3.879,-14.619 4.4,-12.913C4.914,-11.231 7.681,-10.731 8.171,-9.041C8.573,-7.656 7.236,-6.265 6.953,-4.821C6.717,-3.619 7.254,-2.404 8.196,-1.561C9.139,-0.718 10.449,-0.223 11.81,0" style="fill:none;fill-rule:nonzero;stroke:rgb(43,153,120);stroke-width:0.05px;"/>
                        </g>
                        <g transform="matrix(1,0,0,1,1694.9697,1371.0279)">
                            <path d="M0,-29.689C-0.772,-28.599 -2.012,-27.807 -2.953,-26.815C-3.895,-25.823 -4.526,-24.397 -3.81,-23.359C-3.194,-22.468 -1.86,-22.218 -0.679,-21.96C0.502,-21.702 1.812,-21.22 2.07,-20.194C2.276,-19.374 1.701,-18.504 0.976,-17.887C0.25,-17.269 -0.638,-16.807 -1.349,-16.176C-2.059,-15.546 -2.593,-14.65 -2.324,-13.846C-2.066,-13.075 -1.15,-12.628 -0.24,-12.446C0.671,-12.262 1.64,-12.269 2.533,-12.04C3.427,-11.81 4.284,-11.252 4.379,-10.446C4.492,-9.483 3.517,-8.64 2.575,-8.045C1.635,-7.451 0.554,-6.832 0.259,-5.876C-0.127,-4.622 1.102,-3.468 2.476,-3.056C3.851,-2.644 5.388,-2.71 6.812,-2.418C8.234,-2.126 9.666,-1.274 9.71,0" style="fill:none;fill-rule:nonzero;stroke:rgb(43,153,120);stroke-width:0.05px;"/>
                        </g>
                        <g transform="matrix(1,0,0,1,1688.7148,1373.517)">
                            <path d="M0,-31.183C0.363,-30.127 1.321,-29.264 2.527,-28.904C3.256,-28.686 4.052,-28.647 4.8,-28.475C5.547,-28.303 6.292,-27.954 6.582,-27.341C7.011,-26.436 6.293,-25.374 5.483,-24.612C4.674,-23.85 3.69,-23.118 3.427,-22.129C3.186,-21.226 3.64,-20.294 4.398,-19.694C5.157,-19.093 6.18,-18.785 7.213,-18.62C8.104,-18.479 9.209,-18.304 9.419,-17.547C9.556,-17.056 9.219,-16.535 8.825,-16.127C7.654,-14.912 5.782,-13.984 5.525,-12.457C5.392,-11.669 5.763,-10.888 6.369,-10.329C6.975,-9.769 7.796,-9.41 8.647,-9.162C9.692,-8.857 10.948,-8.599 11.338,-7.713C11.646,-7.013 11.25,-6.178 10.658,-5.577C10.066,-4.974 9.295,-4.524 8.645,-3.968C7.406,-2.91 6.637,-1.457 6.543,0" style="fill:none;fill-rule:nonzero;stroke:rgb(43,153,120);stroke-width:0.05px;"/>
                        </g>
                        <g transform="matrix(1,0,0,1,1706.3916,1369.776)">
                            <path d="M0,-26.277C-1.365,-26.131 -2.871,-25.909 -3.567,-24.865C-4.728,-23.125 -2.938,-20.175 -4.3,-18.586C-4.963,-17.812 -6.155,-17.653 -7.233,-17.45C-8.312,-17.248 -9.476,-16.86 -9.807,-15.89C-10.337,-14.339 -8.405,-12.416 -8.878,-10.841C-9.237,-9.64 -10.776,-9.301 -12.111,-9.11C-13.446,-8.92 -14.982,-8.563 -15.317,-7.351C-15.571,-6.432 -15.011,-5.395 -14.501,-4.463C-13.991,-3.529 -13.503,-2.441 -13.897,-1.584C-14.262,-0.795 -15.247,-0.496 -16.167,-0.326C-17.183,-0.14 -18.226,-0.031 -19.282,0" style="fill:none;fill-rule:nonzero;stroke:rgb(43,153,120);stroke-width:0.05px;"/>
                        </g>
                        <g transform="matrix(1,0,0,1,1704.0371,1371.951)">
                            <path d="M0,-29.721C0.385,-28.074 0.715,-26.189 -0.366,-25.054C-1.271,-24.102 -2.953,-23.96 -3.714,-22.897C-4.83,-21.339 -3.385,-18.7 -4.503,-17.143C-5.544,-15.697 -8.291,-15.945 -9.127,-14.369C-9.955,-12.817 -8.352,-10.507 -9.199,-8.965C-9.895,-7.701 -11.824,-7.663 -13.045,-6.842C-14.062,-6.16 -14.541,-4.92 -14.471,-3.658C-14.4,-2.396 -13.824,-1.119 -13.02,0" style="fill:none;fill-rule:nonzero;stroke:rgb(43,153,120);stroke-width:0.05px;"/>
                        </g>
                        <g transform="matrix(1,0,0,1,1707.6533,1373.0415)">
                            <path d="M0,-27.769C-1.317,-27.544 -2.753,-27.86 -4.12,-27.825C-5.487,-27.789 -6.942,-27.227 -7.17,-25.987C-7.364,-24.922 -6.599,-23.802 -5.944,-22.784C-5.293,-21.766 -4.706,-20.499 -5.251,-19.591C-5.685,-18.865 -6.706,-18.657 -7.655,-18.734C-8.605,-18.81 -9.56,-19.111 -10.509,-19.167C-11.456,-19.224 -12.468,-18.968 -12.847,-18.21C-13.209,-17.482 -12.878,-16.519 -12.362,-15.746C-11.849,-14.972 -11.158,-14.291 -10.688,-13.498C-10.22,-12.703 -10.007,-11.703 -10.511,-11.066C-11.112,-10.305 -12.397,-10.398 -13.483,-10.644C-14.569,-10.888 -15.771,-11.215 -16.655,-10.747C-17.815,-10.133 -17.763,-8.449 -17.082,-7.186C-16.401,-5.922 -15.267,-4.883 -14.467,-3.669C-13.668,-2.456 -13.258,-0.841 -14.128,0.091" style="fill:none;fill-rule:nonzero;stroke:rgb(43,153,120);stroke-width:0.05px;"/>
                        </g>
                        <g transform="matrix(1,0,0,1,1702.5273,1368.2292)">
                            <path d="M0,-26.676C-0.49,-25.673 -0.424,-24.385 0.175,-23.277C0.535,-22.608 1.071,-22.017 1.479,-21.367C1.885,-20.717 2.166,-19.944 1.937,-19.305C1.6,-18.362 0.342,-18.119 -0.77,-18.152C-1.881,-18.186 -3.094,-18.363 -3.98,-17.851C-4.789,-17.383 -5.127,-16.403 -5.015,-15.441C-4.902,-14.481 -4.398,-13.539 -3.783,-12.693C-3.253,-11.962 -2.596,-11.057 -2.982,-10.374C-3.233,-9.929 -3.84,-9.799 -4.406,-9.79C-6.094,-9.758 -8.074,-10.425 -9.334,-9.528C-9.986,-9.065 -10.277,-8.25 -10.243,-7.426C-10.211,-6.602 -9.885,-5.767 -9.457,-4.989C-8.934,-4.035 -8.229,-2.965 -8.579,-2.063C-8.856,-1.35 -9.727,-1.04 -10.57,-1.032C-11.415,-1.025 -12.279,-1.252 -13.132,-1.319C-14.756,-1.447 -16.327,-0.964 -17.424,0" style="fill:none;fill-rule:nonzero;stroke:rgb(43,153,120);stroke-width:0.05px;"/>
                        </g>
                        <g transform="matrix(1,0,0,1,1716.7773,1368.4896)">
                            <path d="M0,-24.013C-1.806,-24.528 -3.831,-25.017 -5.249,-24.048C-7.611,-22.436 -6.854,-17.779 -9.397,-16.459C-10.634,-15.818 -12.227,-16.227 -13.699,-16.523C-15.171,-16.819 -16.845,-16.924 -17.764,-15.863C-19.231,-14.167 -17.767,-10.738 -19.172,-8.982C-20.245,-7.642 -22.37,-7.999 -24.161,-8.443C-25.952,-8.886 -28.084,-9.22 -29.13,-7.855C-29.923,-6.82 -29.742,-5.216 -29.574,-3.772C-29.406,-2.326 -29.346,-0.698 -30.284,0.187C-31.15,1.004 -32.554,0.878 -33.809,0.62C-35.191,0.337 -36.569,-0.06 -37.927,-0.563" style="fill:none;fill-rule:nonzero;stroke:rgb(43,153,120);stroke-width:0.06px;"/>
                        </g>
                        <g transform="matrix(1,0,0,1,1714.4414,1372.6901)">
                            <path d="M0,-31.028C-0.357,-28.742 -0.903,-26.182 -2.857,-25.296C-4.492,-24.553 -6.697,-25.235 -8.208,-24.277C-10.425,-22.873 -9.94,-18.784 -12.159,-17.382C-14.22,-16.081 -17.577,-17.802 -19.447,-16.234C-21.292,-14.687 -20.441,-10.936 -22.307,-9.416C-23.838,-8.169 -26.304,-9.108 -28.273,-8.694C-29.913,-8.348 -31.157,-7.022 -31.715,-5.384C-32.272,-3.747 -32.195,-1.833 -31.748,0" style="fill:none;fill-rule:nonzero;stroke:rgb(43,153,120);stroke-width:0.06px;"/>
                        </g>
                        <g transform="matrix(1,0,0,1,1717.4688,1372.601)">
                            <path d="M0,-25.227C-1.786,-25.618 -3.445,-26.754 -5.198,-27.41C-6.951,-28.064 -9.085,-28.099 -10.009,-26.641C-10.801,-25.39 -10.403,-23.576 -10.097,-21.951C-9.79,-20.326 -9.696,-18.417 -10.852,-17.544C-11.774,-16.846 -13.177,-17.106 -14.342,-17.69C-15.507,-18.273 -16.564,-19.144 -17.737,-19.702C-18.911,-20.26 -20.326,-20.454 -21.194,-19.685C-22.027,-18.948 -22.101,-17.557 -21.844,-16.312C-21.588,-15.067 -21.062,-13.85 -20.873,-12.602C-20.685,-11.354 -20.928,-9.976 -21.894,-9.426C-23.045,-8.769 -24.629,-9.546 -25.881,-10.414C-27.132,-11.281 -28.49,-12.311 -29.852,-12.171C-31.637,-11.988 -32.433,-9.824 -32.217,-7.873C-32.001,-5.921 -31.095,-4.02 -30.702,-2.072C-30.311,-0.123 -30.618,2.136 -32.199,2.872" style="fill:none;fill-rule:nonzero;stroke:rgb(43,153,120);stroke-width:0.06px;"/>
                        </g>
                        <g transform="matrix(1,0,0,1,1712.8711,1367.6153)">
                            <path d="M0,-27.587C-1.135,-26.565 -1.71,-24.897 -1.519,-23.185C-1.403,-22.151 -1.028,-21.128 -0.845,-20.095C-0.661,-19.062 -0.702,-17.937 -1.318,-17.244C-2.23,-16.22 -3.951,-16.556 -5.344,-17.168C-6.736,-17.78 -8.185,-18.627 -9.569,-18.432C-10.837,-18.253 -11.768,-17.182 -12.117,-15.905C-12.468,-14.629 -12.311,-13.177 -11.964,-11.787C-11.665,-10.589 -11.296,-9.105 -12.137,-8.436C-12.683,-8 -13.52,-8.147 -14.242,-8.424C-16.398,-9.249 -18.568,-11.11 -20.629,-10.618C-21.691,-10.365 -22.478,-9.481 -22.858,-8.418C-23.239,-7.356 -23.252,-6.13 -23.11,-4.924C-22.936,-3.446 -22.589,-1.727 -23.496,-0.762C-24.212,0 -25.476,-0.053 -26.55,-0.476C-27.624,-0.899 -28.604,-1.63 -29.651,-2.151C-31.646,-3.146 -33.887,-3.338 -35.771,-2.678" style="fill:none;fill-rule:nonzero;stroke:rgb(43,153,120);stroke-width:0.06px;"/>
                        </g>
                        <g transform="matrix(1,0,0,1,1720.855,1352.6761)">
                            <path d="M0,10.236C-0.913,8.595 -1.999,6.818 -3.687,6.5C-6.497,5.97 -9.254,9.799 -11.986,8.933C-13.314,8.512 -14.151,7.096 -14.983,5.845C-15.814,4.595 -16.923,3.338 -18.324,3.439C-20.561,3.599 -21.95,7.06 -24.185,7.308C-25.892,7.498 -27.141,5.742 -28.094,4.162C-29.047,2.582 -30.318,0.838 -32.023,1.064C-33.316,1.235 -34.322,2.497 -35.225,3.636C-36.128,4.777 -37.237,5.972 -38.526,5.934C-39.716,5.899 -40.619,4.818 -41.324,3.748C-42.102,2.57 -42.795,1.315 -43.4,0" style="fill:none;fill-rule:nonzero;stroke:rgb(43,153,120);stroke-width:0.06px;"/>
                        </g>
                        <g transform="matrix(1,0,0,1,1721.1934,1356.9445)">
                            <path d="M0,2.326C-1.869,3.69 -4.065,5.114 -6.074,4.358C-7.754,3.727 -8.832,1.686 -10.577,1.296C-13.138,0.722 -15.687,3.955 -18.247,3.378C-20.624,2.841 -21.781,-0.751 -24.212,-0.964C-26.61,-1.175 -28.661,2.079 -31.055,1.835C-33.02,1.634 -34.099,-0.775 -35.785,-1.874C-37.189,-2.788 -39.006,-2.731 -40.559,-1.967C-42.11,-1.203 -43.41,0.204 -44.39,1.817" style="fill:none;fill-rule:nonzero;stroke:rgb(43,153,120);stroke-width:0.06px;"/>
                        </g>
                        <g transform="matrix(1,0,0,1,1719.2949,1352.4412)">
                            <path d="M0,13.009C-0.986,11.47 -1.356,9.492 -2.132,7.789C-2.909,6.088 -4.393,4.554 -6.077,4.932C-7.521,5.256 -8.523,6.821 -9.456,8.186C-10.388,9.553 -11.671,10.967 -13.105,10.768C-14.251,10.61 -15.06,9.434 -15.471,8.197C-15.882,6.961 -16.014,5.598 -16.449,4.373C-16.884,3.149 -17.748,2.012 -18.905,1.942C-20.016,1.873 -21.051,2.805 -21.75,3.867C-22.449,4.928 -22.937,6.16 -23.687,7.177C-24.436,8.193 -25.582,8.994 -26.654,8.701C-27.932,8.352 -28.503,6.682 -28.775,5.184C-29.046,3.686 -29.278,1.996 -30.339,1.133C-31.732,0 -33.825,0.967 -35.052,2.5C-36.279,4.031 -36.983,6.018 -38.083,7.672C-39.183,9.326 -40.999,10.707 -42.637,10.11" style="fill:none;fill-rule:nonzero;stroke:rgb(43,153,120);stroke-width:0.06px;"/>
                        </g>
                        <g transform="matrix(1,0,0,1,1721.2383,1355.7839)">
                            <path d="M0,1.221C-1.525,1.142 -3.111,1.914 -4.187,3.26C-4.835,4.072 -5.294,5.062 -5.895,5.921C-6.496,6.783 -7.32,7.548 -8.246,7.603C-9.615,7.681 -10.594,6.228 -11.146,4.81C-11.697,3.392 -12.123,1.769 -13.24,0.928C-14.263,0.159 -15.678,0.257 -16.828,0.913C-17.979,1.568 -18.894,2.706 -19.631,3.933C-20.268,4.992 -21.056,6.302 -22.124,6.181C-22.818,6.103 -23.306,5.408 -23.621,4.7C-24.562,2.593 -24.781,-0.258 -26.585,-1.368C-27.516,-1.939 -28.697,-1.87 -29.718,-1.387C-30.738,-0.906 -31.614,-0.048 -32.367,0.906C-33.288,2.074 -34.259,3.534 -35.583,3.575C-36.627,3.608 -37.483,2.677 -37.944,1.618C-38.405,0.56 -38.58,-0.65 -38.953,-1.76C-39.66,-3.874 -41.108,-5.594 -42.908,-6.46" style="fill:none;fill-rule:nonzero;stroke:rgb(43,153,120);stroke-width:0.06px;"/>
                        </g>
                        <g transform="matrix(1,0,0,1,1710.7012,1340.9031)">
                            <path d="M0,37.927C0.515,36.121 1.004,34.096 0.035,32.678C-1.577,30.316 -6.234,31.073 -7.554,28.53C-8.195,27.293 -7.786,25.7 -7.49,24.228C-7.194,22.756 -7.089,21.082 -8.15,20.163C-9.846,18.696 -13.275,20.16 -15.031,18.755C-16.371,17.682 -16.014,15.557 -15.57,13.766C-15.127,11.975 -14.793,9.843 -16.158,8.797C-17.193,8.004 -18.797,8.185 -20.241,8.353C-21.687,8.521 -23.315,8.581 -24.2,7.643C-25.017,6.777 -24.891,5.373 -24.633,4.118C-24.35,2.736 -23.953,1.358 -23.45,0" style="fill:none;fill-rule:nonzero;stroke:rgb(43,153,120);stroke-width:0.06px;"/>
                        </g>
                        <g transform="matrix(1,0,0,1,1713.5156,1344.2221)">
                            <path d="M0,32.272C-2.286,31.915 -4.846,31.369 -5.732,29.415C-6.475,27.78 -5.793,25.575 -6.751,24.064C-8.155,21.847 -12.244,22.332 -13.646,20.113C-14.947,18.052 -13.226,14.695 -14.794,12.825C-16.341,10.98 -20.092,11.831 -21.612,9.965C-22.859,8.434 -21.92,5.968 -22.334,3.999C-22.68,2.359 -24.006,1.115 -25.644,0.557C-27.281,0 -29.195,0.077 -31.028,0.524" style="fill:none;fill-rule:nonzero;stroke:rgb(43,153,120);stroke-width:0.06px;"/>
                        </g>
                        <g transform="matrix(1,0,0,1,1707.8037,1347.0885)">
                            <path d="M0,32.433C0.391,30.647 1.527,28.988 2.183,27.235C2.837,25.482 2.872,23.348 1.414,22.424C0.163,21.632 -1.651,22.03 -3.276,22.336C-4.901,22.643 -6.81,22.737 -7.683,21.581C-8.381,20.659 -8.121,19.256 -7.537,18.091C-6.954,16.926 -6.083,15.869 -5.525,14.696C-4.967,13.522 -4.773,12.107 -5.542,11.239C-6.279,10.406 -7.67,10.332 -8.915,10.589C-10.16,10.845 -11.377,11.371 -12.625,11.56C-13.873,11.748 -15.251,11.505 -15.801,10.539C-16.458,9.388 -15.681,7.804 -14.813,6.552C-13.946,5.301 -12.916,3.943 -13.056,2.581C-13.239,0.796 -15.403,0 -17.354,0.216C-19.306,0.432 -21.207,1.338 -23.155,1.731C-25.104,2.122 -27.363,1.815 -28.099,0.234" style="fill:none;fill-rule:nonzero;stroke:rgb(43,153,120);stroke-width:0.06px;"/>
                        </g>
                        <g transform="matrix(1,0,0,1,1715.1494,1339.1528)">
                            <path d="M0,35.771C-1.022,34.636 -2.69,34.061 -4.402,34.252C-5.436,34.368 -6.459,34.743 -7.492,34.926C-8.525,35.11 -9.65,35.069 -10.343,34.453C-11.367,33.541 -11.031,31.82 -10.419,30.427C-9.807,29.035 -8.96,27.586 -9.155,26.202C-9.334,24.934 -10.405,24.003 -11.682,23.654C-12.958,23.303 -14.41,23.46 -15.8,23.807C-16.998,24.106 -18.482,24.475 -19.151,23.634C-19.587,23.088 -19.44,22.251 -19.163,21.529C-18.338,19.373 -16.477,17.203 -16.969,15.142C-17.222,14.08 -18.106,13.293 -19.169,12.913C-20.231,12.532 -21.457,12.519 -22.663,12.661C-24.141,12.835 -25.86,13.182 -26.825,12.275C-27.587,11.559 -27.534,10.295 -27.111,9.221C-26.688,8.147 -25.957,7.167 -25.436,6.12C-24.441,4.125 -24.249,1.884 -24.909,0" style="fill:none;fill-rule:nonzero;stroke:rgb(43,153,120);stroke-width:0.06px;"/>
                        </g>
                        <g transform="matrix(1,0,0,1,1692.2656,1339.5067)">
                            <path d="M0,43.4C1.641,42.487 3.418,41.401 3.736,39.713C4.266,36.903 0.437,34.146 1.303,31.414C1.724,30.086 3.14,29.249 4.391,28.417C5.641,27.586 6.898,26.477 6.797,25.076C6.637,22.839 3.176,21.45 2.928,19.215C2.738,17.508 4.494,16.259 6.074,15.306C7.654,14.353 9.398,13.082 9.172,11.377C9.001,10.084 7.739,9.078 6.6,8.175C5.459,7.272 4.264,6.163 4.302,4.874C4.337,3.684 5.418,2.781 6.488,2.076C7.666,1.298 8.921,0.605 10.236,0" style="fill:none;fill-rule:nonzero;stroke:rgb(43,153,120);stroke-width:0.06px;"/>
                        </g>
                        <g transform="matrix(1,0,0,1,1695.9072,1338.8551)">
                            <path d="M0,44.39C-1.364,42.521 -2.788,40.325 -2.032,38.316C-1.401,36.636 0.64,35.558 1.03,33.813C1.604,31.252 -1.629,28.703 -1.052,26.143C-0.515,23.766 3.077,22.609 3.29,20.178C3.501,17.78 0.247,15.729 0.491,13.335C0.692,11.37 3.101,10.291 4.2,8.605C5.114,7.201 5.057,5.384 4.293,3.831C3.529,2.28 2.122,0.98 0.509,0" style="fill:none;fill-rule:nonzero;stroke:rgb(43,153,120);stroke-width:0.06px;"/>
                        </g>
                        <g transform="matrix(1,0,0,1,1689.7275,1338.7097)">
                            <path d="M0,42.637C1.539,41.651 3.517,41.281 5.22,40.505C6.921,39.728 8.455,38.244 8.077,36.56C7.753,35.116 6.188,34.114 4.823,33.181C3.456,32.249 2.042,30.966 2.241,29.532C2.399,28.386 3.575,27.577 4.812,27.166C6.048,26.755 7.411,26.623 8.636,26.188C9.86,25.753 10.997,24.889 11.067,23.732C11.136,22.621 10.204,21.586 9.142,20.887C8.081,20.188 6.849,19.7 5.832,18.95C4.816,18.201 4.015,17.055 4.308,15.983C4.657,14.705 6.327,14.134 7.825,13.862C9.323,13.591 11.013,13.359 11.876,12.298C13.009,10.905 12.042,8.812 10.509,7.585C8.978,6.358 6.991,5.654 5.337,4.554C3.683,3.454 2.302,1.638 2.899,0" style="fill:none;fill-rule:nonzero;stroke:rgb(43,153,120);stroke-width:0.06px;"/>
                        </g>
                        <g transform="matrix(1,0,0,1,1698.1729,1340.382)">
                            <path d="M0,42.908C0.079,41.383 -0.693,39.797 -2.039,38.721C-2.851,38.073 -3.841,37.614 -4.7,37.013C-5.562,36.412 -6.327,35.588 -6.382,34.662C-6.46,33.293 -5.007,32.314 -3.589,31.762C-2.171,31.211 -0.548,30.785 0.293,29.668C1.062,28.645 0.964,27.23 0.308,26.08C-0.347,24.929 -1.485,24.014 -2.712,23.277C-3.771,22.64 -5.081,21.852 -4.96,20.784C-4.882,20.09 -4.187,19.602 -3.479,19.287C-1.372,18.346 1.479,18.127 2.589,16.323C3.16,15.392 3.091,14.211 2.608,13.19C2.127,12.17 1.269,11.294 0.315,10.541C-0.853,9.62 -2.313,8.649 -2.354,7.325C-2.387,6.281 -1.456,5.425 -0.397,4.964C0.661,4.503 1.871,4.328 2.981,3.955C5.095,3.248 6.815,1.8 7.681,0" style="fill:none;fill-rule:nonzero;stroke:rgb(43,153,120);stroke-width:0.06px;"/>
                        </g>
                        <g transform="matrix(1,0,0,1,1676.3477,1348.7409)">
                            <path d="M0,24.013C1.806,24.528 3.831,25.017 5.249,24.048C7.611,22.436 6.854,17.779 9.397,16.459C10.634,15.818 12.227,16.227 13.699,16.523C15.171,16.819 16.845,16.924 17.764,15.863C19.231,14.167 17.767,10.738 19.172,8.982C20.245,7.642 22.37,7.999 24.161,8.443C25.952,8.886 28.084,9.22 29.13,7.855C29.923,6.82 29.742,5.216 29.574,3.772C29.406,2.326 29.346,0.698 30.284,-0.187C31.15,-1.004 32.554,-0.878 33.809,-0.62C35.191,-0.337 36.569,0.06 37.927,0.563" style="fill:none;fill-rule:nonzero;stroke:rgb(43,153,120);stroke-width:0.06px;"/>
                        </g>
                        <g transform="matrix(1,0,0,1,1678.6836,1344.5404)">
                            <path d="M0,31.028C0.357,28.742 0.903,26.182 2.857,25.296C4.492,24.553 6.697,25.235 8.208,24.277C10.425,22.873 9.94,18.784 12.159,17.382C14.22,16.081 17.577,17.802 19.447,16.234C21.292,14.687 20.441,10.936 22.307,9.416C23.838,8.169 26.304,9.108 28.273,8.694C29.913,8.348 31.157,7.022 31.715,5.384C32.272,3.747 32.195,1.833 31.748,0" style="fill:none;fill-rule:nonzero;stroke:rgb(43,153,120);stroke-width:0.06px;"/>
                        </g>
                        <g transform="matrix(1,0,0,1,1675.6563,1344.6294)">
                            <path d="M0,25.227C1.786,25.618 3.445,26.754 5.198,27.41C6.951,28.064 9.085,28.099 10.009,26.641C10.801,25.39 10.403,23.576 10.097,21.951C9.79,20.326 9.696,18.417 10.852,17.544C11.774,16.846 13.177,17.106 14.342,17.69C15.507,18.273 16.564,19.144 17.737,19.702C18.911,20.26 20.326,20.454 21.194,19.685C22.027,18.948 22.101,17.557 21.844,16.312C21.588,15.067 21.062,13.85 20.873,12.602C20.685,11.354 20.928,9.976 21.894,9.426C23.045,8.769 24.629,9.546 25.881,10.414C27.132,11.281 28.49,12.311 29.852,12.171C31.637,11.988 32.433,9.824 32.217,7.873C32.001,5.921 31.095,4.02 30.702,2.072C30.311,0.123 30.618,-2.136 32.199,-2.872" style="fill:none;fill-rule:nonzero;stroke:rgb(43,153,120);stroke-width:0.06px;"/>
                        </g>
                        <g transform="matrix(1,0,0,1,1680.2539,1349.6151)">
                            <path d="M0,27.587C1.135,26.565 1.71,24.897 1.519,23.185C1.403,22.151 1.028,21.128 0.845,20.095C0.661,19.062 0.702,17.937 1.318,17.244C2.23,16.22 3.951,16.556 5.344,17.168C6.736,17.78 8.185,18.627 9.569,18.432C10.837,18.253 11.768,17.182 12.117,15.905C12.468,14.629 12.311,13.177 11.964,11.787C11.665,10.589 11.296,9.105 12.137,8.436C12.683,8 13.52,8.147 14.242,8.424C16.398,9.249 18.568,11.11 20.629,10.618C21.691,10.365 22.478,9.481 22.858,8.418C23.239,7.356 23.252,6.13 23.11,4.924C22.936,3.446 22.589,1.727 23.496,0.762C24.212,0 25.476,0.053 26.55,0.476C27.624,0.899 28.604,1.63 29.651,2.151C31.646,3.146 33.887,3.338 35.771,2.678" style="fill:none;fill-rule:nonzero;stroke:rgb(43,153,120);stroke-width:0.06px;"/>
                        </g>
                        <g transform="matrix(1,0,0,1,1672.271,1364.5544)">
                            <path d="M0,-10.236C0.913,-8.595 1.999,-6.818 3.687,-6.5C6.497,-5.97 9.254,-9.799 11.986,-8.933C13.314,-8.512 14.151,-7.096 14.983,-5.845C15.814,-4.595 16.923,-3.338 18.324,-3.439C20.561,-3.599 21.95,-7.06 24.185,-7.308C25.892,-7.498 27.141,-5.742 28.094,-4.162C29.047,-2.582 30.318,-0.838 32.023,-1.064C33.316,-1.235 34.322,-2.497 35.225,-3.636C36.128,-4.777 37.237,-5.972 38.526,-5.934C39.716,-5.899 40.619,-4.818 41.324,-3.748C42.102,-2.57 42.795,-1.315 43.4,0" style="fill:none;fill-rule:nonzero;stroke:rgb(43,153,120);stroke-width:0.06px;"/>
                        </g>
                        <g transform="matrix(1,0,0,1,1671.9326,1360.286)">
                            <path d="M0,-2.326C1.869,-3.69 4.065,-5.114 6.074,-4.358C7.754,-3.727 8.832,-1.686 10.577,-1.296C13.138,-0.722 15.687,-3.955 18.247,-3.378C20.624,-2.841 21.781,0.751 24.212,0.964C26.61,1.175 28.661,-2.079 31.055,-1.835C33.02,-1.634 34.099,0.775 35.785,1.874C37.189,2.788 39.006,2.731 40.559,1.967C42.11,1.203 43.41,-0.204 44.39,-1.817" style="fill:none;fill-rule:nonzero;stroke:rgb(43,153,120);stroke-width:0.06px;"/>
                        </g>
                        <g transform="matrix(1,0,0,1,1673.8311,1364.7893)">
                            <path d="M0,-13.009C0.986,-11.47 1.356,-9.492 2.132,-7.789C2.909,-6.088 4.393,-4.554 6.077,-4.932C7.521,-5.256 8.523,-6.821 9.456,-8.186C10.388,-9.553 11.671,-10.967 13.105,-10.768C14.251,-10.61 15.06,-9.434 15.471,-8.197C15.882,-6.961 16.014,-5.598 16.449,-4.373C16.884,-3.149 17.748,-2.012 18.905,-1.942C20.016,-1.873 21.051,-2.805 21.75,-3.867C22.449,-4.928 22.937,-6.16 23.687,-7.177C24.436,-8.193 25.582,-8.994 26.654,-8.701C27.932,-8.352 28.503,-6.682 28.775,-5.184C29.046,-3.686 29.278,-1.996 30.339,-1.133C31.732,0 33.825,-0.967 35.052,-2.5C36.279,-4.031 36.983,-6.018 38.083,-7.672C39.183,-9.326 40.999,-10.707 42.637,-10.11" style="fill:none;fill-rule:nonzero;stroke:rgb(43,153,120);stroke-width:0.06px;"/>
                        </g>
                        <g transform="matrix(1,0,0,1,1671.8877,1361.4466)">
                            <path d="M0,-1.221C1.525,-1.142 3.111,-1.914 4.187,-3.26C4.835,-4.072 5.294,-5.062 5.895,-5.921C6.496,-6.783 7.32,-7.548 8.246,-7.603C9.615,-7.681 10.594,-6.228 11.146,-4.81C11.697,-3.392 12.123,-1.769 13.24,-0.928C14.263,-0.159 15.678,-0.257 16.828,-0.913C17.979,-1.568 18.894,-2.706 19.631,-3.933C20.268,-4.992 21.056,-6.302 22.124,-6.181C22.818,-6.103 23.306,-5.408 23.621,-4.7C24.562,-2.593 24.781,0.258 26.585,1.368C27.516,1.939 28.697,1.87 29.718,1.387C30.738,0.906 31.614,0.048 32.367,-0.906C33.288,-2.074 34.259,-3.534 35.583,-3.575C36.627,-3.608 37.483,-2.677 37.944,-1.618C38.405,-0.56 38.58,0.65 38.953,1.76C39.66,3.874 41.108,5.594 42.908,6.46" style="fill:none;fill-rule:nonzero;stroke:rgb(43,153,120);stroke-width:0.06px;"/>
                        </g>
                        <g transform="matrix(1,0,0,1,1682.4238,1376.3274)">
                            <path d="M0,-37.927C-0.515,-36.121 -1.004,-34.096 -0.035,-32.678C1.577,-30.316 6.234,-31.073 7.554,-28.53C8.195,-27.293 7.786,-25.7 7.49,-24.228C7.194,-22.756 7.089,-21.082 8.15,-20.163C9.846,-18.696 13.275,-20.16 15.031,-18.755C16.371,-17.682 16.014,-15.557 15.57,-13.766C15.127,-11.975 14.793,-9.843 16.158,-8.797C17.193,-8.004 18.797,-8.185 20.241,-8.353C21.687,-8.521 23.315,-8.581 24.2,-7.643C25.017,-6.777 24.891,-5.373 24.633,-4.118C24.35,-2.736 23.953,-1.358 23.45,0" style="fill:none;fill-rule:nonzero;stroke:rgb(43,153,120);stroke-width:0.06px;"/>
                        </g>
                        <g transform="matrix(1,0,0,1,1679.6094,1373.0083)">
                            <path d="M0,-32.272C2.286,-31.915 4.846,-31.369 5.732,-29.415C6.475,-27.78 5.793,-25.575 6.751,-24.064C8.155,-21.847 12.244,-22.332 13.646,-20.113C14.947,-18.052 13.226,-14.695 14.794,-12.825C16.341,-10.98 20.092,-11.831 21.612,-9.965C22.859,-8.434 21.92,-5.968 22.334,-3.999C22.68,-2.359 24.006,-1.115 25.644,-0.557C27.281,0 29.195,-0.077 31.028,-0.524" style="fill:none;fill-rule:nonzero;stroke:rgb(43,153,120);stroke-width:0.06px;"/>
                        </g>
                        <g transform="matrix(1,0,0,1,1685.3213,1370.142)">
                            <path d="M0,-32.433C-0.391,-30.647 -1.527,-28.988 -2.183,-27.235C-2.837,-25.482 -2.872,-23.348 -1.414,-22.424C-0.163,-21.632 1.651,-22.03 3.276,-22.336C4.901,-22.643 6.81,-22.737 7.683,-21.581C8.381,-20.659 8.121,-19.256 7.537,-18.091C6.954,-16.926 6.083,-15.869 5.525,-14.696C4.967,-13.522 4.773,-12.107 5.542,-11.239C6.279,-10.406 7.67,-10.332 8.915,-10.589C10.16,-10.845 11.377,-11.371 12.625,-11.56C13.873,-11.748 15.251,-11.505 15.801,-10.539C16.458,-9.388 15.681,-7.804 14.813,-6.552C13.946,-5.301 12.916,-3.943 13.056,-2.581C13.239,-0.796 15.403,0 17.354,-0.216C19.306,-0.432 21.207,-1.338 23.155,-1.731C25.104,-2.122 27.363,-1.815 28.099,-0.234" style="fill:none;fill-rule:nonzero;stroke:rgb(43,153,120);stroke-width:0.06px;"/>
                        </g>
                        <g transform="matrix(1,0,0,1,1677.9756,1378.0776)">
                            <path d="M0,-35.771C1.022,-34.636 2.69,-34.061 4.402,-34.252C5.436,-34.368 6.459,-34.743 7.492,-34.926C8.525,-35.11 9.65,-35.069 10.343,-34.453C11.367,-33.541 11.031,-31.82 10.419,-30.427C9.807,-29.035 8.96,-27.586 9.155,-26.202C9.334,-24.934 10.405,-24.003 11.682,-23.654C12.958,-23.303 14.41,-23.46 15.8,-23.807C16.998,-24.106 18.482,-24.475 19.151,-23.634C19.587,-23.088 19.44,-22.251 19.163,-21.529C18.338,-19.373 16.477,-17.203 16.969,-15.142C17.222,-14.08 18.106,-13.293 19.169,-12.913C20.231,-12.532 21.457,-12.519 22.663,-12.661C24.141,-12.835 25.86,-13.182 26.825,-12.275C27.587,-11.559 27.534,-10.295 27.111,-9.221C26.688,-8.147 25.957,-7.167 25.436,-6.12C24.441,-4.125 24.249,-1.884 24.909,0" style="fill:none;fill-rule:nonzero;stroke:rgb(43,153,120);stroke-width:0.06px;"/>
                        </g>
                        <g transform="matrix(1,0,0,1,1700.8594,1377.7237)">
                            <path d="M0,-43.4C-1.641,-42.487 -3.418,-41.401 -3.736,-39.713C-4.266,-36.903 -0.437,-34.146 -1.303,-31.414C-1.724,-30.086 -3.14,-29.249 -4.391,-28.417C-5.641,-27.586 -6.898,-26.477 -6.797,-25.076C-6.637,-22.839 -3.176,-21.45 -2.928,-19.215C-2.738,-17.508 -4.494,-16.259 -6.074,-15.306C-7.654,-14.353 -9.398,-13.082 -9.172,-11.377C-9.001,-10.084 -7.739,-9.078 -6.6,-8.175C-5.459,-7.272 -4.264,-6.163 -4.302,-4.874C-4.337,-3.684 -5.418,-2.781 -6.488,-2.076C-7.666,-1.298 -8.921,-0.605 -10.236,0" style="fill:none;fill-rule:nonzero;stroke:rgb(43,153,120);stroke-width:0.06px;"/>
                        </g>
                        <g transform="matrix(1,0,0,1,1697.2178,1378.3754)">
                            <path d="M0,-44.39C1.364,-42.521 2.788,-40.325 2.032,-38.316C1.401,-36.636 -0.64,-35.558 -1.03,-33.813C-1.604,-31.252 1.629,-28.703 1.052,-26.143C0.515,-23.766 -3.077,-22.609 -3.29,-20.178C-3.501,-17.78 -0.247,-15.729 -0.491,-13.335C-0.692,-11.37 -3.101,-10.291 -4.2,-8.605C-5.114,-7.201 -5.057,-5.384 -4.293,-3.831C-3.529,-2.28 -2.122,-0.98 -0.509,0" style="fill:none;fill-rule:nonzero;stroke:rgb(43,153,120);stroke-width:0.06px;"/>
                        </g>
                        <g transform="matrix(1,0,0,1,1703.3975,1378.5208)">
                            <path d="M0,-42.637C-1.539,-41.651 -3.517,-41.281 -5.22,-40.505C-6.921,-39.728 -8.455,-38.244 -8.077,-36.56C-7.753,-35.116 -6.188,-34.114 -4.823,-33.181C-3.456,-32.249 -2.042,-30.966 -2.241,-29.532C-2.399,-28.386 -3.575,-27.577 -4.812,-27.166C-6.048,-26.755 -7.411,-26.623 -8.636,-26.188C-9.86,-25.753 -10.997,-24.889 -11.067,-23.732C-11.136,-22.621 -10.204,-21.586 -9.142,-20.887C-8.081,-20.188 -6.849,-19.7 -5.832,-18.95C-4.816,-18.201 -4.015,-17.055 -4.308,-15.983C-4.657,-14.705 -6.327,-14.134 -7.825,-13.862C-9.323,-13.591 -11.013,-13.359 -11.876,-12.298C-13.009,-10.905 -12.042,-8.812 -10.509,-7.585C-8.978,-6.358 -6.991,-5.654 -5.337,-4.554C-3.683,-3.454 -2.302,-1.638 -2.899,0" style="fill:none;fill-rule:nonzero;stroke:rgb(43,153,120);stroke-width:0.06px;"/>
                        </g>
                        <g transform="matrix(1,0,0,1,1694.9521,1376.8484)">
                            <path d="M0,-42.908C-0.079,-41.383 0.693,-39.797 2.039,-38.721C2.851,-38.073 3.841,-37.614 4.7,-37.013C5.562,-36.412 6.327,-35.588 6.382,-34.662C6.46,-33.293 5.007,-32.314 3.589,-31.762C2.171,-31.211 0.548,-30.785 -0.293,-29.668C-1.062,-28.645 -0.964,-27.23 -0.308,-26.08C0.347,-24.929 1.485,-24.014 2.712,-23.277C3.771,-22.64 5.081,-21.852 4.96,-20.784C4.882,-20.09 4.187,-19.602 3.479,-19.287C1.372,-18.346 -1.479,-18.127 -2.589,-16.323C-3.16,-15.392 -3.091,-14.211 -2.608,-13.19C-2.127,-12.17 -1.269,-11.294 -0.315,-10.541C0.853,-9.62 2.313,-8.649 2.354,-7.325C2.387,-6.281 1.456,-5.425 0.397,-4.964C-0.661,-4.503 -1.871,-4.328 -2.981,-3.955C-5.095,-3.248 -6.815,-1.8 -7.681,0" style="fill:none;fill-rule:nonzero;stroke:rgb(43,153,120);stroke-width:0.06px;"/>
                        </g>
                    </g>
</g>
</g>
</svg>
