<svg xmlns="http://www.w3.org/2000/svg" viewBox="5140.758453887311 2183.7720048284127 370.39836104519964 637.3246323993003">
<g transform="matrix(4.166667,0,0,4.166667,0,0)">
<g transform="matrix(1,0,0,1,-11.56697,1.462939)">
<g xmlns="http://www.w3.org/2000/svg">
                        <g transform="matrix(1,0,0,1,1248.2289,669.6863)">
                            <path d="M0,-144.164C29.159,-130.789 51.01,-102.544 56.631,-70.96C58.894,-58.242 58.675,-45.171 61.11,-32.485C63.546,-19.799 69.254,-6.901 80.174,0" style="fill:none;fill-rule:nonzero;stroke:rgb(83,184,143);stroke-width:1.76px;"/>
                        </g>
                        <g transform="matrix(1,0,0,1,1292.9058,583.7451)">
                            <path d="M0,-15.704C-5.115,-15.599 -10.179,-13.755 -14.164,-10.546C-15.419,-9.535 -16.594,-8.359 -17.27,-6.896C-17.945,-5.432 -18.052,-3.633 -17.23,-2.247C-16.352,-0.765 -14.547,0 -12.826,-0.034C-11.104,-0.069 -9.463,-0.799 -8.022,-1.742C-3.277,-4.849 -0.331,-10.522 0,-15.704Z" style="fill:rgb(91,217,125);fill-rule:nonzero;stroke:rgb(46,64,56);stroke-width:0.59px;"/>
                        </g>
                        <g transform="matrix(1,0,0,1,1293.8392,561.4613)">
                            <path d="M0,6.023C2.991,1.872 7.385,-1.249 12.289,-2.707C13.834,-3.166 15.469,-3.466 17.057,-3.191C18.645,-2.915 20.187,-1.982 20.861,-0.518C21.582,1.046 21.188,2.966 20.181,4.363C19.175,5.761 17.642,6.697 16.048,7.348C10.797,9.489 4.454,8.693 0,6.023Z" style="fill:rgb(91,217,125);fill-rule:nonzero;stroke:rgb(46,64,56);stroke-width:0.59px;"/>
                        </g>
                        <g transform="matrix(1,0,0,1,1300.86,597.0956)">
                            <path d="M0,-11.678C-4.46,-12.219 -9.089,-11.242 -12.95,-8.945C-14.167,-8.221 -15.333,-7.345 -16.101,-6.156C-16.869,-4.967 -17.185,-3.417 -16.641,-2.109C-16.061,-0.713 -14.587,0.176 -13.086,0.358C-11.585,0.541 -10.068,0.109 -8.699,-0.533C-4.191,-2.647 -0.929,-7.214 0,-11.678Z" style="fill:rgb(91,217,125);fill-rule:nonzero;stroke:rgb(46,64,56);stroke-width:0.59px;"/>
                        </g>
                        <g transform="matrix(1,0,0,1,1301.7402,583.061)">
                            <path d="M0,1.988C3.113,-1.25 7.318,-3.42 11.762,-4.082C13.162,-4.29 14.62,-4.348 15.966,-3.913C17.313,-3.477 18.538,-2.476 18.943,-1.12C19.376,0.329 18.796,1.95 17.749,3.04C16.701,4.13 15.253,4.755 13.786,5.123C8.957,6.336 3.542,4.859 0,1.988Z" style="fill:rgb(91,217,125);fill-rule:nonzero;stroke:rgb(46,64,56);stroke-width:0.59px;"/>
                        </g>
                        <g transform="matrix(1,0,0,1,1305.213,609.6213)">
                            <path d="M0,-8.082C-3.804,-9.125 -7.952,-8.871 -11.601,-7.373C-12.75,-6.9 -13.876,-6.289 -14.696,-5.355C-15.516,-4.421 -15.99,-3.115 -15.686,-1.909C-15.361,-0.622 -14.195,0.34 -12.915,0.691C-11.634,1.043 -10.261,0.863 -8.99,0.481C-4.801,-0.775 -1.38,-4.324 0,-8.082Z" style="fill:rgb(91,217,125);fill-rule:nonzero;stroke:rgb(46,64,56);stroke-width:0.59px;"/>
                        </g>
                        <g transform="matrix(1,0,0,1,1306.0251,602.4983)">
                            <path d="M0,-1.166C3.121,-3.579 7.052,-4.923 10.997,-4.926C12.24,-4.928 13.514,-4.791 14.628,-4.239C15.742,-3.688 16.677,-2.66 16.855,-1.43C17.045,-0.116 16.333,1.217 15.282,2.029C14.232,2.842 12.894,3.199 11.573,3.33C7.222,3.762 2.707,1.784 0,-1.166Z" style="fill:rgb(91,217,125);fill-rule:nonzero;stroke:rgb(46,64,56);stroke-width:0.59px;"/>
                        </g>
                        <g transform="matrix(1,0,0,1,1306.4851,623.4776)">
                            <path d="M0,-6.446C-3.035,-7.278 -6.343,-7.076 -9.253,-5.88C-10.17,-5.503 -11.068,-5.016 -11.722,-4.271C-12.376,-3.526 -12.754,-2.484 -12.512,-1.523C-12.253,-0.496 -11.323,0.271 -10.301,0.552C-9.28,0.832 -8.185,0.689 -7.17,0.384C-3.83,-0.618 -1.101,-3.448 0,-6.446Z" style="fill:rgb(91,217,125);fill-rule:nonzero;stroke:rgb(46,64,56);stroke-width:0.59px;"/>
                        </g>
                        <g transform="matrix(1,0,0,1,1307.1328,617.7975)">
                            <path d="M0,-0.931C2.489,-2.856 5.625,-3.928 8.772,-3.931C9.763,-3.931 10.779,-3.822 11.668,-3.382C12.556,-2.942 13.302,-2.123 13.444,-1.142C13.595,-0.094 13.027,0.97 12.19,1.618C11.352,2.266 10.285,2.55 9.231,2.655C5.76,3 2.159,1.422 0,-0.931Z" style="fill:rgb(91,217,125);fill-rule:nonzero;stroke:rgb(46,64,56);stroke-width:0.59px;"/>
                        </g>
                        <g transform="matrix(1,0,0,1,1307.7919,636.2714)">
                            <path d="M0,-5.537C-2.607,-6.252 -5.448,-6.078 -7.948,-5.051C-8.736,-4.727 -9.508,-4.308 -10.07,-3.668C-10.631,-3.028 -10.956,-2.134 -10.748,-1.308C-10.525,-0.426 -9.726,0.233 -8.849,0.474C-7.972,0.715 -7.031,0.592 -6.159,0.33C-3.29,-0.531 -0.946,-2.962 0,-5.537Z" style="fill:rgb(91,217,125);fill-rule:nonzero;stroke:rgb(46,64,56);stroke-width:0.59px;"/>
                        </g>
                        <g transform="matrix(1,0,0,1,1308.3483,631.3924)">
                            <path d="M0,-0.8C2.138,-2.453 4.832,-3.374 7.535,-3.377C8.387,-3.377 9.26,-3.284 10.023,-2.906C10.786,-2.528 11.427,-1.824 11.548,-0.981C11.679,-0.081 11.191,0.833 10.471,1.389C9.752,1.946 8.835,2.19 7.929,2.28C4.948,2.577 1.855,1.221 0,-0.8Z" style="fill:rgb(91,217,125);fill-rule:nonzero;stroke:rgb(46,64,56);stroke-width:0.59px;"/>
                        </g>
                        <g transform="matrix(1,0,0,1,1309.7019,646.9312)">
                            <path d="M0,-5.809C-2.311,-6.165 -4.737,-5.733 -6.784,-4.602C-7.429,-4.246 -8.05,-3.809 -8.47,-3.203C-8.889,-2.597 -9.079,-1.796 -8.818,-1.107C-8.539,-0.371 -7.787,0.116 -7.009,0.236C-6.231,0.356 -5.435,0.157 -4.712,-0.155C-2.331,-1.179 -0.557,-3.502 0,-5.809Z" style="fill:rgb(91,217,125);fill-rule:nonzero;stroke:rgb(46,64,56);stroke-width:0.59px;"/>
                        </g>
                        <g transform="matrix(1,0,0,1,1310.1661,640.3019)">
                            <path d="M0,0.643C1.674,-0.99 3.898,-2.049 6.221,-2.32C6.953,-2.405 7.712,-2.411 8.406,-2.162C9.099,-1.913 9.72,-1.371 9.908,-0.659C10.109,0.102 9.781,0.936 9.217,1.486C8.654,2.035 7.89,2.336 7.121,2.504C4.588,3.054 1.795,2.196 0,0.643Z" style="fill:rgb(91,217,125);fill-rule:nonzero;stroke:rgb(46,64,56);stroke-width:0.59px;"/>
                        </g>
                        <g transform="matrix(1,0,0,1,1312.8978,656.1717)">
                            <path d="M0,-5.728C-2.045,-5.861 -4.129,-5.298 -5.829,-4.153C-6.365,-3.792 -6.874,-3.363 -7.193,-2.802C-7.513,-2.241 -7.617,-1.527 -7.336,-0.946C-7.036,-0.324 -6.342,0.043 -5.654,0.088C-4.966,0.133 -4.286,-0.103 -3.679,-0.43C-1.679,-1.507 -0.309,-3.671 0,-5.728Z" style="fill:rgb(91,217,125);fill-rule:nonzero;stroke:rgb(46,64,56);stroke-width:0.59px;"/>
                        </g>
                        <g transform="matrix(1,0,0,1,1313.2894,648.7464)">
                            <path d="M0,1.507C1.336,-0.047 3.196,-1.143 5.203,-1.557C5.835,-1.688 6.498,-1.752 7.122,-1.588C7.747,-1.423 8.33,-0.998 8.549,-0.391C8.783,0.258 8.561,1.011 8.111,1.534C7.662,2.057 7.018,2.379 6.359,2.584C4.191,3.259 1.686,2.725 0,1.507Z" style="fill:rgb(91,217,125);fill-rule:nonzero;stroke:rgb(46,64,56);stroke-width:0.59px;"/>
                        </g>
                        <g transform="matrix(1,0,0,1,1317.0172,663.8022)">
                            <path d="M0,-5.052C-1.536,-4.905 -3.018,-4.236 -4.144,-3.181C-4.499,-2.848 -4.826,-2.468 -4.996,-2.013C-5.166,-1.557 -5.157,-1.014 -4.879,-0.615C-4.581,-0.189 -4.021,0 -3.504,-0.049C-2.987,-0.099 -2.51,-0.355 -2.098,-0.671C-0.741,-1.713 0.017,-3.486 0,-5.052Z" style="fill:rgb(91,217,125);fill-rule:nonzero;stroke:rgb(46,64,56);stroke-width:0.59px;"/>
                        </g>
                        <g transform="matrix(1,0,0,1,1317.2855,656.1576)">
                            <path d="M0,2.404C0.806,1.088 2.057,0.05 3.499,-0.499C3.954,-0.672 4.439,-0.799 4.923,-0.752C5.407,-0.706 5.891,-0.46 6.127,-0.035C6.379,0.42 6.304,1.006 6.033,1.449C5.762,1.892 5.322,2.209 4.857,2.44C3.326,3.203 1.4,3.107 0,2.404Z" style="fill:rgb(91,217,125);fill-rule:nonzero;stroke:rgb(46,64,56);stroke-width:0.59px;"/>
                        </g>
                        <g transform="matrix(1,0,0,1,1321.3229,668.4386)">
                            <path d="M0,-4.616C-1.169,-4.238 -2.205,-3.464 -2.9,-2.451C-3.119,-2.132 -3.307,-1.781 -3.361,-1.397C-3.416,-1.014 -3.316,-0.593 -3.031,-0.331C-2.727,-0.052 -2.259,0 -1.866,-0.127C-1.472,-0.254 -1.145,-0.535 -0.879,-0.852C-0.003,-1.894 0.282,-3.402 0,-4.616Z" style="fill:rgb(91,217,125);fill-rule:nonzero;stroke:rgb(46,64,56);stroke-width:0.59px;"/>
                        </g>
                        <g transform="matrix(1,0,0,1,1321.499,660.5931)">
                            <path d="M0,3.037C0.401,1.876 1.195,0.855 2.222,0.181C2.545,-0.032 2.9,-0.213 3.285,-0.26C3.669,-0.306 4.088,-0.198 4.344,0.092C4.618,0.401 4.66,0.87 4.525,1.261C4.39,1.652 4.102,1.973 3.781,2.233C2.722,3.088 1.208,3.343 0,3.037Z" style="fill:rgb(91,217,125);fill-rule:nonzero;stroke:rgb(46,64,56);stroke-width:0.59px;"/>
                        </g>
                        <g transform="matrix(1,0,0,1,1324.8136,671.5187)">
                            <path d="M0,-4.388C-1.02,-3.935 -1.883,-3.136 -2.413,-2.154C-2.581,-1.844 -2.718,-1.508 -2.73,-1.157C-2.742,-0.805 -2.612,-0.435 -2.329,-0.225C-2.027,-0.001 -1.6,0 -1.256,-0.152C-0.913,-0.305 -0.644,-0.59 -0.434,-0.902C0.258,-1.927 0.371,-3.318 0,-4.388Z" style="fill:rgb(91,217,125);fill-rule:nonzero;stroke:rgb(46,64,56);stroke-width:0.59px;"/>
                        </g>
                        <g transform="matrix(1,0,0,1,1324.9543,663.7279)">
                            <path d="M0,3.212C0.251,2.124 0.871,1.125 1.734,0.418C2.006,0.195 2.31,-0.004 2.653,-0.082C2.995,-0.161 3.384,-0.104 3.644,0.134C3.921,0.387 4.004,0.807 3.919,1.173C3.835,1.539 3.606,1.857 3.34,2.123C2.465,2.997 1.121,3.373 0,3.212Z" style="fill:rgb(91,217,125);fill-rule:nonzero;stroke:rgb(46,64,56);stroke-width:0.59px;"/>
                        </g>
                        <g transform="matrix(1,0,0,1,1328.6182,672.7201)">
                            <path d="M0,-2.908C-0.676,-2.608 -1.248,-2.078 -1.599,-1.427C-1.71,-1.222 -1.801,-1 -1.809,-0.767C-1.817,-0.534 -1.731,-0.288 -1.543,-0.149C-1.343,-0.001 -1.06,0 -0.833,-0.101C-0.605,-0.202 -0.427,-0.391 -0.288,-0.598C0.171,-1.277 0.246,-2.199 0,-2.908Z" style="fill:rgb(91,217,125);fill-rule:nonzero;stroke:rgb(46,64,56);stroke-width:0.59px;"/>
                        </g>
                        <g transform="matrix(1,0,0,1,1328.7114,667.5577)">
                            <path d="M0,2.128C0.166,1.407 0.577,0.745 1.149,0.276C1.33,0.128 1.531,-0.003 1.758,-0.055C1.985,-0.107 2.243,-0.069 2.415,0.088C2.598,0.256 2.653,0.534 2.597,0.777C2.542,1.019 2.39,1.23 2.214,1.406C1.633,1.986 0.743,2.235 0,2.128Z" style="fill:rgb(91,217,125);fill-rule:nonzero;stroke:rgb(46,64,56);stroke-width:0.59px;"/>
                        </g>
                        <g transform="matrix(1,0,0,1,1283.6166,572.1299)">
                            <path d="M0,-18.625C-6.067,-18.5 -12.072,-16.313 -16.798,-12.507C-18.287,-11.308 -19.681,-9.914 -20.482,-8.178C-21.283,-6.442 -21.41,-4.309 -20.435,-2.665C-19.393,-0.908 -17.253,0 -15.211,-0.041C-13.169,-0.083 -11.223,-0.948 -9.514,-2.067C-3.887,-5.751 -0.393,-12.479 0,-18.625Z" style="fill:rgb(91,217,125);fill-rule:nonzero;stroke:rgb(46,64,56);stroke-width:0.59px;"/>
                        </g>
                        <g transform="matrix(1,0,0,1,1284.7238,545.7015)">
                            <path d="M0,7.143C3.548,2.22 8.758,-1.481 14.574,-3.21C16.407,-3.755 18.346,-4.111 20.229,-3.784C22.113,-3.458 23.941,-2.351 24.741,-0.615C25.596,1.24 25.128,3.518 23.935,5.175C22.741,6.832 20.924,7.943 19.032,8.714C12.805,11.254 5.282,10.309 0,7.143Z" style="fill:rgb(91,217,125);fill-rule:nonzero;stroke:rgb(46,64,56);stroke-width:0.59px;"/>
                        </g>
                    </g>
</g>
</g>
</svg>
