<svg xmlns="http://www.w3.org/2000/svg" viewBox="4009.9199394119037 3904.2804654774122 614.8557245684538 975.9574637428409">
<defs>
<linearGradient xmlns="http://www.w3.org/2000/svg" id="_Linear46" x1="0" y1="0" x2="1" y2="0" gradientUnits="userSpaceOnUse" gradientTransform="matrix(1,-0,-0,-1,0,-0.013756)"><stop offset="0" style="stop-color:rgb(219,146,0);stop-opacity:1"/><stop offset="1" style="stop-color:rgb(73,219,0);stop-opacity:1"/></linearGradient>
<linearGradient xmlns="http://www.w3.org/2000/svg" id="_Linear47" x1="0" y1="0" x2="1" y2="0" gradientUnits="userSpaceOnUse" gradientTransform="matrix(1,0,0,-1,0,-0.013729)"><stop offset="0" style="stop-color:rgb(219,146,0);stop-opacity:1"/><stop offset="1" style="stop-color:rgb(73,219,0);stop-opacity:1"/></linearGradient>
<linearGradient xmlns="http://www.w3.org/2000/svg" id="_Linear48" x1="0" y1="0" x2="1" y2="0" gradientUnits="userSpaceOnUse" gradientTransform="matrix(1,-0,-0,-1,0,-0.013745)"><stop offset="0" style="stop-color:rgb(219,146,0);stop-opacity:1"/><stop offset="1" style="stop-color:rgb(73,219,0);stop-opacity:1"/></linearGradient>
<linearGradient xmlns="http://www.w3.org/2000/svg" id="_Linear49" x1="0" y1="0" x2="1" y2="0" gradientUnits="userSpaceOnUse" gradientTransform="matrix(1,0,0,-1,0,-0.013758)"><stop offset="0" style="stop-color:rgb(219,146,0);stop-opacity:1"/><stop offset="1" style="stop-color:rgb(73,219,0);stop-opacity:1"/></linearGradient>
<linearGradient xmlns="http://www.w3.org/2000/svg" id="_Linear50" x1="0" y1="0" x2="1" y2="0" gradientUnits="userSpaceOnUse" gradientTransform="matrix(1,-0,-0,-1,0,-0.011368)"><stop offset="0" style="stop-color:rgb(219,146,0);stop-opacity:1"/><stop offset="1" style="stop-color:rgb(73,219,0);stop-opacity:1"/></linearGradient>
<linearGradient xmlns="http://www.w3.org/2000/svg" id="_Linear51" x1="0" y1="0" x2="1" y2="0" gradientUnits="userSpaceOnUse" gradientTransform="matrix(1,0,0,-1,0,-0.013717)"><stop offset="0" style="stop-color:rgb(219,146,0);stop-opacity:1"/><stop offset="1" style="stop-color:rgb(73,219,0);stop-opacity:1"/></linearGradient>
<linearGradient xmlns="http://www.w3.org/2000/svg" id="_Linear52" x1="0" y1="0" x2="1" y2="0" gradientUnits="userSpaceOnUse" gradientTransform="matrix(1,-0,-0,-1,0,-0.013742)"><stop offset="0" style="stop-color:rgb(219,146,0);stop-opacity:1"/><stop offset="1" style="stop-color:rgb(73,219,0);stop-opacity:1"/></linearGradient>
<linearGradient xmlns="http://www.w3.org/2000/svg" id="_Linear53" x1="0" y1="0" x2="1" y2="0" gradientUnits="userSpaceOnUse" gradientTransform="matrix(1,0,0,-1,0,-0.01458)"><stop offset="0" style="stop-color:rgb(219,146,0);stop-opacity:1"/><stop offset="1" style="stop-color:rgb(73,219,0);stop-opacity:1"/></linearGradient>
<radialGradient xmlns="http://www.w3.org/2000/svg" id="_Radial54" cx="0" cy="0" r="1" gradientUnits="userSpaceOnUse" gradientTransform="matrix(1,0,0,-1,0,-0.519885)"><stop offset="0" style="stop-color:rgb(255,129,115);stop-opacity:1"/><stop offset="1" style="stop-color:rgb(241,255,115);stop-opacity:1"/></radialGradient>
<radialGradient xmlns="http://www.w3.org/2000/svg" id="_Radial55" cx="0" cy="0" r="1" gradientUnits="userSpaceOnUse" gradientTransform="matrix(1,0,0,-1,0,-0.519921)"><stop offset="0" style="stop-color:rgb(255,129,115);stop-opacity:1"/><stop offset="1" style="stop-color:rgb(241,255,115);stop-opacity:1"/></radialGradient>
<radialGradient xmlns="http://www.w3.org/2000/svg" id="_Radial56" cx="0" cy="0" r="1" gradientUnits="userSpaceOnUse" gradientTransform="matrix(1,0,0,-1,0,-0.519936)"><stop offset="0" style="stop-color:rgb(255,129,115);stop-opacity:1"/><stop offset="1" style="stop-color:rgb(241,255,115);stop-opacity:1"/></radialGradient>
<radialGradient xmlns="http://www.w3.org/2000/svg" id="_Radial57" cx="0" cy="0" r="1" gradientUnits="userSpaceOnUse" gradientTransform="matrix(1,0,0,-1,0,-0.508257)"><stop offset="0" style="stop-color:rgb(255,129,115);stop-opacity:1"/><stop offset="1" style="stop-color:rgb(241,255,115);stop-opacity:1"/></radialGradient>
<radialGradient xmlns="http://www.w3.org/2000/svg" id="_Radial58" cx="0" cy="0" r="1" gradientUnits="userSpaceOnUse" gradientTransform="matrix(1,-0,-0,-1,0,-0.535442)"><stop offset="0" style="stop-color:rgb(255,129,115);stop-opacity:1"/><stop offset="1" style="stop-color:rgb(241,255,115);stop-opacity:1"/></radialGradient>
</defs>
<g transform="matrix(4.166667,0,0,4.166667,0,0)">
<g transform="matrix(1,0,0,1,-11.56697,1.462939)">
<g xmlns="http://www.w3.org/2000/svg">
                        <g transform="matrix(-0.113527,-0.993535,-0.993535,0.113527,1156.032707,1089.416768)">
                            <path d="M-65.75,107.22C-28.992,90.241 46.923,45.156 101.214,107.22" style="fill:none;fill-rule:nonzero;stroke:rgb(51,181,129);stroke-width:5.7px;"/>
                        </g>
                        <g transform="matrix(-40.300064,-11.555858,-11.555858,40.300064,1078.824433,1010.285825)">
                            <path d="M1.028,-0.043C1.002,-0.045 0.952,-0.04 0.907,-0.027C0.828,-0.003 0.759,0.044 0.685,0.079C0.611,0.113 0.524,0.135 0.447,0.106C0.373,0.077 0.312,0.002 0.233,0.01C0.186,0.015 0.148,0.048 0.107,0.073C0.01,0.131 -0.115,0.138 -0.219,0.094C-0.18,0.101 -0.136,0.092 -0.102,0.071C-0.046,0.039 -0.007,-0.015 0.038,-0.062C0.083,-0.109 0.14,-0.151 0.204,-0.15C0.28,-0.148 0.341,-0.087 0.414,-0.066C0.487,-0.045 0.565,-0.066 0.636,-0.092C0.708,-0.118 0.78,-0.149 0.856,-0.148C0.875,-0.148 0.895,-0.145 0.914,-0.14C0.965,-0.125 1.011,-0.092 1.028,-0.043ZM1.031,-0.031C1.03,-0.035 1.029,-0.039 1.028,-0.043C1.033,-0.043 1.037,-0.042 1.04,-0.041C1.047,-0.039 1.046,-0.035 1.031,-0.031ZM-0.219,0.094C-0.242,0.089 -0.264,0.078 -0.28,0.06C-0.261,0.073 -0.24,0.084 -0.219,0.094Z" style="fill:url(#_Linear46);fill-rule:nonzero;"/>
                        </g>
                        <g transform="matrix(-20.325223,-36.667673,-36.667673,20.325223,1055.665413,1037.540744)">
                            <path d="M1.031,-0.031C1.03,-0.035 1.029,-0.039 1.028,-0.043C1.037,-0.042 1.043,-0.041 1.044,-0.039C1.045,-0.037 1.041,-0.034 1.031,-0.031ZM1.028,-0.043C1.002,-0.045 0.952,-0.04 0.907,-0.027C0.828,-0.003 0.759,0.044 0.685,0.079C0.611,0.113 0.524,0.135 0.447,0.106C0.373,0.077 0.312,0.003 0.233,0.01C0.186,0.015 0.148,0.048 0.107,0.073C0.01,0.131 -0.115,0.138 -0.219,0.094C-0.18,0.101 -0.136,0.092 -0.102,0.071C-0.046,0.039 -0.007,-0.015 0.038,-0.062C0.083,-0.109 0.14,-0.151 0.204,-0.15C0.28,-0.148 0.341,-0.087 0.414,-0.066C0.487,-0.045 0.565,-0.066 0.636,-0.092C0.708,-0.118 0.78,-0.149 0.856,-0.148C0.92,-0.148 0.989,-0.117 1.019,-0.063C1.022,-0.057 1.025,-0.05 1.028,-0.043ZM-0.28,0.06C-0.261,0.073 -0.24,0.084 -0.219,0.094C-0.242,0.089 -0.264,0.078 -0.28,0.06Z" style="fill:url(#_Linear47);fill-rule:nonzero;"/>
                        </g>
                        <g transform="matrix(11.555858,-40.300064,-40.300064,-11.555858,1020.013946,1040.437844)">
                            <path d="M1.031,-0.031C1.03,-0.035 1.029,-0.039 1.028,-0.043C1.039,-0.042 1.045,-0.04 1.044,-0.038C1.044,-0.036 1.04,-0.034 1.031,-0.031ZM0.907,-0.027C0.828,-0.003 0.759,0.044 0.685,0.079C0.611,0.113 0.524,0.135 0.447,0.106C0.373,0.077 0.312,0.003 0.233,0.01C0.186,0.015 0.148,0.048 0.107,0.073C0.01,0.131 -0.115,0.138 -0.219,0.094C-0.18,0.101 -0.136,0.092 -0.102,0.071C-0.046,0.039 -0.007,-0.015 0.038,-0.062C0.083,-0.109 0.14,-0.151 0.205,-0.15C0.28,-0.148 0.341,-0.087 0.414,-0.066C0.487,-0.045 0.565,-0.066 0.636,-0.092C0.708,-0.118 0.78,-0.149 0.856,-0.148C0.927,-0.148 1.005,-0.109 1.028,-0.043C1.002,-0.045 0.952,-0.04 0.907,-0.027ZM-0.28,0.06C-0.261,0.073 -0.24,0.084 -0.219,0.094C-0.242,0.089 -0.264,0.078 -0.28,0.06Z" style="fill:url(#_Linear48);fill-rule:nonzero;"/>
                        </g>
                        <g transform="matrix(36.667673,-20.325223,-20.325223,-36.667673,992.757482,1017.276632)">
                            <path d="M1.031,-0.031C1.03,-0.035 1.029,-0.039 1.028,-0.043C1.042,-0.042 1.049,-0.039 1.041,-0.035C1.039,-0.034 1.036,-0.032 1.031,-0.031ZM0.907,-0.027C0.828,-0.003 0.759,0.044 0.685,0.079C0.611,0.113 0.524,0.135 0.447,0.106C0.373,0.077 0.312,0.003 0.233,0.01C0.186,0.015 0.148,0.048 0.107,0.073C0.01,0.131 -0.115,0.138 -0.219,0.094C-0.18,0.101 -0.136,0.092 -0.102,0.071C-0.046,0.039 -0.007,-0.015 0.038,-0.062C0.083,-0.109 0.14,-0.151 0.204,-0.15C0.28,-0.148 0.341,-0.087 0.414,-0.066C0.487,-0.045 0.565,-0.066 0.636,-0.092C0.708,-0.118 0.78,-0.149 0.856,-0.148C0.927,-0.148 1.005,-0.11 1.028,-0.043C1.002,-0.045 0.952,-0.04 0.907,-0.027ZM-0.28,0.06C-0.261,0.073 -0.24,0.084 -0.219,0.094C-0.242,0.089 -0.264,0.078 -0.28,0.06Z" style="fill:url(#_Linear49);fill-rule:nonzero;"/>
                        </g>
                        <g transform="matrix(40.300064,11.555858,11.555858,-40.300064,989.833519,981.722522)">
                            <path d="M-0.219,0.096C-0.18,0.103 -0.136,0.094 -0.102,0.074C-0.046,0.041 -0.007,-0.013 0.038,-0.06C0.083,-0.106 0.14,-0.149 0.204,-0.147C0.28,-0.146 0.341,-0.084 0.414,-0.063C0.487,-0.042 0.565,-0.063 0.636,-0.089C0.708,-0.115 0.78,-0.146 0.856,-0.146C0.927,-0.145 1.005,-0.107 1.028,-0.041C1.002,-0.042 0.952,-0.038 0.907,-0.024C0.828,-0.001 0.759,0.046 0.685,0.081C0.611,0.116 0.524,0.138 0.447,0.108C0.373,0.08 0.312,0.005 0.233,0.013C0.186,0.017 0.148,0.051 0.107,0.075C0.023,0.126 -0.083,0.138 -0.178,0.11C-0.192,0.106 -0.205,0.102 -0.219,0.096ZM-0.28,0.062C-0.261,0.075 -0.24,0.087 -0.219,0.096C-0.222,0.095 -0.226,0.094 -0.23,0.093C-0.249,0.088 -0.267,0.078 -0.28,0.062ZM1.028,-0.041C1.047,-0.039 1.052,-0.035 1.031,-0.029C1.03,-0.033 1.029,-0.037 1.028,-0.041Z" style="fill:url(#_Linear50);fill-rule:nonzero;"/>
                        </g>
                        <g transform="matrix(20.325223,36.667673,36.667673,-20.325223,1013.020681,954.370627)">
                            <path d="M-0.219,0.094C-0.242,0.089 -0.264,0.078 -0.28,0.06C-0.261,0.073 -0.24,0.084 -0.219,0.094ZM-0.102,0.071C-0.046,0.039 -0.007,-0.015 0.038,-0.062C0.083,-0.109 0.14,-0.151 0.204,-0.15C0.28,-0.148 0.341,-0.087 0.414,-0.066C0.487,-0.045 0.565,-0.066 0.636,-0.092C0.708,-0.118 0.78,-0.149 0.856,-0.148C0.927,-0.148 1.005,-0.109 1.028,-0.043C1.002,-0.045 0.952,-0.04 0.907,-0.027C0.828,-0.003 0.759,0.044 0.685,0.079C0.611,0.113 0.524,0.135 0.447,0.106C0.373,0.077 0.312,0.003 0.233,0.01C0.186,0.015 0.148,0.048 0.107,0.073C0.01,0.131 -0.115,0.138 -0.219,0.094C-0.18,0.101 -0.136,0.092 -0.102,0.071ZM1.028,-0.043C1.047,-0.042 1.052,-0.037 1.031,-0.031C1.03,-0.035 1.029,-0.039 1.028,-0.043Z" style="fill:url(#_Linear51);fill-rule:nonzero;"/>
                        </g>
                        <g transform="matrix(-11.555858,40.300064,40.300064,11.555858,1048.671953,951.47325)">
                            <path d="M-0.219,0.094C-0.242,0.089 -0.264,0.078 -0.28,0.06C-0.261,0.073 -0.24,0.084 -0.219,0.094ZM-0.102,0.071C-0.046,0.039 -0.007,-0.015 0.038,-0.062C0.083,-0.109 0.14,-0.151 0.204,-0.15C0.28,-0.148 0.341,-0.087 0.414,-0.066C0.487,-0.045 0.565,-0.066 0.636,-0.092C0.708,-0.118 0.78,-0.149 0.856,-0.148C0.927,-0.148 1.005,-0.109 1.028,-0.043C1.002,-0.045 0.952,-0.04 0.907,-0.027C0.828,-0.003 0.759,0.044 0.685,0.079C0.611,0.113 0.524,0.135 0.447,0.106C0.373,0.077 0.312,0.003 0.233,0.01C0.186,0.015 0.148,0.048 0.107,0.073C0.01,0.131 -0.115,0.138 -0.219,0.094C-0.18,0.101 -0.136,0.092 -0.102,0.071ZM1.031,-0.031C1.03,-0.035 1.029,-0.039 1.028,-0.043C1.047,-0.042 1.052,-0.037 1.031,-0.031Z" style="fill:url(#_Linear52);fill-rule:nonzero;"/>
                        </g>
                        <g transform="matrix(-36.667673,20.325223,20.325223,36.667673,1075.946716,974.664625)">
                            <path d="M-0.219,0.093C-0.242,0.088 -0.264,0.077 -0.28,0.059C-0.261,0.072 -0.24,0.084 -0.219,0.093ZM0.204,-0.151C0.28,-0.149 0.341,-0.088 0.414,-0.067C0.487,-0.046 0.565,-0.067 0.636,-0.093C0.708,-0.118 0.78,-0.15 0.856,-0.149C0.927,-0.149 1.005,-0.11 1.028,-0.044C1.002,-0.045 0.952,-0.041 0.907,-0.028C0.828,-0.004 0.759,0.043 0.685,0.078C0.611,0.112 0.524,0.134 0.447,0.105C0.373,0.077 0.312,0.002 0.233,0.009C0.186,0.014 0.148,0.048 0.107,0.072C0.01,0.131 -0.115,0.137 -0.219,0.093C-0.18,0.1 -0.136,0.091 -0.102,0.071C-0.046,0.038 -0.007,-0.016 0.038,-0.063C0.061,-0.087 0.088,-0.111 0.118,-0.127C0.145,-0.142 0.174,-0.151 0.204,-0.151ZM1.031,-0.032C1.03,-0.036 1.029,-0.04 1.028,-0.044C1.047,-0.043 1.052,-0.038 1.031,-0.032Z" style="fill:url(#_Linear53);fill-rule:nonzero;"/>
                        </g>
                        <g transform="matrix(0,1,1,0,1034.3433,986.9352)">
                            <path d="M9.021,-9.021C4.038,-9.021 0.001,-4.981 0.001,-0.001C0.001,4.982 4.038,9.021 9.021,9.021C14.003,9.021 18.041,4.982 18.041,-0.001C18.041,-4.981 14.003,-9.021 9.021,-9.021" style="fill:rgb(255,15,171);fill-rule:nonzero;"/>
                        </g>
                        <g transform="matrix(-11.155329,-4.347284,-4.347284,11.155329,1026.862288,1017.492389)">
                            <path d="M-0.017,-1.689C0.009,-1.853 0.143,-1.99 0.432,-1.944C0.281,-1.864 0.127,-1.782 -0.017,-1.689ZM0.012,-1.457C0.105,-1.23 0.31,-1.073 0.475,-0.891C0.64,-0.709 0.775,-0.454 0.686,-0.225C0.628,-0.076 0.495,0.016 0.358,0.105C0.241,0.089 0.119,0.121 0,0.124C-0.269,0.13 -0.535,-0.03 -0.657,-0.271C-0.824,-0.602 -0.706,-1.02 -0.469,-1.304C-0.341,-1.458 -0.185,-1.581 -0.017,-1.689C-0.029,-1.612 -0.018,-1.53 0.012,-1.457ZM0.716,0.482C0.749,0.647 0.716,0.817 0.669,0.978C0.609,1.186 0.489,1.418 0.274,1.443C0.031,1.471 -0.15,1.201 -0.162,0.957C-0.176,0.696 -0.062,0.431 0.137,0.261C0.204,0.204 0.282,0.155 0.358,0.105C0.375,0.108 0.392,0.111 0.409,0.116C0.42,0.119 0.431,0.123 0.442,0.127C0.586,0.183 0.685,0.329 0.716,0.482Z" style="fill:url(#_Radial54);fill-rule:nonzero;"/>
                        </g>
                        <g transform="matrix(1,0,0,1,1030.4941,1033.7599)">
                            <path d="M0,-39.838C2.896,-36.471 5.859,-32.991 7.269,-28.779C8.68,-24.569 8.174,-19.399 4.872,-16.43C2.473,-14.276 -1.192,-13.649 -4.171,-14.885C-5.686,-15.513 -7.062,-16.586 -8.694,-16.754C-10.692,-16.958 -12.626,-15.69 -13.71,-13.999C-14.795,-12.309 -15.168,-10.264 -15.35,-8.264C-15.585,-5.688 -15.247,-2.57 -12.959,-1.363C-10.375,0 -7.185,-2.216 -5.983,-4.881C-4.696,-7.736 -4.815,-11.19 -6.297,-13.951C-7.702,-16.568 -10.304,-18.791 -10.302,-21.762C-10.3,-24.701 -7.687,-26.961 -5.057,-28.272C-2.427,-29.582 0.542,-30.452 2.571,-32.576C4.603,-34.701 5.035,-38.742 0,-39.838Z" style="fill:none;fill-rule:nonzero;stroke:rgb(189,148,143);stroke-width:1.9px;"/>
                        </g>
                        <g transform="matrix(0.687327,-11.952733,-11.952733,-0.687327,1011.548522,995.496166)">
                            <path d="M0.669,0.978C0.609,1.186 0.489,1.418 0.274,1.443C0.031,1.471 -0.15,1.201 -0.162,0.958C-0.176,0.696 -0.062,0.431 0.137,0.261C0.204,0.204 0.282,0.155 0.358,0.105C0.375,0.108 0.392,0.111 0.409,0.116C0.57,0.16 0.682,0.318 0.716,0.482C0.728,0.545 0.731,0.608 0.728,0.672C0.722,0.775 0.698,0.878 0.669,0.978ZM0.686,-0.225C0.628,-0.076 0.495,0.016 0.358,0.105C0.241,0.089 0.12,0.121 -0,0.124C-0.269,0.13 -0.536,-0.03 -0.657,-0.271C-0.824,-0.602 -0.706,-1.02 -0.469,-1.304C-0.341,-1.458 -0.185,-1.581 -0.017,-1.689C-0.029,-1.612 -0.018,-1.53 0.012,-1.457C0.105,-1.231 0.31,-1.073 0.475,-0.891C0.61,-0.743 0.724,-0.545 0.713,-0.353C0.711,-0.31 0.702,-0.267 0.686,-0.225ZM-0.017,-1.689C0.009,-1.853 0.143,-1.99 0.432,-1.945C0.281,-1.864 0.127,-1.782 -0.017,-1.689Z" style="fill:url(#_Radial55);fill-rule:nonzero;"/>
                        </g>
                        <g transform="matrix(1,0,0,1,1035.0879,1000.193)">
                            <path d="M0,-8.526C-2.307,-4.732 -4.701,-0.839 -8.271,1.804C-11.839,4.447 -16.913,5.564 -20.757,3.34C-23.548,1.725 -25.275,-1.567 -25.021,-4.782C-24.891,-6.417 -24.295,-8.057 -24.641,-9.661C-25.064,-11.625 -26.868,-13.072 -28.811,-13.581C-30.753,-14.09 -32.813,-13.813 -34.772,-13.368C-37.295,-12.796 -40.155,-11.511 -40.596,-8.962C-41.095,-6.083 -38.001,-3.733 -35.096,-3.415C-31.98,-3.073 -28.734,-4.254 -26.566,-6.515C-24.51,-8.661 -23.2,-11.822 -20.375,-12.739C-17.579,-13.645 -14.622,-11.858 -12.563,-9.761C-10.504,-7.665 -8.759,-5.111 -6.111,-3.837C-3.464,-2.562 0.515,-3.399 0,-8.526Z" style="fill:none;fill-rule:nonzero;stroke:rgb(189,148,143);stroke-width:1.9px;"/>
                        </g>
                        <g transform="matrix(11.58012,-3.039911,-3.039911,-11.58012,1027.735848,974.134357)">
                            <path d="M0.274,1.443C0.031,1.471 -0.15,1.201 -0.162,0.957C-0.176,0.696 -0.062,0.431 0.137,0.261C0.204,0.204 0.282,0.155 0.358,0.105C0.375,0.108 0.392,0.111 0.409,0.116C0.57,0.16 0.682,0.318 0.716,0.482C0.749,0.647 0.716,0.817 0.669,0.978C0.614,1.171 0.505,1.385 0.318,1.434C0.304,1.438 0.289,1.441 0.274,1.443ZM-0,0.124C-0.269,0.13 -0.536,-0.03 -0.657,-0.271C-0.824,-0.602 -0.706,-1.02 -0.469,-1.304C-0.341,-1.458 -0.185,-1.581 -0.017,-1.689C-0.029,-1.612 -0.018,-1.53 0.012,-1.457C0.105,-1.231 0.31,-1.073 0.475,-0.891C0.64,-0.709 0.775,-0.454 0.686,-0.225C0.628,-0.076 0.495,0.016 0.358,0.105C0.241,0.089 0.119,0.121 -0,0.124ZM0.432,-1.945C0.281,-1.864 0.127,-1.782 -0.017,-1.689C0.009,-1.853 0.143,-1.99 0.432,-1.945Z" style="fill:url(#_Radial56);fill-rule:nonzero;"/>
                        </g>
                        <g transform="matrix(1,0,0,1,1038.6523,958.2999)">
                            <path d="M0,37.039C-4.322,36.018 -8.765,34.943 -12.381,32.365C-15.997,29.788 -18.628,25.308 -17.7,20.965C-17.026,17.811 -14.43,15.15 -11.293,14.399C-9.698,14.018 -7.954,14.077 -6.535,13.253C-4.799,12.244 -3.979,10.081 -4.096,8.076C-4.212,6.071 -5.112,4.197 -6.141,2.472C-7.465,0.25 -9.57,-2.073 -12.131,-1.705C-15.023,-1.29 -16.302,2.379 -15.707,5.24C-15.069,8.309 -12.943,11.031 -10.122,12.394C-7.446,13.686 -4.035,13.955 -2.29,16.359C-0.564,18.738 -1.351,22.102 -2.708,24.709C-4.065,27.315 -5.955,29.764 -6.349,32.676C-6.743,35.588 -4.718,39.112 0,37.039Z" style="fill:none;fill-rule:nonzero;stroke:rgb(189,148,143);stroke-width:1.9px;"/>
                        </g>
                        <g transform="matrix(6.469581,10.073965,10.073965,-6.469581,1052.937173,983.004252)">
                            <path d="M-0.162,0.969C-0.176,0.708 -0.062,0.443 0.137,0.273C0.204,0.215 0.282,0.167 0.358,0.117C0.375,0.119 0.392,0.123 0.409,0.127C0.57,0.172 0.683,0.329 0.716,0.494C0.749,0.658 0.716,0.829 0.669,0.99C0.609,1.198 0.489,1.43 0.274,1.454C0.132,1.471 0.012,1.386 -0.067,1.263C-0.123,1.176 -0.157,1.071 -0.162,0.969ZM-0.657,-0.259C-0.824,-0.59 -0.706,-1.008 -0.469,-1.293C-0.341,-1.446 -0.185,-1.569 -0.017,-1.677C-0.029,-1.601 -0.018,-1.518 0.012,-1.446C0.105,-1.219 0.31,-1.061 0.475,-0.879C0.64,-0.698 0.775,-0.442 0.686,-0.214C0.628,-0.065 0.495,0.027 0.358,0.117C0.241,0.101 0.12,0.133 0,0.136C-0.246,0.141 -0.49,0.008 -0.622,-0.199C-0.635,-0.218 -0.646,-0.238 -0.657,-0.259ZM0.432,-1.933C0.281,-1.852 0.128,-1.77 -0.017,-1.677C0.009,-1.841 0.142,-1.979 0.432,-1.933Z" style="fill:url(#_Radial57);fill-rule:nonzero;"/>
                        </g>
                        <g transform="matrix(1,0,0,1,1036.2617,973.6483)">
                            <path d="M0,26.215C-0.364,21.789 -0.716,17.232 0.619,12.995C1.952,8.761 5.4,4.874 9.817,4.414C13.025,4.08 16.358,5.728 18.042,8.479C18.897,9.878 19.38,11.555 20.603,12.65C22.099,13.989 24.409,14.1 26.279,13.37C28.15,12.64 29.654,11.204 30.978,9.694C32.682,7.747 34.241,5.027 33.099,2.705C31.81,0.083 27.926,0 25.389,1.45C22.667,3.005 20.735,5.868 20.311,8.973C19.908,11.917 20.707,15.244 18.96,17.647C17.23,20.023 13.788,20.316 10.89,19.829C7.991,19.344 5.079,18.303 2.188,18.829C-0.704,19.354 -3.43,22.368 0,26.215Z" style="fill:none;fill-rule:nonzero;stroke:rgb(189,148,143);stroke-width:1.9px;"/>
                        </g>
                        <g transform="matrix(-7.581699,9.265963,9.265963,7.581699,1052.659135,1009.843479)">
                            <path d="M-0.469,-1.32C-0.341,-1.473 -0.185,-1.596 -0.017,-1.704C-0.029,-1.628 -0.018,-1.545 0.012,-1.473C0.105,-1.246 0.31,-1.088 0.475,-0.907C0.64,-0.725 0.775,-0.47 0.686,-0.241C0.628,-0.092 0.495,0 0.358,0.09C0.241,0.074 0.119,0.106 -0,0.108C-0.269,0.114 -0.536,-0.046 -0.657,-0.286C-0.822,-0.614 -0.709,-1.027 -0.476,-1.312C-0.473,-1.314 -0.471,-1.317 -0.469,-1.32ZM0.432,-1.96C0.281,-1.88 0.127,-1.797 -0.017,-1.704C-0.008,-1.76 0.013,-1.813 0.049,-1.856C0.118,-1.941 0.241,-1.99 0.432,-1.96ZM0.137,0.246C0.204,0.188 0.282,0.139 0.358,0.09C0.375,0.092 0.392,0.096 0.409,0.1C0.57,0.145 0.682,0.302 0.716,0.467C0.749,0.631 0.716,0.802 0.669,0.963C0.609,1.17 0.489,1.403 0.274,1.427C0.031,1.455 -0.15,1.186 -0.162,0.942C-0.173,0.73 -0.1,0.515 0.034,0.351C0.065,0.313 0.1,0.278 0.137,0.246Z" style="fill:url(#_Radial58);fill-rule:nonzero;"/>
                        </g>
                        <g transform="matrix(1,0,0,1,1031.2197,1020.5538)">
                            <path d="M0,-21.566C4.098,-23.28 8.323,-25.023 12.765,-25.062C17.204,-25.103 21.966,-23.024 23.769,-18.966C25.077,-16.018 24.54,-12.339 22.444,-9.888C21.378,-8.642 19.933,-7.665 19.269,-6.164C18.456,-4.327 19.065,-2.096 20.337,-0.542C21.61,1.012 23.44,1.999 25.286,2.79C27.664,3.809 30.732,4.451 32.588,2.648C34.684,0.612 33.562,-3.108 31.398,-5.073C29.079,-7.18 25.759,-8.133 22.675,-7.578C19.751,-7.05 16.833,-5.263 14.009,-6.182C11.214,-7.092 9.872,-10.276 9.438,-13.183C9.005,-16.089 9.095,-19.181 7.701,-21.768C6.309,-24.356 2.599,-26.017 0,-21.566Z" style="fill:none;fill-rule:nonzero;stroke:rgb(189,148,143);stroke-width:1.9px;"/>
                        </g>
                    </g>
</g>
</g>
</svg>
