<svg xmlns="http://www.w3.org/2000/svg" viewBox="1494.4981621865102 6670.764447121113 456.67503461399974 580.1242111565998">
<g transform="matrix(4.166667,0,0,4.166667,0,0)">
<g transform="matrix(1,0,0,1,-11.56697,1.462939)">
<g xmlns="http://www.w3.org/2000/svg">
                        <g transform="matrix(1,0,0,1,476.9684,1605.5691)">
                            <path d="M0,130.301C-30.853,121.515 -56.744,96.919 -67.101,66.556C-71.271,54.33 -73.041,41.378 -77.377,29.21C-81.712,17.042 -89.315,5.161 -101.157,0" style="fill:none;fill-rule:nonzero;stroke:rgb(83,184,143);stroke-width:1.76px;"/>
                        </g>
                        <g transform="matrix(1,0,0,1,426.3474,1682.9039)">
                            <path d="M0,17.733C5.04,16.851 9.764,14.259 13.215,10.482C14.302,9.291 15.285,7.951 15.73,6.402C16.175,4.852 16.007,3.058 14.984,1.813C13.891,0.482 11.991,0 10.295,0.296C8.598,0.592 7.087,1.563 5.806,2.714C1.589,6.506 -0.46,12.561 0,17.733Z" style="fill:rgb(91,217,125);fill-rule:nonzero;stroke:rgb(46,64,56);stroke-width:0.59px;"/>
                        </g>
                        <g transform="matrix(1,0,0,1,425.5094,1711.0972)">
                            <path d="M0,-9.768C-2.326,-5.211 -6.193,-1.458 -10.819,0.728C-12.276,1.417 -13.846,1.962 -15.458,1.931C-17.07,1.901 -18.735,1.213 -19.624,-0.132C-20.574,-1.568 -20.477,-3.526 -19.694,-5.06C-18.912,-6.594 -17.54,-7.753 -16.063,-8.638C-11.198,-11.553 -4.808,-11.73 0,-9.768Z" style="fill:rgb(91,217,125);fill-rule:nonzero;stroke:rgb(46,64,56);stroke-width:0.59px;"/>
                        </g>
                        <g transform="matrix(1,0,0,1,415.8442,1670.7385)">
                            <path d="M0,13.933C4.49,13.79 8.917,12.12 12.384,9.263C13.477,8.363 14.496,7.319 15.075,6.027C15.653,4.735 15.729,3.155 14.994,1.946C14.208,0.654 12.616,0 11.105,0.047C9.593,0.095 8.16,0.752 6.904,1.595C2.769,4.369 0.239,9.38 0,13.933Z" style="fill:rgb(91,217,125);fill-rule:nonzero;stroke:rgb(46,64,56);stroke-width:0.59px;"/>
                        </g>
                        <g transform="matrix(1,0,0,1,415.0302,1690.7187)">
                            <path d="M0,-5.549C-2.585,-1.875 -6.411,0.909 -10.702,2.238C-12.054,2.657 -13.487,2.936 -14.884,2.71C-16.281,2.485 -17.644,1.681 -18.251,0.402C-18.899,-0.964 -18.572,-2.654 -17.702,-3.891C-16.833,-5.128 -15.496,-5.965 -14.103,-6.552C-9.514,-8.485 -3.937,-7.849 0,-5.549Z" style="fill:rgb(91,217,125);fill-rule:nonzero;stroke:rgb(46,64,56);stroke-width:0.59px;"/>
                        </g>
                        <g transform="matrix(1,0,0,1,409.0909,1659.0648)">
                            <path d="M0,10.334C3.919,10.787 7.979,9.905 11.358,7.869C12.423,7.228 13.443,6.452 14.111,5.404C14.78,4.356 15.049,2.994 14.565,1.849C14.049,0.626 12.75,-0.148 11.431,-0.3C10.112,-0.453 8.782,-0.067 7.583,0.504C3.635,2.382 0.793,6.41 0,10.334Z" style="fill:rgb(91,217,125);fill-rule:nonzero;stroke:rgb(46,64,56);stroke-width:0.59px;"/>
                        </g>
                        <g transform="matrix(1,0,0,1,408.3198,1671.591)">
                            <path d="M0,-1.864C-2.718,0.995 -6.399,2.922 -10.298,3.525C-11.526,3.714 -12.806,3.773 -13.991,3.397C-15.176,3.021 -16.256,2.148 -16.619,0.959C-17.006,-0.311 -16.505,-1.737 -15.59,-2.699C-14.676,-3.662 -13.408,-4.218 -12.122,-4.548C-7.887,-5.637 -3.124,-4.368 0,-1.864Z" style="fill:rgb(91,217,125);fill-rule:nonzero;stroke:rgb(46,64,56);stroke-width:0.59px;"/>
                        </g>
                        <g transform="matrix(1,0,0,1,405.4787,1646.037)">
                            <path d="M0,8.243C3.126,8.604 6.365,7.901 9.059,6.277C9.909,5.765 10.722,5.147 11.255,4.311C11.789,3.475 12.003,2.388 11.618,1.475C11.206,0.499 10.17,-0.117 9.118,-0.239C8.066,-0.361 7.005,-0.053 6.049,0.402C2.899,1.901 0.633,5.113 0,8.243Z" style="fill:rgb(91,217,125);fill-rule:nonzero;stroke:rgb(46,64,56);stroke-width:0.59px;"/>
                        </g>
                        <g transform="matrix(1,0,0,1,404.8636,1656.0277)">
                            <path d="M0,-1.486C-2.168,0.795 -5.104,2.331 -8.214,2.812C-9.194,2.964 -10.215,3.01 -11.16,2.711C-12.105,2.411 -12.966,1.714 -13.255,0.766C-13.565,-0.247 -13.165,-1.384 -12.435,-2.152C-11.706,-2.92 -10.694,-3.363 -9.669,-3.627C-6.291,-4.496 -2.492,-3.483 0,-1.486Z" style="fill:rgb(91,217,125);fill-rule:nonzero;stroke:rgb(46,64,56);stroke-width:0.59px;"/>
                        </g>
                        <g transform="matrix(1,0,0,1,402.104,1633.8542)">
                            <path d="M0,7.081C2.685,7.391 5.467,6.787 7.782,5.392C8.512,4.953 9.211,4.421 9.669,3.703C10.127,2.985 10.311,2.052 9.98,1.267C9.626,0.429 8.736,-0.101 7.832,-0.205C6.929,-0.31 6.017,-0.045 5.196,0.346C2.491,1.633 0.543,4.392 0,7.081Z" style="fill:rgb(91,217,125);fill-rule:nonzero;stroke:rgb(46,64,56);stroke-width:0.59px;"/>
                        </g>
                        <g transform="matrix(1,0,0,1,401.5757,1642.437)">
                            <path d="M0,-1.277C-1.862,0.682 -4.385,2.002 -7.056,2.415C-7.897,2.545 -8.774,2.585 -9.586,2.328C-10.398,2.07 -11.138,1.472 -11.387,0.657C-11.652,-0.213 -11.309,-1.19 -10.682,-1.849C-10.056,-2.509 -9.187,-2.89 -8.305,-3.116C-5.404,-3.862 -2.141,-2.993 0,-1.277Z" style="fill:rgb(91,217,125);fill-rule:nonzero;stroke:rgb(46,64,56);stroke-width:0.59px;"/>
                        </g>
                        <g transform="matrix(1,0,0,1,398.6371,1623.9184)">
                            <path d="M0,7.04C2.339,7.04 4.67,6.245 6.521,4.816C7.105,4.366 7.653,3.84 7.975,3.177C8.298,2.515 8.363,1.694 8.001,1.052C7.613,0.367 6.796,0 6.009,0C5.222,0 4.465,0.318 3.797,0.735C1.6,2.11 0.2,4.675 0,7.04Z" style="fill:rgb(91,217,125);fill-rule:nonzero;stroke:rgb(46,64,56);stroke-width:0.59px;"/>
                        </g>
                        <g transform="matrix(1,0,0,1,398.2053,1633.7091)">
                            <path d="M0,-2.505C-1.406,-0.636 -3.443,0.749 -5.698,1.369C-6.409,1.564 -7.158,1.686 -7.882,1.545C-8.605,1.404 -9.301,0.963 -9.595,0.288C-9.91,-0.434 -9.711,-1.307 -9.238,-1.937C-8.765,-2.566 -8.056,-2.979 -7.321,-3.261C-4.901,-4.191 -2.01,-3.767 0,-2.505Z" style="fill:rgb(91,217,125);fill-rule:nonzero;stroke:rgb(46,64,56);stroke-width:0.59px;"/>
                        </g>
                        <g transform="matrix(1,0,0,1,394.0614,1615.563)">
                            <path d="M0,6.668C2.042,6.488 4.016,5.615 5.522,4.225C5.997,3.787 6.434,3.286 6.665,2.683C6.896,2.08 6.89,1.358 6.524,0.826C6.133,0.258 5.391,0 4.704,0.06C4.017,0.121 3.381,0.456 2.83,0.872C1.018,2.241 -0.007,4.588 0,6.668Z" style="fill:rgb(91,217,125);fill-rule:nonzero;stroke:rgb(46,64,56);stroke-width:0.59px;"/>
                        </g>
                        <g transform="matrix(1,0,0,1,393.7033,1625.5916)">
                            <path d="M0,-3.113C-1.084,-1.374 -2.756,-0.008 -4.676,0.707C-5.282,0.932 -5.927,1.095 -6.569,1.028C-7.211,0.961 -7.852,0.63 -8.161,0.063C-8.491,-0.543 -8.386,-1.321 -8.021,-1.907C-7.656,-2.492 -7.069,-2.908 -6.449,-3.211C-4.408,-4.208 -1.852,-4.06 0,-3.113Z" style="fill:rgb(91,217,125);fill-rule:nonzero;stroke:rgb(46,64,56);stroke-width:0.59px;"/>
                        </g>
                        <g transform="matrix(1,0,0,1,388.7271,1609.0422)">
                            <path d="M0,5.605C1.496,5.226 2.859,4.34 3.811,3.125C4.112,2.743 4.377,2.318 4.476,1.841C4.575,1.365 4.484,0.83 4.148,0.478C3.789,0.102 3.207,0 2.703,0.127C2.199,0.255 1.767,0.581 1.408,0.956C0.224,2.192 -0.255,4.06 0,5.605Z" style="fill:rgb(91,217,125);fill-rule:nonzero;stroke:rgb(46,64,56);stroke-width:0.59px;"/>
                        </g>
                        <g transform="matrix(1,0,0,1,388.4907,1618.2874)">
                            <path d="M0,-3.413C-0.597,-1.99 -1.675,-0.774 -3.017,-0.011C-3.44,0.229 -3.9,0.428 -4.386,0.455C-4.871,0.482 -5.388,0.313 -5.685,-0.071C-6.004,-0.482 -6.018,-1.073 -5.818,-1.552C-5.617,-2.031 -5.23,-2.411 -4.806,-2.71C-3.409,-3.697 -1.49,-3.895 0,-3.413Z" style="fill:rgb(91,217,125);fill-rule:nonzero;stroke:rgb(46,64,56);stroke-width:0.59px;"/>
                        </g>
                        <g transform="matrix(1,0,0,1,383.7005,1605.3622)">
                            <path d="M0,4.926C1.098,4.375 2.005,3.452 2.537,2.346C2.705,1.997 2.838,1.621 2.833,1.234C2.828,0.847 2.666,0.446 2.345,0.23C2.001,0 1.531,0.02 1.162,0.206C0.792,0.391 0.512,0.719 0.297,1.072C-0.411,2.235 -0.463,3.769 0,4.926Z" style="fill:rgb(91,217,125);fill-rule:nonzero;stroke:rgb(46,64,56);stroke-width:0.59px;"/>
                        </g>
                        <g transform="matrix(1,0,0,1,383.5557,1614.2483)">
                            <path d="M0,-3.743C-0.22,-2.535 -0.85,-1.405 -1.762,-0.582C-2.049,-0.323 -2.373,-0.089 -2.745,0.015C-3.118,0.119 -3.548,0.076 -3.846,-0.171C-4.163,-0.436 -4.276,-0.893 -4.202,-1.3C-4.128,-1.706 -3.893,-2.068 -3.615,-2.373C-2.698,-3.379 -1.241,-3.862 0,-3.743Z" style="fill:rgb(91,217,125);fill-rule:nonzero;stroke:rgb(46,64,56);stroke-width:0.59px;"/>
                        </g>
                        <g transform="matrix(1,0,0,1,379.7474,1602.9052)">
                            <path d="M0,4.644C0.939,4.041 1.671,3.12 2.046,2.069C2.164,1.738 2.248,1.385 2.207,1.036C2.166,0.686 1.98,0.34 1.669,0.176C1.337,0 0.914,0.064 0.598,0.267C0.281,0.47 0.06,0.792 -0.101,1.132C-0.629,2.251 -0.53,3.642 0,4.644Z" style="fill:rgb(91,217,125);fill-rule:nonzero;stroke:rgb(46,64,56);stroke-width:0.59px;"/>
                        </g>
                        <g transform="matrix(1,0,0,1,379.6374,1611.5512)">
                            <path d="M0,-3.792C-0.083,-2.679 -0.544,-1.597 -1.29,-0.767C-1.524,-0.505 -1.794,-0.263 -2.121,-0.133C-2.448,-0.003 -2.841,0 -3.133,-0.196C-3.446,-0.404 -3.592,-0.806 -3.564,-1.181C-3.536,-1.556 -3.358,-1.905 -3.136,-2.208C-2.403,-3.205 -1.133,-3.78 0,-3.792Z" style="fill:rgb(91,217,125);fill-rule:nonzero;stroke:rgb(46,64,56);stroke-width:0.59px;"/>
                        </g>
                        <g transform="matrix(1,0,0,1,375.5795,1602.4004)">
                            <path d="M0,3.077C0.622,2.677 1.107,2.067 1.356,1.37C1.434,1.151 1.49,0.917 1.462,0.686C1.435,0.454 1.312,0.224 1.106,0.116C0.886,0 0.606,0.042 0.396,0.176C0.187,0.311 0.039,0.525 -0.067,0.75C-0.417,1.491 -0.351,2.413 0,3.077Z" style="fill:rgb(91,217,125);fill-rule:nonzero;stroke:rgb(46,64,56);stroke-width:0.59px;"/>
                        </g>
                        <g transform="matrix(1,0,0,1,375.5065,1608.1296)">
                            <path d="M0,-2.513C-0.055,-1.775 -0.36,-1.058 -0.855,-0.508C-1.01,-0.335 -1.189,-0.174 -1.406,-0.088C-1.622,-0.002 -1.883,0 -2.077,-0.13C-2.284,-0.268 -2.38,-0.534 -2.362,-0.783C-2.343,-1.031 -2.225,-1.262 -2.078,-1.463C-1.593,-2.124 -0.751,-2.505 0,-2.513Z" style="fill:rgb(91,217,125);fill-rule:nonzero;stroke:rgb(46,64,56);stroke-width:0.59px;"/>
                        </g>
                        <g transform="matrix(1,0,0,1,437.7383,1692.5602)">
                            <path d="M0,21.032C5.977,19.986 11.58,16.912 15.673,12.432C16.963,11.02 18.128,9.431 18.656,7.593C19.183,5.755 18.985,3.628 17.771,2.151C16.474,0.573 14.221,0 12.209,0.352C10.198,0.703 8.405,1.854 6.886,3.22C1.885,7.716 -0.546,14.898 0,21.032Z" style="fill:rgb(91,217,125);fill-rule:nonzero;stroke:rgb(46,64,56);stroke-width:0.59px;"/>
                        </g>
                        <g transform="matrix(1,0,0,1,436.7444,1725.9982)">
                            <path d="M0,-11.585C-2.758,-6.18 -7.345,-1.73 -12.831,0.864C-14.56,1.681 -16.422,2.327 -18.333,2.29C-20.245,2.254 -22.22,1.438 -23.274,-0.156C-24.401,-1.86 -24.285,-4.182 -23.357,-6.001C-22.43,-7.821 -20.802,-9.195 -19.05,-10.245C-13.281,-13.702 -5.702,-13.912 0,-11.585Z" style="fill:rgb(91,217,125);fill-rule:nonzero;stroke:rgb(46,64,56);stroke-width:0.59px;"/>
                        </g>
                    </g>
</g>
</g>
</svg>
