<?xml version="1.0" encoding="UTF-8"?><svg id="Layer_2" xmlns="http://www.w3.org/2000/svg" viewBox="0 0 337.3 365.18"><g id="Layer_1-2"><path d="M91.42,167.52c.72-26.69-49.79-42.54-45.85-74.99C52.08,38.89,154.71-13.3,198.47,3.05c10.26,3.83,20.55,12.89,18.87,23.71-1.7,10.97-14.61,16.46-25.71,16.44-13.45-.02-26.84-5.27-36.72-14.4-3.17,5.01-6.4,10.16-7.58,15.96-1.17,5.81,.14,12.5,4.77,16.21,4.52,3.61,10.86,3.57,16.63,3.2,51.28-3.25,101.79-18.17,146.6-43.33,2.43,6.62-.37,14.26-5.2,19.39-4.84,5.13-11.4,8.23-17.86,11.05-38.26,16.7-79.03,27.62-120.51,32.28-6.02,.68-12.34,1.32-17.36,4.71-5.02,3.39-8.07,10.56-4.87,15.7,3.76,6.03,12.59,5.39,19.56,4.01,50.03-9.9,101.69-20.48,143.38-49.85,2.86,8.18-1.11,17.5-7.45,23.41-6.34,5.91-14.66,9.13-22.76,12.23-23.5,8.97-46.99,17.94-70.49,26.91-19.39,7.29-38.78,14.59-58.18,21.88-23.45-17.7-32.25-52.34-20.07-79.08-10.51-.24-20.15,7.5-24.16,17.22-4.01,9.72-3.1,20.91,.33,30.85,10.24,29.68,44.28,48.96,75.01,42.47,14.19-2.99,28.04-11.79,32.96-25.43,3.36,14.4-6.08,29.15-18.29,37.48-12.21,8.33-26.9,12-40.69,17.31-13.8,5.31-27.73,13.17-34.36,26.39-6.63,13.21-2.29,32.58,11.7,37.34,8.68,2.95,18.17-.24,26.55-3.95,50.66-22.39,91.05-63.68,141.39-86.8,6.51-2.99,13.89-5.7,20.66-3.38,6.61,2.26,10.93,8.96,12.17,15.84s-.08,13.93-1.71,20.72c-8.29,34.51-11.66,79.75-43.88,64.86-19.2-8.87,33.83-63.62,10.11-72.08-19.63-7-19.66,36.98-37.54,56.03-17.88,19.05-45.93,34.19-73.75,48.45-16.45,8.43-33.29,16.78-51.49,19.98-18.21,3.19-38.27,.57-52.6-11.1-5.24-4.27-9.75-10-10.65-16.7-.91-6.7,2.76-14.28,9.27-16.13,6.51-1.85,14.37,4.43,14.41,11.28,1.04-14.29-12.99-27.27-27.3-26.42-14.31,.84-26.36,13.99-27.39,28.29-1.03,14.29,8.01,28.37,20.81,34.81,6.44,3.24,13.6,4.72,20.36,7.22,6.76,2.5,13.48,6.35,16.93,12.68,3.46,6.33,2.34,15.52-3.89,19.13-4.23,2.45-10.08,1.63-13.47-1.89-3.39-3.52-4-9.4-1.39-13.53-8.44,.29-15.38,6.55-20.96,12.89-5.58,6.34-11.03,13.42-18.93,16.42-11.54,4.38-25.05-1.82-32.46-11.69-7.41-9.87-9.9-22.54-11.11-34.83-4.48-45.72,90.16-108.56,91.26-149.71Z"/></g></svg>