<?xml version="1.0" encoding="UTF-8"?><svg id="Layer_2" xmlns="http://www.w3.org/2000/svg" xmlns:xlink="http://www.w3.org/1999/xlink" viewBox="0 0 573.58 731.99"><defs><style>.cls-1{fill:url(#radial-gradient);stroke:#000;stroke-miterlimit:10;stroke-width:.7px;}</style><radialGradient id="radial-gradient" cx="286.79" cy="365.99" fx="286.79" fy="365.99" r="328.44" gradientUnits="userSpaceOnUse"><stop offset="0" stop-color="#ffd000"/><stop offset=".16" stop-color="#f5c428"/><stop offset=".46" stop-color="#e5b170"/><stop offset=".71" stop-color="#d9a3a4"/><stop offset=".9" stop-color="#d29ac4"/><stop offset="1" stop-color="#d097d1"/></radialGradient></defs><g id="Layer_3"><path class="cls-1" d="M170.39,512.76c-15.25,24.98,13.97-39.58,11.71-58.01-2.69-21.97-19.26-36.94-38.38-34.68-19.13,2.26-39.08,21.54-46.24,44.68-7.16,23.14-.86,48.03,14.58,57.68-18.71-2.6-29.6-26.11-25.42-50.15,4.18-24.04,21.39-46.47,40.68-56.5,19.3-10.03,39.95-8.59,56.08.73,8.41,4.86,19.4,11.1,27.74,1.73,5.37-6.03,6.01-15.98,2.97-22.19-3.04-6.21-8.82-9.4-14.67-11.58-38.28-14.23-88.25,7.78-121.96,49.05-12.53,15.34-23.41,33.37-38.22,44.81-7.67,5.93-16.51,9.87-24.41,8.72-7.9-1.15-14.46-8.25-14.5-18.16-.04-9.92,7.86-21.51,16.1-22.06-6.86,2.34-9.5,15.23-4.91,20.12,4.59,4.89,12.89,2.79,19.1-2.36,6.2-5.15,10.89-12.7,15.75-19.75,39.48-57.32,101.55-91.62,154.81-85.54,8.42.96,16.77,2.84,25.59,1.05,8.82-1.79,18.52-8.27,22.77-18.58-14.86-15.69-40.32-9.5-62.34-.55-22.03,8.95-45.84,20.16-65.25,12.47-8.09-3.21-15.14-10.45-15.96-21.18-.83-10.73,6.75-24.54,15.97-26.03-10.69,9.95-4.71,30.14,6.84,32.01,11.56,1.87,24.14-6.99,35.88-14.29,26.33-16.38,56.67-26.46,79.76-14.71,4.85,2.47,9.34,5.88,14.78,6.8,5.43.93,12.32-1.39,15.99-7.66,3.77-6.44,2.65-14.65-.93-19.34-3.58-4.69-9.03-6.68-14.31-8.54-11.36-4.01-22.72-8.02-34.07-12.04-24.37-8.61-49.66-17.29-77.04-12.02-27.39,5.27-57.62,28.45-67.58,61.44-2.14,7.09-3.27,14.61-1.88,21.05,2.36,10.91,11.69,18.01,10.37,30.12-1.73,15.83-18.99,24.21-31.95,25.83-10.3,1.29-21.25,1.15-28.19-6.21-6.93-7.36-7.04-24.36,2.11-32.56-3.32,5.8-2.28,13.12.93,17.31,3.21,4.19,8.09,5.99,12.8,7.67,5.57,1.99,12.15,3.78,17.88-.79,6.59-5.26,8.25-16.63,5.36-23.75-2.89-7.12-8.94-11.02-15.64-23.76-6.7-12.73.57-40.34,14.68-58.87,14.11-18.53,33.41-29.4,52.17-36.4,52.54-19.61,105.63-13.55,150.19,8.39,7.93,3.9,15.9,8.36,25.1,8.16,9.2-.2,20.14-6.49,24.57-17.49,5.83-14.49-2.37-28.31-12.4-34.28-9.96-5.93-22.05-7.73-34.31-5.12-14.11,3.01-28.23,11.65-42.24,13.17-14,1.52-28.73-8.18-26.45-25.34,2.03-15.31,16.56-29.21,16.07-44.04-.39-11.48-10.58-17.34-20.32-14.83-9.75,2.51-18.71,11.21-26.21,20.57-6.12,7.64-11.54,21.08-5.17,25.07,6.55,4.11,14.69-8.14,19.02-17.71-2.65,11.09-6.18,23.6-14.54,30.18-10.13,7.97-22.78,1.54-25.12-10.71-2.34-12.25,3.78-27.38,12.78-37.41,8.99-10.03,20.31-15.76,31.36-19.63,8.52-2.98,17.38-5.03,25.16-2.89,7.79,2.14,14.28,9.27,14.53,19.36.38,15.57-13.46,33.57-8.9,47.09,4.57,13.55,21.97,8.43,35.03,2.61,22.39-9.98,48.69-16.63,63.51-.13,7.16,7.97,14.13,21.5,24.72,15.44,9.81-5.62,10.56-22.97,5.13-31.74-13.66-22.05-44.92-13.97-66.51-24.49-9.56-4.66-17.1-12.97-24.89-20.67-15.98-15.79-34-29.56-55.48-34.33-21.48-4.77-48.89,3.72-70.55,19.24-24,17.21-29.98,51.98-23.22,76.58,1.66,6.02,1.83,14.76.14,21.65-3.21,13.13-12.47,16.6-22.13,22.2-7.76,4.49-15.96,6.37-23.62,5.46-8.09-.96-11.89-1.74-17.54-7.8-5.66-6.07-8.09-17.2-3.7-27.01,4.13-9.23,17.9-12.35,17.44-2.73-.07,1.53-.46,3.66-.92,5.69-1.1,4.96.05,9.73,3.16,12.06.34.25.67.46.99.6,10.22,4.57,28.56,5.59,33.39-8.6,3.56-10.45-1.66-21.21-1.98-31.53-.56-18.08-3.05-61,44.94-86.39,23.4-12.38,48.23-17.41,70.99-14.37,53.25,7.1,90.85,56.12,143.49,65.47,8.27,1.47,17.43,1.77,25.81-3.68,8.38-5.45,15.03-18.49,11.79-27.38-4.18-11.47-18.77-7.6-30.13-4.19-15.31,4.59-30.71,5.85-45.19,3.71-9.22-1.36-18.38-4.3-24.53-11.68-6.15-7.38-8.58-20.11-3.71-31.43,4.87-11.32,18.09-18.41,24.83-11.79-7.06-4.78-17.86,9.55-16.44,19.74,1.43,10.19,9.66,15.18,17.55,18.27,6.12,2.4,12.52,4.28,19.31,4.43,23.38.5,50.24-19.34,70.89-10.13,8.19,3.65,14.2,11.58,22.47,15.03,8.27,3.46,21.02-.16,25.08-11.47,2.97-8.29-.31-16.47-5.02-21.36-4.71-4.89-10.8-7.83-15.12-13.22-6.47-8.09-8.14-21.63-4.22-34.2,2.18-6.98,6.43-14.04,12.13-16.84,5.71-2.8,12.41.69,12.06,7.68-.35,6.99-7.28,2.44-12.32,7.21-17.94,16.97,19.16,21.32,26.03,35.59,6.87,14.26,7.17,36.53-1.78,54.57-6.23,12.55-16.39,23.12-20.07,36.53,3.06,7.72,11.86,9,19.63,6.47,6.61-2.15,14.23-4.8,21.09-7.67,19.14-8.01,38.59-7.68,54.45,1.26,56.59,31.92,26.98,71.24,11.98,78.45-4.25,2.04-8.94,2.37-12.21-.12-3.27-2.49-4.68-8.16-3.23-12.73,5.57,1.73,12.66-1.17,17.41-7.12,4.75-5.94,6.89-14.61,5.26-21.27-1.21-4.94-4.22-8.54-7.43-11.6-11.81-11.28-27.37-17.14-43.97-16.58-22.58.77-45.83,12.96-68.01,25.96-2.67,1.56-5.45,3.25-7.45,6.05-3.13,4.38-3.48,10.58-1.66,14.78,1.82,4.2,5.39,6.67,9.21,8.11,16.92,6.39,54.83-5.4,51.67-27.11-.6-4.12-7.61-6.06-12.01-4.85.64.27-1.04,1.61-.88.27.06-.5.34-1,.71-1.32,5.82-5.12,13.54-5.59,18.08-1.17,4.44,4.32,5.51,12.99,2.52,20.5-2.79,7.01-8.39,12.28-14.02,16.14-7.95,5.45-16.51,8.91-24.92,10.29-9.54,1.56-18.93.5-28.49,3.56s-19.97,12.09-22,23.74c-2.42,13.91,8.75,23.18,20.07,22.04,11.32-1.14,22.49-9.23,33.45-15.97,14.33-8.81,36.91-25.61,43.81-11.66,2.48,5.01-3.51,13.44-8.07,18.01-4.56,4.57-11.19,6-15.15,2.79,4.33-1.23,16.08-9.64,13.68-13.31-9.05-13.83-35.59,19.99-51.78,27-15.75,6.82-32.69,2.87-47.28,14.24-4.86,3.79-9.34,9.7-10.18,16.14-.96,7.33,3.2,13.21,8.52,15.21,5.32,2,11.56.91,17.6-.47,28.75-6.57,57.64-19.47,84.78-37.88,7.15-4.85,14.48-10.41,19.33-18.58,4.86-8.18,6.31-19.64,1.3-25.07,6.97,10.41,3.49,28.9-5.03,41.89-8.52,12.98-20.84,21.42-32.93,27.99-14.65,7.97-29.71,13.95-44.77,17.78-20.63,5.25-43.03,7.45-60.35,25.3-5.85,6.03-10.98,14.34-11.38,22.71-.62,13.07,12.43,19.89,22.64,12.74,10.21-7.15,14.92-24.38,10.47-35.02,14.98,3.68,14.32,32.84.98,47.45-13.34,14.61-32.45,15.25-45.56,7.19-3.42-2.1-6.69-4.75-10.74-5.21-8.41-.96-17.09,7.48-24.39,15.27-6.57,7.02-13.98,16.39-12.71,25.37.86,6.11,5.56,9.38,10.18,11.47,33.52,15.22,81.22-6.76,106.33-48.99,5.18-8.72,9.55-18.45,10.56-28.24,1.01-9.79-1.96-19.55-8.78-22.9,9.57,1,14.02,13.06,14.8,24.72,2.3,34.39-18.61,75.03-47.13,91.59-24.44,14.19-50.54,11.12-75.6,21.86-20.28,8.69-39.31,26.67-51.99,49.1-1.75,3.1-3.44,6.45-3.79,9.88-.73,7.18,4.46,11.57,9.46,14.05,6.53,3.24,13.94,5.33,21.68,2.98,7.74-2.35,15.71-10.16,17.6-19.58,1.89-9.42-4.7-18.35-12.35-14.89,7.54-8.14,19.03-8.45,24.38-1.02,5.35,7.43,4.08,21.16-2.49,30.45-13.92,19.71-37.78,11.87-56.25,23.78-14.95,9.64-24.03,33.64-18.89,49.94,16.64,8.87,42.4,1.82,59.44-15.15,17.03-16.96,21.59-21.31,32.82-43.95,8.84-17.83,22.46-61.93,13.93-75.46,11.22,4.65,14.74,21.16,14.1,36.65-1.61,39-24.16,81.1-54.74,102.17-14.6,10.06-30.42,15.47-45.07,25.36-6.69,4.51-13.79,11.09-15.53,19.71-1.84,9.14,3.58,16.74,10.46,18.51,6.89,1.76,14.76-.94,22.19-4.15,51.89-22.42,99.82-72.43,127.21-132.73,9.61-21.15,16.77-43.35,26.73-64.33,9.96-20.98,22.59-46.31,40.92-52.74,14.37-5.03-2.75,15.84-8.3,26.72-21.91,43-35.12,90.8-60.54,131.42-11.39,18.2-24.94,34.46-38.92,49.88-23.5,25.92-49.15,50.28-77.52,63.55-5.32,2.49-10.75,4.53-16.2,6.07-.42.12-.84.24-1.26.37-40.41,12.02-80.6-19.36-78.89-61.48,1.7-42.09,511.61-1033.7-25.04-154.8Z"/></g></svg>