<?xml version="1.0" encoding="UTF-8"?><svg id="Layer_2" xmlns="http://www.w3.org/2000/svg" viewBox="0 0 466.08 895.45"><defs><style>.cls-1{fill:#ff75c3;stroke:#000;stroke-miterlimit:10;}</style></defs><g id="Layer_1-2"><path class="cls-1" d="M146.3,830.05c8.84,1.46,16.35,3.46,23.87,5.46,10.19,9.48,2.69,29.12-10.87,32.3s-27.63-7.09-32.45-20.14c-4.82-13.06-2.19-27.78,2.95-40.71,13.99-35.24,44.54-60.77,73.93-84.73,87.2-71.11,174.39-142.22,261.59-213.33-48.65-42.67-101.85-80.15-158.4-111.6,17.53-50.86,30.32-103.35,38.17-156.57-51.8-22.93-105.71-41.07-160.83-54.12,7.5-40.28,9.91-81.3,7.44-122.02,69.17-18.11,140-29.85,211.32-35.01C331.34-17.61,229.63-5.72,168.05,53.35c-29.18,27.99-50.01,69.43-39.83,108.56,8.68,33.35,37.06,57.06,60.34,82.45,49.68,54.17,80.69,125.15,86.7,198.41,6,73.26-13.04,148.34-53.24,209.88-29.96,45.86-75.05,85.91-129.41,92.62-27.08,3.35-50.57-36.28-47.17-65.87-3.37,25.71-20.14,49.3-43.31,60.93,15.67-.05,31.54-.08,46.7,3.84s29.8,12.32,37.95,25.7c11.53,18.92,7.97,42.98,11.72,64.82,3.55,20.67,14.67,40.6,32.45,51.72s42.41,11.89,59.16-.73c16.75-12.62,22.32-39.02,9.77-55.81s-42.27-17.47-53.59,.18Zm162.52-392.21c14.53,22.46,28.4,40.32,47.46,51.58,16.96,10.02,39.22,14.8,62.07,12.95-23.84,1.85-44.3,1.73-61.53,12.58-23.03,14.5-41.6,36.21-54.75,61.75-2.39,5.1-4.86,10.39-7.36,16.07,2.22-5.5,4.68-10.86,7.36-16.07,9.98-21.3,18.56-39.31,22.46-69.03,3.24-24.72-3.32-48.5-15.72-69.83-2.09-3.23-4.2-6.56-6.33-9.98,2.25,3.26,4.36,6.59,6.33,9.98Zm-37.23-153.37c-12.97-25.06-34.59-45.54-60.32-57.12,17.33,7.52,44.38,26.61,67.95,27.99,25.91,1.51,38.67-1.84,43.33-3.56,1.37-.71,2.16-.93,2.16-.93,0,0-.67,.38-2.16,.93-4.2,2.18-13.95,9.01-23.83,28.63-10.5,20.86-12.63,58.25-14.78,80.82-.16,1.83-.35,3.66-.56,5.48,.19-1.7,.38-3.54,.56-5.48,2.36-26.36-.22-53.32-12.35-76.76Z"/></g></svg>