<?xml version="1.0" encoding="UTF-8"?><svg id="Layer_2" xmlns="http://www.w3.org/2000/svg" viewBox="0 0 264.55 535.13"><defs><style>.cls-1{fill:#fff;}</style></defs><g id="Layer_1-2"><path d="M151.97,201.42c28.66-19.13,43.25,56.61,37.6,90.61-5.65,33.99-31.88,63.72-64.9,73.56-20.06,5.98-46,2.55-55.52-16.1-7.24-14.18-1.79-32.31,9.24-43.79,8.61-8.97,22.23-14.9,33.56-9.79,11.33,5.11,14.05,24.51,2.6,29.36,13.36-2.42,21.05-18.95,16.61-31.77-4.44-12.83-18.13-20.93-31.68-21.66-13.55-.74-26.79,4.77-38.08,12.3-16.3,10.87-29.87,26.73-35.1,45.61-5.24,18.89-1.11,40.81,12.84,54.57,11.76,11.6,28.88,16.49,40.62,28.12,20.88,20.67,15.18,61.13-10.6,75.23-10.13,5.54-22.71,7.13-33.37,2.71-10.66-4.42-18.73-15.37-18.27-26.9,.46-11.53,10.53-22.31,22.07-22.17,11.54,.14,21.64,12.65,18.13,23.65,9.37-10.61,5.85-29.14-5.86-37.09-11.72-7.95-28.74-5.47-39.14,4.14-10.4,9.61-14.38,24.97-12.08,38.94s10.23,26.57,20.33,36.49c37.12,36.45,100.51,34.97,144.35,6.97,13.23-8.45,25.64-19.68,30.58-34.57,4.94-14.9,.07-33.85-13.99-40.83-14.06-6.98-26.99,.46-31.95,15.35-1.28,3.83-8.21,18.15,5.77,23.61,7.68,3,20.69-6.38,18.77-18.79,15.25,13.41-12.27,45.25-35.93,40.61-23.66-4.64-35.76-34.29-28.74-57.36,7.02-23.06,27.5-39.54,48.92-50.6,21.42-11.06,44.82-18.23,65.35-30.87,20.53-12.64,38.67-32.67,40.35-56.72,.67-9.56-2.78-20.96-11.94-23.78-9.28-2.85-18.42,4.67-24.37,12.33-4.85,6.25-9.21,14.39-6.3,21.74,2.91,7.35,16.58,8.01,17.17,.12,7.9,9.04-.92,25.21-12.9,26.03-11.98,.82-22.42-10.14-24.37-21.99-1.95-11.85,2.78-23.86,9.25-33.96,7.95-12.42,18.55-22.93,27.14-34.92,14.54-20.31,23.08-44.86,24.27-69.81,.79-16.52-1.85-33.84-11.38-47.36-9.52-13.52-27.04-22.22-43-17.87-15.96,4.34-26.93,24.06-19.3,38.74,4.66,8.95,16.61,14.24,25.5,9.46,8.89-4.78,7.86-20.81,7.51-29.36,6.42,10.79,9.53,26.15,11.16,39.13,1.62,12.99-4.79,27.73-17.18,31.93-12.03,4.08-25.7-3.12-32.55-13.82-6.85-10.7-8.22-23.98-8.1-36.69,.4-40.58,14.59-80.9,39.68-112.79,7.46-9.48,16.36-21.58,10.86-32.32-3.54-6.92-12.3-9.95-19.99-8.82-7.7,1.14-14.47,5.62-20.48,10.56-23.13,19-38.67,45.99-48.36,74.32-9.7,28.32-13.97,58.18-17.84,87.87-1.09,8.39-2.15,17.06,.09,25.22s8.61,15.8,17.01,16.85,10.3-9.88,15.92-13.62Z"/><circle class="cls-1" cx="197.14" cy="26.45" r="9"/><circle class="cls-1" cx="179.14" cy="47.45" r="9"/><circle class="cls-1" cx="166.14" cy="73.45" r="9"/><circle class="cls-1" cx="156.14" cy="101.45" r="9"/><circle class="cls-1" cx="150.14" cy="131.45" r="9"/><circle class="cls-1" cx="147.14" cy="164.45" r="9"/><circle cx="99.33" cy="504.21" r="8"/><path d="M87.97,313.5c-4.81,4.93-8.11,11.35-9.65,18.07-1.53,6.71-.47,14.3,4.08,19.47,3.75,4.25,9.37,6.41,14.95,7.46,18.94,3.57,38.97-4.31,52.61-17.93,13.64-13.63,21.37-32.34,24.45-51.37,3.35-20.7,1.57-41.92-1.08-62.67-.39-3.07-1.7-6-3.91-8.18-6.01-5.93-12.92-2.04-17.2,2.74-3.19,3.56-5.71,7.85-9.69,10.5-5.12,3.41-11.93,3.49-17.74,1.46-5.8-2.03-10.76-5.93-15.28-10.11-10.64-9.84-19.65-21.9-23.72-35.82-4.07-13.91-2.71-29.82,5.67-41.64,3.92-5.53,9.32-10.21,10.3-17.37,.41-2.96-.35-6.03-2.37-8.23-4.64-5.06-11.77-2.06-15.03,2.78-2.68,3.98-3.47,8.88-4.56,13.55-1.22,5.24-3.13,10.75-8.39,13.22-2.87,1.35-6.35,.96-8.56-1.32-3.44-3.56-1.42-8.96-1.91-13.65-.87-8.39-11.06-13.84-19.03-11.08-7.97,2.76-12.66,11.91-11.71,20.29,1.13,9.89,8.92,18.3,17.86,22.25,2.57,1.14,4.71,3.16,5.88,5.72,3.84,8.37-6.16,13.11-13.23,11.31-6.08-1.55-11.16-5.86-17.2-7.52-6.85-1.88-14.8,.16-19.39,5.58-4.59,5.42-5.13,14.09-.72,19.66,4.42,5.6,12.39,7.12,19.49,6.39s13.9-3.27,20.98-4.17c3.57-.45,7.62-.34,9.92,2.76,2.15,2.9,1.72,6.93-.58,9.71-4.05,4.89-10.58,5.16-16.46,4.52-4.94-.54-9.96-1.61-14.82-.58-10.39,2.2-16.82,15.28-12.19,24.85,5.39,11.15,21.52,13.32,32.37,7.33,10.85-5.99,17.36-17.49,22.42-28.8,1.1-2.45,2.23-5.03,4.66-6.44,1.59-.92,3.61-1,5.06,.12,2.8,2.15,1.25,6.63-.54,9.7l-11.12,19.11c-1.39,2.38-1.47,5.39,.02,7.7,3.14,4.85,9.55,1.78,12.06-2.47,2.23-3.78,2.96-8.41,5.75-11.8,3.89-4.72,10.95-5.76,16.85-4.14s10.92,5.43,15.77,9.15c6.52,4.99,13.03,9.97,19.55,14.96,5.87,4.49,11.95,9.24,15.09,15.94,3.18,6.8,2.87,14.78,1.03,22.06-4.86,19.24-20.52,35.35-39.62,40.76-4.66,1.32-8.43,2.47-12.64-.09-3.8-2.31-6.39-8.03-5.76-12.43,.23-1.57,.37-3.04,.95-4.13,8.26-15.31,13.99-7.88,13.99-7.88,0,0-4.21-13.1-17.67,.7Z"/><ellipse class="cls-1" cx="46.89" cy="140.72" rx="5" ry="4.5"/><ellipse class="cls-1" cx="92.89" cy="127.72" rx="3.23" ry="2.91"/><ellipse class="cls-1" cx="18.89" cy="189.72" rx="5" ry="4.5"/><ellipse class="cls-1" cx="29.89" cy="235.72" rx="5" ry="4.5"/></g></svg>