<?xml version="1.0" encoding="UTF-8"?><svg id="Layer_2" xmlns="http://www.w3.org/2000/svg" viewBox="0 0 754.18 915.48"><defs><style>.cls-1{fill:#ff7070;stroke:#000;stroke-miterlimit:10;stroke-width:.61px;}.cls-2{fill:#fff;}.cls-3{fill:#ff61fa;}</style></defs><g id="Layer_1-2"><g><path class="cls-1" d="M39.42,739.72c2.68,8.09,6,15.96,9.92,23.52,2.88,5.56,6.19,11.4,5.49,17.66,.94-1.53,1.58-3.24,1.87-5.01,4.74,8.54,9.58,17.21,16.61,23.98,1.25,1.2,2.57,2.35,3.53,3.79,.96,1.44,1.51,3.26,1.03,4.92,.59-.75,1.17-1.5,1.22-1.91,55.4,44.78,120.29,75.99,184.52,106.8,1.84,.88,3.78,1.79,5.81,1.69,2.04-.1,4.17-1.56,4.26-3.6-24.93-13.62-49.86-27.24-74.79-40.85-39.98-21.84-80.6-44.15-112.44-76.73l4,.14c-9.74-6.48-17.85-15.39-23.39-25.7l4.58,.31c-9.42-8.59-16.21-20.04-19.23-32.43,1.86,1.29,3.72,2.58,5.97,3.61-8.86-13.05-12.9-29.29-11.2-44.97l4.54,15.44c2.16-1.38,2.84-4.3,2.43-6.83-.41-2.53-1.68-4.81-2.66-7.18-5.16-12.39-2.46-26.49,.32-39.63,5.9,6.51,9.72,14.88,10.74,23.61l.4-10.21,5.8,11.38c2.21-3.58,.81-8.36-1.65-11.77-2.46-3.41-5.86-6.08-8.18-9.58-3.62-5.44-4.29-12.41-3.23-18.85,1.06-6.44,3.71-12.5,6.34-18.48,8.49,11.25,15.03,23.98,19.24,37.43,2.8-3.71,2.44-9.44-.79-12.77,1.73,2.25,3.45,4.49,5.18,6.74-5.65-13.48-12.5-26.46-19.36-39.16,3.03-6.97,6.06-13.94,8.2-20.67,6.33,9.86,9.38,21.79,8.56,33.48-.36,5.14-1.31,10.82,1.65,15.04,.36-2.84,.72-5.68,1.08-8.52,1.29,1.97,2.22,4.18,2.71,6.48,3.51-19.63,2-40.14-5.22-58.76-.12-.37-.24-.75-1.04-1.93,5.14-4.3,9.1-10,10.97-16.32,1.61,2.54,1.73,5.75,1.39,8.74s-1.06,5.96-.97,8.96c.15,4.86,2.45,9.39,3.32,14.18,.97,5.3,.18,10.74-.19,16.12-.37,5.38-.25,11.04,2.31,15.78,3.04-6.23,4.43-13.26,3.94-20.17,3.04,5.32,6.9,10.17,11.41,14.31-2.31-7.43-4.63-14.87-6.94-22.3-.87-2.8-1.75-5.65-1.81-8.59-.08-3.73,1.17-7.35,1.84-11.02,.92-5.09,.71-10.38-.61-15.38-.74-2.78-1.82-5.53-1.78-8.41,.08-5.98,4.84-10.71,9.26-14.73,.73,8.76,1.46,17.53,2.19,26.29,.56,6.74,1.09,13.72-1.19,20.08-1.01,2.83-2.56,5.44-3.66,8.24-1.1,2.8-1.76,5.93-.9,8.81,3-2.67,5.23-6.19,6.37-10.04-1.67,6.61-.79,13.83,2.14,19.72,2.83-13.32,5.67-26.63,8.5-39.95,1.48-6.96,2.97-13.96,3.32-21.07,.36-7.11-.47-14.4-3.04-20.94,3.6-3.78,7.2-7.55,11.6-11.12,.07,12.29,.14,24.58,.21,36.88,.04,7.31-.04,15.08-3.93,21.27-3.33,5.3-9.3,9.19-10.47,15.34,5.86-2.58,10.83-7.13,13.9-12.75-3.25,6.35-4.18,13.87-2.57,20.82,7.44-7.28,10.08-15.99,12-26.22,1.92-10.23,6.89-30.8,6.89-30.8,2.43-8,2.71-16.64,.81-24.77-.72-3.07-1.73-6.37-.51-9.27,1.37-3.26,5.06-4.86,8.21-6.29,.55-.25,1.14-.41,1.74-.4,2.87,.07,3.32,3.42,3.2,5.95-.6,12.46-1.2,24.92-1.8,37.38-.16,3.26-.34,6.63-1.85,9.52-1.43,2.75-3.92,4.79-6.33,6.74l-8.31,6.71c-1.18,.95-1.63,2.6-.95,3.95,1.16,2.29,4.3,1.23,5.91-.45,1.51-1.57,2.83-3.68,4.99-3.98-1.57,3.76-2.71,7.69-3.38,11.71-.21,1.24,.21,2.53,1.21,3.29,2.13,1.61,4.38-.52,5.72-2.43,16.95-24.05,24.98-54.42,21.21-83.6-.16-1.24-.34-2.53,.05-3.72,.82-2.52,3.83-3.72,5.9-4.91,1.1-.63,2.39-.91,3.62-.64,3.02,.67,3.22,3.77,3.15,6.32-.44,16.01-.88,32.01-1.32,48.02-.07,2.44-.14,4.94-1.02,7.22-.97,2.53-2.85,4.59-4.44,6.79-2.97,4.11-5.02,8.87-5.95,13.86-.23,1.24,.3,2.54,1.4,3.13,1.58,.85,2.91-.37,3.92-1.49,2.51-2.8,4.85-5.76,6.98-8.86-1.7,2.54-3.4,5.09-5.1,7.63,4.56-1.44,8.17-5.09,10.56-9.24,2.39-4.15,3.7-8.81,4.99-13.42,3.04-10.91,6.03-21.88,7.27-33.14,1.24-11.25,.66-22.89-3.71-33.28,3.9-1.26,7.79-2.51,11.69-3.77,1.25-.4,2.63-.81,3.77,.69,.58,.77,.84,1.74,.8,2.71l-2.2,54.42c-.22,5.56-.49,11.29-2.87,16.32-1.61,3.41-4.12,6.31-6.15,9.49-2.03,3.18-3.63,6.9-3.09,10.64l6.37-5.17c-1.24,1.83-2.49,3.65-3.53,5.66,4.52-.77,8.4-3.81,11.14-7.49,2.74-3.68,4.48-7.99,6.14-12.26,4.94-12.67,9.51-25.53,12.52-38.8,3-13.27,4.43-26.98,2.98-40.81,1.69-2.47,4.72-3.96,7.71-3.79s5.84,1.98,7.25,4.62c2.06,3.86,.99,8.57,0,12.84-3.27,14.05-5.17,28.42-5.65,42.84-.15,4.5-.2,9.18-2.15,13.23-3.9,8.1-14.26,11.59-17.59,20.09-.28,.73-.11,1.59,.51,2.05,.85,.64,1.67,.08,2.34-.43,2.58-1.98,5.16-3.96,7.74-5.93l-7.08,7.27c2.85,1.48,6.23-.51,8.66-2.6,12.42-10.69,20.03-25.85,26.13-41.05,6.33-15.77,11.44-32.53,10.29-49.49-.15-2.17-.38-4.43,.45-6.43,.83-2.01,3.16-3.58,4.75-2.08,2.13-2.33,6.32-1.23,8.14,1.34s1.94,5.95,1.91,9.1c-.2,19.31-3.45,38.44-6.7,57.48-.5,2.93-1.02,5.93-2.46,8.53-3.63,6.55-12.12,9.04-15.84,15.72-.69,1.23-.54,2.82,.48,3.81,1.7,1.66,4.09,.2,5.74-1.19,3.2-2.71,6.41-5.42,9.61-8.13-3.77,3.45-7.54,6.91-11.31,10.36,2.72-.75,5.34-1.88,7.75-3.35,6.58-4,11.41-10.31,15.56-16.78,15.14-23.59,23.45-52.07,19.85-80.4,2.77-1.88,5.62-3.8,9.12-4.02,1.11-.07,2.25,.08,3.28,.5,4.71,1.92,4.99,7.48,4.83,12.12-.31,9.2-.62,18.4-.93,27.61-.27,7.96-.53,15.91-.8,23.87-.17,5.17-.35,10.37-1.18,15.48-1.72,10.53-6.24,20.53-12.56,29.13,2.85-.47,5.43-2.32,6.79-4.86-1.3,1.29-2.19,2.99-2.49,4.79,7.23-2.71,12.96-8.53,16.92-15.15,3.77-6.28,6.11-13.3,8.23-20.32,2.38-7.88,4.58-15.82,6.63-23.79,3.21-12.49,6.13-25.52,3.87-38.22-.77-4.31-2.1-8.88-.32-12.51,3.55-3.58,10.08-2.09,13.3,1.79,3.22,3.88,3.93,9.22,4.17,14.25,.71,15.3-1.75,30.66-.5,45.93,.48,5.92,1.52,11.89,.56,17.76-1.62,9.89-8.6,17.93-15.3,25.39,4,.24,8.05-1.97,10.02-5.47-3.08,2.77-5.29,6.48-6.25,10.51,9.81-4.94,17.2-13.86,22.04-23.72,4.84-9.86,7.35-20.69,9.38-31.48,3.3-17.53,5.45-35.49,3.31-53.2-.3-2.46-.6-5.23,1.85-6.84,.85-.56,1.87-.82,2.89-.84,4.88-.1,8.89,3.7,10.76,8.07,1.72,4.02,1.97,8.49,2.2,12.85,.82,15.75,1.64,31.51,2.46,47.26,.34,6.54,.67,13.17-.82,19.55-2.26,9.64-8.46,17.8-14.5,25.64,4.63-.62,8.98-3.09,11.91-6.73-1.97,2.46-3.09,5.59-3.15,8.74,10.64-7.97,17.62-20.04,21.72-32.68,4.1-12.64,5.58-25.96,6.06-39.24,3.65-14.06,3.7-29.04,.14-43.12,3.32-2.69,8.51-2.01,11.85,.67,3.33,2.68,5.09,6.88,6,11.06,.91,4.18,1.11,8.49,2.01,12.67,1.8,8.31,6.37,15.94,7.29,24.39,.54,4.98-.22,10.07,.79,14.98,1.28,6.22,5.35,11.85,5.23,18.2-.19,10.18-10.93,17.67-11.66,27.83-.09,1.24,0,2.59,1.38,3.31,.84,.44,1.84,.41,2.71,.03,1.77-.78,2.69-2.53,3.53-4.19-.85,1.42-1.69,2.85-2.54,4.27,3.98-1.26,7.25-4.21,9.59-7.67,2.34-3.46,3.82-7.41,5.11-11.37,9.85-30.13,9.93-63.36-.44-92.2,.04-4.94,6.78-7.43,11.25-5.32,4.47,2.11,6.97,6.84,9.16,11.27,8.05,16.25,16.14,32.76,19.65,50.55,3.51,17.79,1.96,37.31-8.13,52.38,4.69-1.89,8.66-5.53,10.95-10.05-1.57,1.61-2.32,3.98-1.96,6.21,7.02-3.23,11.08-10.69,13.51-18.03,5.25-15.83,5.14-33.05,2.24-49.48-2.89-16.43-8.46-32.25-14.01-47.98,6.35-.61,12.58,2.71,16.99,7.33,4.41,4.62,7.31,10.44,10.14,16.16,7.32,14.78,14.77,30,16.13,46.43,.64,7.69-.09,15.43-.5,23.14-.13,2.52-.22,5.13,.96,7.43,.43,.83,1.03,1.58,1.79,2.13,3.31,2.43,6.84-.08,8.01-3.14,.89-2.32,.73-4.9,.56-7.38,.15,5.11,.31,10.22,.46,15.33,7.67-7.48,10.68-18.74,10.4-29.45-.28-10.71-3.49-21.1-6.66-31.33-5.08-16.38-10.17-32.76-15.25-49.14,10.78,.2,19.31,9.34,24.33,18.88,5.02,9.54,8.03,20.28,14.82,28.65,3.53,4.35,7.95,7.89,11.72,12.04,3.77,4.15,6.97,9.21,7.2,14.81,.23,5.47-1.94,12.21,2.99,15.7,.42-6.8,.83-13.6,1.25-20.39-.22,5.31,1.63,10.67,5.06,14.72,3.52-8.54,.35-18.23-2.83-26.9-7.65-20.87-15.45-42.04-28.46-60.06,6.39-.12,12.81,1.4,17.53,2.19,8.39,8.1,16.86,16.27,26.74,22.46,14.08,8.82,31.47,14.09,40.7,27.9,1.17-4.92-.3-10.39-3.78-14.06,2.96,3.91,5.91,7.82,8.87,11.72,1.24-3.53,.13-7.55-1.98-10.65-2.11-3.09-5.12-5.44-8.08-7.74-14-10.87-28-21.74-40.86-34.05-.05-.07-.11-.13,.06-.6,7.59,2.08,14.02,2.4,22.34-.02,3.02-.88,5.53-2.2,8.63-1.66,1.91,.34,6.83,.76,8.64,1.44,7.65,2.89,7.56,9.7,12.09,16.94,4.13,6.6,14.32,13.56,20.04,19.37,3.7,3.76,5.83,8.7,6.89,13.86,44.31,214.47-108.47,421.5-63.79,345.24,109.24-186.42,74.99-338.9,66.43-363.22,.98-10.22,1.93-20.7-.72-30.62-1.25-4.65-3.28-9.09-5.98-13.08,1.63-.03,3.03-1.17,4.09-2.41,1.32-1.54,2.38-3.36,4.32-4.21,.87-.38,1.87-.48,2.75-.11,1.83,.77,1.95,2.77,2.34,4.47,.73,3.17,2.75,5.86,4.31,8.72,4.84,8.84,5.31,19.32,6.33,29.32,.05,.48,.18,.96,.43,1.38,.98,1.6,2.57,.9,3.17-.19,.41-.74,.46-1.62,.49-2.46,.29-8.71-1.31-17.37-2.91-25.94,.73-3.53,.61-7.24-.34-10.72-1.04-3.8-3.05-7.3-3.99-11.13-.98-4-.76-8.17-1.01-12.28-.26-4.11-1.11-8.4-4.14-11.28-1.68-8.89-4.78-17.5-9.15-25.42-.34-.62-1.06-.97-1.74-.77-1.22,.35-.96,1.83-.58,2.86,4.51,12.34,5.76,25.86,3.58,38.82-.13,.8-.38,1.72-1.12,2.03-.66,.28-1.43-.07-1.93-.59s-.81-1.18-1.25-1.74c-1.44-1.86-4.3-2.43-6.34-1.26,3.27-4.13,4.76-9.45,5.12-14.7,.36-5.26-.34-10.52-1.04-15.75-.45-3.36-.91-6.74-1.53-10.01-1.42-.26-2.33-1.73-2.53-3.15-.2-1.43,.14-2.87,.29-4.3,.32-3.11-.3-6.32-1.74-9.1,0,0,8.48-178.11-131.91-333.4-52.36-57.91,138.58,125.9,124.48,334.96-1.06,4.91-4.16,9.13-7.43,12.94-3.27,3.82-6.84,7.47-9.16,11.93-1.99,3.82-2.98,8.07-4.52,12.1-1.53,4.03-3.78,8.02-7.46,10.26-3.53,2.15-7.87,2.38-12,2.56-8.03,.34-16.06,.69-24.33,1.1,10.95-15.53,24.24-29.41,39.29-41.03,2.1-1.62,4.28-3.24,5.75-5.45,1.47-2.21,2.12-5.18,.91-7.54-1.73,2.22-3.47,4.45-5.2,6.67,2.31-2.86,2.73-7.11,1.04-10.37-1.5,4.96-5.34,8.92-9.65,11.81-4.31,2.88-9.15,4.87-13.76,7.22-12.11,6.18-22.82,15.06-31.15,25.8-2.27,2.93-4.4,6.03-7.35,8.28-4.73,3.61-10.91,4.55-16.8,5.37,11.61-20.52,23.22-41.04,34.82-61.56,3.24-5.73,6.6-12.04,5.92-18.31-.34-2.25-.28-4.56-.09-6.86-2.14,.93-3.81,2.74-4.99,4.76-1.18,2.02-1.92,4.26-2.65,6.48,.61-2.27,1.21-4.55,1.42-6.89,.21-2.34,0-4.76-1.83-7-1.12,5.12-2.99,10.08-5.55,14.65-2.59,4.65-5.87,8.87-8.37,13.84-14.17,9.07-19.43,27.9-32.93,37.8-.12,.12-.23,.23-.87,.1-1.73,5.73-3.55,11.62-7.37,16.22-3.82,4.6-10.2,7.62-15.58,5.84,2.65-10.87,4.27-21.98,4.73-33.7,1.37-20.5,1.32-41.1-1.71-61.32l-3.97-12.68c-.48-1.53-1.18-3.01-2.2-4.25-.42-.52-.95-.93-1.6-.97-.84-.04-1.59,.6-1.94,1.37-.34,.77-.35,1.64-.34,2.48,.13,7,1.77,13.87,3.4,20.68-2.91-1.99-4.58-5.27-6.59-8.17-2-2.9-4.83-5.71-8.35-5.95-.31,0-.62,0-.54-.19-.39-.46-1.21-.24-1.55,.26s-.35,1.14-.34,1.75c.04,4.06,.24,8.53,2.98,11.53,1.33,1.46,3.14,2.4,4.54,3.8,3.09,3.09,3.72,7.8,4.29,12.21,.17,.98-.14,2.04-1.67,2.44-5.21,17.06-9.64,34.36-13.27,51.82-1,4.82-2.04,9.86-5.13,13.69-3.1,3.83-8.97,5.9-13.38,3.82,5.86-21.67,6.05-44.85,1.12-66.64-6.2-14.37-2.42-31.52-9.01-45.85-.57-1.23-1.84-2.05-3.19-1.89-2.31,.26-2.61,2.8-2.48,4.8,.27,4.19,.97,8.35,2.2,12.25-3.76-4.54-8.06-8.64-12.79-12.17-.82-.61-1.82-.98-2.84-.96-3.04,.07-3.46,3.32-2.23,5.25,.95,1.49,2.58,2.38,4.1,3.67,4.19,5.63,6.16,12.65,6.74,19.64,.58,6.99-.13,14.02-.85,20.99-1.48,14.44-2.96,28.88-4.45,43.32-.53,5.12-1.17,10.54-4.32,14.62-3.15,4.08-9.75,5.93-13.92,2.72l-.12,.12s-.08,.08,0,.15c6.82-26.14,4.51-54.57-5.68-79.2-7.77-11.02,2.47-27.85-4.62-39.32l-2.92,9.05c.81-3.24-.05-6.86-2.25-9.39-3.88,2.12-5.11,7.02-5.75,11.4-4.85,32.87,1.14,66.96-6.59,99.28-1.04,4.34-3.36,9.52-8.08,9.23-2.14-.13-3.98-1.48-5.06-3.33-2.18-3.76-1.5-7.96-1.16-12.03,1.71-19.87-4.74-39.43-11.19-57.7-4.6-8.6-9.28-17.31-15.95-24.43-6.67-7.12-15.67-12.58-25.42-12.92,2.8,4.8,7.42,8.51,12.72,10.21l-13.37-3.66c2.66,7.15,10.84,10.44,15.68,16.33,4.04,4.9,5.55,11.36,6.68,17.62,3.31,18.38,4.27,37.17,3,55.8-.28,4.12-.73,8.43-3.84,11.53-1.56,1.56-3.76,2.4-5.93,2-4.81-.9-5.98-6.57-6.53-11.18-2.71-22.7-9.59-44.89-20.2-65.14-3.27-6.23-6.93-12.35-11.87-17.37-5.24-5.32-12.05-9.36-19.52-9.97-1-.08-2,.49-2.27,1.45-.3,1.05,.54,1.82,1.29,2.44,3.08,2.5,6.16,5.01,9.12,7.76-4.13-2.41-8.4-4.58-13.62-6.14-.13,3.53,2.11,6.75,4.79,9.05,2.68,2.3,5.86,3.96,8.58,6.21,5.1,4.22,8.34,10.34,10.19,16.69,1.85,6.35,2.43,13,2.99,19.59l3.33,38.96c.12,1.35,.05,2.72-.29,4.03-1.84,7.01-8.86,6.71-15.45,6.37-1.27-27.47-13.82-53.1-27.89-76.73-3.13-5.26-6.42-10.55-11-14.61-4.58-4.06-10.7-6.78-16.77-5.96l11.28,11.69c-4.76-3.26-10.07-5.72-15.63-7.25,.44,5.43,6.72,7.93,11.04,11.26,7.51,5.78,9.96,15.84,11.93,25.1,3.22,15.12,6.44,30.25,9.66,45.37,1.02,4.79,1.85,10.37-1.34,14.07-3.09,3.58-8.51,3.71-13.76,3.81-6.18-26.7-19.8-51.63-38.44-71.25-7.65-8.05-18.75-12.71-30.13-12.49,3.61,3.55,8.16,6.13,13.03,7.53-5.57-1.5-11.13-3-16.7-4.5,6.4,4.45,12.84,8.93,18.31,14.49,8.17,8.32,13.87,18.79,17.95,29.72,4.07,10.92,6.6,22.35,9.11,33.74,.71,3.24,1.4,6.83-1.21,9.53-1.73,1.79-4.31,2.45-6.75,2-4.69-.87-7.72-4.88-9.44-9.09-1.45-3.58-2.14-7.42-3.42-11.06-2.01-5.7-5.42-10.77-8.79-15.78-7.05-10.46-14.19-21.03-23.49-29.54-9.31-8.51-21.13-14.91-33.91-15.02-.23,2.3,1.9,4.09,3.84,5.34,3.84,2.46,7.9,4.6,12.05,6.5-4.38-1.06-8.76-2.12-13.14-3.18-1.32-.32-2.91-.57-4.09,1.61,10,3.2,19.03,9.35,25.68,17.48,6.5,7.96,10.62,17.55,14.62,27.02,3.18,7.53,6.33,15.07,9.46,22.62,.84,2.04,1.7,4.25,1.19,6.39-.79,3.32-4.39,5.02-7.57,6.25-1.51,.59-3.07,1.18-4.69,1.08s-3.29-1.1-3.64-2.69c-1.06-3.97-2.66-7.8-5.29-11.16-6.98-14.53-17.66-27.26-30.75-36.66-9.15-6.57-19.36-11.47-29.51-16.35-2.51-1.2-5.07-2.42-7.83-2.8,1.37,3.2,3.57,6.04,6.58,7.6l-8.55-2.46c.88,4.98,4.6,9.36,9.38,11.02,2.62,.91,5.48,1.05,8,2.2,3.19,1.45,5.46,4.32,7.61,7.09,11.23,14.49,22.71,29.5,27.43,47.21,.39,1.45,.72,3.05,.08,4.42-.74,1.6-2.55,2.36-4.19,2.99-2.87,1.08-6.18,2.15-8.87,.68-2.18-1.19-3.24-3.67-4.28-5.92-3.29-7.05-7.97-13.44-14.39-18.9-8.15-5.35-16.42-10.5-24.81-15.47-5.81-3.44-11.74-6.81-18.21-8.75-6.47-1.94-13.6-2.35-19.72-.4,2.75,4.89,8.01,7.75,13.12,10.07,5.11,2.32,10.53,4.49,14.27,8.69,3.92,4.41,5.94,10.96,11.79,12.68,7.27,6.54,12.45,15.04,17.67,23.28,.59,.93,1.02,1.97,1.17,3.07,.42,3.23-1.52,5.33-5.7,6.18-.17,2.51-3.34,3.87-5.77,3.23s-4.28-2.56-6.14-4.27c-10.59-9.75-24.75-14.44-38.44-18.87-8.85-2.86-17.71-5.72-26.56-8.58-3.21-1.04-6.56-2.09-9.9-1.61,1.4,3.14,4.11,5.66,7.28,6.95-1.85-1.27-4.56-1.1-6.23,.41,.93,3.21,3.62,5.84,6.85,6.68,2.58,.68,5.32,.27,7.94,.73,3.92,.68,7.23,3.18,10.38,5.61,11.4,8.81,22.8,17.61,34.2,26.42,.39,.3,.72,.67,.9,1.12,.71,1.69-.7,2.69-1.93,3.41-2.97,1.72-6.36,3.51-9.66,2.59-1.2-.33-2.28-1.01-3.33-1.67-2.95-1.86-5.89-3.71-9.19-5.02-7.4-4.46-15.87-6.78-24.21-9.06-10.33-2.81-20.9-5.65-31.58-4.89-2.27,.16-4.59,.5-6.57,1.61-2.5,1.39-4.21,3.84-5.83,6.2,5.01,1.23,10.32,1.19,15.32-.11-5.02,.83-10.04,1.67-15.06,2.5,2.24,2.99,6.24,4.13,9.98,4.21,3.74,.09,7.46-.66,11.19-.56,7.16,.2,13.82,3.49,20.22,6.71,7.55,3.8,15.18,7.66,21.58,13.21,.48,.41,.88,.92,1.14,1.49,.96,2.2-.62,3.48-2.05,4.5-3.66,2.63-7.31,5.26-10.98,7.89-.11-.13-.21-.26-1.06-.3-4.36-4.24-10.37-6.45-16.4-7.26-6.03-.81-12.14-.34-18.2,.14-6.78,.53-13.62,1.08-20.18,2.88-6.75,1.85-13.28,5.15-17.87,10.46-.28,.32-.46,.74-.43,1.17,.09,1.25,1.58,1.38,2.68,1.24,3.65-.46,7.25-1.26,10.75-2.39-4.04,.94-8.07,1.88-12.11,2.82,4.14,2.95,9.72,2.88,14.69,1.85,4.98-1.03,9.82-2.89,14.9-3.13,3.41-.16,6.8,.42,10.17,1l16.94,2.9c1.08,.19,2.08,.78,2.66,1.71,1.11,1.79-.04,3.21-1.1,4.41-2.7,3.04-5.39,6.08-8.09,9.12-1.3,1.47-2.71,3.01-5.18,3.42-2.29-2.35-5.61-3.47-8.88-3.7-3.27-.23-6.54,.33-9.76,.93-10.08,1.87-20.1,4.03-30.04,6.5-2.09,.52-4.25,1.09-5.92,2.46-1.66,1.37-2.67,3.78-1.58,5.75,3.3-.25,6.54-1.19,9.46-2.75-2.68,2.16-5.68,3.91-8.88,5.18,2.06,2.12,5.48,2.26,8.33,1.47,2.85-.79,5.46-2.32,8.31-3.12,7.46-2.08,15.54,1.14,23.12-.47,1.86-.39,3.69-1.08,5.59-1.06s3.98,.98,4.53,2.8c-3.61,5.5-7.22,10.99-10.84,16.49-.51,.78-1.04,1.57-1.77,2.15-1.46,1.15-3.47,1.25-5.33,1.34-16.06,.81-31.91,5.37-45.95,13.21,1.4,2.39,4.6,3.54,7.2,2.6-2.17-.19-4.38,.17-6.38,1.02,1.86,2.5,5.74,2.29,8.56,.97s5.28-3.47,8.31-4.21c2.79-.68,5.7-.09,8.55,.25,6.68,.8,19.26-2.68,20.72-1.48,0,0-4.45,6.97-5.89,10.63-2.06,5.24-4.11,10.48-6.17,15.72-1.71-1.59-4.5-1.86-6.52-.69-.1,.08-9.23,2.06-13.7,2.93-3,.59-6,1.17-8.92,2.17-.23,.02-.46,.05-.81-.25-5.01,1.91-9.51,5.14-13.09,9.19,3.84,.28,7.78-.9,10.91-3.19-4.27,1-7.7,4.88-8.17,9.24,5.48-.4,9.94-4.44,15.05-6.46,7.44-2.95,15.88-1.49,23.71-3.12-1.06,4.9-3.73,9.26-5.68,13.88-1.95,4.61-3.16,9.96-1.92,14.87l-.15,.12-.07,.06s-.04-.05-.15-.5c-6.71,1.27-13.61,2.61-19.3,6.39-2.84,1.89-5.27,4.32-7.68,6.74-.78,.78-1.63,1.88-1.15,2.88,.34,.73,1.28,1,2.06,.84,.79-.16,1.45-.66,2.1-1.14,1.97-1.48,3.94-2.96,5.9-4.44,1.7-1.28,3.57-2.62,5.7-2.62,2.27,0,4.73,1.51,6.67,.34,1.3-.37,2.74-.19,4.4,.86-3.77,6.43-3.48,14.36-3.1,21.8,.38,7.44,.63,15.39-3.2,21.78-1.47,2.45-3.5,4.58-4.6,7.22-1.11,2.64-.99,6.14,1.36,8.18,2.32-4.19,4.37-8.52,6.2-12.95-.02-.07-.03-.14,.06-.15,.49-.85,.97-1.7,1.46-2.55-.3,.81-.6,1.61-.9,2.42,.36-.28,.73-.56,1.09-.84-1.31,5.05-.15,10.41,1.4,15.4,1.55,4.99,3.51,9.94,3.81,15.15,.4,6.94-2.09,14.36,.98,20.6,1.43-2.47,2.1-5.36,1.94-8.21l.33,.1"/><g><path class="cls-2" d="M47.89,628.24c16.35-71.09,66.4-125.85,148.76-162.77,76.16-34.13,162.32-41.42,236.57-44.05,100.4-2.21,184.22-7.32,263.81-16.08,2.58-1.28,5.29-1.94,8.06-1.94,6.93,0,13.43,4.17,16.56,10.61l.22,.45-.22,.44c-4.83,9.5-17.14,10.72-27.33,10.72l-133.18-.66c-4.12,0-11.06,.37-19.1,.79-10.04,.53-21.41,1.13-32.02,1.3l-4.97,.08c-58.83,.94-109.64,1.75-169,11.05-79.53,12.46-138.84,31.86-181.3,59.3-55.59,35.92-87.95,76.4-104.92,131.27l-1.93-.52Z"/><path class="cls-3" d="M705.1,404.41c6.7,0,12.77,4.11,15.66,10.05-4.52,8.9-16.39,10.18-26.45,10.18-.2,0-.41,0-.61,0-44.08-.22-88.16-.44-132.24-.65-.11,0-.22,0-.33,0-9.17,0-31.8,1.78-51.13,2.09-61.81,.99-113.04,1.57-174.11,11.14-61.07,9.57-129.77,25.9-181.69,59.45-51.92,33.55-87.07,72.76-105.34,131.81,17.91-77.9,74.65-129.11,148.2-162.08,73.55-32.97,155.65-41.11,236.2-43.96,89.28-1.97,176.95-6.51,264.07-16.11,2.59-1.32,5.22-1.91,7.77-1.91m0-2v2s0-2,0-2c-2.86,0-5.67,.66-8.34,1.96-79.5,8.74-163.25,13.85-263.54,16.06-49.03,1.74-86.34,5.04-121,10.71-43.89,7.18-81.82,18.12-115.97,33.42-82.67,37.05-132.91,92.05-149.33,163.46l3.86,1.04c8.84-28.58,21.83-53.05,39.69-74.79,16.54-20.14,37.75-38.44,64.83-55.93,23.53-15.2,52.77-28.15,86.91-38.48,27.38-8.29,58.13-15.05,94.01-20.67,59.29-9.29,110.07-10.1,168.87-11.04l4.96-.08c10.63-.17,22.01-.77,32.06-1.3,8.02-.42,14.95-.79,19.04-.79h.32s66.28,.33,66.28,.33l65.96,.33h.62c9.66,0,23.1-1.17,28.23-11.27l.45-.89-.43-.89c-3.3-6.79-10.15-11.18-17.46-11.18h0Z"/></g></g></g></svg>