<?xml version="1.0" encoding="UTF-8"?><svg id="Layer_2" xmlns="http://www.w3.org/2000/svg" viewBox="0 0 952.46 1193.42"><defs><style>.cls-1{stroke:#fff;}.cls-1,.cls-2{stroke-miterlimit:10;}.cls-2{fill:#fff;stroke:#000;}</style></defs><g id="Layer_2-2"><g id="Layer_1-2"><g><path class="cls-1" d="M114.91,854.05c34.07,18.27,86.11-22.7,117.97-52.94,11.69-11.09,22.49-24.8,23.6-40.87,1.11-16.07-11.64-33.7-27.68-32.22-16.04,1.48-15.67,21.64-7.35,33.94-25.63-15.11-14.08-58.24,12.03-72.48,26.12-14.24,57.81-10.32,87.55-11.16,23.59-.67,47.96-4.96,67.31-18.46,19.36-13.5,32.45-37.92,27.13-60.91s-32.95-39.8-54.14-29.44c-21.21,10.37-20.98,48.35,1.69,54.87-21.55,1.75-38.68-22.6-35.23-43.94,3.45-21.34,21.74-37.7,41.72-45.93,19.99-8.23,41.93-10.02,63.26-13.52,21.97-3.61,43.99-9.28,62.98-20.87,19-11.59,34.8-29.8,39.54-51.54,4.73-21.75-3.43-46.79-22.36-58.5-18.94-11.7-47.67-5.91-57.74,13.94-10.07,19.85,5.84,48.58,28.08,47.74-22.73,15.68-56.51-9.71-55.68-37.31,.83-27.6,25.03-49.58,51-58.99,25.96-9.41,54.22-9.64,81.46-14.2,27.24-4.57,55.74-15.09,70.76-38.27,22.89-35.34-3.44-90.78-45.29-95.39-16.98-1.86-35.58,4.39-45.01,18.64-9.43,14.25-6.39,36.43,8.43,44.95,14.81,8.51,37.68-3.57,36.31-20.59,12.32,25.88-18.39,57.72-46.28,51.18-27.91-6.53-43.12-40.77-35.2-68.31,7.93-27.54,33.49-47.24,60.93-55.53,52.72-15.93,121.53-.95,154.17-45.3,16.67-22.65,15.64-56.66-2.37-78.27-18.01-21.61-51.27-28.75-76.56-16.44-13.78,6.7-25.39,19.53-26.95,34.78s9.59,31.75,24.88,32.83c15.28,1.07,29.06-17.69,21.1-30.78,17.89,22.97-12.48,60.06-40.6,52.51-28.12-7.55-40.22-44.77-28.57-71.45,11.65-26.69,39.95-42.76,68.4-48.95,28.45-6.19,57.98-7.38,87.04-5.62,328.15,19.91,227.34,384.88-36.04,773.9-283.13,418.19,229.4-548.85,128.22-589.92-89.47-36.32-353.53,512.96-423.47,579.52s-206.05,46.29-252.51,130.93C29.06,1136.85-3.69,1130.66,.91,1107.86c2.03-10.08,116.67-167.28,69.3-212.82-10.93-10.51-114.94-126.58,44.75-40.94l-.05-.05Z"/><path class="cls-1" d="M390.68,795.64c-53.18,37.95-127.43,35.58-180.41,73.79-28.8,20.76-48.56,51.69-64.53,83.39-15.97,31.7-28.92,65.02-47.73,95.11-22.19,35.48-52.38,65.92-84.02,92.09-9.37,11.23-9.68,29.04-.7,40.59,8.97,11.55,26.29,15.66,39.5,9.38,13.21-6.29,20.93-22.33,17.62-36.58-.95-4.07-2.69-8.16-1.9-12.27,1.75-9.05,13.74-11.35,22.85-10.01,9.12,1.34,19.56,3.93,26.69-1.91,8.71-7.13,5.71-20.88,1.97-31.49-3.74-10.61-6.63-24.42,2.17-31.43,13.26-10.57,36.43,7.8,48.68-3.93,7.97-7.63,3.49-21.04-2.4-30.38-5.88-9.34-12.99-20.39-8.6-30.51,3.64-8.41,13.87-11.89,23.03-11.95,9.16-.06,18.27,2.33,27.39,1.47,9.12-.85,18.91-6.36,20.28-15.41,2.5-16.44-23.18-28.02-19.06-44.12,2.6-10.13,15.67-13.54,25.96-11.66,10.29,1.87,20.04,7.08,30.5,6.84,10.45-.24,21.85-9.86,18.2-19.66-3.12-8.37-15.14-11.47-16.72-20.26-1.46-8.13,7.86-14.67,16.12-14.44s15.72,4.68,23.53,7.42c7.8,2.74,17.63,3.3,23.24-2.77,5.2-5.63,4.52-14.27,4.43-21.93-.09-7.66,1.89-16.88,9.11-19.45,5.15-1.83,10.7,.63,16.02,1.87,15.32,3.58,32.57-4.23,39.99-18.11,2.69-5.03,4.12-11.2,1.81-16.41-2.31-5.21-9.99-9.44-13-7.29h0Z"/><circle class="cls-2" cx="40.56" cy="1163.89" r="13"/><path class="cls-1" d="M746.25,279.27c34.77-61.22,66.23-77.22,79.79-72.37s13.5,42.52-12.11,101.11c-1.8,4.11,.71,.22,1.87-8.23,4.94-35.92-34.77-55.55-59.33-31.31-2.64,2.61-10.22,10.81-10.22,10.81h.01Z"/><path class="cls-1" d="M678.29,389.21c45.75-80.55,87.14-101.6,104.99-95.22s17.77,55.94-15.93,133.05c-2.37,5.41,.93,.29,2.46-10.83,6.5-47.27-45.75-73.1-78.07-41.2-3.48,3.44-13.45,14.22-13.45,14.22h0Z"/><path class="cls-1" d="M589.94,532.33c58.93-103.78,112.27-130.89,135.25-122.68,22.99,8.21,22.89,72.08-20.54,171.4-3.04,6.97,1.2,.38,3.17-13.96,8.36-60.9-58.94-94.17-100.56-53.08-4.48,4.43-17.33,18.32-17.33,18.32h0Z"/><path class="cls-1" d="M478.44,717.1c76.54-134.76,145.78-169.97,175.63-159.31,31.1,11.12,29.72,93.59-26.66,222.57-3.96,9.06,1.56,.48,4.11-18.13,10.86-79.08-76.53-122.29-130.59-68.93-5.83,5.75-22.5,23.79-22.5,23.79h0Z"/></g></g></g></svg>