<?xml version="1.0" encoding="UTF-8"?><svg id="Layer_2" xmlns="http://www.w3.org/2000/svg" viewBox="0 0 2406.46 824.02"><defs><style>.cls-1{fill:#ffd1ba;}.cls-2{fill:#badaff;}.cls-3{fill:#baffe0;stroke:#000;stroke-miterlimit:10;stroke-width:4.23px;}</style></defs><g id="Layer_1-2"><g><g><path class="cls-1" d="M704.16,297.5c10.23-21.01,20.45-42.02,30.68-63.02,10.81-22.21,22.42-45.38,42.59-59.63,37.72-26.65,90.07-12.73,131.62,7.43,63.23,30.68,120.43,73.74,167.4,126.03,19.28,21.46,37.06,44.65,59.95,62.22,38.23,29.33,88.53,40.52,136.53,36.2,47.99-4.33,93.82-23.23,134.66-48.8,20.24-12.67,39.39-26.98,59.4-40.02,34.57-22.52,71.64-41.19,106.65-59.51,35-13.12,74.41-7.5,109.87,4.34,35.46,11.84,68.72,29.61,104.23,41.29,49.67,16.34,102.59,20.39,154.88,19.93,133.22-1.17,266.12-31.24,383.61-87.34,21.12-7.89,42.25-15.78,63.37-23.67,5.42-7.63-3.23-17.24-10.95-22.53-76.76-52.64-153.51-105.29-230.27-157.93-9.03-6.19-18.35-12.52-29.02-14.95-26.31-6-51.18,12.59-72.55,29.06-80.25,61.8-183.89,110.38-280.82,80.99-42.16-12.78-78.63-39.16-117.93-59.08-39.29-19.92-85.66-33.49-127.09-18.51-88.36,31.94-101.32,168.82-190.01,199.82-48.29,16.88-102.05-5.51-142.17-37.24-40.12-31.73-72.43-72.78-114.18-102.32-56.84-40.22-130.05-56.53-198.58-44.26-16.91,3.03-33.8,7.84-48.28,17.11-12.67,8.11-47.99,29.57-57.89,40.9-42.31,48.45-100.96,162.78-65.69,173.52Z"/><path class="cls-2" d="M2385.35,243.74c-64.53,85.85-141.33,162.46-227.34,226.78-36.35,27.19-75.16,52.57-118.89,64.76-21.87,6.1-45.17,9-64.56,20.81-15.74,9.59-27.76,24.43-43.52,33.98-35.37,21.44-80.3,12.1-121.19,5.92-143.76-21.74-294.56,6.11-421.06,77.79-81.53,46.19-159.11,111.87-252.76,115.3-75.75,2.78-145.74-36.27-213.76-69.71-68.02-33.44-145.75-62.81-218.04-40.03-61.27,19.3-107.89,73.35-170.4,88.13-66.76,15.79-135.65-17.07-190.13-58.76-54.48-41.69-102.03-93.42-162.84-125.19-31.52-16.46-66.06-27.23-95.71-46.86-29.65-19.63-54.8-51.51-53.03-87.03,1.72-34.34,27.43-62.28,61.44-90.09,60.05-29.88,134.12-9.27,189.99,27.85,55.87,37.12,100.27,89.03,153.46,129.9,24.07,18.5,51.94,35.3,82.29,34.67,57.84-1.2,94.05-61.14,142.44-92.84,78.05-51.13,181.56-24.93,269.6,5.94,88.04,30.87,186.87,64.54,271.23,24.68,33.47-15.81,60.79-41.83,89.16-65.61,65.28-54.72,138.99-99.37,217.72-131.89,33.02-13.64,67.43-25.27,103.08-27.49,44.08-2.75,87.61,8.94,130.48,19.56,92.52,22.9,188.19,41.29,282.75,29.32,124.37-15.75,241.18-83.33,359.59-69.89Z"/><path class="cls-2" d="M72.34,543.68c7.42,18.24,14.85,36.49,22.27,54.73,4.35,10.7,8.79,21.97,7.43,33.44-2.09,17.63-16.98,30.57-30.81,41.69-8.44,6.78-20.63,13.71-29.12,6.98-5.59-4.43-6.14-12.49-7.34-19.52-4.51-26.59-23.87-48.37-31.24-74.31-9.09-32.01,1.01-66.04,11.81-97.51,7.84-22.86,16.91-46.77,35.72-61.95,2.47,34.03,2.25,69.67,21.29,116.45Z"/></g><g><path class="cls-3" d="M752.63,151.25c48.2-22.77,84.83-23.33,137.07-18.58,21.13,1.92,42.13,6.29,61.77,14.32,90.93,37.18,137.14,144.12,226.41,185.11,42.94,19.72,93.24,21.94,138.41,8.06,45.17-13.88,85.03-43.41,111.47-78.84,27.35-11.57,42-41.43,65.92-59.02,12.93-9.51,28.33-15.2,44.03-18.53,61.28-13,124.1,8.88,182.27,32.13,58.17,23.25,118.61,48.73,183.36,46.73,98.24-15.21,198.32-46.02,282.25-99.28,23.17-14.7,58.75-26.41,68.69-51.99-9.36-11.77-37.4-29.21-52.13-26.21-14.73,3-33.94,14.65-46.81,22.43-89.59,54.13-191.13,97.73-295.52,90.08-95.17-6.98-181.73-55.5-273.67-81.02-15.6-4.33-31.77-8.03-47.85-6.19-16.91,1.93-32.61,9.88-46.56,19.63-54.51,38.11-86.25,103.43-143.06,138.03-41.19,25.09-93.53,31.04-139.3,15.85-63.29-21.01-103.54-81.69-158.34-119.68-50.97-35.33-146.5-70.32-200.78-61.5-69.31,11.26-81.97,10.42-97.63,48.47Z"/><path class="cls-3" d="M2082.1,328.56c-61.41,62.97-127.16,128.56-212.18,151.07-55.41,14.67-114.03,9.48-170.76,1.27-54.89-7.95-110.6-18.64-165.39-10.01-82.4,12.97-151.15,67.36-218.74,116.24-67.58,48.89-144.56,95.87-227.78,90.3-70.46-4.71-132.1-46.24-195.58-77.19-63.48-30.95-141.96-51.19-202.39-14.66-33.12,20.02-55.61,54.43-88.75,74.44-50.24,30.33-116.13,21.52-168.53-4.92-52.4-26.43-95.19-68.08-140.6-105.26-45.41-37.18-96.78-71.36-155.09-77.99-18.91-2.15-39.07-1.59-55.48-11.23-16.41-9.64-25.31-35.03-11.11-47.71,8.08-7.22,20.11-7.45,30.9-6.46,167.7,15.35,271.86,216.64,439.45,233.14,9.54,.94,19.55,1.16,28.27-2.82,10.14-4.63,16.97-14.17,23.76-23,43.19-56.16,107.42-99.94,178.2-103.01,105.61-4.59,195.03,78.24,298.87,98.03,58.04,11.06,119.82,1.31,171.64-27.08,63.63-34.85,110.24-95.21,173.56-130.61,149.02-83.29,348.85-9.35,498.42-91.64,12.88-7.09,25.29-15.31,39.2-20.08,13.51-4.64,27.92-5.85,42.15-7.02,26.34-2.17,52.68-4.35,87.94-3.81Z"/></g><g><path d="M696.8,280.36c-3.81,15.97-7.63,25.38,5.68,34.99,13.31,9.61,33.3-2.74,34.69-13.79,1.78-40.66,10.93-80.3,42.74-105.68,26.14-20.86,63.59-23.2,95.42-12.96,31.84,10.23,58.97,31.4,83.45,54.19,42.7,39.76,79.55,85.61,123.63,123.84,44.08,38.23,97.9,69.27,156.23,70.98,52.36,1.54,102.58-20.62,147.5-47.55,44.92-26.93,86.87-59.16,134.36-81.24,47.5-22.08,103.03-33.32,145.11-18.88,147.27,73.32,323.59,86.09,479.9,34.76,75.15-24.68,147.24-63.78,226.18-68.71-7.32-5.37-18-5.61-25.77-1.1-.43,25.97-15.87,49.63-34.98,67.21-19.12,17.58-42.01,30.43-63.12,45.54-42.5,30.42-77.67,69.93-118.65,102.37-40.98,32.44-91.29,47.78-143.14,54.28-21.15,2.65-30.64,12.49-47.04,25.22-6.55,5.09-13.01,8.59-19.49,11.43-24.14,10.56-50.9,13.56-76.91,9.42-162.78-25.92-334.61,7.18-475.62,92.72-62.53,37.93-122.02,86.83-194.22,98.51-156.84,25.39-290.81-129.35-448.12-107.12-79.01,11.16-117.22,83.06-188.25,113.33-76.61,32.65-184.1-58.75-240.43-103.97-64.94-52.13-137.51-118.84-218.98-136.09l10.2,36.09c61.01,8.2,115.58,48.04,161.16,89.41,45.57,41.38,87.1,88.04,139.01,121.11,51.92,33.07,118.27,51.11,175.53,28.5,39.75-15.7,70.22-48.77,108.49-67.82,75.36-37.5,166.31-14.77,243.89,17.9,77.58,32.66,154.52,75.39,238.69,76.72,105.26,1.67,198.9-61.15,289.66-114.49,90.76-53.34,199.14-100.45,298.44-65.49,0,0-.62,2.21-3.26-2.58,69.97,7.66,142.35-8.83,202.09-46.06,10.64-6.63,21.22-14.03,33.47-16.66,11-2.36,22.41-.65,33.66-.42,59.87,1.2,111.68-38.9,157.91-76.96,46.58-38.34,93.16-76.68,139.74-115.03,48.27-39.73,100.79-87.99,100.83-150.51,.01-16.29-6.53-35.54-22.38-39.26-7.54-1.77-15.38,.52-22.78,2.85-149.96,47.18-300.72,116.51-456.97,99.19-124.59-13.81-248.23-82.41-368.9-48.47-62.84,17.67-114.56,61.09-170.2,95.24-55.63,34.16-123.91,60-185.35,37.92-58.87-21.16-94.2-79.39-137.03-124.99-52.53-55.93-121.74-95.99-199-111.34-26.6,.21-53.12,7.18-76.39,20.05-18.19,10.06-33.41,25.06-43.24,43.38-9.73,18.13-23.08,51.72-27.44,70Z"/><path d="M1331.79,398.65c-6.02,15.74-22.38,46.52-34.59,58.13-18.96,18.02-38.03,36.13-59.61,50.91-64.55,44.2-149.41,55.08-224.74,33.98-56.52-15.83-107.02-48.02-162.02-68.51-55-20.49-120.48-27.83-169.51,4.43-44.55,29.31-69.64,87.37-120.91,102.06-20.77,5.95-43.09,3.59-64.06-1.62-33.87-8.42-65.88-24.22-93.16-45.98-25.64-20.45-46.86-45.83-70.82-68.22-36.29-33.91-78.99-60.93-125.18-79.19-27.32-10.8-58.37-18.48-85.63-7.53-44.52,17.87-57.33,76.16-49.2,123.44,8.13,47.28,30.48,92.12,31.33,140.08-9.35-8.48-14.53-20.49-19.43-32.12-20.1-47.63-40.48-96.46-43.28-148.08-2.8-51.62,15.42-107.48,58.4-136.22,57.95-38.76,138.61-15.44,193.7,27.27,55.1,42.71,95.43,101.93,149.52,145.91,27.03,21.98,59.99,40.61,94.69,37.61,63.17-5.46,98.06-75.31,152-108.63,49.53-30.6,113.06-28.21,169.28-13.07,56.22,15.14,108.81,41.73,164.89,57.37,56.08,15.64,119.36,19.17,169.68-10.1,11.91-6.93,22.85-15.56,35.33-21.41,31.12-14.59,73.19-29.45,103.31-40.5Z"/><path d="M2173.13,50.37c-1.95-29.99-15.09-46.33-43.06-49.85-34.03-4.28-65.3,18.72-93.08,38.83-71.4,51.68-151.05,111.02-238.08,97.05-48.84-7.84-90.59-38.01-133.61-62.43-43.02-24.42-94.12-44.05-141.14-28.67-93.36,30.54-111.11,175.06-205.73,201.43-52.22,14.56-106.9-14.77-146.87-51.38-39.98-36.61-72.81-81.81-118.87-110.4-67.88-42.13-161.11-37.74-233.3-3.52-70.77,33.55-126.55,125.03-133.79,204.72-6.9,12,.71,29.67,14.17,32.91,4-2.41,4.94-7.95,3.9-12.5-1.05-4.55-3.6-8.6-5.11-13.02-2.02-5.9-2.14-12.29-1.79-18.52,2.7-48.04,31.06-90.42,59.74-129.05,8.12-10.94,16.44-21.89,26.8-30.74,21.42-18.28,49.7-26.08,77.28-31.79,32.98-6.84,66.71-11.46,100.32-9.23,33.61,2.23,67.28,11.64,94.91,30.91,35.57,24.8,58.57,63.71,90.39,89.86,25.1,25.89,52.82,50.22,85.89,64.6s75.35,5.34,107.82-10.36c59.79-28.92,72.69-94.92,120.99-140.51,35.8-33.8,69.6-59.08,118.59-54.23,49,4.85,101.79,41.04,142.98,68.02,21.29,13.94,54.23,27.13,79.32,31.32,22.01,3.68,44.38-2.2,65.92-8.03,46.9-12.7,94.82-25.85,134.84-53.41,19.58-13.49,36.78-30.11,55.53-44.73,25.4-19.8,41.8-54.44,115.03,2.73Z"/></g></g></g></svg>